%FSLAX45Y45*%
G04 Gerber Fmt 4.5, Leading zero omitted, Abs format (unit mm)*
G04 Created by KiCad (PCBNEW 5.1.5+dfsg1-2build2) date 2024-04-23 22:32:17*
%MOMM*%
%LPD*%
G04 APERTURE LIST*
%TA.AperFunction,Profile*%
%ADD10C,0.150000*%
%TD*%
%ADD11C,0.200000*%
%ADD12C,0.300000*%
G04 APERTURE END LIST*
D10*
X18516600Y-12928600D02*
X14833600Y-12928600D01*
X18516600Y-5816600D02*
X18516600Y-12928600D01*
X10515600Y-5816600D02*
X18516600Y-5816600D01*
X10515600Y-6324600D02*
X10515600Y-5816600D01*
X10515600Y-6324600D02*
X10515600Y-12928600D01*
X10515600Y-12928600D02*
X14833600Y-12928600D01*
X10515600Y-12420600D02*
X10515600Y-12928600D01*
D11*
X11735562Y-9195562D02*
X11835638Y-9295638D01*
X11835638Y-9195562D02*
X11735562Y-9295638D01*
X11989562Y-9195562D02*
X12089638Y-9295638D01*
X12089638Y-9195562D02*
X11989562Y-9295638D01*
X10973562Y-7925562D02*
X11073638Y-8025638D01*
X11073638Y-7925562D02*
X10973562Y-8025638D01*
X12497562Y-9195562D02*
X12597638Y-9295638D01*
X12597638Y-9195562D02*
X12497562Y-9295638D01*
X13997562Y-9195562D02*
X14097638Y-9295638D01*
X14097638Y-9195562D02*
X13997562Y-9295638D01*
X14656816Y-10719562D02*
X14756892Y-10819638D01*
X14756892Y-10719562D02*
X14656816Y-10819638D01*
X14656816Y-11735562D02*
X14756892Y-11835638D01*
X14756892Y-11735562D02*
X14656816Y-11835638D01*
X10973562Y-12116562D02*
X11073638Y-12216638D01*
X11073638Y-12116562D02*
X10973562Y-12216638D01*
X10973562Y-12370562D02*
X11073638Y-12470638D01*
X11073638Y-12370562D02*
X10973562Y-12470638D01*
X14656562Y-7925562D02*
X14756638Y-8025638D01*
X14756638Y-7925562D02*
X14656562Y-8025638D01*
X14656562Y-8179562D02*
X14756638Y-8279638D01*
X14756638Y-8179562D02*
X14656562Y-8279638D01*
X12497562Y-6782562D02*
X12597638Y-6882638D01*
X12597638Y-6782562D02*
X12497562Y-6882638D01*
X13997562Y-6782562D02*
X14097638Y-6882638D01*
X14097638Y-6782562D02*
X13997562Y-6882638D01*
X11735562Y-12370562D02*
X11835638Y-12470638D01*
X11835638Y-12370562D02*
X11735562Y-12470638D01*
X11989562Y-12370562D02*
X12089638Y-12470638D01*
X12089638Y-12370562D02*
X11989562Y-12470638D01*
X10973562Y-6274562D02*
X11073638Y-6374638D01*
X11073638Y-6274562D02*
X10973562Y-6374638D01*
X10973562Y-6528562D02*
X11073638Y-6628638D01*
X11073638Y-6528562D02*
X10973562Y-6628638D01*
X10973562Y-6782562D02*
X11073638Y-6882638D01*
X11073638Y-6782562D02*
X10973562Y-6882638D01*
X12521562Y-11100562D02*
X12621638Y-11200638D01*
X12621638Y-11100562D02*
X12521562Y-11200638D01*
X14021562Y-11100562D02*
X14121638Y-11200638D01*
X14121638Y-11100562D02*
X14021562Y-11200638D01*
X11735562Y-10465562D02*
X11835638Y-10565638D01*
X11835638Y-10465562D02*
X11735562Y-10565638D01*
X11989562Y-10465562D02*
X12089638Y-10565638D01*
X12089638Y-10465562D02*
X11989562Y-10565638D01*
X14910562Y-12370562D02*
X15010638Y-12470638D01*
X15010638Y-12370562D02*
X14910562Y-12470638D01*
X12497562Y-9830562D02*
X12597638Y-9930638D01*
X12597638Y-9830562D02*
X12497562Y-9930638D01*
X13997562Y-9830562D02*
X14097638Y-9930638D01*
X14097638Y-9830562D02*
X13997562Y-9930638D01*
X11735562Y-11735562D02*
X11835638Y-11835638D01*
X11835638Y-11735562D02*
X11735562Y-11835638D01*
X11989562Y-11735562D02*
X12089638Y-11835638D01*
X12089638Y-11735562D02*
X11989562Y-11835638D01*
X11735562Y-6782562D02*
X11835638Y-6882638D01*
X11835638Y-6782562D02*
X11735562Y-6882638D01*
X11989562Y-6782562D02*
X12089638Y-6882638D01*
X12089638Y-6782562D02*
X11989562Y-6882638D01*
X13767562Y-12370562D02*
X13867638Y-12470638D01*
X13867638Y-12370562D02*
X13767562Y-12470638D01*
X14021562Y-12370562D02*
X14121638Y-12470638D01*
X14121638Y-12370562D02*
X14021562Y-12470638D01*
X14275562Y-12370562D02*
X14375638Y-12470638D01*
X14375638Y-12370562D02*
X14275562Y-12470638D01*
X10973562Y-9195562D02*
X11073638Y-9295638D01*
X11073638Y-9195562D02*
X10973562Y-9295638D01*
X10973562Y-9449562D02*
X11073638Y-9549638D01*
X11073638Y-9449562D02*
X10973562Y-9549638D01*
X10973562Y-9703562D02*
X11073638Y-9803638D01*
X11073638Y-9703562D02*
X10973562Y-9803638D01*
X10973562Y-9957562D02*
X11073638Y-10057638D01*
X11073638Y-9957562D02*
X10973562Y-10057638D01*
X10973562Y-10211562D02*
X11073638Y-10311638D01*
X11073638Y-10211562D02*
X10973562Y-10311638D01*
X10973562Y-10465562D02*
X11073638Y-10565638D01*
X11073638Y-10465562D02*
X10973562Y-10565638D01*
X12497562Y-11735562D02*
X12597638Y-11835638D01*
X12597638Y-11735562D02*
X12497562Y-11835638D01*
X13997562Y-11735562D02*
X14097638Y-11835638D01*
X14097638Y-11735562D02*
X13997562Y-11835638D01*
X11735562Y-8560562D02*
X11835638Y-8660638D01*
X11835638Y-8560562D02*
X11735562Y-8660638D01*
X11989562Y-8560562D02*
X12089638Y-8660638D01*
X12089638Y-8560562D02*
X11989562Y-8660638D01*
X12497562Y-10465562D02*
X12597638Y-10565638D01*
X12597638Y-10465562D02*
X12497562Y-10565638D01*
X13997562Y-10465562D02*
X14097638Y-10565638D01*
X14097638Y-10465562D02*
X13997562Y-10565638D01*
X11735562Y-9830562D02*
X11835638Y-9930638D01*
X11835638Y-9830562D02*
X11735562Y-9930638D01*
X11989562Y-9830562D02*
X12089638Y-9930638D01*
X12089638Y-9830562D02*
X11989562Y-9930638D01*
X11735562Y-11100562D02*
X11835638Y-11200638D01*
X11835638Y-11100562D02*
X11735562Y-11200638D01*
X11989562Y-11100562D02*
X12089638Y-11200638D01*
X12089638Y-11100562D02*
X11989562Y-11200638D01*
X13132562Y-12370562D02*
X13232638Y-12470638D01*
X13232638Y-12370562D02*
X13132562Y-12470638D01*
X14656308Y-9195562D02*
X14756384Y-9295638D01*
X14756384Y-9195562D02*
X14656308Y-9295638D01*
X14656308Y-10211562D02*
X14756384Y-10311638D01*
X14756384Y-10211562D02*
X14656308Y-10311638D01*
X12497562Y-7925562D02*
X12597638Y-8025638D01*
X12597638Y-7925562D02*
X12497562Y-8025638D01*
X13997562Y-7925562D02*
X14097638Y-8025638D01*
X14097638Y-7925562D02*
X13997562Y-8025638D01*
X12497562Y-8560562D02*
X12597638Y-8660638D01*
X12597638Y-8560562D02*
X12497562Y-8660638D01*
X13997562Y-8560562D02*
X14097638Y-8660638D01*
X14097638Y-8560562D02*
X13997562Y-8660638D01*
X12497562Y-6274816D02*
X12597638Y-6374892D01*
X12597638Y-6274816D02*
X12497562Y-6374892D01*
X13513562Y-6274816D02*
X13613638Y-6374892D01*
X13613638Y-6274816D02*
X13513562Y-6374892D01*
X11735562Y-7925562D02*
X11835638Y-8025638D01*
X11835638Y-7925562D02*
X11735562Y-8025638D01*
X11989562Y-7925562D02*
X12089638Y-8025638D01*
X12089638Y-7925562D02*
X11989562Y-8025638D01*
X12497562Y-12370562D02*
X12597638Y-12470638D01*
X12597638Y-12370562D02*
X12497562Y-12470638D01*
X10973562Y-10973562D02*
X11073638Y-11073638D01*
X11073638Y-10973562D02*
X10973562Y-11073638D01*
X10973562Y-11227562D02*
X11073638Y-11327638D01*
X11073638Y-11227562D02*
X10973562Y-11327638D01*
X10973562Y-11481562D02*
X11073638Y-11581638D01*
X11073638Y-11481562D02*
X10973562Y-11581638D01*
X18143200Y-12395200D02*
G75*
G03X18143200Y-12395200I-160000J0D01*
G01*
X11183600Y-8585200D02*
G75*
G03X11183600Y-8585200I-160000J0D01*
G01*
X18143200Y-6350000D02*
G75*
G03X18143200Y-6350000I-160000J0D01*
G01*
D12*
X10794528Y-13401814D02*
X10794528Y-13101814D01*
X10865957Y-13101814D01*
X10908814Y-13116100D01*
X10937386Y-13144671D01*
X10951671Y-13173243D01*
X10965957Y-13230386D01*
X10965957Y-13273243D01*
X10951671Y-13330386D01*
X10937386Y-13358957D01*
X10908814Y-13387529D01*
X10865957Y-13401814D01*
X10794528Y-13401814D01*
X11094528Y-13401814D02*
X11094528Y-13201814D01*
X11094528Y-13258957D02*
X11108814Y-13230386D01*
X11123100Y-13216100D01*
X11151671Y-13201814D01*
X11180243Y-13201814D01*
X11280243Y-13401814D02*
X11280243Y-13201814D01*
X11280243Y-13101814D02*
X11265957Y-13116100D01*
X11280243Y-13130386D01*
X11294528Y-13116100D01*
X11280243Y-13101814D01*
X11280243Y-13130386D01*
X11465957Y-13401814D02*
X11437386Y-13387529D01*
X11423100Y-13358957D01*
X11423100Y-13101814D01*
X11623100Y-13401814D02*
X11594528Y-13387529D01*
X11580243Y-13358957D01*
X11580243Y-13101814D01*
X11965957Y-13401814D02*
X11965957Y-13101814D01*
X12065957Y-13316100D01*
X12165957Y-13101814D01*
X12165957Y-13401814D01*
X12437386Y-13401814D02*
X12437386Y-13244671D01*
X12423100Y-13216100D01*
X12394528Y-13201814D01*
X12337386Y-13201814D01*
X12308814Y-13216100D01*
X12437386Y-13387529D02*
X12408814Y-13401814D01*
X12337386Y-13401814D01*
X12308814Y-13387529D01*
X12294528Y-13358957D01*
X12294528Y-13330386D01*
X12308814Y-13301814D01*
X12337386Y-13287529D01*
X12408814Y-13287529D01*
X12437386Y-13273243D01*
X12580243Y-13201814D02*
X12580243Y-13501814D01*
X12580243Y-13216100D02*
X12608814Y-13201814D01*
X12665957Y-13201814D01*
X12694528Y-13216100D01*
X12708814Y-13230386D01*
X12723100Y-13258957D01*
X12723100Y-13344671D01*
X12708814Y-13373243D01*
X12694528Y-13387529D01*
X12665957Y-13401814D01*
X12608814Y-13401814D01*
X12580243Y-13387529D01*
X12851671Y-13373243D02*
X12865957Y-13387529D01*
X12851671Y-13401814D01*
X12837386Y-13387529D01*
X12851671Y-13373243D01*
X12851671Y-13401814D01*
X12851671Y-13216100D02*
X12865957Y-13230386D01*
X12851671Y-13244671D01*
X12837386Y-13230386D01*
X12851671Y-13216100D01*
X12851671Y-13244671D01*
X10408024Y-13846062D02*
X10508100Y-13946138D01*
X10508100Y-13846062D02*
X10408024Y-13946138D01*
X10951671Y-14031814D02*
X10780243Y-14031814D01*
X10865957Y-14031814D02*
X10865957Y-13731814D01*
X10837386Y-13774671D01*
X10808814Y-13803243D01*
X10780243Y-13817529D01*
X11080243Y-14003243D02*
X11094528Y-14017529D01*
X11080243Y-14031814D01*
X11065957Y-14017529D01*
X11080243Y-14003243D01*
X11080243Y-14031814D01*
X11280243Y-13731814D02*
X11308814Y-13731814D01*
X11337386Y-13746100D01*
X11351671Y-13760386D01*
X11365957Y-13788957D01*
X11380243Y-13846100D01*
X11380243Y-13917529D01*
X11365957Y-13974671D01*
X11351671Y-14003243D01*
X11337386Y-14017529D01*
X11308814Y-14031814D01*
X11280243Y-14031814D01*
X11251671Y-14017529D01*
X11237386Y-14003243D01*
X11223100Y-13974671D01*
X11208814Y-13917529D01*
X11208814Y-13846100D01*
X11223100Y-13788957D01*
X11237386Y-13760386D01*
X11251671Y-13746100D01*
X11280243Y-13731814D01*
X11565957Y-13731814D02*
X11594528Y-13731814D01*
X11623100Y-13746100D01*
X11637386Y-13760386D01*
X11651671Y-13788957D01*
X11665957Y-13846100D01*
X11665957Y-13917529D01*
X11651671Y-13974671D01*
X11637386Y-14003243D01*
X11623100Y-14017529D01*
X11594528Y-14031814D01*
X11565957Y-14031814D01*
X11537386Y-14017529D01*
X11523100Y-14003243D01*
X11508814Y-13974671D01*
X11494528Y-13917529D01*
X11494528Y-13846100D01*
X11508814Y-13788957D01*
X11523100Y-13760386D01*
X11537386Y-13746100D01*
X11565957Y-13731814D01*
X11794528Y-14031814D02*
X11794528Y-13831814D01*
X11794528Y-13860386D02*
X11808814Y-13846100D01*
X11837386Y-13831814D01*
X11880243Y-13831814D01*
X11908814Y-13846100D01*
X11923100Y-13874671D01*
X11923100Y-14031814D01*
X11923100Y-13874671D02*
X11937386Y-13846100D01*
X11965957Y-13831814D01*
X12008814Y-13831814D01*
X12037386Y-13846100D01*
X12051671Y-13874671D01*
X12051671Y-14031814D01*
X12194528Y-14031814D02*
X12194528Y-13831814D01*
X12194528Y-13860386D02*
X12208814Y-13846100D01*
X12237386Y-13831814D01*
X12280243Y-13831814D01*
X12308814Y-13846100D01*
X12323100Y-13874671D01*
X12323100Y-14031814D01*
X12323100Y-13874671D02*
X12337386Y-13846100D01*
X12365957Y-13831814D01*
X12408814Y-13831814D01*
X12437386Y-13846100D01*
X12451671Y-13874671D01*
X12451671Y-14031814D01*
X13037386Y-13717529D02*
X12780243Y-14103243D01*
X13423100Y-13731814D02*
X13451671Y-13731814D01*
X13480243Y-13746100D01*
X13494528Y-13760386D01*
X13508814Y-13788957D01*
X13523100Y-13846100D01*
X13523100Y-13917529D01*
X13508814Y-13974671D01*
X13494528Y-14003243D01*
X13480243Y-14017529D01*
X13451671Y-14031814D01*
X13423100Y-14031814D01*
X13394528Y-14017529D01*
X13380243Y-14003243D01*
X13365957Y-13974671D01*
X13351671Y-13917529D01*
X13351671Y-13846100D01*
X13365957Y-13788957D01*
X13380243Y-13760386D01*
X13394528Y-13746100D01*
X13423100Y-13731814D01*
X13651671Y-14003243D02*
X13665957Y-14017529D01*
X13651671Y-14031814D01*
X13637386Y-14017529D01*
X13651671Y-14003243D01*
X13651671Y-14031814D01*
X13851671Y-13731814D02*
X13880243Y-13731814D01*
X13908814Y-13746100D01*
X13923100Y-13760386D01*
X13937386Y-13788957D01*
X13951671Y-13846100D01*
X13951671Y-13917529D01*
X13937386Y-13974671D01*
X13923100Y-14003243D01*
X13908814Y-14017529D01*
X13880243Y-14031814D01*
X13851671Y-14031814D01*
X13823100Y-14017529D01*
X13808814Y-14003243D01*
X13794528Y-13974671D01*
X13780243Y-13917529D01*
X13780243Y-13846100D01*
X13794528Y-13788957D01*
X13808814Y-13760386D01*
X13823100Y-13746100D01*
X13851671Y-13731814D01*
X14051671Y-13731814D02*
X14237386Y-13731814D01*
X14137386Y-13846100D01*
X14180243Y-13846100D01*
X14208814Y-13860386D01*
X14223100Y-13874671D01*
X14237386Y-13903243D01*
X14237386Y-13974671D01*
X14223100Y-14003243D01*
X14208814Y-14017529D01*
X14180243Y-14031814D01*
X14094528Y-14031814D01*
X14065957Y-14017529D01*
X14051671Y-14003243D01*
X14380243Y-14031814D02*
X14437386Y-14031814D01*
X14465957Y-14017529D01*
X14480243Y-14003243D01*
X14508814Y-13960386D01*
X14523100Y-13903243D01*
X14523100Y-13788957D01*
X14508814Y-13760386D01*
X14494528Y-13746100D01*
X14465957Y-13731814D01*
X14408814Y-13731814D01*
X14380243Y-13746100D01*
X14365957Y-13760386D01*
X14351671Y-13788957D01*
X14351671Y-13860386D01*
X14365957Y-13888957D01*
X14380243Y-13903243D01*
X14408814Y-13917529D01*
X14465957Y-13917529D01*
X14494528Y-13903243D01*
X14508814Y-13888957D01*
X14523100Y-13860386D01*
X14637386Y-13731814D02*
X14637386Y-13788957D01*
X14751671Y-13731814D02*
X14751671Y-13788957D01*
X15194528Y-14146100D02*
X15180243Y-14131814D01*
X15151671Y-14088957D01*
X15137386Y-14060386D01*
X15123100Y-14017529D01*
X15108814Y-13946100D01*
X15108814Y-13888957D01*
X15123100Y-13817529D01*
X15137386Y-13774671D01*
X15151671Y-13746100D01*
X15180243Y-13703243D01*
X15194528Y-13688957D01*
X15437386Y-13731814D02*
X15380243Y-13731814D01*
X15351671Y-13746100D01*
X15337386Y-13760386D01*
X15308814Y-13803243D01*
X15294528Y-13860386D01*
X15294528Y-13974671D01*
X15308814Y-14003243D01*
X15323100Y-14017529D01*
X15351671Y-14031814D01*
X15408814Y-14031814D01*
X15437386Y-14017529D01*
X15451671Y-14003243D01*
X15465957Y-13974671D01*
X15465957Y-13903243D01*
X15451671Y-13874671D01*
X15437386Y-13860386D01*
X15408814Y-13846100D01*
X15351671Y-13846100D01*
X15323100Y-13860386D01*
X15308814Y-13874671D01*
X15294528Y-13903243D01*
X15565957Y-13731814D02*
X15751671Y-13731814D01*
X15651671Y-13846100D01*
X15694528Y-13846100D01*
X15723100Y-13860386D01*
X15737386Y-13874671D01*
X15751671Y-13903243D01*
X15751671Y-13974671D01*
X15737386Y-14003243D01*
X15723100Y-14017529D01*
X15694528Y-14031814D01*
X15608814Y-14031814D01*
X15580243Y-14017529D01*
X15565957Y-14003243D01*
X16108814Y-14031814D02*
X16108814Y-13731814D01*
X16237386Y-14031814D02*
X16237386Y-13874671D01*
X16223100Y-13846100D01*
X16194528Y-13831814D01*
X16151671Y-13831814D01*
X16123100Y-13846100D01*
X16108814Y-13860386D01*
X16423100Y-14031814D02*
X16394528Y-14017529D01*
X16380243Y-14003243D01*
X16365957Y-13974671D01*
X16365957Y-13888957D01*
X16380243Y-13860386D01*
X16394528Y-13846100D01*
X16423100Y-13831814D01*
X16465957Y-13831814D01*
X16494528Y-13846100D01*
X16508814Y-13860386D01*
X16523100Y-13888957D01*
X16523100Y-13974671D01*
X16508814Y-14003243D01*
X16494528Y-14017529D01*
X16465957Y-14031814D01*
X16423100Y-14031814D01*
X16694528Y-14031814D02*
X16665957Y-14017529D01*
X16651671Y-13988957D01*
X16651671Y-13731814D01*
X16923100Y-14017529D02*
X16894528Y-14031814D01*
X16837386Y-14031814D01*
X16808814Y-14017529D01*
X16794528Y-13988957D01*
X16794528Y-13874671D01*
X16808814Y-13846100D01*
X16837386Y-13831814D01*
X16894528Y-13831814D01*
X16923100Y-13846100D01*
X16937386Y-13874671D01*
X16937386Y-13903243D01*
X16794528Y-13931814D01*
X17051671Y-14017529D02*
X17080243Y-14031814D01*
X17137386Y-14031814D01*
X17165957Y-14017529D01*
X17180243Y-13988957D01*
X17180243Y-13974671D01*
X17165957Y-13946100D01*
X17137386Y-13931814D01*
X17094528Y-13931814D01*
X17065957Y-13917529D01*
X17051671Y-13888957D01*
X17051671Y-13874671D01*
X17065957Y-13846100D01*
X17094528Y-13831814D01*
X17137386Y-13831814D01*
X17165957Y-13846100D01*
X17280243Y-14146100D02*
X17294528Y-14131814D01*
X17323100Y-14088957D01*
X17337386Y-14060386D01*
X17351671Y-14017529D01*
X17365957Y-13946100D01*
X17365957Y-13888957D01*
X17351671Y-13817529D01*
X17337386Y-13774671D01*
X17323100Y-13746100D01*
X17294528Y-13703243D01*
X17280243Y-13688957D01*
X10508100Y-14292100D02*
G75*
G03X10508100Y-14292100I-160000J0D01*
G01*
X10765957Y-14127814D02*
X10951671Y-14127814D01*
X10851671Y-14242100D01*
X10894528Y-14242100D01*
X10923100Y-14256386D01*
X10937386Y-14270671D01*
X10951671Y-14299243D01*
X10951671Y-14370671D01*
X10937386Y-14399243D01*
X10923100Y-14413529D01*
X10894528Y-14427814D01*
X10808814Y-14427814D01*
X10780243Y-14413529D01*
X10765957Y-14399243D01*
X11080243Y-14399243D02*
X11094528Y-14413529D01*
X11080243Y-14427814D01*
X11065957Y-14413529D01*
X11080243Y-14399243D01*
X11080243Y-14427814D01*
X11208814Y-14156386D02*
X11223100Y-14142100D01*
X11251671Y-14127814D01*
X11323100Y-14127814D01*
X11351671Y-14142100D01*
X11365957Y-14156386D01*
X11380243Y-14184957D01*
X11380243Y-14213529D01*
X11365957Y-14256386D01*
X11194528Y-14427814D01*
X11380243Y-14427814D01*
X11565957Y-14127814D02*
X11594528Y-14127814D01*
X11623100Y-14142100D01*
X11637386Y-14156386D01*
X11651671Y-14184957D01*
X11665957Y-14242100D01*
X11665957Y-14313529D01*
X11651671Y-14370671D01*
X11637386Y-14399243D01*
X11623100Y-14413529D01*
X11594528Y-14427814D01*
X11565957Y-14427814D01*
X11537386Y-14413529D01*
X11523100Y-14399243D01*
X11508814Y-14370671D01*
X11494528Y-14313529D01*
X11494528Y-14242100D01*
X11508814Y-14184957D01*
X11523100Y-14156386D01*
X11537386Y-14142100D01*
X11565957Y-14127814D01*
X11794528Y-14427814D02*
X11794528Y-14227814D01*
X11794528Y-14256386D02*
X11808814Y-14242100D01*
X11837386Y-14227814D01*
X11880243Y-14227814D01*
X11908814Y-14242100D01*
X11923100Y-14270671D01*
X11923100Y-14427814D01*
X11923100Y-14270671D02*
X11937386Y-14242100D01*
X11965957Y-14227814D01*
X12008814Y-14227814D01*
X12037386Y-14242100D01*
X12051671Y-14270671D01*
X12051671Y-14427814D01*
X12194528Y-14427814D02*
X12194528Y-14227814D01*
X12194528Y-14256386D02*
X12208814Y-14242100D01*
X12237386Y-14227814D01*
X12280243Y-14227814D01*
X12308814Y-14242100D01*
X12323100Y-14270671D01*
X12323100Y-14427814D01*
X12323100Y-14270671D02*
X12337386Y-14242100D01*
X12365957Y-14227814D01*
X12408814Y-14227814D01*
X12437386Y-14242100D01*
X12451671Y-14270671D01*
X12451671Y-14427814D01*
X13037386Y-14113529D02*
X12780243Y-14499243D01*
X13423100Y-14127814D02*
X13451671Y-14127814D01*
X13480243Y-14142100D01*
X13494528Y-14156386D01*
X13508814Y-14184957D01*
X13523100Y-14242100D01*
X13523100Y-14313529D01*
X13508814Y-14370671D01*
X13494528Y-14399243D01*
X13480243Y-14413529D01*
X13451671Y-14427814D01*
X13423100Y-14427814D01*
X13394528Y-14413529D01*
X13380243Y-14399243D01*
X13365957Y-14370671D01*
X13351671Y-14313529D01*
X13351671Y-14242100D01*
X13365957Y-14184957D01*
X13380243Y-14156386D01*
X13394528Y-14142100D01*
X13423100Y-14127814D01*
X13651671Y-14399243D02*
X13665957Y-14413529D01*
X13651671Y-14427814D01*
X13637386Y-14413529D01*
X13651671Y-14399243D01*
X13651671Y-14427814D01*
X13951671Y-14427814D02*
X13780243Y-14427814D01*
X13865957Y-14427814D02*
X13865957Y-14127814D01*
X13837386Y-14170671D01*
X13808814Y-14199243D01*
X13780243Y-14213529D01*
X14065957Y-14156386D02*
X14080243Y-14142100D01*
X14108814Y-14127814D01*
X14180243Y-14127814D01*
X14208814Y-14142100D01*
X14223100Y-14156386D01*
X14237386Y-14184957D01*
X14237386Y-14213529D01*
X14223100Y-14256386D01*
X14051671Y-14427814D01*
X14237386Y-14427814D01*
X14494528Y-14127814D02*
X14437386Y-14127814D01*
X14408814Y-14142100D01*
X14394528Y-14156386D01*
X14365957Y-14199243D01*
X14351671Y-14256386D01*
X14351671Y-14370671D01*
X14365957Y-14399243D01*
X14380243Y-14413529D01*
X14408814Y-14427814D01*
X14465957Y-14427814D01*
X14494528Y-14413529D01*
X14508814Y-14399243D01*
X14523100Y-14370671D01*
X14523100Y-14299243D01*
X14508814Y-14270671D01*
X14494528Y-14256386D01*
X14465957Y-14242100D01*
X14408814Y-14242100D01*
X14380243Y-14256386D01*
X14365957Y-14270671D01*
X14351671Y-14299243D01*
X14637386Y-14127814D02*
X14637386Y-14184957D01*
X14751671Y-14127814D02*
X14751671Y-14184957D01*
X15194528Y-14542100D02*
X15180243Y-14527814D01*
X15151671Y-14484957D01*
X15137386Y-14456386D01*
X15123100Y-14413529D01*
X15108814Y-14342100D01*
X15108814Y-14284957D01*
X15123100Y-14213529D01*
X15137386Y-14170671D01*
X15151671Y-14142100D01*
X15180243Y-14099243D01*
X15194528Y-14084957D01*
X15280243Y-14127814D02*
X15465957Y-14127814D01*
X15365957Y-14242100D01*
X15408814Y-14242100D01*
X15437386Y-14256386D01*
X15451671Y-14270671D01*
X15465957Y-14299243D01*
X15465957Y-14370671D01*
X15451671Y-14399243D01*
X15437386Y-14413529D01*
X15408814Y-14427814D01*
X15323100Y-14427814D01*
X15294528Y-14413529D01*
X15280243Y-14399243D01*
X15823100Y-14427814D02*
X15823100Y-14127814D01*
X15951671Y-14427814D02*
X15951671Y-14270671D01*
X15937386Y-14242100D01*
X15908814Y-14227814D01*
X15865957Y-14227814D01*
X15837386Y-14242100D01*
X15823100Y-14256386D01*
X16137386Y-14427814D02*
X16108814Y-14413529D01*
X16094528Y-14399243D01*
X16080243Y-14370671D01*
X16080243Y-14284957D01*
X16094528Y-14256386D01*
X16108814Y-14242100D01*
X16137386Y-14227814D01*
X16180243Y-14227814D01*
X16208814Y-14242100D01*
X16223100Y-14256386D01*
X16237386Y-14284957D01*
X16237386Y-14370671D01*
X16223100Y-14399243D01*
X16208814Y-14413529D01*
X16180243Y-14427814D01*
X16137386Y-14427814D01*
X16408814Y-14427814D02*
X16380243Y-14413529D01*
X16365957Y-14384957D01*
X16365957Y-14127814D01*
X16637386Y-14413529D02*
X16608814Y-14427814D01*
X16551671Y-14427814D01*
X16523100Y-14413529D01*
X16508814Y-14384957D01*
X16508814Y-14270671D01*
X16523100Y-14242100D01*
X16551671Y-14227814D01*
X16608814Y-14227814D01*
X16637386Y-14242100D01*
X16651671Y-14270671D01*
X16651671Y-14299243D01*
X16508814Y-14327814D01*
X16765957Y-14413529D02*
X16794528Y-14427814D01*
X16851671Y-14427814D01*
X16880243Y-14413529D01*
X16894528Y-14384957D01*
X16894528Y-14370671D01*
X16880243Y-14342100D01*
X16851671Y-14327814D01*
X16808814Y-14327814D01*
X16780243Y-14313529D01*
X16765957Y-14284957D01*
X16765957Y-14270671D01*
X16780243Y-14242100D01*
X16808814Y-14227814D01*
X16851671Y-14227814D01*
X16880243Y-14242100D01*
X16994528Y-14542100D02*
X17008814Y-14527814D01*
X17037386Y-14484957D01*
X17051671Y-14456386D01*
X17065957Y-14413529D01*
X17080243Y-14342100D01*
X17080243Y-14284957D01*
X17065957Y-14213529D01*
X17051671Y-14170671D01*
X17037386Y-14142100D01*
X17008814Y-14099243D01*
X16994528Y-14084957D01*
M02*
