G04 #@! TF.FileFunction,Legend,Top*
%FSLAX46Y46*%
G04 Gerber Fmt 4.6, Leading zero omitted, Abs format (unit mm)*
G04 Created by KiCad (PCBNEW 4.0.5+dfsg1-4) date Thu Oct 29 19:25:02 2020*
%MOMM*%
%LPD*%
G01*
G04 APERTURE LIST*
%ADD10C,0.100000*%
%ADD11C,0.300000*%
%ADD12C,0.200000*%
%ADD13C,0.150000*%
G04 APERTURE END LIST*
D10*
D11*
X156326001Y-125138571D02*
X156326001Y-123638571D01*
X156683144Y-123638571D01*
X156897429Y-123710000D01*
X157040287Y-123852857D01*
X157111715Y-123995714D01*
X157183144Y-124281429D01*
X157183144Y-124495714D01*
X157111715Y-124781429D01*
X157040287Y-124924286D01*
X156897429Y-125067143D01*
X156683144Y-125138571D01*
X156326001Y-125138571D01*
X157826001Y-125138571D02*
X157826001Y-123638571D01*
X158683144Y-125138571D01*
X158683144Y-123638571D01*
X159397430Y-124995714D02*
X159468858Y-125067143D01*
X159397430Y-125138571D01*
X159326001Y-125067143D01*
X159397430Y-124995714D01*
X159397430Y-125138571D01*
X159397430Y-124210000D02*
X159468858Y-124281429D01*
X159397430Y-124352857D01*
X159326001Y-124281429D01*
X159397430Y-124210000D01*
X159397430Y-124352857D01*
X161968859Y-123638571D02*
X161254573Y-123638571D01*
X161183144Y-124352857D01*
X161254573Y-124281429D01*
X161397430Y-124210000D01*
X161754573Y-124210000D01*
X161897430Y-124281429D01*
X161968859Y-124352857D01*
X162040287Y-124495714D01*
X162040287Y-124852857D01*
X161968859Y-124995714D01*
X161897430Y-125067143D01*
X161754573Y-125138571D01*
X161397430Y-125138571D01*
X161254573Y-125067143D01*
X161183144Y-124995714D01*
X162754572Y-125138571D02*
X163040287Y-125138571D01*
X163183144Y-125067143D01*
X163254572Y-124995714D01*
X163397430Y-124781429D01*
X163468858Y-124495714D01*
X163468858Y-123924286D01*
X163397430Y-123781429D01*
X163326001Y-123710000D01*
X163183144Y-123638571D01*
X162897430Y-123638571D01*
X162754572Y-123710000D01*
X162683144Y-123781429D01*
X162611715Y-123924286D01*
X162611715Y-124281429D01*
X162683144Y-124424286D01*
X162754572Y-124495714D01*
X162897430Y-124567143D01*
X163183144Y-124567143D01*
X163326001Y-124495714D01*
X163397430Y-124424286D01*
X163468858Y-124281429D01*
X165183143Y-123567143D02*
X163897429Y-125495714D01*
X166468858Y-125138571D02*
X165611715Y-125138571D01*
X166040287Y-125138571D02*
X166040287Y-123638571D01*
X165897430Y-123852857D01*
X165754572Y-123995714D01*
X165611715Y-124067143D01*
X167897429Y-125138571D02*
X167040286Y-125138571D01*
X167468858Y-125138571D02*
X167468858Y-123638571D01*
X167326001Y-123852857D01*
X167183143Y-123995714D01*
X167040286Y-124067143D01*
X169611714Y-123567143D02*
X168326000Y-125495714D01*
X170826001Y-123638571D02*
X170111715Y-123638571D01*
X170040286Y-124352857D01*
X170111715Y-124281429D01*
X170254572Y-124210000D01*
X170611715Y-124210000D01*
X170754572Y-124281429D01*
X170826001Y-124352857D01*
X170897429Y-124495714D01*
X170897429Y-124852857D01*
X170826001Y-124995714D01*
X170754572Y-125067143D01*
X170611715Y-125138571D01*
X170254572Y-125138571D01*
X170111715Y-125067143D01*
X170040286Y-124995714D01*
X162500858Y-67705857D02*
X162715144Y-67777286D01*
X162786572Y-67848714D01*
X162858001Y-67991571D01*
X162858001Y-68205857D01*
X162786572Y-68348714D01*
X162715144Y-68420143D01*
X162572286Y-68491571D01*
X162000858Y-68491571D01*
X162000858Y-66991571D01*
X162500858Y-66991571D01*
X162643715Y-67063000D01*
X162715144Y-67134429D01*
X162786572Y-67277286D01*
X162786572Y-67420143D01*
X162715144Y-67563000D01*
X162643715Y-67634429D01*
X162500858Y-67705857D01*
X162000858Y-67705857D01*
X164143715Y-68491571D02*
X164143715Y-67705857D01*
X164072286Y-67563000D01*
X163929429Y-67491571D01*
X163643715Y-67491571D01*
X163500858Y-67563000D01*
X164143715Y-68420143D02*
X164000858Y-68491571D01*
X163643715Y-68491571D01*
X163500858Y-68420143D01*
X163429429Y-68277286D01*
X163429429Y-68134429D01*
X163500858Y-67991571D01*
X163643715Y-67920143D01*
X164000858Y-67920143D01*
X164143715Y-67848714D01*
X164643715Y-67491571D02*
X165215144Y-67491571D01*
X164858001Y-66991571D02*
X164858001Y-68277286D01*
X164929429Y-68420143D01*
X165072287Y-68491571D01*
X165215144Y-68491571D01*
X165500858Y-67491571D02*
X166072287Y-67491571D01*
X165715144Y-66991571D02*
X165715144Y-68277286D01*
X165786572Y-68420143D01*
X165929430Y-68491571D01*
X166072287Y-68491571D01*
X167143715Y-68420143D02*
X167000858Y-68491571D01*
X166715144Y-68491571D01*
X166572287Y-68420143D01*
X166500858Y-68277286D01*
X166500858Y-67705857D01*
X166572287Y-67563000D01*
X166715144Y-67491571D01*
X167000858Y-67491571D01*
X167143715Y-67563000D01*
X167215144Y-67705857D01*
X167215144Y-67848714D01*
X166500858Y-67991571D01*
X167858001Y-68491571D02*
X167858001Y-67491571D01*
X167858001Y-67777286D02*
X167929429Y-67634429D01*
X168000858Y-67563000D01*
X168143715Y-67491571D01*
X168286572Y-67491571D01*
X168643715Y-67491571D02*
X169000858Y-68491571D01*
X169358000Y-67491571D02*
X169000858Y-68491571D01*
X168858000Y-68848714D01*
X168786572Y-68920143D01*
X168643715Y-68991571D01*
X163822287Y-69541571D02*
X163536573Y-69541571D01*
X163393716Y-69613000D01*
X163322287Y-69684429D01*
X163179430Y-69898714D01*
X163108001Y-70184429D01*
X163108001Y-70755857D01*
X163179430Y-70898714D01*
X163250858Y-70970143D01*
X163393716Y-71041571D01*
X163679430Y-71041571D01*
X163822287Y-70970143D01*
X163893716Y-70898714D01*
X163965144Y-70755857D01*
X163965144Y-70398714D01*
X163893716Y-70255857D01*
X163822287Y-70184429D01*
X163679430Y-70113000D01*
X163393716Y-70113000D01*
X163250858Y-70184429D01*
X163179430Y-70255857D01*
X163108001Y-70398714D01*
X165108001Y-70255857D02*
X164608001Y-70255857D01*
X164608001Y-71041571D02*
X164608001Y-69541571D01*
X165322287Y-69541571D01*
X165822286Y-69684429D02*
X165893715Y-69613000D01*
X166036572Y-69541571D01*
X166393715Y-69541571D01*
X166536572Y-69613000D01*
X166608001Y-69684429D01*
X166679429Y-69827286D01*
X166679429Y-69970143D01*
X166608001Y-70184429D01*
X165750858Y-71041571D01*
X166679429Y-71041571D01*
X167250857Y-69684429D02*
X167322286Y-69613000D01*
X167465143Y-69541571D01*
X167822286Y-69541571D01*
X167965143Y-69613000D01*
X168036572Y-69684429D01*
X168108000Y-69827286D01*
X168108000Y-69970143D01*
X168036572Y-70184429D01*
X167179429Y-71041571D01*
X168108000Y-71041571D01*
D12*
X146812000Y-74168000D02*
X146812000Y-61976000D01*
X108712000Y-74168000D02*
X146812000Y-74168000D01*
D13*
X185166000Y-129286000D02*
X148336000Y-129286000D01*
X185166000Y-58166000D02*
X185166000Y-129286000D01*
X105156000Y-58166000D02*
X185166000Y-58166000D01*
X105156000Y-63246000D02*
X105156000Y-58166000D01*
X105156000Y-63246000D02*
X105156000Y-129286000D01*
X105156000Y-129286000D02*
X148336000Y-129286000D01*
X105156000Y-124206000D02*
X105156000Y-129286000D01*
X148616000Y-83846000D02*
X148616000Y-82296000D01*
X148336000Y-78486000D02*
X148336000Y-81026000D01*
X148336000Y-81026000D02*
X145796000Y-81026000D01*
X145516000Y-82296000D02*
X145516000Y-83846000D01*
X145516000Y-83846000D02*
X148616000Y-83846000D01*
X145796000Y-81026000D02*
X145796000Y-78486000D01*
X145796000Y-78486000D02*
X148336000Y-78486000D01*
X116641112Y-69850904D02*
G75*
G03X116626000Y-66826000I2484888J1524904D01*
G01*
X116626000Y-69826000D02*
X116626000Y-66826000D01*
X121643936Y-68326000D02*
G75*
G03X121643936Y-68326000I-2517936J0D01*
G01*
X116641112Y-81280904D02*
G75*
G03X116626000Y-78256000I2484888J1524904D01*
G01*
X116626000Y-81256000D02*
X116626000Y-78256000D01*
X121643936Y-79756000D02*
G75*
G03X121643936Y-79756000I-2517936J0D01*
G01*
X116641112Y-87630904D02*
G75*
G03X116626000Y-84606000I2484888J1524904D01*
G01*
X116626000Y-87606000D02*
X116626000Y-84606000D01*
X121643936Y-86106000D02*
G75*
G03X121643936Y-86106000I-2517936J0D01*
G01*
X116641112Y-93980904D02*
G75*
G03X116626000Y-90956000I2484888J1524904D01*
G01*
X116626000Y-93956000D02*
X116626000Y-90956000D01*
X121643936Y-92456000D02*
G75*
G03X121643936Y-92456000I-2517936J0D01*
G01*
X116641112Y-100330904D02*
G75*
G03X116626000Y-97306000I2484888J1524904D01*
G01*
X116626000Y-100306000D02*
X116626000Y-97306000D01*
X121643936Y-98806000D02*
G75*
G03X121643936Y-98806000I-2517936J0D01*
G01*
X116641112Y-106680904D02*
G75*
G03X116626000Y-103656000I2484888J1524904D01*
G01*
X116626000Y-106656000D02*
X116626000Y-103656000D01*
X121643936Y-105156000D02*
G75*
G03X121643936Y-105156000I-2517936J0D01*
G01*
X116641112Y-113030904D02*
G75*
G03X116626000Y-110006000I2484888J1524904D01*
G01*
X116626000Y-113006000D02*
X116626000Y-110006000D01*
X121643936Y-111506000D02*
G75*
G03X121643936Y-111506000I-2517936J0D01*
G01*
X116641112Y-119380904D02*
G75*
G03X116626000Y-116356000I2484888J1524904D01*
G01*
X116626000Y-119356000D02*
X116626000Y-116356000D01*
X121643936Y-117856000D02*
G75*
G03X121643936Y-117856000I-2517936J0D01*
G01*
X116641112Y-125730904D02*
G75*
G03X116626000Y-122706000I2484888J1524904D01*
G01*
X116626000Y-125706000D02*
X116626000Y-122706000D01*
X121643936Y-124206000D02*
G75*
G03X121643936Y-124206000I-2517936J0D01*
G01*
X147068540Y-115316000D02*
X147068540Y-116332000D01*
X147068540Y-110490000D02*
X147068540Y-109220000D01*
X148338540Y-110744000D02*
X145798540Y-110744000D01*
X148338540Y-110998000D02*
X145798540Y-110998000D01*
X148338540Y-111252000D02*
X145798540Y-111252000D01*
X148338540Y-110490000D02*
X145798540Y-110490000D01*
X148338540Y-111506000D02*
X145798540Y-110236000D01*
X148338540Y-110236000D02*
X145798540Y-111506000D01*
X148338540Y-111506000D02*
X145798540Y-111506000D01*
X148338540Y-110871000D02*
X145798540Y-110871000D01*
X145798540Y-110236000D02*
X148338540Y-110236000D01*
X148338540Y-110236000D02*
X148338540Y-115316000D01*
X148338540Y-115316000D02*
X145798540Y-115316000D01*
X145798540Y-115316000D02*
X145798540Y-110236000D01*
X147063460Y-94996000D02*
X147063460Y-93980000D01*
X147063460Y-99822000D02*
X147063460Y-101092000D01*
X145793460Y-99568000D02*
X148333460Y-99568000D01*
X145793460Y-99314000D02*
X148333460Y-99314000D01*
X145793460Y-99060000D02*
X148333460Y-99060000D01*
X145793460Y-99822000D02*
X148333460Y-99822000D01*
X145793460Y-98806000D02*
X148333460Y-100076000D01*
X145793460Y-100076000D02*
X148333460Y-98806000D01*
X145793460Y-98806000D02*
X148333460Y-98806000D01*
X145793460Y-99441000D02*
X148333460Y-99441000D01*
X148333460Y-100076000D02*
X145793460Y-100076000D01*
X145793460Y-100076000D02*
X145793460Y-94996000D01*
X145793460Y-94996000D02*
X148333460Y-94996000D01*
X148333460Y-94996000D02*
X148333460Y-100076000D01*
X128016000Y-63248540D02*
X127000000Y-63248540D01*
X132842000Y-63248540D02*
X134112000Y-63248540D01*
X132588000Y-64518540D02*
X132588000Y-61978540D01*
X132334000Y-64518540D02*
X132334000Y-61978540D01*
X132080000Y-64518540D02*
X132080000Y-61978540D01*
X132842000Y-64518540D02*
X132842000Y-61978540D01*
X131826000Y-64518540D02*
X133096000Y-61978540D01*
X133096000Y-64518540D02*
X131826000Y-61978540D01*
X131826000Y-64518540D02*
X131826000Y-61978540D01*
X132461000Y-64518540D02*
X132461000Y-61978540D01*
X133096000Y-61978540D02*
X133096000Y-64518540D01*
X133096000Y-64518540D02*
X128016000Y-64518540D01*
X128016000Y-64518540D02*
X128016000Y-61978540D01*
X128016000Y-61978540D02*
X133096000Y-61978540D01*
X111786000Y-125756000D02*
X111786000Y-124206000D01*
X111506000Y-120396000D02*
X111506000Y-122936000D01*
X111506000Y-122936000D02*
X108966000Y-122936000D01*
X108686000Y-124206000D02*
X108686000Y-125756000D01*
X108686000Y-125756000D02*
X111786000Y-125756000D01*
X108966000Y-122936000D02*
X108966000Y-120396000D01*
X108966000Y-120396000D02*
X111506000Y-120396000D01*
X150876000Y-125476000D02*
X150876000Y-122936000D01*
X148056000Y-122656000D02*
X149606000Y-122656000D01*
X148056000Y-122656000D02*
X148056000Y-125756000D01*
X148056000Y-125756000D02*
X149606000Y-125756000D01*
X108966000Y-81026000D02*
X111506000Y-81026000D01*
X111786000Y-78206000D02*
X111786000Y-79756000D01*
X111786000Y-78206000D02*
X108686000Y-78206000D01*
X108686000Y-78206000D02*
X108686000Y-79756000D01*
X108966000Y-93726000D02*
X108966000Y-106426000D01*
X108966000Y-106426000D02*
X111506000Y-106426000D01*
X111506000Y-106426000D02*
X111506000Y-93726000D01*
X108686000Y-90906000D02*
X108686000Y-92456000D01*
X108966000Y-93726000D02*
X111506000Y-93726000D01*
X111786000Y-92456000D02*
X111786000Y-90906000D01*
X111786000Y-90906000D02*
X108686000Y-90906000D01*
X138176000Y-122656000D02*
X136626000Y-122656000D01*
X136626000Y-122656000D02*
X136626000Y-125756000D01*
X136626000Y-125756000D02*
X138176000Y-125756000D01*
X139446000Y-122936000D02*
X144526000Y-122936000D01*
X144526000Y-122936000D02*
X144526000Y-125476000D01*
X144526000Y-125476000D02*
X139446000Y-125476000D01*
X139446000Y-125476000D02*
X139446000Y-122936000D01*
X111786000Y-110236000D02*
X111786000Y-108686000D01*
X111786000Y-108686000D02*
X108686000Y-108686000D01*
X108686000Y-108686000D02*
X108686000Y-110236000D01*
X111506000Y-111506000D02*
X111506000Y-116586000D01*
X111506000Y-116586000D02*
X108966000Y-116586000D01*
X108966000Y-116586000D02*
X108966000Y-111506000D01*
X108966000Y-111506000D02*
X111506000Y-111506000D01*
X126746000Y-125476000D02*
X126746000Y-122936000D01*
X123926000Y-122656000D02*
X125476000Y-122656000D01*
X123926000Y-122656000D02*
X123926000Y-125756000D01*
X123926000Y-125756000D02*
X125476000Y-125756000D01*
X133096000Y-125476000D02*
X133096000Y-122936000D01*
X130276000Y-122656000D02*
X131826000Y-122656000D01*
X130276000Y-122656000D02*
X130276000Y-125756000D01*
X130276000Y-125756000D02*
X131826000Y-125756000D01*
X127896000Y-67056000D02*
X127896000Y-69596000D01*
X127896000Y-69596000D02*
X138056000Y-69596000D01*
X138056000Y-69596000D02*
X138056000Y-67056000D01*
X138056000Y-67056000D02*
X127896000Y-67056000D01*
X139206000Y-68326000D02*
X138056000Y-68326000D01*
X126746000Y-68326000D02*
X127896000Y-68326000D01*
X127896000Y-78486000D02*
X127896000Y-81026000D01*
X127896000Y-81026000D02*
X138056000Y-81026000D01*
X138056000Y-81026000D02*
X138056000Y-78486000D01*
X138056000Y-78486000D02*
X127896000Y-78486000D01*
X139206000Y-79756000D02*
X138056000Y-79756000D01*
X126746000Y-79756000D02*
X127896000Y-79756000D01*
X127896000Y-84836000D02*
X127896000Y-87376000D01*
X127896000Y-87376000D02*
X138056000Y-87376000D01*
X138056000Y-87376000D02*
X138056000Y-84836000D01*
X138056000Y-84836000D02*
X127896000Y-84836000D01*
X139206000Y-86106000D02*
X138056000Y-86106000D01*
X126746000Y-86106000D02*
X127896000Y-86106000D01*
X127896000Y-91186000D02*
X127896000Y-93726000D01*
X127896000Y-93726000D02*
X138056000Y-93726000D01*
X138056000Y-93726000D02*
X138056000Y-91186000D01*
X138056000Y-91186000D02*
X127896000Y-91186000D01*
X139206000Y-92456000D02*
X138056000Y-92456000D01*
X126746000Y-92456000D02*
X127896000Y-92456000D01*
X127896000Y-97536000D02*
X127896000Y-100076000D01*
X127896000Y-100076000D02*
X138056000Y-100076000D01*
X138056000Y-100076000D02*
X138056000Y-97536000D01*
X138056000Y-97536000D02*
X127896000Y-97536000D01*
X139206000Y-98806000D02*
X138056000Y-98806000D01*
X126746000Y-98806000D02*
X127896000Y-98806000D01*
X127896000Y-103886000D02*
X127896000Y-106426000D01*
X127896000Y-106426000D02*
X138056000Y-106426000D01*
X138056000Y-106426000D02*
X138056000Y-103886000D01*
X138056000Y-103886000D02*
X127896000Y-103886000D01*
X139206000Y-105156000D02*
X138056000Y-105156000D01*
X126746000Y-105156000D02*
X127896000Y-105156000D01*
X138296000Y-112776000D02*
X138296000Y-110236000D01*
X138296000Y-110236000D02*
X128136000Y-110236000D01*
X128136000Y-110236000D02*
X128136000Y-112776000D01*
X128136000Y-112776000D02*
X138296000Y-112776000D01*
X126986000Y-111506000D02*
X128136000Y-111506000D01*
X139446000Y-111506000D02*
X138296000Y-111506000D01*
X127896000Y-116586000D02*
X127896000Y-119126000D01*
X127896000Y-119126000D02*
X138056000Y-119126000D01*
X138056000Y-119126000D02*
X138056000Y-116586000D01*
X138056000Y-116586000D02*
X127896000Y-116586000D01*
X139206000Y-117856000D02*
X138056000Y-117856000D01*
X126746000Y-117856000D02*
X127896000Y-117856000D01*
X108686000Y-68326000D02*
X108686000Y-69876000D01*
X108686000Y-69876000D02*
X111786000Y-69876000D01*
X111786000Y-69876000D02*
X111786000Y-68326000D01*
X108966000Y-67056000D02*
X108966000Y-61976000D01*
X108966000Y-61976000D02*
X111506000Y-61976000D01*
X111506000Y-61976000D02*
X111506000Y-67056000D01*
X111506000Y-67056000D02*
X108966000Y-67056000D01*
X144200571Y-83018095D02*
X144248190Y-82875238D01*
X144295810Y-82827619D01*
X144391048Y-82780000D01*
X144533905Y-82780000D01*
X144629143Y-82827619D01*
X144676762Y-82875238D01*
X144724381Y-82970476D01*
X144724381Y-83351429D01*
X143724381Y-83351429D01*
X143724381Y-83018095D01*
X143772000Y-82922857D01*
X143819619Y-82875238D01*
X143914857Y-82827619D01*
X144010095Y-82827619D01*
X144105333Y-82875238D01*
X144152952Y-82922857D01*
X144200571Y-83018095D01*
X144200571Y-83351429D01*
X143724381Y-82494286D02*
X143724381Y-81922857D01*
X144724381Y-82208572D02*
X143724381Y-82208572D01*
X143819619Y-81637143D02*
X143772000Y-81589524D01*
X143724381Y-81494286D01*
X143724381Y-81256190D01*
X143772000Y-81160952D01*
X143819619Y-81113333D01*
X143914857Y-81065714D01*
X144010095Y-81065714D01*
X144152952Y-81113333D01*
X144724381Y-81684762D01*
X144724381Y-81065714D01*
X143724381Y-80446667D02*
X143724381Y-80351428D01*
X143772000Y-80256190D01*
X143819619Y-80208571D01*
X143914857Y-80160952D01*
X144105333Y-80113333D01*
X144343429Y-80113333D01*
X144533905Y-80160952D01*
X144629143Y-80208571D01*
X144676762Y-80256190D01*
X144724381Y-80351428D01*
X144724381Y-80446667D01*
X144676762Y-80541905D01*
X144629143Y-80589524D01*
X144533905Y-80637143D01*
X144343429Y-80684762D01*
X144105333Y-80684762D01*
X143914857Y-80637143D01*
X143819619Y-80589524D01*
X143772000Y-80541905D01*
X143724381Y-80446667D01*
X144724381Y-79160952D02*
X144724381Y-79732381D01*
X144724381Y-79446667D02*
X143724381Y-79446667D01*
X143867238Y-79541905D01*
X143962476Y-79637143D01*
X144010095Y-79732381D01*
X122515524Y-71318381D02*
X122515524Y-70318381D01*
X122753619Y-70318381D01*
X122896477Y-70366000D01*
X122991715Y-70461238D01*
X123039334Y-70556476D01*
X123086953Y-70746952D01*
X123086953Y-70889810D01*
X123039334Y-71080286D01*
X122991715Y-71175524D01*
X122896477Y-71270762D01*
X122753619Y-71318381D01*
X122515524Y-71318381D01*
X123467905Y-70413619D02*
X123515524Y-70366000D01*
X123610762Y-70318381D01*
X123848858Y-70318381D01*
X123944096Y-70366000D01*
X123991715Y-70413619D01*
X124039334Y-70508857D01*
X124039334Y-70604095D01*
X123991715Y-70746952D01*
X123420286Y-71318381D01*
X124039334Y-71318381D01*
X124658381Y-70318381D02*
X124753620Y-70318381D01*
X124848858Y-70366000D01*
X124896477Y-70413619D01*
X124944096Y-70508857D01*
X124991715Y-70699333D01*
X124991715Y-70937429D01*
X124944096Y-71127905D01*
X124896477Y-71223143D01*
X124848858Y-71270762D01*
X124753620Y-71318381D01*
X124658381Y-71318381D01*
X124563143Y-71270762D01*
X124515524Y-71223143D01*
X124467905Y-71127905D01*
X124420286Y-70937429D01*
X124420286Y-70699333D01*
X124467905Y-70508857D01*
X124515524Y-70413619D01*
X124563143Y-70366000D01*
X124658381Y-70318381D01*
X125944096Y-71318381D02*
X125372667Y-71318381D01*
X125658381Y-71318381D02*
X125658381Y-70318381D01*
X125563143Y-70461238D01*
X125467905Y-70556476D01*
X125372667Y-70604095D01*
X115689095Y-70683381D02*
X115689095Y-69683381D01*
X116260524Y-70683381D02*
X115831952Y-70111952D01*
X116260524Y-69683381D02*
X115689095Y-70254810D01*
X122515524Y-82748381D02*
X122515524Y-81748381D01*
X122753619Y-81748381D01*
X122896477Y-81796000D01*
X122991715Y-81891238D01*
X123039334Y-81986476D01*
X123086953Y-82176952D01*
X123086953Y-82319810D01*
X123039334Y-82510286D01*
X122991715Y-82605524D01*
X122896477Y-82700762D01*
X122753619Y-82748381D01*
X122515524Y-82748381D01*
X123467905Y-81843619D02*
X123515524Y-81796000D01*
X123610762Y-81748381D01*
X123848858Y-81748381D01*
X123944096Y-81796000D01*
X123991715Y-81843619D01*
X124039334Y-81938857D01*
X124039334Y-82034095D01*
X123991715Y-82176952D01*
X123420286Y-82748381D01*
X124039334Y-82748381D01*
X124658381Y-81748381D02*
X124753620Y-81748381D01*
X124848858Y-81796000D01*
X124896477Y-81843619D01*
X124944096Y-81938857D01*
X124991715Y-82129333D01*
X124991715Y-82367429D01*
X124944096Y-82557905D01*
X124896477Y-82653143D01*
X124848858Y-82700762D01*
X124753620Y-82748381D01*
X124658381Y-82748381D01*
X124563143Y-82700762D01*
X124515524Y-82653143D01*
X124467905Y-82557905D01*
X124420286Y-82367429D01*
X124420286Y-82129333D01*
X124467905Y-81938857D01*
X124515524Y-81843619D01*
X124563143Y-81796000D01*
X124658381Y-81748381D01*
X125372667Y-81843619D02*
X125420286Y-81796000D01*
X125515524Y-81748381D01*
X125753620Y-81748381D01*
X125848858Y-81796000D01*
X125896477Y-81843619D01*
X125944096Y-81938857D01*
X125944096Y-82034095D01*
X125896477Y-82176952D01*
X125325048Y-82748381D01*
X125944096Y-82748381D01*
X115689095Y-82113381D02*
X115689095Y-81113381D01*
X116260524Y-82113381D02*
X115831952Y-81541952D01*
X116260524Y-81113381D02*
X115689095Y-81684810D01*
X122515524Y-89098381D02*
X122515524Y-88098381D01*
X122753619Y-88098381D01*
X122896477Y-88146000D01*
X122991715Y-88241238D01*
X123039334Y-88336476D01*
X123086953Y-88526952D01*
X123086953Y-88669810D01*
X123039334Y-88860286D01*
X122991715Y-88955524D01*
X122896477Y-89050762D01*
X122753619Y-89098381D01*
X122515524Y-89098381D01*
X123467905Y-88193619D02*
X123515524Y-88146000D01*
X123610762Y-88098381D01*
X123848858Y-88098381D01*
X123944096Y-88146000D01*
X123991715Y-88193619D01*
X124039334Y-88288857D01*
X124039334Y-88384095D01*
X123991715Y-88526952D01*
X123420286Y-89098381D01*
X124039334Y-89098381D01*
X124658381Y-88098381D02*
X124753620Y-88098381D01*
X124848858Y-88146000D01*
X124896477Y-88193619D01*
X124944096Y-88288857D01*
X124991715Y-88479333D01*
X124991715Y-88717429D01*
X124944096Y-88907905D01*
X124896477Y-89003143D01*
X124848858Y-89050762D01*
X124753620Y-89098381D01*
X124658381Y-89098381D01*
X124563143Y-89050762D01*
X124515524Y-89003143D01*
X124467905Y-88907905D01*
X124420286Y-88717429D01*
X124420286Y-88479333D01*
X124467905Y-88288857D01*
X124515524Y-88193619D01*
X124563143Y-88146000D01*
X124658381Y-88098381D01*
X125325048Y-88098381D02*
X125944096Y-88098381D01*
X125610762Y-88479333D01*
X125753620Y-88479333D01*
X125848858Y-88526952D01*
X125896477Y-88574571D01*
X125944096Y-88669810D01*
X125944096Y-88907905D01*
X125896477Y-89003143D01*
X125848858Y-89050762D01*
X125753620Y-89098381D01*
X125467905Y-89098381D01*
X125372667Y-89050762D01*
X125325048Y-89003143D01*
X115689095Y-88463381D02*
X115689095Y-87463381D01*
X116260524Y-88463381D02*
X115831952Y-87891952D01*
X116260524Y-87463381D02*
X115689095Y-88034810D01*
X122515524Y-95448381D02*
X122515524Y-94448381D01*
X122753619Y-94448381D01*
X122896477Y-94496000D01*
X122991715Y-94591238D01*
X123039334Y-94686476D01*
X123086953Y-94876952D01*
X123086953Y-95019810D01*
X123039334Y-95210286D01*
X122991715Y-95305524D01*
X122896477Y-95400762D01*
X122753619Y-95448381D01*
X122515524Y-95448381D01*
X123467905Y-94543619D02*
X123515524Y-94496000D01*
X123610762Y-94448381D01*
X123848858Y-94448381D01*
X123944096Y-94496000D01*
X123991715Y-94543619D01*
X124039334Y-94638857D01*
X124039334Y-94734095D01*
X123991715Y-94876952D01*
X123420286Y-95448381D01*
X124039334Y-95448381D01*
X124658381Y-94448381D02*
X124753620Y-94448381D01*
X124848858Y-94496000D01*
X124896477Y-94543619D01*
X124944096Y-94638857D01*
X124991715Y-94829333D01*
X124991715Y-95067429D01*
X124944096Y-95257905D01*
X124896477Y-95353143D01*
X124848858Y-95400762D01*
X124753620Y-95448381D01*
X124658381Y-95448381D01*
X124563143Y-95400762D01*
X124515524Y-95353143D01*
X124467905Y-95257905D01*
X124420286Y-95067429D01*
X124420286Y-94829333D01*
X124467905Y-94638857D01*
X124515524Y-94543619D01*
X124563143Y-94496000D01*
X124658381Y-94448381D01*
X125848858Y-94781714D02*
X125848858Y-95448381D01*
X125610762Y-94400762D02*
X125372667Y-95115048D01*
X125991715Y-95115048D01*
X115689095Y-94813381D02*
X115689095Y-93813381D01*
X116260524Y-94813381D02*
X115831952Y-94241952D01*
X116260524Y-93813381D02*
X115689095Y-94384810D01*
X122515524Y-101798381D02*
X122515524Y-100798381D01*
X122753619Y-100798381D01*
X122896477Y-100846000D01*
X122991715Y-100941238D01*
X123039334Y-101036476D01*
X123086953Y-101226952D01*
X123086953Y-101369810D01*
X123039334Y-101560286D01*
X122991715Y-101655524D01*
X122896477Y-101750762D01*
X122753619Y-101798381D01*
X122515524Y-101798381D01*
X123467905Y-100893619D02*
X123515524Y-100846000D01*
X123610762Y-100798381D01*
X123848858Y-100798381D01*
X123944096Y-100846000D01*
X123991715Y-100893619D01*
X124039334Y-100988857D01*
X124039334Y-101084095D01*
X123991715Y-101226952D01*
X123420286Y-101798381D01*
X124039334Y-101798381D01*
X124658381Y-100798381D02*
X124753620Y-100798381D01*
X124848858Y-100846000D01*
X124896477Y-100893619D01*
X124944096Y-100988857D01*
X124991715Y-101179333D01*
X124991715Y-101417429D01*
X124944096Y-101607905D01*
X124896477Y-101703143D01*
X124848858Y-101750762D01*
X124753620Y-101798381D01*
X124658381Y-101798381D01*
X124563143Y-101750762D01*
X124515524Y-101703143D01*
X124467905Y-101607905D01*
X124420286Y-101417429D01*
X124420286Y-101179333D01*
X124467905Y-100988857D01*
X124515524Y-100893619D01*
X124563143Y-100846000D01*
X124658381Y-100798381D01*
X125896477Y-100798381D02*
X125420286Y-100798381D01*
X125372667Y-101274571D01*
X125420286Y-101226952D01*
X125515524Y-101179333D01*
X125753620Y-101179333D01*
X125848858Y-101226952D01*
X125896477Y-101274571D01*
X125944096Y-101369810D01*
X125944096Y-101607905D01*
X125896477Y-101703143D01*
X125848858Y-101750762D01*
X125753620Y-101798381D01*
X125515524Y-101798381D01*
X125420286Y-101750762D01*
X125372667Y-101703143D01*
X115689095Y-101163381D02*
X115689095Y-100163381D01*
X116260524Y-101163381D02*
X115831952Y-100591952D01*
X116260524Y-100163381D02*
X115689095Y-100734810D01*
X122515524Y-108148381D02*
X122515524Y-107148381D01*
X122753619Y-107148381D01*
X122896477Y-107196000D01*
X122991715Y-107291238D01*
X123039334Y-107386476D01*
X123086953Y-107576952D01*
X123086953Y-107719810D01*
X123039334Y-107910286D01*
X122991715Y-108005524D01*
X122896477Y-108100762D01*
X122753619Y-108148381D01*
X122515524Y-108148381D01*
X123467905Y-107243619D02*
X123515524Y-107196000D01*
X123610762Y-107148381D01*
X123848858Y-107148381D01*
X123944096Y-107196000D01*
X123991715Y-107243619D01*
X124039334Y-107338857D01*
X124039334Y-107434095D01*
X123991715Y-107576952D01*
X123420286Y-108148381D01*
X124039334Y-108148381D01*
X124658381Y-107148381D02*
X124753620Y-107148381D01*
X124848858Y-107196000D01*
X124896477Y-107243619D01*
X124944096Y-107338857D01*
X124991715Y-107529333D01*
X124991715Y-107767429D01*
X124944096Y-107957905D01*
X124896477Y-108053143D01*
X124848858Y-108100762D01*
X124753620Y-108148381D01*
X124658381Y-108148381D01*
X124563143Y-108100762D01*
X124515524Y-108053143D01*
X124467905Y-107957905D01*
X124420286Y-107767429D01*
X124420286Y-107529333D01*
X124467905Y-107338857D01*
X124515524Y-107243619D01*
X124563143Y-107196000D01*
X124658381Y-107148381D01*
X125848858Y-107148381D02*
X125658381Y-107148381D01*
X125563143Y-107196000D01*
X125515524Y-107243619D01*
X125420286Y-107386476D01*
X125372667Y-107576952D01*
X125372667Y-107957905D01*
X125420286Y-108053143D01*
X125467905Y-108100762D01*
X125563143Y-108148381D01*
X125753620Y-108148381D01*
X125848858Y-108100762D01*
X125896477Y-108053143D01*
X125944096Y-107957905D01*
X125944096Y-107719810D01*
X125896477Y-107624571D01*
X125848858Y-107576952D01*
X125753620Y-107529333D01*
X125563143Y-107529333D01*
X125467905Y-107576952D01*
X125420286Y-107624571D01*
X125372667Y-107719810D01*
X115689095Y-107513381D02*
X115689095Y-106513381D01*
X116260524Y-107513381D02*
X115831952Y-106941952D01*
X116260524Y-106513381D02*
X115689095Y-107084810D01*
X122515524Y-114498381D02*
X122515524Y-113498381D01*
X122753619Y-113498381D01*
X122896477Y-113546000D01*
X122991715Y-113641238D01*
X123039334Y-113736476D01*
X123086953Y-113926952D01*
X123086953Y-114069810D01*
X123039334Y-114260286D01*
X122991715Y-114355524D01*
X122896477Y-114450762D01*
X122753619Y-114498381D01*
X122515524Y-114498381D01*
X123467905Y-113593619D02*
X123515524Y-113546000D01*
X123610762Y-113498381D01*
X123848858Y-113498381D01*
X123944096Y-113546000D01*
X123991715Y-113593619D01*
X124039334Y-113688857D01*
X124039334Y-113784095D01*
X123991715Y-113926952D01*
X123420286Y-114498381D01*
X124039334Y-114498381D01*
X124658381Y-113498381D02*
X124753620Y-113498381D01*
X124848858Y-113546000D01*
X124896477Y-113593619D01*
X124944096Y-113688857D01*
X124991715Y-113879333D01*
X124991715Y-114117429D01*
X124944096Y-114307905D01*
X124896477Y-114403143D01*
X124848858Y-114450762D01*
X124753620Y-114498381D01*
X124658381Y-114498381D01*
X124563143Y-114450762D01*
X124515524Y-114403143D01*
X124467905Y-114307905D01*
X124420286Y-114117429D01*
X124420286Y-113879333D01*
X124467905Y-113688857D01*
X124515524Y-113593619D01*
X124563143Y-113546000D01*
X124658381Y-113498381D01*
X125325048Y-113498381D02*
X125991715Y-113498381D01*
X125563143Y-114498381D01*
X115689095Y-113863381D02*
X115689095Y-112863381D01*
X116260524Y-113863381D02*
X115831952Y-113291952D01*
X116260524Y-112863381D02*
X115689095Y-113434810D01*
X122515524Y-120848381D02*
X122515524Y-119848381D01*
X122753619Y-119848381D01*
X122896477Y-119896000D01*
X122991715Y-119991238D01*
X123039334Y-120086476D01*
X123086953Y-120276952D01*
X123086953Y-120419810D01*
X123039334Y-120610286D01*
X122991715Y-120705524D01*
X122896477Y-120800762D01*
X122753619Y-120848381D01*
X122515524Y-120848381D01*
X123467905Y-119943619D02*
X123515524Y-119896000D01*
X123610762Y-119848381D01*
X123848858Y-119848381D01*
X123944096Y-119896000D01*
X123991715Y-119943619D01*
X124039334Y-120038857D01*
X124039334Y-120134095D01*
X123991715Y-120276952D01*
X123420286Y-120848381D01*
X124039334Y-120848381D01*
X124658381Y-119848381D02*
X124753620Y-119848381D01*
X124848858Y-119896000D01*
X124896477Y-119943619D01*
X124944096Y-120038857D01*
X124991715Y-120229333D01*
X124991715Y-120467429D01*
X124944096Y-120657905D01*
X124896477Y-120753143D01*
X124848858Y-120800762D01*
X124753620Y-120848381D01*
X124658381Y-120848381D01*
X124563143Y-120800762D01*
X124515524Y-120753143D01*
X124467905Y-120657905D01*
X124420286Y-120467429D01*
X124420286Y-120229333D01*
X124467905Y-120038857D01*
X124515524Y-119943619D01*
X124563143Y-119896000D01*
X124658381Y-119848381D01*
X125563143Y-120276952D02*
X125467905Y-120229333D01*
X125420286Y-120181714D01*
X125372667Y-120086476D01*
X125372667Y-120038857D01*
X125420286Y-119943619D01*
X125467905Y-119896000D01*
X125563143Y-119848381D01*
X125753620Y-119848381D01*
X125848858Y-119896000D01*
X125896477Y-119943619D01*
X125944096Y-120038857D01*
X125944096Y-120086476D01*
X125896477Y-120181714D01*
X125848858Y-120229333D01*
X125753620Y-120276952D01*
X125563143Y-120276952D01*
X125467905Y-120324571D01*
X125420286Y-120372190D01*
X125372667Y-120467429D01*
X125372667Y-120657905D01*
X125420286Y-120753143D01*
X125467905Y-120800762D01*
X125563143Y-120848381D01*
X125753620Y-120848381D01*
X125848858Y-120800762D01*
X125896477Y-120753143D01*
X125944096Y-120657905D01*
X125944096Y-120467429D01*
X125896477Y-120372190D01*
X125848858Y-120324571D01*
X125753620Y-120276952D01*
X115689095Y-120213381D02*
X115689095Y-119213381D01*
X116260524Y-120213381D02*
X115831952Y-119641952D01*
X116260524Y-119213381D02*
X115689095Y-119784810D01*
X112609524Y-122372381D02*
X112609524Y-121372381D01*
X112847619Y-121372381D01*
X112990477Y-121420000D01*
X113085715Y-121515238D01*
X113133334Y-121610476D01*
X113180953Y-121800952D01*
X113180953Y-121943810D01*
X113133334Y-122134286D01*
X113085715Y-122229524D01*
X112990477Y-122324762D01*
X112847619Y-122372381D01*
X112609524Y-122372381D01*
X113561905Y-121467619D02*
X113609524Y-121420000D01*
X113704762Y-121372381D01*
X113942858Y-121372381D01*
X114038096Y-121420000D01*
X114085715Y-121467619D01*
X114133334Y-121562857D01*
X114133334Y-121658095D01*
X114085715Y-121800952D01*
X113514286Y-122372381D01*
X114133334Y-122372381D01*
X114752381Y-121372381D02*
X114847620Y-121372381D01*
X114942858Y-121420000D01*
X114990477Y-121467619D01*
X115038096Y-121562857D01*
X115085715Y-121753333D01*
X115085715Y-121991429D01*
X115038096Y-122181905D01*
X114990477Y-122277143D01*
X114942858Y-122324762D01*
X114847620Y-122372381D01*
X114752381Y-122372381D01*
X114657143Y-122324762D01*
X114609524Y-122277143D01*
X114561905Y-122181905D01*
X114514286Y-121991429D01*
X114514286Y-121753333D01*
X114561905Y-121562857D01*
X114609524Y-121467619D01*
X114657143Y-121420000D01*
X114752381Y-121372381D01*
X115561905Y-122372381D02*
X115752381Y-122372381D01*
X115847620Y-122324762D01*
X115895239Y-122277143D01*
X115990477Y-122134286D01*
X116038096Y-121943810D01*
X116038096Y-121562857D01*
X115990477Y-121467619D01*
X115942858Y-121420000D01*
X115847620Y-121372381D01*
X115657143Y-121372381D01*
X115561905Y-121420000D01*
X115514286Y-121467619D01*
X115466667Y-121562857D01*
X115466667Y-121800952D01*
X115514286Y-121896190D01*
X115561905Y-121943810D01*
X115657143Y-121991429D01*
X115847620Y-121991429D01*
X115942858Y-121943810D01*
X115990477Y-121896190D01*
X116038096Y-121800952D01*
X115689095Y-126563381D02*
X115689095Y-125563381D01*
X116260524Y-126563381D02*
X115831952Y-125991952D01*
X116260524Y-125563381D02*
X115689095Y-126134810D01*
X144980921Y-114773816D02*
X143980921Y-114773816D01*
X143980921Y-114535721D01*
X144028540Y-114392863D01*
X144123778Y-114297625D01*
X144219016Y-114250006D01*
X144409492Y-114202387D01*
X144552350Y-114202387D01*
X144742826Y-114250006D01*
X144838064Y-114297625D01*
X144933302Y-114392863D01*
X144980921Y-114535721D01*
X144980921Y-114773816D01*
X144076159Y-113821435D02*
X144028540Y-113773816D01*
X143980921Y-113678578D01*
X143980921Y-113440482D01*
X144028540Y-113345244D01*
X144076159Y-113297625D01*
X144171397Y-113250006D01*
X144266635Y-113250006D01*
X144409492Y-113297625D01*
X144980921Y-113869054D01*
X144980921Y-113250006D01*
X144980921Y-112297625D02*
X144980921Y-112869054D01*
X144980921Y-112583340D02*
X143980921Y-112583340D01*
X144123778Y-112678578D01*
X144219016Y-112773816D01*
X144266635Y-112869054D01*
X143980921Y-111678578D02*
X143980921Y-111583339D01*
X144028540Y-111488101D01*
X144076159Y-111440482D01*
X144171397Y-111392863D01*
X144361873Y-111345244D01*
X144599969Y-111345244D01*
X144790445Y-111392863D01*
X144885683Y-111440482D01*
X144933302Y-111488101D01*
X144980921Y-111583339D01*
X144980921Y-111678578D01*
X144933302Y-111773816D01*
X144885683Y-111821435D01*
X144790445Y-111869054D01*
X144599969Y-111916673D01*
X144361873Y-111916673D01*
X144171397Y-111869054D01*
X144076159Y-111821435D01*
X144028540Y-111773816D01*
X143980921Y-111678578D01*
X150055841Y-98919136D02*
X149055841Y-98919136D01*
X149055841Y-98681041D01*
X149103460Y-98538183D01*
X149198698Y-98442945D01*
X149293936Y-98395326D01*
X149484412Y-98347707D01*
X149627270Y-98347707D01*
X149817746Y-98395326D01*
X149912984Y-98442945D01*
X150008222Y-98538183D01*
X150055841Y-98681041D01*
X150055841Y-98919136D01*
X149151079Y-97966755D02*
X149103460Y-97919136D01*
X149055841Y-97823898D01*
X149055841Y-97585802D01*
X149103460Y-97490564D01*
X149151079Y-97442945D01*
X149246317Y-97395326D01*
X149341555Y-97395326D01*
X149484412Y-97442945D01*
X150055841Y-98014374D01*
X150055841Y-97395326D01*
X150055841Y-96442945D02*
X150055841Y-97014374D01*
X150055841Y-96728660D02*
X149055841Y-96728660D01*
X149198698Y-96823898D01*
X149293936Y-96919136D01*
X149341555Y-97014374D01*
X150055841Y-95490564D02*
X150055841Y-96061993D01*
X150055841Y-95776279D02*
X149055841Y-95776279D01*
X149198698Y-95871517D01*
X149293936Y-95966755D01*
X149341555Y-96061993D01*
X128865524Y-66238381D02*
X128865524Y-65238381D01*
X129103619Y-65238381D01*
X129246477Y-65286000D01*
X129341715Y-65381238D01*
X129389334Y-65476476D01*
X129436953Y-65666952D01*
X129436953Y-65809810D01*
X129389334Y-66000286D01*
X129341715Y-66095524D01*
X129246477Y-66190762D01*
X129103619Y-66238381D01*
X128865524Y-66238381D01*
X129817905Y-65333619D02*
X129865524Y-65286000D01*
X129960762Y-65238381D01*
X130198858Y-65238381D01*
X130294096Y-65286000D01*
X130341715Y-65333619D01*
X130389334Y-65428857D01*
X130389334Y-65524095D01*
X130341715Y-65666952D01*
X129770286Y-66238381D01*
X130389334Y-66238381D01*
X131341715Y-66238381D02*
X130770286Y-66238381D01*
X131056000Y-66238381D02*
X131056000Y-65238381D01*
X130960762Y-65381238D01*
X130865524Y-65476476D01*
X130770286Y-65524095D01*
X131722667Y-65333619D02*
X131770286Y-65286000D01*
X131865524Y-65238381D01*
X132103620Y-65238381D01*
X132198858Y-65286000D01*
X132246477Y-65333619D01*
X132294096Y-65428857D01*
X132294096Y-65524095D01*
X132246477Y-65666952D01*
X131675048Y-66238381D01*
X132294096Y-66238381D01*
X108148381Y-124626476D02*
X107148381Y-124626476D01*
X107148381Y-124245523D01*
X107196000Y-124150285D01*
X107243619Y-124102666D01*
X107338857Y-124055047D01*
X107481714Y-124055047D01*
X107576952Y-124102666D01*
X107624571Y-124150285D01*
X107672190Y-124245523D01*
X107672190Y-124626476D01*
X107243619Y-123674095D02*
X107196000Y-123626476D01*
X107148381Y-123531238D01*
X107148381Y-123293142D01*
X107196000Y-123197904D01*
X107243619Y-123150285D01*
X107338857Y-123102666D01*
X107434095Y-123102666D01*
X107576952Y-123150285D01*
X108148381Y-123721714D01*
X108148381Y-123102666D01*
X107148381Y-122483619D02*
X107148381Y-122388380D01*
X107196000Y-122293142D01*
X107243619Y-122245523D01*
X107338857Y-122197904D01*
X107529333Y-122150285D01*
X107767429Y-122150285D01*
X107957905Y-122197904D01*
X108053143Y-122245523D01*
X108100762Y-122293142D01*
X108148381Y-122388380D01*
X108148381Y-122483619D01*
X108100762Y-122578857D01*
X108053143Y-122626476D01*
X107957905Y-122674095D01*
X107767429Y-122721714D01*
X107529333Y-122721714D01*
X107338857Y-122674095D01*
X107243619Y-122626476D01*
X107196000Y-122578857D01*
X107148381Y-122483619D01*
X108148381Y-121197904D02*
X108148381Y-121769333D01*
X108148381Y-121483619D02*
X107148381Y-121483619D01*
X107291238Y-121578857D01*
X107386476Y-121674095D01*
X107434095Y-121769333D01*
X147264381Y-125642476D02*
X146264381Y-125642476D01*
X146264381Y-125261523D01*
X146312000Y-125166285D01*
X146359619Y-125118666D01*
X146454857Y-125071047D01*
X146597714Y-125071047D01*
X146692952Y-125118666D01*
X146740571Y-125166285D01*
X146788190Y-125261523D01*
X146788190Y-125642476D01*
X146359619Y-124690095D02*
X146312000Y-124642476D01*
X146264381Y-124547238D01*
X146264381Y-124309142D01*
X146312000Y-124213904D01*
X146359619Y-124166285D01*
X146454857Y-124118666D01*
X146550095Y-124118666D01*
X146692952Y-124166285D01*
X147264381Y-124737714D01*
X147264381Y-124118666D01*
X146264381Y-123499619D02*
X146264381Y-123404380D01*
X146312000Y-123309142D01*
X146359619Y-123261523D01*
X146454857Y-123213904D01*
X146645333Y-123166285D01*
X146883429Y-123166285D01*
X147073905Y-123213904D01*
X147169143Y-123261523D01*
X147216762Y-123309142D01*
X147264381Y-123404380D01*
X147264381Y-123499619D01*
X147216762Y-123594857D01*
X147169143Y-123642476D01*
X147073905Y-123690095D01*
X146883429Y-123737714D01*
X146645333Y-123737714D01*
X146454857Y-123690095D01*
X146359619Y-123642476D01*
X146312000Y-123594857D01*
X146264381Y-123499619D01*
X146359619Y-122785333D02*
X146312000Y-122737714D01*
X146264381Y-122642476D01*
X146264381Y-122404380D01*
X146312000Y-122309142D01*
X146359619Y-122261523D01*
X146454857Y-122213904D01*
X146550095Y-122213904D01*
X146692952Y-122261523D01*
X147264381Y-122832952D01*
X147264381Y-122213904D01*
X108545524Y-77668381D02*
X108545524Y-76668381D01*
X108926477Y-76668381D01*
X109021715Y-76716000D01*
X109069334Y-76763619D01*
X109116953Y-76858857D01*
X109116953Y-77001714D01*
X109069334Y-77096952D01*
X109021715Y-77144571D01*
X108926477Y-77192190D01*
X108545524Y-77192190D01*
X109497905Y-76763619D02*
X109545524Y-76716000D01*
X109640762Y-76668381D01*
X109878858Y-76668381D01*
X109974096Y-76716000D01*
X110021715Y-76763619D01*
X110069334Y-76858857D01*
X110069334Y-76954095D01*
X110021715Y-77096952D01*
X109450286Y-77668381D01*
X110069334Y-77668381D01*
X110688381Y-76668381D02*
X110783620Y-76668381D01*
X110878858Y-76716000D01*
X110926477Y-76763619D01*
X110974096Y-76858857D01*
X111021715Y-77049333D01*
X111021715Y-77287429D01*
X110974096Y-77477905D01*
X110926477Y-77573143D01*
X110878858Y-77620762D01*
X110783620Y-77668381D01*
X110688381Y-77668381D01*
X110593143Y-77620762D01*
X110545524Y-77573143D01*
X110497905Y-77477905D01*
X110450286Y-77287429D01*
X110450286Y-77049333D01*
X110497905Y-76858857D01*
X110545524Y-76763619D01*
X110593143Y-76716000D01*
X110688381Y-76668381D01*
X111355048Y-76668381D02*
X111974096Y-76668381D01*
X111640762Y-77049333D01*
X111783620Y-77049333D01*
X111878858Y-77096952D01*
X111926477Y-77144571D01*
X111974096Y-77239810D01*
X111974096Y-77477905D01*
X111926477Y-77573143D01*
X111878858Y-77620762D01*
X111783620Y-77668381D01*
X111497905Y-77668381D01*
X111402667Y-77620762D01*
X111355048Y-77573143D01*
X108148381Y-100496476D02*
X107148381Y-100496476D01*
X107148381Y-100115523D01*
X107196000Y-100020285D01*
X107243619Y-99972666D01*
X107338857Y-99925047D01*
X107481714Y-99925047D01*
X107576952Y-99972666D01*
X107624571Y-100020285D01*
X107672190Y-100115523D01*
X107672190Y-100496476D01*
X107243619Y-99544095D02*
X107196000Y-99496476D01*
X107148381Y-99401238D01*
X107148381Y-99163142D01*
X107196000Y-99067904D01*
X107243619Y-99020285D01*
X107338857Y-98972666D01*
X107434095Y-98972666D01*
X107576952Y-99020285D01*
X108148381Y-99591714D01*
X108148381Y-98972666D01*
X107148381Y-98353619D02*
X107148381Y-98258380D01*
X107196000Y-98163142D01*
X107243619Y-98115523D01*
X107338857Y-98067904D01*
X107529333Y-98020285D01*
X107767429Y-98020285D01*
X107957905Y-98067904D01*
X108053143Y-98115523D01*
X108100762Y-98163142D01*
X108148381Y-98258380D01*
X108148381Y-98353619D01*
X108100762Y-98448857D01*
X108053143Y-98496476D01*
X107957905Y-98544095D01*
X107767429Y-98591714D01*
X107529333Y-98591714D01*
X107338857Y-98544095D01*
X107243619Y-98496476D01*
X107196000Y-98448857D01*
X107148381Y-98353619D01*
X107481714Y-97163142D02*
X108148381Y-97163142D01*
X107100762Y-97401238D02*
X107815048Y-97639333D01*
X107815048Y-97020285D01*
X139025524Y-127452381D02*
X139025524Y-126452381D01*
X139406477Y-126452381D01*
X139501715Y-126500000D01*
X139549334Y-126547619D01*
X139596953Y-126642857D01*
X139596953Y-126785714D01*
X139549334Y-126880952D01*
X139501715Y-126928571D01*
X139406477Y-126976190D01*
X139025524Y-126976190D01*
X139977905Y-126547619D02*
X140025524Y-126500000D01*
X140120762Y-126452381D01*
X140358858Y-126452381D01*
X140454096Y-126500000D01*
X140501715Y-126547619D01*
X140549334Y-126642857D01*
X140549334Y-126738095D01*
X140501715Y-126880952D01*
X139930286Y-127452381D01*
X140549334Y-127452381D01*
X141168381Y-126452381D02*
X141263620Y-126452381D01*
X141358858Y-126500000D01*
X141406477Y-126547619D01*
X141454096Y-126642857D01*
X141501715Y-126833333D01*
X141501715Y-127071429D01*
X141454096Y-127261905D01*
X141406477Y-127357143D01*
X141358858Y-127404762D01*
X141263620Y-127452381D01*
X141168381Y-127452381D01*
X141073143Y-127404762D01*
X141025524Y-127357143D01*
X140977905Y-127261905D01*
X140930286Y-127071429D01*
X140930286Y-126833333D01*
X140977905Y-126642857D01*
X141025524Y-126547619D01*
X141073143Y-126500000D01*
X141168381Y-126452381D01*
X142358858Y-126452381D02*
X142168381Y-126452381D01*
X142073143Y-126500000D01*
X142025524Y-126547619D01*
X141930286Y-126690476D01*
X141882667Y-126880952D01*
X141882667Y-127261905D01*
X141930286Y-127357143D01*
X141977905Y-127404762D01*
X142073143Y-127452381D01*
X142263620Y-127452381D01*
X142358858Y-127404762D01*
X142406477Y-127357143D01*
X142454096Y-127261905D01*
X142454096Y-127023810D01*
X142406477Y-126928571D01*
X142358858Y-126880952D01*
X142263620Y-126833333D01*
X142073143Y-126833333D01*
X141977905Y-126880952D01*
X141930286Y-126928571D01*
X141882667Y-127023810D01*
X108148381Y-114466476D02*
X107148381Y-114466476D01*
X107148381Y-114085523D01*
X107196000Y-113990285D01*
X107243619Y-113942666D01*
X107338857Y-113895047D01*
X107481714Y-113895047D01*
X107576952Y-113942666D01*
X107624571Y-113990285D01*
X107672190Y-114085523D01*
X107672190Y-114466476D01*
X107243619Y-113514095D02*
X107196000Y-113466476D01*
X107148381Y-113371238D01*
X107148381Y-113133142D01*
X107196000Y-113037904D01*
X107243619Y-112990285D01*
X107338857Y-112942666D01*
X107434095Y-112942666D01*
X107576952Y-112990285D01*
X108148381Y-113561714D01*
X108148381Y-112942666D01*
X107148381Y-112323619D02*
X107148381Y-112228380D01*
X107196000Y-112133142D01*
X107243619Y-112085523D01*
X107338857Y-112037904D01*
X107529333Y-111990285D01*
X107767429Y-111990285D01*
X107957905Y-112037904D01*
X108053143Y-112085523D01*
X108100762Y-112133142D01*
X108148381Y-112228380D01*
X108148381Y-112323619D01*
X108100762Y-112418857D01*
X108053143Y-112466476D01*
X107957905Y-112514095D01*
X107767429Y-112561714D01*
X107529333Y-112561714D01*
X107338857Y-112514095D01*
X107243619Y-112466476D01*
X107196000Y-112418857D01*
X107148381Y-112323619D01*
X107148381Y-111656952D02*
X107148381Y-110990285D01*
X108148381Y-111418857D01*
X123785524Y-127452381D02*
X123785524Y-126452381D01*
X124166477Y-126452381D01*
X124261715Y-126500000D01*
X124309334Y-126547619D01*
X124356953Y-126642857D01*
X124356953Y-126785714D01*
X124309334Y-126880952D01*
X124261715Y-126928571D01*
X124166477Y-126976190D01*
X123785524Y-126976190D01*
X124737905Y-126547619D02*
X124785524Y-126500000D01*
X124880762Y-126452381D01*
X125118858Y-126452381D01*
X125214096Y-126500000D01*
X125261715Y-126547619D01*
X125309334Y-126642857D01*
X125309334Y-126738095D01*
X125261715Y-126880952D01*
X124690286Y-127452381D01*
X125309334Y-127452381D01*
X125928381Y-126452381D02*
X126023620Y-126452381D01*
X126118858Y-126500000D01*
X126166477Y-126547619D01*
X126214096Y-126642857D01*
X126261715Y-126833333D01*
X126261715Y-127071429D01*
X126214096Y-127261905D01*
X126166477Y-127357143D01*
X126118858Y-127404762D01*
X126023620Y-127452381D01*
X125928381Y-127452381D01*
X125833143Y-127404762D01*
X125785524Y-127357143D01*
X125737905Y-127261905D01*
X125690286Y-127071429D01*
X125690286Y-126833333D01*
X125737905Y-126642857D01*
X125785524Y-126547619D01*
X125833143Y-126500000D01*
X125928381Y-126452381D01*
X126833143Y-126880952D02*
X126737905Y-126833333D01*
X126690286Y-126785714D01*
X126642667Y-126690476D01*
X126642667Y-126642857D01*
X126690286Y-126547619D01*
X126737905Y-126500000D01*
X126833143Y-126452381D01*
X127023620Y-126452381D01*
X127118858Y-126500000D01*
X127166477Y-126547619D01*
X127214096Y-126642857D01*
X127214096Y-126690476D01*
X127166477Y-126785714D01*
X127118858Y-126833333D01*
X127023620Y-126880952D01*
X126833143Y-126880952D01*
X126737905Y-126928571D01*
X126690286Y-126976190D01*
X126642667Y-127071429D01*
X126642667Y-127261905D01*
X126690286Y-127357143D01*
X126737905Y-127404762D01*
X126833143Y-127452381D01*
X127023620Y-127452381D01*
X127118858Y-127404762D01*
X127166477Y-127357143D01*
X127214096Y-127261905D01*
X127214096Y-127071429D01*
X127166477Y-126976190D01*
X127118858Y-126928571D01*
X127023620Y-126880952D01*
X129881524Y-127452381D02*
X129881524Y-126452381D01*
X130262477Y-126452381D01*
X130357715Y-126500000D01*
X130405334Y-126547619D01*
X130452953Y-126642857D01*
X130452953Y-126785714D01*
X130405334Y-126880952D01*
X130357715Y-126928571D01*
X130262477Y-126976190D01*
X129881524Y-126976190D01*
X130833905Y-126547619D02*
X130881524Y-126500000D01*
X130976762Y-126452381D01*
X131214858Y-126452381D01*
X131310096Y-126500000D01*
X131357715Y-126547619D01*
X131405334Y-126642857D01*
X131405334Y-126738095D01*
X131357715Y-126880952D01*
X130786286Y-127452381D01*
X131405334Y-127452381D01*
X132024381Y-126452381D02*
X132119620Y-126452381D01*
X132214858Y-126500000D01*
X132262477Y-126547619D01*
X132310096Y-126642857D01*
X132357715Y-126833333D01*
X132357715Y-127071429D01*
X132310096Y-127261905D01*
X132262477Y-127357143D01*
X132214858Y-127404762D01*
X132119620Y-127452381D01*
X132024381Y-127452381D01*
X131929143Y-127404762D01*
X131881524Y-127357143D01*
X131833905Y-127261905D01*
X131786286Y-127071429D01*
X131786286Y-126833333D01*
X131833905Y-126642857D01*
X131881524Y-126547619D01*
X131929143Y-126500000D01*
X132024381Y-126452381D01*
X132833905Y-127452381D02*
X133024381Y-127452381D01*
X133119620Y-127404762D01*
X133167239Y-127357143D01*
X133262477Y-127214286D01*
X133310096Y-127023810D01*
X133310096Y-126642857D01*
X133262477Y-126547619D01*
X133214858Y-126500000D01*
X133119620Y-126452381D01*
X132929143Y-126452381D01*
X132833905Y-126500000D01*
X132786286Y-126547619D01*
X132738667Y-126642857D01*
X132738667Y-126880952D01*
X132786286Y-126976190D01*
X132833905Y-127023810D01*
X132929143Y-127071429D01*
X133119620Y-127071429D01*
X133214858Y-127023810D01*
X133262477Y-126976190D01*
X133310096Y-126880952D01*
X131976953Y-68778381D02*
X131643619Y-68302190D01*
X131405524Y-68778381D02*
X131405524Y-67778381D01*
X131786477Y-67778381D01*
X131881715Y-67826000D01*
X131929334Y-67873619D01*
X131976953Y-67968857D01*
X131976953Y-68111714D01*
X131929334Y-68206952D01*
X131881715Y-68254571D01*
X131786477Y-68302190D01*
X131405524Y-68302190D01*
X132357905Y-67873619D02*
X132405524Y-67826000D01*
X132500762Y-67778381D01*
X132738858Y-67778381D01*
X132834096Y-67826000D01*
X132881715Y-67873619D01*
X132929334Y-67968857D01*
X132929334Y-68064095D01*
X132881715Y-68206952D01*
X132310286Y-68778381D01*
X132929334Y-68778381D01*
X133548381Y-67778381D02*
X133643620Y-67778381D01*
X133738858Y-67826000D01*
X133786477Y-67873619D01*
X133834096Y-67968857D01*
X133881715Y-68159333D01*
X133881715Y-68397429D01*
X133834096Y-68587905D01*
X133786477Y-68683143D01*
X133738858Y-68730762D01*
X133643620Y-68778381D01*
X133548381Y-68778381D01*
X133453143Y-68730762D01*
X133405524Y-68683143D01*
X133357905Y-68587905D01*
X133310286Y-68397429D01*
X133310286Y-68159333D01*
X133357905Y-67968857D01*
X133405524Y-67873619D01*
X133453143Y-67826000D01*
X133548381Y-67778381D01*
X134834096Y-68778381D02*
X134262667Y-68778381D01*
X134548381Y-68778381D02*
X134548381Y-67778381D01*
X134453143Y-67921238D01*
X134357905Y-68016476D01*
X134262667Y-68064095D01*
X131976953Y-80208381D02*
X131643619Y-79732190D01*
X131405524Y-80208381D02*
X131405524Y-79208381D01*
X131786477Y-79208381D01*
X131881715Y-79256000D01*
X131929334Y-79303619D01*
X131976953Y-79398857D01*
X131976953Y-79541714D01*
X131929334Y-79636952D01*
X131881715Y-79684571D01*
X131786477Y-79732190D01*
X131405524Y-79732190D01*
X132357905Y-79303619D02*
X132405524Y-79256000D01*
X132500762Y-79208381D01*
X132738858Y-79208381D01*
X132834096Y-79256000D01*
X132881715Y-79303619D01*
X132929334Y-79398857D01*
X132929334Y-79494095D01*
X132881715Y-79636952D01*
X132310286Y-80208381D01*
X132929334Y-80208381D01*
X133548381Y-79208381D02*
X133643620Y-79208381D01*
X133738858Y-79256000D01*
X133786477Y-79303619D01*
X133834096Y-79398857D01*
X133881715Y-79589333D01*
X133881715Y-79827429D01*
X133834096Y-80017905D01*
X133786477Y-80113143D01*
X133738858Y-80160762D01*
X133643620Y-80208381D01*
X133548381Y-80208381D01*
X133453143Y-80160762D01*
X133405524Y-80113143D01*
X133357905Y-80017905D01*
X133310286Y-79827429D01*
X133310286Y-79589333D01*
X133357905Y-79398857D01*
X133405524Y-79303619D01*
X133453143Y-79256000D01*
X133548381Y-79208381D01*
X134262667Y-79303619D02*
X134310286Y-79256000D01*
X134405524Y-79208381D01*
X134643620Y-79208381D01*
X134738858Y-79256000D01*
X134786477Y-79303619D01*
X134834096Y-79398857D01*
X134834096Y-79494095D01*
X134786477Y-79636952D01*
X134215048Y-80208381D01*
X134834096Y-80208381D01*
X131976953Y-86558381D02*
X131643619Y-86082190D01*
X131405524Y-86558381D02*
X131405524Y-85558381D01*
X131786477Y-85558381D01*
X131881715Y-85606000D01*
X131929334Y-85653619D01*
X131976953Y-85748857D01*
X131976953Y-85891714D01*
X131929334Y-85986952D01*
X131881715Y-86034571D01*
X131786477Y-86082190D01*
X131405524Y-86082190D01*
X132357905Y-85653619D02*
X132405524Y-85606000D01*
X132500762Y-85558381D01*
X132738858Y-85558381D01*
X132834096Y-85606000D01*
X132881715Y-85653619D01*
X132929334Y-85748857D01*
X132929334Y-85844095D01*
X132881715Y-85986952D01*
X132310286Y-86558381D01*
X132929334Y-86558381D01*
X133548381Y-85558381D02*
X133643620Y-85558381D01*
X133738858Y-85606000D01*
X133786477Y-85653619D01*
X133834096Y-85748857D01*
X133881715Y-85939333D01*
X133881715Y-86177429D01*
X133834096Y-86367905D01*
X133786477Y-86463143D01*
X133738858Y-86510762D01*
X133643620Y-86558381D01*
X133548381Y-86558381D01*
X133453143Y-86510762D01*
X133405524Y-86463143D01*
X133357905Y-86367905D01*
X133310286Y-86177429D01*
X133310286Y-85939333D01*
X133357905Y-85748857D01*
X133405524Y-85653619D01*
X133453143Y-85606000D01*
X133548381Y-85558381D01*
X134215048Y-85558381D02*
X134834096Y-85558381D01*
X134500762Y-85939333D01*
X134643620Y-85939333D01*
X134738858Y-85986952D01*
X134786477Y-86034571D01*
X134834096Y-86129810D01*
X134834096Y-86367905D01*
X134786477Y-86463143D01*
X134738858Y-86510762D01*
X134643620Y-86558381D01*
X134357905Y-86558381D01*
X134262667Y-86510762D01*
X134215048Y-86463143D01*
X131976953Y-92908381D02*
X131643619Y-92432190D01*
X131405524Y-92908381D02*
X131405524Y-91908381D01*
X131786477Y-91908381D01*
X131881715Y-91956000D01*
X131929334Y-92003619D01*
X131976953Y-92098857D01*
X131976953Y-92241714D01*
X131929334Y-92336952D01*
X131881715Y-92384571D01*
X131786477Y-92432190D01*
X131405524Y-92432190D01*
X132357905Y-92003619D02*
X132405524Y-91956000D01*
X132500762Y-91908381D01*
X132738858Y-91908381D01*
X132834096Y-91956000D01*
X132881715Y-92003619D01*
X132929334Y-92098857D01*
X132929334Y-92194095D01*
X132881715Y-92336952D01*
X132310286Y-92908381D01*
X132929334Y-92908381D01*
X133548381Y-91908381D02*
X133643620Y-91908381D01*
X133738858Y-91956000D01*
X133786477Y-92003619D01*
X133834096Y-92098857D01*
X133881715Y-92289333D01*
X133881715Y-92527429D01*
X133834096Y-92717905D01*
X133786477Y-92813143D01*
X133738858Y-92860762D01*
X133643620Y-92908381D01*
X133548381Y-92908381D01*
X133453143Y-92860762D01*
X133405524Y-92813143D01*
X133357905Y-92717905D01*
X133310286Y-92527429D01*
X133310286Y-92289333D01*
X133357905Y-92098857D01*
X133405524Y-92003619D01*
X133453143Y-91956000D01*
X133548381Y-91908381D01*
X134738858Y-92241714D02*
X134738858Y-92908381D01*
X134500762Y-91860762D02*
X134262667Y-92575048D01*
X134881715Y-92575048D01*
X131976953Y-99258381D02*
X131643619Y-98782190D01*
X131405524Y-99258381D02*
X131405524Y-98258381D01*
X131786477Y-98258381D01*
X131881715Y-98306000D01*
X131929334Y-98353619D01*
X131976953Y-98448857D01*
X131976953Y-98591714D01*
X131929334Y-98686952D01*
X131881715Y-98734571D01*
X131786477Y-98782190D01*
X131405524Y-98782190D01*
X132357905Y-98353619D02*
X132405524Y-98306000D01*
X132500762Y-98258381D01*
X132738858Y-98258381D01*
X132834096Y-98306000D01*
X132881715Y-98353619D01*
X132929334Y-98448857D01*
X132929334Y-98544095D01*
X132881715Y-98686952D01*
X132310286Y-99258381D01*
X132929334Y-99258381D01*
X133548381Y-98258381D02*
X133643620Y-98258381D01*
X133738858Y-98306000D01*
X133786477Y-98353619D01*
X133834096Y-98448857D01*
X133881715Y-98639333D01*
X133881715Y-98877429D01*
X133834096Y-99067905D01*
X133786477Y-99163143D01*
X133738858Y-99210762D01*
X133643620Y-99258381D01*
X133548381Y-99258381D01*
X133453143Y-99210762D01*
X133405524Y-99163143D01*
X133357905Y-99067905D01*
X133310286Y-98877429D01*
X133310286Y-98639333D01*
X133357905Y-98448857D01*
X133405524Y-98353619D01*
X133453143Y-98306000D01*
X133548381Y-98258381D01*
X134786477Y-98258381D02*
X134310286Y-98258381D01*
X134262667Y-98734571D01*
X134310286Y-98686952D01*
X134405524Y-98639333D01*
X134643620Y-98639333D01*
X134738858Y-98686952D01*
X134786477Y-98734571D01*
X134834096Y-98829810D01*
X134834096Y-99067905D01*
X134786477Y-99163143D01*
X134738858Y-99210762D01*
X134643620Y-99258381D01*
X134405524Y-99258381D01*
X134310286Y-99210762D01*
X134262667Y-99163143D01*
X131976953Y-105608381D02*
X131643619Y-105132190D01*
X131405524Y-105608381D02*
X131405524Y-104608381D01*
X131786477Y-104608381D01*
X131881715Y-104656000D01*
X131929334Y-104703619D01*
X131976953Y-104798857D01*
X131976953Y-104941714D01*
X131929334Y-105036952D01*
X131881715Y-105084571D01*
X131786477Y-105132190D01*
X131405524Y-105132190D01*
X132357905Y-104703619D02*
X132405524Y-104656000D01*
X132500762Y-104608381D01*
X132738858Y-104608381D01*
X132834096Y-104656000D01*
X132881715Y-104703619D01*
X132929334Y-104798857D01*
X132929334Y-104894095D01*
X132881715Y-105036952D01*
X132310286Y-105608381D01*
X132929334Y-105608381D01*
X133548381Y-104608381D02*
X133643620Y-104608381D01*
X133738858Y-104656000D01*
X133786477Y-104703619D01*
X133834096Y-104798857D01*
X133881715Y-104989333D01*
X133881715Y-105227429D01*
X133834096Y-105417905D01*
X133786477Y-105513143D01*
X133738858Y-105560762D01*
X133643620Y-105608381D01*
X133548381Y-105608381D01*
X133453143Y-105560762D01*
X133405524Y-105513143D01*
X133357905Y-105417905D01*
X133310286Y-105227429D01*
X133310286Y-104989333D01*
X133357905Y-104798857D01*
X133405524Y-104703619D01*
X133453143Y-104656000D01*
X133548381Y-104608381D01*
X134738858Y-104608381D02*
X134548381Y-104608381D01*
X134453143Y-104656000D01*
X134405524Y-104703619D01*
X134310286Y-104846476D01*
X134262667Y-105036952D01*
X134262667Y-105417905D01*
X134310286Y-105513143D01*
X134357905Y-105560762D01*
X134453143Y-105608381D01*
X134643620Y-105608381D01*
X134738858Y-105560762D01*
X134786477Y-105513143D01*
X134834096Y-105417905D01*
X134834096Y-105179810D01*
X134786477Y-105084571D01*
X134738858Y-105036952D01*
X134643620Y-104989333D01*
X134453143Y-104989333D01*
X134357905Y-105036952D01*
X134310286Y-105084571D01*
X134262667Y-105179810D01*
X131976953Y-111958381D02*
X131643619Y-111482190D01*
X131405524Y-111958381D02*
X131405524Y-110958381D01*
X131786477Y-110958381D01*
X131881715Y-111006000D01*
X131929334Y-111053619D01*
X131976953Y-111148857D01*
X131976953Y-111291714D01*
X131929334Y-111386952D01*
X131881715Y-111434571D01*
X131786477Y-111482190D01*
X131405524Y-111482190D01*
X132357905Y-111053619D02*
X132405524Y-111006000D01*
X132500762Y-110958381D01*
X132738858Y-110958381D01*
X132834096Y-111006000D01*
X132881715Y-111053619D01*
X132929334Y-111148857D01*
X132929334Y-111244095D01*
X132881715Y-111386952D01*
X132310286Y-111958381D01*
X132929334Y-111958381D01*
X133548381Y-110958381D02*
X133643620Y-110958381D01*
X133738858Y-111006000D01*
X133786477Y-111053619D01*
X133834096Y-111148857D01*
X133881715Y-111339333D01*
X133881715Y-111577429D01*
X133834096Y-111767905D01*
X133786477Y-111863143D01*
X133738858Y-111910762D01*
X133643620Y-111958381D01*
X133548381Y-111958381D01*
X133453143Y-111910762D01*
X133405524Y-111863143D01*
X133357905Y-111767905D01*
X133310286Y-111577429D01*
X133310286Y-111339333D01*
X133357905Y-111148857D01*
X133405524Y-111053619D01*
X133453143Y-111006000D01*
X133548381Y-110958381D01*
X134215048Y-110958381D02*
X134881715Y-110958381D01*
X134453143Y-111958381D01*
X131976953Y-118308381D02*
X131643619Y-117832190D01*
X131405524Y-118308381D02*
X131405524Y-117308381D01*
X131786477Y-117308381D01*
X131881715Y-117356000D01*
X131929334Y-117403619D01*
X131976953Y-117498857D01*
X131976953Y-117641714D01*
X131929334Y-117736952D01*
X131881715Y-117784571D01*
X131786477Y-117832190D01*
X131405524Y-117832190D01*
X132357905Y-117403619D02*
X132405524Y-117356000D01*
X132500762Y-117308381D01*
X132738858Y-117308381D01*
X132834096Y-117356000D01*
X132881715Y-117403619D01*
X132929334Y-117498857D01*
X132929334Y-117594095D01*
X132881715Y-117736952D01*
X132310286Y-118308381D01*
X132929334Y-118308381D01*
X133548381Y-117308381D02*
X133643620Y-117308381D01*
X133738858Y-117356000D01*
X133786477Y-117403619D01*
X133834096Y-117498857D01*
X133881715Y-117689333D01*
X133881715Y-117927429D01*
X133834096Y-118117905D01*
X133786477Y-118213143D01*
X133738858Y-118260762D01*
X133643620Y-118308381D01*
X133548381Y-118308381D01*
X133453143Y-118260762D01*
X133405524Y-118213143D01*
X133357905Y-118117905D01*
X133310286Y-117927429D01*
X133310286Y-117689333D01*
X133357905Y-117498857D01*
X133405524Y-117403619D01*
X133453143Y-117356000D01*
X133548381Y-117308381D01*
X134453143Y-117736952D02*
X134357905Y-117689333D01*
X134310286Y-117641714D01*
X134262667Y-117546476D01*
X134262667Y-117498857D01*
X134310286Y-117403619D01*
X134357905Y-117356000D01*
X134453143Y-117308381D01*
X134643620Y-117308381D01*
X134738858Y-117356000D01*
X134786477Y-117403619D01*
X134834096Y-117498857D01*
X134834096Y-117546476D01*
X134786477Y-117641714D01*
X134738858Y-117689333D01*
X134643620Y-117736952D01*
X134453143Y-117736952D01*
X134357905Y-117784571D01*
X134310286Y-117832190D01*
X134262667Y-117927429D01*
X134262667Y-118117905D01*
X134310286Y-118213143D01*
X134357905Y-118260762D01*
X134453143Y-118308381D01*
X134643620Y-118308381D01*
X134738858Y-118260762D01*
X134786477Y-118213143D01*
X134834096Y-118117905D01*
X134834096Y-117927429D01*
X134786477Y-117832190D01*
X134738858Y-117784571D01*
X134643620Y-117736952D01*
X108148381Y-67222476D02*
X107148381Y-67222476D01*
X107148381Y-66841523D01*
X107196000Y-66746285D01*
X107243619Y-66698666D01*
X107338857Y-66651047D01*
X107481714Y-66651047D01*
X107576952Y-66698666D01*
X107624571Y-66746285D01*
X107672190Y-66841523D01*
X107672190Y-67222476D01*
X107243619Y-66270095D02*
X107196000Y-66222476D01*
X107148381Y-66127238D01*
X107148381Y-65889142D01*
X107196000Y-65793904D01*
X107243619Y-65746285D01*
X107338857Y-65698666D01*
X107434095Y-65698666D01*
X107576952Y-65746285D01*
X108148381Y-66317714D01*
X108148381Y-65698666D01*
X107148381Y-65079619D02*
X107148381Y-64984380D01*
X107196000Y-64889142D01*
X107243619Y-64841523D01*
X107338857Y-64793904D01*
X107529333Y-64746285D01*
X107767429Y-64746285D01*
X107957905Y-64793904D01*
X108053143Y-64841523D01*
X108100762Y-64889142D01*
X108148381Y-64984380D01*
X108148381Y-65079619D01*
X108100762Y-65174857D01*
X108053143Y-65222476D01*
X107957905Y-65270095D01*
X107767429Y-65317714D01*
X107529333Y-65317714D01*
X107338857Y-65270095D01*
X107243619Y-65222476D01*
X107196000Y-65174857D01*
X107148381Y-65079619D01*
X107148381Y-63841523D02*
X107148381Y-64317714D01*
X107624571Y-64365333D01*
X107576952Y-64317714D01*
X107529333Y-64222476D01*
X107529333Y-63984380D01*
X107576952Y-63889142D01*
X107624571Y-63841523D01*
X107719810Y-63793904D01*
X107957905Y-63793904D01*
X108053143Y-63841523D01*
X108100762Y-63889142D01*
X108148381Y-63984380D01*
X108148381Y-64222476D01*
X108100762Y-64317714D01*
X108053143Y-64365333D01*
M02*
