G04 #@! TF.GenerationSoftware,KiCad,Pcbnew,5.1.5+dfsg1-2build2*
G04 #@! TF.CreationDate,2024-04-23T22:37:31+02:00*
G04 #@! TF.ProjectId,display,64697370-6c61-4792-9e6b-696361645f70,231006*
G04 #@! TF.SameCoordinates,Original*
G04 #@! TF.FileFunction,Legend,Top*
G04 #@! TF.FilePolarity,Positive*
%FSLAX46Y46*%
G04 Gerber Fmt 4.6, Leading zero omitted, Abs format (unit mm)*
G04 Created by KiCad (PCBNEW 5.1.5+dfsg1-2build2) date 2024-04-23 22:37:31*
%MOMM*%
%LPD*%
G04 APERTURE LIST*
%ADD10C,0.300000*%
%ADD11C,0.200000*%
%ADD12C,0.150000*%
G04 APERTURE END LIST*
D10*
X162500857Y-67705857D02*
X162715142Y-67777285D01*
X162786571Y-67848714D01*
X162858000Y-67991571D01*
X162858000Y-68205857D01*
X162786571Y-68348714D01*
X162715142Y-68420142D01*
X162572285Y-68491571D01*
X162000857Y-68491571D01*
X162000857Y-66991571D01*
X162500857Y-66991571D01*
X162643714Y-67063000D01*
X162715142Y-67134428D01*
X162786571Y-67277285D01*
X162786571Y-67420142D01*
X162715142Y-67563000D01*
X162643714Y-67634428D01*
X162500857Y-67705857D01*
X162000857Y-67705857D01*
X164143714Y-68491571D02*
X164143714Y-67705857D01*
X164072285Y-67563000D01*
X163929428Y-67491571D01*
X163643714Y-67491571D01*
X163500857Y-67563000D01*
X164143714Y-68420142D02*
X164000857Y-68491571D01*
X163643714Y-68491571D01*
X163500857Y-68420142D01*
X163429428Y-68277285D01*
X163429428Y-68134428D01*
X163500857Y-67991571D01*
X163643714Y-67920142D01*
X164000857Y-67920142D01*
X164143714Y-67848714D01*
X164643714Y-67491571D02*
X165215142Y-67491571D01*
X164858000Y-66991571D02*
X164858000Y-68277285D01*
X164929428Y-68420142D01*
X165072285Y-68491571D01*
X165215142Y-68491571D01*
X165500857Y-67491571D02*
X166072285Y-67491571D01*
X165715142Y-66991571D02*
X165715142Y-68277285D01*
X165786571Y-68420142D01*
X165929428Y-68491571D01*
X166072285Y-68491571D01*
X167143714Y-68420142D02*
X167000857Y-68491571D01*
X166715142Y-68491571D01*
X166572285Y-68420142D01*
X166500857Y-68277285D01*
X166500857Y-67705857D01*
X166572285Y-67563000D01*
X166715142Y-67491571D01*
X167000857Y-67491571D01*
X167143714Y-67563000D01*
X167215142Y-67705857D01*
X167215142Y-67848714D01*
X166500857Y-67991571D01*
X167858000Y-68491571D02*
X167858000Y-67491571D01*
X167858000Y-67777285D02*
X167929428Y-67634428D01*
X168000857Y-67563000D01*
X168143714Y-67491571D01*
X168286571Y-67491571D01*
X168643714Y-67491571D02*
X169000857Y-68491571D01*
X169358000Y-67491571D02*
X169000857Y-68491571D01*
X168858000Y-68848714D01*
X168786571Y-68920142D01*
X168643714Y-68991571D01*
X163822285Y-69541571D02*
X163536571Y-69541571D01*
X163393714Y-69613000D01*
X163322285Y-69684428D01*
X163179428Y-69898714D01*
X163108000Y-70184428D01*
X163108000Y-70755857D01*
X163179428Y-70898714D01*
X163250857Y-70970142D01*
X163393714Y-71041571D01*
X163679428Y-71041571D01*
X163822285Y-70970142D01*
X163893714Y-70898714D01*
X163965142Y-70755857D01*
X163965142Y-70398714D01*
X163893714Y-70255857D01*
X163822285Y-70184428D01*
X163679428Y-70113000D01*
X163393714Y-70113000D01*
X163250857Y-70184428D01*
X163179428Y-70255857D01*
X163108000Y-70398714D01*
X165108000Y-70255857D02*
X164608000Y-70255857D01*
X164608000Y-71041571D02*
X164608000Y-69541571D01*
X165322285Y-69541571D01*
X165822285Y-69684428D02*
X165893714Y-69613000D01*
X166036571Y-69541571D01*
X166393714Y-69541571D01*
X166536571Y-69613000D01*
X166608000Y-69684428D01*
X166679428Y-69827285D01*
X166679428Y-69970142D01*
X166608000Y-70184428D01*
X165750857Y-71041571D01*
X166679428Y-71041571D01*
X167250857Y-69684428D02*
X167322285Y-69613000D01*
X167465142Y-69541571D01*
X167822285Y-69541571D01*
X167965142Y-69613000D01*
X168036571Y-69684428D01*
X168108000Y-69827285D01*
X168108000Y-69970142D01*
X168036571Y-70184428D01*
X167179428Y-71041571D01*
X168108000Y-71041571D01*
D11*
X146812000Y-74168000D02*
X146812000Y-61976000D01*
X108712000Y-74168000D02*
X146812000Y-74168000D01*
D12*
X185166000Y-129286000D02*
X148336000Y-129286000D01*
X185166000Y-58166000D02*
X185166000Y-129286000D01*
X105156000Y-58166000D02*
X185166000Y-58166000D01*
X105156000Y-63246000D02*
X105156000Y-58166000D01*
X105156000Y-63246000D02*
X105156000Y-129286000D01*
X105156000Y-129286000D02*
X148336000Y-129286000D01*
X105156000Y-124206000D02*
X105156000Y-129286000D01*
X148616000Y-83846000D02*
X148616000Y-82296000D01*
X148336000Y-78486000D02*
X148336000Y-81026000D01*
X148336000Y-81026000D02*
X145796000Y-81026000D01*
X145516000Y-82296000D02*
X145516000Y-83846000D01*
X145516000Y-83846000D02*
X148616000Y-83846000D01*
X145796000Y-81026000D02*
X145796000Y-78486000D01*
X145796000Y-78486000D02*
X148336000Y-78486000D01*
X116641112Y-69850904D02*
G75*
G03X116626000Y-66826000I2484888J1524904D01*
G01*
X116626000Y-69826000D02*
X116626000Y-66826000D01*
X121643936Y-68326000D02*
G75*
G03X121643936Y-68326000I-2517936J0D01*
G01*
X116641112Y-81280904D02*
G75*
G03X116626000Y-78256000I2484888J1524904D01*
G01*
X116626000Y-81256000D02*
X116626000Y-78256000D01*
X121643936Y-79756000D02*
G75*
G03X121643936Y-79756000I-2517936J0D01*
G01*
X116641112Y-87630904D02*
G75*
G03X116626000Y-84606000I2484888J1524904D01*
G01*
X116626000Y-87606000D02*
X116626000Y-84606000D01*
X121643936Y-86106000D02*
G75*
G03X121643936Y-86106000I-2517936J0D01*
G01*
X116641112Y-93980904D02*
G75*
G03X116626000Y-90956000I2484888J1524904D01*
G01*
X116626000Y-93956000D02*
X116626000Y-90956000D01*
X121643936Y-92456000D02*
G75*
G03X121643936Y-92456000I-2517936J0D01*
G01*
X116641112Y-100330904D02*
G75*
G03X116626000Y-97306000I2484888J1524904D01*
G01*
X116626000Y-100306000D02*
X116626000Y-97306000D01*
X121643936Y-98806000D02*
G75*
G03X121643936Y-98806000I-2517936J0D01*
G01*
X116641112Y-106680904D02*
G75*
G03X116626000Y-103656000I2484888J1524904D01*
G01*
X116626000Y-106656000D02*
X116626000Y-103656000D01*
X121643936Y-105156000D02*
G75*
G03X121643936Y-105156000I-2517936J0D01*
G01*
X116641112Y-113030904D02*
G75*
G03X116626000Y-110006000I2484888J1524904D01*
G01*
X116626000Y-113006000D02*
X116626000Y-110006000D01*
X121643936Y-111506000D02*
G75*
G03X121643936Y-111506000I-2517936J0D01*
G01*
X116641112Y-119380904D02*
G75*
G03X116626000Y-116356000I2484888J1524904D01*
G01*
X116626000Y-119356000D02*
X116626000Y-116356000D01*
X121643936Y-117856000D02*
G75*
G03X121643936Y-117856000I-2517936J0D01*
G01*
X116641112Y-125730904D02*
G75*
G03X116626000Y-122706000I2484888J1524904D01*
G01*
X116626000Y-125706000D02*
X116626000Y-122706000D01*
X121643936Y-124206000D02*
G75*
G03X121643936Y-124206000I-2517936J0D01*
G01*
X147068540Y-115316000D02*
X147068540Y-116332000D01*
X147068540Y-110490000D02*
X147068540Y-109220000D01*
X148338540Y-110744000D02*
X145798540Y-110744000D01*
X148338540Y-110998000D02*
X145798540Y-110998000D01*
X148338540Y-111252000D02*
X145798540Y-111252000D01*
X148338540Y-110490000D02*
X145798540Y-110490000D01*
X148338540Y-111506000D02*
X145798540Y-110236000D01*
X148338540Y-110236000D02*
X145798540Y-111506000D01*
X148338540Y-111506000D02*
X145798540Y-111506000D01*
X148338540Y-110871000D02*
X145798540Y-110871000D01*
X145798540Y-110236000D02*
X148338540Y-110236000D01*
X148338540Y-110236000D02*
X148338540Y-115316000D01*
X148338540Y-115316000D02*
X145798540Y-115316000D01*
X145798540Y-115316000D02*
X145798540Y-110236000D01*
X147063460Y-94996000D02*
X147063460Y-93980000D01*
X147063460Y-99822000D02*
X147063460Y-101092000D01*
X145793460Y-99568000D02*
X148333460Y-99568000D01*
X145793460Y-99314000D02*
X148333460Y-99314000D01*
X145793460Y-99060000D02*
X148333460Y-99060000D01*
X145793460Y-99822000D02*
X148333460Y-99822000D01*
X145793460Y-98806000D02*
X148333460Y-100076000D01*
X145793460Y-100076000D02*
X148333460Y-98806000D01*
X145793460Y-98806000D02*
X148333460Y-98806000D01*
X145793460Y-99441000D02*
X148333460Y-99441000D01*
X148333460Y-100076000D02*
X145793460Y-100076000D01*
X145793460Y-100076000D02*
X145793460Y-94996000D01*
X145793460Y-94996000D02*
X148333460Y-94996000D01*
X148333460Y-94996000D02*
X148333460Y-100076000D01*
X128016000Y-63248540D02*
X127000000Y-63248540D01*
X132842000Y-63248540D02*
X134112000Y-63248540D01*
X132588000Y-64518540D02*
X132588000Y-61978540D01*
X132334000Y-64518540D02*
X132334000Y-61978540D01*
X132080000Y-64518540D02*
X132080000Y-61978540D01*
X132842000Y-64518540D02*
X132842000Y-61978540D01*
X131826000Y-64518540D02*
X133096000Y-61978540D01*
X133096000Y-64518540D02*
X131826000Y-61978540D01*
X131826000Y-64518540D02*
X131826000Y-61978540D01*
X132461000Y-64518540D02*
X132461000Y-61978540D01*
X133096000Y-61978540D02*
X133096000Y-64518540D01*
X133096000Y-64518540D02*
X128016000Y-64518540D01*
X128016000Y-64518540D02*
X128016000Y-61978540D01*
X128016000Y-61978540D02*
X133096000Y-61978540D01*
X111786000Y-125756000D02*
X111786000Y-124206000D01*
X111506000Y-120396000D02*
X111506000Y-122936000D01*
X111506000Y-122936000D02*
X108966000Y-122936000D01*
X108686000Y-124206000D02*
X108686000Y-125756000D01*
X108686000Y-125756000D02*
X111786000Y-125756000D01*
X108966000Y-122936000D02*
X108966000Y-120396000D01*
X108966000Y-120396000D02*
X111506000Y-120396000D01*
X150876000Y-125476000D02*
X150876000Y-122936000D01*
X148056000Y-122656000D02*
X149606000Y-122656000D01*
X148056000Y-122656000D02*
X148056000Y-125756000D01*
X148056000Y-125756000D02*
X149606000Y-125756000D01*
X108966000Y-81026000D02*
X111506000Y-81026000D01*
X111786000Y-78206000D02*
X111786000Y-79756000D01*
X111786000Y-78206000D02*
X108686000Y-78206000D01*
X108686000Y-78206000D02*
X108686000Y-79756000D01*
X108966000Y-93726000D02*
X108966000Y-106426000D01*
X108966000Y-106426000D02*
X111506000Y-106426000D01*
X111506000Y-106426000D02*
X111506000Y-93726000D01*
X108686000Y-90906000D02*
X108686000Y-92456000D01*
X108966000Y-93726000D02*
X111506000Y-93726000D01*
X111786000Y-92456000D02*
X111786000Y-90906000D01*
X111786000Y-90906000D02*
X108686000Y-90906000D01*
X138176000Y-122656000D02*
X136626000Y-122656000D01*
X136626000Y-122656000D02*
X136626000Y-125756000D01*
X136626000Y-125756000D02*
X138176000Y-125756000D01*
X139446000Y-122936000D02*
X144526000Y-122936000D01*
X144526000Y-122936000D02*
X144526000Y-125476000D01*
X144526000Y-125476000D02*
X139446000Y-125476000D01*
X139446000Y-125476000D02*
X139446000Y-122936000D01*
X111786000Y-110236000D02*
X111786000Y-108686000D01*
X111786000Y-108686000D02*
X108686000Y-108686000D01*
X108686000Y-108686000D02*
X108686000Y-110236000D01*
X111506000Y-111506000D02*
X111506000Y-116586000D01*
X111506000Y-116586000D02*
X108966000Y-116586000D01*
X108966000Y-116586000D02*
X108966000Y-111506000D01*
X108966000Y-111506000D02*
X111506000Y-111506000D01*
X126746000Y-125476000D02*
X126746000Y-122936000D01*
X123926000Y-122656000D02*
X125476000Y-122656000D01*
X123926000Y-122656000D02*
X123926000Y-125756000D01*
X123926000Y-125756000D02*
X125476000Y-125756000D01*
X133096000Y-125476000D02*
X133096000Y-122936000D01*
X130276000Y-122656000D02*
X131826000Y-122656000D01*
X130276000Y-122656000D02*
X130276000Y-125756000D01*
X130276000Y-125756000D02*
X131826000Y-125756000D01*
X127896000Y-67056000D02*
X127896000Y-69596000D01*
X127896000Y-69596000D02*
X138056000Y-69596000D01*
X138056000Y-69596000D02*
X138056000Y-67056000D01*
X138056000Y-67056000D02*
X127896000Y-67056000D01*
X139206000Y-68326000D02*
X138056000Y-68326000D01*
X126746000Y-68326000D02*
X127896000Y-68326000D01*
X127896000Y-78486000D02*
X127896000Y-81026000D01*
X127896000Y-81026000D02*
X138056000Y-81026000D01*
X138056000Y-81026000D02*
X138056000Y-78486000D01*
X138056000Y-78486000D02*
X127896000Y-78486000D01*
X139206000Y-79756000D02*
X138056000Y-79756000D01*
X126746000Y-79756000D02*
X127896000Y-79756000D01*
X127896000Y-84836000D02*
X127896000Y-87376000D01*
X127896000Y-87376000D02*
X138056000Y-87376000D01*
X138056000Y-87376000D02*
X138056000Y-84836000D01*
X138056000Y-84836000D02*
X127896000Y-84836000D01*
X139206000Y-86106000D02*
X138056000Y-86106000D01*
X126746000Y-86106000D02*
X127896000Y-86106000D01*
X127896000Y-91186000D02*
X127896000Y-93726000D01*
X127896000Y-93726000D02*
X138056000Y-93726000D01*
X138056000Y-93726000D02*
X138056000Y-91186000D01*
X138056000Y-91186000D02*
X127896000Y-91186000D01*
X139206000Y-92456000D02*
X138056000Y-92456000D01*
X126746000Y-92456000D02*
X127896000Y-92456000D01*
X127896000Y-97536000D02*
X127896000Y-100076000D01*
X127896000Y-100076000D02*
X138056000Y-100076000D01*
X138056000Y-100076000D02*
X138056000Y-97536000D01*
X138056000Y-97536000D02*
X127896000Y-97536000D01*
X139206000Y-98806000D02*
X138056000Y-98806000D01*
X126746000Y-98806000D02*
X127896000Y-98806000D01*
X127896000Y-103886000D02*
X127896000Y-106426000D01*
X127896000Y-106426000D02*
X138056000Y-106426000D01*
X138056000Y-106426000D02*
X138056000Y-103886000D01*
X138056000Y-103886000D02*
X127896000Y-103886000D01*
X139206000Y-105156000D02*
X138056000Y-105156000D01*
X126746000Y-105156000D02*
X127896000Y-105156000D01*
X138296000Y-112776000D02*
X138296000Y-110236000D01*
X138296000Y-110236000D02*
X128136000Y-110236000D01*
X128136000Y-110236000D02*
X128136000Y-112776000D01*
X128136000Y-112776000D02*
X138296000Y-112776000D01*
X126986000Y-111506000D02*
X128136000Y-111506000D01*
X139446000Y-111506000D02*
X138296000Y-111506000D01*
X127896000Y-116586000D02*
X127896000Y-119126000D01*
X127896000Y-119126000D02*
X138056000Y-119126000D01*
X138056000Y-119126000D02*
X138056000Y-116586000D01*
X138056000Y-116586000D02*
X127896000Y-116586000D01*
X139206000Y-117856000D02*
X138056000Y-117856000D01*
X126746000Y-117856000D02*
X127896000Y-117856000D01*
X108686000Y-68326000D02*
X108686000Y-69876000D01*
X108686000Y-69876000D02*
X111786000Y-69876000D01*
X111786000Y-69876000D02*
X111786000Y-68326000D01*
X108966000Y-67056000D02*
X108966000Y-61976000D01*
X108966000Y-61976000D02*
X111506000Y-61976000D01*
X111506000Y-61976000D02*
X111506000Y-67056000D01*
X111506000Y-67056000D02*
X108966000Y-67056000D01*
X144200571Y-83018095D02*
X144248190Y-82875238D01*
X144295809Y-82827619D01*
X144391047Y-82780000D01*
X144533904Y-82780000D01*
X144629142Y-82827619D01*
X144676761Y-82875238D01*
X144724380Y-82970476D01*
X144724380Y-83351428D01*
X143724380Y-83351428D01*
X143724380Y-83018095D01*
X143772000Y-82922857D01*
X143819619Y-82875238D01*
X143914857Y-82827619D01*
X144010095Y-82827619D01*
X144105333Y-82875238D01*
X144152952Y-82922857D01*
X144200571Y-83018095D01*
X144200571Y-83351428D01*
X143724380Y-82494285D02*
X143724380Y-81922857D01*
X144724380Y-82208571D02*
X143724380Y-82208571D01*
X143819619Y-81637142D02*
X143772000Y-81589523D01*
X143724380Y-81494285D01*
X143724380Y-81256190D01*
X143772000Y-81160952D01*
X143819619Y-81113333D01*
X143914857Y-81065714D01*
X144010095Y-81065714D01*
X144152952Y-81113333D01*
X144724380Y-81684761D01*
X144724380Y-81065714D01*
X143724380Y-80446666D02*
X143724380Y-80351428D01*
X143772000Y-80256190D01*
X143819619Y-80208571D01*
X143914857Y-80160952D01*
X144105333Y-80113333D01*
X144343428Y-80113333D01*
X144533904Y-80160952D01*
X144629142Y-80208571D01*
X144676761Y-80256190D01*
X144724380Y-80351428D01*
X144724380Y-80446666D01*
X144676761Y-80541904D01*
X144629142Y-80589523D01*
X144533904Y-80637142D01*
X144343428Y-80684761D01*
X144105333Y-80684761D01*
X143914857Y-80637142D01*
X143819619Y-80589523D01*
X143772000Y-80541904D01*
X143724380Y-80446666D01*
X144724380Y-79160952D02*
X144724380Y-79732380D01*
X144724380Y-79446666D02*
X143724380Y-79446666D01*
X143867238Y-79541904D01*
X143962476Y-79637142D01*
X144010095Y-79732380D01*
X122515523Y-71318380D02*
X122515523Y-70318380D01*
X122753619Y-70318380D01*
X122896476Y-70366000D01*
X122991714Y-70461238D01*
X123039333Y-70556476D01*
X123086952Y-70746952D01*
X123086952Y-70889809D01*
X123039333Y-71080285D01*
X122991714Y-71175523D01*
X122896476Y-71270761D01*
X122753619Y-71318380D01*
X122515523Y-71318380D01*
X123467904Y-70413619D02*
X123515523Y-70366000D01*
X123610761Y-70318380D01*
X123848857Y-70318380D01*
X123944095Y-70366000D01*
X123991714Y-70413619D01*
X124039333Y-70508857D01*
X124039333Y-70604095D01*
X123991714Y-70746952D01*
X123420285Y-71318380D01*
X124039333Y-71318380D01*
X124658380Y-70318380D02*
X124753619Y-70318380D01*
X124848857Y-70366000D01*
X124896476Y-70413619D01*
X124944095Y-70508857D01*
X124991714Y-70699333D01*
X124991714Y-70937428D01*
X124944095Y-71127904D01*
X124896476Y-71223142D01*
X124848857Y-71270761D01*
X124753619Y-71318380D01*
X124658380Y-71318380D01*
X124563142Y-71270761D01*
X124515523Y-71223142D01*
X124467904Y-71127904D01*
X124420285Y-70937428D01*
X124420285Y-70699333D01*
X124467904Y-70508857D01*
X124515523Y-70413619D01*
X124563142Y-70366000D01*
X124658380Y-70318380D01*
X125944095Y-71318380D02*
X125372666Y-71318380D01*
X125658380Y-71318380D02*
X125658380Y-70318380D01*
X125563142Y-70461238D01*
X125467904Y-70556476D01*
X125372666Y-70604095D01*
X115689095Y-70683380D02*
X115689095Y-69683380D01*
X116260523Y-70683380D02*
X115831952Y-70111952D01*
X116260523Y-69683380D02*
X115689095Y-70254809D01*
X122515523Y-82748380D02*
X122515523Y-81748380D01*
X122753619Y-81748380D01*
X122896476Y-81796000D01*
X122991714Y-81891238D01*
X123039333Y-81986476D01*
X123086952Y-82176952D01*
X123086952Y-82319809D01*
X123039333Y-82510285D01*
X122991714Y-82605523D01*
X122896476Y-82700761D01*
X122753619Y-82748380D01*
X122515523Y-82748380D01*
X123467904Y-81843619D02*
X123515523Y-81796000D01*
X123610761Y-81748380D01*
X123848857Y-81748380D01*
X123944095Y-81796000D01*
X123991714Y-81843619D01*
X124039333Y-81938857D01*
X124039333Y-82034095D01*
X123991714Y-82176952D01*
X123420285Y-82748380D01*
X124039333Y-82748380D01*
X124658380Y-81748380D02*
X124753619Y-81748380D01*
X124848857Y-81796000D01*
X124896476Y-81843619D01*
X124944095Y-81938857D01*
X124991714Y-82129333D01*
X124991714Y-82367428D01*
X124944095Y-82557904D01*
X124896476Y-82653142D01*
X124848857Y-82700761D01*
X124753619Y-82748380D01*
X124658380Y-82748380D01*
X124563142Y-82700761D01*
X124515523Y-82653142D01*
X124467904Y-82557904D01*
X124420285Y-82367428D01*
X124420285Y-82129333D01*
X124467904Y-81938857D01*
X124515523Y-81843619D01*
X124563142Y-81796000D01*
X124658380Y-81748380D01*
X125372666Y-81843619D02*
X125420285Y-81796000D01*
X125515523Y-81748380D01*
X125753619Y-81748380D01*
X125848857Y-81796000D01*
X125896476Y-81843619D01*
X125944095Y-81938857D01*
X125944095Y-82034095D01*
X125896476Y-82176952D01*
X125325047Y-82748380D01*
X125944095Y-82748380D01*
X115689095Y-82113380D02*
X115689095Y-81113380D01*
X116260523Y-82113380D02*
X115831952Y-81541952D01*
X116260523Y-81113380D02*
X115689095Y-81684809D01*
X122515523Y-89098380D02*
X122515523Y-88098380D01*
X122753619Y-88098380D01*
X122896476Y-88146000D01*
X122991714Y-88241238D01*
X123039333Y-88336476D01*
X123086952Y-88526952D01*
X123086952Y-88669809D01*
X123039333Y-88860285D01*
X122991714Y-88955523D01*
X122896476Y-89050761D01*
X122753619Y-89098380D01*
X122515523Y-89098380D01*
X123467904Y-88193619D02*
X123515523Y-88146000D01*
X123610761Y-88098380D01*
X123848857Y-88098380D01*
X123944095Y-88146000D01*
X123991714Y-88193619D01*
X124039333Y-88288857D01*
X124039333Y-88384095D01*
X123991714Y-88526952D01*
X123420285Y-89098380D01*
X124039333Y-89098380D01*
X124658380Y-88098380D02*
X124753619Y-88098380D01*
X124848857Y-88146000D01*
X124896476Y-88193619D01*
X124944095Y-88288857D01*
X124991714Y-88479333D01*
X124991714Y-88717428D01*
X124944095Y-88907904D01*
X124896476Y-89003142D01*
X124848857Y-89050761D01*
X124753619Y-89098380D01*
X124658380Y-89098380D01*
X124563142Y-89050761D01*
X124515523Y-89003142D01*
X124467904Y-88907904D01*
X124420285Y-88717428D01*
X124420285Y-88479333D01*
X124467904Y-88288857D01*
X124515523Y-88193619D01*
X124563142Y-88146000D01*
X124658380Y-88098380D01*
X125325047Y-88098380D02*
X125944095Y-88098380D01*
X125610761Y-88479333D01*
X125753619Y-88479333D01*
X125848857Y-88526952D01*
X125896476Y-88574571D01*
X125944095Y-88669809D01*
X125944095Y-88907904D01*
X125896476Y-89003142D01*
X125848857Y-89050761D01*
X125753619Y-89098380D01*
X125467904Y-89098380D01*
X125372666Y-89050761D01*
X125325047Y-89003142D01*
X115689095Y-88463380D02*
X115689095Y-87463380D01*
X116260523Y-88463380D02*
X115831952Y-87891952D01*
X116260523Y-87463380D02*
X115689095Y-88034809D01*
X122515523Y-95448380D02*
X122515523Y-94448380D01*
X122753619Y-94448380D01*
X122896476Y-94496000D01*
X122991714Y-94591238D01*
X123039333Y-94686476D01*
X123086952Y-94876952D01*
X123086952Y-95019809D01*
X123039333Y-95210285D01*
X122991714Y-95305523D01*
X122896476Y-95400761D01*
X122753619Y-95448380D01*
X122515523Y-95448380D01*
X123467904Y-94543619D02*
X123515523Y-94496000D01*
X123610761Y-94448380D01*
X123848857Y-94448380D01*
X123944095Y-94496000D01*
X123991714Y-94543619D01*
X124039333Y-94638857D01*
X124039333Y-94734095D01*
X123991714Y-94876952D01*
X123420285Y-95448380D01*
X124039333Y-95448380D01*
X124658380Y-94448380D02*
X124753619Y-94448380D01*
X124848857Y-94496000D01*
X124896476Y-94543619D01*
X124944095Y-94638857D01*
X124991714Y-94829333D01*
X124991714Y-95067428D01*
X124944095Y-95257904D01*
X124896476Y-95353142D01*
X124848857Y-95400761D01*
X124753619Y-95448380D01*
X124658380Y-95448380D01*
X124563142Y-95400761D01*
X124515523Y-95353142D01*
X124467904Y-95257904D01*
X124420285Y-95067428D01*
X124420285Y-94829333D01*
X124467904Y-94638857D01*
X124515523Y-94543619D01*
X124563142Y-94496000D01*
X124658380Y-94448380D01*
X125848857Y-94781714D02*
X125848857Y-95448380D01*
X125610761Y-94400761D02*
X125372666Y-95115047D01*
X125991714Y-95115047D01*
X115689095Y-94813380D02*
X115689095Y-93813380D01*
X116260523Y-94813380D02*
X115831952Y-94241952D01*
X116260523Y-93813380D02*
X115689095Y-94384809D01*
X122515523Y-101798380D02*
X122515523Y-100798380D01*
X122753619Y-100798380D01*
X122896476Y-100846000D01*
X122991714Y-100941238D01*
X123039333Y-101036476D01*
X123086952Y-101226952D01*
X123086952Y-101369809D01*
X123039333Y-101560285D01*
X122991714Y-101655523D01*
X122896476Y-101750761D01*
X122753619Y-101798380D01*
X122515523Y-101798380D01*
X123467904Y-100893619D02*
X123515523Y-100846000D01*
X123610761Y-100798380D01*
X123848857Y-100798380D01*
X123944095Y-100846000D01*
X123991714Y-100893619D01*
X124039333Y-100988857D01*
X124039333Y-101084095D01*
X123991714Y-101226952D01*
X123420285Y-101798380D01*
X124039333Y-101798380D01*
X124658380Y-100798380D02*
X124753619Y-100798380D01*
X124848857Y-100846000D01*
X124896476Y-100893619D01*
X124944095Y-100988857D01*
X124991714Y-101179333D01*
X124991714Y-101417428D01*
X124944095Y-101607904D01*
X124896476Y-101703142D01*
X124848857Y-101750761D01*
X124753619Y-101798380D01*
X124658380Y-101798380D01*
X124563142Y-101750761D01*
X124515523Y-101703142D01*
X124467904Y-101607904D01*
X124420285Y-101417428D01*
X124420285Y-101179333D01*
X124467904Y-100988857D01*
X124515523Y-100893619D01*
X124563142Y-100846000D01*
X124658380Y-100798380D01*
X125896476Y-100798380D02*
X125420285Y-100798380D01*
X125372666Y-101274571D01*
X125420285Y-101226952D01*
X125515523Y-101179333D01*
X125753619Y-101179333D01*
X125848857Y-101226952D01*
X125896476Y-101274571D01*
X125944095Y-101369809D01*
X125944095Y-101607904D01*
X125896476Y-101703142D01*
X125848857Y-101750761D01*
X125753619Y-101798380D01*
X125515523Y-101798380D01*
X125420285Y-101750761D01*
X125372666Y-101703142D01*
X115689095Y-101163380D02*
X115689095Y-100163380D01*
X116260523Y-101163380D02*
X115831952Y-100591952D01*
X116260523Y-100163380D02*
X115689095Y-100734809D01*
X122515523Y-108148380D02*
X122515523Y-107148380D01*
X122753619Y-107148380D01*
X122896476Y-107196000D01*
X122991714Y-107291238D01*
X123039333Y-107386476D01*
X123086952Y-107576952D01*
X123086952Y-107719809D01*
X123039333Y-107910285D01*
X122991714Y-108005523D01*
X122896476Y-108100761D01*
X122753619Y-108148380D01*
X122515523Y-108148380D01*
X123467904Y-107243619D02*
X123515523Y-107196000D01*
X123610761Y-107148380D01*
X123848857Y-107148380D01*
X123944095Y-107196000D01*
X123991714Y-107243619D01*
X124039333Y-107338857D01*
X124039333Y-107434095D01*
X123991714Y-107576952D01*
X123420285Y-108148380D01*
X124039333Y-108148380D01*
X124658380Y-107148380D02*
X124753619Y-107148380D01*
X124848857Y-107196000D01*
X124896476Y-107243619D01*
X124944095Y-107338857D01*
X124991714Y-107529333D01*
X124991714Y-107767428D01*
X124944095Y-107957904D01*
X124896476Y-108053142D01*
X124848857Y-108100761D01*
X124753619Y-108148380D01*
X124658380Y-108148380D01*
X124563142Y-108100761D01*
X124515523Y-108053142D01*
X124467904Y-107957904D01*
X124420285Y-107767428D01*
X124420285Y-107529333D01*
X124467904Y-107338857D01*
X124515523Y-107243619D01*
X124563142Y-107196000D01*
X124658380Y-107148380D01*
X125848857Y-107148380D02*
X125658380Y-107148380D01*
X125563142Y-107196000D01*
X125515523Y-107243619D01*
X125420285Y-107386476D01*
X125372666Y-107576952D01*
X125372666Y-107957904D01*
X125420285Y-108053142D01*
X125467904Y-108100761D01*
X125563142Y-108148380D01*
X125753619Y-108148380D01*
X125848857Y-108100761D01*
X125896476Y-108053142D01*
X125944095Y-107957904D01*
X125944095Y-107719809D01*
X125896476Y-107624571D01*
X125848857Y-107576952D01*
X125753619Y-107529333D01*
X125563142Y-107529333D01*
X125467904Y-107576952D01*
X125420285Y-107624571D01*
X125372666Y-107719809D01*
X115689095Y-107513380D02*
X115689095Y-106513380D01*
X116260523Y-107513380D02*
X115831952Y-106941952D01*
X116260523Y-106513380D02*
X115689095Y-107084809D01*
X122515523Y-114498380D02*
X122515523Y-113498380D01*
X122753619Y-113498380D01*
X122896476Y-113546000D01*
X122991714Y-113641238D01*
X123039333Y-113736476D01*
X123086952Y-113926952D01*
X123086952Y-114069809D01*
X123039333Y-114260285D01*
X122991714Y-114355523D01*
X122896476Y-114450761D01*
X122753619Y-114498380D01*
X122515523Y-114498380D01*
X123467904Y-113593619D02*
X123515523Y-113546000D01*
X123610761Y-113498380D01*
X123848857Y-113498380D01*
X123944095Y-113546000D01*
X123991714Y-113593619D01*
X124039333Y-113688857D01*
X124039333Y-113784095D01*
X123991714Y-113926952D01*
X123420285Y-114498380D01*
X124039333Y-114498380D01*
X124658380Y-113498380D02*
X124753619Y-113498380D01*
X124848857Y-113546000D01*
X124896476Y-113593619D01*
X124944095Y-113688857D01*
X124991714Y-113879333D01*
X124991714Y-114117428D01*
X124944095Y-114307904D01*
X124896476Y-114403142D01*
X124848857Y-114450761D01*
X124753619Y-114498380D01*
X124658380Y-114498380D01*
X124563142Y-114450761D01*
X124515523Y-114403142D01*
X124467904Y-114307904D01*
X124420285Y-114117428D01*
X124420285Y-113879333D01*
X124467904Y-113688857D01*
X124515523Y-113593619D01*
X124563142Y-113546000D01*
X124658380Y-113498380D01*
X125325047Y-113498380D02*
X125991714Y-113498380D01*
X125563142Y-114498380D01*
X115689095Y-113863380D02*
X115689095Y-112863380D01*
X116260523Y-113863380D02*
X115831952Y-113291952D01*
X116260523Y-112863380D02*
X115689095Y-113434809D01*
X122515523Y-120848380D02*
X122515523Y-119848380D01*
X122753619Y-119848380D01*
X122896476Y-119896000D01*
X122991714Y-119991238D01*
X123039333Y-120086476D01*
X123086952Y-120276952D01*
X123086952Y-120419809D01*
X123039333Y-120610285D01*
X122991714Y-120705523D01*
X122896476Y-120800761D01*
X122753619Y-120848380D01*
X122515523Y-120848380D01*
X123467904Y-119943619D02*
X123515523Y-119896000D01*
X123610761Y-119848380D01*
X123848857Y-119848380D01*
X123944095Y-119896000D01*
X123991714Y-119943619D01*
X124039333Y-120038857D01*
X124039333Y-120134095D01*
X123991714Y-120276952D01*
X123420285Y-120848380D01*
X124039333Y-120848380D01*
X124658380Y-119848380D02*
X124753619Y-119848380D01*
X124848857Y-119896000D01*
X124896476Y-119943619D01*
X124944095Y-120038857D01*
X124991714Y-120229333D01*
X124991714Y-120467428D01*
X124944095Y-120657904D01*
X124896476Y-120753142D01*
X124848857Y-120800761D01*
X124753619Y-120848380D01*
X124658380Y-120848380D01*
X124563142Y-120800761D01*
X124515523Y-120753142D01*
X124467904Y-120657904D01*
X124420285Y-120467428D01*
X124420285Y-120229333D01*
X124467904Y-120038857D01*
X124515523Y-119943619D01*
X124563142Y-119896000D01*
X124658380Y-119848380D01*
X125563142Y-120276952D02*
X125467904Y-120229333D01*
X125420285Y-120181714D01*
X125372666Y-120086476D01*
X125372666Y-120038857D01*
X125420285Y-119943619D01*
X125467904Y-119896000D01*
X125563142Y-119848380D01*
X125753619Y-119848380D01*
X125848857Y-119896000D01*
X125896476Y-119943619D01*
X125944095Y-120038857D01*
X125944095Y-120086476D01*
X125896476Y-120181714D01*
X125848857Y-120229333D01*
X125753619Y-120276952D01*
X125563142Y-120276952D01*
X125467904Y-120324571D01*
X125420285Y-120372190D01*
X125372666Y-120467428D01*
X125372666Y-120657904D01*
X125420285Y-120753142D01*
X125467904Y-120800761D01*
X125563142Y-120848380D01*
X125753619Y-120848380D01*
X125848857Y-120800761D01*
X125896476Y-120753142D01*
X125944095Y-120657904D01*
X125944095Y-120467428D01*
X125896476Y-120372190D01*
X125848857Y-120324571D01*
X125753619Y-120276952D01*
X115689095Y-120213380D02*
X115689095Y-119213380D01*
X116260523Y-120213380D02*
X115831952Y-119641952D01*
X116260523Y-119213380D02*
X115689095Y-119784809D01*
X112609523Y-122372380D02*
X112609523Y-121372380D01*
X112847619Y-121372380D01*
X112990476Y-121420000D01*
X113085714Y-121515238D01*
X113133333Y-121610476D01*
X113180952Y-121800952D01*
X113180952Y-121943809D01*
X113133333Y-122134285D01*
X113085714Y-122229523D01*
X112990476Y-122324761D01*
X112847619Y-122372380D01*
X112609523Y-122372380D01*
X113561904Y-121467619D02*
X113609523Y-121420000D01*
X113704761Y-121372380D01*
X113942857Y-121372380D01*
X114038095Y-121420000D01*
X114085714Y-121467619D01*
X114133333Y-121562857D01*
X114133333Y-121658095D01*
X114085714Y-121800952D01*
X113514285Y-122372380D01*
X114133333Y-122372380D01*
X114752380Y-121372380D02*
X114847619Y-121372380D01*
X114942857Y-121420000D01*
X114990476Y-121467619D01*
X115038095Y-121562857D01*
X115085714Y-121753333D01*
X115085714Y-121991428D01*
X115038095Y-122181904D01*
X114990476Y-122277142D01*
X114942857Y-122324761D01*
X114847619Y-122372380D01*
X114752380Y-122372380D01*
X114657142Y-122324761D01*
X114609523Y-122277142D01*
X114561904Y-122181904D01*
X114514285Y-121991428D01*
X114514285Y-121753333D01*
X114561904Y-121562857D01*
X114609523Y-121467619D01*
X114657142Y-121420000D01*
X114752380Y-121372380D01*
X115561904Y-122372380D02*
X115752380Y-122372380D01*
X115847619Y-122324761D01*
X115895238Y-122277142D01*
X115990476Y-122134285D01*
X116038095Y-121943809D01*
X116038095Y-121562857D01*
X115990476Y-121467619D01*
X115942857Y-121420000D01*
X115847619Y-121372380D01*
X115657142Y-121372380D01*
X115561904Y-121420000D01*
X115514285Y-121467619D01*
X115466666Y-121562857D01*
X115466666Y-121800952D01*
X115514285Y-121896190D01*
X115561904Y-121943809D01*
X115657142Y-121991428D01*
X115847619Y-121991428D01*
X115942857Y-121943809D01*
X115990476Y-121896190D01*
X116038095Y-121800952D01*
X115689095Y-126563380D02*
X115689095Y-125563380D01*
X116260523Y-126563380D02*
X115831952Y-125991952D01*
X116260523Y-125563380D02*
X115689095Y-126134809D01*
X144980920Y-114773816D02*
X143980920Y-114773816D01*
X143980920Y-114535720D01*
X144028540Y-114392863D01*
X144123778Y-114297625D01*
X144219016Y-114250006D01*
X144409492Y-114202387D01*
X144552349Y-114202387D01*
X144742825Y-114250006D01*
X144838063Y-114297625D01*
X144933301Y-114392863D01*
X144980920Y-114535720D01*
X144980920Y-114773816D01*
X144076159Y-113821435D02*
X144028540Y-113773816D01*
X143980920Y-113678578D01*
X143980920Y-113440482D01*
X144028540Y-113345244D01*
X144076159Y-113297625D01*
X144171397Y-113250006D01*
X144266635Y-113250006D01*
X144409492Y-113297625D01*
X144980920Y-113869054D01*
X144980920Y-113250006D01*
X144980920Y-112297625D02*
X144980920Y-112869054D01*
X144980920Y-112583340D02*
X143980920Y-112583340D01*
X144123778Y-112678578D01*
X144219016Y-112773816D01*
X144266635Y-112869054D01*
X143980920Y-111678578D02*
X143980920Y-111583340D01*
X144028540Y-111488101D01*
X144076159Y-111440482D01*
X144171397Y-111392863D01*
X144361873Y-111345244D01*
X144599968Y-111345244D01*
X144790444Y-111392863D01*
X144885682Y-111440482D01*
X144933301Y-111488101D01*
X144980920Y-111583340D01*
X144980920Y-111678578D01*
X144933301Y-111773816D01*
X144885682Y-111821435D01*
X144790444Y-111869054D01*
X144599968Y-111916673D01*
X144361873Y-111916673D01*
X144171397Y-111869054D01*
X144076159Y-111821435D01*
X144028540Y-111773816D01*
X143980920Y-111678578D01*
X150055840Y-98919136D02*
X149055840Y-98919136D01*
X149055840Y-98681040D01*
X149103460Y-98538183D01*
X149198698Y-98442945D01*
X149293936Y-98395326D01*
X149484412Y-98347707D01*
X149627269Y-98347707D01*
X149817745Y-98395326D01*
X149912983Y-98442945D01*
X150008221Y-98538183D01*
X150055840Y-98681040D01*
X150055840Y-98919136D01*
X149151079Y-97966755D02*
X149103460Y-97919136D01*
X149055840Y-97823898D01*
X149055840Y-97585802D01*
X149103460Y-97490564D01*
X149151079Y-97442945D01*
X149246317Y-97395326D01*
X149341555Y-97395326D01*
X149484412Y-97442945D01*
X150055840Y-98014374D01*
X150055840Y-97395326D01*
X150055840Y-96442945D02*
X150055840Y-97014374D01*
X150055840Y-96728660D02*
X149055840Y-96728660D01*
X149198698Y-96823898D01*
X149293936Y-96919136D01*
X149341555Y-97014374D01*
X150055840Y-95490564D02*
X150055840Y-96061993D01*
X150055840Y-95776279D02*
X149055840Y-95776279D01*
X149198698Y-95871517D01*
X149293936Y-95966755D01*
X149341555Y-96061993D01*
X128865523Y-66238380D02*
X128865523Y-65238380D01*
X129103619Y-65238380D01*
X129246476Y-65286000D01*
X129341714Y-65381238D01*
X129389333Y-65476476D01*
X129436952Y-65666952D01*
X129436952Y-65809809D01*
X129389333Y-66000285D01*
X129341714Y-66095523D01*
X129246476Y-66190761D01*
X129103619Y-66238380D01*
X128865523Y-66238380D01*
X129817904Y-65333619D02*
X129865523Y-65286000D01*
X129960761Y-65238380D01*
X130198857Y-65238380D01*
X130294095Y-65286000D01*
X130341714Y-65333619D01*
X130389333Y-65428857D01*
X130389333Y-65524095D01*
X130341714Y-65666952D01*
X129770285Y-66238380D01*
X130389333Y-66238380D01*
X131341714Y-66238380D02*
X130770285Y-66238380D01*
X131056000Y-66238380D02*
X131056000Y-65238380D01*
X130960761Y-65381238D01*
X130865523Y-65476476D01*
X130770285Y-65524095D01*
X131722666Y-65333619D02*
X131770285Y-65286000D01*
X131865523Y-65238380D01*
X132103619Y-65238380D01*
X132198857Y-65286000D01*
X132246476Y-65333619D01*
X132294095Y-65428857D01*
X132294095Y-65524095D01*
X132246476Y-65666952D01*
X131675047Y-66238380D01*
X132294095Y-66238380D01*
X108148380Y-124626476D02*
X107148380Y-124626476D01*
X107148380Y-124245523D01*
X107196000Y-124150285D01*
X107243619Y-124102666D01*
X107338857Y-124055047D01*
X107481714Y-124055047D01*
X107576952Y-124102666D01*
X107624571Y-124150285D01*
X107672190Y-124245523D01*
X107672190Y-124626476D01*
X107243619Y-123674095D02*
X107196000Y-123626476D01*
X107148380Y-123531238D01*
X107148380Y-123293142D01*
X107196000Y-123197904D01*
X107243619Y-123150285D01*
X107338857Y-123102666D01*
X107434095Y-123102666D01*
X107576952Y-123150285D01*
X108148380Y-123721714D01*
X108148380Y-123102666D01*
X107148380Y-122483619D02*
X107148380Y-122388380D01*
X107196000Y-122293142D01*
X107243619Y-122245523D01*
X107338857Y-122197904D01*
X107529333Y-122150285D01*
X107767428Y-122150285D01*
X107957904Y-122197904D01*
X108053142Y-122245523D01*
X108100761Y-122293142D01*
X108148380Y-122388380D01*
X108148380Y-122483619D01*
X108100761Y-122578857D01*
X108053142Y-122626476D01*
X107957904Y-122674095D01*
X107767428Y-122721714D01*
X107529333Y-122721714D01*
X107338857Y-122674095D01*
X107243619Y-122626476D01*
X107196000Y-122578857D01*
X107148380Y-122483619D01*
X108148380Y-121197904D02*
X108148380Y-121769333D01*
X108148380Y-121483619D02*
X107148380Y-121483619D01*
X107291238Y-121578857D01*
X107386476Y-121674095D01*
X107434095Y-121769333D01*
X147264380Y-125642476D02*
X146264380Y-125642476D01*
X146264380Y-125261523D01*
X146312000Y-125166285D01*
X146359619Y-125118666D01*
X146454857Y-125071047D01*
X146597714Y-125071047D01*
X146692952Y-125118666D01*
X146740571Y-125166285D01*
X146788190Y-125261523D01*
X146788190Y-125642476D01*
X146359619Y-124690095D02*
X146312000Y-124642476D01*
X146264380Y-124547238D01*
X146264380Y-124309142D01*
X146312000Y-124213904D01*
X146359619Y-124166285D01*
X146454857Y-124118666D01*
X146550095Y-124118666D01*
X146692952Y-124166285D01*
X147264380Y-124737714D01*
X147264380Y-124118666D01*
X146264380Y-123499619D02*
X146264380Y-123404380D01*
X146312000Y-123309142D01*
X146359619Y-123261523D01*
X146454857Y-123213904D01*
X146645333Y-123166285D01*
X146883428Y-123166285D01*
X147073904Y-123213904D01*
X147169142Y-123261523D01*
X147216761Y-123309142D01*
X147264380Y-123404380D01*
X147264380Y-123499619D01*
X147216761Y-123594857D01*
X147169142Y-123642476D01*
X147073904Y-123690095D01*
X146883428Y-123737714D01*
X146645333Y-123737714D01*
X146454857Y-123690095D01*
X146359619Y-123642476D01*
X146312000Y-123594857D01*
X146264380Y-123499619D01*
X146359619Y-122785333D02*
X146312000Y-122737714D01*
X146264380Y-122642476D01*
X146264380Y-122404380D01*
X146312000Y-122309142D01*
X146359619Y-122261523D01*
X146454857Y-122213904D01*
X146550095Y-122213904D01*
X146692952Y-122261523D01*
X147264380Y-122832952D01*
X147264380Y-122213904D01*
X108545523Y-77668380D02*
X108545523Y-76668380D01*
X108926476Y-76668380D01*
X109021714Y-76716000D01*
X109069333Y-76763619D01*
X109116952Y-76858857D01*
X109116952Y-77001714D01*
X109069333Y-77096952D01*
X109021714Y-77144571D01*
X108926476Y-77192190D01*
X108545523Y-77192190D01*
X109497904Y-76763619D02*
X109545523Y-76716000D01*
X109640761Y-76668380D01*
X109878857Y-76668380D01*
X109974095Y-76716000D01*
X110021714Y-76763619D01*
X110069333Y-76858857D01*
X110069333Y-76954095D01*
X110021714Y-77096952D01*
X109450285Y-77668380D01*
X110069333Y-77668380D01*
X110688380Y-76668380D02*
X110783619Y-76668380D01*
X110878857Y-76716000D01*
X110926476Y-76763619D01*
X110974095Y-76858857D01*
X111021714Y-77049333D01*
X111021714Y-77287428D01*
X110974095Y-77477904D01*
X110926476Y-77573142D01*
X110878857Y-77620761D01*
X110783619Y-77668380D01*
X110688380Y-77668380D01*
X110593142Y-77620761D01*
X110545523Y-77573142D01*
X110497904Y-77477904D01*
X110450285Y-77287428D01*
X110450285Y-77049333D01*
X110497904Y-76858857D01*
X110545523Y-76763619D01*
X110593142Y-76716000D01*
X110688380Y-76668380D01*
X111355047Y-76668380D02*
X111974095Y-76668380D01*
X111640761Y-77049333D01*
X111783619Y-77049333D01*
X111878857Y-77096952D01*
X111926476Y-77144571D01*
X111974095Y-77239809D01*
X111974095Y-77477904D01*
X111926476Y-77573142D01*
X111878857Y-77620761D01*
X111783619Y-77668380D01*
X111497904Y-77668380D01*
X111402666Y-77620761D01*
X111355047Y-77573142D01*
X108148380Y-100496476D02*
X107148380Y-100496476D01*
X107148380Y-100115523D01*
X107196000Y-100020285D01*
X107243619Y-99972666D01*
X107338857Y-99925047D01*
X107481714Y-99925047D01*
X107576952Y-99972666D01*
X107624571Y-100020285D01*
X107672190Y-100115523D01*
X107672190Y-100496476D01*
X107243619Y-99544095D02*
X107196000Y-99496476D01*
X107148380Y-99401238D01*
X107148380Y-99163142D01*
X107196000Y-99067904D01*
X107243619Y-99020285D01*
X107338857Y-98972666D01*
X107434095Y-98972666D01*
X107576952Y-99020285D01*
X108148380Y-99591714D01*
X108148380Y-98972666D01*
X107148380Y-98353619D02*
X107148380Y-98258380D01*
X107196000Y-98163142D01*
X107243619Y-98115523D01*
X107338857Y-98067904D01*
X107529333Y-98020285D01*
X107767428Y-98020285D01*
X107957904Y-98067904D01*
X108053142Y-98115523D01*
X108100761Y-98163142D01*
X108148380Y-98258380D01*
X108148380Y-98353619D01*
X108100761Y-98448857D01*
X108053142Y-98496476D01*
X107957904Y-98544095D01*
X107767428Y-98591714D01*
X107529333Y-98591714D01*
X107338857Y-98544095D01*
X107243619Y-98496476D01*
X107196000Y-98448857D01*
X107148380Y-98353619D01*
X107481714Y-97163142D02*
X108148380Y-97163142D01*
X107100761Y-97401238D02*
X107815047Y-97639333D01*
X107815047Y-97020285D01*
X139025523Y-127452380D02*
X139025523Y-126452380D01*
X139406476Y-126452380D01*
X139501714Y-126500000D01*
X139549333Y-126547619D01*
X139596952Y-126642857D01*
X139596952Y-126785714D01*
X139549333Y-126880952D01*
X139501714Y-126928571D01*
X139406476Y-126976190D01*
X139025523Y-126976190D01*
X139977904Y-126547619D02*
X140025523Y-126500000D01*
X140120761Y-126452380D01*
X140358857Y-126452380D01*
X140454095Y-126500000D01*
X140501714Y-126547619D01*
X140549333Y-126642857D01*
X140549333Y-126738095D01*
X140501714Y-126880952D01*
X139930285Y-127452380D01*
X140549333Y-127452380D01*
X141168380Y-126452380D02*
X141263619Y-126452380D01*
X141358857Y-126500000D01*
X141406476Y-126547619D01*
X141454095Y-126642857D01*
X141501714Y-126833333D01*
X141501714Y-127071428D01*
X141454095Y-127261904D01*
X141406476Y-127357142D01*
X141358857Y-127404761D01*
X141263619Y-127452380D01*
X141168380Y-127452380D01*
X141073142Y-127404761D01*
X141025523Y-127357142D01*
X140977904Y-127261904D01*
X140930285Y-127071428D01*
X140930285Y-126833333D01*
X140977904Y-126642857D01*
X141025523Y-126547619D01*
X141073142Y-126500000D01*
X141168380Y-126452380D01*
X142358857Y-126452380D02*
X142168380Y-126452380D01*
X142073142Y-126500000D01*
X142025523Y-126547619D01*
X141930285Y-126690476D01*
X141882666Y-126880952D01*
X141882666Y-127261904D01*
X141930285Y-127357142D01*
X141977904Y-127404761D01*
X142073142Y-127452380D01*
X142263619Y-127452380D01*
X142358857Y-127404761D01*
X142406476Y-127357142D01*
X142454095Y-127261904D01*
X142454095Y-127023809D01*
X142406476Y-126928571D01*
X142358857Y-126880952D01*
X142263619Y-126833333D01*
X142073142Y-126833333D01*
X141977904Y-126880952D01*
X141930285Y-126928571D01*
X141882666Y-127023809D01*
X108148380Y-114466476D02*
X107148380Y-114466476D01*
X107148380Y-114085523D01*
X107196000Y-113990285D01*
X107243619Y-113942666D01*
X107338857Y-113895047D01*
X107481714Y-113895047D01*
X107576952Y-113942666D01*
X107624571Y-113990285D01*
X107672190Y-114085523D01*
X107672190Y-114466476D01*
X107243619Y-113514095D02*
X107196000Y-113466476D01*
X107148380Y-113371238D01*
X107148380Y-113133142D01*
X107196000Y-113037904D01*
X107243619Y-112990285D01*
X107338857Y-112942666D01*
X107434095Y-112942666D01*
X107576952Y-112990285D01*
X108148380Y-113561714D01*
X108148380Y-112942666D01*
X107148380Y-112323619D02*
X107148380Y-112228380D01*
X107196000Y-112133142D01*
X107243619Y-112085523D01*
X107338857Y-112037904D01*
X107529333Y-111990285D01*
X107767428Y-111990285D01*
X107957904Y-112037904D01*
X108053142Y-112085523D01*
X108100761Y-112133142D01*
X108148380Y-112228380D01*
X108148380Y-112323619D01*
X108100761Y-112418857D01*
X108053142Y-112466476D01*
X107957904Y-112514095D01*
X107767428Y-112561714D01*
X107529333Y-112561714D01*
X107338857Y-112514095D01*
X107243619Y-112466476D01*
X107196000Y-112418857D01*
X107148380Y-112323619D01*
X107148380Y-111656952D02*
X107148380Y-110990285D01*
X108148380Y-111418857D01*
X123785523Y-127452380D02*
X123785523Y-126452380D01*
X124166476Y-126452380D01*
X124261714Y-126500000D01*
X124309333Y-126547619D01*
X124356952Y-126642857D01*
X124356952Y-126785714D01*
X124309333Y-126880952D01*
X124261714Y-126928571D01*
X124166476Y-126976190D01*
X123785523Y-126976190D01*
X124737904Y-126547619D02*
X124785523Y-126500000D01*
X124880761Y-126452380D01*
X125118857Y-126452380D01*
X125214095Y-126500000D01*
X125261714Y-126547619D01*
X125309333Y-126642857D01*
X125309333Y-126738095D01*
X125261714Y-126880952D01*
X124690285Y-127452380D01*
X125309333Y-127452380D01*
X125928380Y-126452380D02*
X126023619Y-126452380D01*
X126118857Y-126500000D01*
X126166476Y-126547619D01*
X126214095Y-126642857D01*
X126261714Y-126833333D01*
X126261714Y-127071428D01*
X126214095Y-127261904D01*
X126166476Y-127357142D01*
X126118857Y-127404761D01*
X126023619Y-127452380D01*
X125928380Y-127452380D01*
X125833142Y-127404761D01*
X125785523Y-127357142D01*
X125737904Y-127261904D01*
X125690285Y-127071428D01*
X125690285Y-126833333D01*
X125737904Y-126642857D01*
X125785523Y-126547619D01*
X125833142Y-126500000D01*
X125928380Y-126452380D01*
X126833142Y-126880952D02*
X126737904Y-126833333D01*
X126690285Y-126785714D01*
X126642666Y-126690476D01*
X126642666Y-126642857D01*
X126690285Y-126547619D01*
X126737904Y-126500000D01*
X126833142Y-126452380D01*
X127023619Y-126452380D01*
X127118857Y-126500000D01*
X127166476Y-126547619D01*
X127214095Y-126642857D01*
X127214095Y-126690476D01*
X127166476Y-126785714D01*
X127118857Y-126833333D01*
X127023619Y-126880952D01*
X126833142Y-126880952D01*
X126737904Y-126928571D01*
X126690285Y-126976190D01*
X126642666Y-127071428D01*
X126642666Y-127261904D01*
X126690285Y-127357142D01*
X126737904Y-127404761D01*
X126833142Y-127452380D01*
X127023619Y-127452380D01*
X127118857Y-127404761D01*
X127166476Y-127357142D01*
X127214095Y-127261904D01*
X127214095Y-127071428D01*
X127166476Y-126976190D01*
X127118857Y-126928571D01*
X127023619Y-126880952D01*
X129881523Y-127452380D02*
X129881523Y-126452380D01*
X130262476Y-126452380D01*
X130357714Y-126500000D01*
X130405333Y-126547619D01*
X130452952Y-126642857D01*
X130452952Y-126785714D01*
X130405333Y-126880952D01*
X130357714Y-126928571D01*
X130262476Y-126976190D01*
X129881523Y-126976190D01*
X130833904Y-126547619D02*
X130881523Y-126500000D01*
X130976761Y-126452380D01*
X131214857Y-126452380D01*
X131310095Y-126500000D01*
X131357714Y-126547619D01*
X131405333Y-126642857D01*
X131405333Y-126738095D01*
X131357714Y-126880952D01*
X130786285Y-127452380D01*
X131405333Y-127452380D01*
X132024380Y-126452380D02*
X132119619Y-126452380D01*
X132214857Y-126500000D01*
X132262476Y-126547619D01*
X132310095Y-126642857D01*
X132357714Y-126833333D01*
X132357714Y-127071428D01*
X132310095Y-127261904D01*
X132262476Y-127357142D01*
X132214857Y-127404761D01*
X132119619Y-127452380D01*
X132024380Y-127452380D01*
X131929142Y-127404761D01*
X131881523Y-127357142D01*
X131833904Y-127261904D01*
X131786285Y-127071428D01*
X131786285Y-126833333D01*
X131833904Y-126642857D01*
X131881523Y-126547619D01*
X131929142Y-126500000D01*
X132024380Y-126452380D01*
X132833904Y-127452380D02*
X133024380Y-127452380D01*
X133119619Y-127404761D01*
X133167238Y-127357142D01*
X133262476Y-127214285D01*
X133310095Y-127023809D01*
X133310095Y-126642857D01*
X133262476Y-126547619D01*
X133214857Y-126500000D01*
X133119619Y-126452380D01*
X132929142Y-126452380D01*
X132833904Y-126500000D01*
X132786285Y-126547619D01*
X132738666Y-126642857D01*
X132738666Y-126880952D01*
X132786285Y-126976190D01*
X132833904Y-127023809D01*
X132929142Y-127071428D01*
X133119619Y-127071428D01*
X133214857Y-127023809D01*
X133262476Y-126976190D01*
X133310095Y-126880952D01*
X131976952Y-68778380D02*
X131643619Y-68302190D01*
X131405523Y-68778380D02*
X131405523Y-67778380D01*
X131786476Y-67778380D01*
X131881714Y-67826000D01*
X131929333Y-67873619D01*
X131976952Y-67968857D01*
X131976952Y-68111714D01*
X131929333Y-68206952D01*
X131881714Y-68254571D01*
X131786476Y-68302190D01*
X131405523Y-68302190D01*
X132357904Y-67873619D02*
X132405523Y-67826000D01*
X132500761Y-67778380D01*
X132738857Y-67778380D01*
X132834095Y-67826000D01*
X132881714Y-67873619D01*
X132929333Y-67968857D01*
X132929333Y-68064095D01*
X132881714Y-68206952D01*
X132310285Y-68778380D01*
X132929333Y-68778380D01*
X133548380Y-67778380D02*
X133643619Y-67778380D01*
X133738857Y-67826000D01*
X133786476Y-67873619D01*
X133834095Y-67968857D01*
X133881714Y-68159333D01*
X133881714Y-68397428D01*
X133834095Y-68587904D01*
X133786476Y-68683142D01*
X133738857Y-68730761D01*
X133643619Y-68778380D01*
X133548380Y-68778380D01*
X133453142Y-68730761D01*
X133405523Y-68683142D01*
X133357904Y-68587904D01*
X133310285Y-68397428D01*
X133310285Y-68159333D01*
X133357904Y-67968857D01*
X133405523Y-67873619D01*
X133453142Y-67826000D01*
X133548380Y-67778380D01*
X134834095Y-68778380D02*
X134262666Y-68778380D01*
X134548380Y-68778380D02*
X134548380Y-67778380D01*
X134453142Y-67921238D01*
X134357904Y-68016476D01*
X134262666Y-68064095D01*
X131976952Y-80208380D02*
X131643619Y-79732190D01*
X131405523Y-80208380D02*
X131405523Y-79208380D01*
X131786476Y-79208380D01*
X131881714Y-79256000D01*
X131929333Y-79303619D01*
X131976952Y-79398857D01*
X131976952Y-79541714D01*
X131929333Y-79636952D01*
X131881714Y-79684571D01*
X131786476Y-79732190D01*
X131405523Y-79732190D01*
X132357904Y-79303619D02*
X132405523Y-79256000D01*
X132500761Y-79208380D01*
X132738857Y-79208380D01*
X132834095Y-79256000D01*
X132881714Y-79303619D01*
X132929333Y-79398857D01*
X132929333Y-79494095D01*
X132881714Y-79636952D01*
X132310285Y-80208380D01*
X132929333Y-80208380D01*
X133548380Y-79208380D02*
X133643619Y-79208380D01*
X133738857Y-79256000D01*
X133786476Y-79303619D01*
X133834095Y-79398857D01*
X133881714Y-79589333D01*
X133881714Y-79827428D01*
X133834095Y-80017904D01*
X133786476Y-80113142D01*
X133738857Y-80160761D01*
X133643619Y-80208380D01*
X133548380Y-80208380D01*
X133453142Y-80160761D01*
X133405523Y-80113142D01*
X133357904Y-80017904D01*
X133310285Y-79827428D01*
X133310285Y-79589333D01*
X133357904Y-79398857D01*
X133405523Y-79303619D01*
X133453142Y-79256000D01*
X133548380Y-79208380D01*
X134262666Y-79303619D02*
X134310285Y-79256000D01*
X134405523Y-79208380D01*
X134643619Y-79208380D01*
X134738857Y-79256000D01*
X134786476Y-79303619D01*
X134834095Y-79398857D01*
X134834095Y-79494095D01*
X134786476Y-79636952D01*
X134215047Y-80208380D01*
X134834095Y-80208380D01*
X131976952Y-86558380D02*
X131643619Y-86082190D01*
X131405523Y-86558380D02*
X131405523Y-85558380D01*
X131786476Y-85558380D01*
X131881714Y-85606000D01*
X131929333Y-85653619D01*
X131976952Y-85748857D01*
X131976952Y-85891714D01*
X131929333Y-85986952D01*
X131881714Y-86034571D01*
X131786476Y-86082190D01*
X131405523Y-86082190D01*
X132357904Y-85653619D02*
X132405523Y-85606000D01*
X132500761Y-85558380D01*
X132738857Y-85558380D01*
X132834095Y-85606000D01*
X132881714Y-85653619D01*
X132929333Y-85748857D01*
X132929333Y-85844095D01*
X132881714Y-85986952D01*
X132310285Y-86558380D01*
X132929333Y-86558380D01*
X133548380Y-85558380D02*
X133643619Y-85558380D01*
X133738857Y-85606000D01*
X133786476Y-85653619D01*
X133834095Y-85748857D01*
X133881714Y-85939333D01*
X133881714Y-86177428D01*
X133834095Y-86367904D01*
X133786476Y-86463142D01*
X133738857Y-86510761D01*
X133643619Y-86558380D01*
X133548380Y-86558380D01*
X133453142Y-86510761D01*
X133405523Y-86463142D01*
X133357904Y-86367904D01*
X133310285Y-86177428D01*
X133310285Y-85939333D01*
X133357904Y-85748857D01*
X133405523Y-85653619D01*
X133453142Y-85606000D01*
X133548380Y-85558380D01*
X134215047Y-85558380D02*
X134834095Y-85558380D01*
X134500761Y-85939333D01*
X134643619Y-85939333D01*
X134738857Y-85986952D01*
X134786476Y-86034571D01*
X134834095Y-86129809D01*
X134834095Y-86367904D01*
X134786476Y-86463142D01*
X134738857Y-86510761D01*
X134643619Y-86558380D01*
X134357904Y-86558380D01*
X134262666Y-86510761D01*
X134215047Y-86463142D01*
X131976952Y-92908380D02*
X131643619Y-92432190D01*
X131405523Y-92908380D02*
X131405523Y-91908380D01*
X131786476Y-91908380D01*
X131881714Y-91956000D01*
X131929333Y-92003619D01*
X131976952Y-92098857D01*
X131976952Y-92241714D01*
X131929333Y-92336952D01*
X131881714Y-92384571D01*
X131786476Y-92432190D01*
X131405523Y-92432190D01*
X132357904Y-92003619D02*
X132405523Y-91956000D01*
X132500761Y-91908380D01*
X132738857Y-91908380D01*
X132834095Y-91956000D01*
X132881714Y-92003619D01*
X132929333Y-92098857D01*
X132929333Y-92194095D01*
X132881714Y-92336952D01*
X132310285Y-92908380D01*
X132929333Y-92908380D01*
X133548380Y-91908380D02*
X133643619Y-91908380D01*
X133738857Y-91956000D01*
X133786476Y-92003619D01*
X133834095Y-92098857D01*
X133881714Y-92289333D01*
X133881714Y-92527428D01*
X133834095Y-92717904D01*
X133786476Y-92813142D01*
X133738857Y-92860761D01*
X133643619Y-92908380D01*
X133548380Y-92908380D01*
X133453142Y-92860761D01*
X133405523Y-92813142D01*
X133357904Y-92717904D01*
X133310285Y-92527428D01*
X133310285Y-92289333D01*
X133357904Y-92098857D01*
X133405523Y-92003619D01*
X133453142Y-91956000D01*
X133548380Y-91908380D01*
X134738857Y-92241714D02*
X134738857Y-92908380D01*
X134500761Y-91860761D02*
X134262666Y-92575047D01*
X134881714Y-92575047D01*
X131976952Y-99258380D02*
X131643619Y-98782190D01*
X131405523Y-99258380D02*
X131405523Y-98258380D01*
X131786476Y-98258380D01*
X131881714Y-98306000D01*
X131929333Y-98353619D01*
X131976952Y-98448857D01*
X131976952Y-98591714D01*
X131929333Y-98686952D01*
X131881714Y-98734571D01*
X131786476Y-98782190D01*
X131405523Y-98782190D01*
X132357904Y-98353619D02*
X132405523Y-98306000D01*
X132500761Y-98258380D01*
X132738857Y-98258380D01*
X132834095Y-98306000D01*
X132881714Y-98353619D01*
X132929333Y-98448857D01*
X132929333Y-98544095D01*
X132881714Y-98686952D01*
X132310285Y-99258380D01*
X132929333Y-99258380D01*
X133548380Y-98258380D02*
X133643619Y-98258380D01*
X133738857Y-98306000D01*
X133786476Y-98353619D01*
X133834095Y-98448857D01*
X133881714Y-98639333D01*
X133881714Y-98877428D01*
X133834095Y-99067904D01*
X133786476Y-99163142D01*
X133738857Y-99210761D01*
X133643619Y-99258380D01*
X133548380Y-99258380D01*
X133453142Y-99210761D01*
X133405523Y-99163142D01*
X133357904Y-99067904D01*
X133310285Y-98877428D01*
X133310285Y-98639333D01*
X133357904Y-98448857D01*
X133405523Y-98353619D01*
X133453142Y-98306000D01*
X133548380Y-98258380D01*
X134786476Y-98258380D02*
X134310285Y-98258380D01*
X134262666Y-98734571D01*
X134310285Y-98686952D01*
X134405523Y-98639333D01*
X134643619Y-98639333D01*
X134738857Y-98686952D01*
X134786476Y-98734571D01*
X134834095Y-98829809D01*
X134834095Y-99067904D01*
X134786476Y-99163142D01*
X134738857Y-99210761D01*
X134643619Y-99258380D01*
X134405523Y-99258380D01*
X134310285Y-99210761D01*
X134262666Y-99163142D01*
X131976952Y-105608380D02*
X131643619Y-105132190D01*
X131405523Y-105608380D02*
X131405523Y-104608380D01*
X131786476Y-104608380D01*
X131881714Y-104656000D01*
X131929333Y-104703619D01*
X131976952Y-104798857D01*
X131976952Y-104941714D01*
X131929333Y-105036952D01*
X131881714Y-105084571D01*
X131786476Y-105132190D01*
X131405523Y-105132190D01*
X132357904Y-104703619D02*
X132405523Y-104656000D01*
X132500761Y-104608380D01*
X132738857Y-104608380D01*
X132834095Y-104656000D01*
X132881714Y-104703619D01*
X132929333Y-104798857D01*
X132929333Y-104894095D01*
X132881714Y-105036952D01*
X132310285Y-105608380D01*
X132929333Y-105608380D01*
X133548380Y-104608380D02*
X133643619Y-104608380D01*
X133738857Y-104656000D01*
X133786476Y-104703619D01*
X133834095Y-104798857D01*
X133881714Y-104989333D01*
X133881714Y-105227428D01*
X133834095Y-105417904D01*
X133786476Y-105513142D01*
X133738857Y-105560761D01*
X133643619Y-105608380D01*
X133548380Y-105608380D01*
X133453142Y-105560761D01*
X133405523Y-105513142D01*
X133357904Y-105417904D01*
X133310285Y-105227428D01*
X133310285Y-104989333D01*
X133357904Y-104798857D01*
X133405523Y-104703619D01*
X133453142Y-104656000D01*
X133548380Y-104608380D01*
X134738857Y-104608380D02*
X134548380Y-104608380D01*
X134453142Y-104656000D01*
X134405523Y-104703619D01*
X134310285Y-104846476D01*
X134262666Y-105036952D01*
X134262666Y-105417904D01*
X134310285Y-105513142D01*
X134357904Y-105560761D01*
X134453142Y-105608380D01*
X134643619Y-105608380D01*
X134738857Y-105560761D01*
X134786476Y-105513142D01*
X134834095Y-105417904D01*
X134834095Y-105179809D01*
X134786476Y-105084571D01*
X134738857Y-105036952D01*
X134643619Y-104989333D01*
X134453142Y-104989333D01*
X134357904Y-105036952D01*
X134310285Y-105084571D01*
X134262666Y-105179809D01*
X131976952Y-111958380D02*
X131643619Y-111482190D01*
X131405523Y-111958380D02*
X131405523Y-110958380D01*
X131786476Y-110958380D01*
X131881714Y-111006000D01*
X131929333Y-111053619D01*
X131976952Y-111148857D01*
X131976952Y-111291714D01*
X131929333Y-111386952D01*
X131881714Y-111434571D01*
X131786476Y-111482190D01*
X131405523Y-111482190D01*
X132357904Y-111053619D02*
X132405523Y-111006000D01*
X132500761Y-110958380D01*
X132738857Y-110958380D01*
X132834095Y-111006000D01*
X132881714Y-111053619D01*
X132929333Y-111148857D01*
X132929333Y-111244095D01*
X132881714Y-111386952D01*
X132310285Y-111958380D01*
X132929333Y-111958380D01*
X133548380Y-110958380D02*
X133643619Y-110958380D01*
X133738857Y-111006000D01*
X133786476Y-111053619D01*
X133834095Y-111148857D01*
X133881714Y-111339333D01*
X133881714Y-111577428D01*
X133834095Y-111767904D01*
X133786476Y-111863142D01*
X133738857Y-111910761D01*
X133643619Y-111958380D01*
X133548380Y-111958380D01*
X133453142Y-111910761D01*
X133405523Y-111863142D01*
X133357904Y-111767904D01*
X133310285Y-111577428D01*
X133310285Y-111339333D01*
X133357904Y-111148857D01*
X133405523Y-111053619D01*
X133453142Y-111006000D01*
X133548380Y-110958380D01*
X134215047Y-110958380D02*
X134881714Y-110958380D01*
X134453142Y-111958380D01*
X131976952Y-118308380D02*
X131643619Y-117832190D01*
X131405523Y-118308380D02*
X131405523Y-117308380D01*
X131786476Y-117308380D01*
X131881714Y-117356000D01*
X131929333Y-117403619D01*
X131976952Y-117498857D01*
X131976952Y-117641714D01*
X131929333Y-117736952D01*
X131881714Y-117784571D01*
X131786476Y-117832190D01*
X131405523Y-117832190D01*
X132357904Y-117403619D02*
X132405523Y-117356000D01*
X132500761Y-117308380D01*
X132738857Y-117308380D01*
X132834095Y-117356000D01*
X132881714Y-117403619D01*
X132929333Y-117498857D01*
X132929333Y-117594095D01*
X132881714Y-117736952D01*
X132310285Y-118308380D01*
X132929333Y-118308380D01*
X133548380Y-117308380D02*
X133643619Y-117308380D01*
X133738857Y-117356000D01*
X133786476Y-117403619D01*
X133834095Y-117498857D01*
X133881714Y-117689333D01*
X133881714Y-117927428D01*
X133834095Y-118117904D01*
X133786476Y-118213142D01*
X133738857Y-118260761D01*
X133643619Y-118308380D01*
X133548380Y-118308380D01*
X133453142Y-118260761D01*
X133405523Y-118213142D01*
X133357904Y-118117904D01*
X133310285Y-117927428D01*
X133310285Y-117689333D01*
X133357904Y-117498857D01*
X133405523Y-117403619D01*
X133453142Y-117356000D01*
X133548380Y-117308380D01*
X134453142Y-117736952D02*
X134357904Y-117689333D01*
X134310285Y-117641714D01*
X134262666Y-117546476D01*
X134262666Y-117498857D01*
X134310285Y-117403619D01*
X134357904Y-117356000D01*
X134453142Y-117308380D01*
X134643619Y-117308380D01*
X134738857Y-117356000D01*
X134786476Y-117403619D01*
X134834095Y-117498857D01*
X134834095Y-117546476D01*
X134786476Y-117641714D01*
X134738857Y-117689333D01*
X134643619Y-117736952D01*
X134453142Y-117736952D01*
X134357904Y-117784571D01*
X134310285Y-117832190D01*
X134262666Y-117927428D01*
X134262666Y-118117904D01*
X134310285Y-118213142D01*
X134357904Y-118260761D01*
X134453142Y-118308380D01*
X134643619Y-118308380D01*
X134738857Y-118260761D01*
X134786476Y-118213142D01*
X134834095Y-118117904D01*
X134834095Y-117927428D01*
X134786476Y-117832190D01*
X134738857Y-117784571D01*
X134643619Y-117736952D01*
X108148380Y-67222476D02*
X107148380Y-67222476D01*
X107148380Y-66841523D01*
X107196000Y-66746285D01*
X107243619Y-66698666D01*
X107338857Y-66651047D01*
X107481714Y-66651047D01*
X107576952Y-66698666D01*
X107624571Y-66746285D01*
X107672190Y-66841523D01*
X107672190Y-67222476D01*
X107243619Y-66270095D02*
X107196000Y-66222476D01*
X107148380Y-66127238D01*
X107148380Y-65889142D01*
X107196000Y-65793904D01*
X107243619Y-65746285D01*
X107338857Y-65698666D01*
X107434095Y-65698666D01*
X107576952Y-65746285D01*
X108148380Y-66317714D01*
X108148380Y-65698666D01*
X107148380Y-65079619D02*
X107148380Y-64984380D01*
X107196000Y-64889142D01*
X107243619Y-64841523D01*
X107338857Y-64793904D01*
X107529333Y-64746285D01*
X107767428Y-64746285D01*
X107957904Y-64793904D01*
X108053142Y-64841523D01*
X108100761Y-64889142D01*
X108148380Y-64984380D01*
X108148380Y-65079619D01*
X108100761Y-65174857D01*
X108053142Y-65222476D01*
X107957904Y-65270095D01*
X107767428Y-65317714D01*
X107529333Y-65317714D01*
X107338857Y-65270095D01*
X107243619Y-65222476D01*
X107196000Y-65174857D01*
X107148380Y-65079619D01*
X107148380Y-63841523D02*
X107148380Y-64317714D01*
X107624571Y-64365333D01*
X107576952Y-64317714D01*
X107529333Y-64222476D01*
X107529333Y-63984380D01*
X107576952Y-63889142D01*
X107624571Y-63841523D01*
X107719809Y-63793904D01*
X107957904Y-63793904D01*
X108053142Y-63841523D01*
X108100761Y-63889142D01*
X108148380Y-63984380D01*
X108148380Y-64222476D01*
X108100761Y-64317714D01*
X108053142Y-64365333D01*
M02*
