G04 #@! TF.GenerationSoftware,KiCad,Pcbnew,5.1.5+dfsg1-2build2*
G04 #@! TF.CreationDate,2024-04-23T22:37:31+02:00*
G04 #@! TF.ProjectId,display,64697370-6c61-4792-9e6b-696361645f70,231006*
G04 #@! TF.SameCoordinates,Original*
G04 #@! TF.FileFunction,Soldermask,Top*
G04 #@! TF.FilePolarity,Negative*
%FSLAX46Y46*%
G04 Gerber Fmt 4.6, Leading zero omitted, Abs format (unit mm)*
G04 Created by KiCad (PCBNEW 5.1.5+dfsg1-2build2) date 2024-04-23 22:37:31*
%MOMM*%
%LPD*%
G04 APERTURE LIST*
%ADD10C,0.150000*%
%ADD11C,6.800000*%
%ADD12R,2.432000X2.432000*%
%ADD13O,2.432000X2.432000*%
%ADD14R,2.300000X2.400000*%
%ADD15C,2.300000*%
%ADD16C,2.398980*%
%ADD17R,2.398980X2.398980*%
%ADD18R,2.635200X2.635200*%
%ADD19R,2.432000X2.127200*%
%ADD20O,2.432000X2.127200*%
%ADD21R,2.127200X2.432000*%
%ADD22O,2.127200X2.432000*%
G04 APERTURE END LIST*
D10*
X185166000Y-129286000D02*
X148336000Y-129286000D01*
X185166000Y-58166000D02*
X185166000Y-129286000D01*
X105156000Y-58166000D02*
X185166000Y-58166000D01*
X105156000Y-63246000D02*
X105156000Y-58166000D01*
X105156000Y-63246000D02*
X105156000Y-129286000D01*
X105156000Y-129286000D02*
X148336000Y-129286000D01*
X105156000Y-124206000D02*
X105156000Y-129286000D01*
D11*
X179832000Y-63500000D03*
D12*
X147066000Y-82296000D03*
D13*
X147066000Y-79756000D03*
D14*
X117856000Y-68326000D03*
D15*
X120396000Y-68326000D03*
D14*
X117856000Y-79756000D03*
D15*
X120396000Y-79756000D03*
D14*
X117856000Y-86106000D03*
D15*
X120396000Y-86106000D03*
D14*
X117856000Y-92456000D03*
D15*
X120396000Y-92456000D03*
D14*
X117856000Y-98806000D03*
D15*
X120396000Y-98806000D03*
D14*
X117856000Y-105156000D03*
D15*
X120396000Y-105156000D03*
D14*
X117856000Y-111506000D03*
D15*
X120396000Y-111506000D03*
D14*
X117856000Y-117856000D03*
D15*
X120396000Y-117856000D03*
D14*
X117856000Y-124206000D03*
D15*
X120396000Y-124206000D03*
D16*
X147068540Y-117856000D03*
D17*
X147068540Y-107696000D03*
D16*
X147063460Y-92456000D03*
D17*
X147063460Y-102616000D03*
D16*
X125476000Y-63248540D03*
D17*
X135636000Y-63248540D03*
D12*
X110236000Y-124206000D03*
D13*
X110236000Y-121666000D03*
D18*
X149606000Y-124206000D03*
X110236000Y-79756000D03*
D19*
X110236000Y-92456000D03*
D20*
X110236000Y-94996000D03*
X110236000Y-97536000D03*
X110236000Y-100076000D03*
X110236000Y-102616000D03*
X110236000Y-105156000D03*
D21*
X138176000Y-124206000D03*
D22*
X140716000Y-124206000D03*
X143256000Y-124206000D03*
D19*
X110236000Y-110236000D03*
D20*
X110236000Y-112776000D03*
X110236000Y-115316000D03*
D18*
X125476000Y-124206000D03*
X131826000Y-124206000D03*
D16*
X125476000Y-68326000D03*
X140476000Y-68326000D03*
X125476000Y-79756000D03*
X140476000Y-79756000D03*
X125476000Y-86106000D03*
X140476000Y-86106000D03*
X125476000Y-92456000D03*
X140476000Y-92456000D03*
X125476000Y-98806000D03*
X140476000Y-98806000D03*
X125476000Y-105156000D03*
X140476000Y-105156000D03*
X140716000Y-111506000D03*
X125716000Y-111506000D03*
X125476000Y-117856000D03*
X140476000Y-117856000D03*
D19*
X110236000Y-68326000D03*
D20*
X110236000Y-65786000D03*
X110236000Y-63246000D03*
D11*
X179832000Y-123952000D03*
X110236000Y-85852000D03*
M02*
