M48
;DRILL file {KiCad 4.0.5+dfsg1-4+deb9u1} date Tue Sep 27 17:28:47 2022
;FORMAT={-:-/ absolute / metric / decimal}
FMAT,2
METRIC,TZ
T1C1.001
T2C3.200
%
G90
G05
M71
T1
X110.236Y-63.246
X110.236Y-65.786
X110.236Y-68.326
X110.236Y-79.756
X110.236Y-92.456
X110.236Y-94.996
X110.236Y-97.536
X110.236Y-100.076
X110.236Y-102.616
X110.236Y-105.156
X110.236Y-110.236
X110.236Y-112.776
X110.236Y-115.316
X110.236Y-121.666
X110.236Y-124.206
X117.856Y-68.326
X117.856Y-79.756
X117.856Y-86.106
X117.856Y-92.456
X117.856Y-98.806
X117.856Y-105.156
X117.856Y-111.506
X117.856Y-117.856
X117.856Y-124.206
X120.396Y-68.326
X120.396Y-79.756
X120.396Y-86.106
X120.396Y-92.456
X120.396Y-98.806
X120.396Y-105.156
X120.396Y-111.506
X120.396Y-117.856
X120.396Y-124.206
X125.476Y-63.249
X125.476Y-68.326
X125.476Y-79.756
X125.476Y-86.106
X125.476Y-92.456
X125.476Y-98.806
X125.476Y-105.156
X125.476Y-117.856
X125.476Y-124.206
X125.716Y-111.506
X131.826Y-124.206
X135.636Y-63.249
X138.176Y-124.206
X140.476Y-68.326
X140.476Y-79.756
X140.476Y-86.106
X140.476Y-92.456
X140.476Y-98.806
X140.476Y-105.156
X140.476Y-117.856
X140.716Y-111.506
X140.716Y-124.206
X143.256Y-124.206
X147.063Y-92.456
X147.063Y-102.616
X147.066Y-79.756
X147.066Y-82.296
X147.069Y-107.696
X147.069Y-117.856
X149.606Y-124.206
T2
X110.236Y-85.852
X179.832Y-63.5
X179.832Y-123.952
T0
M30
