%FSLAX45Y45*%
G04 Gerber Fmt 4.5, Leading zero omitted, Abs format (unit mm)*
G04 Created by KiCad (PCBNEW 4.0.5+dfsg1-4+deb9u1) date Tue Sep 27 17:28:47 2022*
%MOMM*%
%LPD*%
G01*
G04 APERTURE LIST*
%ADD10C,0.127000*%
%ADD11C,0.150000*%
%ADD12C,0.200000*%
%ADD13C,0.300000*%
G04 APERTURE END LIST*
D10*
D11*
X18516600Y-12928600D02*
X14833600Y-12928600D01*
X18516600Y-5816600D02*
X18516600Y-12928600D01*
X10515600Y-5816600D02*
X18516600Y-5816600D01*
X10515600Y-6324600D02*
X10515600Y-5816600D01*
X10515600Y-6324600D02*
X10515600Y-12928600D01*
X10515600Y-12928600D02*
X14833600Y-12928600D01*
X10515600Y-12420600D02*
X10515600Y-12928600D01*
D12*
X10973562Y-6274562D02*
X11073638Y-6374638D01*
X11073638Y-6274562D02*
X10973562Y-6374638D01*
X10973562Y-6528562D02*
X11073638Y-6628638D01*
X11073638Y-6528562D02*
X10973562Y-6628638D01*
X10973562Y-6782562D02*
X11073638Y-6882638D01*
X11073638Y-6782562D02*
X10973562Y-6882638D01*
X10973562Y-7925562D02*
X11073638Y-8025638D01*
X11073638Y-7925562D02*
X10973562Y-8025638D01*
X10973562Y-9195562D02*
X11073638Y-9295638D01*
X11073638Y-9195562D02*
X10973562Y-9295638D01*
X10973562Y-9449562D02*
X11073638Y-9549638D01*
X11073638Y-9449562D02*
X10973562Y-9549638D01*
X10973562Y-9703562D02*
X11073638Y-9803638D01*
X11073638Y-9703562D02*
X10973562Y-9803638D01*
X10973562Y-9957562D02*
X11073638Y-10057638D01*
X11073638Y-9957562D02*
X10973562Y-10057638D01*
X10973562Y-10211562D02*
X11073638Y-10311638D01*
X11073638Y-10211562D02*
X10973562Y-10311638D01*
X10973562Y-10465562D02*
X11073638Y-10565638D01*
X11073638Y-10465562D02*
X10973562Y-10565638D01*
X10973562Y-10973562D02*
X11073638Y-11073638D01*
X11073638Y-10973562D02*
X10973562Y-11073638D01*
X10973562Y-11227562D02*
X11073638Y-11327638D01*
X11073638Y-11227562D02*
X10973562Y-11327638D01*
X10973562Y-11481562D02*
X11073638Y-11581638D01*
X11073638Y-11481562D02*
X10973562Y-11581638D01*
X10973562Y-12116562D02*
X11073638Y-12216638D01*
X11073638Y-12116562D02*
X10973562Y-12216638D01*
X10973562Y-12370562D02*
X11073638Y-12470638D01*
X11073638Y-12370562D02*
X10973562Y-12470638D01*
X11735562Y-6782562D02*
X11835638Y-6882638D01*
X11835638Y-6782562D02*
X11735562Y-6882638D01*
X11735562Y-7925562D02*
X11835638Y-8025638D01*
X11835638Y-7925562D02*
X11735562Y-8025638D01*
X11735562Y-8560562D02*
X11835638Y-8660638D01*
X11835638Y-8560562D02*
X11735562Y-8660638D01*
X11735562Y-9195562D02*
X11835638Y-9295638D01*
X11835638Y-9195562D02*
X11735562Y-9295638D01*
X11735562Y-9830562D02*
X11835638Y-9930638D01*
X11835638Y-9830562D02*
X11735562Y-9930638D01*
X11735562Y-10465562D02*
X11835638Y-10565638D01*
X11835638Y-10465562D02*
X11735562Y-10565638D01*
X11735562Y-11100562D02*
X11835638Y-11200638D01*
X11835638Y-11100562D02*
X11735562Y-11200638D01*
X11735562Y-11735562D02*
X11835638Y-11835638D01*
X11835638Y-11735562D02*
X11735562Y-11835638D01*
X11735562Y-12370562D02*
X11835638Y-12470638D01*
X11835638Y-12370562D02*
X11735562Y-12470638D01*
X11989562Y-6782562D02*
X12089638Y-6882638D01*
X12089638Y-6782562D02*
X11989562Y-6882638D01*
X11989562Y-7925562D02*
X12089638Y-8025638D01*
X12089638Y-7925562D02*
X11989562Y-8025638D01*
X11989562Y-8560562D02*
X12089638Y-8660638D01*
X12089638Y-8560562D02*
X11989562Y-8660638D01*
X11989562Y-9195562D02*
X12089638Y-9295638D01*
X12089638Y-9195562D02*
X11989562Y-9295638D01*
X11989562Y-9830562D02*
X12089638Y-9930638D01*
X12089638Y-9830562D02*
X11989562Y-9930638D01*
X11989562Y-10465562D02*
X12089638Y-10565638D01*
X12089638Y-10465562D02*
X11989562Y-10565638D01*
X11989562Y-11100562D02*
X12089638Y-11200638D01*
X12089638Y-11100562D02*
X11989562Y-11200638D01*
X11989562Y-11735562D02*
X12089638Y-11835638D01*
X12089638Y-11735562D02*
X11989562Y-11835638D01*
X11989562Y-12370562D02*
X12089638Y-12470638D01*
X12089638Y-12370562D02*
X11989562Y-12470638D01*
X12497562Y-6274816D02*
X12597638Y-6374892D01*
X12597638Y-6274816D02*
X12497562Y-6374892D01*
X12497562Y-6782562D02*
X12597638Y-6882638D01*
X12597638Y-6782562D02*
X12497562Y-6882638D01*
X12497562Y-7925562D02*
X12597638Y-8025638D01*
X12597638Y-7925562D02*
X12497562Y-8025638D01*
X12497562Y-8560562D02*
X12597638Y-8660638D01*
X12597638Y-8560562D02*
X12497562Y-8660638D01*
X12497562Y-9195562D02*
X12597638Y-9295638D01*
X12597638Y-9195562D02*
X12497562Y-9295638D01*
X12497562Y-9830562D02*
X12597638Y-9930638D01*
X12597638Y-9830562D02*
X12497562Y-9930638D01*
X12497562Y-10465562D02*
X12597638Y-10565638D01*
X12597638Y-10465562D02*
X12497562Y-10565638D01*
X12497562Y-11735562D02*
X12597638Y-11835638D01*
X12597638Y-11735562D02*
X12497562Y-11835638D01*
X12497562Y-12370562D02*
X12597638Y-12470638D01*
X12597638Y-12370562D02*
X12497562Y-12470638D01*
X12521562Y-11100562D02*
X12621638Y-11200638D01*
X12621638Y-11100562D02*
X12521562Y-11200638D01*
X13132562Y-12370562D02*
X13232638Y-12470638D01*
X13232638Y-12370562D02*
X13132562Y-12470638D01*
X13513562Y-6274816D02*
X13613638Y-6374892D01*
X13613638Y-6274816D02*
X13513562Y-6374892D01*
X13767562Y-12370562D02*
X13867638Y-12470638D01*
X13867638Y-12370562D02*
X13767562Y-12470638D01*
X13997562Y-6782562D02*
X14097638Y-6882638D01*
X14097638Y-6782562D02*
X13997562Y-6882638D01*
X13997562Y-7925562D02*
X14097638Y-8025638D01*
X14097638Y-7925562D02*
X13997562Y-8025638D01*
X13997562Y-8560562D02*
X14097638Y-8660638D01*
X14097638Y-8560562D02*
X13997562Y-8660638D01*
X13997562Y-9195562D02*
X14097638Y-9295638D01*
X14097638Y-9195562D02*
X13997562Y-9295638D01*
X13997562Y-9830562D02*
X14097638Y-9930638D01*
X14097638Y-9830562D02*
X13997562Y-9930638D01*
X13997562Y-10465562D02*
X14097638Y-10565638D01*
X14097638Y-10465562D02*
X13997562Y-10565638D01*
X13997562Y-11735562D02*
X14097638Y-11835638D01*
X14097638Y-11735562D02*
X13997562Y-11835638D01*
X14021562Y-11100562D02*
X14121638Y-11200638D01*
X14121638Y-11100562D02*
X14021562Y-11200638D01*
X14021562Y-12370562D02*
X14121638Y-12470638D01*
X14121638Y-12370562D02*
X14021562Y-12470638D01*
X14275562Y-12370562D02*
X14375638Y-12470638D01*
X14375638Y-12370562D02*
X14275562Y-12470638D01*
X14656308Y-9195562D02*
X14756384Y-9295638D01*
X14756384Y-9195562D02*
X14656308Y-9295638D01*
X14656308Y-10211562D02*
X14756384Y-10311638D01*
X14756384Y-10211562D02*
X14656308Y-10311638D01*
X14656562Y-7925562D02*
X14756638Y-8025638D01*
X14756638Y-7925562D02*
X14656562Y-8025638D01*
X14656562Y-8179562D02*
X14756638Y-8279638D01*
X14756638Y-8179562D02*
X14656562Y-8279638D01*
X14656816Y-10719562D02*
X14756892Y-10819638D01*
X14756892Y-10719562D02*
X14656816Y-10819638D01*
X14656816Y-11735562D02*
X14756892Y-11835638D01*
X14756892Y-11735562D02*
X14656816Y-11835638D01*
X14910562Y-12370562D02*
X15010638Y-12470638D01*
X15010638Y-12370562D02*
X14910562Y-12470638D01*
X11183600Y-8585200D02*
G75*
G03X11183600Y-8585200I-160000J0D01*
G01*
X18143200Y-6350000D02*
G75*
G03X18143200Y-6350000I-160000J0D01*
G01*
X18143200Y-12395200D02*
G75*
G03X18143200Y-12395200I-160000J0D01*
G01*
D13*
X10779529Y-13401814D02*
X10779529Y-13101814D01*
X10850957Y-13101814D01*
X10893814Y-13116100D01*
X10922386Y-13144671D01*
X10936671Y-13173243D01*
X10950957Y-13230386D01*
X10950957Y-13273243D01*
X10936671Y-13330386D01*
X10922386Y-13358957D01*
X10893814Y-13387529D01*
X10850957Y-13401814D01*
X10779529Y-13401814D01*
X11079529Y-13401814D02*
X11079529Y-13201814D01*
X11079529Y-13258957D02*
X11093814Y-13230386D01*
X11108100Y-13216100D01*
X11136671Y-13201814D01*
X11165243Y-13201814D01*
X11265243Y-13401814D02*
X11265243Y-13201814D01*
X11265243Y-13101814D02*
X11250957Y-13116100D01*
X11265243Y-13130386D01*
X11279528Y-13116100D01*
X11265243Y-13101814D01*
X11265243Y-13130386D01*
X11450957Y-13401814D02*
X11422386Y-13387529D01*
X11408100Y-13358957D01*
X11408100Y-13101814D01*
X11608100Y-13401814D02*
X11579528Y-13387529D01*
X11565243Y-13358957D01*
X11565243Y-13101814D01*
X11950957Y-13401814D02*
X11950957Y-13101814D01*
X12050957Y-13316100D01*
X12150957Y-13101814D01*
X12150957Y-13401814D01*
X12422386Y-13401814D02*
X12422386Y-13244671D01*
X12408100Y-13216100D01*
X12379528Y-13201814D01*
X12322386Y-13201814D01*
X12293814Y-13216100D01*
X12422386Y-13387529D02*
X12393814Y-13401814D01*
X12322386Y-13401814D01*
X12293814Y-13387529D01*
X12279528Y-13358957D01*
X12279528Y-13330386D01*
X12293814Y-13301814D01*
X12322386Y-13287529D01*
X12393814Y-13287529D01*
X12422386Y-13273243D01*
X12565243Y-13201814D02*
X12565243Y-13501814D01*
X12565243Y-13216100D02*
X12593814Y-13201814D01*
X12650957Y-13201814D01*
X12679528Y-13216100D01*
X12693814Y-13230386D01*
X12708100Y-13258957D01*
X12708100Y-13344671D01*
X12693814Y-13373243D01*
X12679528Y-13387529D01*
X12650957Y-13401814D01*
X12593814Y-13401814D01*
X12565243Y-13387529D01*
X12836671Y-13373243D02*
X12850957Y-13387529D01*
X12836671Y-13401814D01*
X12822386Y-13387529D01*
X12836671Y-13373243D01*
X12836671Y-13401814D01*
X12836671Y-13216100D02*
X12850957Y-13230386D01*
X12836671Y-13244671D01*
X12822386Y-13230386D01*
X12836671Y-13216100D01*
X12836671Y-13244671D01*
X10408024Y-13846062D02*
X10508100Y-13946138D01*
X10508100Y-13846062D02*
X10408024Y-13946138D01*
X10936671Y-14031814D02*
X10765243Y-14031814D01*
X10850957Y-14031814D02*
X10850957Y-13731814D01*
X10822386Y-13774671D01*
X10793814Y-13803243D01*
X10765243Y-13817529D01*
X11065243Y-14003243D02*
X11079529Y-14017529D01*
X11065243Y-14031814D01*
X11050957Y-14017529D01*
X11065243Y-14003243D01*
X11065243Y-14031814D01*
X11265243Y-13731814D02*
X11293814Y-13731814D01*
X11322386Y-13746100D01*
X11336671Y-13760386D01*
X11350957Y-13788957D01*
X11365243Y-13846100D01*
X11365243Y-13917529D01*
X11350957Y-13974671D01*
X11336671Y-14003243D01*
X11322386Y-14017529D01*
X11293814Y-14031814D01*
X11265243Y-14031814D01*
X11236671Y-14017529D01*
X11222386Y-14003243D01*
X11208100Y-13974671D01*
X11193814Y-13917529D01*
X11193814Y-13846100D01*
X11208100Y-13788957D01*
X11222386Y-13760386D01*
X11236671Y-13746100D01*
X11265243Y-13731814D01*
X11550957Y-13731814D02*
X11579528Y-13731814D01*
X11608100Y-13746100D01*
X11622386Y-13760386D01*
X11636671Y-13788957D01*
X11650957Y-13846100D01*
X11650957Y-13917529D01*
X11636671Y-13974671D01*
X11622386Y-14003243D01*
X11608100Y-14017529D01*
X11579528Y-14031814D01*
X11550957Y-14031814D01*
X11522386Y-14017529D01*
X11508100Y-14003243D01*
X11493814Y-13974671D01*
X11479528Y-13917529D01*
X11479528Y-13846100D01*
X11493814Y-13788957D01*
X11508100Y-13760386D01*
X11522386Y-13746100D01*
X11550957Y-13731814D01*
X11779528Y-14031814D02*
X11779528Y-13831814D01*
X11779528Y-13860386D02*
X11793814Y-13846100D01*
X11822386Y-13831814D01*
X11865243Y-13831814D01*
X11893814Y-13846100D01*
X11908100Y-13874671D01*
X11908100Y-14031814D01*
X11908100Y-13874671D02*
X11922386Y-13846100D01*
X11950957Y-13831814D01*
X11993814Y-13831814D01*
X12022386Y-13846100D01*
X12036671Y-13874671D01*
X12036671Y-14031814D01*
X12179528Y-14031814D02*
X12179528Y-13831814D01*
X12179528Y-13860386D02*
X12193814Y-13846100D01*
X12222386Y-13831814D01*
X12265243Y-13831814D01*
X12293814Y-13846100D01*
X12308100Y-13874671D01*
X12308100Y-14031814D01*
X12308100Y-13874671D02*
X12322386Y-13846100D01*
X12350957Y-13831814D01*
X12393814Y-13831814D01*
X12422386Y-13846100D01*
X12436671Y-13874671D01*
X12436671Y-14031814D01*
X13022386Y-13717529D02*
X12765243Y-14103243D01*
X13408100Y-13731814D02*
X13436671Y-13731814D01*
X13465243Y-13746100D01*
X13479528Y-13760386D01*
X13493814Y-13788957D01*
X13508100Y-13846100D01*
X13508100Y-13917529D01*
X13493814Y-13974671D01*
X13479528Y-14003243D01*
X13465243Y-14017529D01*
X13436671Y-14031814D01*
X13408100Y-14031814D01*
X13379528Y-14017529D01*
X13365243Y-14003243D01*
X13350957Y-13974671D01*
X13336671Y-13917529D01*
X13336671Y-13846100D01*
X13350957Y-13788957D01*
X13365243Y-13760386D01*
X13379528Y-13746100D01*
X13408100Y-13731814D01*
X13636671Y-14003243D02*
X13650957Y-14017529D01*
X13636671Y-14031814D01*
X13622386Y-14017529D01*
X13636671Y-14003243D01*
X13636671Y-14031814D01*
X13836671Y-13731814D02*
X13865243Y-13731814D01*
X13893814Y-13746100D01*
X13908100Y-13760386D01*
X13922385Y-13788957D01*
X13936671Y-13846100D01*
X13936671Y-13917529D01*
X13922385Y-13974671D01*
X13908100Y-14003243D01*
X13893814Y-14017529D01*
X13865243Y-14031814D01*
X13836671Y-14031814D01*
X13808100Y-14017529D01*
X13793814Y-14003243D01*
X13779528Y-13974671D01*
X13765243Y-13917529D01*
X13765243Y-13846100D01*
X13779528Y-13788957D01*
X13793814Y-13760386D01*
X13808100Y-13746100D01*
X13836671Y-13731814D01*
X14036671Y-13731814D02*
X14222385Y-13731814D01*
X14122385Y-13846100D01*
X14165243Y-13846100D01*
X14193814Y-13860386D01*
X14208100Y-13874671D01*
X14222385Y-13903243D01*
X14222385Y-13974671D01*
X14208100Y-14003243D01*
X14193814Y-14017529D01*
X14165243Y-14031814D01*
X14079528Y-14031814D01*
X14050957Y-14017529D01*
X14036671Y-14003243D01*
X14365243Y-14031814D02*
X14422385Y-14031814D01*
X14450957Y-14017529D01*
X14465243Y-14003243D01*
X14493814Y-13960386D01*
X14508100Y-13903243D01*
X14508100Y-13788957D01*
X14493814Y-13760386D01*
X14479528Y-13746100D01*
X14450957Y-13731814D01*
X14393814Y-13731814D01*
X14365243Y-13746100D01*
X14350957Y-13760386D01*
X14336671Y-13788957D01*
X14336671Y-13860386D01*
X14350957Y-13888957D01*
X14365243Y-13903243D01*
X14393814Y-13917529D01*
X14450957Y-13917529D01*
X14479528Y-13903243D01*
X14493814Y-13888957D01*
X14508100Y-13860386D01*
X14622386Y-13731814D02*
X14622386Y-13788957D01*
X14736671Y-13731814D02*
X14736671Y-13788957D01*
X15179528Y-14146100D02*
X15165243Y-14131814D01*
X15136671Y-14088957D01*
X15122385Y-14060386D01*
X15108100Y-14017529D01*
X15093814Y-13946100D01*
X15093814Y-13888957D01*
X15108100Y-13817529D01*
X15122385Y-13774671D01*
X15136671Y-13746100D01*
X15165243Y-13703243D01*
X15179528Y-13688957D01*
X15422385Y-13731814D02*
X15365243Y-13731814D01*
X15336671Y-13746100D01*
X15322385Y-13760386D01*
X15293814Y-13803243D01*
X15279528Y-13860386D01*
X15279528Y-13974671D01*
X15293814Y-14003243D01*
X15308100Y-14017529D01*
X15336671Y-14031814D01*
X15393814Y-14031814D01*
X15422385Y-14017529D01*
X15436671Y-14003243D01*
X15450957Y-13974671D01*
X15450957Y-13903243D01*
X15436671Y-13874671D01*
X15422385Y-13860386D01*
X15393814Y-13846100D01*
X15336671Y-13846100D01*
X15308100Y-13860386D01*
X15293814Y-13874671D01*
X15279528Y-13903243D01*
X15550957Y-13731814D02*
X15736671Y-13731814D01*
X15636671Y-13846100D01*
X15679528Y-13846100D01*
X15708100Y-13860386D01*
X15722385Y-13874671D01*
X15736671Y-13903243D01*
X15736671Y-13974671D01*
X15722385Y-14003243D01*
X15708100Y-14017529D01*
X15679528Y-14031814D01*
X15593814Y-14031814D01*
X15565243Y-14017529D01*
X15550957Y-14003243D01*
X16093814Y-14031814D02*
X16093814Y-13731814D01*
X16222385Y-14031814D02*
X16222385Y-13874671D01*
X16208100Y-13846100D01*
X16179528Y-13831814D01*
X16136671Y-13831814D01*
X16108100Y-13846100D01*
X16093814Y-13860386D01*
X16408100Y-14031814D02*
X16379528Y-14017529D01*
X16365243Y-14003243D01*
X16350957Y-13974671D01*
X16350957Y-13888957D01*
X16365243Y-13860386D01*
X16379528Y-13846100D01*
X16408100Y-13831814D01*
X16450957Y-13831814D01*
X16479528Y-13846100D01*
X16493814Y-13860386D01*
X16508100Y-13888957D01*
X16508100Y-13974671D01*
X16493814Y-14003243D01*
X16479528Y-14017529D01*
X16450957Y-14031814D01*
X16408100Y-14031814D01*
X16679528Y-14031814D02*
X16650957Y-14017529D01*
X16636671Y-13988957D01*
X16636671Y-13731814D01*
X16908100Y-14017529D02*
X16879529Y-14031814D01*
X16822386Y-14031814D01*
X16793814Y-14017529D01*
X16779529Y-13988957D01*
X16779529Y-13874671D01*
X16793814Y-13846100D01*
X16822386Y-13831814D01*
X16879529Y-13831814D01*
X16908100Y-13846100D01*
X16922386Y-13874671D01*
X16922386Y-13903243D01*
X16779529Y-13931814D01*
X17036671Y-14017529D02*
X17065243Y-14031814D01*
X17122386Y-14031814D01*
X17150957Y-14017529D01*
X17165243Y-13988957D01*
X17165243Y-13974671D01*
X17150957Y-13946100D01*
X17122386Y-13931814D01*
X17079529Y-13931814D01*
X17050957Y-13917529D01*
X17036671Y-13888957D01*
X17036671Y-13874671D01*
X17050957Y-13846100D01*
X17079529Y-13831814D01*
X17122386Y-13831814D01*
X17150957Y-13846100D01*
X17265243Y-14146100D02*
X17279529Y-14131814D01*
X17308100Y-14088957D01*
X17322386Y-14060386D01*
X17336671Y-14017529D01*
X17350957Y-13946100D01*
X17350957Y-13888957D01*
X17336671Y-13817529D01*
X17322386Y-13774671D01*
X17308100Y-13746100D01*
X17279529Y-13703243D01*
X17265243Y-13688957D01*
X10508100Y-14292100D02*
G75*
G03X10508100Y-14292100I-160000J0D01*
G01*
X10750957Y-14127814D02*
X10936671Y-14127814D01*
X10836671Y-14242100D01*
X10879529Y-14242100D01*
X10908100Y-14256386D01*
X10922386Y-14270671D01*
X10936671Y-14299243D01*
X10936671Y-14370671D01*
X10922386Y-14399243D01*
X10908100Y-14413529D01*
X10879529Y-14427814D01*
X10793814Y-14427814D01*
X10765243Y-14413529D01*
X10750957Y-14399243D01*
X11065243Y-14399243D02*
X11079529Y-14413529D01*
X11065243Y-14427814D01*
X11050957Y-14413529D01*
X11065243Y-14399243D01*
X11065243Y-14427814D01*
X11193814Y-14156386D02*
X11208100Y-14142100D01*
X11236671Y-14127814D01*
X11308100Y-14127814D01*
X11336671Y-14142100D01*
X11350957Y-14156386D01*
X11365243Y-14184957D01*
X11365243Y-14213529D01*
X11350957Y-14256386D01*
X11179528Y-14427814D01*
X11365243Y-14427814D01*
X11550957Y-14127814D02*
X11579528Y-14127814D01*
X11608100Y-14142100D01*
X11622386Y-14156386D01*
X11636671Y-14184957D01*
X11650957Y-14242100D01*
X11650957Y-14313529D01*
X11636671Y-14370671D01*
X11622386Y-14399243D01*
X11608100Y-14413529D01*
X11579528Y-14427814D01*
X11550957Y-14427814D01*
X11522386Y-14413529D01*
X11508100Y-14399243D01*
X11493814Y-14370671D01*
X11479528Y-14313529D01*
X11479528Y-14242100D01*
X11493814Y-14184957D01*
X11508100Y-14156386D01*
X11522386Y-14142100D01*
X11550957Y-14127814D01*
X11779528Y-14427814D02*
X11779528Y-14227814D01*
X11779528Y-14256386D02*
X11793814Y-14242100D01*
X11822386Y-14227814D01*
X11865243Y-14227814D01*
X11893814Y-14242100D01*
X11908100Y-14270671D01*
X11908100Y-14427814D01*
X11908100Y-14270671D02*
X11922386Y-14242100D01*
X11950957Y-14227814D01*
X11993814Y-14227814D01*
X12022386Y-14242100D01*
X12036671Y-14270671D01*
X12036671Y-14427814D01*
X12179528Y-14427814D02*
X12179528Y-14227814D01*
X12179528Y-14256386D02*
X12193814Y-14242100D01*
X12222386Y-14227814D01*
X12265243Y-14227814D01*
X12293814Y-14242100D01*
X12308100Y-14270671D01*
X12308100Y-14427814D01*
X12308100Y-14270671D02*
X12322386Y-14242100D01*
X12350957Y-14227814D01*
X12393814Y-14227814D01*
X12422386Y-14242100D01*
X12436671Y-14270671D01*
X12436671Y-14427814D01*
X13022386Y-14113529D02*
X12765243Y-14499243D01*
X13408100Y-14127814D02*
X13436671Y-14127814D01*
X13465243Y-14142100D01*
X13479528Y-14156386D01*
X13493814Y-14184957D01*
X13508100Y-14242100D01*
X13508100Y-14313529D01*
X13493814Y-14370671D01*
X13479528Y-14399243D01*
X13465243Y-14413529D01*
X13436671Y-14427814D01*
X13408100Y-14427814D01*
X13379528Y-14413529D01*
X13365243Y-14399243D01*
X13350957Y-14370671D01*
X13336671Y-14313529D01*
X13336671Y-14242100D01*
X13350957Y-14184957D01*
X13365243Y-14156386D01*
X13379528Y-14142100D01*
X13408100Y-14127814D01*
X13636671Y-14399243D02*
X13650957Y-14413529D01*
X13636671Y-14427814D01*
X13622386Y-14413529D01*
X13636671Y-14399243D01*
X13636671Y-14427814D01*
X13936671Y-14427814D02*
X13765243Y-14427814D01*
X13850957Y-14427814D02*
X13850957Y-14127814D01*
X13822385Y-14170671D01*
X13793814Y-14199243D01*
X13765243Y-14213529D01*
X14050957Y-14156386D02*
X14065243Y-14142100D01*
X14093814Y-14127814D01*
X14165243Y-14127814D01*
X14193814Y-14142100D01*
X14208100Y-14156386D01*
X14222385Y-14184957D01*
X14222385Y-14213529D01*
X14208100Y-14256386D01*
X14036671Y-14427814D01*
X14222385Y-14427814D01*
X14479528Y-14127814D02*
X14422385Y-14127814D01*
X14393814Y-14142100D01*
X14379528Y-14156386D01*
X14350957Y-14199243D01*
X14336671Y-14256386D01*
X14336671Y-14370671D01*
X14350957Y-14399243D01*
X14365243Y-14413529D01*
X14393814Y-14427814D01*
X14450957Y-14427814D01*
X14479528Y-14413529D01*
X14493814Y-14399243D01*
X14508100Y-14370671D01*
X14508100Y-14299243D01*
X14493814Y-14270671D01*
X14479528Y-14256386D01*
X14450957Y-14242100D01*
X14393814Y-14242100D01*
X14365243Y-14256386D01*
X14350957Y-14270671D01*
X14336671Y-14299243D01*
X14622386Y-14127814D02*
X14622386Y-14184957D01*
X14736671Y-14127814D02*
X14736671Y-14184957D01*
X15179528Y-14542100D02*
X15165243Y-14527814D01*
X15136671Y-14484957D01*
X15122385Y-14456386D01*
X15108100Y-14413529D01*
X15093814Y-14342100D01*
X15093814Y-14284957D01*
X15108100Y-14213529D01*
X15122385Y-14170671D01*
X15136671Y-14142100D01*
X15165243Y-14099243D01*
X15179528Y-14084957D01*
X15265243Y-14127814D02*
X15450957Y-14127814D01*
X15350957Y-14242100D01*
X15393814Y-14242100D01*
X15422385Y-14256386D01*
X15436671Y-14270671D01*
X15450957Y-14299243D01*
X15450957Y-14370671D01*
X15436671Y-14399243D01*
X15422385Y-14413529D01*
X15393814Y-14427814D01*
X15308100Y-14427814D01*
X15279528Y-14413529D01*
X15265243Y-14399243D01*
X15808100Y-14427814D02*
X15808100Y-14127814D01*
X15936671Y-14427814D02*
X15936671Y-14270671D01*
X15922385Y-14242100D01*
X15893814Y-14227814D01*
X15850957Y-14227814D01*
X15822385Y-14242100D01*
X15808100Y-14256386D01*
X16122385Y-14427814D02*
X16093814Y-14413529D01*
X16079528Y-14399243D01*
X16065243Y-14370671D01*
X16065243Y-14284957D01*
X16079528Y-14256386D01*
X16093814Y-14242100D01*
X16122385Y-14227814D01*
X16165243Y-14227814D01*
X16193814Y-14242100D01*
X16208100Y-14256386D01*
X16222385Y-14284957D01*
X16222385Y-14370671D01*
X16208100Y-14399243D01*
X16193814Y-14413529D01*
X16165243Y-14427814D01*
X16122385Y-14427814D01*
X16393814Y-14427814D02*
X16365243Y-14413529D01*
X16350957Y-14384957D01*
X16350957Y-14127814D01*
X16622386Y-14413529D02*
X16593814Y-14427814D01*
X16536671Y-14427814D01*
X16508100Y-14413529D01*
X16493814Y-14384957D01*
X16493814Y-14270671D01*
X16508100Y-14242100D01*
X16536671Y-14227814D01*
X16593814Y-14227814D01*
X16622386Y-14242100D01*
X16636671Y-14270671D01*
X16636671Y-14299243D01*
X16493814Y-14327814D01*
X16750957Y-14413529D02*
X16779529Y-14427814D01*
X16836671Y-14427814D01*
X16865243Y-14413529D01*
X16879529Y-14384957D01*
X16879529Y-14370671D01*
X16865243Y-14342100D01*
X16836671Y-14327814D01*
X16793814Y-14327814D01*
X16765243Y-14313529D01*
X16750957Y-14284957D01*
X16750957Y-14270671D01*
X16765243Y-14242100D01*
X16793814Y-14227814D01*
X16836671Y-14227814D01*
X16865243Y-14242100D01*
X16979528Y-14542100D02*
X16993814Y-14527814D01*
X17022386Y-14484957D01*
X17036671Y-14456386D01*
X17050957Y-14413529D01*
X17065243Y-14342100D01*
X17065243Y-14284957D01*
X17050957Y-14213529D01*
X17036671Y-14170671D01*
X17022386Y-14142100D01*
X16993814Y-14099243D01*
X16979528Y-14084957D01*
M02*
