G04 #@! TF.FileFunction,Copper,L2,Bot,Signal*
%FSLAX46Y46*%
G04 Gerber Fmt 4.6, Leading zero omitted, Abs format (unit mm)*
G04 Created by KiCad (PCBNEW 4.0.5+dfsg1-4) date Thu Oct 29 19:25:02 2020*
%MOMM*%
%LPD*%
G01*
G04 APERTURE LIST*
%ADD10C,0.100000*%
%ADD11C,0.300000*%
%ADD12C,0.150000*%
%ADD13C,6.400000*%
%ADD14R,2.032000X2.032000*%
%ADD15O,2.032000X2.032000*%
%ADD16R,1.900000X2.000000*%
%ADD17C,1.900000*%
%ADD18C,1.998980*%
%ADD19R,1.998980X1.998980*%
%ADD20R,2.235200X2.235200*%
%ADD21R,2.032000X1.727200*%
%ADD22O,2.032000X1.727200*%
%ADD23R,1.727200X2.032000*%
%ADD24O,1.727200X2.032000*%
%ADD25C,1.270000*%
G04 APERTURE END LIST*
D10*
D11*
X171032284Y-125138571D02*
X171032284Y-123638571D01*
X170532284Y-124710000D01*
X170032284Y-123638571D01*
X170032284Y-125138571D01*
X169317998Y-125138571D02*
X169317998Y-123638571D01*
X168817998Y-124710000D01*
X168317998Y-123638571D01*
X168317998Y-125138571D01*
X166960855Y-123638571D02*
X167246569Y-123638571D01*
X167389426Y-123710000D01*
X167460855Y-123781429D01*
X167603712Y-123995714D01*
X167675141Y-124281429D01*
X167675141Y-124852857D01*
X167603712Y-124995714D01*
X167532284Y-125067143D01*
X167389426Y-125138571D01*
X167103712Y-125138571D01*
X166960855Y-125067143D01*
X166889426Y-124995714D01*
X166817998Y-124852857D01*
X166817998Y-124495714D01*
X166889426Y-124352857D01*
X166960855Y-124281429D01*
X167103712Y-124210000D01*
X167389426Y-124210000D01*
X167532284Y-124281429D01*
X167603712Y-124352857D01*
X167675141Y-124495714D01*
X166175141Y-125138571D02*
X166175141Y-123638571D01*
X165817998Y-123638571D01*
X165603713Y-123710000D01*
X165460855Y-123852857D01*
X165389427Y-123995714D01*
X165317998Y-124281429D01*
X165317998Y-124495714D01*
X165389427Y-124781429D01*
X165460855Y-124924286D01*
X165603713Y-125067143D01*
X165817998Y-125138571D01*
X166175141Y-125138571D01*
X160175142Y-123781429D02*
X160103713Y-123710000D01*
X159960856Y-123638571D01*
X159603713Y-123638571D01*
X159460856Y-123710000D01*
X159389427Y-123781429D01*
X159317999Y-123924286D01*
X159317999Y-124067143D01*
X159389427Y-124281429D01*
X160246570Y-125138571D01*
X159317999Y-125138571D01*
X158389428Y-123638571D02*
X158246571Y-123638571D01*
X158103714Y-123710000D01*
X158032285Y-123781429D01*
X157960856Y-123924286D01*
X157889428Y-124210000D01*
X157889428Y-124567143D01*
X157960856Y-124852857D01*
X158032285Y-124995714D01*
X158103714Y-125067143D01*
X158246571Y-125138571D01*
X158389428Y-125138571D01*
X158532285Y-125067143D01*
X158603714Y-124995714D01*
X158675142Y-124852857D01*
X158746571Y-124567143D01*
X158746571Y-124210000D01*
X158675142Y-123924286D01*
X158603714Y-123781429D01*
X158532285Y-123710000D01*
X158389428Y-123638571D01*
X157318000Y-123781429D02*
X157246571Y-123710000D01*
X157103714Y-123638571D01*
X156746571Y-123638571D01*
X156603714Y-123710000D01*
X156532285Y-123781429D01*
X156460857Y-123924286D01*
X156460857Y-124067143D01*
X156532285Y-124281429D01*
X157389428Y-125138571D01*
X156460857Y-125138571D01*
X155532286Y-123638571D02*
X155389429Y-123638571D01*
X155246572Y-123710000D01*
X155175143Y-123781429D01*
X155103714Y-123924286D01*
X155032286Y-124210000D01*
X155032286Y-124567143D01*
X155103714Y-124852857D01*
X155175143Y-124995714D01*
X155246572Y-125067143D01*
X155389429Y-125138571D01*
X155532286Y-125138571D01*
X155675143Y-125067143D01*
X155746572Y-124995714D01*
X155818000Y-124852857D01*
X155889429Y-124567143D01*
X155889429Y-124210000D01*
X155818000Y-123924286D01*
X155746572Y-123781429D01*
X155675143Y-123710000D01*
X155532286Y-123638571D01*
D12*
X185166000Y-129286000D02*
X148336000Y-129286000D01*
X185166000Y-58166000D02*
X185166000Y-129286000D01*
X105156000Y-58166000D02*
X185166000Y-58166000D01*
X105156000Y-63246000D02*
X105156000Y-58166000D01*
X105156000Y-63246000D02*
X105156000Y-129286000D01*
X105156000Y-129286000D02*
X148336000Y-129286000D01*
X105156000Y-124206000D02*
X105156000Y-129286000D01*
D13*
X179832000Y-63500000D03*
D14*
X147066000Y-82296000D03*
D15*
X147066000Y-79756000D03*
D16*
X117856000Y-68326000D03*
D17*
X120396000Y-68326000D03*
D16*
X117856000Y-79756000D03*
D17*
X120396000Y-79756000D03*
D16*
X117856000Y-86106000D03*
D17*
X120396000Y-86106000D03*
D16*
X117856000Y-92456000D03*
D17*
X120396000Y-92456000D03*
D16*
X117856000Y-98806000D03*
D17*
X120396000Y-98806000D03*
D16*
X117856000Y-105156000D03*
D17*
X120396000Y-105156000D03*
D16*
X117856000Y-111506000D03*
D17*
X120396000Y-111506000D03*
D16*
X117856000Y-117856000D03*
D17*
X120396000Y-117856000D03*
D16*
X117856000Y-124206000D03*
D17*
X120396000Y-124206000D03*
D18*
X147068540Y-117856000D03*
D19*
X147068540Y-107696000D03*
D18*
X147063460Y-92456000D03*
D19*
X147063460Y-102616000D03*
D18*
X125476000Y-63248540D03*
D19*
X135636000Y-63248540D03*
D14*
X110236000Y-124206000D03*
D15*
X110236000Y-121666000D03*
D20*
X149606000Y-124206000D03*
X110236000Y-79756000D03*
D21*
X110236000Y-92456000D03*
D22*
X110236000Y-94996000D03*
X110236000Y-97536000D03*
X110236000Y-100076000D03*
X110236000Y-102616000D03*
X110236000Y-105156000D03*
D23*
X138176000Y-124206000D03*
D24*
X140716000Y-124206000D03*
X143256000Y-124206000D03*
D21*
X110236000Y-110236000D03*
D22*
X110236000Y-112776000D03*
X110236000Y-115316000D03*
D20*
X125476000Y-124206000D03*
X131826000Y-124206000D03*
D18*
X125476000Y-68326000D03*
X140476000Y-68326000D03*
X125476000Y-79756000D03*
X140476000Y-79756000D03*
X125476000Y-86106000D03*
X140476000Y-86106000D03*
X125476000Y-92456000D03*
X140476000Y-92456000D03*
X125476000Y-98806000D03*
X140476000Y-98806000D03*
X125476000Y-105156000D03*
X140476000Y-105156000D03*
X140716000Y-111506000D03*
X125716000Y-111506000D03*
X125476000Y-117856000D03*
X140476000Y-117856000D03*
D21*
X110236000Y-68326000D03*
D22*
X110236000Y-65786000D03*
X110236000Y-63246000D03*
D13*
X179832000Y-123952000D03*
X110236000Y-85852000D03*
D25*
X147063460Y-92456000D02*
X147063460Y-82298540D01*
X147063460Y-82298540D02*
X147066000Y-82296000D01*
X126746000Y-83566000D02*
X129286000Y-83566000D01*
X129286000Y-86106000D02*
X129286000Y-83566000D01*
X129286000Y-83566000D02*
X129286000Y-77216000D01*
X129286000Y-77216000D02*
X130556000Y-75946000D01*
X130556000Y-75946000D02*
X145796000Y-75946000D01*
X145796000Y-75946000D02*
X147066000Y-77216000D01*
X147066000Y-77216000D02*
X147066000Y-79756000D01*
X117856000Y-111506000D02*
X110236000Y-111506000D01*
X110236000Y-115316000D02*
X110236000Y-111506000D01*
X110236000Y-111506000D02*
X110236000Y-110236000D01*
X117856000Y-86106000D02*
X117856000Y-84836000D01*
X117856000Y-108966000D02*
X117856000Y-117856000D01*
X119126000Y-107696000D02*
X117856000Y-108966000D01*
X128016000Y-107696000D02*
X119126000Y-107696000D01*
X129286000Y-106426000D02*
X128016000Y-107696000D01*
X129286000Y-86106000D02*
X129286000Y-106426000D01*
X119126000Y-83566000D02*
X126746000Y-83566000D01*
X117856000Y-84836000D02*
X119126000Y-83566000D01*
X110236000Y-68326000D02*
X117856000Y-68326000D01*
X120396000Y-68326000D02*
X125476000Y-68326000D01*
X117856000Y-79756000D02*
X110236000Y-79756000D01*
X120396000Y-79756000D02*
X125476000Y-79756000D01*
X120396000Y-86106000D02*
X125476000Y-86106000D01*
X110236000Y-94996000D02*
X110236000Y-92456000D01*
X110236000Y-92456000D02*
X117856000Y-92456000D01*
X125476000Y-92456000D02*
X120396000Y-92456000D01*
X117856000Y-98806000D02*
X110236000Y-98806000D01*
X110236000Y-100076000D02*
X110236000Y-98806000D01*
X110236000Y-98806000D02*
X110236000Y-97536000D01*
X125476000Y-98806000D02*
X120396000Y-98806000D01*
X117856000Y-105156000D02*
X110236000Y-105156000D01*
X110236000Y-105156000D02*
X110236000Y-102616000D01*
X120396000Y-105156000D02*
X125476000Y-105156000D01*
X125716000Y-111506000D02*
X120396000Y-111506000D01*
X125476000Y-117856000D02*
X120396000Y-117856000D01*
X110236000Y-124206000D02*
X117856000Y-124206000D01*
X110236000Y-121666000D02*
X119126000Y-121666000D01*
X119126000Y-121666000D02*
X120396000Y-122936000D01*
X120396000Y-122936000D02*
X120396000Y-124206000D01*
X147068540Y-117856000D02*
X143256000Y-117856000D01*
X143256000Y-124206000D02*
X143256000Y-117856000D01*
X143256000Y-117856000D02*
X143256000Y-107936000D01*
X143256000Y-107936000D02*
X140476000Y-105156000D01*
X138176000Y-124206000D02*
X143256000Y-124206000D01*
X140476000Y-79756000D02*
X140476000Y-102616000D01*
X140476000Y-102616000D02*
X140476000Y-105156000D01*
X147068540Y-107696000D02*
X148336000Y-107696000D01*
X149606000Y-108966000D02*
X149606000Y-124206000D01*
X148336000Y-107696000D02*
X149606000Y-108966000D01*
X147068540Y-107696000D02*
X147068540Y-102621080D01*
X147068540Y-102621080D02*
X147063460Y-102616000D01*
X110236000Y-63246000D02*
X125473460Y-63246000D01*
X125473460Y-63246000D02*
X125476000Y-63248540D01*
X125473460Y-63246000D02*
X125476000Y-63248540D01*
X135636000Y-63248540D02*
X139443460Y-63248540D01*
X140710920Y-64516000D02*
X140710920Y-68091080D01*
X139443460Y-63248540D02*
X140710920Y-64516000D01*
X140710920Y-68091080D02*
X140476000Y-68326000D01*
X125476000Y-124206000D02*
X125476000Y-122936000D01*
X136906000Y-111506000D02*
X140716000Y-111506000D01*
X125476000Y-122936000D02*
X136906000Y-111506000D01*
X131826000Y-124206000D02*
X131826000Y-120396000D01*
X134366000Y-117856000D02*
X140476000Y-117856000D01*
X131826000Y-120396000D02*
X134366000Y-117856000D01*
M02*
