%FSLAX45Y45*%
G04 Gerber Fmt 4.5, Leading zero omitted, Abs format (unit mm)*
G04 Created by KiCad (PCBNEW 5.1.5+dfsg1-2build2) date 2024-04-23 22:32:17*
%MOMM*%
%LPD*%
G04 APERTURE LIST*
%TA.AperFunction,Profile*%
%ADD10C,0.150000*%
%TD*%
%ADD11C,0.200000*%
%ADD12C,0.300000*%
G04 APERTURE END LIST*
D10*
X18516600Y-12928600D02*
X14833600Y-12928600D01*
X18516600Y-5816600D02*
X18516600Y-12928600D01*
X10515600Y-5816600D02*
X18516600Y-5816600D01*
X10515600Y-6324600D02*
X10515600Y-5816600D01*
X10515600Y-6324600D02*
X10515600Y-12928600D01*
X10515600Y-12928600D02*
X14833600Y-12928600D01*
X10515600Y-12420600D02*
X10515600Y-12928600D01*
D11*
D12*
X10794528Y-13401814D02*
X10794528Y-13101814D01*
X10865957Y-13101814D01*
X10908814Y-13116100D01*
X10937386Y-13144671D01*
X10951671Y-13173243D01*
X10965957Y-13230386D01*
X10965957Y-13273243D01*
X10951671Y-13330386D01*
X10937386Y-13358957D01*
X10908814Y-13387529D01*
X10865957Y-13401814D01*
X10794528Y-13401814D01*
X11094528Y-13401814D02*
X11094528Y-13201814D01*
X11094528Y-13258957D02*
X11108814Y-13230386D01*
X11123100Y-13216100D01*
X11151671Y-13201814D01*
X11180243Y-13201814D01*
X11280243Y-13401814D02*
X11280243Y-13201814D01*
X11280243Y-13101814D02*
X11265957Y-13116100D01*
X11280243Y-13130386D01*
X11294528Y-13116100D01*
X11280243Y-13101814D01*
X11280243Y-13130386D01*
X11465957Y-13401814D02*
X11437386Y-13387529D01*
X11423100Y-13358957D01*
X11423100Y-13101814D01*
X11623100Y-13401814D02*
X11594528Y-13387529D01*
X11580243Y-13358957D01*
X11580243Y-13101814D01*
X11965957Y-13401814D02*
X11965957Y-13101814D01*
X12065957Y-13316100D01*
X12165957Y-13101814D01*
X12165957Y-13401814D01*
X12437386Y-13401814D02*
X12437386Y-13244671D01*
X12423100Y-13216100D01*
X12394528Y-13201814D01*
X12337386Y-13201814D01*
X12308814Y-13216100D01*
X12437386Y-13387529D02*
X12408814Y-13401814D01*
X12337386Y-13401814D01*
X12308814Y-13387529D01*
X12294528Y-13358957D01*
X12294528Y-13330386D01*
X12308814Y-13301814D01*
X12337386Y-13287529D01*
X12408814Y-13287529D01*
X12437386Y-13273243D01*
X12580243Y-13201814D02*
X12580243Y-13501814D01*
X12580243Y-13216100D02*
X12608814Y-13201814D01*
X12665957Y-13201814D01*
X12694528Y-13216100D01*
X12708814Y-13230386D01*
X12723100Y-13258957D01*
X12723100Y-13344671D01*
X12708814Y-13373243D01*
X12694528Y-13387529D01*
X12665957Y-13401814D01*
X12608814Y-13401814D01*
X12580243Y-13387529D01*
X12851671Y-13373243D02*
X12865957Y-13387529D01*
X12851671Y-13401814D01*
X12837386Y-13387529D01*
X12851671Y-13373243D01*
X12851671Y-13401814D01*
X12851671Y-13216100D02*
X12865957Y-13230386D01*
X12851671Y-13244671D01*
X12837386Y-13230386D01*
X12851671Y-13216100D01*
X12851671Y-13244671D01*
M02*
