<?xml version="1.0" standalone="no"?>
 <!DOCTYPE svg PUBLIC "-//W3C//DTD SVG 1.1//EN" 
 "http://www.w3.org/Graphics/SVG/1.1/DTD/svg11.dtd"> 
<svg xmlns="http://www.w3.org/2000/svg" version="1.1" 
    width="29.7002cm" height="21.0007cm" viewBox="0 0 116930 82680 ">
<title>SVG Picture created as display-F.SilkS.svg date 2020/10/29 19:53:53 </title>
  <desc>Picture generated by PCBNEW </desc>
<g style="fill:#000000; fill-opacity:1;stroke:#000000; stroke-opacity:1;
stroke-linecap:round; stroke-linejoin:round; "
 transform="translate(0 0) scale(1 1)">
</g>
<g style="fill:#000000; fill-opacity:0.0; 
stroke:#000000; stroke-width:-0.000393701; stroke-opacity:1; 
stroke-linecap:round; stroke-linejoin:round;">
</g>
<g style="fill:#000000; fill-opacity:0.0; 
stroke:#000000; stroke-width:39.3701; stroke-opacity:1; 
stroke-linecap:round; stroke-linejoin:round;">
</g>
<g style="fill:#000000; fill-opacity:0.0; 
stroke:#000000; stroke-width:59.0551; stroke-opacity:1; 
stroke-linecap:round; stroke-linejoin:round;">
<rect x="69685.9" y="65357.2" width="42519.7" height="12598.4" rx="0" />
</g>
<g style="fill:#000000; fill-opacity:0.0; 
stroke:#000000; stroke-width:39.3701; stroke-opacity:1; 
stroke-linecap:round; stroke-linejoin:round;">
</g>
<g style="fill:#000000; fill-opacity:0.0; 
stroke:#000000; stroke-width:59.0551; stroke-opacity:1; 
stroke-linecap:round; stroke-linejoin:round;">
<rect x="3937.01" y="3937.01" width="109056" height="74806" rx="0" />
</g>
<g style="fill:#000000; fill-opacity:0.0; 
stroke:#000000; stroke-width:39.3701; stroke-opacity:1; 
stroke-linecap:round; stroke-linejoin:round;">
</g>
<g style="fill:#000000; fill-opacity:0.0; 
stroke:#000000; stroke-width:59.0551; stroke-opacity:1; 
stroke-linecap:round; stroke-linejoin:round;">
<rect x="4724.41" y="4724.41" width="107481" height="73231.2" rx="0" />
</g>
<g style="fill:#000000; fill-opacity:0.0; 
stroke:#000000; stroke-width:39.3701; stroke-opacity:1; 
stroke-linecap:round; stroke-linejoin:round;">
</g>
<g style="fill:#000000; fill-opacity:0.0; 
stroke:#000000; stroke-width:59.0551; stroke-opacity:1; 
stroke-linecap:round; stroke-linejoin:round;">
<path d="M23622 4724
L23622 3937
" />
</g>
<g style="fill:#000000; fill-opacity:0.0; 
stroke:#000000; stroke-width:39.3701; stroke-opacity:1; 
stroke-linecap:round; stroke-linejoin:round;">
</g>
<g style="fill:#000000; fill-opacity:0.0; 
stroke:#000000; stroke-width:59.0551; stroke-opacity:1; 
stroke-linecap:round; stroke-linejoin:round;">
<path d="M43307 4724
L43307 3937
" />
</g>
<g style="fill:#000000; fill-opacity:0.0; 
stroke:#000000; stroke-width:39.3701; stroke-opacity:1; 
stroke-linecap:round; stroke-linejoin:round;">
</g>
<g style="fill:#000000; fill-opacity:0.0; 
stroke:#000000; stroke-width:59.0551; stroke-opacity:1; 
stroke-linecap:round; stroke-linejoin:round;">
<path d="M62992 4724
L62992 3937
" />
</g>
<g style="fill:#000000; fill-opacity:0.0; 
stroke:#000000; stroke-width:39.3701; stroke-opacity:1; 
stroke-linecap:round; stroke-linejoin:round;">
</g>
<g style="fill:#000000; fill-opacity:0.0; 
stroke:#000000; stroke-width:59.0551; stroke-opacity:1; 
stroke-linecap:round; stroke-linejoin:round;">
<path d="M82677 4724
L82677 3937
" />
</g>
<g style="fill:#000000; fill-opacity:0.0; 
stroke:#000000; stroke-width:39.3701; stroke-opacity:1; 
stroke-linecap:round; stroke-linejoin:round;">
</g>
<g style="fill:#000000; fill-opacity:0.0; 
stroke:#000000; stroke-width:59.0551; stroke-opacity:1; 
stroke-linecap:round; stroke-linejoin:round;">
<path d="M102362 4724
L102362 3937
" />
</g>
<g style="fill:#000000; fill-opacity:0.0; 
stroke:#000000; stroke-width:39.3701; stroke-opacity:1; 
stroke-linecap:round; stroke-linejoin:round;">
</g>
<g style="fill:#000000; fill-opacity:0.0; 
stroke:#000000; stroke-width:59.0551; stroke-opacity:1; 
stroke-linecap:round; stroke-linejoin:round;">
<path d="M14169 4562
L13877 4562
" />
<path d="M14023 4562
L14023 4050
L13974 4123
L13925 4172
L13877 4196
" />
</g>
<g style="fill:#000000; fill-opacity:0.0; 
stroke:#000000; stroke-width:39.3701; stroke-opacity:1; 
stroke-linecap:round; stroke-linejoin:round;">
</g>
<g style="fill:#000000; fill-opacity:0.0; 
stroke:#000000; stroke-width:59.0551; stroke-opacity:1; 
stroke-linecap:round; stroke-linejoin:round;">
<path d="M33562 4099
L33586 4074
L33635 4050
L33757 4050
L33805 4074
L33830 4099
L33854 4147
L33854 4196
L33830 4269
L33537 4562
L33854 4562
" />
</g>
<g style="fill:#000000; fill-opacity:0.0; 
stroke:#000000; stroke-width:39.3701; stroke-opacity:1; 
stroke-linecap:round; stroke-linejoin:round;">
</g>
<g style="fill:#000000; fill-opacity:0.0; 
stroke:#000000; stroke-width:59.0551; stroke-opacity:1; 
stroke-linecap:round; stroke-linejoin:round;">
<path d="M53222 4050
L53539 4050
L53368 4245
L53442 4245
L53490 4269
L53515 4294
L53539 4342
L53539 4464
L53515 4513
L53490 4537
L53442 4562
L53295 4562
L53247 4537
L53222 4513
" />
</g>
<g style="fill:#000000; fill-opacity:0.0; 
stroke:#000000; stroke-width:39.3701; stroke-opacity:1; 
stroke-linecap:round; stroke-linejoin:round;">
</g>
<g style="fill:#000000; fill-opacity:0.0; 
stroke:#000000; stroke-width:59.0551; stroke-opacity:1; 
stroke-linecap:round; stroke-linejoin:round;">
<path d="M73175 4221
L73175 4562
" />
<path d="M73053 4026
L72932 4391
L73248 4391
" />
</g>
<g style="fill:#000000; fill-opacity:0.0; 
stroke:#000000; stroke-width:39.3701; stroke-opacity:1; 
stroke-linecap:round; stroke-linejoin:round;">
</g>
<g style="fill:#000000; fill-opacity:0.0; 
stroke:#000000; stroke-width:59.0551; stroke-opacity:1; 
stroke-linecap:round; stroke-linejoin:round;">
<path d="M92885 4050
L92641 4050
L92617 4294
L92641 4269
L92690 4245
L92812 4245
L92860 4269
L92885 4294
L92909 4342
L92909 4464
L92885 4513
L92860 4537
L92812 4562
L92690 4562
L92641 4537
L92617 4513
" />
</g>
<g style="fill:#000000; fill-opacity:0.0; 
stroke:#000000; stroke-width:39.3701; stroke-opacity:1; 
stroke-linecap:round; stroke-linejoin:round;">
</g>
<g style="fill:#000000; fill-opacity:0.0; 
stroke:#000000; stroke-width:59.0551; stroke-opacity:1; 
stroke-linecap:round; stroke-linejoin:round;">
<path d="M112545 4050
L112448 4050
L112399 4074
L112375 4099
L112326 4172
L112302 4269
L112302 4464
L112326 4513
L112350 4537
L112399 4562
L112497 4562
L112545 4537
L112570 4513
L112594 4464
L112594 4342
L112570 4294
L112545 4269
L112497 4245
L112399 4245
L112350 4269
L112326 4294
L112302 4342
" />
</g>
<g style="fill:#000000; fill-opacity:0.0; 
stroke:#000000; stroke-width:39.3701; stroke-opacity:1; 
stroke-linecap:round; stroke-linejoin:round;">
</g>
<g style="fill:#000000; fill-opacity:0.0; 
stroke:#000000; stroke-width:59.0551; stroke-opacity:1; 
stroke-linecap:round; stroke-linejoin:round;">
<path d="M23622 77955
L23622 78742
" />
</g>
<g style="fill:#000000; fill-opacity:0.0; 
stroke:#000000; stroke-width:39.3701; stroke-opacity:1; 
stroke-linecap:round; stroke-linejoin:round;">
</g>
<g style="fill:#000000; fill-opacity:0.0; 
stroke:#000000; stroke-width:59.0551; stroke-opacity:1; 
stroke-linecap:round; stroke-linejoin:round;">
<path d="M43307 77955
L43307 78742
" />
</g>
<g style="fill:#000000; fill-opacity:0.0; 
stroke:#000000; stroke-width:39.3701; stroke-opacity:1; 
stroke-linecap:round; stroke-linejoin:round;">
</g>
<g style="fill:#000000; fill-opacity:0.0; 
stroke:#000000; stroke-width:59.0551; stroke-opacity:1; 
stroke-linecap:round; stroke-linejoin:round;">
<path d="M62992 77955
L62992 78742
" />
</g>
<g style="fill:#000000; fill-opacity:0.0; 
stroke:#000000; stroke-width:39.3701; stroke-opacity:1; 
stroke-linecap:round; stroke-linejoin:round;">
</g>
<g style="fill:#000000; fill-opacity:0.0; 
stroke:#000000; stroke-width:59.0551; stroke-opacity:1; 
stroke-linecap:round; stroke-linejoin:round;">
<path d="M82677 77955
L82677 78742
" />
</g>
<g style="fill:#000000; fill-opacity:0.0; 
stroke:#000000; stroke-width:39.3701; stroke-opacity:1; 
stroke-linecap:round; stroke-linejoin:round;">
</g>
<g style="fill:#000000; fill-opacity:0.0; 
stroke:#000000; stroke-width:59.0551; stroke-opacity:1; 
stroke-linecap:round; stroke-linejoin:round;">
<path d="M102362 77955
L102362 78742
" />
</g>
<g style="fill:#000000; fill-opacity:0.0; 
stroke:#000000; stroke-width:39.3701; stroke-opacity:1; 
stroke-linecap:round; stroke-linejoin:round;">
</g>
<g style="fill:#000000; fill-opacity:0.0; 
stroke:#000000; stroke-width:59.0551; stroke-opacity:1; 
stroke-linecap:round; stroke-linejoin:round;">
<path d="M14169 78580
L13877 78580
" />
<path d="M14023 78580
L14023 78069
L13974 78142
L13925 78190
L13877 78215
" />
</g>
<g style="fill:#000000; fill-opacity:0.0; 
stroke:#000000; stroke-width:39.3701; stroke-opacity:1; 
stroke-linecap:round; stroke-linejoin:round;">
</g>
<g style="fill:#000000; fill-opacity:0.0; 
stroke:#000000; stroke-width:59.0551; stroke-opacity:1; 
stroke-linecap:round; stroke-linejoin:round;">
<path d="M33562 78117
L33586 78093
L33635 78069
L33757 78069
L33805 78093
L33830 78117
L33854 78166
L33854 78215
L33830 78288
L33537 78580
L33854 78580
" />
</g>
<g style="fill:#000000; fill-opacity:0.0; 
stroke:#000000; stroke-width:39.3701; stroke-opacity:1; 
stroke-linecap:round; stroke-linejoin:round;">
</g>
<g style="fill:#000000; fill-opacity:0.0; 
stroke:#000000; stroke-width:59.0551; stroke-opacity:1; 
stroke-linecap:round; stroke-linejoin:round;">
<path d="M53222 78069
L53539 78069
L53368 78263
L53442 78263
L53490 78288
L53515 78312
L53539 78361
L53539 78483
L53515 78532
L53490 78556
L53442 78580
L53295 78580
L53247 78556
L53222 78532
" />
</g>
<g style="fill:#000000; fill-opacity:0.0; 
stroke:#000000; stroke-width:39.3701; stroke-opacity:1; 
stroke-linecap:round; stroke-linejoin:round;">
</g>
<g style="fill:#000000; fill-opacity:0.0; 
stroke:#000000; stroke-width:59.0551; stroke-opacity:1; 
stroke-linecap:round; stroke-linejoin:round;">
<path d="M73175 78239
L73175 78580
" />
<path d="M73053 78044
L72932 78410
L73248 78410
" />
</g>
<g style="fill:#000000; fill-opacity:0.0; 
stroke:#000000; stroke-width:39.3701; stroke-opacity:1; 
stroke-linecap:round; stroke-linejoin:round;">
</g>
<g style="fill:#000000; fill-opacity:0.0; 
stroke:#000000; stroke-width:59.0551; stroke-opacity:1; 
stroke-linecap:round; stroke-linejoin:round;">
<path d="M92885 78069
L92641 78069
L92617 78312
L92641 78288
L92690 78263
L92812 78263
L92860 78288
L92885 78312
L92909 78361
L92909 78483
L92885 78532
L92860 78556
L92812 78580
L92690 78580
L92641 78556
L92617 78532
" />
</g>
<g style="fill:#000000; fill-opacity:0.0; 
stroke:#000000; stroke-width:39.3701; stroke-opacity:1; 
stroke-linecap:round; stroke-linejoin:round;">
</g>
<g style="fill:#000000; fill-opacity:0.0; 
stroke:#000000; stroke-width:59.0551; stroke-opacity:1; 
stroke-linecap:round; stroke-linejoin:round;">
<path d="M112545 78069
L112448 78069
L112399 78093
L112375 78117
L112326 78190
L112302 78288
L112302 78483
L112326 78532
L112350 78556
L112399 78580
L112497 78580
L112545 78556
L112570 78532
L112594 78483
L112594 78361
L112570 78312
L112545 78288
L112497 78263
L112399 78263
L112350 78288
L112326 78312
L112302 78361
" />
</g>
<g style="fill:#000000; fill-opacity:0.0; 
stroke:#000000; stroke-width:39.3701; stroke-opacity:1; 
stroke-linecap:round; stroke-linejoin:round;">
</g>
<g style="fill:#000000; fill-opacity:0.0; 
stroke:#000000; stroke-width:59.0551; stroke-opacity:1; 
stroke-linecap:round; stroke-linejoin:round;">
<path d="M3937 23622
L4724 23622
" />
</g>
<g style="fill:#000000; fill-opacity:0.0; 
stroke:#000000; stroke-width:39.3701; stroke-opacity:1; 
stroke-linecap:round; stroke-linejoin:round;">
</g>
<g style="fill:#000000; fill-opacity:0.0; 
stroke:#000000; stroke-width:59.0551; stroke-opacity:1; 
stroke-linecap:round; stroke-linejoin:round;">
<path d="M3937 43307
L4724 43307
" />
</g>
<g style="fill:#000000; fill-opacity:0.0; 
stroke:#000000; stroke-width:39.3701; stroke-opacity:1; 
stroke-linecap:round; stroke-linejoin:round;">
</g>
<g style="fill:#000000; fill-opacity:0.0; 
stroke:#000000; stroke-width:59.0551; stroke-opacity:1; 
stroke-linecap:round; stroke-linejoin:round;">
<path d="M3937 62992
L4724 62992
" />
</g>
<g style="fill:#000000; fill-opacity:0.0; 
stroke:#000000; stroke-width:39.3701; stroke-opacity:1; 
stroke-linecap:round; stroke-linejoin:round;">
</g>
<g style="fill:#000000; fill-opacity:0.0; 
stroke:#000000; stroke-width:59.0551; stroke-opacity:1; 
stroke-linecap:round; stroke-linejoin:round;">
<path d="M4208 13864
L4452 13864
" />
<path d="M4160 14011
L4330 13499
L4501 14011
" />
</g>
<g style="fill:#000000; fill-opacity:0.0; 
stroke:#000000; stroke-width:39.3701; stroke-opacity:1; 
stroke-linecap:round; stroke-linejoin:round;">
</g>
<g style="fill:#000000; fill-opacity:0.0; 
stroke:#000000; stroke-width:59.0551; stroke-opacity:1; 
stroke-linecap:round; stroke-linejoin:round;">
<path d="M4367 33428
L4440 33452
L4464 33476
L4489 33525
L4489 33598
L4464 33647
L4440 33671
L4391 33696
L4196 33696
L4196 33184
L4367 33184
L4416 33208
L4440 33233
L4464 33281
L4464 33330
L4440 33379
L4416 33403
L4367 33428
L4196 33428
" />
</g>
<g style="fill:#000000; fill-opacity:0.0; 
stroke:#000000; stroke-width:39.3701; stroke-opacity:1; 
stroke-linecap:round; stroke-linejoin:round;">
</g>
<g style="fill:#000000; fill-opacity:0.0; 
stroke:#000000; stroke-width:59.0551; stroke-opacity:1; 
stroke-linecap:round; stroke-linejoin:round;">
<path d="M4489 53332
L4464 53356
L4391 53381
L4342 53381
L4269 53356
L4221 53308
L4196 53259
L4172 53161
L4172 53088
L4196 52991
L4221 52942
L4269 52893
L4342 52869
L4391 52869
L4464 52893
L4489 52918
" />
</g>
<g style="fill:#000000; fill-opacity:0.0; 
stroke:#000000; stroke-width:39.3701; stroke-opacity:1; 
stroke-linecap:round; stroke-linejoin:round;">
</g>
<g style="fill:#000000; fill-opacity:0.0; 
stroke:#000000; stroke-width:59.0551; stroke-opacity:1; 
stroke-linecap:round; stroke-linejoin:round;">
<path d="M4196 73066
L4196 72554
L4318 72554
L4391 72578
L4440 72627
L4464 72676
L4489 72773
L4489 72846
L4464 72944
L4440 72993
L4391 73041
L4318 73066
L4196 73066
" />
</g>
<g style="fill:#000000; fill-opacity:0.0; 
stroke:#000000; stroke-width:39.3701; stroke-opacity:1; 
stroke-linecap:round; stroke-linejoin:round;">
</g>
<g style="fill:#000000; fill-opacity:0.0; 
stroke:#000000; stroke-width:59.0551; stroke-opacity:1; 
stroke-linecap:round; stroke-linejoin:round;">
<path d="M112992 23622
L112205 23622
" />
</g>
<g style="fill:#000000; fill-opacity:0.0; 
stroke:#000000; stroke-width:39.3701; stroke-opacity:1; 
stroke-linecap:round; stroke-linejoin:round;">
</g>
<g style="fill:#000000; fill-opacity:0.0; 
stroke:#000000; stroke-width:59.0551; stroke-opacity:1; 
stroke-linecap:round; stroke-linejoin:round;">
<path d="M112992 43307
L112205 43307
" />
</g>
<g style="fill:#000000; fill-opacity:0.0; 
stroke:#000000; stroke-width:39.3701; stroke-opacity:1; 
stroke-linecap:round; stroke-linejoin:round;">
</g>
<g style="fill:#000000; fill-opacity:0.0; 
stroke:#000000; stroke-width:59.0551; stroke-opacity:1; 
stroke-linecap:round; stroke-linejoin:round;">
<path d="M112992 62992
L112205 62992
" />
</g>
<g style="fill:#000000; fill-opacity:0.0; 
stroke:#000000; stroke-width:39.3701; stroke-opacity:1; 
stroke-linecap:round; stroke-linejoin:round;">
</g>
<g style="fill:#000000; fill-opacity:0.0; 
stroke:#000000; stroke-width:59.0551; stroke-opacity:1; 
stroke-linecap:round; stroke-linejoin:round;">
<path d="M112477 13864
L112721 13864
" />
<path d="M112428 14011
L112599 13499
L112769 14011
" />
</g>
<g style="fill:#000000; fill-opacity:0.0; 
stroke:#000000; stroke-width:39.3701; stroke-opacity:1; 
stroke-linecap:round; stroke-linejoin:round;">
</g>
<g style="fill:#000000; fill-opacity:0.0; 
stroke:#000000; stroke-width:59.0551; stroke-opacity:1; 
stroke-linecap:round; stroke-linejoin:round;">
<path d="M112635 33428
L112708 33452
L112733 33476
L112757 33525
L112757 33598
L112733 33647
L112708 33671
L112660 33696
L112465 33696
L112465 33184
L112635 33184
L112684 33208
L112708 33233
L112733 33281
L112733 33330
L112708 33379
L112684 33403
L112635 33428
L112465 33428
" />
</g>
<g style="fill:#000000; fill-opacity:0.0; 
stroke:#000000; stroke-width:39.3701; stroke-opacity:1; 
stroke-linecap:round; stroke-linejoin:round;">
</g>
<g style="fill:#000000; fill-opacity:0.0; 
stroke:#000000; stroke-width:59.0551; stroke-opacity:1; 
stroke-linecap:round; stroke-linejoin:round;">
<path d="M112757 53332
L112733 53356
L112660 53381
L112611 53381
L112538 53356
L112489 53308
L112465 53259
L112440 53161
L112440 53088
L112465 52991
L112489 52942
L112538 52893
L112611 52869
L112660 52869
L112733 52893
L112757 52918
" />
</g>
<g style="fill:#000000; fill-opacity:0.0; 
stroke:#000000; stroke-width:39.3701; stroke-opacity:1; 
stroke-linecap:round; stroke-linejoin:round;">
</g>
<g style="fill:#000000; fill-opacity:0.0; 
stroke:#000000; stroke-width:59.0551; stroke-opacity:1; 
stroke-linecap:round; stroke-linejoin:round;">
<path d="M112465 73066
L112465 72554
L112587 72554
L112660 72578
L112708 72627
L112733 72676
L112757 72773
L112757 72846
L112733 72944
L112708 72993
L112660 73041
L112587 73066
L112465 73066
" />
</g>
<g style="fill:#000000; fill-opacity:0.0; 
stroke:#000000; stroke-width:39.3701; stroke-opacity:1; 
stroke-linecap:round; stroke-linejoin:round;">
</g>
<g style="fill:#000000; fill-opacity:0.0; 
stroke:#000000; stroke-width:59.0551; stroke-opacity:1; 
stroke-linecap:round; stroke-linejoin:round;">
<path d="M78881 76293
L78881 75703
L79022 75703
L79106 75731
L79162 75787
L79190 75843
L79219 75956
L79219 76040
L79190 76153
L79162 76209
L79106 76265
L79022 76293
L78881 76293
" />
<path d="M79725 76293
L79725 75984
L79697 75928
L79640 75899
L79528 75899
L79472 75928
" />
<path d="M79725 76265
L79669 76293
L79528 76293
L79472 76265
L79444 76209
L79444 76153
L79472 76096
L79528 76068
L79669 76068
L79725 76040
" />
<path d="M79922 75899
L80147 75899
" />
<path d="M80006 75703
L80006 76209
L80034 76265
L80090 76293
L80147 76293
" />
<path d="M80568 76265
L80512 76293
L80400 76293
L80343 76265
L80315 76209
L80315 75984
L80343 75928
L80400 75899
L80512 75899
L80568 75928
L80597 75984
L80597 76040
L80315 76096
" />
<path d="M80850 76237
L80878 76265
L80850 76293
L80822 76265
L80850 76237
L80850 76293
" />
<path d="M80850 75928
L80878 75956
L80850 75984
L80822 75956
L80850 75928
L80850 75984
" />
<path d="M81553 75759
L81581 75731
L81637 75703
L81778 75703
L81834 75731
L81862 75759
L81890 75815
L81890 75871
L81862 75956
L81525 76293
L81890 76293
" />
<path d="M82256 75703
L82312 75703
L82368 75731
L82396 75759
L82424 75815
L82453 75928
L82453 76068
L82424 76181
L82396 76237
L82368 76265
L82312 76293
L82256 76293
L82199 76265
L82171 76237
L82143 76181
L82115 76068
L82115 75928
L82143 75815
L82171 75759
L82199 75731
L82256 75703
" />
<path d="M82678 75759
L82706 75731
L82762 75703
L82903 75703
L82959 75731
L82987 75759
L83015 75815
L83015 75871
L82987 75956
L82649 76293
L83015 76293
" />
<path d="M83381 75703
L83437 75703
L83493 75731
L83521 75759
L83549 75815
L83577 75928
L83577 76068
L83549 76181
L83521 76237
L83493 76265
L83437 76293
L83381 76293
L83324 76265
L83296 76237
L83268 76181
L83240 76068
L83240 75928
L83268 75815
L83296 75759
L83324 75731
L83381 75703
" />
<path d="M83831 76068
L84280 76068
" />
<path d="M84871 76293
L84534 76293
" />
<path d="M84702 76293
L84702 75703
L84646 75787
L84590 75843
L84534 75871
" />
<path d="M85237 75703
L85293 75703
L85349 75731
L85377 75759
L85405 75815
L85433 75928
L85433 76068
L85405 76181
L85377 76237
L85349 76265
L85293 76293
L85237 76293
L85180 76265
L85152 76237
L85124 76181
L85096 76068
L85096 75928
L85124 75815
L85152 75759
L85180 75731
L85237 75703
" />
<path d="M85687 76068
L86136 76068
" />
<path d="M86390 75759
L86418 75731
L86474 75703
L86615 75703
L86671 75731
L86699 75759
L86727 75815
L86727 75871
L86699 75956
L86361 76293
L86727 76293
" />
<path d="M87233 75703
L87121 75703
L87064 75731
L87036 75759
L86980 75843
L86952 75956
L86952 76181
L86980 76237
L87008 76265
L87064 76293
L87177 76293
L87233 76265
L87261 76237
L87289 76181
L87289 76040
L87261 75984
L87233 75956
L87177 75928
L87064 75928
L87008 75956
L86980 75984
L86952 76040
" />
</g>
<g style="fill:#000000; fill-opacity:0.0; 
stroke:#000000; stroke-width:39.3701; stroke-opacity:1; 
stroke-linecap:round; stroke-linejoin:round;">
</g>
<g style="fill:#000000; fill-opacity:0.0; 
stroke:#000000; stroke-width:59.0551; stroke-opacity:1; 
stroke-linecap:round; stroke-linejoin:round;">
<path d="M69685 76577
L112205 76577
" />
</g>
<g style="fill:#000000; fill-opacity:0.0; 
stroke:#000000; stroke-width:39.3701; stroke-opacity:1; 
stroke-linecap:round; stroke-linejoin:round;">
</g>
<g style="fill:#000000; fill-opacity:0.0; 
stroke:#000000; stroke-width:59.0551; stroke-opacity:1; 
stroke-linecap:round; stroke-linejoin:round;">
<path d="M70220 77395
L70220 76805
" />
<path d="M70557 77395
L70304 77058
" />
<path d="M70557 76805
L70220 77142
" />
<path d="M70810 77395
L70810 77002
" />
<path d="M70810 76805
L70782 76833
L70810 76861
L70838 76833
L70810 76805
L70810 76861
" />
<path d="M71429 77339
L71401 77367
L71316 77395
L71260 77395
L71176 77367
L71120 77311
L71091 77255
L71063 77142
L71063 77058
L71091 76946
L71120 76889
L71176 76833
L71260 76805
L71316 76805
L71401 76833
L71429 76861
" />
<path d="M71935 77395
L71935 77086
L71907 77030
L71851 77002
L71738 77002
L71682 77030
" />
<path d="M71935 77367
L71879 77395
L71738 77395
L71682 77367
L71654 77311
L71654 77255
L71682 77199
L71738 77171
L71879 77171
L71935 77142
" />
<path d="M72469 77395
L72469 76805
" />
<path d="M72469 77367
L72413 77395
L72301 77395
L72244 77367
L72216 77339
L72188 77283
L72188 77114
L72216 77058
L72244 77030
L72301 77002
L72413 77002
L72469 77030
" />
<path d="M73201 77086
L73397 77086
" />
<path d="M73482 77395
L73201 77395
L73201 76805
L73482 76805
" />
<path d="M73735 77339
L73763 77367
L73735 77395
L73707 77367
L73735 77339
L73735 77395
" />
<path d="M74016 77395
L74016 76805
L74157 76805
L74241 76833
L74297 76889
L74325 76946
L74354 77058
L74354 77142
L74325 77255
L74297 77311
L74241 77367
L74157 77395
L74016 77395
" />
<path d="M74607 77339
L74635 77367
L74607 77395
L74579 77367
L74607 77339
L74607 77395
" />
<path d="M74860 77227
L75141 77227
" />
<path d="M74804 77395
L75000 76805
L75197 77395
" />
<path d="M75394 77339
L75422 77367
L75394 77395
L75366 77367
L75394 77339
L75394 77395
" />
<path d="M76575 77395
L76575 76805
" />
<path d="M76631 77171
L76800 77395
" />
<path d="M76800 77002
L76575 77227
" />
<path d="M77053 77395
L77053 77002
" />
<path d="M77053 76805
L77025 76833
L77053 76861
L77081 76833
L77053 76805
L77053 76861
" />
<path d="M77588 77367
L77531 77395
L77419 77395
L77363 77367
L77334 77339
L77306 77283
L77306 77114
L77334 77058
L77363 77030
L77419 77002
L77531 77002
L77588 77030
" />
<path d="M78094 77395
L78094 77086
L78066 77030
L78009 77002
L77897 77002
L77841 77030
" />
<path d="M78094 77367
L78037 77395
L77897 77395
L77841 77367
L77813 77311
L77813 77255
L77841 77199
L77897 77171
L78037 77171
L78094 77142
" />
<path d="M78628 77395
L78628 76805
" />
<path d="M78628 77367
L78572 77395
L78459 77395
L78403 77367
L78375 77339
L78347 77283
L78347 77114
L78375 77058
L78403 77030
L78459 77002
L78572 77002
L78628 77030
" />
<path d="M79612 77002
L79612 77395
" />
<path d="M79472 76777
L79331 77199
L79697 77199
" />
<path d="M79922 77339
L79950 77367
L79922 77395
L79894 77367
L79922 77339
L79922 77395
" />
<path d="M80315 76805
L80372 76805
L80428 76833
L80456 76861
L80484 76917
L80512 77030
L80512 77171
L80484 77283
L80456 77339
L80428 77367
L80372 77395
L80315 77395
L80259 77367
L80231 77339
L80203 77283
L80175 77171
L80175 77030
L80203 76917
L80231 76861
L80259 76833
L80315 76805
" />
<path d="M80765 77339
L80793 77367
L80765 77395
L80737 77367
L80765 77339
L80765 77395
" />
<path d="M81328 76805
L81046 76805
L81018 77086
L81046 77058
L81103 77030
L81243 77030
L81300 77058
L81328 77086
L81356 77142
L81356 77283
L81328 77339
L81300 77367
L81243 77395
L81103 77395
L81046 77367
L81018 77339
" />
<path d="M81609 77171
L82059 77171
" />
<path d="M81834 77395
L81834 76946
" />
<path d="M82593 77395
L82593 76805
" />
<path d="M82593 77367
L82537 77395
L82424 77395
L82368 77367
L82340 77339
L82312 77283
L82312 77114
L82340 77058
L82368 77030
L82424 77002
L82537 77002
L82593 77030
" />
<path d="M82790 77002
L83015 77002
" />
<path d="M82874 77395
L82874 76889
L82903 76833
L82959 76805
L83015 76805
" />
<path d="M83184 77367
L83240 77395
L83352 77395
L83409 77367
L83437 77311
L83437 77283
L83409 77227
L83352 77199
L83268 77199
L83212 77171
L83184 77114
L83184 77086
L83212 77030
L83268 77002
L83352 77002
L83409 77030
" />
<path d="M83943 77002
L83943 77480
L83915 77536
L83887 77564
L83831 77592
L83746 77592
L83690 77564
" />
<path d="M83943 77367
L83887 77395
L83774 77395
L83718 77367
L83690 77339
L83662 77283
L83662 77114
L83690 77058
L83718 77030
L83774 77002
L83887 77002
L83943 77030
" />
<path d="M84534 77395
L84196 77395
" />
<path d="M84365 77395
L84365 76805
L84309 76889
L84252 76946
L84196 76974
" />
<path d="M84787 77171
L85237 77171
" />
<path d="M85771 77002
L85771 77395
" />
<path d="M85630 76777
L85490 77199
L85855 77199
" />
</g>
<g style="fill:#000000; fill-opacity:0.0; 
stroke:#000000; stroke-width:39.3701; stroke-opacity:1; 
stroke-linecap:round; stroke-linejoin:round;">
</g>
<g style="fill:#000000; fill-opacity:0.0; 
stroke:#000000; stroke-width:59.0551; stroke-opacity:1; 
stroke-linecap:round; stroke-linejoin:round;">
<path d="M69685 75396
L112205 75396
" />
</g>
<g style="fill:#000000; fill-opacity:0.0; 
stroke:#000000; stroke-width:39.3701; stroke-opacity:1; 
stroke-linecap:round; stroke-linejoin:round;">
</g>
<g style="fill:#000000; fill-opacity:0.0; 
stroke:#000000; stroke-width:118.11; stroke-opacity:1; 
stroke-linecap:round; stroke-linejoin:round;">
<path d="M104022 76293
L103825 76012
" />
<path d="M103684 76293
L103684 75703
L103909 75703
L103965 75731
L103994 75759
L104022 75815
L104022 75899
L103994 75956
L103965 75984
L103909 76012
L103684 76012
" />
<path d="M104500 76265
L104444 76293
L104331 76293
L104275 76265
L104247 76209
L104247 75984
L104275 75928
L104331 75899
L104444 75899
L104500 75928
L104528 75984
L104528 76040
L104247 76096
" />
<path d="M104725 75899
L104865 76293
L105006 75899
" />
<path d="M105231 76237
L105259 76265
L105231 76293
L105203 76265
L105231 76237
L105231 76293
" />
<path d="M105231 75928
L105259 75956
L105231 75984
L105203 75956
L105231 75928
L105231 75984
" />
<path d="M105934 75759
L105962 75731
L106018 75703
L106159 75703
L106215 75731
L106243 75759
L106271 75815
L106271 75871
L106243 75956
L105906 76293
L106271 76293
" />
<path d="M106637 75703
L106693 75703
L106750 75731
L106778 75759
L106806 75815
L106834 75928
L106834 76068
L106806 76181
L106778 76237
L106750 76265
L106693 76293
L106637 76293
L106581 76265
L106553 76237
L106525 76181
L106496 76068
L106496 75928
L106525 75815
L106553 75759
L106581 75731
L106637 75703
" />
<path d="M107199 75703
L107256 75703
L107312 75731
L107340 75759
L107368 75815
L107396 75928
L107396 76068
L107368 76181
L107340 76237
L107312 76265
L107256 76293
L107199 76293
L107143 76265
L107115 76237
L107087 76181
L107059 76068
L107059 75928
L107087 75815
L107115 75759
L107143 75731
L107199 75703
" />
<path d="M107903 75703
L107790 75703
L107734 75731
L107706 75759
L107649 75843
L107621 75956
L107621 76181
L107649 76237
L107678 76265
L107734 76293
L107846 76293
L107903 76265
L107931 76237
L107959 76181
L107959 76040
L107931 75984
L107903 75956
L107846 75928
L107734 75928
L107678 75956
L107649 75984
L107621 76040
" />
<path d="M108521 76293
L108184 76293
" />
<path d="M108352 76293
L108352 75703
L108296 75787
L108240 75843
L108184 75871
" />
<path d="M108746 75759
L108774 75731
L108831 75703
L108971 75703
L109027 75731
L109055 75759
L109084 75815
L109084 75871
L109055 75956
L108718 76293
L109084 76293
" />
</g>
<g style="fill:#000000; fill-opacity:0.0; 
stroke:#000000; stroke-width:39.3701; stroke-opacity:1; 
stroke-linecap:round; stroke-linejoin:round;">
</g>
<g style="fill:#000000; fill-opacity:0.0; 
stroke:#000000; stroke-width:59.0551; stroke-opacity:1; 
stroke-linecap:round; stroke-linejoin:round;">
<path d="M70192 76265
L70276 76293
L70417 76293
L70473 76265
L70501 76237
L70529 76181
L70529 76124
L70501 76068
L70473 76040
L70417 76012
L70304 75984
L70248 75956
L70220 75928
L70192 75871
L70192 75815
L70220 75759
L70248 75731
L70304 75703
L70445 75703
L70529 75731
" />
<path d="M70782 76293
L70782 75899
" />
<path d="M70782 75703
L70754 75731
L70782 75759
L70810 75731
L70782 75703
L70782 75759
" />
<path d="M71007 75899
L71316 75899
L71007 76293
L71316 76293
" />
<path d="M71766 76265
L71710 76293
L71598 76293
L71541 76265
L71513 76209
L71513 75984
L71541 75928
L71598 75899
L71710 75899
L71766 75928
L71795 75984
L71795 76040
L71513 76096
" />
<path d="M72048 76237
L72076 76265
L72048 76293
L72019 76265
L72048 76237
L72048 76293
" />
<path d="M72048 75928
L72076 75956
L72048 75984
L72019 75956
L72048 75928
L72048 75984
" />
<path d="M72751 76124
L73032 76124
" />
<path d="M72694 76293
L72891 75703
L73088 76293
" />
<path d="M73538 75899
L73538 76293
" />
<path d="M73397 75674
L73257 76096
L73622 76096
" />
</g>
<g style="fill:#000000; fill-opacity:0.0; 
stroke:#000000; stroke-width:39.3701; stroke-opacity:1; 
stroke-linecap:round; stroke-linejoin:round;">
</g>
<g style="fill:#000000; fill-opacity:0.0; 
stroke:#000000; stroke-width:59.0551; stroke-opacity:1; 
stroke-linecap:round; stroke-linejoin:round;">
<path d="M103684 77395
L103684 76805
" />
<path d="M104219 77395
L104219 76805
" />
<path d="M104219 77367
L104162 77395
L104050 77395
L103994 77367
L103965 77339
L103937 77283
L103937 77114
L103965 77058
L103994 77030
L104050 77002
L104162 77002
L104219 77030
" />
<path d="M104500 77339
L104528 77367
L104500 77395
L104472 77367
L104500 77339
L104500 77395
" />
<path d="M104500 77030
L104528 77058
L104500 77086
L104472 77058
L104500 77030
L104500 77086
" />
<path d="M105540 77395
L105203 77395
" />
<path d="M105372 77395
L105372 76805
L105315 76889
L105259 76946
L105203 76974
" />
<path d="M106215 76777
L105709 77536
" />
<path d="M106721 77395
L106384 77395
" />
<path d="M106553 77395
L106553 76805
L106496 76889
L106440 76946
L106384 76974
" />
</g>
<g style="fill:#000000; fill-opacity:0.0; 
stroke:#000000; stroke-width:39.3701; stroke-opacity:1; 
stroke-linecap:round; stroke-linejoin:round;">
</g>
<g style="fill:#000000; fill-opacity:0.0; 
stroke:#000000; stroke-width:59.0551; stroke-opacity:1; 
stroke-linecap:round; stroke-linejoin:round;">
<path d="M69685 73821
L112205 73821
" />
</g>
<g style="fill:#000000; fill-opacity:0.0; 
stroke:#000000; stroke-width:39.3701; stroke-opacity:1; 
stroke-linecap:round; stroke-linejoin:round;">
</g>
<g style="fill:#000000; fill-opacity:0.0; 
stroke:#000000; stroke-width:157.48; stroke-opacity:1; 
stroke-linecap:round; stroke-linejoin:round;">
<path d="M70257 74099
L70707 74099
" />
<path d="M70384 74886
L70482 74099
" />
<path d="M70871 74886
L70937 74361
" />
<path d="M70970 74099
L70927 74136
L70960 74174
L71002 74136
L70970 74099
L70960 74174
" />
<path d="M71199 74361
L71499 74361
" />
<path d="M71345 74099
L71260 74774
L71288 74849
L71359 74886
L71434 74886
" />
<path d="M71809 74886
L71738 74849
L71710 74774
L71795 74099
" />
<path d="M72413 74849
L72334 74886
L72184 74886
L72113 74849
L72085 74774
L72123 74474
L72169 74399
L72249 74361
L72399 74361
L72469 74399
L72498 74474
L72488 74549
L72104 74624
" />
<path d="M72793 74811
L72826 74849
L72783 74886
L72751 74849
L72793 74811
L72783 74886
" />
<path d="M72844 74399
L72877 74436
L72835 74474
L72802 74436
L72844 74399
L72835 74474
" />
<path d="M73758 74886
L73857 74099
L74049 74661
L74382 74099
L74283 74886
" />
<path d="M74658 74886
L74757 74099
L74949 74661
L75282 74099
L75183 74886
" />
<path d="M75994 74099
L75844 74099
L75764 74136
L75722 74174
L75633 74286
L75577 74436
L75539 74736
L75567 74811
L75600 74849
L75671 74886
L75821 74886
L75900 74849
L75942 74811
L75989 74736
L76013 74549
L75985 74474
L75952 74436
L75882 74399
L75732 74399
L75652 74436
L75610 74474
L75563 74549
" />
<path d="M76308 74886
L76406 74099
L76594 74099
L76702 74136
L76767 74211
L76795 74286
L76814 74436
L76800 74549
L76744 74699
L76697 74774
L76613 74849
L76495 74886
L76308 74886
" />
<path d="M78145 74886
L77930 74511
" />
<path d="M77695 74886
L77794 74099
L78094 74099
L78164 74136
L78197 74174
L78225 74249
L78211 74361
L78164 74436
L78122 74474
L78042 74511
L77742 74511
" />
<path d="M78787 74849
L78708 74886
L78558 74886
L78487 74849
L78459 74774
L78497 74474
L78544 74399
L78623 74361
L78773 74361
L78844 74399
L78872 74474
L78862 74549
L78478 74624
" />
<path d="M79158 74886
L79223 74361
" />
<path d="M79214 74436
L79256 74399
L79336 74361
L79448 74361
L79519 74399
L79547 74474
L79495 74886
" />
<path d="M79547 74474
L79594 74399
L79673 74361
L79786 74361
L79856 74399
L79884 74474
L79833 74886
" />
<path d="M80320 74886
L80250 74849
L80217 74811
L80189 74736
L80217 74511
L80264 74436
L80306 74399
L80386 74361
L80498 74361
L80568 74399
L80601 74436
L80629 74511
L80601 74736
L80554 74811
L80512 74849
L80433 74886
L80320 74886
" />
<path d="M80873 74361
L81173 74361
" />
<path d="M81018 74099
L80934 74774
L80962 74849
L81032 74886
L81107 74886
" />
<path d="M81675 74849
L81595 74886
L81445 74886
L81375 74849
L81346 74774
L81384 74474
L81431 74399
L81510 74361
L81660 74361
L81731 74399
L81759 74474
L81750 74549
L81365 74624
" />
<path d="M82987 74849
L82907 74886
L82757 74886
L82687 74849
L82654 74811
L82626 74736
L82654 74511
L82701 74436
L82743 74399
L82823 74361
L82973 74361
L83043 74399
" />
<path d="M83432 74886
L83362 74849
L83329 74811
L83301 74736
L83329 74511
L83376 74436
L83418 74399
L83498 74361
L83610 74361
L83681 74399
L83713 74436
L83741 74511
L83713 74736
L83666 74811
L83624 74849
L83545 74886
L83432 74886
" />
<path d="M84098 74361
L84032 74886
" />
<path d="M84088 74436
L84130 74399
L84210 74361
L84323 74361
L84393 74399
L84421 74474
L84370 74886
" />
<path d="M84698 74361
L84998 74361
" />
<path d="M84843 74099
L84759 74774
L84787 74849
L84857 74886
L84932 74886
" />
<path d="M85194 74886
L85260 74361
" />
<path d="M85241 74511
L85288 74436
L85330 74399
L85410 74361
L85485 74361
" />
<path d="M85794 74886
L85724 74849
L85691 74811
L85663 74736
L85691 74511
L85738 74436
L85780 74399
L85860 74361
L85972 74361
L86043 74399
L86076 74436
L86104 74511
L86076 74736
L86029 74811
L85986 74849
L85907 74886
L85794 74886
" />
<path d="M86507 74886
L86436 74849
L86408 74774
L86493 74099
" />
<path d="M86919 74886
L86849 74849
L86821 74774
L86905 74099
" />
<path d="M87524 74849
L87444 74886
L87294 74886
L87224 74849
L87196 74774
L87233 74474
L87280 74399
L87360 74361
L87510 74361
L87580 74399
L87608 74474
L87599 74549
L87214 74624
" />
<path d="M88232 74886
L88330 74099
" />
<path d="M88236 74849
L88157 74886
L88007 74886
L87936 74849
L87903 74811
L87875 74736
L87903 74511
L87950 74436
L87992 74399
L88072 74361
L88222 74361
L88292 74399
" />
<path d="M89174 74849
L89244 74886
L89394 74886
L89474 74849
L89520 74774
L89525 74736
L89497 74661
L89427 74624
L89314 74624
L89244 74586
L89216 74511
L89220 74474
L89267 74399
L89347 74361
L89459 74361
L89530 74399
" />
<path d="M89834 74361
L89919 74886
L90116 74511
L90219 74886
L90434 74361
" />
<path d="M90669 74886
L90734 74361
" />
<path d="M90767 74099
L90725 74136
L90758 74174
L90800 74136
L90767 74099
L90758 74174
" />
<path d="M90997 74361
L91297 74361
" />
<path d="M91142 74099
L91058 74774
L91086 74849
L91156 74886
L91231 74886
" />
<path d="M91836 74849
L91756 74886
L91606 74886
L91536 74849
L91503 74811
L91475 74736
L91503 74511
L91550 74436
L91592 74399
L91672 74361
L91822 74361
L91892 74399
" />
<path d="M92169 74886
L92267 74099
" />
<path d="M92506 74886
L92558 74474
L92529 74399
L92459 74361
L92347 74361
L92267 74399
L92225 74436
" />
<path d="M92881 74886
L92947 74361
" />
<path d="M92979 74099
L92937 74136
L92970 74174
L93012 74136
L92979 74099
L92970 74174
" />
<path d="M93322 74361
L93256 74886
" />
<path d="M93312 74436
L93354 74399
L93434 74361
L93546 74361
L93617 74399
L93645 74474
L93593 74886
" />
<path d="M94371 74361
L94292 74999
L94245 75074
L94203 75111
L94123 75149
L94010 75149
L93940 75111
" />
<path d="M94310 74849
L94231 74886
L94081 74886
L94010 74849
L93978 74811
L93950 74736
L93978 74511
L94025 74436
L94067 74399
L94146 74361
L94296 74361
L94367 74399
" />
<path d="M95618 74886
L95717 74099
" />
<path d="M95623 74849
L95543 74886
L95393 74886
L95323 74849
L95290 74811
L95262 74736
L95290 74511
L95337 74436
L95379 74399
L95459 74361
L95609 74361
L95679 74399
" />
<path d="M96298 74849
L96218 74886
L96068 74886
L95998 74849
L95970 74774
L96007 74474
L96054 74399
L96134 74361
L96284 74361
L96354 74399
L96382 74474
L96373 74549
L95988 74624
" />
<path d="M96659 74361
L96780 74886
L97034 74361
" />
<path d="M97268 74886
L97334 74361
" />
<path d="M97366 74099
L97324 74136
L97357 74174
L97399 74136
L97366 74099
L97357 74174
" />
<path d="M97985 74849
L97905 74886
L97755 74886
L97685 74849
L97652 74811
L97624 74736
L97652 74511
L97699 74436
L97741 74399
L97821 74361
L97971 74361
L98041 74399
" />
<path d="M98622 74849
L98543 74886
L98393 74886
L98322 74849
L98294 74774
L98332 74474
L98379 74399
L98458 74361
L98608 74361
L98679 74399
L98707 74474
L98697 74549
L98313 74624
" />
</g>
<g style="fill:#000000; fill-opacity:0.0; 
stroke:#000000; stroke-width:39.3701; stroke-opacity:1; 
stroke-linecap:round; stroke-linejoin:round;">
</g>
<g style="fill:#000000; fill-opacity:0.0; 
stroke:#000000; stroke-width:59.0551; stroke-opacity:1; 
stroke-linecap:round; stroke-linejoin:round;">
<path d="M70417 73070
L70220 73070
" />
<path d="M70220 73380
L70220 72789
L70501 72789
" />
<path d="M70726 73380
L70726 72986
" />
<path d="M70726 72789
L70698 72817
L70726 72845
L70754 72817
L70726 72789
L70726 72845
" />
<path d="M71091 73380
L71035 73352
L71007 73295
L71007 72789
" />
<path d="M71541 73352
L71485 73380
L71373 73380
L71316 73352
L71288 73295
L71288 73070
L71316 73014
L71373 72986
L71485 72986
L71541 73014
L71570 73070
L71570 73127
L71288 73183
" />
<path d="M71823 73323
L71851 73352
L71823 73380
L71795 73352
L71823 73323
L71823 73380
" />
<path d="M71823 73014
L71851 73042
L71823 73070
L71795 73042
L71823 73014
L71823 73070
" />
<path d="M72807 73380
L72807 72789
" />
<path d="M72807 73352
L72751 73380
L72638 73380
L72582 73352
L72554 73323
L72526 73267
L72526 73099
L72554 73042
L72582 73014
L72638 72986
L72751 72986
L72807 73014
" />
<path d="M73088 73380
L73088 72986
" />
<path d="M73088 72789
L73060 72817
L73088 72845
L73116 72817
L73088 72789
L73088 72845
" />
<path d="M73341 73352
L73397 73380
L73510 73380
L73566 73352
L73594 73295
L73594 73267
L73566 73211
L73510 73183
L73426 73183
L73369 73155
L73341 73099
L73341 73070
L73369 73014
L73426 72986
L73510 72986
L73566 73014
" />
<path d="M73847 72986
L73847 73577
" />
<path d="M73847 73014
L73904 72986
L74016 72986
L74072 73014
L74100 73042
L74129 73099
L74129 73267
L74100 73323
L74072 73352
L74016 73380
L73904 73380
L73847 73352
" />
<path d="M74466 73380
L74410 73352
L74382 73295
L74382 72789
" />
<path d="M74944 73380
L74944 73070
L74916 73014
L74860 72986
L74747 72986
L74691 73014
" />
<path d="M74944 73352
L74888 73380
L74747 73380
L74691 73352
L74663 73295
L74663 73239
L74691 73183
L74747 73155
L74888 73155
L74944 73127
" />
<path d="M75169 72986
L75310 73380
" />
<path d="M75450 72986
L75310 73380
L75253 73520
L75225 73548
L75169 73577
" />
<path d="M75675 73323
L75703 73352
L75675 73380
L75647 73352
L75675 73323
L75675 73380
" />
<path d="M75956 73380
L75956 72789
" />
<path d="M76013 73155
L76181 73380
" />
<path d="M76181 72986
L75956 73211
" />
<path d="M76435 73380
L76435 72986
" />
<path d="M76435 72789
L76406 72817
L76435 72845
L76463 72817
L76435 72789
L76435 72845
" />
<path d="M76969 73352
L76913 73380
L76800 73380
L76744 73352
L76716 73323
L76688 73267
L76688 73099
L76716 73042
L76744 73014
L76800 72986
L76913 72986
L76969 73014
" />
<path d="M77475 73380
L77475 73070
L77447 73014
L77391 72986
L77278 72986
L77222 73014
" />
<path d="M77475 73352
L77419 73380
L77278 73380
L77222 73352
L77194 73295
L77194 73239
L77222 73183
L77278 73155
L77419 73155
L77475 73127
" />
<path d="M78009 73380
L78009 72789
" />
<path d="M78009 73352
L77953 73380
L77841 73380
L77784 73352
L77756 73323
L77728 73267
L77728 73099
L77756 73042
L77784 73014
L77841 72986
L77953 72986
L78009 73014
" />
<path d="M78150 73436
L78600 73436
" />
<path d="M78741 72986
L78741 73577
" />
<path d="M78741 73014
L78797 72986
L78909 72986
L78965 73014
L78994 73042
L79022 73099
L79022 73267
L78994 73323
L78965 73352
L78909 73380
L78797 73380
L78741 73352
" />
<path d="M79528 73352
L79472 73380
L79359 73380
L79303 73352
L79275 73323
L79247 73267
L79247 73099
L79275 73042
L79303 73014
L79359 72986
L79472 72986
L79528 73014
" />
<path d="M79781 73380
L79781 72789
" />
<path d="M79781 73014
L79837 72986
L79950 72986
L80006 73014
L80034 73042
L80062 73099
L80062 73267
L80034 73323
L80006 73352
L79950 73380
L79837 73380
L79781 73352
" />
</g>
<g style="fill:#000000; fill-opacity:0.0; 
stroke:#000000; stroke-width:39.3701; stroke-opacity:1; 
stroke-linecap:round; stroke-linejoin:round;">
</g>
<g style="fill:#000000; fill-opacity:0.0; 
stroke:#000000; stroke-width:59.0551; stroke-opacity:1; 
stroke-linecap:round; stroke-linejoin:round;">
<path d="M69685 71459
L112205 71459
" />
</g>
<g style="fill:#000000; fill-opacity:0.0; 
stroke:#000000; stroke-width:39.3701; stroke-opacity:1; 
stroke-linecap:round; stroke-linejoin:round;">
</g>
<g style="fill:#000000; fill-opacity:0.0; 
stroke:#000000; stroke-width:59.0551; stroke-opacity:1; 
stroke-linecap:round; stroke-linejoin:round;">
<path d="M70192 72289
L70276 72317
L70417 72317
L70473 72289
L70501 72260
L70529 72204
L70529 72148
L70501 72092
L70473 72064
L70417 72036
L70304 72007
L70248 71979
L70220 71951
L70192 71895
L70192 71839
L70220 71782
L70248 71754
L70304 71726
L70445 71726
L70529 71754
" />
<path d="M70782 72317
L70782 71726
" />
<path d="M71035 72317
L71035 72007
L71007 71951
L70951 71923
L70867 71923
L70810 71951
L70782 71979
" />
<path d="M71541 72289
L71485 72317
L71373 72317
L71316 72289
L71288 72232
L71288 72007
L71316 71951
L71373 71923
L71485 71923
L71541 71951
L71570 72007
L71570 72064
L71288 72120
" />
<path d="M72048 72289
L71991 72317
L71879 72317
L71823 72289
L71795 72232
L71795 72007
L71823 71951
L71879 71923
L71991 71923
L72048 71951
L72076 72007
L72076 72064
L71795 72120
" />
<path d="M72244 71923
L72469 71923
" />
<path d="M72329 71726
L72329 72232
L72357 72289
L72413 72317
L72469 72317
" />
<path d="M72666 72260
L72694 72289
L72666 72317
L72638 72289
L72666 72260
L72666 72317
" />
<path d="M72666 71951
L72694 71979
L72666 72007
L72638 71979
L72666 71951
L72666 72007
" />
</g>
<g style="fill:#000000; fill-opacity:0.0; 
stroke:#000000; stroke-width:39.3701; stroke-opacity:1; 
stroke-linecap:round; stroke-linejoin:round;">
</g>
<g style="fill:#000000; fill-opacity:0.0; 
stroke:#000000; stroke-width:118.11; stroke-opacity:1; 
stroke-linecap:round; stroke-linejoin:round;">
<path d="M70220 71136
L70220 70545
L70445 70545
L70501 70573
L70529 70601
L70557 70658
L70557 70742
L70529 70798
L70501 70826
L70445 70854
L70220 70854
" />
<path d="M70895 71136
L70838 71108
L70810 71079
L70782 71023
L70782 70854
L70810 70798
L70838 70770
L70895 70742
L70979 70742
L71035 70770
L71063 70798
L71091 70854
L71091 71023
L71063 71079
L71035 71108
L70979 71136
L70895 71136
" />
<path d="M71288 70742
L71598 70742
L71288 71136
L71598 71136
" />
<path d="M71795 71108
L71851 71136
L71963 71136
L72019 71108
L72048 71051
L72048 71023
L72019 70967
L71963 70939
L71879 70939
L71823 70911
L71795 70854
L71795 70826
L71823 70770
L71879 70742
L71963 70742
L72019 70770
" />
<path d="M72554 71136
L72554 70826
L72526 70770
L72469 70742
L72357 70742
L72301 70770
" />
<path d="M72554 71108
L72498 71136
L72357 71136
L72301 71108
L72273 71051
L72273 70995
L72301 70939
L72357 70911
L72498 70911
L72554 70883
" />
<path d="M72835 71136
L72835 70742
" />
<path d="M72835 70854
L72863 70798
L72891 70770
L72947 70742
L73004 70742
" />
<path d="M73594 70545
L73988 70545
L73594 71136
L73988 71136
" />
<path d="M74185 71108
L74241 71136
L74354 71136
L74410 71108
L74438 71051
L74438 71023
L74410 70967
L74354 70939
L74269 70939
L74213 70911
L74185 70854
L74185 70826
L74213 70770
L74269 70742
L74354 70742
L74410 70770
" />
<path d="M74775 71136
L74719 71108
L74691 71079
L74663 71023
L74663 70854
L74691 70798
L74719 70770
L74775 70742
L74860 70742
L74916 70770
L74944 70798
L74972 70854
L74972 71023
L74944 71079
L74916 71108
L74860 71136
L74775 71136
" />
<path d="M75310 71136
L75253 71108
L75225 71051
L75225 70545
" />
<path d="M75450 70742
L75675 70742
" />
<path d="M75535 70545
L75535 71051
L75563 71108
L75619 71136
L75675 71136
" />
<path d="M76322 70911
L76772 70911
" />
<path d="M77503 71136
L77503 70545
" />
<path d="M77756 71136
L77756 70826
L77728 70770
L77672 70742
L77588 70742
L77531 70770
L77503 70798
" />
<path d="M77953 70742
L78178 70742
" />
<path d="M78037 70545
L78037 71051
L78066 71108
L78122 71136
L78178 71136
" />
<path d="M78291 70742
L78516 70742
" />
<path d="M78375 70545
L78375 71051
L78403 71108
L78459 71136
L78516 71136
" />
<path d="M78712 70742
L78712 71332
" />
<path d="M78712 70770
L78769 70742
L78881 70742
L78937 70770
L78965 70798
L78994 70854
L78994 71023
L78965 71079
L78937 71108
L78881 71136
L78769 71136
L78712 71108
" />
<path d="M79247 71079
L79275 71108
L79247 71136
L79219 71108
L79247 71079
L79247 71136
" />
<path d="M79247 70770
L79275 70798
L79247 70826
L79219 70798
L79247 70770
L79247 70826
" />
<path d="M79950 70517
L79444 71276
" />
<path d="M80568 70517
L80062 71276
" />
<path d="M80709 70742
L80822 71136
L80934 70854
L81046 71136
L81159 70742
" />
<path d="M81328 70742
L81440 71136
L81553 70854
L81665 71136
L81778 70742
" />
<path d="M81946 70742
L82059 71136
L82171 70854
L82284 71136
L82396 70742
" />
<path d="M82621 71079
L82649 71108
L82621 71136
L82593 71108
L82621 71079
L82621 71136
" />
<path d="M82874 71108
L82931 71136
L83043 71136
L83099 71108
L83127 71051
L83127 71023
L83099 70967
L83043 70939
L82959 70939
L82903 70911
L82874 70854
L82874 70826
L82903 70770
L82959 70742
L83043 70742
L83099 70770
" />
<path d="M83324 70742
L83634 70742
L83324 71136
L83634 71136
" />
<path d="M84084 71108
L84027 71136
L83915 71136
L83859 71108
L83831 71051
L83831 70826
L83859 70770
L83915 70742
L84027 70742
L84084 70770
L84112 70826
L84112 70883
L83831 70939
" />
<path d="M84365 71136
L84365 70742
" />
<path d="M84365 70854
L84393 70798
L84421 70770
L84477 70742
L84534 70742
" />
<path d="M84983 71136
L84983 70826
L84955 70770
L84899 70742
L84787 70742
L84730 70770
" />
<path d="M84983 71108
L84927 71136
L84787 71136
L84730 71108
L84702 71051
L84702 70995
L84730 70939
L84787 70911
L84927 70911
L84983 70883
" />
<path d="M85180 70742
L85405 70742
" />
<path d="M85265 71136
L85265 70629
L85293 70573
L85349 70545
L85405 70545
" />
<path d="M85602 71136
L85602 70742
" />
<path d="M85602 70545
L85574 70573
L85602 70601
L85630 70573
L85602 70545
L85602 70601
" />
<path d="M85883 70742
L85883 71136
" />
<path d="M85883 70798
L85912 70770
L85968 70742
L86052 70742
L86108 70770
L86136 70826
L86136 71136
" />
<path d="M86671 70742
L86671 71220
L86643 71276
L86615 71304
L86558 71332
L86474 71332
L86418 71304
" />
<path d="M86671 71108
L86615 71136
L86502 71136
L86446 71108
L86418 71079
L86390 71023
L86390 70854
L86418 70798
L86446 70770
L86502 70742
L86615 70742
L86671 70770
" />
<path d="M87036 71136
L86980 71108
L86952 71079
L86924 71023
L86924 70854
L86952 70798
L86980 70770
L87036 70742
L87121 70742
L87177 70770
L87205 70798
L87233 70854
L87233 71023
L87205 71079
L87177 71108
L87121 71136
L87036 71136
" />
<path d="M87486 71136
L87486 70742
" />
<path d="M87486 70798
L87514 70770
L87571 70742
L87655 70742
L87711 70770
L87739 70826
L87739 71136
" />
<path d="M87739 70826
L87768 70770
L87824 70742
L87908 70742
L87964 70770
L87992 70826
L87992 71136
" />
<path d="M88274 71136
L88274 70545
" />
<path d="M88274 70770
L88330 70742
L88442 70742
L88499 70770
L88527 70798
L88555 70854
L88555 71023
L88527 71079
L88499 71108
L88442 71136
L88330 71136
L88274 71108
" />
<path d="M89061 71136
L89061 70826
L89033 70770
L88977 70742
L88864 70742
L88808 70770
" />
<path d="M89061 71108
L89005 71136
L88864 71136
L88808 71108
L88780 71051
L88780 70995
L88808 70939
L88864 70911
L89005 70911
L89061 70883
" />
<path d="M89342 71079
L89370 71108
L89342 71136
L89314 71108
L89342 71079
L89342 71136
" />
<path d="M89624 71136
L89624 70545
" />
<path d="M89877 71136
L89877 70826
L89849 70770
L89792 70742
L89708 70742
L89652 70770
L89624 70798
" />
<path d="M90411 70742
L90411 71136
" />
<path d="M90158 70742
L90158 71051
L90186 71108
L90242 71136
L90327 71136
L90383 71108
L90411 71079
" />
</g>
<g style="fill:#000000; fill-opacity:0.0; 
stroke:#000000; stroke-width:39.3701; stroke-opacity:1; 
stroke-linecap:round; stroke-linejoin:round;">
</g>
<g style="fill:#000000; fill-opacity:0.0; 
stroke:#000000; stroke-width:59.0551; stroke-opacity:1; 
stroke-linecap:round; stroke-linejoin:round;">
<path d="M70220 69955
L70220 69364
L70360 69364
L70445 69392
L70501 69448
L70529 69505
L70557 69617
L70557 69701
L70529 69814
L70501 69870
L70445 69926
L70360 69955
L70220 69955
" />
<path d="M70810 69955
L70810 69561
" />
<path d="M70810 69364
L70782 69392
L70810 69420
L70838 69392
L70810 69364
L70810 69420
" />
<path d="M71063 69926
L71120 69955
L71232 69955
L71288 69926
L71316 69870
L71316 69842
L71288 69786
L71232 69758
L71148 69758
L71091 69730
L71063 69673
L71063 69645
L71091 69589
L71148 69561
L71232 69561
L71288 69589
" />
<path d="M71570 69561
L71570 70151
" />
<path d="M71570 69589
L71626 69561
L71738 69561
L71795 69589
L71823 69617
L71851 69673
L71851 69842
L71823 69898
L71795 69926
L71738 69955
L71626 69955
L71570 69926
" />
<path d="M72188 69955
L72132 69926
L72104 69870
L72104 69364
" />
<path d="M72666 69955
L72666 69645
L72638 69589
L72582 69561
L72469 69561
L72413 69589
" />
<path d="M72666 69926
L72610 69955
L72469 69955
L72413 69926
L72385 69870
L72385 69814
L72413 69758
L72469 69730
L72610 69730
L72666 69701
" />
<path d="M72891 69561
L73032 69955
" />
<path d="M73172 69561
L73032 69955
L72976 70095
L72947 70123
L72891 70151
" />
<path d="M73847 69955
L73847 69364
" />
<path d="M73847 69589
L73904 69561
L74016 69561
L74072 69589
L74100 69617
L74129 69673
L74129 69842
L74100 69898
L74072 69926
L74016 69955
L73904 69955
L73847 69926
" />
<path d="M74466 69955
L74410 69926
L74382 69898
L74354 69842
L74354 69673
L74382 69617
L74410 69589
L74466 69561
L74550 69561
L74607 69589
L74635 69617
L74663 69673
L74663 69842
L74635 69898
L74607 69926
L74550 69955
L74466 69955
" />
<path d="M75169 69955
L75169 69645
L75141 69589
L75085 69561
L74972 69561
L74916 69589
" />
<path d="M75169 69926
L75113 69955
L74972 69955
L74916 69926
L74888 69870
L74888 69814
L74916 69758
L74972 69730
L75113 69730
L75169 69701
" />
<path d="M75450 69955
L75450 69561
" />
<path d="M75450 69673
L75478 69617
L75507 69589
L75563 69561
L75619 69561
" />
<path d="M76069 69955
L76069 69364
" />
<path d="M76069 69926
L76013 69955
L75900 69955
L75844 69926
L75816 69898
L75788 69842
L75788 69673
L75816 69617
L75844 69589
L75900 69561
L76013 69561
L76069 69589
" />
</g>
<g style="fill:#000000; fill-opacity:0.0; 
stroke:#000000; stroke-width:39.3701; stroke-opacity:1; 
stroke-linecap:round; stroke-linejoin:round;">
</g>
<g style="fill:#000000; fill-opacity:0.0; 
stroke:#000000; stroke-width:59.0551; stroke-opacity:1; 
stroke-linecap:round; stroke-linejoin:round;">
<path d="M70220 66411
L70220 65821
L70360 65821
L70445 65849
L70501 65905
L70529 65961
L70557 66074
L70557 66158
L70529 66271
L70501 66327
L70445 66383
L70360 66411
L70220 66411
" />
<path d="M70810 66411
L70810 66018
" />
<path d="M70810 66130
L70838 66074
L70867 66046
L70923 66018
L70979 66018
" />
<path d="M71429 66411
L71429 66102
L71401 66046
L71345 66018
L71232 66018
L71176 66046
" />
<path d="M71429 66383
L71373 66411
L71232 66411
L71176 66383
L71148 66327
L71148 66271
L71176 66214
L71232 66186
L71373 66186
L71429 66158
" />
<path d="M71654 66018
L71766 66411
L71879 66130
L71991 66411
L72104 66018
" />
<path d="M72779 66018
L72779 66411
" />
<path d="M72779 66074
L72807 66046
L72863 66018
L72947 66018
L73004 66046
L73032 66102
L73032 66411
" />
<path d="M73397 66411
L73341 66383
L73313 66355
L73285 66299
L73285 66130
L73313 66074
L73341 66046
L73397 66018
L73482 66018
L73538 66046
L73566 66074
L73594 66130
L73594 66299
L73566 66355
L73538 66383
L73482 66411
L73397 66411
" />
<path d="M73847 66355
L73876 66383
L73847 66411
L73819 66383
L73847 66355
L73847 66411
" />
<path d="M74129 66355
L74157 66383
L74129 66411
L74100 66383
L74129 66355
L74129 66411
" />
<path d="M74129 66046
L74157 66074
L74129 66102
L74100 66074
L74129 66046
L74129 66102
" />
<path d="M75141 65821
L74860 65821
L74832 66102
L74860 66074
L74916 66046
L75057 66046
L75113 66074
L75141 66102
L75169 66158
L75169 66299
L75141 66355
L75113 66383
L75057 66411
L74916 66411
L74860 66383
L74832 66355
" />
<path d="M75450 66411
L75563 66411
L75619 66383
L75647 66355
L75703 66271
L75732 66158
L75732 65933
L75703 65877
L75675 65849
L75619 65821
L75507 65821
L75450 65849
L75422 65877
L75394 65933
L75394 66074
L75422 66130
L75450 66158
L75507 66186
L75619 66186
L75675 66158
L75703 66130
L75732 66074
" />
<path d="M76406 65793
L75900 66552
" />
<path d="M76913 66411
L76575 66411
" />
<path d="M76744 66411
L76744 65821
L76688 65905
L76631 65961
L76575 65989
" />
<path d="M77475 66411
L77138 66411
" />
<path d="M77306 66411
L77306 65821
L77250 65905
L77194 65961
L77138 65989
" />
<path d="M78150 65793
L77644 66552
" />
<path d="M78628 65821
L78347 65821
L78319 66102
L78347 66074
L78403 66046
L78544 66046
L78600 66074
L78628 66102
L78656 66158
L78656 66299
L78628 66355
L78600 66383
L78544 66411
L78403 66411
L78347 66383
L78319 66355
" />
</g>
<g style="fill:#000000; fill-opacity:0.0; 
stroke:#000000; stroke-width:39.3701; stroke-opacity:1; 
stroke-linecap:round; stroke-linejoin:round;">
</g>
<g style="fill:#000000; fill-opacity:0.0; 
stroke:#000000; stroke-width:59.0551; stroke-opacity:1; 
stroke-linecap:round; stroke-linejoin:round;">
<path d="M77559 75396
L77559 76577
" />
</g>
<g style="fill:#000000; fill-opacity:0.0; 
stroke:#000000; stroke-width:39.3701; stroke-opacity:1; 
stroke-linecap:round; stroke-linejoin:round;">
</g>
<g style="fill:#000000; fill-opacity:0.0; 
stroke:#000000; stroke-width:59.0551; stroke-opacity:1; 
stroke-linecap:round; stroke-linejoin:round;">
<path d="M102756 75396
L102756 77955
" />
</g>
<g style="fill:#000000; fill-opacity:0.0; 
stroke:#000000; stroke-width:118.11; stroke-opacity:1; 
stroke-linecap:round; stroke-linejoin:round;">
<path d="M61545 49267
L61545 48676
L61686 48676
L61770 48704
L61826 48760
L61855 48817
L61883 48929
L61883 49014
L61855 49126
L61826 49182
L61770 49239
L61686 49267
L61545 49267
" />
<path d="M62136 49267
L62136 48676
L62473 49267
L62473 48676
" />
<path d="M62754 49210
L62783 49239
L62754 49267
L62726 49239
L62754 49210
L62754 49267
" />
<path d="M62754 48901
L62783 48929
L62754 48957
L62726 48929
L62754 48901
L62754 48957
" />
<path d="M63767 48676
L63486 48676
L63457 48957
L63486 48929
L63542 48901
L63682 48901
L63739 48929
L63767 48957
L63795 49014
L63795 49154
L63767 49210
L63739 49239
L63682 49267
L63542 49267
L63486 49239
L63457 49210
" />
<path d="M64076 49267
L64189 49267
L64245 49239
L64273 49210
L64329 49126
L64357 49014
L64357 48789
L64329 48732
L64301 48704
L64245 48676
L64132 48676
L64076 48704
L64048 48732
L64020 48789
L64020 48929
L64048 48985
L64076 49014
L64132 49042
L64245 49042
L64301 49014
L64329 48985
L64357 48929
" />
<path d="M65032 48648
L64526 49407
" />
<path d="M65538 49267
L65201 49267
" />
<path d="M65370 49267
L65370 48676
L65313 48760
L65257 48817
L65201 48845
" />
<path d="M66101 49267
L65763 49267
" />
<path d="M65932 49267
L65932 48676
L65876 48760
L65820 48817
L65763 48845
" />
<path d="M66776 48648
L66270 49407
" />
<path d="M67254 48676
L66973 48676
L66944 48957
L66973 48929
L67029 48901
L67169 48901
L67226 48929
L67254 48957
L67282 49014
L67282 49154
L67254 49210
L67226 49239
L67169 49267
L67029 49267
L66973 49239
L66944 49210
" />
<path d="M63976 26655
L64061 26683
L64089 26712
L64117 26768
L64117 26852
L64089 26908
L64061 26937
L64004 26965
L63779 26965
L63779 26374
L63976 26374
L64032 26402
L64061 26430
L64089 26487
L64089 26543
L64061 26599
L64032 26627
L63976 26655
L63779 26655
" />
<path d="M64623 26965
L64623 26655
L64595 26599
L64539 26571
L64426 26571
L64370 26599
" />
<path d="M64623 26937
L64567 26965
L64426 26965
L64370 26937
L64342 26880
L64342 26824
L64370 26768
L64426 26740
L64567 26740
L64623 26712
" />
<path d="M64820 26571
L65045 26571
" />
<path d="M64904 26374
L64904 26880
L64932 26937
L64989 26965
L65045 26965
" />
<path d="M65157 26571
L65382 26571
" />
<path d="M65242 26374
L65242 26880
L65270 26937
L65326 26965
L65382 26965
" />
<path d="M65804 26937
L65748 26965
L65635 26965
L65579 26937
L65551 26880
L65551 26655
L65579 26599
L65635 26571
L65748 26571
L65804 26599
L65832 26655
L65832 26712
L65551 26768
" />
<path d="M66085 26965
L66085 26571
" />
<path d="M66085 26683
L66113 26627
L66142 26599
L66198 26571
L66254 26571
" />
<path d="M66395 26571
L66535 26965
" />
<path d="M66676 26571
L66535 26965
L66479 27105
L66451 27133
L66395 27162
" />
<path d="M64496 27378
L64384 27378
L64328 27406
L64300 27434
L64243 27519
L64215 27631
L64215 27856
L64243 27912
L64271 27941
L64328 27969
L64440 27969
L64496 27941
L64525 27912
L64553 27856
L64553 27716
L64525 27659
L64496 27631
L64440 27603
L64328 27603
L64271 27631
L64243 27659
L64215 27716
" />
<path d="M65003 27659
L64806 27659
" />
<path d="M64806 27969
L64806 27378
L65087 27378
" />
<path d="M65284 27434
L65312 27406
L65368 27378
L65509 27378
L65565 27406
L65593 27434
L65621 27491
L65621 27547
L65593 27631
L65256 27969
L65621 27969
" />
<path d="M65846 27434
L65874 27406
L65931 27378
L66071 27378
L66128 27406
L66156 27434
L66184 27491
L66184 27547
L66156 27631
L65818 27969
L66184 27969
" />
</g>
<g style="fill:#000000; fill-opacity:0.0; 
stroke:#000000; stroke-width:78.7402; stroke-opacity:1; 
stroke-linecap:round; stroke-linejoin:round;">
<path d="M57800 29200
L57800 24400
" />
<path d="M42800 29200
L57800 29200
" />
</g>
<g style="fill:#000000; fill-opacity:0.0; 
stroke:#000000; stroke-width:59.0551; stroke-opacity:1; 
stroke-linecap:round; stroke-linejoin:round;">
<path d="M72900 50900
L58400 50900
" />
<path d="M72900 22900
L72900 50900
" />
<path d="M41400 22900
L72900 22900
" />
<path d="M41400 24900
L41400 22900
" />
<path d="M41400 24900
L41400 50900
" />
<path d="M41400 50900
L58400 50900
" />
<path d="M41400 48900
L41400 50900
" />
<path d="M58510 33010
L58510 32400
" />
<path d="M58400 30900
L58400 31900
" />
<path d="M58400 31900
L57400 31900
" />
<path d="M57289 32400
L57289 33010
" />
<path d="M57289 33010
L58510 33010
" />
<path d="M57400 31900
L57400 30900
" />
<path d="M57400 30900
L58400 30900
" />
<path d="M45921.7 27500.4 A1147.83 1147.83 0.0 1 0 45915.7 26309.4 " />
<path d="M45915 27490
L45915 26309
" />
<circle cx="46900" cy="26900" r="991.313" /> 
<path d="M45921.7 32000.4 A1147.83 1147.83 0.0 1 0 45915.7 30809.4 " />
<path d="M45915 31990
L45915 30809
" />
<circle cx="46900" cy="31400" r="991.313" /> 
<path d="M45921.7 34500.4 A1147.83 1147.83 0.0 1 0 45915.7 33309.4 " />
<path d="M45915 34490
L45915 33309
" />
<circle cx="46900" cy="33900" r="991.313" /> 
<path d="M45921.7 37000.4 A1147.83 1147.83 0.0 1 0 45915.7 35809.4 " />
<path d="M45915 36990
L45915 35809
" />
<circle cx="46900" cy="36400" r="991.313" /> 
<path d="M45921.7 39500.4 A1147.83 1147.83 0.0 1 0 45915.7 38309.4 " />
<path d="M45915 39490
L45915 38309
" />
<circle cx="46900" cy="38900" r="991.313" /> 
<path d="M45921.7 42000.4 A1147.83 1147.83 0.0 1 0 45915.7 40809.4 " />
<path d="M45915 41990
L45915 40809
" />
<circle cx="46900" cy="41400" r="991.313" /> 
<path d="M45921.7 44500.4 A1147.83 1147.83 0.0 1 0 45915.7 43309.4 " />
<path d="M45915 44490
L45915 43309
" />
<circle cx="46900" cy="43900" r="991.313" /> 
<path d="M45921.7 47000.4 A1147.83 1147.83 0.0 1 0 45915.7 45809.4 " />
<path d="M45915 46990
L45915 45809
" />
<circle cx="46900" cy="46400" r="991.313" /> 
<path d="M45921.7 49500.4 A1147.83 1147.83 0.0 1 0 45915.7 48309.4 " />
<path d="M45915 49490
L45915 48309
" />
<circle cx="46900" cy="48900" r="991.313" /> 
<path d="M57901 45400
L57901 45800
" />
<path d="M57901 43500
L57901 43000
" />
<path d="M58401 43600
L57401 43600
" />
<path d="M58401 43700
L57401 43700
" />
<path d="M58401 43800
L57401 43800
" />
<path d="M58401 43500
L57401 43500
" />
<path d="M58401 43900
L57401 43400
" />
<path d="M58401 43400
L57401 43900
" />
<path d="M58401 43900
L57401 43900
" />
<path d="M58401 43650
L57401 43650
" />
<path d="M57401 43400
L58401 43400
" />
<path d="M58401 43400
L58401 45400
" />
<path d="M58401 45400
L57401 45400
" />
<path d="M57401 45400
L57401 43400
" />
<path d="M57899 37400
L57899 37000
" />
<path d="M57899 39300
L57899 39800
" />
<path d="M57399 39200
L58399 39200
" />
<path d="M57399 39100
L58399 39100
" />
<path d="M57399 39000
L58399 39000
" />
<path d="M57399 39300
L58399 39300
" />
<path d="M57399 38900
L58399 39400
" />
<path d="M57399 39400
L58399 38900
" />
<path d="M57399 38900
L58399 38900
" />
<path d="M57399 39150
L58399 39150
" />
<path d="M58399 39400
L57399 39400
" />
<path d="M57399 39400
L57399 37400
" />
<path d="M57399 37400
L58399 37400
" />
<path d="M58399 37400
L58399 39400
" />
<path d="M50400 24901
L50000 24901
" />
<path d="M52300 24901
L52800 24901
" />
<path d="M52200 25401
L52200 24401
" />
<path d="M52100 25401
L52100 24401
" />
<path d="M52000 25401
L52000 24401
" />
<path d="M52300 25401
L52300 24401
" />
<path d="M51900 25401
L52400 24401
" />
<path d="M52400 25401
L51900 24401
" />
<path d="M51900 25401
L51900 24401
" />
<path d="M52150 25401
L52150 24401
" />
<path d="M52400 24401
L52400 25401
" />
<path d="M52400 25401
L50400 25401
" />
<path d="M50400 25401
L50400 24401
" />
<path d="M50400 24401
L52400 24401
" />
<path d="M44010 49510
L44010 48900
" />
<path d="M43900 47400
L43900 48400
" />
<path d="M43900 48400
L42900 48400
" />
<path d="M42789 48900
L42789 49510
" />
<path d="M42789 49510
L44010 49510
" />
<path d="M42900 48400
L42900 47400
" />
<path d="M42900 47400
L43900 47400
" />
<path d="M59400 49400
L59400 48400
" />
<path d="M58289 48289
L58900 48289
" />
<path d="M58289 48289
L58289 49510
" />
<path d="M58289 49510
L58900 49510
" />
<path d="M42900 31900
L43900 31900
" />
<path d="M44010 30789
L44010 31400
" />
<path d="M44010 30789
L42789 30789
" />
<path d="M42789 30789
L42789 31400
" />
<path d="M42900 36900
L42900 41900
" />
<path d="M42900 41900
L43900 41900
" />
<path d="M43900 41900
L43900 36900
" />
<path d="M42789 35789
L42789 36400
" />
<path d="M42900 36900
L43900 36900
" />
<path d="M44010 36400
L44010 35789
" />
<path d="M44010 35789
L42789 35789
" />
<path d="M54400 48289
L53789 48289
" />
<path d="M53789 48289
L53789 49510
" />
<path d="M53789 49510
L54400 49510
" />
<path d="M54900 48400
L56900 48400
" />
<path d="M56900 48400
L56900 49400
" />
<path d="M56900 49400
L54900 49400
" />
<path d="M54900 49400
L54900 48400
" />
<path d="M44010 43400
L44010 42789
" />
<path d="M44010 42789
L42789 42789
" />
<path d="M42789 42789
L42789 43400
" />
<path d="M43900 43900
L43900 45900
" />
<path d="M43900 45900
L42900 45900
" />
<path d="M42900 45900
L42900 43900
" />
<path d="M42900 43900
L43900 43900
" />
<path d="M49900 49400
L49900 48400
" />
<path d="M48789 48289
L49400 48289
" />
<path d="M48789 48289
L48789 49510
" />
<path d="M48789 49510
L49400 49510
" />
<path d="M52400 49400
L52400 48400
" />
<path d="M51289 48289
L51900 48289
" />
<path d="M51289 48289
L51289 49510
" />
<path d="M51289 49510
L51900 49510
" />
<path d="M50352 26400
L50352 27400
" />
<path d="M50352 27400
L54352 27400
" />
<path d="M54352 27400
L54352 26400
" />
<path d="M54352 26400
L50352 26400
" />
<path d="M54805 26900
L54352 26900
" />
<path d="M49900 26900
L50352 26900
" />
<path d="M50352 30900
L50352 31900
" />
<path d="M50352 31900
L54352 31900
" />
<path d="M54352 31900
L54352 30900
" />
<path d="M54352 30900
L50352 30900
" />
<path d="M54805 31400
L54352 31400
" />
<path d="M49900 31400
L50352 31400
" />
<path d="M50352 33400
L50352 34400
" />
<path d="M50352 34400
L54352 34400
" />
<path d="M54352 34400
L54352 33400
" />
<path d="M54352 33400
L50352 33400
" />
<path d="M54805 33900
L54352 33900
" />
<path d="M49900 33900
L50352 33900
" />
<path d="M50352 35900
L50352 36900
" />
<path d="M50352 36900
L54352 36900
" />
<path d="M54352 36900
L54352 35900
" />
<path d="M54352 35900
L50352 35900
" />
<path d="M54805 36400
L54352 36400
" />
<path d="M49900 36400
L50352 36400
" />
<path d="M50352 38400
L50352 39400
" />
<path d="M50352 39400
L54352 39400
" />
<path d="M54352 39400
L54352 38400
" />
<path d="M54352 38400
L50352 38400
" />
<path d="M54805 38900
L54352 38900
" />
<path d="M49900 38900
L50352 38900
" />
<path d="M50352 40900
L50352 41900
" />
<path d="M50352 41900
L54352 41900
" />
<path d="M54352 41900
L54352 40900
" />
<path d="M54352 40900
L50352 40900
" />
<path d="M54805 41400
L54352 41400
" />
<path d="M49900 41400
L50352 41400
" />
<path d="M54447 44400
L54447 43400
" />
<path d="M54447 43400
L50447 43400
" />
<path d="M50447 43400
L50447 44400
" />
<path d="M50447 44400
L54447 44400
" />
<path d="M49994 43900
L50447 43900
" />
<path d="M54900 43900
L54447 43900
" />
<path d="M50352 45900
L50352 46900
" />
<path d="M50352 46900
L54352 46900
" />
<path d="M54352 46900
L54352 45900
" />
<path d="M54352 45900
L50352 45900
" />
<path d="M54805 46400
L54352 46400
" />
<path d="M49900 46400
L50352 46400
" />
<path d="M42789 26900
L42789 27510
" />
<path d="M42789 27510
L44010 27510
" />
<path d="M44010 27510
L44010 26900
" />
<path d="M42900 26400
L42900 24400
" />
<path d="M42900 24400
L43900 24400
" />
<path d="M43900 24400
L43900 26400
" />
<path d="M43900 26400
L42900 26400
" />
<path d="M56771 32684
L56790 32628
L56809 32609
L56846 32590
L56903 32590
L56940 32609
L56959 32628
L56978 32665
L56978 32815
L56584 32815
L56584 32684
L56603 32646
L56621 32628
L56659 32609
L56696 32609
L56734 32628
L56753 32646
L56771 32684
L56771 32815
" />
<path d="M56584 32478
L56584 32253
" />
<path d="M56978 32365
L56584 32365
" />
<path d="M56621 32140
L56603 32121
L56584 32084
L56584 31990
L56603 31953
L56621 31934
L56659 31915
L56696 31915
L56753 31934
L56978 32159
L56978 31915
" />
<path d="M56584 31671
L56584 31634
L56603 31596
L56621 31578
L56659 31559
L56734 31540
L56828 31540
L56903 31559
L56940 31578
L56959 31596
L56978 31634
L56978 31671
L56959 31709
L56940 31728
L56903 31746
L56828 31765
L56734 31765
L56659 31746
L56621 31728
L56603 31709
L56584 31671
" />
<path d="M56978 31165
L56978 31390
" />
<path d="M56978 31278
L56584 31278
L56640 31315
L56678 31353
L56696 31390
" />
<path d="M48234 28078
L48234 27684
L48328 27684
L48384 27703
L48421 27740
L48440 27778
L48459 27853
L48459 27909
L48440 27984
L48421 28021
L48384 28059
L48328 28078
L48234 28078
" />
<path d="M48609 27721
L48628 27703
L48665 27684
L48759 27684
L48796 27703
L48815 27721
L48834 27759
L48834 27796
L48815 27853
L48590 28078
L48834 28078
" />
<path d="M49078 27684
L49115 27684
L49153 27703
L49171 27721
L49190 27759
L49209 27834
L49209 27928
L49190 28003
L49171 28040
L49153 28059
L49115 28078
L49078 28078
L49040 28059
L49021 28040
L49003 28003
L48984 27928
L48984 27834
L49003 27759
L49021 27721
L49040 27703
L49078 27684
" />
<path d="M49584 28078
L49359 28078
" />
<path d="M49471 28078
L49471 27684
L49434 27740
L49396 27778
L49359 27796
" />
<path d="M45546 27828
L45546 27434
" />
<path d="M45771 27828
L45603 27603
" />
<path d="M45771 27434
L45546 27659
" />
<path d="M48234 32578
L48234 32184
L48328 32184
L48384 32203
L48421 32240
L48440 32278
L48459 32353
L48459 32409
L48440 32484
L48421 32521
L48384 32559
L48328 32578
L48234 32578
" />
<path d="M48609 32221
L48628 32203
L48665 32184
L48759 32184
L48796 32203
L48815 32221
L48834 32259
L48834 32296
L48815 32353
L48590 32578
L48834 32578
" />
<path d="M49078 32184
L49115 32184
L49153 32203
L49171 32221
L49190 32259
L49209 32334
L49209 32428
L49190 32503
L49171 32540
L49153 32559
L49115 32578
L49078 32578
L49040 32559
L49021 32540
L49003 32503
L48984 32428
L48984 32334
L49003 32259
L49021 32221
L49040 32203
L49078 32184
" />
<path d="M49359 32221
L49378 32203
L49415 32184
L49509 32184
L49546 32203
L49565 32221
L49584 32259
L49584 32296
L49565 32353
L49340 32578
L49584 32578
" />
<path d="M45546 32328
L45546 31934
" />
<path d="M45771 32328
L45603 32103
" />
<path d="M45771 31934
L45546 32159
" />
<path d="M48234 35078
L48234 34684
L48328 34684
L48384 34703
L48421 34740
L48440 34778
L48459 34853
L48459 34909
L48440 34984
L48421 35021
L48384 35059
L48328 35078
L48234 35078
" />
<path d="M48609 34721
L48628 34703
L48665 34684
L48759 34684
L48796 34703
L48815 34721
L48834 34759
L48834 34796
L48815 34853
L48590 35078
L48834 35078
" />
<path d="M49078 34684
L49115 34684
L49153 34703
L49171 34721
L49190 34759
L49209 34834
L49209 34928
L49190 35003
L49171 35040
L49153 35059
L49115 35078
L49078 35078
L49040 35059
L49021 35040
L49003 35003
L48984 34928
L48984 34834
L49003 34759
L49021 34721
L49040 34703
L49078 34684
" />
<path d="M49340 34684
L49584 34684
L49453 34834
L49509 34834
L49546 34853
L49565 34871
L49584 34909
L49584 35003
L49565 35040
L49546 35059
L49509 35078
L49396 35078
L49359 35059
L49340 35040
" />
<path d="M45546 34828
L45546 34434
" />
<path d="M45771 34828
L45603 34603
" />
<path d="M45771 34434
L45546 34659
" />
<path d="M48234 37578
L48234 37184
L48328 37184
L48384 37203
L48421 37240
L48440 37278
L48459 37353
L48459 37409
L48440 37484
L48421 37521
L48384 37559
L48328 37578
L48234 37578
" />
<path d="M48609 37221
L48628 37203
L48665 37184
L48759 37184
L48796 37203
L48815 37221
L48834 37259
L48834 37296
L48815 37353
L48590 37578
L48834 37578
" />
<path d="M49078 37184
L49115 37184
L49153 37203
L49171 37221
L49190 37259
L49209 37334
L49209 37428
L49190 37503
L49171 37540
L49153 37559
L49115 37578
L49078 37578
L49040 37559
L49021 37540
L49003 37503
L48984 37428
L48984 37334
L49003 37259
L49021 37221
L49040 37203
L49078 37184
" />
<path d="M49546 37315
L49546 37578
" />
<path d="M49453 37165
L49359 37446
L49603 37446
" />
<path d="M45546 37328
L45546 36934
" />
<path d="M45771 37328
L45603 37103
" />
<path d="M45771 36934
L45546 37159
" />
<path d="M48234 40078
L48234 39684
L48328 39684
L48384 39703
L48421 39740
L48440 39778
L48459 39853
L48459 39909
L48440 39984
L48421 40021
L48384 40059
L48328 40078
L48234 40078
" />
<path d="M48609 39721
L48628 39703
L48665 39684
L48759 39684
L48796 39703
L48815 39721
L48834 39759
L48834 39796
L48815 39853
L48590 40078
L48834 40078
" />
<path d="M49078 39684
L49115 39684
L49153 39703
L49171 39721
L49190 39759
L49209 39834
L49209 39928
L49190 40003
L49171 40040
L49153 40059
L49115 40078
L49078 40078
L49040 40059
L49021 40040
L49003 40003
L48984 39928
L48984 39834
L49003 39759
L49021 39721
L49040 39703
L49078 39684
" />
<path d="M49565 39684
L49378 39684
L49359 39871
L49378 39853
L49415 39834
L49509 39834
L49546 39853
L49565 39871
L49584 39909
L49584 40003
L49565 40040
L49546 40059
L49509 40078
L49415 40078
L49378 40059
L49359 40040
" />
<path d="M45546 39828
L45546 39434
" />
<path d="M45771 39828
L45603 39603
" />
<path d="M45771 39434
L45546 39659
" />
<path d="M48234 42578
L48234 42184
L48328 42184
L48384 42203
L48421 42240
L48440 42278
L48459 42353
L48459 42409
L48440 42484
L48421 42521
L48384 42559
L48328 42578
L48234 42578
" />
<path d="M48609 42221
L48628 42203
L48665 42184
L48759 42184
L48796 42203
L48815 42221
L48834 42259
L48834 42296
L48815 42353
L48590 42578
L48834 42578
" />
<path d="M49078 42184
L49115 42184
L49153 42203
L49171 42221
L49190 42259
L49209 42334
L49209 42428
L49190 42503
L49171 42540
L49153 42559
L49115 42578
L49078 42578
L49040 42559
L49021 42540
L49003 42503
L48984 42428
L48984 42334
L49003 42259
L49021 42221
L49040 42203
L49078 42184
" />
<path d="M49546 42184
L49471 42184
L49434 42203
L49415 42221
L49378 42278
L49359 42353
L49359 42503
L49378 42540
L49396 42559
L49434 42578
L49509 42578
L49546 42559
L49565 42540
L49584 42503
L49584 42409
L49565 42371
L49546 42353
L49509 42334
L49434 42334
L49396 42353
L49378 42371
L49359 42409
" />
<path d="M45546 42328
L45546 41934
" />
<path d="M45771 42328
L45603 42103
" />
<path d="M45771 41934
L45546 42159
" />
<path d="M48234 45078
L48234 44684
L48328 44684
L48384 44703
L48421 44740
L48440 44778
L48459 44853
L48459 44909
L48440 44984
L48421 45021
L48384 45059
L48328 45078
L48234 45078
" />
<path d="M48609 44721
L48628 44703
L48665 44684
L48759 44684
L48796 44703
L48815 44721
L48834 44759
L48834 44796
L48815 44853
L48590 45078
L48834 45078
" />
<path d="M49078 44684
L49115 44684
L49153 44703
L49171 44721
L49190 44759
L49209 44834
L49209 44928
L49190 45003
L49171 45040
L49153 45059
L49115 45078
L49078 45078
L49040 45059
L49021 45040
L49003 45003
L48984 44928
L48984 44834
L49003 44759
L49021 44721
L49040 44703
L49078 44684
" />
<path d="M49340 44684
L49603 44684
L49434 45078
" />
<path d="M45546 44828
L45546 44434
" />
<path d="M45771 44828
L45603 44603
" />
<path d="M45771 44434
L45546 44659
" />
<path d="M48234 47578
L48234 47184
L48328 47184
L48384 47203
L48421 47240
L48440 47278
L48459 47353
L48459 47409
L48440 47484
L48421 47521
L48384 47559
L48328 47578
L48234 47578
" />
<path d="M48609 47221
L48628 47203
L48665 47184
L48759 47184
L48796 47203
L48815 47221
L48834 47259
L48834 47296
L48815 47353
L48590 47578
L48834 47578
" />
<path d="M49078 47184
L49115 47184
L49153 47203
L49171 47221
L49190 47259
L49209 47334
L49209 47428
L49190 47503
L49171 47540
L49153 47559
L49115 47578
L49078 47578
L49040 47559
L49021 47540
L49003 47503
L48984 47428
L48984 47334
L49003 47259
L49021 47221
L49040 47203
L49078 47184
" />
<path d="M49434 47353
L49396 47334
L49378 47315
L49359 47278
L49359 47259
L49378 47221
L49396 47203
L49434 47184
L49509 47184
L49546 47203
L49565 47221
L49584 47259
L49584 47278
L49565 47315
L49546 47334
L49509 47353
L49434 47353
L49396 47371
L49378 47390
L49359 47428
L49359 47503
L49378 47540
L49396 47559
L49434 47578
L49509 47578
L49546 47559
L49565 47540
L49584 47503
L49584 47428
L49565 47390
L49546 47371
L49509 47353
" />
<path d="M45546 47328
L45546 46934
" />
<path d="M45771 47328
L45603 47103
" />
<path d="M45771 46934
L45546 47159
" />
<path d="M44334 48178
L44334 47784
L44428 47784
L44484 47803
L44521 47840
L44540 47878
L44559 47953
L44559 48009
L44540 48084
L44521 48121
L44484 48159
L44428 48178
L44334 48178
" />
<path d="M44709 47821
L44728 47803
L44765 47784
L44859 47784
L44896 47803
L44915 47821
L44934 47859
L44934 47896
L44915 47953
L44690 48178
L44934 48178
" />
<path d="M45178 47784
L45215 47784
L45253 47803
L45271 47821
L45290 47859
L45309 47934
L45309 48028
L45290 48103
L45271 48140
L45253 48159
L45215 48178
L45178 48178
L45140 48159
L45121 48140
L45103 48103
L45084 48028
L45084 47934
L45103 47859
L45121 47821
L45140 47803
L45178 47784
" />
<path d="M45496 48178
L45571 48178
L45609 48159
L45628 48140
L45665 48084
L45684 48009
L45684 47859
L45665 47821
L45646 47803
L45609 47784
L45534 47784
L45496 47803
L45478 47821
L45459 47859
L45459 47953
L45478 47990
L45496 48009
L45534 48028
L45609 48028
L45646 48009
L45665 47990
L45684 47953
" />
<path d="M45546 49828
L45546 49434
" />
<path d="M45771 49828
L45603 49603
" />
<path d="M45771 49434
L45546 49659
" />
<path d="M57079 45186
L56685 45186
L56685 45092
L56704 45036
L56741 44999
L56779 44980
L56854 44961
L56910 44961
L56985 44980
L57022 44999
L57060 45036
L57079 45092
L57079 45186
" />
<path d="M56722 44811
L56704 44792
L56685 44755
L56685 44661
L56704 44624
L56722 44605
L56760 44586
L56797 44586
L56854 44605
L57079 44830
L57079 44586
" />
<path d="M57079 44211
L57079 44436
" />
<path d="M57079 44324
L56685 44324
L56741 44361
L56779 44399
L56797 44436
" />
<path d="M56685 43967
L56685 43930
L56704 43892
L56722 43874
L56760 43855
L56835 43836
L56929 43836
L57004 43855
L57041 43874
L57060 43892
L57079 43930
L57079 43967
L57060 44005
L57041 44024
L57004 44042
L56929 44061
L56835 44061
L56760 44042
L56722 44024
L56704 44005
L56685 43967
" />
<path d="M59077 38944
L58683 38944
L58683 38850
L58702 38794
L58739 38757
L58777 38738
L58852 38719
L58908 38719
L58983 38738
L59020 38757
L59058 38794
L59077 38850
L59077 38944
" />
<path d="M58720 38569
L58702 38550
L58683 38513
L58683 38419
L58702 38382
L58720 38363
L58758 38344
L58795 38344
L58852 38363
L59077 38588
L59077 38344
" />
<path d="M59077 37969
L59077 38194
" />
<path d="M59077 38082
L58683 38082
L58739 38119
L58777 38157
L58795 38194
" />
<path d="M59077 37594
L59077 37819
" />
<path d="M59077 37707
L58683 37707
L58739 37744
L58777 37782
L58795 37819
" />
<path d="M50734 26078
L50734 25684
L50828 25684
L50884 25703
L50921 25740
L50940 25778
L50959 25853
L50959 25909
L50940 25984
L50921 26021
L50884 26059
L50828 26078
L50734 26078
" />
<path d="M51109 25721
L51128 25703
L51165 25684
L51259 25684
L51296 25703
L51315 25721
L51334 25759
L51334 25796
L51315 25853
L51090 26078
L51334 26078
" />
<path d="M51709 26078
L51484 26078
" />
<path d="M51596 26078
L51596 25684
L51559 25740
L51521 25778
L51484 25796
" />
<path d="M51859 25721
L51878 25703
L51915 25684
L52009 25684
L52046 25703
L52065 25721
L52084 25759
L52084 25796
L52065 25853
L51840 26078
L52084 26078
" />
<path d="M42578 49065
L42184 49065
L42184 48915
L42203 48878
L42221 48859
L42259 48840
L42315 48840
L42353 48859
L42371 48878
L42390 48915
L42390 49065
" />
<path d="M42221 48690
L42203 48671
L42184 48634
L42184 48540
L42203 48503
L42221 48484
L42259 48465
L42296 48465
L42353 48484
L42578 48709
L42578 48465
" />
<path d="M42184 48221
L42184 48184
L42203 48146
L42221 48128
L42259 48109
L42334 48090
L42428 48090
L42503 48109
L42540 48128
L42559 48146
L42578 48184
L42578 48221
L42559 48259
L42540 48278
L42503 48296
L42428 48315
L42334 48315
L42259 48296
L42221 48278
L42203 48259
L42184 48221
" />
<path d="M42578 47715
L42578 47940
" />
<path d="M42578 47828
L42184 47828
L42240 47865
L42278 47903
L42296 47940
" />
<path d="M57978 49465
L57584 49465
L57584 49315
L57603 49278
L57621 49259
L57659 49240
L57715 49240
L57753 49259
L57771 49278
L57790 49315
L57790 49465
" />
<path d="M57621 49090
L57603 49071
L57584 49034
L57584 48940
L57603 48903
L57621 48884
L57659 48865
L57696 48865
L57753 48884
L57978 49109
L57978 48865
" />
<path d="M57584 48621
L57584 48584
L57603 48546
L57621 48528
L57659 48509
L57734 48490
L57828 48490
L57903 48509
L57940 48528
L57959 48546
L57978 48584
L57978 48621
L57959 48659
L57940 48678
L57903 48696
L57828 48715
L57734 48715
L57659 48696
L57621 48678
L57603 48659
L57584 48621
" />
<path d="M57621 48340
L57603 48321
L57584 48284
L57584 48190
L57603 48153
L57621 48134
L57659 48115
L57696 48115
L57753 48134
L57978 48359
L57978 48115
" />
<path d="M42734 30578
L42734 30184
L42884 30184
L42921 30203
L42940 30221
L42959 30259
L42959 30315
L42940 30353
L42921 30371
L42884 30390
L42734 30390
" />
<path d="M43109 30221
L43128 30203
L43165 30184
L43259 30184
L43296 30203
L43315 30221
L43334 30259
L43334 30296
L43315 30353
L43090 30578
L43334 30578
" />
<path d="M43578 30184
L43615 30184
L43653 30203
L43671 30221
L43690 30259
L43709 30334
L43709 30428
L43690 30503
L43671 30540
L43653 30559
L43615 30578
L43578 30578
L43540 30559
L43521 30540
L43503 30503
L43484 30428
L43484 30334
L43503 30259
L43521 30221
L43540 30203
L43578 30184
" />
<path d="M43840 30184
L44084 30184
L43953 30334
L44009 30334
L44046 30353
L44065 30371
L44084 30409
L44084 30503
L44065 30540
L44046 30559
L44009 30578
L43896 30578
L43859 30559
L43840 30540
" />
<path d="M42578 39565
L42184 39565
L42184 39415
L42203 39378
L42221 39359
L42259 39340
L42315 39340
L42353 39359
L42371 39378
L42390 39415
L42390 39565
" />
<path d="M42221 39190
L42203 39171
L42184 39134
L42184 39040
L42203 39003
L42221 38984
L42259 38965
L42296 38965
L42353 38984
L42578 39209
L42578 38965
" />
<path d="M42184 38721
L42184 38684
L42203 38646
L42221 38628
L42259 38609
L42334 38590
L42428 38590
L42503 38609
L42540 38628
L42559 38646
L42578 38684
L42578 38721
L42559 38759
L42540 38778
L42503 38796
L42428 38815
L42334 38815
L42259 38796
L42221 38778
L42203 38759
L42184 38721
" />
<path d="M42315 38253
L42578 38253
" />
<path d="M42165 38346
L42446 38440
L42446 38196
" />
<path d="M54734 50178
L54734 49784
L54884 49784
L54921 49803
L54940 49821
L54959 49859
L54959 49915
L54940 49953
L54921 49971
L54884 49990
L54734 49990
" />
<path d="M55109 49821
L55128 49803
L55165 49784
L55259 49784
L55296 49803
L55315 49821
L55334 49859
L55334 49896
L55315 49953
L55090 50178
L55334 50178
" />
<path d="M55578 49784
L55615 49784
L55653 49803
L55671 49821
L55690 49859
L55709 49934
L55709 50028
L55690 50103
L55671 50140
L55653 50159
L55615 50178
L55578 50178
L55540 50159
L55521 50140
L55503 50103
L55484 50028
L55484 49934
L55503 49859
L55521 49821
L55540 49803
L55578 49784
" />
<path d="M56046 49784
L55971 49784
L55934 49803
L55915 49821
L55878 49878
L55859 49953
L55859 50103
L55878 50140
L55896 50159
L55934 50178
L56009 50178
L56046 50159
L56065 50140
L56084 50103
L56084 50009
L56065 49971
L56046 49953
L56009 49934
L55934 49934
L55896 49953
L55878 49971
L55859 50009
" />
<path d="M42578 45065
L42184 45065
L42184 44915
L42203 44878
L42221 44859
L42259 44840
L42315 44840
L42353 44859
L42371 44878
L42390 44915
L42390 45065
" />
<path d="M42221 44690
L42203 44671
L42184 44634
L42184 44540
L42203 44503
L42221 44484
L42259 44465
L42296 44465
L42353 44484
L42578 44709
L42578 44465
" />
<path d="M42184 44221
L42184 44184
L42203 44146
L42221 44128
L42259 44109
L42334 44090
L42428 44090
L42503 44109
L42540 44128
L42559 44146
L42578 44184
L42578 44221
L42559 44259
L42540 44278
L42503 44296
L42428 44315
L42334 44315
L42259 44296
L42221 44278
L42203 44259
L42184 44221
" />
<path d="M42184 43959
L42184 43696
L42578 43865
" />
<path d="M48734 50178
L48734 49784
L48884 49784
L48921 49803
L48940 49821
L48959 49859
L48959 49915
L48940 49953
L48921 49971
L48884 49990
L48734 49990
" />
<path d="M49109 49821
L49128 49803
L49165 49784
L49259 49784
L49296 49803
L49315 49821
L49334 49859
L49334 49896
L49315 49953
L49090 50178
L49334 50178
" />
<path d="M49578 49784
L49615 49784
L49653 49803
L49671 49821
L49690 49859
L49709 49934
L49709 50028
L49690 50103
L49671 50140
L49653 50159
L49615 50178
L49578 50178
L49540 50159
L49521 50140
L49503 50103
L49484 50028
L49484 49934
L49503 49859
L49521 49821
L49540 49803
L49578 49784
" />
<path d="M49934 49953
L49896 49934
L49878 49915
L49859 49878
L49859 49859
L49878 49821
L49896 49803
L49934 49784
L50009 49784
L50046 49803
L50065 49821
L50084 49859
L50084 49878
L50065 49915
L50046 49934
L50009 49953
L49934 49953
L49896 49971
L49878 49990
L49859 50028
L49859 50103
L49878 50140
L49896 50159
L49934 50178
L50009 50178
L50046 50159
L50065 50140
L50084 50103
L50084 50028
L50065 49990
L50046 49971
L50009 49953
" />
<path d="M51134 50178
L51134 49784
L51284 49784
L51321 49803
L51340 49821
L51359 49859
L51359 49915
L51340 49953
L51321 49971
L51284 49990
L51134 49990
" />
<path d="M51509 49821
L51528 49803
L51565 49784
L51659 49784
L51696 49803
L51715 49821
L51734 49859
L51734 49896
L51715 49953
L51490 50178
L51734 50178
" />
<path d="M51978 49784
L52015 49784
L52053 49803
L52071 49821
L52090 49859
L52109 49934
L52109 50028
L52090 50103
L52071 50140
L52053 50159
L52015 50178
L51978 50178
L51940 50159
L51921 50140
L51903 50103
L51884 50028
L51884 49934
L51903 49859
L51921 49821
L51940 49803
L51978 49784
" />
<path d="M52296 50178
L52371 50178
L52409 50159
L52428 50140
L52465 50084
L52484 50009
L52484 49859
L52465 49821
L52446 49803
L52409 49784
L52334 49784
L52296 49803
L52278 49821
L52259 49859
L52259 49953
L52278 49990
L52296 50009
L52334 50028
L52409 50028
L52446 50009
L52465 49990
L52484 49953
" />
<path d="M51959 27078
L51828 26890
" />
<path d="M51734 27078
L51734 26684
L51884 26684
L51921 26703
L51940 26721
L51959 26759
L51959 26815
L51940 26853
L51921 26871
L51884 26890
L51734 26890
" />
<path d="M52109 26721
L52128 26703
L52165 26684
L52259 26684
L52296 26703
L52315 26721
L52334 26759
L52334 26796
L52315 26853
L52090 27078
L52334 27078
" />
<path d="M52578 26684
L52615 26684
L52653 26703
L52671 26721
L52690 26759
L52709 26834
L52709 26928
L52690 27003
L52671 27040
L52653 27059
L52615 27078
L52578 27078
L52540 27059
L52521 27040
L52503 27003
L52484 26928
L52484 26834
L52503 26759
L52521 26721
L52540 26703
L52578 26684
" />
<path d="M53084 27078
L52859 27078
" />
<path d="M52971 27078
L52971 26684
L52934 26740
L52896 26778
L52859 26796
" />
<path d="M51959 31578
L51828 31390
" />
<path d="M51734 31578
L51734 31184
L51884 31184
L51921 31203
L51940 31221
L51959 31259
L51959 31315
L51940 31353
L51921 31371
L51884 31390
L51734 31390
" />
<path d="M52109 31221
L52128 31203
L52165 31184
L52259 31184
L52296 31203
L52315 31221
L52334 31259
L52334 31296
L52315 31353
L52090 31578
L52334 31578
" />
<path d="M52578 31184
L52615 31184
L52653 31203
L52671 31221
L52690 31259
L52709 31334
L52709 31428
L52690 31503
L52671 31540
L52653 31559
L52615 31578
L52578 31578
L52540 31559
L52521 31540
L52503 31503
L52484 31428
L52484 31334
L52503 31259
L52521 31221
L52540 31203
L52578 31184
" />
<path d="M52859 31221
L52878 31203
L52915 31184
L53009 31184
L53046 31203
L53065 31221
L53084 31259
L53084 31296
L53065 31353
L52840 31578
L53084 31578
" />
<path d="M51959 34078
L51828 33890
" />
<path d="M51734 34078
L51734 33684
L51884 33684
L51921 33703
L51940 33721
L51959 33759
L51959 33815
L51940 33853
L51921 33871
L51884 33890
L51734 33890
" />
<path d="M52109 33721
L52128 33703
L52165 33684
L52259 33684
L52296 33703
L52315 33721
L52334 33759
L52334 33796
L52315 33853
L52090 34078
L52334 34078
" />
<path d="M52578 33684
L52615 33684
L52653 33703
L52671 33721
L52690 33759
L52709 33834
L52709 33928
L52690 34003
L52671 34040
L52653 34059
L52615 34078
L52578 34078
L52540 34059
L52521 34040
L52503 34003
L52484 33928
L52484 33834
L52503 33759
L52521 33721
L52540 33703
L52578 33684
" />
<path d="M52840 33684
L53084 33684
L52953 33834
L53009 33834
L53046 33853
L53065 33871
L53084 33909
L53084 34003
L53065 34040
L53046 34059
L53009 34078
L52896 34078
L52859 34059
L52840 34040
" />
<path d="M51959 36578
L51828 36390
" />
<path d="M51734 36578
L51734 36184
L51884 36184
L51921 36203
L51940 36221
L51959 36259
L51959 36315
L51940 36353
L51921 36371
L51884 36390
L51734 36390
" />
<path d="M52109 36221
L52128 36203
L52165 36184
L52259 36184
L52296 36203
L52315 36221
L52334 36259
L52334 36296
L52315 36353
L52090 36578
L52334 36578
" />
<path d="M52578 36184
L52615 36184
L52653 36203
L52671 36221
L52690 36259
L52709 36334
L52709 36428
L52690 36503
L52671 36540
L52653 36559
L52615 36578
L52578 36578
L52540 36559
L52521 36540
L52503 36503
L52484 36428
L52484 36334
L52503 36259
L52521 36221
L52540 36203
L52578 36184
" />
<path d="M53046 36315
L53046 36578
" />
<path d="M52953 36165
L52859 36446
L53103 36446
" />
<path d="M51959 39078
L51828 38890
" />
<path d="M51734 39078
L51734 38684
L51884 38684
L51921 38703
L51940 38721
L51959 38759
L51959 38815
L51940 38853
L51921 38871
L51884 38890
L51734 38890
" />
<path d="M52109 38721
L52128 38703
L52165 38684
L52259 38684
L52296 38703
L52315 38721
L52334 38759
L52334 38796
L52315 38853
L52090 39078
L52334 39078
" />
<path d="M52578 38684
L52615 38684
L52653 38703
L52671 38721
L52690 38759
L52709 38834
L52709 38928
L52690 39003
L52671 39040
L52653 39059
L52615 39078
L52578 39078
L52540 39059
L52521 39040
L52503 39003
L52484 38928
L52484 38834
L52503 38759
L52521 38721
L52540 38703
L52578 38684
" />
<path d="M53065 38684
L52878 38684
L52859 38871
L52878 38853
L52915 38834
L53009 38834
L53046 38853
L53065 38871
L53084 38909
L53084 39003
L53065 39040
L53046 39059
L53009 39078
L52915 39078
L52878 39059
L52859 39040
" />
<path d="M51959 41578
L51828 41390
" />
<path d="M51734 41578
L51734 41184
L51884 41184
L51921 41203
L51940 41221
L51959 41259
L51959 41315
L51940 41353
L51921 41371
L51884 41390
L51734 41390
" />
<path d="M52109 41221
L52128 41203
L52165 41184
L52259 41184
L52296 41203
L52315 41221
L52334 41259
L52334 41296
L52315 41353
L52090 41578
L52334 41578
" />
<path d="M52578 41184
L52615 41184
L52653 41203
L52671 41221
L52690 41259
L52709 41334
L52709 41428
L52690 41503
L52671 41540
L52653 41559
L52615 41578
L52578 41578
L52540 41559
L52521 41540
L52503 41503
L52484 41428
L52484 41334
L52503 41259
L52521 41221
L52540 41203
L52578 41184
" />
<path d="M53046 41184
L52971 41184
L52934 41203
L52915 41221
L52878 41278
L52859 41353
L52859 41503
L52878 41540
L52896 41559
L52934 41578
L53009 41578
L53046 41559
L53065 41540
L53084 41503
L53084 41409
L53065 41371
L53046 41353
L53009 41334
L52934 41334
L52896 41353
L52878 41371
L52859 41409
" />
<path d="M51959 44078
L51828 43890
" />
<path d="M51734 44078
L51734 43684
L51884 43684
L51921 43703
L51940 43721
L51959 43759
L51959 43815
L51940 43853
L51921 43871
L51884 43890
L51734 43890
" />
<path d="M52109 43721
L52128 43703
L52165 43684
L52259 43684
L52296 43703
L52315 43721
L52334 43759
L52334 43796
L52315 43853
L52090 44078
L52334 44078
" />
<path d="M52578 43684
L52615 43684
L52653 43703
L52671 43721
L52690 43759
L52709 43834
L52709 43928
L52690 44003
L52671 44040
L52653 44059
L52615 44078
L52578 44078
L52540 44059
L52521 44040
L52503 44003
L52484 43928
L52484 43834
L52503 43759
L52521 43721
L52540 43703
L52578 43684
" />
<path d="M52840 43684
L53103 43684
L52934 44078
" />
<path d="M51959 46578
L51828 46390
" />
<path d="M51734 46578
L51734 46184
L51884 46184
L51921 46203
L51940 46221
L51959 46259
L51959 46315
L51940 46353
L51921 46371
L51884 46390
L51734 46390
" />
<path d="M52109 46221
L52128 46203
L52165 46184
L52259 46184
L52296 46203
L52315 46221
L52334 46259
L52334 46296
L52315 46353
L52090 46578
L52334 46578
" />
<path d="M52578 46184
L52615 46184
L52653 46203
L52671 46221
L52690 46259
L52709 46334
L52709 46428
L52690 46503
L52671 46540
L52653 46559
L52615 46578
L52578 46578
L52540 46559
L52521 46540
L52503 46503
L52484 46428
L52484 46334
L52503 46259
L52521 46221
L52540 46203
L52578 46184
" />
<path d="M52934 46353
L52896 46334
L52878 46315
L52859 46278
L52859 46259
L52878 46221
L52896 46203
L52934 46184
L53009 46184
L53046 46203
L53065 46221
L53084 46259
L53084 46278
L53065 46315
L53046 46334
L53009 46353
L52934 46353
L52896 46371
L52878 46390
L52859 46428
L52859 46503
L52878 46540
L52896 46559
L52934 46578
L53009 46578
L53046 46559
L53065 46540
L53084 46503
L53084 46428
L53065 46390
L53046 46371
L53009 46353
" />
<path d="M42578 26465
L42184 26465
L42184 26315
L42203 26278
L42221 26259
L42259 26240
L42315 26240
L42353 26259
L42371 26278
L42390 26315
L42390 26465
" />
<path d="M42221 26090
L42203 26071
L42184 26034
L42184 25940
L42203 25903
L42221 25884
L42259 25865
L42296 25865
L42353 25884
L42578 26109
L42578 25865
" />
<path d="M42184 25621
L42184 25584
L42203 25546
L42221 25528
L42259 25509
L42334 25490
L42428 25490
L42503 25509
L42540 25528
L42559 25546
L42578 25584
L42578 25621
L42559 25659
L42540 25678
L42503 25696
L42428 25715
L42334 25715
L42259 25696
L42221 25678
L42203 25659
L42184 25621
" />
<path d="M42184 25134
L42184 25321
L42371 25340
L42353 25321
L42334 25284
L42334 25190
L42353 25153
L42371 25134
L42409 25115
L42503 25115
L42540 25134
L42559 25153
L42578 25190
L42578 25284
L42559 25321
L42540 25340
" />
</g> 
</svg>
