999
dxfrw 0.6.3
  0
SECTION
  2
HEADER
  9
$ACADVER
  1
AC1021
  9
$DWGCODEPAGE
  3
ANSI_1250
  9
$INSBASE
 10
0
 20
0
 30
0
  9
$EXTMIN
 10
-7.296790776629262
 20
-269.6906092233708
 30
0
  9
$EXTMAX
 10
392.6766092233707
 20
7.296790776629262
 30
0
  9
$LIMMIN
 10
0
 20
0
  9
$LIMMAX
 10
420
 20
297
  9
$ORTHOMODE
 70
    0
  9
$REGENMODE
 70
    1
  9
$FILLMODE
 70
    1
  9
$QTEXTMODE
 70
    0
  9
$MIRRTEXT
 70
    0
  9
$LTSCALE
 40
1
  9
$ATTMODE
 70
    0
  9
$TEXTSIZE
 40
2.5
  9
$TRACEWID
 40
15.68
  9
$TEXTSTYLE
  7
STANDARD
  9
$CLAYER
  8
draw
  9
$CELTYPE
  6
BYLAYER
  9
$CECOLOR
 62
  256
  9
$CELTSCALE
 40
1
  9
$DISPSILH
 70
    0
  9
$DIMSCALE
 40
1
  9
$DIMASZ
 40
2.5
  9
$DIMEXO
 40
0.625
  9
$DIMDLI
 40
3.75
  9
$DIMRND
 40
0
  9
$DIMDLE
 40
0
  9
$DIMEXE
 40
1.25
  9
$DIMTP
 40
0
  9
$DIMTM
 40
0
  9
$DIMTXT
 40
2.5
  9
$DIMCEN
 40
2.5
  9
$DIMTSZ
 40
0
  9
$DIMTOL
 70
    0
  9
$DIMLIM
 70
    0
  9
$DIMTIH
 70
    0
  9
$DIMTOH
 70
    0
  9
$DIMSE1
 70
    0
  9
$DIMSE2
 70
    0
  9
$DIMTAD
 70
    1
  9
$DIMZIN
 70
    1
  9
$DIMBLK
  1

  9
$DIMASO
 70
    1
  9
$DIMSHO
 70
    1
  9
$DIMPOST
  1

  9
$DIMAPOST
  1

  9
$DIMALT
 70
    0
  9
$DIMALTD
 70
    3
  9
$DIMALTF
 40
0.03937
  9
$DIMLFAC
 40
1
  9
$DIMTOFL
 70
    1
  9
$DIMTVP
 40
0
  9
$DIMTIX
 70
    0
  9
$DIMSOXD
 70
    0
  9
$DIMSAH
 70
    0
  9
$DIMBLK1
  1

  9
$DIMBLK2
  1

  9
$DIMSTYLE
  2
Standard
  9
$DIMCLRD
 70
    0
  9
$DIMCLRE
 70
    0
  9
$DIMCLRT
 70
    0
  9
$DIMTFAC
 40
1
  9
$DIMGAP
 40
0.625
  9
$DIMJUST
 70
    0
  9
$DIMSD1
 70
    0
  9
$DIMSD2
 70
    0
  9
$DIMTOLJ
 70
    0
  9
$DIMTZIN
 70
    8
  9
$DIMALTZ
 70
    0
  9
$DIMALTTZ
 70
    0
  9
$DIMUPT
 70
    0
  9
$DIMDEC
 70
    0
  9
$DIMTDEC
 70
    2
  9
$DIMALTU
 70
    2
  9
$DIMALTTD
 70
    3
  9
$DIMTXSTY
  7
standard
  9
$DIMAUNIT
 70
    0
  9
$DIMADEC
 70
    0
  9
$DIMALTRND
 40
0
  9
$DIMAZIN
 70
    0
  9
$DIMDSEP
 70
    0
  9
$DIMATFIT
 70
    3
  9
$DIMFRAC
 70
    0
  9
$DIMLDRBLK
  1
STANDARD
  9
$DIMLUNIT
 70
    2
  9
$DIMLWD
 70
   -2
  9
$DIMLWE
 70
   -2
  9
$DIMTMOVE
 70
    0
  9
$DIMFXL
 40
1
  9
$DIMFXLON
 70
    0
  9
$DIMJOGANG
 40
0.7854
  9
$DIMTFILL
 70
    0
  9
$DIMTFILLCLR
 70
    0
  9
$DIMARCSYM
 70
    0
  9
$DIMLTYPE
  6

  9
$DIMLTEX1
  6

  9
$DIMLTEX2
  6

  9
$LUNITS
 70
    2
  9
$LUPREC
 70
    0
  9
$SKETCHINC
 40
1
  9
$FILLETRAD
 40
0
  9
$AUNITS
 70
    0
  9
$AUPREC
 70
    0
  9
$MENU
  1
.
  9
$ELEVATION
 40
0
  9
$PELEVATION
 40
0
  9
$THICKNESS
 40
0
  9
$LIMCHECK
 70
    0
  9
$CHAMFERA
 40
0
  9
$CHAMFERB
 40
0
  9
$CHAMFERC
 40
0
  9
$CHAMFERD
 40
0
  9
$SKPOLY
 70
    0
  9
$USRTIMER
 70
    1
  9
$ANGBASE
 50
0
  9
$ANGDIR
 70
    1
  9
$PDMODE
 70
   34
  9
$PDSIZE
 40
0
  9
$PLINEWID
 40
0
  9
$SPLFRAME
 70
    0
  9
$SPLINETYPE
 70
    2
  9
$SPLINESEGS
 70
    8
  9
$HANDSEED
  5
20000
  9
$SURFTAB1
 70
    6
  9
$SURFTAB2
 70
    6
  9
$SURFTYPE
 70
    6
  9
$SURFU
 70
    6
  9
$SURFV
 70
    6
  9
$UCSBASE
  2

  9
$UCSNAME
  2

  9
$UCSORG
 10
0
 20
0
 30
0
  9
$UCSXDIR
 10
1
 20
0
 30
0
  9
$UCSYDIR
 10
0
 20
1
 30
0
  9
$UCSORTHOREF
  2

  9
$UCSORTHOVIEW
 70
    0
  9
$UCSORGTOP
 10
0
 20
0
 30
0
  9
$UCSORGBOTTOM
 10
0
 20
0
 30
0
  9
$UCSORGLEFT
 10
0
 20
0
 30
0
  9
$UCSORGRIGHT
 10
0
 20
0
 30
0
  9
$UCSORGFRONT
 10
0
 20
0
 30
0
  9
$UCSORGBACK
 10
0
 20
0
 30
0
  9
$PUCSBASE
  2

  9
$PUCSNAME
  2

  9
$PUCSORG
 10
0
 20
0
 30
0
  9
$PUCSXDIR
 10
1
 20
0
 30
0
  9
$PUCSYDIR
 10
0
 20
1
 30
0
  9
$PUCSORTHOREF
  2

  9
$PUCSORTHOVIEW
 70
    0
  9
$PUCSORGTOP
 10
0
 20
0
 30
0
  9
$PUCSORGBOTTOM
 10
0
 20
0
 30
0
  9
$PUCSORGLEFT
 10
0
 20
0
 30
0
  9
$PUCSORGRIGHT
 10
0
 20
0
 30
0
  9
$PUCSORGFRONT
 10
0
 20
0
 30
0
  9
$PUCSORGBACK
 10
0
 20
0
 30
0
  9
$USERI1
 70
    0
  9
$USERI2
 70
    0
  9
$USERI3
 70
    0
  9
$USERI4
 70
    0
  9
$USERI5
 70
    0
  9
$USERR1
 40
0
  9
$USERR2
 40
0
  9
$USERR3
 40
0
  9
$USERR4
 40
0
  9
$USERR5
 40
0
  9
$WORLDVIEW
 70
    1
  9
$SHADEDGE
 70
    3
  9
$SHADEDIF
 70
   70
  9
$TILEMODE
 70
    1
  9
$MAXACTVP
 70
   64
  9
$PINSBASE
 10
20.77964084735688
 20
277.3345943127985
 30
0
  9
$PLIMCHECK
 70
    0
  9
$PEXTMIN
 10
0
 20
0
 30
0
  9
$PEXTMAX
 10
0
 20
0
 30
0
  9
$GRIDMODE
 70
    1
  9
$SNAPSTYLE
 70
    0
  9
$GRIDUNIT
 10
0
 20
0
  9
$PLIMMIN
 10
0
 20
0
  9
$PLIMMAX
 10
420
 20
297
  9
$UNITMODE
 70
    0
  9
$VISRETAIN
 70
    1
  9
$PLINEGEN
 70
    0
  9
$PSLTSCALE
 70
    1
  9
$TREEDEPTH
 70
 3020
  9
$CMLSTYLE
  2
Standard
  9
$CMLJUST
 70
    0
  9
$CMLSCALE
 40
20
  9
$PROXYGRAPHICS
 70
    1
  9
$MEASUREMENT
 70
    0
  9
$CELWEIGHT
370
   -1
  9
$ENDCAPS
280
    0
  9
$JOINSTYLE
280
    0
  9
$LWDISPLAY
290
    0
  9
$INSUNITS
 70
    4
  9
$HYPERLINKBASE
  1

  9
$STYLESHEET
  1

  9
$XEDIT
290
    1
  9
$CEPSNTYPE
380
    0
  9
$PSTYLEMODE
290
    1
  9
$EXTNAMES
290
    1
  9
$PSVPSCALE
 40
0.9819902979358563
  9
$OLESTARTUP
290
    0
  9
$SORTENTS
280
  127
  9
$INDEXCTL
280
    0
  9
$HIDETEXT
280
    1
  9
$XCLIPFRAME
290
    0
  9
$HALOGAP
280
    0
  9
$OBSCOLOR
 70
  257
  9
$OBSLTYPE
280
    0
  9
$INTERSECTIONDISPLAY
280
    0
  9
$INTERSECTIONCOLOR
 70
  257
  9
$DIMASSOC
280
    1
  9
$PROJECTNAME
  1

  9
$CAMERADISPLAY
290
    0
  9
$LENSLENGTH
 40
50
  9
$CAMERAHEIGHT
 40
0
  9
$STEPSPERSEC
 40
2
  9
$STEPSIZE
 40
50
  9
$3DDWFPREC
 40
2
  9
$PSOLWIDTH
 40
5
  9
$PSOLHEIGHT
 40
80
  9
$LOFTANG1
 40
1.570796326794897
  9
$LOFTANG2
 40
1.570796326794897
  9
$LOFTMAG1
 40
0
  9
$LOFTMAG2
 40
0
  9
$LOFTPARAM
 70
    7
  9
$LOFTNORMALS
280
    1
  9
$LATITUDE
 40
1
  9
$LONGITUDE
 40
1
  9
$NORTHDIRECTION
 40
0
  9
$TIMEZONE
 70
-8000
  9
$LIGHTGLYPHDISPLAY
280
    1
  9
$TILEMODELIGHTSYNCH
280
    1
  9
$SOLIDHIST
280
    1
  9
$SHOWHIST
280
    1
  9
$DWFFRAME
280
    2
  9
$DGNFRAME
280
    0
  9
$REALWORLDSCALE
290
    1
  9
$INTERFERECOLOR
 62
    1
  9
$CSHADOW
280
    0
  9
$SHADOWPLANELOCATION
 40
0
  0
ENDSEC
  0
SECTION
  2
CLASSES
  0
ENDSEC
  0
SECTION
  2
TABLES
  0
TABLE
  2
VPORT
  5
8
330
0
100
AcDbSymbolTable
 70
    1
  0
VPORT
  5
31
330
2
100
AcDbSymbolTableRecord
100
AcDbViewportTableRecord
  2
*ACTIVE
 70
    0
 10
0
 20
0
 11
1
 21
1
 12
241.1790336129218
 22
9.945527159295745
 13
0
 23
0
 14
10
 24
10
 15
10
 25
10
 16
0
 26
0
 36
1
 17
0
 27
0
 37
0
 40
302.7860490718927
 41
1.642335766423358
 42
50
 43
0
 44
0
 50
0
 51
0
 71
    0
 72
  100
 73
    1
 74
    3
 75
    0
 76
    1
 77
    0
 78
    0
281
    0
 65
    1
110
0
120
0
130
0
111
1
121
0
131
0
112
0
122
1
132
0
 79
    0
146
0
348
10020
 60
    7
 61
    5
292
1
282
    1
141
0
142
0
 63
  250
421
3358443
  0
ENDTAB
  0
TABLE
  2
LTYPE
  5
5
330
0
100
AcDbSymbolTable
 70
    4
  0
LTYPE
  5
14
330
5
100
AcDbSymbolTableRecord
100
AcDbLinetypeTableRecord
  2
ByBlock
 70
    0
  3

 72
   65
 73
    0
 40
0
  0
LTYPE
  5
15
330
5
100
AcDbSymbolTableRecord
100
AcDbLinetypeTableRecord
  2
ByLayer
 70
    0
  3

 72
   65
 73
    0
 40
0
  0
LTYPE
  5
16
330
5
100
AcDbSymbolTableRecord
100
AcDbLinetypeTableRecord
  2
Continuous
 70
    0
  3
Solid line
 72
   65
 73
    0
 40
0
  0
LTYPE
  5
32
330
5
100
AcDbSymbolTableRecord
100
AcDbLinetypeTableRecord
  2
DOT
 70
    0
  3
Dot . . . . . . . . . . . . . . . . . . . . . .
 72
   65
 73
    2
 40
6.35
 49
0
 74
    0
 49
-6.35
 74
    0
  0
LTYPE
  5
33
330
5
100
AcDbSymbolTableRecord
100
AcDbLinetypeTableRecord
  2
DOTTINY
 70
    0
  3
Dot (.15x) .....................................
 72
   65
 73
    2
 40
0.9525
 49
0
 74
    0
 49
-0.9525
 74
    0
  0
LTYPE
  5
34
330
5
100
AcDbSymbolTableRecord
100
AcDbLinetypeTableRecord
  2
DOT2
 70
    0
  3
Dot (.5x) .....................................
 72
   65
 73
    2
 40
3.175
 49
0
 74
    0
 49
-3.175
 74
    0
  0
LTYPE
  5
35
330
5
100
AcDbSymbolTableRecord
100
AcDbLinetypeTableRecord
  2
DOTX2
 70
    0
  3
Dot (2x) .  .  .  .  .  .  .  .  .  .  .  .  .
 72
   65
 73
    2
 40
12.7
 49
0
 74
    0
 49
-12.7
 74
    0
  0
LTYPE
  5
36
330
5
100
AcDbSymbolTableRecord
100
AcDbLinetypeTableRecord
  2
DASHED
 70
    0
  3
Dashed _ _ _ _ _ _ _ _ _ _ _ _ _ _ _ _ _
 72
   65
 73
    2
 40
19.05
 49
12.7
 74
    0
 49
-6.35
 74
    0
  0
LTYPE
  5
37
330
5
100
AcDbSymbolTableRecord
100
AcDbLinetypeTableRecord
  2
DASHEDTINY
 70
    0
  3
Dashed (.15x) _ _ _ _ _ _ _ _ _ _ _ _ _ _ _ _ _
 72
   65
 73
    2
 40
2.8575
 49
1.905
 74
    0
 49
-0.9525
 74
    0
  0
LTYPE
  5
38
330
5
100
AcDbSymbolTableRecord
100
AcDbLinetypeTableRecord
  2
DASHED2
 70
    0
  3
Dashed (.5x) _ _ _ _ _ _ _ _ _ _ _ _ _ _ _ _ _
 72
   65
 73
    2
 40
9.524999999999999
 49
6.35
 74
    0
 49
-3.175
 74
    0
  0
LTYPE
  5
39
330
5
100
AcDbSymbolTableRecord
100
AcDbLinetypeTableRecord
  2
DASHEDX2
 70
    0
  3
Dashed (2x) ____  ____  ____  ____  ____  ___
 72
   65
 73
    2
 40
38.09999999999999
 49
25.4
 74
    0
 49
-12.7
 74
    0
  0
LTYPE
  5
3A
330
5
100
AcDbSymbolTableRecord
100
AcDbLinetypeTableRecord
  2
DASHDOT
 70
    0
  3
Dash dot __ . __ . __ . __ . __ . __ . __ . __
 72
   65
 73
    4
 40
25.4
 49
12.7
 74
    0
 49
-6.35
 74
    0
 49
0
 74
    0
 49
-6.35
 74
    0
  0
LTYPE
  5
3B
330
5
100
AcDbSymbolTableRecord
100
AcDbLinetypeTableRecord
  2
DASHDOTTINY
 70
    0
  3
Dash dot (.15x) _._._._._._._._._._._._._._._.
 72
   65
 73
    4
 40
3.81
 49
1.905
 74
    0
 49
-0.9525
 74
    0
 49
0
 74
    0
 49
-0.9525
 74
    0
  0
LTYPE
  5
3C
330
5
100
AcDbSymbolTableRecord
100
AcDbLinetypeTableRecord
  2
DASHDOT2
 70
    0
  3
Dash dot (.5x) _._._._._._._._._._._._._._._.
 72
   65
 73
    4
 40
12.7
 49
6.35
 74
    0
 49
-3.175
 74
    0
 49
0
 74
    0
 49
-3.175
 74
    0
  0
LTYPE
  5
3D
330
5
100
AcDbSymbolTableRecord
100
AcDbLinetypeTableRecord
  2
DASHDOTX2
 70
    0
  3
Dash dot (2x) ____  .  ____  .  ____  .  ___
 72
   65
 73
    4
 40
50.8
 49
25.4
 74
    0
 49
-12.7
 74
    0
 49
0
 74
    0
 49
-12.7
 74
    0
  0
LTYPE
  5
3E
330
5
100
AcDbSymbolTableRecord
100
AcDbLinetypeTableRecord
  2
DIVIDE
 70
    0
  3
Divide ____ . . ____ . . ____ . . ____ . . ____
 72
   65
 73
    6
 40
31.75
 49
12.7
 74
    0
 49
-6.35
 74
    0
 49
0
 74
    0
 49
-6.35
 74
    0
 49
0
 74
    0
 49
-6.35
 74
    0
  0
LTYPE
  5
3F
330
5
100
AcDbSymbolTableRecord
100
AcDbLinetypeTableRecord
  2
DIVIDETINY
 70
    0
  3
Divide (.15x) __..__..__..__..__..__..__..__.._
 72
   65
 73
    6
 40
4.7625
 49
1.905
 74
    0
 49
-0.9525
 74
    0
 49
0
 74
    0
 49
-0.9525
 74
    0
 49
0
 74
    0
 49
-0.9525
 74
    0
  0
LTYPE
  5
40
330
5
100
AcDbSymbolTableRecord
100
AcDbLinetypeTableRecord
  2
DIVIDE2
 70
    0
  3
Divide (.5x) __..__..__..__..__..__..__..__.._
 72
   65
 73
    6
 40
15.875
 49
6.35
 74
    0
 49
-3.175
 74
    0
 49
0
 74
    0
 49
-3.175
 74
    0
 49
0
 74
    0
 49
-3.175
 74
    0
  0
LTYPE
  5
41
330
5
100
AcDbSymbolTableRecord
100
AcDbLinetypeTableRecord
  2
DIVIDEX2
 70
    0
  3
Divide (2x) ________  .  .  ________  .  .  _
 72
   65
 73
    6
 40
63.5
 49
25.4
 74
    0
 49
-12.7
 74
    0
 49
0
 74
    0
 49
-12.7
 74
    0
 49
0
 74
    0
 49
-12.7
 74
    0
  0
LTYPE
  5
42
330
5
100
AcDbSymbolTableRecord
100
AcDbLinetypeTableRecord
  2
BORDER
 70
    0
  3
Border __ __ . __ __ . __ __ . __ __ . __ __ .
 72
   65
 73
    6
 40
44.45
 49
12.7
 74
    0
 49
-6.35
 74
    0
 49
12.7
 74
    0
 49
-6.35
 74
    0
 49
0
 74
    0
 49
-6.35
 74
    0
  0
LTYPE
  5
43
330
5
100
AcDbSymbolTableRecord
100
AcDbLinetypeTableRecord
  2
BORDERTINY
 70
    0
  3
Border (.15x) __.__.__.__.__.__.__.__.__.__.__.
 72
   65
 73
    6
 40
6.6675
 49
1.905
 74
    0
 49
-0.9525
 74
    0
 49
1.905
 74
    0
 49
-0.9525
 74
    0
 49
0
 74
    0
 49
-0.9525
 74
    0
  0
LTYPE
  5
44
330
5
100
AcDbSymbolTableRecord
100
AcDbLinetypeTableRecord
  2
BORDER2
 70
    0
  3
Border (.5x) __.__.__.__.__.__.__.__.__.__.__.
 72
   65
 73
    6
 40
22.225
 49
6.35
 74
    0
 49
-3.175
 74
    0
 49
6.35
 74
    0
 49
-3.175
 74
    0
 49
0
 74
    0
 49
-3.175
 74
    0
  0
LTYPE
  5
45
330
5
100
AcDbSymbolTableRecord
100
AcDbLinetypeTableRecord
  2
BORDERX2
 70
    0
  3
Border (2x) ____  ____  .  ____  ____  .  ___
 72
   65
 73
    6
 40
88.89999999999999
 49
25.4
 74
    0
 49
-12.7
 74
    0
 49
25.4
 74
    0
 49
-12.7
 74
    0
 49
0
 74
    0
 49
-12.7
 74
    0
  0
LTYPE
  5
46
330
5
100
AcDbSymbolTableRecord
100
AcDbLinetypeTableRecord
  2
CENTER
 70
    0
  3
Center ____ _ ____ _ ____ _ ____ _ ____ _ ____
 72
   65
 73
    4
 40
50.8
 49
31.75
 74
    0
 49
-6.35
 74
    0
 49
6.35
 74
    0
 49
-6.35
 74
    0
  0
LTYPE
  5
47
330
5
100
AcDbSymbolTableRecord
100
AcDbLinetypeTableRecord
  2
CENTERTINY
 70
    0
  3
Center (.15x) ___ _ ___ _ ___ _ ___ _ ___ _ ___
 72
   65
 73
    4
 40
7.619999999999999
 49
4.7625
 74
    0
 49
-0.9525
 74
    0
 49
0.9525
 74
    0
 49
-0.9525
 74
    0
  0
LTYPE
  5
48
330
5
100
AcDbSymbolTableRecord
100
AcDbLinetypeTableRecord
  2
CENTER2
 70
    0
  3
Center (.5x) ___ _ ___ _ ___ _ ___ _ ___ _ ___
 72
   65
 73
    4
 40
28.575
 49
19.05
 74
    0
 49
-3.175
 74
    0
 49
3.175
 74
    0
 49
-3.175
 74
    0
  0
LTYPE
  5
49
330
5
100
AcDbSymbolTableRecord
100
AcDbLinetypeTableRecord
  2
CENTERX2
 70
    0
  3
Center (2x) ________  __  ________  __  _____
 72
   65
 73
    4
 40
101.6
 49
63.5
 74
    0
 49
-12.7
 74
    0
 49
12.7
 74
    0
 49
-12.7
 74
    0
  0
ENDTAB
  0
TABLE
  2
LAYER
  5
2
330
0
100
AcDbSymbolTable
 70
    1
  0
LAYER
  5
10
330
2
100
AcDbSymbolTableRecord
100
AcDbLayerTableRecord
  2
0
 70
    0
 62
    7
  6
CONTINUOUS
370
    0
390
F
  0
LAYER
  5
4A
330
2
100
AcDbSymbolTableRecord
100
AcDbLayerTableRecord
  2
BLACK
 70
    0
 62
    7
  6
CONTINUOUS
370
   -3
390
F
  0
LAYER
  5
4B
330
2
100
AcDbSymbolTableRecord
100
AcDbLayerTableRecord
  2
BLUE1
 70
    0
 62
  178
  6
CONTINUOUS
370
   -3
390
F
  0
LAYER
  5
4C
330
2
100
AcDbSymbolTableRecord
100
AcDbLayerTableRecord
  2
BLUE2
 70
    0
 62
    5
  6
CONTINUOUS
370
   -3
390
F
  0
LAYER
  5
4D
330
2
100
AcDbSymbolTableRecord
100
AcDbLayerTableRecord
  2
BLUE3
 70
    0
 62
  171
  6
CONTINUOUS
370
   -3
390
F
  0
LAYER
  5
4E
330
2
100
AcDbSymbolTableRecord
100
AcDbLayerTableRecord
  2
BLUE4
 70
    0
 62
    5
  6
CONTINUOUS
370
   -3
390
F
  0
LAYER
  5
4F
330
2
100
AcDbSymbolTableRecord
100
AcDbLayerTableRecord
  2
BROWN1
 70
    0
 62
   58
  6
CONTINUOUS
370
   -3
390
F
  0
LAYER
  5
50
330
2
100
AcDbSymbolTableRecord
100
AcDbLayerTableRecord
  2
BROWN2
 70
    0
 62
   54
  6
CONTINUOUS
370
   -3
390
F
  0
LAYER
  5
51
330
2
100
AcDbSymbolTableRecord
100
AcDbLayerTableRecord
  2
CYAN1
 70
    0
 62
  138
  6
CONTINUOUS
370
   -3
390
F
  0
LAYER
  5
52
330
2
100
AcDbSymbolTableRecord
100
AcDbLayerTableRecord
  2
CYAN2
 70
    0
 62
    4
  6
CONTINUOUS
370
   -3
390
F
  0
LAYER
  5
53
330
2
100
AcDbSymbolTableRecord
100
AcDbLayerTableRecord
  2
CYAN3
 70
    0
 62
  131
  6
CONTINUOUS
370
   -3
390
F
  0
LAYER
  5
54
330
2
100
AcDbSymbolTableRecord
100
AcDbLayerTableRecord
  2
CYAN4
 70
    0
 62
    4
  6
CONTINUOUS
370
   -3
390
F
  0
LAYER
  5
55
330
2
100
AcDbSymbolTableRecord
100
AcDbLayerTableRecord
  2
GRAY1
 70
    0
 62
  251
  6
CONTINUOUS
370
   -3
390
F
  0
LAYER
  5
56
330
2
100
AcDbSymbolTableRecord
100
AcDbLayerTableRecord
  2
GRAY2
 70
    0
 62
    8
  6
CONTINUOUS
370
   -3
390
F
  0
LAYER
  5
57
330
2
100
AcDbSymbolTableRecord
100
AcDbLayerTableRecord
  2
GRAY3
 70
    0
 62
    9
  6
CONTINUOUS
370
   -3
390
F
  0
LAYER
  5
58
330
2
100
AcDbSymbolTableRecord
100
AcDbLayerTableRecord
  2
GREEN1
 70
    0
 62
   98
  6
CONTINUOUS
370
   -3
390
F
  0
LAYER
  5
59
330
2
100
AcDbSymbolTableRecord
100
AcDbLayerTableRecord
  2
GREEN2
 70
    0
 62
    3
  6
CONTINUOUS
370
   -3
390
F
  0
LAYER
  5
5A
330
2
100
AcDbSymbolTableRecord
100
AcDbLayerTableRecord
  2
GREEN3
 70
    0
 62
   91
  6
CONTINUOUS
370
   -3
390
F
  0
LAYER
  5
5B
330
2
100
AcDbSymbolTableRecord
100
AcDbLayerTableRecord
  2
GREEN4
 70
    0
 62
    3
  6
CONTINUOUS
370
   -3
390
F
  0
LAYER
  5
5C
330
2
100
AcDbSymbolTableRecord
100
AcDbLayerTableRecord
  2
LYELLOW
 70
    0
 62
   51
  6
CONTINUOUS
370
   -3
390
F
  0
LAYER
  5
5D
330
2
100
AcDbSymbolTableRecord
100
AcDbLayerTableRecord
  2
MAGENTA1
 70
    0
 62
  228
  6
CONTINUOUS
370
   -3
390
F
  0
LAYER
  5
5E
330
2
100
AcDbSymbolTableRecord
100
AcDbLayerTableRecord
  2
MAGENTA2
 70
    0
 62
    6
  6
CONTINUOUS
370
   -3
390
F
  0
LAYER
  5
5F
330
2
100
AcDbSymbolTableRecord
100
AcDbLayerTableRecord
  2
MAGENTA3
 70
    0
 62
  221
  6
CONTINUOUS
370
   -3
390
F
  0
LAYER
  5
60
330
2
100
AcDbSymbolTableRecord
100
AcDbLayerTableRecord
  2
MAGENTA4
 70
    0
 62
    6
  6
CONTINUOUS
370
   -3
390
F
  0
LAYER
  5
61
330
2
100
AcDbSymbolTableRecord
100
AcDbLayerTableRecord
  2
RED1
 70
    0
 62
   18
  6
CONTINUOUS
370
   -3
390
F
  0
LAYER
  5
62
330
2
100
AcDbSymbolTableRecord
100
AcDbLayerTableRecord
  2
RED2
 70
    0
 62
    1
  6
CONTINUOUS
370
   -3
390
F
  0
LAYER
  5
63
330
2
100
AcDbSymbolTableRecord
100
AcDbLayerTableRecord
  2
RED3
 70
    0
 62
   11
  6
CONTINUOUS
370
   -3
390
F
  0
LAYER
  5
64
330
2
100
AcDbSymbolTableRecord
100
AcDbLayerTableRecord
  2
RED4
 70
    0
 62
    1
  6
CONTINUOUS
370
   -3
390
F
  0
LAYER
  5
65
330
2
100
AcDbSymbolTableRecord
100
AcDbLayerTableRecord
  2
Red 2
 70
    0
 62
    7
  6
CONTINUOUS
370
   -3
390
F
  0
LAYER
  5
66
330
2
100
AcDbSymbolTableRecord
100
AcDbLayerTableRecord
  2
WHITE
 70
    0
 62
    7
  6
CONTINUOUS
370
   -3
390
F
  0
LAYER
  5
67
330
2
100
AcDbSymbolTableRecord
100
AcDbLayerTableRecord
  2
YELLOW3
 70
    0
 62
    2
  6
CONTINUOUS
370
   -3
390
F
  0
LAYER
  5
68
330
2
100
AcDbSymbolTableRecord
100
AcDbLayerTableRecord
  2
YELLOW4
 70
    0
 62
    2
  6
CONTINUOUS
370
   -3
390
F
  0
LAYER
  5
69
330
2
100
AcDbSymbolTableRecord
100
AcDbLayerTableRecord
  2
draw
 70
    0
 62
    7
  6
CONTINUOUS
370
   50
390
F
  0
ENDTAB
  0
TABLE
  2
STYLE
  5
3
330
0
100
AcDbSymbolTable
 70
    3
  0
STYLE
  5
6A
330
2
100
AcDbSymbolTableRecord
100
AcDbTextStyleTableRecord
  2
unicode
 70
    0
 40
0
 41
1
 50
0
 71
    0
 42
1
  3
unicode
  4

  0
STYLE
  5
6B
330
2
100
AcDbSymbolTableRecord
100
AcDbTextStyleTableRecord
  2
Standard
 70
    0
 40
0
 41
1
 50
0
 71
    0
 42
1
  3
txt
  4

  0
ENDTAB
  0
TABLE
  2
VIEW
  5
6
330
0
100
AcDbSymbolTable
 70
    0
  0
ENDTAB
  0
TABLE
  2
UCS
  5
7
330
0
100
AcDbSymbolTable
 70
    0
  0
ENDTAB
  0
TABLE
  2
APPID
  5
9
330
0
100
AcDbSymbolTable
 70
    1
  0
APPID
  5
12
330
9
100
AcDbSymbolTableRecord
100
AcDbRegAppTableRecord
  2
ACAD
 70
    0
  0
APPID
  5
6C
330
9
100
AcDbSymbolTableRecord
100
AcDbRegAppTableRecord
  2
LibreCad
 70
    0
  0
ENDTAB
  0
TABLE
  2
DIMSTYLE
  5
A
330
0
100
AcDbSymbolTable
 70
    1
100
AcDbDimStyleTable
 71
    1
  0
DIMSTYLE
105
6D
330
A
100
AcDbSymbolTableRecord
100
AcDbDimStyleTableRecord
  2
Standard
 70
    0
 40
1
 41
2.5
 42
0.625
 43
0.38
 44
1.25
 45
0
 46
0
 47
0
 48
0
 49
1
140
2.5
141
0.09
142
0
143
25.4
144
1
145
0
146
1
147
0.625
148
0
 71
    0
 72
    0
 73
    0
 74
    1
 75
    0
 76
    0
 77
    0
 78
    1
 79
    0
170
    0
171
    2
172
    0
173
    0
174
    0
175
    0
176
    0
177
    0
178
    0
179
    0
271
    0
272
    4
273
    2
274
    2
275
    0
276
    0
277
    2
278
    0
279
    0
280
    0
281
    0
282
    0
283
    1
284
    0
285
    0
286
    0
288
    0
289
    3
340
standard
341

371
   -2
372
   -2
  0
ENDTAB
  0
TABLE
  2
BLOCK_RECORD
  5
1
330
0
100
AcDbSymbolTable
 70
    2
  0
BLOCK_RECORD
  5
1F
330
1
100
AcDbSymbolTableRecord
100
AcDbBlockTableRecord
  2
*Model_Space
 70
    0
280
    1
281
    0
  0
BLOCK_RECORD
  5
1E
330
1
100
AcDbSymbolTableRecord
100
AcDbBlockTableRecord
  2
*Paper_Space
 70
    0
280
    1
281
    0
  0
BLOCK_RECORD
  5
6E
330
1
100
AcDbSymbolTableRecord
100
AcDbBlockTableRecord
  2
*D11
 70
    0
280
    1
281
    0
  0
BLOCK_RECORD
  5
71
330
1
100
AcDbSymbolTableRecord
100
AcDbBlockTableRecord
  2
*D13
 70
    0
280
    1
281
    0
  0
BLOCK_RECORD
  5
74
330
1
100
AcDbSymbolTableRecord
100
AcDbBlockTableRecord
  2
*D1
 70
    0
280
    1
281
    0
  0
BLOCK_RECORD
  5
77
330
1
100
AcDbSymbolTableRecord
100
AcDbBlockTableRecord
  2
*D4
 70
    0
280
    1
281
    0
  0
BLOCK_RECORD
  5
7A
330
1
100
AcDbSymbolTableRecord
100
AcDbBlockTableRecord
  2
*D5
 70
    0
280
    1
281
    0
  0
BLOCK_RECORD
  5
7D
330
1
100
AcDbSymbolTableRecord
100
AcDbBlockTableRecord
  2
*D9
 70
    0
280
    1
281
    0
  0
BLOCK_RECORD
  5
80
330
1
100
AcDbSymbolTableRecord
100
AcDbBlockTableRecord
  2
*D12
 70
    0
280
    1
281
    0
  0
BLOCK_RECORD
  5
83
330
1
100
AcDbSymbolTableRecord
100
AcDbBlockTableRecord
  2
*D2
 70
    0
280
    1
281
    0
  0
BLOCK_RECORD
  5
86
330
1
100
AcDbSymbolTableRecord
100
AcDbBlockTableRecord
  2
*D10
 70
    0
280
    1
281
    0
  0
BLOCK_RECORD
  5
89
330
1
100
AcDbSymbolTableRecord
100
AcDbBlockTableRecord
  2
*D3
 70
    0
280
    1
281
    0
  0
BLOCK_RECORD
  5
8C
330
1
100
AcDbSymbolTableRecord
100
AcDbBlockTableRecord
  2
*D6
 70
    0
280
    1
281
    0
  0
BLOCK_RECORD
  5
8F
330
1
100
AcDbSymbolTableRecord
100
AcDbBlockTableRecord
  2
*D7
 70
    0
280
    1
281
    0
  0
BLOCK_RECORD
  5
92
330
1
100
AcDbSymbolTableRecord
100
AcDbBlockTableRecord
  2
*D8
 70
    0
280
    1
281
    0
  0
ENDTAB
  0
ENDSEC
  0
SECTION
  2
BLOCKS
  0
BLOCK
  5
20
330
1F
100
AcDbEntity
  8
0
100
AcDbBlockBegin
  2
*Model_Space
 70
    0
 10
0
 20
0
 30
0
  3
*Model_Space
  1

  0
ENDBLK
  5
21
330
1F
100
AcDbEntity
  8
0
100
AcDbBlockEnd
  0
BLOCK
  5
1C
330
1B
100
AcDbEntity
  8
0
100
AcDbBlockBegin
  2
*Paper_Space
 70
    0
 10
0
 20
0
 30
0
  3
*Paper_Space
  1

  0
ENDBLK
  5
1D
330
1F
100
AcDbEntity
  8
0
100
AcDbBlockEnd
  0
BLOCK
  5
6F
330
6E
100
AcDbEntity
  8
0
100
AcDbBlockBegin
  2
*D11
 70
    1
 10
0
 20
0
  3
*D11
  1

  0
LINE
  5
95
100
AcDbEntity
  8
draw
  6
ByBlock
 62
    0
370
   -2
100
AcDbLine
 10
165.0375429299565
 20
-240.2992287621452
 11
194.9628286292125
 21
-240.2992287621452
  0
SOLID
  5
96
100
AcDbEntity
  8
draw
  6
ByBlock
 62
    0
370
   -2
100
AcDbTrace
 10
165.0375429299565
 20
-240.2992287621452
 30
0
 11
167.5375429299565
 21
-239.8829441043723
 31
0
 12
167.5375429299565
 22
-240.715513419918
 32
0
 13
167.5375429299565
 23
-240.715513419918
 33
0
  0
SOLID
  5
97
100
AcDbEntity
  8
draw
  6
ByBlock
 62
    0
370
   -2
100
AcDbTrace
 10
194.9628286292125
 20
-240.2992287621452
 30
0
 11
192.4628286292125
 21
-240.715513419918
 31
0
 12
192.4628286292125
 22
-239.8829441043723
 32
0
 13
192.4628286292125
 23
-239.8829441043723
 33
0
  0
MTEXT
  5
98
100
AcDbEntity
  8
draw
  6
CONTINUOUS
 62
    0
370
   -2
100
AcDbMText
 10
180.0001857795845
 20
-238.4242287621452
 30
0
 40
2.5
 41
3.055555555555711
 71
    5
 72
    1
  1
30
  7
standard
210
0
220
0
230
1
 50
0
 73
    2
 44
1
  0
LINE
  5
99
100
AcDbEntity
  8
draw
  6
ByBlock
 62
    0
370
   -2
100
AcDbLine
 10
165.0375429299565
 20
-227.6331618166991
 11
165.0375429299565
 21
-241.5492287621452
  0
LINE
  5
9A
100
AcDbEntity
  8
draw
  6
ByBlock
 62
    0
370
   -2
100
AcDbLine
 10
194.9628286292125
 20
-227.714702104708
 11
194.9628286292125
 21
-241.5492287621452
  0
ENDBLK
  5
70
330
6E
100
AcDbEntity
  8
0
100
AcDbBlockEnd
  0
BLOCK
  5
72
330
71
100
AcDbEntity
  8
0
100
AcDbBlockBegin
  2
*D13
 70
    1
 10
0
 20
0
  3
*D13
  1

  0
LINE
  5
9B
100
AcDbEntity
  8
draw
  6
ByBlock
 62
    0
370
   -2
100
AcDbLine
 10
224.9696546164773
 20
-240.2992287621452
 11
254.9764806037421
 21
-240.2992287621452
  0
SOLID
  5
9C
100
AcDbEntity
  8
draw
  6
ByBlock
 62
    0
370
   -2
100
AcDbTrace
 10
224.9696546164773
 20
-240.2992287621452
 30
0
 11
227.4696546164773
 21
-239.8829441043723
 31
0
 12
227.4696546164773
 22
-240.715513419918
 32
0
 13
227.4696546164773
 23
-240.715513419918
 33
0
  0
SOLID
  5
9D
100
AcDbEntity
  8
draw
  6
ByBlock
 62
    0
370
   -2
100
AcDbTrace
 10
254.9764806037421
 20
-240.2992287621452
 30
0
 11
252.4764806037421
 21
-240.715513419918
 31
0
 12
252.4764806037421
 22
-239.8829441043723
 32
0
 13
252.4764806037421
 23
-239.8829441043723
 33
0
  0
MTEXT
  5
9E
100
AcDbEntity
  8
draw
  6
CONTINUOUS
 62
    0
370
   -2
100
AcDbMText
 10
239.9730676101097
 20
-238.4242287621452
 30
0
 40
2.5
 41
3.055555555555711
 71
    5
 72
    1
  1
30
  7
standard
210
0
220
0
230
1
 50
0
 73
    2
 44
1
  0
LINE
  5
9F
100
AcDbEntity
  8
draw
  6
ByBlock
 62
    0
370
   -2
100
AcDbLine
 10
224.9696546164773
 20
-227.6331618166991
 11
224.9696546164773
 21
-241.5492287621452
  0
LINE
  5
A0
100
AcDbEntity
  8
draw
  6
ByBlock
 62
    0
370
   -2
100
AcDbLine
 10
254.9764806037421
 20
-227.5516215286902
 11
254.9764806037421
 21
-241.5492287621452
  0
ENDBLK
  5
73
330
71
100
AcDbEntity
  8
0
100
AcDbBlockEnd
  0
BLOCK
  5
75
330
74
100
AcDbEntity
  8
0
100
AcDbBlockBegin
  2
*D1
 70
    1
 10
0
 20
0
  3
*D1
  1

  0
LINE
  5
A1
100
AcDbEntity
  8
draw
  6
ByBlock
 62
    0
370
   -2
100
AcDbLine
 10
320.0625743283759
 20
0
 11
320.0625743283759
 21
-37.02989330821824
  0
SOLID
  5
A2
100
AcDbEntity
  8
draw
  6
ByBlock
 62
    0
370
   -2
100
AcDbTrace
 10
320.0625743283759
 20
0
 30
0
 11
320.4788589861487
 21
-2.5
 31
0
 12
319.646289670603
 22
-2.5
 32
0
 13
319.646289670603
 23
-2.5
 33
0
  0
SOLID
  5
A3
100
AcDbEntity
  8
draw
  6
ByBlock
 62
    0
370
   -2
100
AcDbTrace
 10
320.0625743283759
 20
-37.02989330821824
 30
0
 11
319.646289670603
 21
-34.52989330821824
 31
0
 12
320.4788589861487
 22
-34.52989330821824
 32
0
 13
320.4788589861487
 23
-34.52989330821824
 33
0
  0
MTEXT
  5
A4
100
AcDbEntity
  8
draw
  6
CONTINUOUS
 62
    0
370
   -2
100
AcDbMText
 10
318.1875743283759
 20
-18.51494665410912
 30
0
 40
2.5
 41
3.055555555555711
 71
    5
 72
    1
  1
37
  7
standard
210
0
220
0
230
1
 50
90
 73
    2
 44
1
  0
LINE
  5
A5
100
AcDbEntity
  8
draw
  6
ByBlock
 62
    0
370
   -2
100
AcDbLine
 10
295.5693949514726
 20
0
 11
321.3125743283759
 21
0
  0
LINE
  5
A6
100
AcDbEntity
  8
draw
  6
ByBlock
 62
    0
370
   -2
100
AcDbLine
 10
295.5693949514726
 20
-37.02989330821824
 11
321.3125743283759
 21
-37.02989330821824
  0
ENDBLK
  5
76
330
74
100
AcDbEntity
  8
0
100
AcDbBlockEnd
  0
BLOCK
  5
78
330
77
100
AcDbEntity
  8
0
100
AcDbBlockBegin
  2
*D4
 70
    1
 10
0
 20
0
  3
*D4
  1

  0
LINE
  5
A7
100
AcDbEntity
  8
draw
  6
ByBlock
 62
    0
370
   -2
100
AcDbLine
 10
320.090119705663
 20
-97.03294273055481
 11
320.090119705663
 21
-137.2100951178843
  0
SOLID
  5
A8
100
AcDbEntity
  8
draw
  6
ByBlock
 62
    0
370
   -2
100
AcDbTrace
 10
320.090119705663
 20
-97.03294273055481
 30
0
 11
320.5064043634359
 21
-99.53294273055481
 31
0
 12
319.6738350478902
 22
-99.53294273055481
 32
0
 13
319.6738350478902
 23
-99.53294273055481
 33
0
  0
SOLID
  5
A9
100
AcDbEntity
  8
draw
  6
ByBlock
 62
    0
370
   -2
100
AcDbTrace
 10
320.090119705663
 20
-137.2100951178843
 30
0
 11
319.6738350478902
 21
-134.7100951178843
 31
0
 12
320.5064043634359
 22
-134.7100951178843
 32
0
 13
320.5064043634359
 23
-134.7100951178843
 33
0
  0
MTEXT
  5
AA
100
AcDbEntity
  8
draw
  6
CONTINUOUS
 62
    0
370
   -2
100
AcDbMText
 10
318.215119705663
 20
-117.1215189242196
 30
0
 40
2.5
 41
3.333333333333333
 71
    5
 72
    1
  1
40
  7
standard
210
0
220
0
230
1
 50
90
 73
    2
 44
1
  0
LINE
  5
AB
100
AcDbEntity
  8
draw
  6
ByBlock
 62
    0
370
   -2
100
AcDbLine
 10
318.4690426585736
 20
-97.03294273055481
 11
321.340119705663
 21
-97.03294273055481
  0
LINE
  5
AC
100
AcDbEntity
  8
draw
  6
ByBlock
 62
    0
370
   -2
100
AcDbLine
 10
318.5117459154488
 20
-137.2100951178843
 11
321.340119705663
 21
-137.2100951178843
  0
ENDBLK
  5
79
330
77
100
AcDbEntity
  8
0
100
AcDbBlockEnd
  0
BLOCK
  5
7B
330
7A
100
AcDbEntity
  8
0
100
AcDbBlockBegin
  2
*D5
 70
    1
 10
0
 20
0
  3
*D5
  1

  0
LINE
  5
AD
100
AcDbEntity
  8
draw
  6
ByBlock
 62
    0
370
   -2
100
AcDbLine
 10
320.1321446803918
 20
-137.0479247009238
 11
320.1321446803918
 21
-166.9730647464193
  0
SOLID
  5
AE
100
AcDbEntity
  8
draw
  6
ByBlock
 62
    0
370
   -2
100
AcDbTrace
 10
320.1321446803918
 20
-137.0479247009238
 30
0
 11
320.5484293381646
 21
-139.5479247009238
 31
0
 12
319.7158600226189
 22
-139.5479247009238
 32
0
 13
319.7158600226189
 23
-139.5479247009238
 33
0
  0
SOLID
  5
AF
100
AcDbEntity
  8
draw
  6
ByBlock
 62
    0
370
   -2
100
AcDbTrace
 10
320.1321446803918
 20
-166.9730647464193
 30
0
 11
319.7158600226189
 21
-164.4730647464193
 31
0
 12
320.5484293381646
 22
-164.4730647464193
 32
0
 13
320.5484293381646
 23
-164.4730647464193
 33
0
  0
MTEXT
  5
B0
100
AcDbEntity
  8
draw
  6
CONTINUOUS
 62
    0
370
   -2
100
AcDbMText
 10
318.2571446803918
 20
-152.0104947236715
 30
0
 40
2.5
 41
3.055555555555711
 71
    5
 72
    1
  1
30
  7
standard
210
0
220
0
230
1
 50
90
 73
    2
 44
1
  0
LINE
  5
B1
100
AcDbEntity
  8
draw
  6
ByBlock
 62
    0
370
   -2
100
AcDbLine
 10
318.4671780609598
 20
-137.0479247009238
 11
321.3821446803918
 21
-137.0479247009238
  0
LINE
  5
B2
100
AcDbEntity
  8
draw
  6
ByBlock
 62
    0
370
   -2
100
AcDbLine
 10
318.810207223604
 20
-166.9730647464193
 11
321.3821446803918
 21
-166.9730647464193
  0
ENDBLK
  5
7C
330
7A
100
AcDbEntity
  8
0
100
AcDbBlockEnd
  0
BLOCK
  5
7E
330
7D
100
AcDbEntity
  8
0
100
AcDbBlockBegin
  2
*D9
 70
    1
 10
0
 20
0
  3
*D9
  1

  0
LINE
  5
B3
100
AcDbEntity
  8
draw
  6
ByBlock
 62
    0
370
   -2
100
AcDbLine
 10
49.98419654943815
 20
-240.2176884741351
 11
79.99102253670281
 21
-240.2176884741351
  0
SOLID
  5
B4
100
AcDbEntity
  8
draw
  6
ByBlock
 62
    0
370
   -2
100
AcDbTrace
 10
49.98419654943815
 20
-240.2176884741351
 30
0
 11
52.48419654943815
 21
-239.8014038163622
 31
0
 12
52.48419654943815
 22
-240.6339731319079
 32
0
 13
52.48419654943815
 23
-240.6339731319079
 33
0
  0
SOLID
  5
B5
100
AcDbEntity
  8
draw
  6
ByBlock
 62
    0
370
   -2
100
AcDbTrace
 10
79.99102253670281
 20
-240.2176884741351
 30
0
 11
77.49102253670281
 21
-240.6339731319079
 31
0
 12
77.49102253670281
 22
-239.8014038163622
 32
0
 13
77.49102253670281
 23
-239.8014038163622
 33
0
  0
MTEXT
  5
B6
100
AcDbEntity
  8
draw
  6
CONTINUOUS
 62
    0
370
   -2
100
AcDbMText
 10
64.98760954307048
 20
-238.3426884741351
 30
0
 40
2.5
 41
3.055555555555711
 71
    5
 72
    1
  1
30
  7
standard
210
0
220
0
230
1
 50
0
 73
    2
 44
1
  0
LINE
  5
B7
100
AcDbEntity
  8
draw
  6
ByBlock
 62
    0
370
   -2
100
AcDbLine
 10
49.98419654943815
 20
-227.6331618166979
 11
49.98419654943815
 21
-241.4676884741351
  0
LINE
  5
B8
100
AcDbEntity
  8
draw
  6
ByBlock
 62
    0
370
   -2
100
AcDbLine
 10
79.99102253670281
 20
-227.6331618166979
 11
79.99102253670281
 21
-241.4676884741351
  0
ENDBLK
  5
7F
330
7D
100
AcDbEntity
  8
0
100
AcDbBlockEnd
  0
BLOCK
  5
81
330
80
100
AcDbEntity
  8
0
100
AcDbBlockBegin
  2
*D12
 70
    1
 10
0
 20
0
  3
*D12
  1

  0
LINE
  5
B9
100
AcDbEntity
  8
draw
  6
ByBlock
 62
    0
370
   -2
100
AcDbLine
 10
194.9628286292125
 20
-240.2992287621452
 11
224.9696546164773
 21
-240.2992287621452
  0
SOLID
  5
BA
100
AcDbEntity
  8
draw
  6
ByBlock
 62
    0
370
   -2
100
AcDbTrace
 10
194.9628286292125
 20
-240.2992287621452
 30
0
 11
197.4628286292125
 21
-239.8829441043723
 31
0
 12
197.4628286292125
 22
-240.715513419918
 32
0
 13
197.4628286292125
 23
-240.715513419918
 33
0
  0
SOLID
  5
BB
100
AcDbEntity
  8
draw
  6
ByBlock
 62
    0
370
   -2
100
AcDbTrace
 10
224.9696546164773
 20
-240.2992287621452
 30
0
 11
222.4696546164773
 21
-240.715513419918
 31
0
 12
222.4696546164773
 22
-239.8829441043723
 32
0
 13
222.4696546164773
 23
-239.8829441043723
 33
0
  0
MTEXT
  5
BC
100
AcDbEntity
  8
draw
  6
CONTINUOUS
 62
    0
370
   -2
100
AcDbMText
 10
209.9662416228449
 20
-238.4242287621452
 30
0
 40
2.5
 41
3.055555555555711
 71
    5
 72
    1
  1
30
  7
standard
210
0
220
0
230
1
 50
0
 73
    2
 44
1
  0
LINE
  5
BD
100
AcDbEntity
  8
draw
  6
ByBlock
 62
    0
370
   -2
100
AcDbLine
 10
194.9628286292125
 20
-227.714702104708
 11
194.9628286292125
 21
-241.5492287621452
  0
LINE
  5
BE
100
AcDbEntity
  8
draw
  6
ByBlock
 62
    0
370
   -2
100
AcDbLine
 10
224.9696546164773
 20
-227.5516215286902
 11
224.9696546164773
 21
-241.5492287621452
  0
ENDBLK
  5
82
330
80
100
AcDbEntity
  8
0
100
AcDbBlockEnd
  0
BLOCK
  5
84
330
83
100
AcDbEntity
  8
0
100
AcDbBlockBegin
  2
*D2
 70
    1
 10
0
 20
0
  3
*D2
  1

  0
LINE
  5
BF
100
AcDbEntity
  8
draw
  6
ByBlock
 62
    0
370
   -2
100
AcDbLine
 10
320.0381671876445
 20
-66.98473266718142
 11
320.0381671876445
 21
-37.02451796199199
  0
SOLID
  5
C0
100
AcDbEntity
  8
draw
  6
ByBlock
 62
    0
370
   -2
100
AcDbTrace
 10
320.0381671876445
 20
-66.98473266718142
 30
0
 11
319.6218825298716
 21
-64.48473266718142
 31
0
 12
320.4544518454173
 22
-64.48473266718142
 32
0
 13
320.4544518454173
 23
-64.48473266718142
 33
0
  0
SOLID
  5
C1
100
AcDbEntity
  8
draw
  6
ByBlock
 62
    0
370
   -2
100
AcDbTrace
 10
320.0381671876445
 20
-37.02451796199199
 30
0
 11
320.4544518454173
 21
-39.52451796199199
 31
0
 12
319.6218825298716
 22
-39.52451796199199
 32
0
 13
319.6218825298716
 23
-39.52451796199199
 33
0
  0
MTEXT
  5
C2
100
AcDbEntity
  8
draw
  6
CONTINUOUS
 62
    0
370
   -2
100
AcDbMText
 10
318.1631671876445
 20
-52.0046253145867
 30
0
 40
2.5
 41
3.055555555555711
 71
    5
 72
    1
  1
30
  7
standard
210
0
220
0
230
1
 50
90
 73
    2
 44
1
  0
LINE
  5
C3
100
AcDbEntity
  8
draw
  6
ByBlock
 62
    0
370
   -2
100
AcDbLine
 10
320.4108706427588
 20
-66.98473266718142
 11
321.2881671876445
 21
-66.98473266718142
  0
LINE
  5
C4
100
AcDbEntity
  8
draw
  6
ByBlock
 62
    0
370
   -2
100
AcDbLine
 10
320.6631671876445
 20
-37.02451796199199
 11
321.2881671876445
 21
-37.02451796199199
  0
ENDBLK
  5
85
330
83
100
AcDbEntity
  8
0
100
AcDbBlockEnd
  0
BLOCK
  5
87
330
86
100
AcDbEntity
  8
0
100
AcDbBlockBegin
  2
*D10
 70
    1
 10
0
 20
0
  3
*D10
  1

  0
LINE
  5
C5
100
AcDbEntity
  8
draw
  6
ByBlock
 62
    0
370
   -2
100
AcDbLine
 10
79.9937593943141
 20
-240.3058810491441
 11
165.0076144314677
 21
-240.3058810491441
  0
SOLID
  5
C6
100
AcDbEntity
  8
draw
  6
ByBlock
 62
    0
370
   -2
100
AcDbTrace
 10
79.9937593943141
 20
-240.3058810491441
 30
0
 11
82.4937593943141
 21
-239.8895963913712
 31
0
 12
82.4937593943141
 22
-240.7221657069169
 32
0
 13
82.4937593943141
 23
-240.7221657069169
 33
0
  0
SOLID
  5
C7
100
AcDbEntity
  8
draw
  6
ByBlock
 62
    0
370
   -2
100
AcDbTrace
 10
165.0076144314677
 20
-240.3058810491441
 30
0
 11
162.5076144314677
 21
-240.7221657069169
 31
0
 12
162.5076144314677
 22
-239.8895963913712
 32
0
 13
162.5076144314677
 23
-239.8895963913712
 33
0
  0
MTEXT
  5
C8
100
AcDbEntity
  8
draw
  6
CONTINUOUS
 62
    0
370
   -2
100
AcDbMText
 10
122.5006869128909
 20
-238.4308810491441
 30
0
 40
2.5
 41
3.055555555555711
 71
    5
 72
    1
  1
85
  7
standard
210
0
220
0
230
1
 50
0
 73
    2
 44
1
  0
LINE
  5
C9
100
AcDbEntity
  8
draw
  6
ByBlock
 62
    0
370
   -2
100
AcDbLine
 10
79.9937593943141
 20
-227.6253213880259
 11
79.9937593943141
 21
-241.5558810491441
  0
LINE
  5
CA
100
AcDbEntity
  8
draw
  6
ByBlock
 62
    0
370
   -2
100
AcDbLine
 10
165.0076144314677
 20
-227.5958522575954
 11
165.0076144314677
 21
-241.5558810491441
  0
ENDBLK
  5
88
330
86
100
AcDbEntity
  8
0
100
AcDbBlockEnd
  0
BLOCK
  5
8A
330
89
100
AcDbEntity
  8
0
100
AcDbBlockBegin
  2
*D3
 70
    1
 10
0
 20
0
  3
*D3
  1

  0
LINE
  5
CB
100
AcDbEntity
  8
draw
  6
ByBlock
 62
    0
370
   -2
100
AcDbLine
 10
320.0456304348131
 20
-66.98473266718142
 11
320.0456304348131
 21
-97.03294273055481
  0
SOLID
  5
CC
100
AcDbEntity
  8
draw
  6
ByBlock
 62
    0
370
   -2
100
AcDbTrace
 10
320.0456304348131
 20
-66.98473266718142
 30
0
 11
320.461915092586
 21
-69.48473266718142
 31
0
 12
319.6293457770403
 22
-69.48473266718142
 32
0
 13
319.6293457770403
 23
-69.48473266718142
 33
0
  0
SOLID
  5
CD
100
AcDbEntity
  8
draw
  6
ByBlock
 62
    0
370
   -2
100
AcDbTrace
 10
320.0456304348131
 20
-97.03294273055481
 30
0
 11
319.6293457770403
 21
-94.53294273055481
 31
0
 12
320.461915092586
 22
-94.53294273055481
 32
0
 13
320.461915092586
 23
-94.53294273055481
 33
0
  0
MTEXT
  5
CE
100
AcDbEntity
  8
draw
  6
CONTINUOUS
 62
    0
370
   -2
100
AcDbMText
 10
318.1706304348131
 20
-82.00883769886812
 30
0
 40
2.5
 41
3.055555555555711
 71
    5
 72
    1
  1
30
  7
standard
210
0
220
0
230
1
 50
90
 73
    2
 44
1
  0
LINE
  5
CF
100
AcDbEntity
  8
draw
  6
ByBlock
 62
    0
370
   -2
100
AcDbLine
 10
318.7078689647795
 20
-66.98473266718142
 11
321.2956304348131
 21
-66.98473266718142
  0
LINE
  5
D0
100
AcDbEntity
  8
draw
  6
ByBlock
 62
    0
370
   -2
100
AcDbLine
 10
318.4690426585736
 20
-97.03294273055481
 11
321.2956304348131
 21
-97.03294273055481
  0
ENDBLK
  5
8B
330
89
100
AcDbEntity
  8
0
100
AcDbBlockEnd
  0
BLOCK
  5
8D
330
8C
100
AcDbEntity
  8
0
100
AcDbBlockBegin
  2
*D6
 70
    1
 10
0
 20
0
  3
*D6
  1

  0
LINE
  5
D1
100
AcDbEntity
  8
draw
  6
ByBlock
 62
    0
370
   -2
100
AcDbLine
 10
47.75062647489094
 20
-98.26518791687599
 11
40.33460807774286
 21
-90.71674061977883
  0
LINE
  5
D2
100
AcDbEntity
  8
draw
  6
ByBlock
 62
    0
370
   -2
100
AcDbLine
 10
51.34585223951371
 20
-94.73303628847466
 11
43.92983384236562
 21
-87.18458899137751
  0
LINE
  5
D3
100
AcDbEntity
  8
draw
  6
ByBlock
 62
    0
370
   -2
100
AcDbLine
 10
37.64395311676608
 20
-95.11251994556068
 11
48.37254319653659
 21
-84.57215074438261
  0
SOLID
  5
D4
100
AcDbEntity
  8
draw
  6
ByBlock
 62
    0
370
   -2
100
AcDbTrace
 10
41.21063527433995
 20
-91.60841115917231
 30
0
 11
39.71903554094111
 21
-93.65741656463652
 31
0
 12
39.13555285016491
 22
-93.06351454009646
 32
0
 13
39.13555285016491
 23
-93.06351454009646
 33
0
  0
SOLID
  5
D5
100
AcDbEntity
  8
draw
  6
ByBlock
 62
    0
370
   -2
100
AcDbTrace
 10
44.80586103896272
 20
-88.07625953077098
 30
0
 11
46.29746077236155
 21
-86.02725412530677
 31
0
 12
46.88094346313775
 22
-86.62115614984683
 32
0
 13
46.88094346313775
 23
-86.62115614984683
 33
0
  0
MTEXT
  5
D6
100
AcDbEntity
  8
draw
  6
CONTINUOUS
 62
    0
370
   -2
100
AcDbMText
 10
41.69420736175571
 20
-88.50482953588143
 30
0
 40
2.5
 41
1.111111111111266
 71
    5
 72
    1
  1
5
  7
standard
210
0
220
0
230
1
 50
44.49297093908528
 73
    2
 44
1
  0
ENDBLK
  5
8E
330
8C
100
AcDbEntity
  8
0
100
AcDbBlockEnd
  0
BLOCK
  5
90
330
8F
100
AcDbEntity
  8
0
100
AcDbBlockBegin
  2
*D7
 70
    1
 10
0
 20
0
  3
*D7
  1

  0
LINE
  5
D7
100
AcDbEntity
  8
draw
  6
ByBlock
 62
    0
370
   -2
100
AcDbLine
 10
46.73729566591412
 20
-39.52772141747829
 11
38.19013943345521
 21
-31.39413726078355
  0
LINE
  5
D8
100
AcDbEntity
  8
draw
  6
ByBlock
 62
    0
370
   -2
100
AcDbLine
 10
52.20726280641318
 20
-33.77962035458095
 11
43.66010657395427
 21
-25.64603619788621
  0
LINE
  5
D9
100
AcDbEntity
  8
draw
  6
ByBlock
 62
    0
370
   -2
100
AcDbLine
 10
39.09565910210254
 20
-32.2558414615931
 11
44.5656262426016
 21
-26.50774039869576
  0
SOLID
  5
DA
100
AcDbEntity
  8
draw
  6
ByBlock
 62
    0
370
   -2
100
AcDbTrace
 10
39.09565910210254
 20
-32.2558414615931
 30
0
 11
40.5175043474261
 21
-30.1578307336301
 31
0
 12
41.12063066001718
 22
-30.73177351496678
 32
0
 13
41.12063066001718
 23
-30.73177351496678
 33
0
  0
SOLID
  5
DB
100
AcDbEntity
  8
draw
  6
ByBlock
 62
    0
370
   -2
100
AcDbTrace
 10
44.5656262426016
 20
-26.50774039869576
 30
0
 11
43.14378099727804
 21
-28.60575112665876
 31
0
 12
42.54065468468696
 22
-28.03180834532208
 32
0
 13
42.54065468468696
 23
-28.03180834532208
 33
0
  0
MTEXT
  5
DC
100
AcDbEntity
  8
draw
  6
CONTINUOUS
 62
    0
370
   -2
100
AcDbMText
 10
40.47236316938108
 20
-28.08923462893008
 30
0
 40
2.5
 41
1.111111111111111
 71
    5
 72
    1
  1
8
  7
standard
210
0
220
0
230
1
 50
46.42026554639914
 73
    2
 44
1
  0
ENDBLK
  5
91
330
8F
100
AcDbEntity
  8
0
100
AcDbBlockEnd
  0
BLOCK
  5
93
330
92
100
AcDbEntity
  8
0
100
AcDbBlockBegin
  2
*D8
 70
    1
 10
0
 20
0
  3
*D8
  1

  0
LINE
  5
DD
100
AcDbEntity
  8
draw
  6
ByBlock
 62
    0
370
   -2
100
AcDbLine
 10
-0.1362743439227287
 20
-240.1880257002175
 11
50.00969982029973
 21
-240.1880257002175
  0
SOLID
  5
DE
100
AcDbEntity
  8
draw
  6
ByBlock
 62
    0
370
   -2
100
AcDbTrace
 10
-0.1362743439227287
 20
-240.1880257002175
 30
0
 11
2.363725656077271
 21
-239.7717410424447
 31
0
 12
2.363725656077271
 22
-240.6043103579904
 32
0
 13
2.363725656077271
 23
-240.6043103579904
 33
0
  0
SOLID
  5
DF
100
AcDbEntity
  8
draw
  6
ByBlock
 62
    0
370
   -2
100
AcDbTrace
 10
50.00969982029973
 20
-240.1880257002175
 30
0
 11
47.50969982029973
 21
-240.6043103579904
 31
0
 12
47.50969982029973
 22
-239.7717410424447
 32
0
 13
47.50969982029973
 23
-239.7717410424447
 33
0
  0
MTEXT
  5
E0
100
AcDbEntity
  8
draw
  6
CONTINUOUS
 62
    0
370
   -2
100
AcDbMText
 10
24.9367127381885
 20
-238.3130257002175
 30
0
 40
2.5
 41
3.055555555555711
 71
    5
 72
    1
  1
50
  7
standard
210
0
220
0
230
1
 50
0
 73
    2
 44
1
  0
LINE
  5
E1
100
AcDbEntity
  8
draw
  6
ByBlock
 62
    0
370
   -2
100
AcDbLine
 10
-0.136274343922728
 20
-220.8443397791282
 11
-0.136274343922729
 21
-241.4380257002175
  0
LINE
  5
E2
100
AcDbEntity
  8
draw
  6
ByBlock
 62
    0
370
   -2
100
AcDbLine
 10
50.00969982029973
 20
-220.8140490624514
 11
50.00969982029973
 21
-241.4380257002175
  0
ENDBLK
  5
94
330
92
100
AcDbEntity
  8
0
100
AcDbBlockEnd
  0
ENDSEC
  0
SECTION
  2
ENTITIES
  0
CIRCLE
  5
E3
100
AcDbEntity
  8
draw
  6
ByLayer
 62
  256
370
   -1
100
AcDbCircle
 10
195
 20
-67
 40
2.5
  0
CIRCLE
  5
E4
100
AcDbEntity
  8
draw
  6
ByLayer
 62
  256
370
   -1
100
AcDbCircle
 10
225
 20
-67
 40
2.5
  0
CIRCLE
  5
E5
100
AcDbEntity
  8
draw
  6
ByLayer
 62
  256
370
   -1
100
AcDbCircle
 10
255
 20
-67
 40
2.5
  0
CIRCLE
  5
E6
100
AcDbEntity
  8
draw
  6
ByLayer
 62
  256
370
   -1
100
AcDbCircle
 10
50
 20
-97
 40
2.5
  0
CIRCLE
  5
E7
100
AcDbEntity
  8
draw
  6
ByLayer
 62
  256
370
   -1
100
AcDbCircle
 10
50
 20
-37
 40
4
  0
CIRCLE
  5
E8
100
AcDbEntity
  8
draw
  6
ByLayer
 62
  256
370
   -1
100
AcDbCircle
 10
80
 20
-37
 40
4
  0
CIRCLE
  5
E9
100
AcDbEntity
  8
draw
  6
ByLayer
 62
  256
370
   -1
100
AcDbCircle
 10
195
 20
-37
 40
4
  0
CIRCLE
  5
EA
100
AcDbEntity
  8
draw
  6
ByLayer
 62
  256
370
   -1
100
AcDbCircle
 10
225
 20
-37
 40
4
  0
CIRCLE
  5
EB
100
AcDbEntity
  8
draw
  6
ByLayer
 62
  256
370
   -1
100
AcDbCircle
 10
255
 20
-37
 40
4
  0
CIRCLE
  5
EC
100
AcDbEntity
  8
draw
  6
ByLayer
 62
  256
370
   -1
100
AcDbCircle
 10
50
 20
-67
 40
4
  0
CIRCLE
  5
ED
100
AcDbEntity
  8
draw
  6
ByLayer
 62
  256
370
   -1
100
AcDbCircle
 10
165
 20
-67
 40
4
  0
CIRCLE
  5
EE
100
AcDbEntity
  8
draw
  6
ByLayer
 62
  256
370
   -1
100
AcDbCircle
 10
50
 20
-137
 40
4
  0
CIRCLE
  5
EF
100
AcDbEntity
  8
draw
  6
ByLayer
 62
  256
370
   -1
100
AcDbCircle
 10
50
 20
-167
 40
4
  0
ARC
  5
F0
100
AcDbEntity
  8
draw
  6
ByLayer
 62
  256
370
   -1
100
AcDbCircle
 10
7
 20
-7
 40
7
100
AcDbArc
 50
89.79174754807791
 51
180.4014029365432
  0
ARC
  5
F1
100
AcDbEntity
  8
draw
  6
ByLayer
 62
  256
370
   50
100
AcDbCircle
 10
7
 20
-220
 40
7
100
AcDbArc
 50
180.0295190640603
 51
270.2699259251572
  0
LINE
  5
F2
100
AcDbEntity
  8
draw
  6
ByLayer
 62
  256
370
   50
100
AcDbLine
 10
0
 20
-220.0053465290653
 11
0
 21
-7.057502806195844
  0
LINE
  5
F3
100
AcDbEntity
  8
draw
  6
ByLayer
 62
  256
370
   50
100
AcDbLine
 10
296.9812277109943
 20
0
 11
6.97696299931888
 21
0
  0
LINE
  5
F4
100
AcDbEntity
  8
draw
  6
DASHDOT2
 62
  256
370
   25
100
AcDbLine
 10
50
 20
-28
 11
50
 21
-180
  0
LINE
  5
F5
100
AcDbEntity
  8
draw
  6
CONTINUOUS
 62
  256
370
   25
100
AcDbLine
 10
50
 20
-180
 11
50
 21
-240
  0
LINE
  5
F6
100
AcDbEntity
  8
draw
  6
DASHDOT2
 62
  256
370
   25
100
AcDbLine
 10
40
 20
-67
 11
265
 21
-67
  0
LINE
  5
F7
100
AcDbEntity
  8
draw
  6
CONTINUOUS
 62
  256
370
   25
100
AcDbLine
 10
265
 20
-67
 11
320
 21
-67
  0
LINE
  5
F8
100
AcDbEntity
  8
Red 2
  6
ByLayer
 62
  256
370
   -1
100
AcDbLine
 10
282.6946092233708
 20
-235.7046092233707
 11
282.6946092233708
 21
-267.7086092233707
  0
LINE
  5
F9
100
AcDbEntity
  8
Red 2
  6
ByLayer
 62
  256
370
   -1
100
AcDbLine
 10
282.6946092233708
 20
-267.7086092233707
 11
390.6956092233708
 21
-267.7086092233707
  0
LINE
  5
FA
100
AcDbEntity
  8
Red 2
  6
ByLayer
 62
  256
370
   -1
100
AcDbLine
 10
390.6956092233708
 20
-267.7086092233707
 11
390.6956092233708
 21
-235.7046092233707
  0
LINE
  5
FB
100
AcDbEntity
  8
Red 2
  6
ByLayer
 62
  256
370
   -1
100
AcDbLine
 10
390.6956092233708
 20
-235.7046092233707
 11
282.6946092233708
 21
-235.7046092233707
  0
LINE
  5
FC
100
AcDbEntity
  8
Red 2
  6
ByLayer
 62
  256
370
   -1
100
AcDbLine
 10
-7.296790776629262
 20
7.296790776629262
 11
-7.296790776629262
 21
-269.6906092233708
  0
LINE
  5
FD
100
AcDbEntity
  8
Red 2
  6
ByLayer
 62
  256
370
   -1
100
AcDbLine
 10
-7.296790776629262
 20
-269.6906092233708
 11
392.6766092233707
 21
-269.6906092233708
  0
LINE
  5
FE
100
AcDbEntity
  8
Red 2
  6
ByLayer
 62
  256
370
   -1
100
AcDbLine
 10
392.6766092233707
 20
-269.6906092233708
 11
392.6766092233707
 21
7.296790776629262
  0
LINE
  5
FF
100
AcDbEntity
  8
Red 2
  6
ByLayer
 62
  256
370
   -1
100
AcDbLine
 10
392.6766092233707
 20
7.296790776629262
 11
-7.296790776629262
 21
7.296790776629262
  0
LINE
  5
100
100
AcDbEntity
  8
Red 2
  6
ByLayer
 62
  256
370
   -1
100
AcDbLine
 10
-5.315590776629264
 20
5.315590776629262
 11
-5.315590776629264
 21
-267.7086092233707
  0
LINE
  5
101
100
AcDbEntity
  8
Red 2
  6
ByLayer
 62
  256
370
   -1
100
AcDbLine
 10
-5.315590776629264
 20
-267.7086092233707
 11
390.6956092233708
 21
-267.7086092233707
  0
LINE
  5
102
100
AcDbEntity
  8
Red 2
  6
ByLayer
 62
  256
370
   -1
100
AcDbLine
 10
390.6956092233708
 20
-267.7086092233707
 11
390.6956092233708
 21
5.315590776629262
  0
LINE
  5
103
100
AcDbEntity
  8
Red 2
  6
ByLayer
 62
  256
370
   -1
100
AcDbLine
 10
390.6956092233708
 20
5.315590776629262
 11
-5.315590776629264
 21
5.315590776629262
  0
LINE
  5
104
100
AcDbEntity
  8
Red 2
  6
ByLayer
 62
  256
370
   -1
100
AcDbLine
 10
42.69040922337074
 20
5.315590776629262
 11
42.69040922337074
 21
7.296790776629262
  0
LINE
  5
105
100
AcDbEntity
  8
Red 2
  6
ByLayer
 62
  256
370
   -1
100
AcDbLine
 10
92.70260922337074
 20
5.315590776629262
 11
92.70260922337074
 21
7.296790776629262
  0
LINE
  5
106
100
AcDbEntity
  8
Red 2
  6
ByLayer
 62
  256
370
   -1
100
AcDbLine
 10
142.6906092233708
 20
5.315590776629262
 11
142.6906092233708
 21
7.296790776629262
  0
LINE
  5
107
100
AcDbEntity
  8
Red 2
  6
ByLayer
 62
  256
370
   -1
100
AcDbLine
 10
192.7026092233708
 20
5.315590776629262
 11
192.7026092233708
 21
7.296790776629262
  0
LINE
  5
108
100
AcDbEntity
  8
Red 2
  6
ByLayer
 62
  256
370
   -1
100
AcDbLine
 10
242.6896092233708
 20
5.315590776629262
 11
242.6896092233708
 21
7.296790776629262
  0
LINE
  5
109
100
AcDbEntity
  8
Red 2
  6
ByLayer
 62
  256
370
   -1
100
AcDbLine
 10
292.7026092233708
 20
5.315590776629262
 11
292.7026092233708
 21
7.296790776629262
  0
LINE
  5
10A
100
AcDbEntity
  8
Red 2
  6
ByLayer
 62
  256
370
   -1
100
AcDbLine
 10
342.6896092233708
 20
5.315590776629262
 11
342.6896092233708
 21
7.296790776629262
  0
LINE
  5
10B
100
AcDbEntity
  8
Red 2
  6
ByLayer
 62
  256
370
   -1
100
AcDbLine
 10
18.68740922337074
 20
5.721990776629262
 11
17.95080922337074
 21
5.721990776629262
  0
LINE
  5
10C
100
AcDbEntity
  8
Red 2
  6
ByLayer
 62
  256
370
   -1
100
AcDbLine
 10
18.30640922337074
 20
5.721990776629262
 11
18.30640922337074
 21
7.017390776629259
  0
LINE
  5
10D
100
AcDbEntity
  8
Red 2
  6
ByLayer
 62
  256
370
   -1
100
AcDbLine
 10
18.30640922337074
 20
7.017390776629259
 11
18.17940922337074
 21
6.839590776629262
  0
LINE
  5
10E
100
AcDbEntity
  8
Red 2
  6
ByLayer
 62
  256
370
   -1
100
AcDbLine
 10
18.17940922337074
 20
6.839590776629262
 11
18.07780922337074
 21
6.712590776629263
  0
LINE
  5
10F
100
AcDbEntity
  8
Red 2
  6
ByLayer
 62
  256
370
   -1
100
AcDbLine
 10
18.07780922337074
 20
6.712590776629263
 11
17.95080922337074
 21
6.661790776629264
  0
LINE
  5
110
100
AcDbEntity
  8
Red 2
  6
ByLayer
 62
  256
370
   -1
100
AcDbLine
 10
67.93800922337074
 20
6.915790776629262
 11
67.98880922337074
 21
6.966590776629264
  0
LINE
  5
111
100
AcDbEntity
  8
Red 2
  6
ByLayer
 62
  256
370
   -1
100
AcDbLine
 10
67.98880922337074
 20
6.966590776629264
 11
68.11580922337073
 21
7.017390776629259
  0
LINE
  5
112
100
AcDbEntity
  8
Red 2
  6
ByLayer
 62
  256
370
   -1
100
AcDbLine
 10
68.11580922337073
 20
7.017390776629259
 11
68.42060922337073
 21
7.017390776629259
  0
LINE
  5
113
100
AcDbEntity
  8
Red 2
  6
ByLayer
 62
  256
370
   -1
100
AcDbLine
 10
68.42060922337073
 20
7.017390776629259
 11
68.54760922337074
 21
6.966590776629264
  0
LINE
  5
114
100
AcDbEntity
  8
Red 2
  6
ByLayer
 62
  256
370
   -1
100
AcDbLine
 10
68.54760922337074
 20
6.966590776629264
 11
68.59840922337074
 21
6.915790776629262
  0
LINE
  5
115
100
AcDbEntity
  8
Red 2
  6
ByLayer
 62
  256
370
   -1
100
AcDbLine
 10
68.59840922337074
 20
6.915790776629262
 11
68.67460922337074
 21
6.788790776629263
  0
LINE
  5
116
100
AcDbEntity
  8
Red 2
  6
ByLayer
 62
  256
370
   -1
100
AcDbLine
 10
68.67460922337074
 20
6.788790776629263
 11
68.67460922337074
 21
6.661790776629264
  0
LINE
  5
117
100
AcDbEntity
  8
Red 2
  6
ByLayer
 62
  256
370
   -1
100
AcDbLine
 10
68.67460922337074
 20
6.661790776629264
 11
68.59840922337074
 21
6.483990776629263
  0
LINE
  5
118
100
AcDbEntity
  8
Red 2
  6
ByLayer
 62
  256
370
   -1
100
AcDbLine
 10
68.59840922337074
 20
6.483990776629263
 11
67.86180922337074
 21
5.721990776629262
  0
LINE
  5
119
100
AcDbEntity
  8
Red 2
  6
ByLayer
 62
  256
370
   -1
100
AcDbLine
 10
67.86180922337074
 20
5.721990776629262
 11
68.67460922337074
 21
5.721990776629262
  0
LINE
  5
11A
100
AcDbEntity
  8
Red 2
  6
ByLayer
 62
  256
370
   -1
100
AcDbLine
 10
117.8746092233707
 20
7.017390776629259
 11
118.6876092233707
 21
7.017390776629259
  0
LINE
  5
11B
100
AcDbEntity
  8
Red 2
  6
ByLayer
 62
  256
370
   -1
100
AcDbLine
 10
118.6876092233707
 20
7.017390776629259
 11
118.2556092233707
 21
6.534790776629261
  0
LINE
  5
11C
100
AcDbEntity
  8
Red 2
  6
ByLayer
 62
  256
370
   -1
100
AcDbLine
 10
118.2556092233707
 20
6.534790776629261
 11
118.4336092233707
 21
6.534790776629261
  0
LINE
  5
11D
100
AcDbEntity
  8
Red 2
  6
ByLayer
 62
  256
370
   -1
100
AcDbLine
 10
118.4336092233707
 20
6.534790776629261
 11
118.5606092233707
 21
6.483990776629263
  0
LINE
  5
11E
100
AcDbEntity
  8
Red 2
  6
ByLayer
 62
  256
370
   -1
100
AcDbLine
 10
118.5606092233707
 20
6.483990776629263
 11
118.6106092233707
 21
6.407790776629263
  0
LINE
  5
11F
100
AcDbEntity
  8
Red 2
  6
ByLayer
 62
  256
370
   -1
100
AcDbLine
 10
118.6106092233707
 20
6.407790776629263
 11
118.6876092233707
 21
6.280790776629264
  0
LINE
  5
120
100
AcDbEntity
  8
Red 2
  6
ByLayer
 62
  256
370
   -1
100
AcDbLine
 10
118.6876092233707
 20
6.280790776629264
 11
118.6876092233707
 21
5.975990776629263
  0
LINE
  5
121
100
AcDbEntity
  8
Red 2
  6
ByLayer
 62
  256
370
   -1
100
AcDbLine
 10
118.6876092233707
 20
5.975990776629263
 11
118.6106092233707
 21
5.848990776629261
  0
LINE
  5
122
100
AcDbEntity
  8
Red 2
  6
ByLayer
 62
  256
370
   -1
100
AcDbLine
 10
118.6106092233707
 20
5.848990776629261
 11
118.5606092233707
 21
5.798190776629262
  0
LINE
  5
123
100
AcDbEntity
  8
Red 2
  6
ByLayer
 62
  256
370
   -1
100
AcDbLine
 10
118.5606092233707
 20
5.798190776629262
 11
118.4336092233707
 21
5.721990776629262
  0
LINE
  5
124
100
AcDbEntity
  8
Red 2
  6
ByLayer
 62
  256
370
   -1
100
AcDbLine
 10
118.4336092233707
 20
5.721990776629262
 11
118.0776092233707
 21
5.721990776629262
  0
LINE
  5
125
100
AcDbEntity
  8
Red 2
  6
ByLayer
 62
  256
370
   -1
100
AcDbLine
 10
118.0776092233707
 20
5.721990776629262
 11
117.9506092233707
 21
5.798190776629262
  0
LINE
  5
126
100
AcDbEntity
  8
Red 2
  6
ByLayer
 62
  256
370
   -1
100
AcDbLine
 10
117.9506092233707
 20
5.798190776629262
 11
117.8746092233707
 21
5.848990776629261
  0
LINE
  5
127
100
AcDbEntity
  8
Red 2
  6
ByLayer
 62
  256
370
   -1
100
AcDbLine
 10
168.5476092233707
 20
6.585590776629264
 11
168.5476092233707
 21
5.721990776629262
  0
LINE
  5
128
100
AcDbEntity
  8
Red 2
  6
ByLayer
 62
  256
370
   -1
100
AcDbLine
 10
168.2426092233707
 20
7.093590776629259
 11
167.9376092233707
 21
6.153790776629261
  0
LINE
  5
129
100
AcDbEntity
  8
Red 2
  6
ByLayer
 62
  256
370
   -1
100
AcDbLine
 10
167.9376092233707
 20
6.153790776629261
 11
168.7256092233707
 21
6.153790776629261
  0
LINE
  5
12A
100
AcDbEntity
  8
Red 2
  6
ByLayer
 62
  256
370
   -1
100
AcDbLine
 10
218.6106092233707
 20
7.017390776629259
 11
218.0016092233707
 21
7.017390776629259
  0
LINE
  5
12B
100
AcDbEntity
  8
Red 2
  6
ByLayer
 62
  256
370
   -1
100
AcDbLine
 10
218.0016092233707
 20
7.017390776629259
 11
217.9506092233707
 21
6.407790776629263
  0
LINE
  5
12C
100
AcDbEntity
  8
Red 2
  6
ByLayer
 62
  256
370
   -1
100
AcDbLine
 10
217.9506092233707
 20
6.407790776629263
 11
218.0016092233707
 21
6.483990776629263
  0
LINE
  5
12D
100
AcDbEntity
  8
Red 2
  6
ByLayer
 62
  256
370
   -1
100
AcDbLine
 10
218.0016092233707
 20
6.483990776629263
 11
218.1286092233707
 21
6.534790776629261
  0
LINE
  5
12E
100
AcDbEntity
  8
Red 2
  6
ByLayer
 62
  256
370
   -1
100
AcDbLine
 10
218.1286092233707
 20
6.534790776629261
 11
218.4326092233707
 21
6.534790776629261
  0
LINE
  5
12F
100
AcDbEntity
  8
Red 2
  6
ByLayer
 62
  256
370
   -1
100
AcDbLine
 10
218.4326092233707
 20
6.534790776629261
 11
218.5596092233707
 21
6.483990776629263
  0
LINE
  5
130
100
AcDbEntity
  8
Red 2
  6
ByLayer
 62
  256
370
   -1
100
AcDbLine
 10
218.5596092233707
 20
6.483990776629263
 11
218.6106092233707
 21
6.407790776629263
  0
LINE
  5
131
100
AcDbEntity
  8
Red 2
  6
ByLayer
 62
  256
370
   -1
100
AcDbLine
 10
218.6106092233707
 20
6.407790776629263
 11
218.6866092233707
 21
6.280790776629264
  0
LINE
  5
132
100
AcDbEntity
  8
Red 2
  6
ByLayer
 62
  256
370
   -1
100
AcDbLine
 10
218.6866092233707
 20
6.280790776629264
 11
218.6866092233707
 21
5.975990776629263
  0
LINE
  5
133
100
AcDbEntity
  8
Red 2
  6
ByLayer
 62
  256
370
   -1
100
AcDbLine
 10
218.6866092233707
 20
5.975990776629263
 11
218.6106092233707
 21
5.848990776629261
  0
LINE
  5
134
100
AcDbEntity
  8
Red 2
  6
ByLayer
 62
  256
370
   -1
100
AcDbLine
 10
218.6106092233707
 20
5.848990776629261
 11
218.5596092233707
 21
5.798190776629262
  0
LINE
  5
135
100
AcDbEntity
  8
Red 2
  6
ByLayer
 62
  256
370
   -1
100
AcDbLine
 10
218.5596092233707
 20
5.798190776629262
 11
218.4326092233707
 21
5.721990776629262
  0
LINE
  5
136
100
AcDbEntity
  8
Red 2
  6
ByLayer
 62
  256
370
   -1
100
AcDbLine
 10
218.4326092233707
 20
5.721990776629262
 11
218.1286092233707
 21
5.721990776629262
  0
LINE
  5
137
100
AcDbEntity
  8
Red 2
  6
ByLayer
 62
  256
370
   -1
100
AcDbLine
 10
218.1286092233707
 20
5.721990776629262
 11
218.0016092233707
 21
5.798190776629262
  0
LINE
  5
138
100
AcDbEntity
  8
Red 2
  6
ByLayer
 62
  256
370
   -1
100
AcDbLine
 10
218.0016092233707
 20
5.798190776629262
 11
217.9506092233707
 21
5.848990776629261
  0
LINE
  5
139
100
AcDbEntity
  8
Red 2
  6
ByLayer
 62
  256
370
   -1
100
AcDbLine
 10
268.5476092233707
 20
7.017390776629259
 11
268.2936092233708
 21
7.017390776629259
  0
LINE
  5
13A
100
AcDbEntity
  8
Red 2
  6
ByLayer
 62
  256
370
   -1
100
AcDbLine
 10
268.2936092233708
 20
7.017390776629259
 11
268.1666092233708
 21
6.966590776629264
  0
LINE
  5
13B
100
AcDbEntity
  8
Red 2
  6
ByLayer
 62
  256
370
   -1
100
AcDbLine
 10
268.1666092233708
 20
6.966590776629264
 11
268.1156092233708
 21
6.915790776629262
  0
LINE
  5
13C
100
AcDbEntity
  8
Red 2
  6
ByLayer
 62
  256
370
   -1
100
AcDbLine
 10
268.1156092233708
 20
6.915790776629262
 11
267.9886092233708
 21
6.712590776629263
  0
LINE
  5
13D
100
AcDbEntity
  8
Red 2
  6
ByLayer
 62
  256
370
   -1
100
AcDbLine
 10
267.9886092233708
 20
6.712590776629263
 11
267.9376092233708
 21
6.483990776629263
  0
LINE
  5
13E
100
AcDbEntity
  8
Red 2
  6
ByLayer
 62
  256
370
   -1
100
AcDbLine
 10
267.9376092233708
 20
6.483990776629263
 11
267.9376092233708
 21
5.975990776629263
  0
LINE
  5
13F
100
AcDbEntity
  8
Red 2
  6
ByLayer
 62
  256
370
   -1
100
AcDbLine
 10
267.9376092233708
 20
5.975990776629263
 11
267.9886092233708
 21
5.848990776629261
  0
LINE
  5
140
100
AcDbEntity
  8
Red 2
  6
ByLayer
 62
  256
370
   -1
100
AcDbLine
 10
267.9886092233708
 20
5.848990776629261
 11
268.0646092233708
 21
5.798190776629262
  0
LINE
  5
141
100
AcDbEntity
  8
Red 2
  6
ByLayer
 62
  256
370
   -1
100
AcDbLine
 10
268.0646092233708
 20
5.798190776629262
 11
268.1666092233708
 21
5.721990776629262
  0
LINE
  5
142
100
AcDbEntity
  8
Red 2
  6
ByLayer
 62
  256
370
   -1
100
AcDbLine
 10
268.1666092233708
 20
5.721990776629262
 11
268.4206092233708
 21
5.721990776629262
  0
LINE
  5
143
100
AcDbEntity
  8
Red 2
  6
ByLayer
 62
  256
370
   -1
100
AcDbLine
 10
268.4206092233708
 20
5.721990776629262
 11
268.5476092233707
 21
5.798190776629262
  0
LINE
  5
144
100
AcDbEntity
  8
Red 2
  6
ByLayer
 62
  256
370
   -1
100
AcDbLine
 10
268.5476092233707
 20
5.798190776629262
 11
268.5976092233707
 21
5.848990776629261
  0
LINE
  5
145
100
AcDbEntity
  8
Red 2
  6
ByLayer
 62
  256
370
   -1
100
AcDbLine
 10
268.5976092233707
 20
5.848990776629261
 11
268.6746092233707
 21
5.975990776629263
  0
LINE
  5
146
100
AcDbEntity
  8
Red 2
  6
ByLayer
 62
  256
370
   -1
100
AcDbLine
 10
268.6746092233707
 20
5.975990776629263
 11
268.6746092233707
 21
6.280790776629264
  0
LINE
  5
147
100
AcDbEntity
  8
Red 2
  6
ByLayer
 62
  256
370
   -1
100
AcDbLine
 10
268.6746092233707
 20
6.280790776629264
 11
268.5976092233707
 21
6.407790776629263
  0
LINE
  5
148
100
AcDbEntity
  8
Red 2
  6
ByLayer
 62
  256
370
   -1
100
AcDbLine
 10
268.5976092233707
 20
6.407790776629263
 11
268.5476092233707
 21
6.483990776629263
  0
LINE
  5
149
100
AcDbEntity
  8
Red 2
  6
ByLayer
 62
  256
370
   -1
100
AcDbLine
 10
268.5476092233707
 20
6.483990776629263
 11
268.4206092233708
 21
6.534790776629261
  0
LINE
  5
14A
100
AcDbEntity
  8
Red 2
  6
ByLayer
 62
  256
370
   -1
100
AcDbLine
 10
268.4206092233708
 20
6.534790776629261
 11
268.1666092233708
 21
6.534790776629261
  0
LINE
  5
14B
100
AcDbEntity
  8
Red 2
  6
ByLayer
 62
  256
370
   -1
100
AcDbLine
 10
268.1666092233708
 20
6.534790776629261
 11
268.0646092233708
 21
6.483990776629263
  0
LINE
  5
14C
100
AcDbEntity
  8
Red 2
  6
ByLayer
 62
  256
370
   -1
100
AcDbLine
 10
268.0646092233708
 20
6.483990776629263
 11
267.9886092233708
 21
6.407790776629263
  0
LINE
  5
14D
100
AcDbEntity
  8
Red 2
  6
ByLayer
 62
  256
370
   -1
100
AcDbLine
 10
267.9886092233708
 20
6.407790776629263
 11
267.9376092233708
 21
6.280790776629264
  0
LINE
  5
14E
100
AcDbEntity
  8
Red 2
  6
ByLayer
 62
  256
370
   -1
100
AcDbLine
 10
317.8736092233707
 20
7.017390776629259
 11
318.7376092233707
 21
7.017390776629259
  0
LINE
  5
14F
100
AcDbEntity
  8
Red 2
  6
ByLayer
 62
  256
370
   -1
100
AcDbLine
 10
318.7376092233707
 20
7.017390776629259
 11
318.1786092233708
 21
5.721990776629262
  0
LINE
  5
150
100
AcDbEntity
  8
Red 2
  6
ByLayer
 62
  256
370
   -1
100
AcDbLine
 10
368.1656092233708
 20
6.483990776629263
 11
368.0646092233708
 21
6.534790776629261
  0
LINE
  5
151
100
AcDbEntity
  8
Red 2
  6
ByLayer
 62
  256
370
   -1
100
AcDbLine
 10
368.0646092233708
 20
6.534790776629261
 11
367.9886092233708
 21
6.585590776629264
  0
LINE
  5
152
100
AcDbEntity
  8
Red 2
  6
ByLayer
 62
  256
370
   -1
100
AcDbLine
 10
367.9886092233708
 20
6.585590776629264
 11
367.9376092233708
 21
6.712590776629263
  0
LINE
  5
153
100
AcDbEntity
  8
Red 2
  6
ByLayer
 62
  256
370
   -1
100
AcDbLine
 10
367.9376092233708
 20
6.712590776629263
 11
367.9376092233708
 21
6.788790776629263
  0
LINE
  5
154
100
AcDbEntity
  8
Red 2
  6
ByLayer
 62
  256
370
   -1
100
AcDbLine
 10
367.9376092233708
 20
6.788790776629263
 11
367.9886092233708
 21
6.915790776629262
  0
LINE
  5
155
100
AcDbEntity
  8
Red 2
  6
ByLayer
 62
  256
370
   -1
100
AcDbLine
 10
367.9886092233708
 20
6.915790776629262
 11
368.0646092233708
 21
6.966590776629264
  0
LINE
  5
156
100
AcDbEntity
  8
Red 2
  6
ByLayer
 62
  256
370
   -1
100
AcDbLine
 10
368.0646092233708
 20
6.966590776629264
 11
368.1656092233708
 21
7.017390776629259
  0
LINE
  5
157
100
AcDbEntity
  8
Red 2
  6
ByLayer
 62
  256
370
   -1
100
AcDbLine
 10
368.1656092233708
 20
7.017390776629259
 11
368.4196092233707
 21
7.017390776629259
  0
LINE
  5
158
100
AcDbEntity
  8
Red 2
  6
ByLayer
 62
  256
370
   -1
100
AcDbLine
 10
368.4196092233707
 20
7.017390776629259
 11
368.5466092233708
 21
6.966590776629264
  0
LINE
  5
159
100
AcDbEntity
  8
Red 2
  6
ByLayer
 62
  256
370
   -1
100
AcDbLine
 10
368.5466092233708
 20
6.966590776629264
 11
368.5976092233707
 21
6.915790776629262
  0
LINE
  5
15A
100
AcDbEntity
  8
Red 2
  6
ByLayer
 62
  256
370
   -1
100
AcDbLine
 10
368.5976092233707
 20
6.915790776629262
 11
368.6736092233708
 21
6.788790776629263
  0
LINE
  5
15B
100
AcDbEntity
  8
Red 2
  6
ByLayer
 62
  256
370
   -1
100
AcDbLine
 10
368.6736092233708
 20
6.788790776629263
 11
368.6736092233708
 21
6.712590776629263
  0
LINE
  5
15C
100
AcDbEntity
  8
Red 2
  6
ByLayer
 62
  256
370
   -1
100
AcDbLine
 10
368.6736092233708
 20
6.712590776629263
 11
368.5976092233707
 21
6.585590776629264
  0
LINE
  5
15D
100
AcDbEntity
  8
Red 2
  6
ByLayer
 62
  256
370
   -1
100
AcDbLine
 10
368.5976092233707
 20
6.585590776629264
 11
368.5466092233708
 21
6.534790776629261
  0
LINE
  5
15E
100
AcDbEntity
  8
Red 2
  6
ByLayer
 62
  256
370
   -1
100
AcDbLine
 10
368.5466092233708
 20
6.534790776629261
 11
368.4196092233707
 21
6.483990776629263
  0
LINE
  5
15F
100
AcDbEntity
  8
Red 2
  6
ByLayer
 62
  256
370
   -1
100
AcDbLine
 10
368.4196092233707
 20
6.483990776629263
 11
368.1656092233708
 21
6.483990776629263
  0
LINE
  5
160
100
AcDbEntity
  8
Red 2
  6
ByLayer
 62
  256
370
   -1
100
AcDbLine
 10
368.1656092233708
 20
6.483990776629263
 11
368.0646092233708
 21
6.407790776629263
  0
LINE
  5
161
100
AcDbEntity
  8
Red 2
  6
ByLayer
 62
  256
370
   -1
100
AcDbLine
 10
368.0646092233708
 20
6.407790776629263
 11
367.9886092233708
 21
6.356990776629264
  0
LINE
  5
162
100
AcDbEntity
  8
Red 2
  6
ByLayer
 62
  256
370
   -1
100
AcDbLine
 10
367.9886092233708
 20
6.356990776629264
 11
367.9376092233708
 21
6.229990776629261
  0
LINE
  5
163
100
AcDbEntity
  8
Red 2
  6
ByLayer
 62
  256
370
   -1
100
AcDbLine
 10
367.9376092233708
 20
6.229990776629261
 11
367.9376092233708
 21
5.975990776629263
  0
LINE
  5
164
100
AcDbEntity
  8
Red 2
  6
ByLayer
 62
  256
370
   -1
100
AcDbLine
 10
367.9376092233708
 20
5.975990776629263
 11
367.9886092233708
 21
5.848990776629261
  0
LINE
  5
165
100
AcDbEntity
  8
Red 2
  6
ByLayer
 62
  256
370
   -1
100
AcDbLine
 10
367.9886092233708
 20
5.848990776629261
 11
368.0646092233708
 21
5.798190776629262
  0
LINE
  5
166
100
AcDbEntity
  8
Red 2
  6
ByLayer
 62
  256
370
   -1
100
AcDbLine
 10
368.0646092233708
 20
5.798190776629262
 11
368.1656092233708
 21
5.721990776629262
  0
LINE
  5
167
100
AcDbEntity
  8
Red 2
  6
ByLayer
 62
  256
370
   -1
100
AcDbLine
 10
368.1656092233708
 20
5.721990776629262
 11
368.4196092233707
 21
5.721990776629262
  0
LINE
  5
168
100
AcDbEntity
  8
Red 2
  6
ByLayer
 62
  256
370
   -1
100
AcDbLine
 10
368.4196092233707
 20
5.721990776629262
 11
368.5466092233708
 21
5.798190776629262
  0
LINE
  5
169
100
AcDbEntity
  8
Red 2
  6
ByLayer
 62
  256
370
   -1
100
AcDbLine
 10
368.5466092233708
 20
5.798190776629262
 11
368.5976092233707
 21
5.848990776629261
  0
LINE
  5
16A
100
AcDbEntity
  8
Red 2
  6
ByLayer
 62
  256
370
   -1
100
AcDbLine
 10
368.5976092233707
 20
5.848990776629261
 11
368.6736092233708
 21
5.975990776629263
  0
LINE
  5
16B
100
AcDbEntity
  8
Red 2
  6
ByLayer
 62
  256
370
   -1
100
AcDbLine
 10
368.6736092233708
 20
5.975990776629263
 11
368.6736092233708
 21
6.229990776629261
  0
LINE
  5
16C
100
AcDbEntity
  8
Red 2
  6
ByLayer
 62
  256
370
   -1
100
AcDbLine
 10
368.6736092233708
 20
6.229990776629261
 11
368.5976092233707
 21
6.356990776629264
  0
LINE
  5
16D
100
AcDbEntity
  8
Red 2
  6
ByLayer
 62
  256
370
   -1
100
AcDbLine
 10
368.5976092233707
 20
6.356990776629264
 11
368.5466092233708
 21
6.407790776629263
  0
LINE
  5
16E
100
AcDbEntity
  8
Red 2
  6
ByLayer
 62
  256
370
   -1
100
AcDbLine
 10
368.5466092233708
 20
6.407790776629263
 11
368.4196092233707
 21
6.483990776629263
  0
LINE
  5
16F
100
AcDbEntity
  8
Red 2
  6
ByLayer
 62
  256
370
   -1
100
AcDbLine
 10
42.69040922337074
 20
-267.7086092233707
 11
42.69040922337074
 21
-269.6906092233708
  0
LINE
  5
170
100
AcDbEntity
  8
Red 2
  6
ByLayer
 62
  256
370
   -1
100
AcDbLine
 10
92.70260922337074
 20
-267.7086092233707
 11
92.70260922337074
 21
-269.6906092233708
  0
LINE
  5
171
100
AcDbEntity
  8
Red 2
  6
ByLayer
 62
  256
370
   -1
100
AcDbLine
 10
142.6906092233708
 20
-267.7086092233707
 11
142.6906092233708
 21
-269.6906092233708
  0
LINE
  5
172
100
AcDbEntity
  8
Red 2
  6
ByLayer
 62
  256
370
   -1
100
AcDbLine
 10
192.7026092233708
 20
-267.7086092233707
 11
192.7026092233708
 21
-269.6906092233708
  0
LINE
  5
173
100
AcDbEntity
  8
Red 2
  6
ByLayer
 62
  256
370
   -1
100
AcDbLine
 10
242.6896092233708
 20
-267.7086092233707
 11
242.6896092233708
 21
-269.6906092233708
  0
LINE
  5
174
100
AcDbEntity
  8
Red 2
  6
ByLayer
 62
  256
370
   -1
100
AcDbLine
 10
292.7026092233708
 20
-267.7086092233707
 11
292.7026092233708
 21
-269.6906092233708
  0
LINE
  5
175
100
AcDbEntity
  8
Red 2
  6
ByLayer
 62
  256
370
   -1
100
AcDbLine
 10
342.6896092233708
 20
-267.7086092233707
 11
342.6896092233708
 21
-269.6906092233708
  0
LINE
  5
176
100
AcDbEntity
  8
Red 2
  6
ByLayer
 62
  256
370
   -1
100
AcDbLine
 10
18.68740922337074
 20
-269.2836092233708
 11
17.95080922337074
 21
-269.2836092233708
  0
LINE
  5
177
100
AcDbEntity
  8
Red 2
  6
ByLayer
 62
  256
370
   -1
100
AcDbLine
 10
18.30640922337074
 20
-269.2836092233708
 11
18.30640922337074
 21
-267.9886092233708
  0
LINE
  5
178
100
AcDbEntity
  8
Red 2
  6
ByLayer
 62
  256
370
   -1
100
AcDbLine
 10
18.30640922337074
 20
-267.9886092233708
 11
18.17940922337074
 21
-268.1666092233708
  0
LINE
  5
179
100
AcDbEntity
  8
Red 2
  6
ByLayer
 62
  256
370
   -1
100
AcDbLine
 10
18.17940922337074
 20
-268.1666092233708
 11
18.07780922337074
 21
-268.2936092233708
  0
LINE
  5
17A
100
AcDbEntity
  8
Red 2
  6
ByLayer
 62
  256
370
   -1
100
AcDbLine
 10
18.07780922337074
 20
-268.2936092233708
 11
17.95080922337074
 21
-268.3436092233708
  0
LINE
  5
17B
100
AcDbEntity
  8
Red 2
  6
ByLayer
 62
  256
370
   -1
100
AcDbLine
 10
67.93800922337074
 20
-268.0896092233708
 11
67.98880922337074
 21
-268.0396092233707
  0
LINE
  5
17C
100
AcDbEntity
  8
Red 2
  6
ByLayer
 62
  256
370
   -1
100
AcDbLine
 10
67.98880922337074
 20
-268.0396092233707
 11
68.11580922337073
 21
-267.9886092233708
  0
LINE
  5
17D
100
AcDbEntity
  8
Red 2
  6
ByLayer
 62
  256
370
   -1
100
AcDbLine
 10
68.11580922337073
 20
-267.9886092233708
 11
68.42060922337073
 21
-267.9886092233708
  0
LINE
  5
17E
100
AcDbEntity
  8
Red 2
  6
ByLayer
 62
  256
370
   -1
100
AcDbLine
 10
68.42060922337073
 20
-267.9886092233708
 11
68.54760922337074
 21
-268.0396092233707
  0
LINE
  5
17F
100
AcDbEntity
  8
Red 2
  6
ByLayer
 62
  256
370
   -1
100
AcDbLine
 10
68.54760922337074
 20
-268.0396092233707
 11
68.59840922337074
 21
-268.0896092233708
  0
LINE
  5
180
100
AcDbEntity
  8
Red 2
  6
ByLayer
 62
  256
370
   -1
100
AcDbLine
 10
68.59840922337074
 20
-268.0896092233708
 11
68.67460922337074
 21
-268.2166092233708
  0
LINE
  5
181
100
AcDbEntity
  8
Red 2
  6
ByLayer
 62
  256
370
   -1
100
AcDbLine
 10
68.67460922337074
 20
-268.2166092233708
 11
68.67460922337074
 21
-268.3436092233708
  0
LINE
  5
182
100
AcDbEntity
  8
Red 2
  6
ByLayer
 62
  256
370
   -1
100
AcDbLine
 10
68.67460922337074
 20
-268.3436092233708
 11
68.59840922337074
 21
-268.5216092233708
  0
LINE
  5
183
100
AcDbEntity
  8
Red 2
  6
ByLayer
 62
  256
370
   -1
100
AcDbLine
 10
68.59840922337074
 20
-268.5216092233708
 11
67.86180922337074
 21
-269.2836092233708
  0
LINE
  5
184
100
AcDbEntity
  8
Red 2
  6
ByLayer
 62
  256
370
   -1
100
AcDbLine
 10
67.86180922337074
 20
-269.2836092233708
 11
68.67460922337074
 21
-269.2836092233708
  0
LINE
  5
185
100
AcDbEntity
  8
Red 2
  6
ByLayer
 62
  256
370
   -1
100
AcDbLine
 10
117.8746092233707
 20
-267.9886092233708
 11
118.6876092233707
 21
-267.9886092233708
  0
LINE
  5
186
100
AcDbEntity
  8
Red 2
  6
ByLayer
 62
  256
370
   -1
100
AcDbLine
 10
118.6876092233707
 20
-267.9886092233708
 11
118.2556092233707
 21
-268.4706092233707
  0
LINE
  5
187
100
AcDbEntity
  8
Red 2
  6
ByLayer
 62
  256
370
   -1
100
AcDbLine
 10
118.2556092233707
 20
-268.4706092233707
 11
118.4336092233707
 21
-268.4706092233707
  0
LINE
  5
188
100
AcDbEntity
  8
Red 2
  6
ByLayer
 62
  256
370
   -1
100
AcDbLine
 10
118.4336092233707
 20
-268.4706092233707
 11
118.5606092233707
 21
-268.5216092233708
  0
LINE
  5
189
100
AcDbEntity
  8
Red 2
  6
ByLayer
 62
  256
370
   -1
100
AcDbLine
 10
118.5606092233707
 20
-268.5216092233708
 11
118.6106092233707
 21
-268.5976092233707
  0
LINE
  5
18A
100
AcDbEntity
  8
Red 2
  6
ByLayer
 62
  256
370
   -1
100
AcDbLine
 10
118.6106092233707
 20
-268.5976092233707
 11
118.6876092233707
 21
-268.7246092233707
  0
LINE
  5
18B
100
AcDbEntity
  8
Red 2
  6
ByLayer
 62
  256
370
   -1
100
AcDbLine
 10
118.6876092233707
 20
-268.7246092233707
 11
118.6876092233707
 21
-269.0296092233708
  0
LINE
  5
18C
100
AcDbEntity
  8
Red 2
  6
ByLayer
 62
  256
370
   -1
100
AcDbLine
 10
118.6876092233707
 20
-269.0296092233708
 11
118.6106092233707
 21
-269.1566092233708
  0
LINE
  5
18D
100
AcDbEntity
  8
Red 2
  6
ByLayer
 62
  256
370
   -1
100
AcDbLine
 10
118.6106092233707
 20
-269.1566092233708
 11
118.5606092233707
 21
-269.2076092233708
  0
LINE
  5
18E
100
AcDbEntity
  8
Red 2
  6
ByLayer
 62
  256
370
   -1
100
AcDbLine
 10
118.5606092233707
 20
-269.2076092233708
 11
118.4336092233707
 21
-269.2836092233708
  0
LINE
  5
18F
100
AcDbEntity
  8
Red 2
  6
ByLayer
 62
  256
370
   -1
100
AcDbLine
 10
118.4336092233707
 20
-269.2836092233708
 11
118.0776092233707
 21
-269.2836092233708
  0
LINE
  5
190
100
AcDbEntity
  8
Red 2
  6
ByLayer
 62
  256
370
   -1
100
AcDbLine
 10
118.0776092233707
 20
-269.2836092233708
 11
117.9506092233707
 21
-269.2076092233708
  0
LINE
  5
191
100
AcDbEntity
  8
Red 2
  6
ByLayer
 62
  256
370
   -1
100
AcDbLine
 10
117.9506092233707
 20
-269.2076092233708
 11
117.8746092233707
 21
-269.1566092233708
  0
LINE
  5
192
100
AcDbEntity
  8
Red 2
  6
ByLayer
 62
  256
370
   -1
100
AcDbLine
 10
168.5476092233707
 20
-268.4206092233708
 11
168.5476092233707
 21
-269.2836092233708
  0
LINE
  5
193
100
AcDbEntity
  8
Red 2
  6
ByLayer
 62
  256
370
   -1
100
AcDbLine
 10
168.2426092233707
 20
-267.9126092233707
 11
167.9376092233707
 21
-268.8516092233708
  0
LINE
  5
194
100
AcDbEntity
  8
Red 2
  6
ByLayer
 62
  256
370
   -1
100
AcDbLine
 10
167.9376092233707
 20
-268.8516092233708
 11
168.7256092233707
 21
-268.8516092233708
  0
LINE
  5
195
100
AcDbEntity
  8
Red 2
  6
ByLayer
 62
  256
370
   -1
100
AcDbLine
 10
218.6106092233707
 20
-267.9886092233708
 11
218.0016092233707
 21
-267.9886092233708
  0
LINE
  5
196
100
AcDbEntity
  8
Red 2
  6
ByLayer
 62
  256
370
   -1
100
AcDbLine
 10
218.0016092233707
 20
-267.9886092233708
 11
217.9506092233707
 21
-268.5976092233707
  0
LINE
  5
197
100
AcDbEntity
  8
Red 2
  6
ByLayer
 62
  256
370
   -1
100
AcDbLine
 10
217.9506092233707
 20
-268.5976092233707
 11
218.0016092233707
 21
-268.5216092233708
  0
LINE
  5
198
100
AcDbEntity
  8
Red 2
  6
ByLayer
 62
  256
370
   -1
100
AcDbLine
 10
218.0016092233707
 20
-268.5216092233708
 11
218.1286092233707
 21
-268.4706092233707
  0
LINE
  5
199
100
AcDbEntity
  8
Red 2
  6
ByLayer
 62
  256
370
   -1
100
AcDbLine
 10
218.1286092233707
 20
-268.4706092233707
 11
218.4326092233707
 21
-268.4706092233707
  0
LINE
  5
19A
100
AcDbEntity
  8
Red 2
  6
ByLayer
 62
  256
370
   -1
100
AcDbLine
 10
218.4326092233707
 20
-268.4706092233707
 11
218.5596092233707
 21
-268.5216092233708
  0
LINE
  5
19B
100
AcDbEntity
  8
Red 2
  6
ByLayer
 62
  256
370
   -1
100
AcDbLine
 10
218.5596092233707
 20
-268.5216092233708
 11
218.6106092233707
 21
-268.5976092233707
  0
LINE
  5
19C
100
AcDbEntity
  8
Red 2
  6
ByLayer
 62
  256
370
   -1
100
AcDbLine
 10
218.6106092233707
 20
-268.5976092233707
 11
218.6866092233707
 21
-268.7246092233707
  0
LINE
  5
19D
100
AcDbEntity
  8
Red 2
  6
ByLayer
 62
  256
370
   -1
100
AcDbLine
 10
218.6866092233707
 20
-268.7246092233707
 11
218.6866092233707
 21
-269.0296092233708
  0
LINE
  5
19E
100
AcDbEntity
  8
Red 2
  6
ByLayer
 62
  256
370
   -1
100
AcDbLine
 10
218.6866092233707
 20
-269.0296092233708
 11
218.6106092233707
 21
-269.1566092233708
  0
LINE
  5
19F
100
AcDbEntity
  8
Red 2
  6
ByLayer
 62
  256
370
   -1
100
AcDbLine
 10
218.6106092233707
 20
-269.1566092233708
 11
218.5596092233707
 21
-269.2076092233708
  0
LINE
  5
1A0
100
AcDbEntity
  8
Red 2
  6
ByLayer
 62
  256
370
   -1
100
AcDbLine
 10
218.5596092233707
 20
-269.2076092233708
 11
218.4326092233707
 21
-269.2836092233708
  0
LINE
  5
1A1
100
AcDbEntity
  8
Red 2
  6
ByLayer
 62
  256
370
   -1
100
AcDbLine
 10
218.4326092233707
 20
-269.2836092233708
 11
218.1286092233707
 21
-269.2836092233708
  0
LINE
  5
1A2
100
AcDbEntity
  8
Red 2
  6
ByLayer
 62
  256
370
   -1
100
AcDbLine
 10
218.1286092233707
 20
-269.2836092233708
 11
218.0016092233707
 21
-269.2076092233708
  0
LINE
  5
1A3
100
AcDbEntity
  8
Red 2
  6
ByLayer
 62
  256
370
   -1
100
AcDbLine
 10
218.0016092233707
 20
-269.2076092233708
 11
217.9506092233707
 21
-269.1566092233708
  0
LINE
  5
1A4
100
AcDbEntity
  8
Red 2
  6
ByLayer
 62
  256
370
   -1
100
AcDbLine
 10
268.5476092233707
 20
-267.9886092233708
 11
268.2936092233708
 21
-267.9886092233708
  0
LINE
  5
1A5
100
AcDbEntity
  8
Red 2
  6
ByLayer
 62
  256
370
   -1
100
AcDbLine
 10
268.2936092233708
 20
-267.9886092233708
 11
268.1666092233708
 21
-268.0396092233707
  0
LINE
  5
1A6
100
AcDbEntity
  8
Red 2
  6
ByLayer
 62
  256
370
   -1
100
AcDbLine
 10
268.1666092233708
 20
-268.0396092233707
 11
268.1156092233708
 21
-268.0896092233708
  0
LINE
  5
1A7
100
AcDbEntity
  8
Red 2
  6
ByLayer
 62
  256
370
   -1
100
AcDbLine
 10
268.1156092233708
 20
-268.0896092233708
 11
267.9886092233708
 21
-268.2936092233708
  0
LINE
  5
1A8
100
AcDbEntity
  8
Red 2
  6
ByLayer
 62
  256
370
   -1
100
AcDbLine
 10
267.9886092233708
 20
-268.2936092233708
 11
267.9376092233708
 21
-268.5216092233708
  0
LINE
  5
1A9
100
AcDbEntity
  8
Red 2
  6
ByLayer
 62
  256
370
   -1
100
AcDbLine
 10
267.9376092233708
 20
-268.5216092233708
 11
267.9376092233708
 21
-269.0296092233708
  0
LINE
  5
1AA
100
AcDbEntity
  8
Red 2
  6
ByLayer
 62
  256
370
   -1
100
AcDbLine
 10
267.9376092233708
 20
-269.0296092233708
 11
267.9886092233708
 21
-269.1566092233708
  0
LINE
  5
1AB
100
AcDbEntity
  8
Red 2
  6
ByLayer
 62
  256
370
   -1
100
AcDbLine
 10
267.9886092233708
 20
-269.1566092233708
 11
268.0646092233708
 21
-269.2076092233708
  0
LINE
  5
1AC
100
AcDbEntity
  8
Red 2
  6
ByLayer
 62
  256
370
   -1
100
AcDbLine
 10
268.0646092233708
 20
-269.2076092233708
 11
268.1666092233708
 21
-269.2836092233708
  0
LINE
  5
1AD
100
AcDbEntity
  8
Red 2
  6
ByLayer
 62
  256
370
   -1
100
AcDbLine
 10
268.1666092233708
 20
-269.2836092233708
 11
268.4206092233708
 21
-269.2836092233708
  0
LINE
  5
1AE
100
AcDbEntity
  8
Red 2
  6
ByLayer
 62
  256
370
   -1
100
AcDbLine
 10
268.4206092233708
 20
-269.2836092233708
 11
268.5476092233707
 21
-269.2076092233708
  0
LINE
  5
1AF
100
AcDbEntity
  8
Red 2
  6
ByLayer
 62
  256
370
   -1
100
AcDbLine
 10
268.5476092233707
 20
-269.2076092233708
 11
268.5976092233707
 21
-269.1566092233708
  0
LINE
  5
1B0
100
AcDbEntity
  8
Red 2
  6
ByLayer
 62
  256
370
   -1
100
AcDbLine
 10
268.5976092233707
 20
-269.1566092233708
 11
268.6746092233707
 21
-269.0296092233708
  0
LINE
  5
1B1
100
AcDbEntity
  8
Red 2
  6
ByLayer
 62
  256
370
   -1
100
AcDbLine
 10
268.6746092233707
 20
-269.0296092233708
 11
268.6746092233707
 21
-268.7246092233707
  0
LINE
  5
1B2
100
AcDbEntity
  8
Red 2
  6
ByLayer
 62
  256
370
   -1
100
AcDbLine
 10
268.6746092233707
 20
-268.7246092233707
 11
268.5976092233707
 21
-268.5976092233707
  0
LINE
  5
1B3
100
AcDbEntity
  8
Red 2
  6
ByLayer
 62
  256
370
   -1
100
AcDbLine
 10
268.5976092233707
 20
-268.5976092233707
 11
268.5476092233707
 21
-268.5216092233708
  0
LINE
  5
1B4
100
AcDbEntity
  8
Red 2
  6
ByLayer
 62
  256
370
   -1
100
AcDbLine
 10
268.5476092233707
 20
-268.5216092233708
 11
268.4206092233708
 21
-268.4706092233707
  0
LINE
  5
1B5
100
AcDbEntity
  8
Red 2
  6
ByLayer
 62
  256
370
   -1
100
AcDbLine
 10
268.4206092233708
 20
-268.4706092233707
 11
268.1666092233708
 21
-268.4706092233707
  0
LINE
  5
1B6
100
AcDbEntity
  8
Red 2
  6
ByLayer
 62
  256
370
   -1
100
AcDbLine
 10
268.1666092233708
 20
-268.4706092233707
 11
268.0646092233708
 21
-268.5216092233708
  0
LINE
  5
1B7
100
AcDbEntity
  8
Red 2
  6
ByLayer
 62
  256
370
   -1
100
AcDbLine
 10
268.0646092233708
 20
-268.5216092233708
 11
267.9886092233708
 21
-268.5976092233707
  0
LINE
  5
1B8
100
AcDbEntity
  8
Red 2
  6
ByLayer
 62
  256
370
   -1
100
AcDbLine
 10
267.9886092233708
 20
-268.5976092233707
 11
267.9376092233708
 21
-268.7246092233707
  0
LINE
  5
1B9
100
AcDbEntity
  8
Red 2
  6
ByLayer
 62
  256
370
   -1
100
AcDbLine
 10
317.8736092233707
 20
-267.9886092233708
 11
318.7376092233707
 21
-267.9886092233708
  0
LINE
  5
1BA
100
AcDbEntity
  8
Red 2
  6
ByLayer
 62
  256
370
   -1
100
AcDbLine
 10
318.7376092233707
 20
-267.9886092233708
 11
318.1786092233708
 21
-269.2836092233708
  0
LINE
  5
1BB
100
AcDbEntity
  8
Red 2
  6
ByLayer
 62
  256
370
   -1
100
AcDbLine
 10
368.1656092233708
 20
-268.5216092233708
 11
368.0646092233708
 21
-268.4706092233707
  0
LINE
  5
1BC
100
AcDbEntity
  8
Red 2
  6
ByLayer
 62
  256
370
   -1
100
AcDbLine
 10
368.0646092233708
 20
-268.4706092233707
 11
367.9886092233708
 21
-268.4206092233708
  0
LINE
  5
1BD
100
AcDbEntity
  8
Red 2
  6
ByLayer
 62
  256
370
   -1
100
AcDbLine
 10
367.9886092233708
 20
-268.4206092233708
 11
367.9376092233708
 21
-268.2936092233708
  0
LINE
  5
1BE
100
AcDbEntity
  8
Red 2
  6
ByLayer
 62
  256
370
   -1
100
AcDbLine
 10
367.9376092233708
 20
-268.2936092233708
 11
367.9376092233708
 21
-268.2166092233708
  0
LINE
  5
1BF
100
AcDbEntity
  8
Red 2
  6
ByLayer
 62
  256
370
   -1
100
AcDbLine
 10
367.9376092233708
 20
-268.2166092233708
 11
367.9886092233708
 21
-268.0896092233708
  0
LINE
  5
1C0
100
AcDbEntity
  8
Red 2
  6
ByLayer
 62
  256
370
   -1
100
AcDbLine
 10
367.9886092233708
 20
-268.0896092233708
 11
368.0646092233708
 21
-268.0396092233707
  0
LINE
  5
1C1
100
AcDbEntity
  8
Red 2
  6
ByLayer
 62
  256
370
   -1
100
AcDbLine
 10
368.0646092233708
 20
-268.0396092233707
 11
368.1656092233708
 21
-267.9886092233708
  0
LINE
  5
1C2
100
AcDbEntity
  8
Red 2
  6
ByLayer
 62
  256
370
   -1
100
AcDbLine
 10
368.1656092233708
 20
-267.9886092233708
 11
368.4196092233707
 21
-267.9886092233708
  0
LINE
  5
1C3
100
AcDbEntity
  8
Red 2
  6
ByLayer
 62
  256
370
   -1
100
AcDbLine
 10
368.4196092233707
 20
-267.9886092233708
 11
368.5466092233708
 21
-268.0396092233707
  0
LINE
  5
1C4
100
AcDbEntity
  8
Red 2
  6
ByLayer
 62
  256
370
   -1
100
AcDbLine
 10
368.5466092233708
 20
-268.0396092233707
 11
368.5976092233707
 21
-268.0896092233708
  0
LINE
  5
1C5
100
AcDbEntity
  8
Red 2
  6
ByLayer
 62
  256
370
   -1
100
AcDbLine
 10
368.5976092233707
 20
-268.0896092233708
 11
368.6736092233708
 21
-268.2166092233708
  0
LINE
  5
1C6
100
AcDbEntity
  8
Red 2
  6
ByLayer
 62
  256
370
   -1
100
AcDbLine
 10
368.6736092233708
 20
-268.2166092233708
 11
368.6736092233708
 21
-268.2936092233708
  0
LINE
  5
1C7
100
AcDbEntity
  8
Red 2
  6
ByLayer
 62
  256
370
   -1
100
AcDbLine
 10
368.6736092233708
 20
-268.2936092233708
 11
368.5976092233707
 21
-268.4206092233708
  0
LINE
  5
1C8
100
AcDbEntity
  8
Red 2
  6
ByLayer
 62
  256
370
   -1
100
AcDbLine
 10
368.5976092233707
 20
-268.4206092233708
 11
368.5466092233708
 21
-268.4706092233707
  0
LINE
  5
1C9
100
AcDbEntity
  8
Red 2
  6
ByLayer
 62
  256
370
   -1
100
AcDbLine
 10
368.5466092233708
 20
-268.4706092233707
 11
368.4196092233707
 21
-268.5216092233708
  0
LINE
  5
1CA
100
AcDbEntity
  8
Red 2
  6
ByLayer
 62
  256
370
   -1
100
AcDbLine
 10
368.4196092233707
 20
-268.5216092233708
 11
368.1656092233708
 21
-268.5216092233708
  0
LINE
  5
1CB
100
AcDbEntity
  8
Red 2
  6
ByLayer
 62
  256
370
   -1
100
AcDbLine
 10
368.1656092233708
 20
-268.5216092233708
 11
368.0646092233708
 21
-268.5976092233707
  0
LINE
  5
1CC
100
AcDbEntity
  8
Red 2
  6
ByLayer
 62
  256
370
   -1
100
AcDbLine
 10
368.0646092233708
 20
-268.5976092233707
 11
367.9886092233708
 21
-268.6486092233707
  0
LINE
  5
1CD
100
AcDbEntity
  8
Red 2
  6
ByLayer
 62
  256
370
   -1
100
AcDbLine
 10
367.9886092233708
 20
-268.6486092233707
 11
367.9376092233708
 21
-268.7756092233707
  0
LINE
  5
1CE
100
AcDbEntity
  8
Red 2
  6
ByLayer
 62
  256
370
   -1
100
AcDbLine
 10
367.9376092233708
 20
-268.7756092233707
 11
367.9376092233708
 21
-269.0296092233708
  0
LINE
  5
1CF
100
AcDbEntity
  8
Red 2
  6
ByLayer
 62
  256
370
   -1
100
AcDbLine
 10
367.9376092233708
 20
-269.0296092233708
 11
367.9886092233708
 21
-269.1566092233708
  0
LINE
  5
1D0
100
AcDbEntity
  8
Red 2
  6
ByLayer
 62
  256
370
   -1
100
AcDbLine
 10
367.9886092233708
 20
-269.1566092233708
 11
368.0646092233708
 21
-269.2076092233708
  0
LINE
  5
1D1
100
AcDbEntity
  8
Red 2
  6
ByLayer
 62
  256
370
   -1
100
AcDbLine
 10
368.0646092233708
 20
-269.2076092233708
 11
368.1656092233708
 21
-269.2836092233708
  0
LINE
  5
1D2
100
AcDbEntity
  8
Red 2
  6
ByLayer
 62
  256
370
   -1
100
AcDbLine
 10
368.1656092233708
 20
-269.2836092233708
 11
368.4196092233707
 21
-269.2836092233708
  0
LINE
  5
1D3
100
AcDbEntity
  8
Red 2
  6
ByLayer
 62
  256
370
   -1
100
AcDbLine
 10
368.4196092233707
 20
-269.2836092233708
 11
368.5466092233708
 21
-269.2076092233708
  0
LINE
  5
1D4
100
AcDbEntity
  8
Red 2
  6
ByLayer
 62
  256
370
   -1
100
AcDbLine
 10
368.5466092233708
 20
-269.2076092233708
 11
368.5976092233707
 21
-269.1566092233708
  0
LINE
  5
1D5
100
AcDbEntity
  8
Red 2
  6
ByLayer
 62
  256
370
   -1
100
AcDbLine
 10
368.5976092233707
 20
-269.1566092233708
 11
368.6736092233708
 21
-269.0296092233708
  0
LINE
  5
1D6
100
AcDbEntity
  8
Red 2
  6
ByLayer
 62
  256
370
   -1
100
AcDbLine
 10
368.6736092233708
 20
-269.0296092233708
 11
368.6736092233708
 21
-268.7756092233707
  0
LINE
  5
1D7
100
AcDbEntity
  8
Red 2
  6
ByLayer
 62
  256
370
   -1
100
AcDbLine
 10
368.6736092233708
 20
-268.7756092233707
 11
368.5976092233707
 21
-268.6486092233707
  0
LINE
  5
1D8
100
AcDbEntity
  8
Red 2
  6
ByLayer
 62
  256
370
   -1
100
AcDbLine
 10
368.5976092233707
 20
-268.6486092233707
 11
368.5466092233708
 21
-268.5976092233707
  0
LINE
  5
1D9
100
AcDbEntity
  8
Red 2
  6
ByLayer
 62
  256
370
   -1
100
AcDbLine
 10
368.5466092233708
 20
-268.5976092233707
 11
368.4196092233707
 21
-268.5216092233708
  0
LINE
  5
1DA
100
AcDbEntity
  8
Red 2
  6
ByLayer
 62
  256
370
   -1
100
AcDbLine
 10
-7.296790776629262
 20
-42.69040922337074
 11
-5.315590776629264
 21
-42.69040922337074
  0
LINE
  5
1DB
100
AcDbEntity
  8
Red 2
  6
ByLayer
 62
  256
370
   -1
100
AcDbLine
 10
-7.296790776629262
 20
-92.70260922337074
 11
-5.315590776629264
 21
-92.70260922337074
  0
LINE
  5
1DC
100
AcDbEntity
  8
Red 2
  6
ByLayer
 62
  256
370
   -1
100
AcDbLine
 10
-7.296790776629262
 20
-142.6906092233707
 11
-5.315590776629264
 21
-142.6906092233707
  0
LINE
  5
1DD
100
AcDbEntity
  8
Red 2
  6
ByLayer
 62
  256
370
   -1
100
AcDbLine
 10
-7.296790776629262
 20
-192.7026092233707
 11
-5.315590776629264
 21
-192.7026092233707
  0
LINE
  5
1DE
100
AcDbEntity
  8
Red 2
  6
ByLayer
 62
  256
370
   -1
100
AcDbLine
 10
-7.296790776629262
 20
-242.6896092233708
 11
-5.315590776629264
 21
-242.6896092233708
  0
LINE
  5
1DF
100
AcDbEntity
  8
Red 2
  6
ByLayer
 62
  256
370
   -1
100
AcDbLine
 10
-6.610990776629261
 20
-17.90000922337074
 11
-6.001390776629261
 21
-17.90000922337074
  0
LINE
  5
1E0
100
AcDbEntity
  8
Red 2
  6
ByLayer
 62
  256
370
   -1
100
AcDbLine
 10
-6.73799077662926
 20
-18.28100922337074
 11
-6.306190776629261
 21
-16.98560922337074
  0
LINE
  5
1E1
100
AcDbEntity
  8
Red 2
  6
ByLayer
 62
  256
370
   -1
100
AcDbLine
 10
-6.306190776629261
 20
-16.98560922337074
 11
-5.874390776629262
 21
-18.28100922337074
  0
LINE
  5
1E2
100
AcDbEntity
  8
Red 2
  6
ByLayer
 62
  256
370
   -1
100
AcDbLine
 10
-6.20459077662926
 20
-67.58240922337073
 11
-6.026790776629262
 21
-67.63320922337074
  0
LINE
  5
1E3
100
AcDbEntity
  8
Red 2
  6
ByLayer
 62
  256
370
   -1
100
AcDbLine
 10
-6.026790776629262
 20
-67.63320922337074
 11
-5.950590776629262
 21
-67.70940922337074
  0
LINE
  5
1E4
100
AcDbEntity
  8
Red 2
  6
ByLayer
 62
  256
370
   -1
100
AcDbLine
 10
-5.950590776629262
 20
-67.70940922337074
 11
-5.89979077662926
 21
-67.83640922337074
  0
LINE
  5
1E5
100
AcDbEntity
  8
Red 2
  6
ByLayer
 62
  256
370
   -1
100
AcDbLine
 10
-5.89979077662926
 20
-67.83640922337074
 11
-5.89979077662926
 21
-68.01420922337074
  0
LINE
  5
1E6
100
AcDbEntity
  8
Red 2
  6
ByLayer
 62
  256
370
   -1
100
AcDbLine
 10
-5.89979077662926
 20
-68.01420922337074
 11
-5.950590776629262
 21
-68.14120922337074
  0
LINE
  5
1E7
100
AcDbEntity
  8
Red 2
  6
ByLayer
 62
  256
370
   -1
100
AcDbLine
 10
-5.950590776629262
 20
-68.14120922337074
 11
-6.026790776629262
 21
-68.19200922337073
  0
LINE
  5
1E8
100
AcDbEntity
  8
Red 2
  6
ByLayer
 62
  256
370
   -1
100
AcDbLine
 10
-6.026790776629262
 20
-68.19200922337073
 11
-6.12839077662926
 21
-68.26820922337073
  0
LINE
  5
1E9
100
AcDbEntity
  8
Red 2
  6
ByLayer
 62
  256
370
   -1
100
AcDbLine
 10
-6.12839077662926
 20
-68.26820922337073
 11
-6.636390776629263
 21
-68.26820922337073
  0
LINE
  5
1EA
100
AcDbEntity
  8
Red 2
  6
ByLayer
 62
  256
370
   -1
100
AcDbLine
 10
-6.636390776629263
 20
-68.26820922337073
 11
-6.636390776629263
 21
-66.97280922337073
  0
LINE
  5
1EB
100
AcDbEntity
  8
Red 2
  6
ByLayer
 62
  256
370
   -1
100
AcDbLine
 10
-6.636390776629263
 20
-66.97280922337073
 11
-6.20459077662926
 21
-66.97280922337073
  0
LINE
  5
1EC
100
AcDbEntity
  8
Red 2
  6
ByLayer
 62
  256
370
   -1
100
AcDbLine
 10
-6.20459077662926
 20
-66.97280922337073
 11
-6.077590776629261
 21
-67.02360922337074
  0
LINE
  5
1ED
100
AcDbEntity
  8
Red 2
  6
ByLayer
 62
  256
370
   -1
100
AcDbLine
 10
-6.077590776629261
 20
-67.02360922337074
 11
-6.026790776629262
 21
-67.07440922337074
  0
LINE
  5
1EE
100
AcDbEntity
  8
Red 2
  6
ByLayer
 62
  256
370
   -1
100
AcDbLine
 10
-6.026790776629262
 20
-67.07440922337074
 11
-5.950590776629262
 21
-67.20140922337073
  0
LINE
  5
1EF
100
AcDbEntity
  8
Red 2
  6
ByLayer
 62
  256
370
   -1
100
AcDbLine
 10
-5.950590776629262
 20
-67.20140922337073
 11
-5.950590776629262
 21
-67.32840922337074
  0
LINE
  5
1F0
100
AcDbEntity
  8
Red 2
  6
ByLayer
 62
  256
370
   -1
100
AcDbLine
 10
-5.950590776629262
 20
-67.32840922337074
 11
-6.026790776629262
 21
-67.45540922337074
  0
LINE
  5
1F1
100
AcDbEntity
  8
Red 2
  6
ByLayer
 62
  256
370
   -1
100
AcDbLine
 10
-6.026790776629262
 20
-67.45540922337074
 11
-6.077590776629261
 21
-67.50620922337073
  0
LINE
  5
1F2
100
AcDbEntity
  8
Red 2
  6
ByLayer
 62
  256
370
   -1
100
AcDbLine
 10
-6.077590776629261
 20
-67.50620922337073
 11
-6.20459077662926
 21
-67.58240922337073
  0
LINE
  5
1F3
100
AcDbEntity
  8
Red 2
  6
ByLayer
 62
  256
370
   -1
100
AcDbLine
 10
-6.20459077662926
 20
-67.58240922337073
 11
-6.636390776629263
 21
-67.58240922337073
  0
LINE
  5
1F4
100
AcDbEntity
  8
Red 2
  6
ByLayer
 62
  256
370
   -1
100
AcDbLine
 10
-5.89979077662926
 20
-118.1536092233707
 11
-5.950590776629262
 21
-118.2046092233707
  0
LINE
  5
1F5
100
AcDbEntity
  8
Red 2
  6
ByLayer
 62
  256
370
   -1
100
AcDbLine
 10
-5.950590776629262
 20
-118.2046092233707
 11
-6.12839077662926
 21
-118.2806092233707
  0
LINE
  5
1F6
100
AcDbEntity
  8
Red 2
  6
ByLayer
 62
  256
370
   -1
100
AcDbLine
 10
-6.12839077662926
 20
-118.2806092233707
 11
-6.255390776629262
 21
-118.2806092233707
  0
LINE
  5
1F7
100
AcDbEntity
  8
Red 2
  6
ByLayer
 62
  256
370
   -1
100
AcDbLine
 10
-6.255390776629262
 20
-118.2806092233707
 11
-6.458590776629261
 21
-118.2046092233707
  0
LINE
  5
1F8
100
AcDbEntity
  8
Red 2
  6
ByLayer
 62
  256
370
   -1
100
AcDbLine
 10
-6.458590776629261
 20
-118.2046092233707
 11
-6.560190776629263
 21
-118.0776092233707
  0
LINE
  5
1F9
100
AcDbEntity
  8
Red 2
  6
ByLayer
 62
  256
370
   -1
100
AcDbLine
 10
-6.560190776629263
 20
-118.0776092233707
 11
-6.636390776629263
 21
-117.9506092233707
  0
LINE
  5
1FA
100
AcDbEntity
  8
Red 2
  6
ByLayer
 62
  256
370
   -1
100
AcDbLine
 10
-6.636390776629263
 20
-117.9506092233707
 11
-6.687190776629262
 21
-117.7216092233707
  0
LINE
  5
1FB
100
AcDbEntity
  8
Red 2
  6
ByLayer
 62
  256
370
   -1
100
AcDbLine
 10
-6.687190776629262
 20
-117.7216092233707
 11
-6.687190776629262
 21
-117.5186092233707
  0
LINE
  5
1FC
100
AcDbEntity
  8
Red 2
  6
ByLayer
 62
  256
370
   -1
100
AcDbLine
 10
-6.687190776629262
 20
-117.5186092233707
 11
-6.636390776629263
 21
-117.2906092233707
  0
LINE
  5
1FD
100
AcDbEntity
  8
Red 2
  6
ByLayer
 62
  256
370
   -1
100
AcDbLine
 10
-6.636390776629263
 20
-117.2906092233707
 11
-6.560190776629263
 21
-117.1636092233707
  0
LINE
  5
1FE
100
AcDbEntity
  8
Red 2
  6
ByLayer
 62
  256
370
   -1
100
AcDbLine
 10
-6.560190776629263
 20
-117.1636092233707
 11
-6.458590776629261
 21
-117.0366092233707
  0
LINE
  5
1FF
100
AcDbEntity
  8
Red 2
  6
ByLayer
 62
  256
370
   -1
100
AcDbLine
 10
-6.458590776629261
 20
-117.0366092233707
 11
-6.255390776629262
 21
-116.9856092233707
  0
LINE
  5
200
100
AcDbEntity
  8
Red 2
  6
ByLayer
 62
  256
370
   -1
100
AcDbLine
 10
-6.255390776629262
 20
-116.9856092233707
 11
-6.12839077662926
 21
-116.9856092233707
  0
LINE
  5
201
100
AcDbEntity
  8
Red 2
  6
ByLayer
 62
  256
370
   -1
100
AcDbLine
 10
-6.12839077662926
 20
-116.9856092233707
 11
-5.950590776629262
 21
-117.0366092233707
  0
LINE
  5
202
100
AcDbEntity
  8
Red 2
  6
ByLayer
 62
  256
370
   -1
100
AcDbLine
 10
-5.950590776629262
 20
-117.0366092233707
 11
-5.89979077662926
 21
-117.0866092233707
  0
LINE
  5
203
100
AcDbEntity
  8
Red 2
  6
ByLayer
 62
  256
370
   -1
100
AcDbLine
 10
-6.636390776629263
 20
-168.2676092233707
 11
-6.636390776629263
 21
-166.9726092233707
  0
LINE
  5
204
100
AcDbEntity
  8
Red 2
  6
ByLayer
 62
  256
370
   -1
100
AcDbLine
 10
-6.636390776629263
 20
-166.9726092233707
 11
-6.331590776629263
 21
-166.9726092233707
  0
LINE
  5
205
100
AcDbEntity
  8
Red 2
  6
ByLayer
 62
  256
370
   -1
100
AcDbLine
 10
-6.331590776629263
 20
-166.9726092233707
 11
-6.12839077662926
 21
-167.0236092233707
  0
LINE
  5
206
100
AcDbEntity
  8
Red 2
  6
ByLayer
 62
  256
370
   -1
100
AcDbLine
 10
-6.12839077662926
 20
-167.0236092233707
 11
-6.026790776629262
 21
-167.1506092233707
  0
LINE
  5
207
100
AcDbEntity
  8
Red 2
  6
ByLayer
 62
  256
370
   -1
100
AcDbLine
 10
-6.026790776629262
 20
-167.1506092233707
 11
-5.950590776629262
 21
-167.2776092233707
  0
LINE
  5
208
100
AcDbEntity
  8
Red 2
  6
ByLayer
 62
  256
370
   -1
100
AcDbLine
 10
-5.950590776629262
 20
-167.2776092233707
 11
-5.89979077662926
 21
-167.5056092233707
  0
LINE
  5
209
100
AcDbEntity
  8
Red 2
  6
ByLayer
 62
  256
370
   -1
100
AcDbLine
 10
-5.89979077662926
 20
-167.5056092233707
 11
-5.89979077662926
 21
-167.7096092233707
  0
LINE
  5
20A
100
AcDbEntity
  8
Red 2
  6
ByLayer
 62
  256
370
   -1
100
AcDbLine
 10
-5.89979077662926
 20
-167.7096092233707
 11
-5.950590776629262
 21
-167.9376092233707
  0
LINE
  5
20B
100
AcDbEntity
  8
Red 2
  6
ByLayer
 62
  256
370
   -1
100
AcDbLine
 10
-5.950590776629262
 20
-167.9376092233707
 11
-6.026790776629262
 21
-168.0646092233707
  0
LINE
  5
20C
100
AcDbEntity
  8
Red 2
  6
ByLayer
 62
  256
370
   -1
100
AcDbLine
 10
-6.026790776629262
 20
-168.0646092233707
 11
-6.12839077662926
 21
-168.1916092233707
  0
LINE
  5
20D
100
AcDbEntity
  8
Red 2
  6
ByLayer
 62
  256
370
   -1
100
AcDbLine
 10
-6.12839077662926
 20
-168.1916092233707
 11
-6.331590776629263
 21
-168.2676092233707
  0
LINE
  5
20E
100
AcDbEntity
  8
Red 2
  6
ByLayer
 62
  256
370
   -1
100
AcDbLine
 10
-6.331590776629263
 20
-168.2676092233707
 11
-6.636390776629263
 21
-168.2676092233707
  0
LINE
  5
20F
100
AcDbEntity
  8
Red 2
  6
ByLayer
 62
  256
370
   -1
100
AcDbLine
 10
-6.58559077662926
 20
-217.5946092233707
 11
-6.153790776629261
 21
-217.5946092233707
  0
LINE
  5
210
100
AcDbEntity
  8
Red 2
  6
ByLayer
 62
  256
370
   -1
100
AcDbLine
 10
-5.97599077662926
 20
-218.2806092233707
 11
-6.58559077662926
 21
-218.2806092233707
  0
LINE
  5
211
100
AcDbEntity
  8
Red 2
  6
ByLayer
 62
  256
370
   -1
100
AcDbLine
 10
-6.58559077662926
 20
-218.2806092233707
 11
-6.58559077662926
 21
-216.9856092233707
  0
LINE
  5
212
100
AcDbEntity
  8
Red 2
  6
ByLayer
 62
  256
370
   -1
100
AcDbLine
 10
-6.58559077662926
 20
-216.9856092233707
 11
-5.97599077662926
 21
-216.9856092233707
  0
LINE
  5
213
100
AcDbEntity
  8
Red 2
  6
ByLayer
 62
  256
370
   -1
100
AcDbLine
 10
-6.12839077662926
 20
-267.5816092233708
 11
-6.560190776629263
 21
-267.5816092233708
  0
LINE
  5
214
100
AcDbEntity
  8
Red 2
  6
ByLayer
 62
  256
370
   -1
100
AcDbLine
 10
-6.560190776629263
 20
-268.2676092233708
 11
-6.560190776629263
 21
-266.9726092233707
  0
LINE
  5
215
100
AcDbEntity
  8
Red 2
  6
ByLayer
 62
  256
370
   -1
100
AcDbLine
 10
-6.560190776629263
 20
-266.9726092233707
 11
-5.950590776629262
 21
-266.9726092233707
  0
LINE
  5
216
100
AcDbEntity
  8
Red 2
  6
ByLayer
 62
  256
370
   -1
100
AcDbLine
 10
392.6766092233707
 20
-42.69040922337074
 11
390.6956092233708
 21
-42.69040922337074
  0
LINE
  5
217
100
AcDbEntity
  8
Red 2
  6
ByLayer
 62
  256
370
   -1
100
AcDbLine
 10
392.6766092233707
 20
-92.70260922337074
 11
390.6956092233708
 21
-92.70260922337074
  0
LINE
  5
218
100
AcDbEntity
  8
Red 2
  6
ByLayer
 62
  256
370
   -1
100
AcDbLine
 10
392.6766092233707
 20
-142.6906092233707
 11
390.6956092233708
 21
-142.6906092233707
  0
LINE
  5
219
100
AcDbEntity
  8
Red 2
  6
ByLayer
 62
  256
370
   -1
100
AcDbLine
 10
392.6766092233707
 20
-192.7026092233707
 11
390.6956092233708
 21
-192.7026092233707
  0
LINE
  5
21A
100
AcDbEntity
  8
Red 2
  6
ByLayer
 62
  256
370
   -1
100
AcDbLine
 10
392.6766092233707
 20
-242.6896092233708
 11
390.6956092233708
 21
-242.6896092233708
  0
LINE
  5
21B
100
AcDbEntity
  8
Red 2
  6
ByLayer
 62
  256
370
   -1
100
AcDbLine
 10
391.3816092233707
 20
-17.90000922337074
 11
391.9916092233707
 21
-17.90000922337074
  0
LINE
  5
21C
100
AcDbEntity
  8
Red 2
  6
ByLayer
 62
  256
370
   -1
100
AcDbLine
 10
391.2546092233708
 20
-18.28100922337074
 11
391.6866092233707
 21
-16.98560922337074
  0
LINE
  5
21D
100
AcDbEntity
  8
Red 2
  6
ByLayer
 62
  256
370
   -1
100
AcDbLine
 10
391.6866092233707
 20
-16.98560922337074
 11
392.1186092233708
 21
-18.28100922337074
  0
LINE
  5
21E
100
AcDbEntity
  8
Red 2
  6
ByLayer
 62
  256
370
   -1
100
AcDbLine
 10
391.7876092233707
 20
-67.58240922337073
 11
391.9656092233707
 21
-67.63320922337074
  0
LINE
  5
21F
100
AcDbEntity
  8
Red 2
  6
ByLayer
 62
  256
370
   -1
100
AcDbLine
 10
391.9656092233707
 20
-67.63320922337074
 11
392.0416092233708
 21
-67.70940922337074
  0
LINE
  5
220
100
AcDbEntity
  8
Red 2
  6
ByLayer
 62
  256
370
   -1
100
AcDbLine
 10
392.0416092233708
 20
-67.70940922337074
 11
392.0926092233707
 21
-67.83640922337074
  0
LINE
  5
221
100
AcDbEntity
  8
Red 2
  6
ByLayer
 62
  256
370
   -1
100
AcDbLine
 10
392.0926092233707
 20
-67.83640922337074
 11
392.0926092233707
 21
-68.01420922337074
  0
LINE
  5
222
100
AcDbEntity
  8
Red 2
  6
ByLayer
 62
  256
370
   -1
100
AcDbLine
 10
392.0926092233707
 20
-68.01420922337074
 11
392.0416092233708
 21
-68.14120922337074
  0
LINE
  5
223
100
AcDbEntity
  8
Red 2
  6
ByLayer
 62
  256
370
   -1
100
AcDbLine
 10
392.0416092233708
 20
-68.14120922337074
 11
391.9656092233707
 21
-68.19200922337073
  0
LINE
  5
224
100
AcDbEntity
  8
Red 2
  6
ByLayer
 62
  256
370
   -1
100
AcDbLine
 10
391.9656092233707
 20
-68.19200922337073
 11
391.8646092233707
 21
-68.26820922337073
  0
LINE
  5
225
100
AcDbEntity
  8
Red 2
  6
ByLayer
 62
  256
370
   -1
100
AcDbLine
 10
391.8646092233707
 20
-68.26820922337073
 11
391.3566092233708
 21
-68.26820922337073
  0
LINE
  5
226
100
AcDbEntity
  8
Red 2
  6
ByLayer
 62
  256
370
   -1
100
AcDbLine
 10
391.3566092233708
 20
-68.26820922337073
 11
391.3566092233708
 21
-66.97280922337073
  0
LINE
  5
227
100
AcDbEntity
  8
Red 2
  6
ByLayer
 62
  256
370
   -1
100
AcDbLine
 10
391.3566092233708
 20
-66.97280922337073
 11
391.7876092233707
 21
-66.97280922337073
  0
LINE
  5
228
100
AcDbEntity
  8
Red 2
  6
ByLayer
 62
  256
370
   -1
100
AcDbLine
 10
391.7876092233707
 20
-66.97280922337073
 11
391.9146092233707
 21
-67.02360922337074
  0
LINE
  5
229
100
AcDbEntity
  8
Red 2
  6
ByLayer
 62
  256
370
   -1
100
AcDbLine
 10
391.9146092233707
 20
-67.02360922337074
 11
391.9656092233707
 21
-67.07440922337074
  0
LINE
  5
22A
100
AcDbEntity
  8
Red 2
  6
ByLayer
 62
  256
370
   -1
100
AcDbLine
 10
391.9656092233707
 20
-67.07440922337074
 11
392.0416092233708
 21
-67.20140922337073
  0
LINE
  5
22B
100
AcDbEntity
  8
Red 2
  6
ByLayer
 62
  256
370
   -1
100
AcDbLine
 10
392.0416092233708
 20
-67.20140922337073
 11
392.0416092233708
 21
-67.32840922337074
  0
LINE
  5
22C
100
AcDbEntity
  8
Red 2
  6
ByLayer
 62
  256
370
   -1
100
AcDbLine
 10
392.0416092233708
 20
-67.32840922337074
 11
391.9656092233707
 21
-67.45540922337074
  0
LINE
  5
22D
100
AcDbEntity
  8
Red 2
  6
ByLayer
 62
  256
370
   -1
100
AcDbLine
 10
391.9656092233707
 20
-67.45540922337074
 11
391.9146092233707
 21
-67.50620922337073
  0
LINE
  5
22E
100
AcDbEntity
  8
Red 2
  6
ByLayer
 62
  256
370
   -1
100
AcDbLine
 10
391.9146092233707
 20
-67.50620922337073
 11
391.7876092233707
 21
-67.58240922337073
  0
LINE
  5
22F
100
AcDbEntity
  8
Red 2
  6
ByLayer
 62
  256
370
   -1
100
AcDbLine
 10
391.7876092233707
 20
-67.58240922337073
 11
391.3566092233708
 21
-67.58240922337073
  0
LINE
  5
230
100
AcDbEntity
  8
Red 2
  6
ByLayer
 62
  256
370
   -1
100
AcDbLine
 10
392.0926092233707
 20
-118.1536092233707
 11
392.0416092233708
 21
-118.2046092233707
  0
LINE
  5
231
100
AcDbEntity
  8
Red 2
  6
ByLayer
 62
  256
370
   -1
100
AcDbLine
 10
392.0416092233708
 20
-118.2046092233707
 11
391.8646092233707
 21
-118.2806092233707
  0
LINE
  5
232
100
AcDbEntity
  8
Red 2
  6
ByLayer
 62
  256
370
   -1
100
AcDbLine
 10
391.8646092233707
 20
-118.2806092233707
 11
391.7376092233707
 21
-118.2806092233707
  0
LINE
  5
233
100
AcDbEntity
  8
Red 2
  6
ByLayer
 62
  256
370
   -1
100
AcDbLine
 10
391.7376092233707
 20
-118.2806092233707
 11
391.5336092233708
 21
-118.2046092233707
  0
LINE
  5
234
100
AcDbEntity
  8
Red 2
  6
ByLayer
 62
  256
370
   -1
100
AcDbLine
 10
391.5336092233708
 20
-118.2046092233707
 11
391.4326092233708
 21
-118.0776092233707
  0
LINE
  5
235
100
AcDbEntity
  8
Red 2
  6
ByLayer
 62
  256
370
   -1
100
AcDbLine
 10
391.4326092233708
 20
-118.0776092233707
 11
391.3566092233708
 21
-117.9506092233707
  0
LINE
  5
236
100
AcDbEntity
  8
Red 2
  6
ByLayer
 62
  256
370
   -1
100
AcDbLine
 10
391.3566092233708
 20
-117.9506092233707
 11
391.3056092233708
 21
-117.7216092233707
  0
LINE
  5
237
100
AcDbEntity
  8
Red 2
  6
ByLayer
 62
  256
370
   -1
100
AcDbLine
 10
391.3056092233708
 20
-117.7216092233707
 11
391.3056092233708
 21
-117.5186092233707
  0
LINE
  5
238
100
AcDbEntity
  8
Red 2
  6
ByLayer
 62
  256
370
   -1
100
AcDbLine
 10
391.3056092233708
 20
-117.5186092233707
 11
391.3566092233708
 21
-117.2906092233707
  0
LINE
  5
239
100
AcDbEntity
  8
Red 2
  6
ByLayer
 62
  256
370
   -1
100
AcDbLine
 10
391.3566092233708
 20
-117.2906092233707
 11
391.4326092233708
 21
-117.1636092233707
  0
LINE
  5
23A
100
AcDbEntity
  8
Red 2
  6
ByLayer
 62
  256
370
   -1
100
AcDbLine
 10
391.4326092233708
 20
-117.1636092233707
 11
391.5336092233708
 21
-117.0366092233707
  0
LINE
  5
23B
100
AcDbEntity
  8
Red 2
  6
ByLayer
 62
  256
370
   -1
100
AcDbLine
 10
391.5336092233708
 20
-117.0366092233707
 11
391.7376092233707
 21
-116.9856092233707
  0
LINE
  5
23C
100
AcDbEntity
  8
Red 2
  6
ByLayer
 62
  256
370
   -1
100
AcDbLine
 10
391.7376092233707
 20
-116.9856092233707
 11
391.8646092233707
 21
-116.9856092233707
  0
LINE
  5
23D
100
AcDbEntity
  8
Red 2
  6
ByLayer
 62
  256
370
   -1
100
AcDbLine
 10
391.8646092233707
 20
-116.9856092233707
 11
392.0416092233708
 21
-117.0366092233707
  0
LINE
  5
23E
100
AcDbEntity
  8
Red 2
  6
ByLayer
 62
  256
370
   -1
100
AcDbLine
 10
392.0416092233708
 20
-117.0366092233707
 11
392.0926092233707
 21
-117.0866092233707
  0
LINE
  5
23F
100
AcDbEntity
  8
Red 2
  6
ByLayer
 62
  256
370
   -1
100
AcDbLine
 10
391.3566092233708
 20
-168.2676092233707
 11
391.3566092233708
 21
-166.9726092233707
  0
LINE
  5
240
100
AcDbEntity
  8
Red 2
  6
ByLayer
 62
  256
370
   -1
100
AcDbLine
 10
391.3566092233708
 20
-166.9726092233707
 11
391.6606092233707
 21
-166.9726092233707
  0
LINE
  5
241
100
AcDbEntity
  8
Red 2
  6
ByLayer
 62
  256
370
   -1
100
AcDbLine
 10
391.6606092233707
 20
-166.9726092233707
 11
391.8646092233707
 21
-167.0236092233707
  0
LINE
  5
242
100
AcDbEntity
  8
Red 2
  6
ByLayer
 62
  256
370
   -1
100
AcDbLine
 10
391.8646092233707
 20
-167.0236092233707
 11
391.9656092233707
 21
-167.1506092233707
  0
LINE
  5
243
100
AcDbEntity
  8
Red 2
  6
ByLayer
 62
  256
370
   -1
100
AcDbLine
 10
391.9656092233707
 20
-167.1506092233707
 11
392.0416092233708
 21
-167.2776092233707
  0
LINE
  5
244
100
AcDbEntity
  8
Red 2
  6
ByLayer
 62
  256
370
   -1
100
AcDbLine
 10
392.0416092233708
 20
-167.2776092233707
 11
392.0926092233707
 21
-167.5056092233707
  0
LINE
  5
245
100
AcDbEntity
  8
Red 2
  6
ByLayer
 62
  256
370
   -1
100
AcDbLine
 10
392.0926092233707
 20
-167.5056092233707
 11
392.0926092233707
 21
-167.7096092233707
  0
LINE
  5
246
100
AcDbEntity
  8
Red 2
  6
ByLayer
 62
  256
370
   -1
100
AcDbLine
 10
392.0926092233707
 20
-167.7096092233707
 11
392.0416092233708
 21
-167.9376092233707
  0
LINE
  5
247
100
AcDbEntity
  8
Red 2
  6
ByLayer
 62
  256
370
   -1
100
AcDbLine
 10
392.0416092233708
 20
-167.9376092233707
 11
391.9656092233707
 21
-168.0646092233707
  0
LINE
  5
248
100
AcDbEntity
  8
Red 2
  6
ByLayer
 62
  256
370
   -1
100
AcDbLine
 10
391.9656092233707
 20
-168.0646092233707
 11
391.8646092233707
 21
-168.1916092233707
  0
LINE
  5
249
100
AcDbEntity
  8
Red 2
  6
ByLayer
 62
  256
370
   -1
100
AcDbLine
 10
391.8646092233707
 20
-168.1916092233707
 11
391.6606092233707
 21
-168.2676092233707
  0
LINE
  5
24A
100
AcDbEntity
  8
Red 2
  6
ByLayer
 62
  256
370
   -1
100
AcDbLine
 10
391.6606092233707
 20
-168.2676092233707
 11
391.3566092233708
 21
-168.2676092233707
  0
LINE
  5
24B
100
AcDbEntity
  8
Red 2
  6
ByLayer
 62
  256
370
   -1
100
AcDbLine
 10
391.4066092233708
 20
-217.5946092233707
 11
391.8386092233707
 21
-217.5946092233707
  0
LINE
  5
24C
100
AcDbEntity
  8
Red 2
  6
ByLayer
 62
  256
370
   -1
100
AcDbLine
 10
392.0166092233708
 20
-218.2806092233707
 11
391.4066092233708
 21
-218.2806092233707
  0
LINE
  5
24D
100
AcDbEntity
  8
Red 2
  6
ByLayer
 62
  256
370
   -1
100
AcDbLine
 10
391.4066092233708
 20
-218.2806092233707
 11
391.4066092233708
 21
-216.9856092233707
  0
LINE
  5
24E
100
AcDbEntity
  8
Red 2
  6
ByLayer
 62
  256
370
   -1
100
AcDbLine
 10
391.4066092233708
 20
-216.9856092233707
 11
392.0166092233708
 21
-216.9856092233707
  0
LINE
  5
24F
100
AcDbEntity
  8
Red 2
  6
ByLayer
 62
  256
370
   -1
100
AcDbLine
 10
391.8646092233707
 20
-267.5816092233708
 11
391.4326092233708
 21
-267.5816092233708
  0
LINE
  5
250
100
AcDbEntity
  8
Red 2
  6
ByLayer
 62
  256
370
   -1
100
AcDbLine
 10
391.4326092233708
 20
-268.2676092233708
 11
391.4326092233708
 21
-266.9726092233707
  0
LINE
  5
251
100
AcDbEntity
  8
Red 2
  6
ByLayer
 62
  256
370
   -1
100
AcDbLine
 10
391.4326092233708
 20
-266.9726092233707
 11
392.0416092233708
 21
-266.9726092233707
  0
LINE
  5
252
100
AcDbEntity
  8
Red 2
  6
ByLayer
 62
  256
370
   -1
100
AcDbLine
 10
306.0376092233707
 20
-263.4676092233707
 11
306.0376092233707
 21
-261.9686092233708
  0
LINE
  5
253
100
AcDbEntity
  8
Red 2
  6
ByLayer
 62
  256
370
   -1
100
AcDbLine
 10
306.0376092233707
 20
-261.9686092233708
 11
306.3936092233707
 21
-261.9686092233708
  0
LINE
  5
254
100
AcDbEntity
  8
Red 2
  6
ByLayer
 62
  256
370
   -1
100
AcDbLine
 10
306.3936092233707
 20
-261.9686092233708
 11
306.6216092233707
 21
-262.0446092233707
  0
LINE
  5
255
100
AcDbEntity
  8
Red 2
  6
ByLayer
 62
  256
370
   -1
100
AcDbLine
 10
306.6216092233707
 20
-262.0446092233707
 11
306.7486092233707
 21
-262.1976092233708
  0
LINE
  5
256
100
AcDbEntity
  8
Red 2
  6
ByLayer
 62
  256
370
   -1
100
AcDbLine
 10
306.7486092233707
 20
-262.1976092233708
 11
306.8246092233708
 21
-262.3246092233708
  0
LINE
  5
257
100
AcDbEntity
  8
Red 2
  6
ByLayer
 62
  256
370
   -1
100
AcDbLine
 10
306.8246092233708
 20
-262.3246092233708
 11
306.9016092233708
 21
-262.6036092233708
  0
LINE
  5
258
100
AcDbEntity
  8
Red 2
  6
ByLayer
 62
  256
370
   -1
100
AcDbLine
 10
306.9016092233708
 20
-262.6036092233708
 11
306.9016092233708
 21
-262.8326092233708
  0
LINE
  5
259
100
AcDbEntity
  8
Red 2
  6
ByLayer
 62
  256
370
   -1
100
AcDbLine
 10
306.9016092233708
 20
-262.8326092233708
 11
306.8246092233708
 21
-263.1116092233707
  0
LINE
  5
25A
100
AcDbEntity
  8
Red 2
  6
ByLayer
 62
  256
370
   -1
100
AcDbLine
 10
306.8246092233708
 20
-263.1116092233707
 11
306.7486092233707
 21
-263.2636092233707
  0
LINE
  5
25B
100
AcDbEntity
  8
Red 2
  6
ByLayer
 62
  256
370
   -1
100
AcDbLine
 10
306.7486092233707
 20
-263.2636092233707
 11
306.6216092233707
 21
-263.3906092233707
  0
LINE
  5
25C
100
AcDbEntity
  8
Red 2
  6
ByLayer
 62
  256
370
   -1
100
AcDbLine
 10
306.6216092233707
 20
-263.3906092233707
 11
306.3936092233707
 21
-263.4676092233707
  0
LINE
  5
25D
100
AcDbEntity
  8
Red 2
  6
ByLayer
 62
  256
370
   -1
100
AcDbLine
 10
306.3936092233707
 20
-263.4676092233707
 11
306.0376092233707
 21
-263.4676092233707
  0
LINE
  5
25E
100
AcDbEntity
  8
Red 2
  6
ByLayer
 62
  256
370
   -1
100
AcDbLine
 10
308.1716092233708
 20
-263.4676092233707
 11
308.1716092233708
 21
-262.6796092233707
  0
LINE
  5
25F
100
AcDbEntity
  8
Red 2
  6
ByLayer
 62
  256
370
   -1
100
AcDbLine
 10
308.1716092233708
 20
-262.6796092233707
 11
308.1206092233708
 21
-262.5526092233708
  0
LINE
  5
260
100
AcDbEntity
  8
Red 2
  6
ByLayer
 62
  256
370
   -1
100
AcDbLine
 10
308.1206092233708
 20
-262.5526092233708
 11
307.9676092233707
 21
-262.4766092233708
  0
LINE
  5
261
100
AcDbEntity
  8
Red 2
  6
ByLayer
 62
  256
370
   -1
100
AcDbLine
 10
307.9676092233707
 20
-262.4766092233708
 11
307.6886092233707
 21
-262.4766092233708
  0
LINE
  5
262
100
AcDbEntity
  8
Red 2
  6
ByLayer
 62
  256
370
   -1
100
AcDbLine
 10
307.6886092233707
 20
-262.4766092233708
 11
307.5366092233708
 21
-262.5526092233708
  0
LINE
  5
263
100
AcDbEntity
  8
Red 2
  6
ByLayer
 62
  256
370
   -1
100
AcDbLine
 10
308.1716092233708
 20
-263.3906092233707
 11
308.0446092233707
 21
-263.4676092233707
  0
LINE
  5
264
100
AcDbEntity
  8
Red 2
  6
ByLayer
 62
  256
370
   -1
100
AcDbLine
 10
308.0446092233707
 20
-263.4676092233707
 11
307.6886092233707
 21
-263.4676092233707
  0
LINE
  5
265
100
AcDbEntity
  8
Red 2
  6
ByLayer
 62
  256
370
   -1
100
AcDbLine
 10
307.6886092233707
 20
-263.4676092233707
 11
307.5366092233708
 21
-263.3906092233707
  0
LINE
  5
266
100
AcDbEntity
  8
Red 2
  6
ByLayer
 62
  256
370
   -1
100
AcDbLine
 10
307.5366092233708
 20
-263.3906092233707
 11
307.4596092233708
 21
-263.2636092233707
  0
LINE
  5
267
100
AcDbEntity
  8
Red 2
  6
ByLayer
 62
  256
370
   -1
100
AcDbLine
 10
307.4596092233708
 20
-263.2636092233707
 11
307.4596092233708
 21
-263.1116092233707
  0
LINE
  5
268
100
AcDbEntity
  8
Red 2
  6
ByLayer
 62
  256
370
   -1
100
AcDbLine
 10
307.4596092233708
 20
-263.1116092233707
 11
307.5366092233708
 21
-262.9846092233707
  0
LINE
  5
269
100
AcDbEntity
  8
Red 2
  6
ByLayer
 62
  256
370
   -1
100
AcDbLine
 10
307.5366092233708
 20
-262.9846092233707
 11
307.6886092233707
 21
-262.9086092233708
  0
LINE
  5
26A
100
AcDbEntity
  8
Red 2
  6
ByLayer
 62
  256
370
   -1
100
AcDbLine
 10
307.6886092233707
 20
-262.9086092233708
 11
308.0446092233707
 21
-262.9086092233708
  0
LINE
  5
26B
100
AcDbEntity
  8
Red 2
  6
ByLayer
 62
  256
370
   -1
100
AcDbLine
 10
308.0446092233707
 20
-262.9086092233708
 11
308.1716092233708
 21
-262.8326092233708
  0
LINE
  5
26C
100
AcDbEntity
  8
Red 2
  6
ByLayer
 62
  256
370
   -1
100
AcDbLine
 10
308.6796092233707
 20
-262.4766092233708
 11
309.2376092233707
 21
-262.4766092233708
  0
LINE
  5
26D
100
AcDbEntity
  8
Red 2
  6
ByLayer
 62
  256
370
   -1
100
AcDbLine
 10
308.8826092233708
 20
-261.9686092233708
 11
308.8826092233708
 21
-263.2636092233707
  0
LINE
  5
26E
100
AcDbEntity
  8
Red 2
  6
ByLayer
 62
  256
370
   -1
100
AcDbLine
 10
308.8826092233708
 20
-263.2636092233707
 11
308.9586092233707
 21
-263.3906092233707
  0
LINE
  5
26F
100
AcDbEntity
  8
Red 2
  6
ByLayer
 62
  256
370
   -1
100
AcDbLine
 10
308.9586092233707
 20
-263.3906092233707
 11
309.0856092233707
 21
-263.4676092233707
  0
LINE
  5
270
100
AcDbEntity
  8
Red 2
  6
ByLayer
 62
  256
370
   -1
100
AcDbLine
 10
309.0856092233707
 20
-263.4676092233707
 11
309.2376092233707
 21
-263.4676092233707
  0
LINE
  5
271
100
AcDbEntity
  8
Red 2
  6
ByLayer
 62
  256
370
   -1
100
AcDbLine
 10
310.3306092233707
 20
-263.3906092233707
 11
310.1776092233708
 21
-263.4676092233707
  0
LINE
  5
272
100
AcDbEntity
  8
Red 2
  6
ByLayer
 62
  256
370
   -1
100
AcDbLine
 10
310.1776092233708
 20
-263.4676092233707
 11
309.8986092233707
 21
-263.4676092233707
  0
LINE
  5
273
100
AcDbEntity
  8
Red 2
  6
ByLayer
 62
  256
370
   -1
100
AcDbLine
 10
309.8986092233707
 20
-263.4676092233707
 11
309.7456092233708
 21
-263.3906092233707
  0
LINE
  5
274
100
AcDbEntity
  8
Red 2
  6
ByLayer
 62
  256
370
   -1
100
AcDbLine
 10
309.7456092233708
 20
-263.3906092233707
 11
309.6696092233707
 21
-263.2636092233707
  0
LINE
  5
275
100
AcDbEntity
  8
Red 2
  6
ByLayer
 62
  256
370
   -1
100
AcDbLine
 10
309.6696092233707
 20
-263.2636092233707
 11
309.6696092233707
 21
-262.6796092233707
  0
LINE
  5
276
100
AcDbEntity
  8
Red 2
  6
ByLayer
 62
  256
370
   -1
100
AcDbLine
 10
309.6696092233707
 20
-262.6796092233707
 11
309.7456092233708
 21
-262.5526092233708
  0
LINE
  5
277
100
AcDbEntity
  8
Red 2
  6
ByLayer
 62
  256
370
   -1
100
AcDbLine
 10
309.7456092233708
 20
-262.5526092233708
 11
309.8986092233707
 21
-262.4766092233708
  0
LINE
  5
278
100
AcDbEntity
  8
Red 2
  6
ByLayer
 62
  256
370
   -1
100
AcDbLine
 10
309.8986092233707
 20
-262.4766092233708
 11
310.1776092233708
 21
-262.4766092233708
  0
LINE
  5
279
100
AcDbEntity
  8
Red 2
  6
ByLayer
 62
  256
370
   -1
100
AcDbLine
 10
310.1776092233708
 20
-262.4766092233708
 11
310.3306092233707
 21
-262.5526092233708
  0
LINE
  5
27A
100
AcDbEntity
  8
Red 2
  6
ByLayer
 62
  256
370
   -1
100
AcDbLine
 10
310.3306092233707
 20
-262.5526092233708
 11
310.3806092233708
 21
-262.6796092233707
  0
LINE
  5
27B
100
AcDbEntity
  8
Red 2
  6
ByLayer
 62
  256
370
   -1
100
AcDbLine
 10
310.3806092233708
 20
-262.6796092233707
 11
310.3806092233708
 21
-262.8326092233708
  0
LINE
  5
27C
100
AcDbEntity
  8
Red 2
  6
ByLayer
 62
  256
370
   -1
100
AcDbLine
 10
310.3806092233708
 20
-262.8326092233708
 11
309.6696092233707
 21
-262.9846092233707
  0
LINE
  5
27D
100
AcDbEntity
  8
Red 2
  6
ByLayer
 62
  256
370
   -1
100
AcDbLine
 10
311.0416092233708
 20
-263.3406092233707
 11
311.1176092233708
 21
-263.3906092233707
  0
LINE
  5
27E
100
AcDbEntity
  8
Red 2
  6
ByLayer
 62
  256
370
   -1
100
AcDbLine
 10
311.1176092233708
 20
-263.3906092233707
 11
311.0416092233708
 21
-263.4676092233707
  0
LINE
  5
27F
100
AcDbEntity
  8
Red 2
  6
ByLayer
 62
  256
370
   -1
100
AcDbLine
 10
311.0416092233708
 20
-263.4676092233707
 11
310.9656092233707
 21
-263.3906092233707
  0
LINE
  5
280
100
AcDbEntity
  8
Red 2
  6
ByLayer
 62
  256
370
   -1
100
AcDbLine
 10
310.9656092233707
 20
-263.3906092233707
 11
311.0416092233708
 21
-263.3406092233707
  0
LINE
  5
281
100
AcDbEntity
  8
Red 2
  6
ByLayer
 62
  256
370
   -1
100
AcDbLine
 10
311.0416092233708
 20
-263.3406092233707
 11
311.0416092233708
 21
-263.4676092233707
  0
LINE
  5
282
100
AcDbEntity
  8
Red 2
  6
ByLayer
 62
  256
370
   -1
100
AcDbLine
 10
311.0416092233708
 20
-262.5526092233708
 11
311.1176092233708
 21
-262.6036092233708
  0
LINE
  5
283
100
AcDbEntity
  8
Red 2
  6
ByLayer
 62
  256
370
   -1
100
AcDbLine
 10
311.1176092233708
 20
-262.6036092233708
 11
311.0416092233708
 21
-262.6796092233707
  0
LINE
  5
284
100
AcDbEntity
  8
Red 2
  6
ByLayer
 62
  256
370
   -1
100
AcDbLine
 10
311.0416092233708
 20
-262.6796092233707
 11
310.9656092233707
 21
-262.6036092233708
  0
LINE
  5
285
100
AcDbEntity
  8
Red 2
  6
ByLayer
 62
  256
370
   -1
100
AcDbLine
 10
310.9656092233707
 20
-262.6036092233708
 11
311.0416092233708
 21
-262.5526092233708
  0
LINE
  5
286
100
AcDbEntity
  8
Red 2
  6
ByLayer
 62
  256
370
   -1
100
AcDbLine
 10
311.0416092233708
 20
-262.5526092233708
 11
311.0416092233708
 21
-262.6796092233707
  0
LINE
  5
287
100
AcDbEntity
  8
Red 2
  6
ByLayer
 62
  256
370
   -1
100
AcDbLine
 10
282.6946092233708
 20
-264.2036092233707
 11
390.6956092233708
 21
-264.2036092233707
  0
LINE
  5
288
100
AcDbEntity
  8
Red 2
  6
ByLayer
 62
  256
370
   -1
100
AcDbLine
 10
282.6946092233708
 20
-261.2066092233708
 11
390.6956092233708
 21
-261.2066092233708
  0
LINE
  5
289
100
AcDbEntity
  8
Red 2
  6
ByLayer
 62
  256
370
   -1
100
AcDbLine
 10
369.8936092233707
 20
-263.4676092233707
 11
369.3856092233707
 21
-262.7556092233708
  0
LINE
  5
28A
100
AcDbEntity
  8
Red 2
  6
ByLayer
 62
  256
370
   -1
100
AcDbLine
 10
369.0296092233708
 20
-263.4676092233707
 11
369.0296092233708
 21
-261.9686092233708
  0
LINE
  5
28B
100
AcDbEntity
  8
Red 2
  6
ByLayer
 62
  256
370
   -1
100
AcDbLine
 10
369.0296092233708
 20
-261.9686092233708
 11
369.6136092233708
 21
-261.9686092233708
  0
LINE
  5
28C
100
AcDbEntity
  8
Red 2
  6
ByLayer
 62
  256
370
   -1
100
AcDbLine
 10
369.6136092233708
 20
-261.9686092233708
 11
369.7406092233708
 21
-262.0446092233707
  0
LINE
  5
28D
100
AcDbEntity
  8
Red 2
  6
ByLayer
 62
  256
370
   -1
100
AcDbLine
 10
369.7406092233708
 20
-262.0446092233707
 11
369.8166092233707
 21
-262.1206092233708
  0
LINE
  5
28E
100
AcDbEntity
  8
Red 2
  6
ByLayer
 62
  256
370
   -1
100
AcDbLine
 10
369.8166092233707
 20
-262.1206092233708
 11
369.8936092233707
 21
-262.2476092233708
  0
LINE
  5
28F
100
AcDbEntity
  8
Red 2
  6
ByLayer
 62
  256
370
   -1
100
AcDbLine
 10
369.8936092233707
 20
-262.2476092233708
 11
369.8936092233707
 21
-262.4766092233708
  0
LINE
  5
290
100
AcDbEntity
  8
Red 2
  6
ByLayer
 62
  256
370
   -1
100
AcDbLine
 10
369.8936092233707
 20
-262.4766092233708
 11
369.8166092233707
 21
-262.6036092233708
  0
LINE
  5
291
100
AcDbEntity
  8
Red 2
  6
ByLayer
 62
  256
370
   -1
100
AcDbLine
 10
369.8166092233707
 20
-262.6036092233708
 11
369.7406092233708
 21
-262.6796092233707
  0
LINE
  5
292
100
AcDbEntity
  8
Red 2
  6
ByLayer
 62
  256
370
   -1
100
AcDbLine
 10
369.7406092233708
 20
-262.6796092233707
 11
369.6136092233708
 21
-262.7556092233708
  0
LINE
  5
293
100
AcDbEntity
  8
Red 2
  6
ByLayer
 62
  256
370
   -1
100
AcDbLine
 10
369.6136092233708
 20
-262.7556092233708
 11
369.0296092233708
 21
-262.7556092233708
  0
LINE
  5
294
100
AcDbEntity
  8
Red 2
  6
ByLayer
 62
  256
370
   -1
100
AcDbLine
 10
371.1126092233707
 20
-263.3906092233707
 11
370.9596092233708
 21
-263.4676092233707
  0
LINE
  5
295
100
AcDbEntity
  8
Red 2
  6
ByLayer
 62
  256
370
   -1
100
AcDbLine
 10
370.9596092233708
 20
-263.4676092233707
 11
370.6806092233708
 21
-263.4676092233707
  0
LINE
  5
296
100
AcDbEntity
  8
Red 2
  6
ByLayer
 62
  256
370
   -1
100
AcDbLine
 10
370.6806092233708
 20
-263.4676092233707
 11
370.5286092233708
 21
-263.3906092233707
  0
LINE
  5
297
100
AcDbEntity
  8
Red 2
  6
ByLayer
 62
  256
370
   -1
100
AcDbLine
 10
370.5286092233708
 20
-263.3906092233707
 11
370.4516092233707
 21
-263.2636092233707
  0
LINE
  5
298
100
AcDbEntity
  8
Red 2
  6
ByLayer
 62
  256
370
   -1
100
AcDbLine
 10
370.4516092233707
 20
-263.2636092233707
 11
370.4516092233707
 21
-262.6796092233707
  0
LINE
  5
299
100
AcDbEntity
  8
Red 2
  6
ByLayer
 62
  256
370
   -1
100
AcDbLine
 10
370.4516092233707
 20
-262.6796092233707
 11
370.5286092233708
 21
-262.5526092233708
  0
LINE
  5
29A
100
AcDbEntity
  8
Red 2
  6
ByLayer
 62
  256
370
   -1
100
AcDbLine
 10
370.5286092233708
 20
-262.5526092233708
 11
370.6806092233708
 21
-262.4766092233708
  0
LINE
  5
29B
100
AcDbEntity
  8
Red 2
  6
ByLayer
 62
  256
370
   -1
100
AcDbLine
 10
370.6806092233708
 20
-262.4766092233708
 11
370.9596092233708
 21
-262.4766092233708
  0
LINE
  5
29C
100
AcDbEntity
  8
Red 2
  6
ByLayer
 62
  256
370
   -1
100
AcDbLine
 10
370.9596092233708
 20
-262.4766092233708
 11
371.1126092233707
 21
-262.5526092233708
  0
LINE
  5
29D
100
AcDbEntity
  8
Red 2
  6
ByLayer
 62
  256
370
   -1
100
AcDbLine
 10
371.1126092233707
 20
-262.5526092233708
 11
371.1636092233708
 21
-262.6796092233707
  0
LINE
  5
29E
100
AcDbEntity
  8
Red 2
  6
ByLayer
 62
  256
370
   -1
100
AcDbLine
 10
371.1636092233708
 20
-262.6796092233707
 11
371.1636092233708
 21
-262.8326092233708
  0
LINE
  5
29F
100
AcDbEntity
  8
Red 2
  6
ByLayer
 62
  256
370
   -1
100
AcDbLine
 10
371.1636092233708
 20
-262.8326092233708
 11
370.4516092233707
 21
-262.9846092233707
  0
LINE
  5
2A0
100
AcDbEntity
  8
Red 2
  6
ByLayer
 62
  256
370
   -1
100
AcDbLine
 10
371.6716092233708
 20
-262.4766092233708
 11
372.0266092233708
 21
-263.4676092233707
  0
LINE
  5
2A1
100
AcDbEntity
  8
Red 2
  6
ByLayer
 62
  256
370
   -1
100
AcDbLine
 10
372.0266092233708
 20
-263.4676092233707
 11
372.4076092233707
 21
-262.4766092233708
  0
LINE
  5
2A2
100
AcDbEntity
  8
Red 2
  6
ByLayer
 62
  256
370
   -1
100
AcDbLine
 10
372.9666092233708
 20
-263.3406092233707
 11
373.0426092233707
 21
-263.3906092233707
  0
LINE
  5
2A3
100
AcDbEntity
  8
Red 2
  6
ByLayer
 62
  256
370
   -1
100
AcDbLine
 10
373.0426092233707
 20
-263.3906092233707
 11
372.9666092233708
 21
-263.4676092233707
  0
LINE
  5
2A4
100
AcDbEntity
  8
Red 2
  6
ByLayer
 62
  256
370
   -1
100
AcDbLine
 10
372.9666092233708
 20
-263.4676092233707
 11
372.8906092233707
 21
-263.3906092233707
  0
LINE
  5
2A5
100
AcDbEntity
  8
Red 2
  6
ByLayer
 62
  256
370
   -1
100
AcDbLine
 10
372.8906092233707
 20
-263.3906092233707
 11
372.9666092233708
 21
-263.3406092233707
  0
LINE
  5
2A6
100
AcDbEntity
  8
Red 2
  6
ByLayer
 62
  256
370
   -1
100
AcDbLine
 10
372.9666092233708
 20
-263.3406092233707
 11
372.9666092233708
 21
-263.4676092233707
  0
LINE
  5
2A7
100
AcDbEntity
  8
Red 2
  6
ByLayer
 62
  256
370
   -1
100
AcDbLine
 10
372.9666092233708
 20
-262.5526092233708
 11
373.0426092233707
 21
-262.6036092233708
  0
LINE
  5
2A8
100
AcDbEntity
  8
Red 2
  6
ByLayer
 62
  256
370
   -1
100
AcDbLine
 10
373.0426092233707
 20
-262.6036092233708
 11
372.9666092233708
 21
-262.6796092233707
  0
LINE
  5
2A9
100
AcDbEntity
  8
Red 2
  6
ByLayer
 62
  256
370
   -1
100
AcDbLine
 10
372.9666092233708
 20
-262.6796092233707
 11
372.8906092233707
 21
-262.6036092233708
  0
LINE
  5
2AA
100
AcDbEntity
  8
Red 2
  6
ByLayer
 62
  256
370
   -1
100
AcDbLine
 10
372.8906092233707
 20
-262.6036092233708
 11
372.9666092233708
 21
-262.5526092233708
  0
LINE
  5
2AB
100
AcDbEntity
  8
Red 2
  6
ByLayer
 62
  256
370
   -1
100
AcDbLine
 10
372.9666092233708
 20
-262.5526092233708
 11
372.9666092233708
 21
-262.6796092233707
  0
LINE
  5
2AC
100
AcDbEntity
  8
Red 2
  6
ByLayer
 62
  256
370
   -1
100
AcDbLine
 10
283.9646092233708
 20
-263.3906092233707
 11
284.1936092233707
 21
-263.4676092233707
  0
LINE
  5
2AD
100
AcDbEntity
  8
Red 2
  6
ByLayer
 62
  256
370
   -1
100
AcDbLine
 10
284.1936092233707
 20
-263.4676092233707
 11
284.5496092233707
 21
-263.4676092233707
  0
LINE
  5
2AE
100
AcDbEntity
  8
Red 2
  6
ByLayer
 62
  256
370
   -1
100
AcDbLine
 10
284.5496092233707
 20
-263.4676092233707
 11
284.6766092233707
 21
-263.3906092233707
  0
LINE
  5
2AF
100
AcDbEntity
  8
Red 2
  6
ByLayer
 62
  256
370
   -1
100
AcDbLine
 10
284.6766092233707
 20
-263.3906092233707
 11
284.7526092233708
 21
-263.3406092233707
  0
LINE
  5
2B0
100
AcDbEntity
  8
Red 2
  6
ByLayer
 62
  256
370
   -1
100
AcDbLine
 10
284.7526092233708
 20
-263.3406092233707
 11
284.8286092233707
 21
-263.1876092233708
  0
LINE
  5
2B1
100
AcDbEntity
  8
Red 2
  6
ByLayer
 62
  256
370
   -1
100
AcDbLine
 10
284.8286092233707
 20
-263.1876092233708
 11
284.8286092233707
 21
-263.0356092233707
  0
LINE
  5
2B2
100
AcDbEntity
  8
Red 2
  6
ByLayer
 62
  256
370
   -1
100
AcDbLine
 10
284.8286092233707
 20
-263.0356092233707
 11
284.7526092233708
 21
-262.9086092233708
  0
LINE
  5
2B3
100
AcDbEntity
  8
Red 2
  6
ByLayer
 62
  256
370
   -1
100
AcDbLine
 10
284.7526092233708
 20
-262.9086092233708
 11
284.6766092233707
 21
-262.8326092233708
  0
LINE
  5
2B4
100
AcDbEntity
  8
Red 2
  6
ByLayer
 62
  256
370
   -1
100
AcDbLine
 10
284.6766092233707
 20
-262.8326092233708
 11
284.5496092233707
 21
-262.7556092233708
  0
LINE
  5
2B5
100
AcDbEntity
  8
Red 2
  6
ByLayer
 62
  256
370
   -1
100
AcDbLine
 10
284.5496092233707
 20
-262.7556092233708
 11
284.2446092233707
 21
-262.6796092233707
  0
LINE
  5
2B6
100
AcDbEntity
  8
Red 2
  6
ByLayer
 62
  256
370
   -1
100
AcDbLine
 10
284.2446092233707
 20
-262.6796092233707
 11
284.1176092233708
 21
-262.6036092233708
  0
LINE
  5
2B7
100
AcDbEntity
  8
Red 2
  6
ByLayer
 62
  256
370
   -1
100
AcDbLine
 10
284.1176092233708
 20
-262.6036092233708
 11
284.0416092233708
 21
-262.5526092233708
  0
LINE
  5
2B8
100
AcDbEntity
  8
Red 2
  6
ByLayer
 62
  256
370
   -1
100
AcDbLine
 10
284.0416092233708
 20
-262.5526092233708
 11
283.9646092233708
 21
-262.4006092233707
  0
LINE
  5
2B9
100
AcDbEntity
  8
Red 2
  6
ByLayer
 62
  256
370
   -1
100
AcDbLine
 10
283.9646092233708
 20
-262.4006092233707
 11
283.9646092233708
 21
-262.2476092233708
  0
LINE
  5
2BA
100
AcDbEntity
  8
Red 2
  6
ByLayer
 62
  256
370
   -1
100
AcDbLine
 10
283.9646092233708
 20
-262.2476092233708
 11
284.0416092233708
 21
-262.1206092233708
  0
LINE
  5
2BB
100
AcDbEntity
  8
Red 2
  6
ByLayer
 62
  256
370
   -1
100
AcDbLine
 10
284.0416092233708
 20
-262.1206092233708
 11
284.1176092233708
 21
-262.0446092233707
  0
LINE
  5
2BC
100
AcDbEntity
  8
Red 2
  6
ByLayer
 62
  256
370
   -1
100
AcDbLine
 10
284.1176092233708
 20
-262.0446092233707
 11
284.2446092233707
 21
-261.9686092233708
  0
LINE
  5
2BD
100
AcDbEntity
  8
Red 2
  6
ByLayer
 62
  256
370
   -1
100
AcDbLine
 10
284.2446092233707
 20
-261.9686092233708
 11
284.6256092233708
 21
-261.9686092233708
  0
LINE
  5
2BE
100
AcDbEntity
  8
Red 2
  6
ByLayer
 62
  256
370
   -1
100
AcDbLine
 10
284.6256092233708
 20
-261.9686092233708
 11
284.8286092233707
 21
-262.0446092233707
  0
LINE
  5
2BF
100
AcDbEntity
  8
Red 2
  6
ByLayer
 62
  256
370
   -1
100
AcDbLine
 10
285.4636092233707
 20
-263.4676092233707
 11
285.4636092233707
 21
-262.4766092233708
  0
LINE
  5
2C0
100
AcDbEntity
  8
Red 2
  6
ByLayer
 62
  256
370
   -1
100
AcDbLine
 10
285.4636092233707
 20
-261.9686092233708
 11
285.3876092233708
 21
-262.0446092233707
  0
LINE
  5
2C1
100
AcDbEntity
  8
Red 2
  6
ByLayer
 62
  256
370
   -1
100
AcDbLine
 10
285.3876092233708
 20
-262.0446092233707
 11
285.4636092233707
 21
-262.1206092233708
  0
LINE
  5
2C2
100
AcDbEntity
  8
Red 2
  6
ByLayer
 62
  256
370
   -1
100
AcDbLine
 10
285.4636092233707
 20
-262.1206092233708
 11
285.5396092233707
 21
-262.0446092233707
  0
LINE
  5
2C3
100
AcDbEntity
  8
Red 2
  6
ByLayer
 62
  256
370
   -1
100
AcDbLine
 10
285.5396092233707
 20
-262.0446092233707
 11
285.4636092233707
 21
-261.9686092233708
  0
LINE
  5
2C4
100
AcDbEntity
  8
Red 2
  6
ByLayer
 62
  256
370
   -1
100
AcDbLine
 10
285.4636092233707
 20
-261.9686092233708
 11
285.4636092233707
 21
-262.1206092233708
  0
LINE
  5
2C5
100
AcDbEntity
  8
Red 2
  6
ByLayer
 62
  256
370
   -1
100
AcDbLine
 10
286.0226092233708
 20
-262.4766092233708
 11
286.8096092233707
 21
-262.4766092233708
  0
LINE
  5
2C6
100
AcDbEntity
  8
Red 2
  6
ByLayer
 62
  256
370
   -1
100
AcDbLine
 10
286.8096092233707
 20
-262.4766092233708
 11
286.0226092233708
 21
-263.4676092233707
  0
LINE
  5
2C7
100
AcDbEntity
  8
Red 2
  6
ByLayer
 62
  256
370
   -1
100
AcDbLine
 10
286.0226092233708
 20
-263.4676092233707
 11
286.8096092233707
 21
-263.4676092233707
  0
LINE
  5
2C8
100
AcDbEntity
  8
Red 2
  6
ByLayer
 62
  256
370
   -1
100
AcDbLine
 10
287.9786092233708
 20
-263.3906092233707
 11
287.8256092233707
 21
-263.4676092233707
  0
LINE
  5
2C9
100
AcDbEntity
  8
Red 2
  6
ByLayer
 62
  256
370
   -1
100
AcDbLine
 10
287.8256092233707
 20
-263.4676092233707
 11
287.5466092233708
 21
-263.4676092233707
  0
LINE
  5
2CA
100
AcDbEntity
  8
Red 2
  6
ByLayer
 62
  256
370
   -1
100
AcDbLine
 10
287.5466092233708
 20
-263.4676092233707
 11
287.3936092233707
 21
-263.3906092233707
  0
LINE
  5
2CB
100
AcDbEntity
  8
Red 2
  6
ByLayer
 62
  256
370
   -1
100
AcDbLine
 10
287.3936092233707
 20
-263.3906092233707
 11
287.3176092233708
 21
-263.2636092233707
  0
LINE
  5
2CC
100
AcDbEntity
  8
Red 2
  6
ByLayer
 62
  256
370
   -1
100
AcDbLine
 10
287.3176092233708
 20
-263.2636092233707
 11
287.3176092233708
 21
-262.6796092233707
  0
LINE
  5
2CD
100
AcDbEntity
  8
Red 2
  6
ByLayer
 62
  256
370
   -1
100
AcDbLine
 10
287.3176092233708
 20
-262.6796092233707
 11
287.3936092233707
 21
-262.5526092233708
  0
LINE
  5
2CE
100
AcDbEntity
  8
Red 2
  6
ByLayer
 62
  256
370
   -1
100
AcDbLine
 10
287.3936092233707
 20
-262.5526092233708
 11
287.5466092233708
 21
-262.4766092233708
  0
LINE
  5
2CF
100
AcDbEntity
  8
Red 2
  6
ByLayer
 62
  256
370
   -1
100
AcDbLine
 10
287.5466092233708
 20
-262.4766092233708
 11
287.8256092233707
 21
-262.4766092233708
  0
LINE
  5
2D0
100
AcDbEntity
  8
Red 2
  6
ByLayer
 62
  256
370
   -1
100
AcDbLine
 10
287.8256092233707
 20
-262.4766092233708
 11
287.9786092233708
 21
-262.5526092233708
  0
LINE
  5
2D1
100
AcDbEntity
  8
Red 2
  6
ByLayer
 62
  256
370
   -1
100
AcDbLine
 10
287.9786092233708
 20
-262.5526092233708
 11
288.0286092233708
 21
-262.6796092233707
  0
LINE
  5
2D2
100
AcDbEntity
  8
Red 2
  6
ByLayer
 62
  256
370
   -1
100
AcDbLine
 10
288.0286092233708
 20
-262.6796092233707
 11
288.0286092233708
 21
-262.8326092233708
  0
LINE
  5
2D3
100
AcDbEntity
  8
Red 2
  6
ByLayer
 62
  256
370
   -1
100
AcDbLine
 10
288.0286092233708
 20
-262.8326092233708
 11
287.3176092233708
 21
-262.9846092233707
  0
LINE
  5
2D4
100
AcDbEntity
  8
Red 2
  6
ByLayer
 62
  256
370
   -1
100
AcDbLine
 10
288.6896092233708
 20
-263.3406092233707
 11
288.7656092233707
 21
-263.3906092233707
  0
LINE
  5
2D5
100
AcDbEntity
  8
Red 2
  6
ByLayer
 62
  256
370
   -1
100
AcDbLine
 10
288.7656092233707
 20
-263.3906092233707
 11
288.6896092233708
 21
-263.4676092233707
  0
LINE
  5
2D6
100
AcDbEntity
  8
Red 2
  6
ByLayer
 62
  256
370
   -1
100
AcDbLine
 10
288.6896092233708
 20
-263.4676092233707
 11
288.6136092233708
 21
-263.3906092233707
  0
LINE
  5
2D7
100
AcDbEntity
  8
Red 2
  6
ByLayer
 62
  256
370
   -1
100
AcDbLine
 10
288.6136092233708
 20
-263.3906092233707
 11
288.6896092233708
 21
-263.3406092233707
  0
LINE
  5
2D8
100
AcDbEntity
  8
Red 2
  6
ByLayer
 62
  256
370
   -1
100
AcDbLine
 10
288.6896092233708
 20
-263.3406092233707
 11
288.6896092233708
 21
-263.4676092233707
  0
LINE
  5
2D9
100
AcDbEntity
  8
Red 2
  6
ByLayer
 62
  256
370
   -1
100
AcDbLine
 10
288.6896092233708
 20
-262.5526092233708
 11
288.7656092233707
 21
-262.6036092233708
  0
LINE
  5
2DA
100
AcDbEntity
  8
Red 2
  6
ByLayer
 62
  256
370
   -1
100
AcDbLine
 10
288.7656092233707
 20
-262.6036092233708
 11
288.6896092233708
 21
-262.6796092233707
  0
LINE
  5
2DB
100
AcDbEntity
  8
Red 2
  6
ByLayer
 62
  256
370
   -1
100
AcDbLine
 10
288.6896092233708
 20
-262.6796092233707
 11
288.6136092233708
 21
-262.6036092233708
  0
LINE
  5
2DC
100
AcDbEntity
  8
Red 2
  6
ByLayer
 62
  256
370
   -1
100
AcDbLine
 10
288.6136092233708
 20
-262.6036092233708
 11
288.6896092233708
 21
-262.5526092233708
  0
LINE
  5
2DD
100
AcDbEntity
  8
Red 2
  6
ByLayer
 62
  256
370
   -1
100
AcDbLine
 10
288.6896092233708
 20
-262.5526092233708
 11
288.6896092233708
 21
-262.6796092233707
  0
LINE
  5
2DE
100
AcDbEntity
  8
Red 2
  6
ByLayer
 62
  256
370
   -1
100
AcDbLine
 10
290.4676092233707
 20
-263.0356092233707
 11
291.1786092233708
 21
-263.0356092233707
  0
LINE
  5
2DF
100
AcDbEntity
  8
Red 2
  6
ByLayer
 62
  256
370
   -1
100
AcDbLine
 10
290.3406092233707
 20
-263.4676092233707
 11
290.8226092233708
 21
-261.9686092233708
  0
LINE
  5
2E0
100
AcDbEntity
  8
Red 2
  6
ByLayer
 62
  256
370
   -1
100
AcDbLine
 10
290.8226092233708
 20
-261.9686092233708
 11
291.3306092233707
 21
-263.4676092233707
  0
LINE
  5
2E1
100
AcDbEntity
  8
Red 2
  6
ByLayer
 62
  256
370
   -1
100
AcDbLine
 10
291.6866092233707
 20
-261.9686092233708
 11
292.6266092233707
 21
-261.9686092233708
  0
LINE
  5
2E2
100
AcDbEntity
  8
Red 2
  6
ByLayer
 62
  256
370
   -1
100
AcDbLine
 10
292.6266092233707
 20
-261.9686092233708
 11
292.1186092233708
 21
-262.5526092233708
  0
LINE
  5
2E3
100
AcDbEntity
  8
Red 2
  6
ByLayer
 62
  256
370
   -1
100
AcDbLine
 10
292.1186092233708
 20
-262.5526092233708
 11
292.3466092233708
 21
-262.5526092233708
  0
LINE
  5
2E4
100
AcDbEntity
  8
Red 2
  6
ByLayer
 62
  256
370
   -1
100
AcDbLine
 10
292.3466092233708
 20
-262.5526092233708
 11
292.4736092233708
 21
-262.6036092233708
  0
LINE
  5
2E5
100
AcDbEntity
  8
Red 2
  6
ByLayer
 62
  256
370
   -1
100
AcDbLine
 10
292.4736092233708
 20
-262.6036092233708
 11
292.5506092233708
 21
-262.6796092233707
  0
LINE
  5
2E6
100
AcDbEntity
  8
Red 2
  6
ByLayer
 62
  256
370
   -1
100
AcDbLine
 10
292.5506092233708
 20
-262.6796092233707
 11
292.6266092233707
 21
-262.8326092233708
  0
LINE
  5
2E7
100
AcDbEntity
  8
Red 2
  6
ByLayer
 62
  256
370
   -1
100
AcDbLine
 10
292.6266092233707
 20
-262.8326092233708
 11
292.6266092233707
 21
-263.1876092233708
  0
LINE
  5
2E8
100
AcDbEntity
  8
Red 2
  6
ByLayer
 62
  256
370
   -1
100
AcDbLine
 10
292.6266092233707
 20
-263.1876092233708
 11
292.5506092233708
 21
-263.3406092233707
  0
LINE
  5
2E9
100
AcDbEntity
  8
Red 2
  6
ByLayer
 62
  256
370
   -1
100
AcDbLine
 10
292.5506092233708
 20
-263.3406092233707
 11
292.4736092233708
 21
-263.3906092233707
  0
LINE
  5
2EA
100
AcDbEntity
  8
Red 2
  6
ByLayer
 62
  256
370
   -1
100
AcDbLine
 10
292.4736092233708
 20
-263.3906092233707
 11
292.3466092233708
 21
-263.4676092233707
  0
LINE
  5
2EB
100
AcDbEntity
  8
Red 2
  6
ByLayer
 62
  256
370
   -1
100
AcDbLine
 10
292.3466092233708
 20
-263.4676092233707
 11
291.9156092233708
 21
-263.4676092233707
  0
LINE
  5
2EC
100
AcDbEntity
  8
Red 2
  6
ByLayer
 62
  256
370
   -1
100
AcDbLine
 10
291.9156092233708
 20
-263.4676092233707
 11
291.7626092233708
 21
-263.3906092233707
  0
LINE
  5
2ED
100
AcDbEntity
  8
Red 2
  6
ByLayer
 62
  256
370
   -1
100
AcDbLine
 10
291.7626092233708
 20
-263.3906092233707
 11
291.6866092233707
 21
-263.3406092233707
  0
LINE
  5
2EE
100
AcDbEntity
  8
Red 2
  6
ByLayer
 62
  256
370
   -1
100
AcDbLine
 10
369.0296092233708
 20
-266.2616092233707
 11
369.0296092233708
 21
-264.7626092233708
  0
LINE
  5
2EF
100
AcDbEntity
  8
Red 2
  6
ByLayer
 62
  256
370
   -1
100
AcDbLine
 10
370.3756092233708
 20
-266.2616092233707
 11
370.3756092233708
 21
-264.7626092233708
  0
LINE
  5
2F0
100
AcDbEntity
  8
Red 2
  6
ByLayer
 62
  256
370
   -1
100
AcDbLine
 10
370.3756092233708
 20
-266.1846092233707
 11
370.2486092233707
 21
-266.2616092233707
  0
LINE
  5
2F1
100
AcDbEntity
  8
Red 2
  6
ByLayer
 62
  256
370
   -1
100
AcDbLine
 10
370.2486092233707
 20
-266.2616092233707
 11
369.9436092233707
 21
-266.2616092233707
  0
LINE
  5
2F2
100
AcDbEntity
  8
Red 2
  6
ByLayer
 62
  256
370
   -1
100
AcDbLine
 10
369.9436092233707
 20
-266.2616092233707
 11
369.8166092233707
 21
-266.1846092233707
  0
LINE
  5
2F3
100
AcDbEntity
  8
Red 2
  6
ByLayer
 62
  256
370
   -1
100
AcDbLine
 10
369.8166092233707
 20
-266.1846092233707
 11
369.7406092233708
 21
-266.1346092233708
  0
LINE
  5
2F4
100
AcDbEntity
  8
Red 2
  6
ByLayer
 62
  256
370
   -1
100
AcDbLine
 10
369.7406092233708
 20
-266.1346092233708
 11
369.6646092233707
 21
-265.9816092233708
  0
LINE
  5
2F5
100
AcDbEntity
  8
Red 2
  6
ByLayer
 62
  256
370
   -1
100
AcDbLine
 10
369.6646092233707
 20
-265.9816092233708
 11
369.6646092233707
 21
-265.5496092233707
  0
LINE
  5
2F6
100
AcDbEntity
  8
Red 2
  6
ByLayer
 62
  256
370
   -1
100
AcDbLine
 10
369.6646092233707
 20
-265.5496092233707
 11
369.7406092233708
 21
-265.3976092233708
  0
LINE
  5
2F7
100
AcDbEntity
  8
Red 2
  6
ByLayer
 62
  256
370
   -1
100
AcDbLine
 10
369.7406092233708
 20
-265.3976092233708
 11
369.8166092233707
 21
-265.3466092233708
  0
LINE
  5
2F8
100
AcDbEntity
  8
Red 2
  6
ByLayer
 62
  256
370
   -1
100
AcDbLine
 10
369.8166092233707
 20
-265.3466092233708
 11
369.9436092233707
 21
-265.2706092233707
  0
LINE
  5
2F9
100
AcDbEntity
  8
Red 2
  6
ByLayer
 62
  256
370
   -1
100
AcDbLine
 10
369.9436092233707
 20
-265.2706092233707
 11
370.2486092233707
 21
-265.2706092233707
  0
LINE
  5
2FA
100
AcDbEntity
  8
Red 2
  6
ByLayer
 62
  256
370
   -1
100
AcDbLine
 10
370.2486092233707
 20
-265.2706092233707
 11
370.3756092233708
 21
-265.3466092233708
  0
LINE
  5
2FB
100
AcDbEntity
  8
Red 2
  6
ByLayer
 62
  256
370
   -1
100
AcDbLine
 10
371.0866092233708
 20
-266.1346092233708
 11
371.1636092233708
 21
-266.1846092233707
  0
LINE
  5
2FC
100
AcDbEntity
  8
Red 2
  6
ByLayer
 62
  256
370
   -1
100
AcDbLine
 10
371.1636092233708
 20
-266.1846092233707
 11
371.0866092233708
 21
-266.2616092233707
  0
LINE
  5
2FD
100
AcDbEntity
  8
Red 2
  6
ByLayer
 62
  256
370
   -1
100
AcDbLine
 10
371.0866092233708
 20
-266.2616092233707
 11
371.0106092233707
 21
-266.1846092233707
  0
LINE
  5
2FE
100
AcDbEntity
  8
Red 2
  6
ByLayer
 62
  256
370
   -1
100
AcDbLine
 10
371.0106092233707
 20
-266.1846092233707
 11
371.0866092233708
 21
-266.1346092233708
  0
LINE
  5
2FF
100
AcDbEntity
  8
Red 2
  6
ByLayer
 62
  256
370
   -1
100
AcDbLine
 10
371.0866092233708
 20
-266.1346092233708
 11
371.0866092233708
 21
-266.2616092233707
  0
LINE
  5
300
100
AcDbEntity
  8
Red 2
  6
ByLayer
 62
  256
370
   -1
100
AcDbLine
 10
371.0866092233708
 20
-265.3466092233708
 11
371.1636092233708
 21
-265.3976092233708
  0
LINE
  5
301
100
AcDbEntity
  8
Red 2
  6
ByLayer
 62
  256
370
   -1
100
AcDbLine
 10
371.1636092233708
 20
-265.3976092233708
 11
371.0866092233708
 21
-265.4736092233708
  0
LINE
  5
302
100
AcDbEntity
  8
Red 2
  6
ByLayer
 62
  256
370
   -1
100
AcDbLine
 10
371.0866092233708
 20
-265.4736092233708
 11
371.0106092233707
 21
-265.3976092233708
  0
LINE
  5
303
100
AcDbEntity
  8
Red 2
  6
ByLayer
 62
  256
370
   -1
100
AcDbLine
 10
371.0106092233707
 20
-265.3976092233708
 11
371.0866092233708
 21
-265.3466092233708
  0
LINE
  5
304
100
AcDbEntity
  8
Red 2
  6
ByLayer
 62
  256
370
   -1
100
AcDbLine
 10
371.0866092233708
 20
-265.3466092233708
 11
371.0866092233708
 21
-265.4736092233708
  0
LINE
  5
305
100
AcDbEntity
  8
Red 2
  6
ByLayer
 62
  256
370
   -1
100
AcDbLine
 10
373.7286092233708
 20
-266.2616092233707
 11
372.8646092233707
 21
-266.2616092233707
  0
LINE
  5
306
100
AcDbEntity
  8
Red 2
  6
ByLayer
 62
  256
370
   -1
100
AcDbLine
 10
373.2966092233708
 20
-266.2616092233707
 11
373.2966092233708
 21
-264.7626092233708
  0
LINE
  5
307
100
AcDbEntity
  8
Red 2
  6
ByLayer
 62
  256
370
   -1
100
AcDbLine
 10
373.2966092233708
 20
-264.7626092233708
 11
373.1446092233708
 21
-264.9916092233707
  0
LINE
  5
308
100
AcDbEntity
  8
Red 2
  6
ByLayer
 62
  256
370
   -1
100
AcDbLine
 10
373.1446092233708
 20
-264.9916092233707
 11
373.0176092233708
 21
-265.1186092233708
  0
LINE
  5
309
100
AcDbEntity
  8
Red 2
  6
ByLayer
 62
  256
370
   -1
100
AcDbLine
 10
373.0176092233708
 20
-265.1186092233708
 11
372.8646092233707
 21
-265.1946092233708
  0
LINE
  5
30A
100
AcDbEntity
  8
Red 2
  6
ByLayer
 62
  256
370
   -1
100
AcDbLine
 10
375.4306092233708
 20
-264.6866092233707
 11
374.1606092233707
 21
-266.6166092233707
  0
LINE
  5
30B
100
AcDbEntity
  8
Red 2
  6
ByLayer
 62
  256
370
   -1
100
AcDbLine
 10
376.7256092233707
 20
-266.2616092233707
 11
375.8626092233707
 21
-266.2616092233707
  0
LINE
  5
30C
100
AcDbEntity
  8
Red 2
  6
ByLayer
 62
  256
370
   -1
100
AcDbLine
 10
376.2936092233708
 20
-266.2616092233707
 11
376.2936092233708
 21
-264.7626092233708
  0
LINE
  5
30D
100
AcDbEntity
  8
Red 2
  6
ByLayer
 62
  256
370
   -1
100
AcDbLine
 10
376.2936092233708
 20
-264.7626092233708
 11
376.1416092233708
 21
-264.9916092233707
  0
LINE
  5
30E
100
AcDbEntity
  8
Red 2
  6
ByLayer
 62
  256
370
   -1
100
AcDbLine
 10
376.1416092233708
 20
-264.9916092233707
 11
376.0146092233708
 21
-265.1186092233708
  0
LINE
  5
30F
100
AcDbEntity
  8
Red 2
  6
ByLayer
 62
  256
370
   -1
100
AcDbLine
 10
376.0146092233708
 20
-265.1186092233708
 11
375.8626092233707
 21
-265.1946092233708
  0
LINE
  5
310
100
AcDbEntity
  8
Red 2
  6
ByLayer
 62
  256
370
   -1
100
AcDbLine
 10
282.6946092233708
 20
-257.1936092233707
 11
390.6956092233708
 21
-257.1936092233707
  0
LINE
  5
311
100
AcDbEntity
  8
Red 2
  6
ByLayer
 62
  256
370
   -1
100
AcDbLine
 10
284.1426092233708
 20
-257.8796092233708
 11
285.2856092233707
 21
-257.8796092233708
  0
LINE
  5
312
100
AcDbEntity
  8
Red 2
  6
ByLayer
 62
  256
370
   -1
100
AcDbLine
 10
284.4726092233707
 20
-259.8856092233707
 11
284.7016092233707
 21
-257.8796092233708
  0
LINE
  5
313
100
AcDbEntity
  8
Red 2
  6
ByLayer
 62
  256
370
   -1
100
AcDbLine
 10
285.7176092233707
 20
-259.8856092233707
 11
285.8696092233707
 21
-258.5646092233708
  0
LINE
  5
314
100
AcDbEntity
  8
Red 2
  6
ByLayer
 62
  256
370
   -1
100
AcDbLine
 10
285.9466092233707
 20
-257.8796092233708
 11
285.8446092233708
 21
-257.9806092233708
  0
LINE
  5
315
100
AcDbEntity
  8
Red 2
  6
ByLayer
 62
  256
370
   -1
100
AcDbLine
 10
285.8446092233708
 20
-257.9806092233708
 11
285.9206092233708
 21
-258.0826092233708
  0
LINE
  5
316
100
AcDbEntity
  8
Red 2
  6
ByLayer
 62
  256
370
   -1
100
AcDbLine
 10
285.9206092233708
 20
-258.0826092233708
 11
286.0476092233707
 21
-257.9806092233708
  0
LINE
  5
317
100
AcDbEntity
  8
Red 2
  6
ByLayer
 62
  256
370
   -1
100
AcDbLine
 10
286.0476092233707
 20
-257.9806092233708
 11
285.9466092233707
 21
-257.8796092233708
  0
LINE
  5
318
100
AcDbEntity
  8
Red 2
  6
ByLayer
 62
  256
370
   -1
100
AcDbLine
 10
285.9466092233707
 20
-257.8796092233708
 11
285.9206092233708
 21
-258.0826092233708
  0
LINE
  5
319
100
AcDbEntity
  8
Red 2
  6
ByLayer
 62
  256
370
   -1
100
AcDbLine
 10
286.5556092233708
 20
-258.5646092233708
 11
287.3176092233708
 21
-258.5646092233708
  0
LINE
  5
31A
100
AcDbEntity
  8
Red 2
  6
ByLayer
 62
  256
370
   -1
100
AcDbLine
 10
286.9116092233708
 20
-257.8796092233708
 11
286.7086092233707
 21
-259.6066092233708
  0
LINE
  5
31B
100
AcDbEntity
  8
Red 2
  6
ByLayer
 62
  256
370
   -1
100
AcDbLine
 10
286.7086092233707
 20
-259.6066092233708
 11
286.7846092233708
 21
-259.7846092233708
  0
LINE
  5
31C
100
AcDbEntity
  8
Red 2
  6
ByLayer
 62
  256
370
   -1
100
AcDbLine
 10
286.7846092233708
 20
-259.7846092233708
 11
286.9626092233707
 21
-259.8856092233707
  0
LINE
  5
31D
100
AcDbEntity
  8
Red 2
  6
ByLayer
 62
  256
370
   -1
100
AcDbLine
 10
286.9626092233707
 20
-259.8856092233707
 11
287.1656092233708
 21
-259.8856092233707
  0
LINE
  5
31E
100
AcDbEntity
  8
Red 2
  6
ByLayer
 62
  256
370
   -1
100
AcDbLine
 10
288.1056092233708
 20
-259.8856092233707
 11
287.9276092233708
 21
-259.7846092233708
  0
LINE
  5
31F
100
AcDbEntity
  8
Red 2
  6
ByLayer
 62
  256
370
   -1
100
AcDbLine
 10
287.9276092233708
 20
-259.7846092233708
 11
287.8516092233708
 21
-259.6066092233708
  0
LINE
  5
320
100
AcDbEntity
  8
Red 2
  6
ByLayer
 62
  256
370
   -1
100
AcDbLine
 10
287.8516092233708
 20
-259.6066092233708
 11
288.0546092233707
 21
-257.8796092233708
  0
LINE
  5
321
100
AcDbEntity
  8
Red 2
  6
ByLayer
 62
  256
370
   -1
100
AcDbLine
 10
289.6296092233708
 20
-259.7846092233708
 11
289.4256092233708
 21
-259.8856092233707
  0
LINE
  5
322
100
AcDbEntity
  8
Red 2
  6
ByLayer
 62
  256
370
   -1
100
AcDbLine
 10
289.4256092233708
 20
-259.8856092233707
 11
289.0446092233707
 21
-259.8856092233707
  0
LINE
  5
323
100
AcDbEntity
  8
Red 2
  6
ByLayer
 62
  256
370
   -1
100
AcDbLine
 10
289.0446092233707
 20
-259.8856092233707
 11
288.8676092233708
 21
-259.7846092233708
  0
LINE
  5
324
100
AcDbEntity
  8
Red 2
  6
ByLayer
 62
  256
370
   -1
100
AcDbLine
 10
288.8676092233708
 20
-259.7846092233708
 11
288.7906092233708
 21
-259.6066092233708
  0
LINE
  5
325
100
AcDbEntity
  8
Red 2
  6
ByLayer
 62
  256
370
   -1
100
AcDbLine
 10
288.7906092233708
 20
-259.6066092233708
 11
288.8926092233708
 21
-258.8446092233708
  0
LINE
  5
326
100
AcDbEntity
  8
Red 2
  6
ByLayer
 62
  256
370
   -1
100
AcDbLine
 10
288.8926092233708
 20
-258.8446092233708
 11
289.0196092233708
 21
-258.6416092233708
  0
LINE
  5
327
100
AcDbEntity
  8
Red 2
  6
ByLayer
 62
  256
370
   -1
100
AcDbLine
 10
289.0196092233708
 20
-258.6416092233708
 11
289.1976092233708
 21
-258.5646092233708
  0
LINE
  5
328
100
AcDbEntity
  8
Red 2
  6
ByLayer
 62
  256
370
   -1
100
AcDbLine
 10
289.1976092233708
 20
-258.5646092233708
 11
289.5786092233707
 21
-258.5646092233708
  0
LINE
  5
329
100
AcDbEntity
  8
Red 2
  6
ByLayer
 62
  256
370
   -1
100
AcDbLine
 10
289.5786092233707
 20
-258.5646092233708
 11
289.7816092233708
 21
-258.6416092233708
  0
LINE
  5
32A
100
AcDbEntity
  8
Red 2
  6
ByLayer
 62
  256
370
   -1
100
AcDbLine
 10
289.7816092233708
 20
-258.6416092233708
 11
289.8576092233707
 21
-258.8446092233708
  0
LINE
  5
32B
100
AcDbEntity
  8
Red 2
  6
ByLayer
 62
  256
370
   -1
100
AcDbLine
 10
289.8576092233707
 20
-258.8446092233708
 11
289.8326092233708
 21
-259.0226092233708
  0
LINE
  5
32C
100
AcDbEntity
  8
Red 2
  6
ByLayer
 62
  256
370
   -1
100
AcDbLine
 10
289.8326092233708
 20
-259.0226092233708
 11
288.8416092233708
 21
-259.2256092233707
  0
LINE
  5
32D
100
AcDbEntity
  8
Red 2
  6
ByLayer
 62
  256
370
   -1
100
AcDbLine
 10
290.5946092233708
 20
-259.7076092233708
 11
290.6956092233708
 21
-259.7846092233708
  0
LINE
  5
32E
100
AcDbEntity
  8
Red 2
  6
ByLayer
 62
  256
370
   -1
100
AcDbLine
 10
290.6956092233708
 20
-259.7846092233708
 11
290.5946092233708
 21
-259.8856092233707
  0
LINE
  5
32F
100
AcDbEntity
  8
Red 2
  6
ByLayer
 62
  256
370
   -1
100
AcDbLine
 10
290.5946092233708
 20
-259.8856092233707
 11
290.4926092233708
 21
-259.7846092233708
  0
LINE
  5
330
100
AcDbEntity
  8
Red 2
  6
ByLayer
 62
  256
370
   -1
100
AcDbLine
 10
290.4926092233708
 20
-259.7846092233708
 11
290.5946092233708
 21
-259.7076092233708
  0
LINE
  5
331
100
AcDbEntity
  8
Red 2
  6
ByLayer
 62
  256
370
   -1
100
AcDbLine
 10
290.5946092233708
 20
-259.7076092233708
 11
290.5946092233708
 21
-259.8856092233707
  0
LINE
  5
332
100
AcDbEntity
  8
Red 2
  6
ByLayer
 62
  256
370
   -1
100
AcDbLine
 10
290.7466092233707
 20
-258.6416092233708
 11
290.8226092233708
 21
-258.7426092233708
  0
LINE
  5
333
100
AcDbEntity
  8
Red 2
  6
ByLayer
 62
  256
370
   -1
100
AcDbLine
 10
290.8226092233708
 20
-258.7426092233708
 11
290.7216092233708
 21
-258.8446092233708
  0
LINE
  5
334
100
AcDbEntity
  8
Red 2
  6
ByLayer
 62
  256
370
   -1
100
AcDbLine
 10
290.7216092233708
 20
-258.8446092233708
 11
290.6196092233707
 21
-258.7426092233708
  0
LINE
  5
335
100
AcDbEntity
  8
Red 2
  6
ByLayer
 62
  256
370
   -1
100
AcDbLine
 10
290.6196092233707
 20
-258.7426092233708
 11
290.7466092233707
 21
-258.6416092233708
  0
LINE
  5
336
100
AcDbEntity
  8
Red 2
  6
ByLayer
 62
  256
370
   -1
100
AcDbLine
 10
290.7466092233707
 20
-258.6416092233708
 11
290.7216092233708
 21
-258.8446092233708
  0
LINE
  5
337
100
AcDbEntity
  8
Red 2
  6
ByLayer
 62
  256
370
   -1
100
AcDbLine
 10
284.5496092233707
 20
-255.2626092233707
 11
284.0416092233708
 21
-255.2626092233707
  0
LINE
  5
338
100
AcDbEntity
  8
Red 2
  6
ByLayer
 62
  256
370
   -1
100
AcDbLine
 10
284.0416092233708
 20
-256.0506092233708
 11
284.0416092233708
 21
-254.5516092233707
  0
LINE
  5
339
100
AcDbEntity
  8
Red 2
  6
ByLayer
 62
  256
370
   -1
100
AcDbLine
 10
284.0416092233708
 20
-254.5516092233707
 11
284.7526092233708
 21
-254.5516092233707
  0
LINE
  5
33A
100
AcDbEntity
  8
Red 2
  6
ByLayer
 62
  256
370
   -1
100
AcDbLine
 10
285.3366092233708
 20
-256.0506092233708
 11
285.3366092233708
 21
-255.0596092233707
  0
LINE
  5
33B
100
AcDbEntity
  8
Red 2
  6
ByLayer
 62
  256
370
   -1
100
AcDbLine
 10
285.3366092233708
 20
-254.5516092233707
 11
285.2606092233707
 21
-254.6276092233707
  0
LINE
  5
33C
100
AcDbEntity
  8
Red 2
  6
ByLayer
 62
  256
370
   -1
100
AcDbLine
 10
285.2606092233707
 20
-254.6276092233707
 11
285.3366092233708
 21
-254.7046092233707
  0
LINE
  5
33D
100
AcDbEntity
  8
Red 2
  6
ByLayer
 62
  256
370
   -1
100
AcDbLine
 10
285.3366092233708
 20
-254.7046092233707
 11
285.4126092233707
 21
-254.6276092233707
  0
LINE
  5
33E
100
AcDbEntity
  8
Red 2
  6
ByLayer
 62
  256
370
   -1
100
AcDbLine
 10
285.4126092233707
 20
-254.6276092233707
 11
285.3366092233708
 21
-254.5516092233707
  0
LINE
  5
33F
100
AcDbEntity
  8
Red 2
  6
ByLayer
 62
  256
370
   -1
100
AcDbLine
 10
285.3366092233708
 20
-254.5516092233707
 11
285.3366092233708
 21
-254.7046092233707
  0
LINE
  5
340
100
AcDbEntity
  8
Red 2
  6
ByLayer
 62
  256
370
   -1
100
AcDbLine
 10
286.2506092233708
 20
-256.0506092233708
 11
286.1236092233707
 21
-255.9746092233707
  0
LINE
  5
341
100
AcDbEntity
  8
Red 2
  6
ByLayer
 62
  256
370
   -1
100
AcDbLine
 10
286.1236092233707
 20
-255.9746092233707
 11
286.0476092233707
 21
-255.8476092233707
  0
LINE
  5
342
100
AcDbEntity
  8
Red 2
  6
ByLayer
 62
  256
370
   -1
100
AcDbLine
 10
286.0476092233707
 20
-255.8476092233707
 11
286.0476092233707
 21
-254.5516092233707
  0
LINE
  5
343
100
AcDbEntity
  8
Red 2
  6
ByLayer
 62
  256
370
   -1
100
AcDbLine
 10
287.4196092233707
 20
-255.9746092233707
 11
287.2666092233708
 21
-256.0506092233708
  0
LINE
  5
344
100
AcDbEntity
  8
Red 2
  6
ByLayer
 62
  256
370
   -1
100
AcDbLine
 10
287.2666092233708
 20
-256.0506092233708
 11
286.9876092233707
 21
-256.0506092233708
  0
LINE
  5
345
100
AcDbEntity
  8
Red 2
  6
ByLayer
 62
  256
370
   -1
100
AcDbLine
 10
286.9876092233707
 20
-256.0506092233708
 11
286.8356092233707
 21
-255.9746092233707
  0
LINE
  5
346
100
AcDbEntity
  8
Red 2
  6
ByLayer
 62
  256
370
   -1
100
AcDbLine
 10
286.8356092233707
 20
-255.9746092233707
 11
286.7586092233707
 21
-255.8476092233707
  0
LINE
  5
347
100
AcDbEntity
  8
Red 2
  6
ByLayer
 62
  256
370
   -1
100
AcDbLine
 10
286.7586092233707
 20
-255.8476092233707
 11
286.7586092233707
 21
-255.2626092233707
  0
LINE
  5
348
100
AcDbEntity
  8
Red 2
  6
ByLayer
 62
  256
370
   -1
100
AcDbLine
 10
286.7586092233707
 20
-255.2626092233707
 11
286.8356092233707
 21
-255.1356092233707
  0
LINE
  5
349
100
AcDbEntity
  8
Red 2
  6
ByLayer
 62
  256
370
   -1
100
AcDbLine
 10
286.8356092233707
 20
-255.1356092233707
 11
286.9876092233707
 21
-255.0596092233707
  0
LINE
  5
34A
100
AcDbEntity
  8
Red 2
  6
ByLayer
 62
  256
370
   -1
100
AcDbLine
 10
286.9876092233707
 20
-255.0596092233707
 11
287.2666092233708
 21
-255.0596092233707
  0
LINE
  5
34B
100
AcDbEntity
  8
Red 2
  6
ByLayer
 62
  256
370
   -1
100
AcDbLine
 10
287.2666092233708
 20
-255.0596092233707
 11
287.4196092233707
 21
-255.1356092233707
  0
LINE
  5
34C
100
AcDbEntity
  8
Red 2
  6
ByLayer
 62
  256
370
   -1
100
AcDbLine
 10
287.4196092233707
 20
-255.1356092233707
 11
287.4706092233707
 21
-255.2626092233707
  0
LINE
  5
34D
100
AcDbEntity
  8
Red 2
  6
ByLayer
 62
  256
370
   -1
100
AcDbLine
 10
287.4706092233707
 20
-255.2626092233707
 11
287.4706092233707
 21
-255.4156092233708
  0
LINE
  5
34E
100
AcDbEntity
  8
Red 2
  6
ByLayer
 62
  256
370
   -1
100
AcDbLine
 10
287.4706092233707
 20
-255.4156092233708
 11
286.7586092233707
 21
-255.5676092233707
  0
LINE
  5
34F
100
AcDbEntity
  8
Red 2
  6
ByLayer
 62
  256
370
   -1
100
AcDbLine
 10
288.1306092233708
 20
-255.9236092233707
 11
288.2066092233708
 21
-255.9746092233707
  0
LINE
  5
350
100
AcDbEntity
  8
Red 2
  6
ByLayer
 62
  256
370
   -1
100
AcDbLine
 10
288.2066092233708
 20
-255.9746092233707
 11
288.1306092233708
 21
-256.0506092233708
  0
LINE
  5
351
100
AcDbEntity
  8
Red 2
  6
ByLayer
 62
  256
370
   -1
100
AcDbLine
 10
288.1306092233708
 20
-256.0506092233708
 11
288.0546092233707
 21
-255.9746092233707
  0
LINE
  5
352
100
AcDbEntity
  8
Red 2
  6
ByLayer
 62
  256
370
   -1
100
AcDbLine
 10
288.0546092233707
 20
-255.9746092233707
 11
288.1306092233708
 21
-255.9236092233707
  0
LINE
  5
353
100
AcDbEntity
  8
Red 2
  6
ByLayer
 62
  256
370
   -1
100
AcDbLine
 10
288.1306092233708
 20
-255.9236092233707
 11
288.1306092233708
 21
-256.0506092233708
  0
LINE
  5
354
100
AcDbEntity
  8
Red 2
  6
ByLayer
 62
  256
370
   -1
100
AcDbLine
 10
288.1306092233708
 20
-255.1356092233707
 11
288.2066092233708
 21
-255.1866092233707
  0
LINE
  5
355
100
AcDbEntity
  8
Red 2
  6
ByLayer
 62
  256
370
   -1
100
AcDbLine
 10
288.2066092233708
 20
-255.1866092233707
 11
288.1306092233708
 21
-255.2626092233707
  0
LINE
  5
356
100
AcDbEntity
  8
Red 2
  6
ByLayer
 62
  256
370
   -1
100
AcDbLine
 10
288.1306092233708
 20
-255.2626092233707
 11
288.0546092233707
 21
-255.1866092233707
  0
LINE
  5
357
100
AcDbEntity
  8
Red 2
  6
ByLayer
 62
  256
370
   -1
100
AcDbLine
 10
288.0546092233707
 20
-255.1866092233707
 11
288.1306092233708
 21
-255.1356092233707
  0
LINE
  5
358
100
AcDbEntity
  8
Red 2
  6
ByLayer
 62
  256
370
   -1
100
AcDbLine
 10
288.1306092233708
 20
-255.1356092233707
 11
288.1306092233708
 21
-255.2626092233707
  0
LINE
  5
359
100
AcDbEntity
  8
Red 2
  6
ByLayer
 62
  256
370
   -1
100
AcDbLine
 10
282.6946092233708
 20
-251.1986092233707
 11
390.6956092233708
 21
-251.1986092233707
  0
LINE
  5
35A
100
AcDbEntity
  8
Red 2
  6
ByLayer
 62
  256
370
   -1
100
AcDbLine
 10
283.9646092233708
 20
-253.2816092233707
 11
284.1936092233707
 21
-253.3576092233707
  0
LINE
  5
35B
100
AcDbEntity
  8
Red 2
  6
ByLayer
 62
  256
370
   -1
100
AcDbLine
 10
284.1936092233707
 20
-253.3576092233707
 11
284.5496092233707
 21
-253.3576092233707
  0
LINE
  5
35C
100
AcDbEntity
  8
Red 2
  6
ByLayer
 62
  256
370
   -1
100
AcDbLine
 10
284.5496092233707
 20
-253.3576092233707
 11
284.6766092233707
 21
-253.2816092233707
  0
LINE
  5
35D
100
AcDbEntity
  8
Red 2
  6
ByLayer
 62
  256
370
   -1
100
AcDbLine
 10
284.6766092233707
 20
-253.2816092233707
 11
284.7526092233708
 21
-253.2306092233707
  0
LINE
  5
35E
100
AcDbEntity
  8
Red 2
  6
ByLayer
 62
  256
370
   -1
100
AcDbLine
 10
284.7526092233708
 20
-253.2306092233707
 11
284.8286092233707
 21
-253.0786092233707
  0
LINE
  5
35F
100
AcDbEntity
  8
Red 2
  6
ByLayer
 62
  256
370
   -1
100
AcDbLine
 10
284.8286092233707
 20
-253.0786092233707
 11
284.8286092233707
 21
-252.9266092233707
  0
LINE
  5
360
100
AcDbEntity
  8
Red 2
  6
ByLayer
 62
  256
370
   -1
100
AcDbLine
 10
284.8286092233707
 20
-252.9266092233707
 11
284.7526092233708
 21
-252.7996092233707
  0
LINE
  5
361
100
AcDbEntity
  8
Red 2
  6
ByLayer
 62
  256
370
   -1
100
AcDbLine
 10
284.7526092233708
 20
-252.7996092233707
 11
284.6766092233707
 21
-252.7226092233707
  0
LINE
  5
362
100
AcDbEntity
  8
Red 2
  6
ByLayer
 62
  256
370
   -1
100
AcDbLine
 10
284.6766092233707
 20
-252.7226092233707
 11
284.5496092233707
 21
-252.6466092233707
  0
LINE
  5
363
100
AcDbEntity
  8
Red 2
  6
ByLayer
 62
  256
370
   -1
100
AcDbLine
 10
284.5496092233707
 20
-252.6466092233707
 11
284.2446092233707
 21
-252.5706092233707
  0
LINE
  5
364
100
AcDbEntity
  8
Red 2
  6
ByLayer
 62
  256
370
   -1
100
AcDbLine
 10
284.2446092233707
 20
-252.5706092233707
 11
284.1176092233708
 21
-252.4946092233707
  0
LINE
  5
365
100
AcDbEntity
  8
Red 2
  6
ByLayer
 62
  256
370
   -1
100
AcDbLine
 10
284.1176092233708
 20
-252.4946092233707
 11
284.0416092233708
 21
-252.4436092233707
  0
LINE
  5
366
100
AcDbEntity
  8
Red 2
  6
ByLayer
 62
  256
370
   -1
100
AcDbLine
 10
284.0416092233708
 20
-252.4436092233707
 11
283.9646092233708
 21
-252.2916092233707
  0
LINE
  5
367
100
AcDbEntity
  8
Red 2
  6
ByLayer
 62
  256
370
   -1
100
AcDbLine
 10
283.9646092233708
 20
-252.2916092233707
 11
283.9646092233708
 21
-252.1386092233707
  0
LINE
  5
368
100
AcDbEntity
  8
Red 2
  6
ByLayer
 62
  256
370
   -1
100
AcDbLine
 10
283.9646092233708
 20
-252.1386092233707
 11
284.0416092233708
 21
-252.0116092233707
  0
LINE
  5
369
100
AcDbEntity
  8
Red 2
  6
ByLayer
 62
  256
370
   -1
100
AcDbLine
 10
284.0416092233708
 20
-252.0116092233707
 11
284.1176092233708
 21
-251.9356092233707
  0
LINE
  5
36A
100
AcDbEntity
  8
Red 2
  6
ByLayer
 62
  256
370
   -1
100
AcDbLine
 10
284.1176092233708
 20
-251.9356092233707
 11
284.2446092233707
 21
-251.8596092233707
  0
LINE
  5
36B
100
AcDbEntity
  8
Red 2
  6
ByLayer
 62
  256
370
   -1
100
AcDbLine
 10
284.2446092233707
 20
-251.8596092233707
 11
284.6256092233708
 21
-251.8596092233707
  0
LINE
  5
36C
100
AcDbEntity
  8
Red 2
  6
ByLayer
 62
  256
370
   -1
100
AcDbLine
 10
284.6256092233708
 20
-251.8596092233707
 11
284.8286092233707
 21
-251.9356092233707
  0
LINE
  5
36D
100
AcDbEntity
  8
Red 2
  6
ByLayer
 62
  256
370
   -1
100
AcDbLine
 10
285.4636092233707
 20
-253.3576092233707
 11
285.4636092233707
 21
-251.8596092233707
  0
LINE
  5
36E
100
AcDbEntity
  8
Red 2
  6
ByLayer
 62
  256
370
   -1
100
AcDbLine
 10
286.0986092233708
 20
-253.3576092233707
 11
286.0986092233708
 21
-252.5706092233707
  0
LINE
  5
36F
100
AcDbEntity
  8
Red 2
  6
ByLayer
 62
  256
370
   -1
100
AcDbLine
 10
286.0986092233708
 20
-252.5706092233707
 11
286.0476092233707
 21
-252.4436092233707
  0
LINE
  5
370
100
AcDbEntity
  8
Red 2
  6
ByLayer
 62
  256
370
   -1
100
AcDbLine
 10
286.0476092233707
 20
-252.4436092233707
 11
285.8956092233707
 21
-252.3676092233707
  0
LINE
  5
371
100
AcDbEntity
  8
Red 2
  6
ByLayer
 62
  256
370
   -1
100
AcDbLine
 10
285.8956092233707
 20
-252.3676092233707
 11
285.6666092233708
 21
-252.3676092233707
  0
LINE
  5
372
100
AcDbEntity
  8
Red 2
  6
ByLayer
 62
  256
370
   -1
100
AcDbLine
 10
285.6666092233708
 20
-252.3676092233707
 11
285.5396092233707
 21
-252.4436092233707
  0
LINE
  5
373
100
AcDbEntity
  8
Red 2
  6
ByLayer
 62
  256
370
   -1
100
AcDbLine
 10
285.5396092233707
 20
-252.4436092233707
 11
285.4636092233707
 21
-252.4946092233707
  0
LINE
  5
374
100
AcDbEntity
  8
Red 2
  6
ByLayer
 62
  256
370
   -1
100
AcDbLine
 10
287.3936092233707
 20
-253.2816092233707
 11
287.2416092233707
 21
-253.3576092233707
  0
LINE
  5
375
100
AcDbEntity
  8
Red 2
  6
ByLayer
 62
  256
370
   -1
100
AcDbLine
 10
287.2416092233707
 20
-253.3576092233707
 11
286.9626092233707
 21
-253.3576092233707
  0
LINE
  5
376
100
AcDbEntity
  8
Red 2
  6
ByLayer
 62
  256
370
   -1
100
AcDbLine
 10
286.9626092233707
 20
-253.3576092233707
 11
286.8096092233707
 21
-253.2816092233707
  0
LINE
  5
377
100
AcDbEntity
  8
Red 2
  6
ByLayer
 62
  256
370
   -1
100
AcDbLine
 10
286.8096092233707
 20
-253.2816092233707
 11
286.7336092233708
 21
-253.1546092233707
  0
LINE
  5
378
100
AcDbEntity
  8
Red 2
  6
ByLayer
 62
  256
370
   -1
100
AcDbLine
 10
286.7336092233708
 20
-253.1546092233707
 11
286.7336092233708
 21
-252.5706092233707
  0
LINE
  5
379
100
AcDbEntity
  8
Red 2
  6
ByLayer
 62
  256
370
   -1
100
AcDbLine
 10
286.7336092233708
 20
-252.5706092233707
 11
286.8096092233707
 21
-252.4436092233707
  0
LINE
  5
37A
100
AcDbEntity
  8
Red 2
  6
ByLayer
 62
  256
370
   -1
100
AcDbLine
 10
286.8096092233707
 20
-252.4436092233707
 11
286.9626092233707
 21
-252.3676092233707
  0
LINE
  5
37B
100
AcDbEntity
  8
Red 2
  6
ByLayer
 62
  256
370
   -1
100
AcDbLine
 10
286.9626092233707
 20
-252.3676092233707
 11
287.2416092233707
 21
-252.3676092233707
  0
LINE
  5
37C
100
AcDbEntity
  8
Red 2
  6
ByLayer
 62
  256
370
   -1
100
AcDbLine
 10
287.2416092233707
 20
-252.3676092233707
 11
287.3936092233707
 21
-252.4436092233707
  0
LINE
  5
37D
100
AcDbEntity
  8
Red 2
  6
ByLayer
 62
  256
370
   -1
100
AcDbLine
 10
287.3936092233707
 20
-252.4436092233707
 11
287.4446092233708
 21
-252.5706092233707
  0
LINE
  5
37E
100
AcDbEntity
  8
Red 2
  6
ByLayer
 62
  256
370
   -1
100
AcDbLine
 10
287.4446092233708
 20
-252.5706092233707
 11
287.4446092233708
 21
-252.7226092233707
  0
LINE
  5
37F
100
AcDbEntity
  8
Red 2
  6
ByLayer
 62
  256
370
   -1
100
AcDbLine
 10
287.4446092233708
 20
-252.7226092233707
 11
286.7336092233708
 21
-252.8756092233707
  0
LINE
  5
380
100
AcDbEntity
  8
Red 2
  6
ByLayer
 62
  256
370
   -1
100
AcDbLine
 10
288.6896092233708
 20
-253.2816092233707
 11
288.5366092233708
 21
-253.3576092233707
  0
LINE
  5
381
100
AcDbEntity
  8
Red 2
  6
ByLayer
 62
  256
370
   -1
100
AcDbLine
 10
288.5366092233708
 20
-253.3576092233707
 11
288.2576092233708
 21
-253.3576092233707
  0
LINE
  5
382
100
AcDbEntity
  8
Red 2
  6
ByLayer
 62
  256
370
   -1
100
AcDbLine
 10
288.2576092233708
 20
-253.3576092233707
 11
288.1056092233708
 21
-253.2816092233707
  0
LINE
  5
383
100
AcDbEntity
  8
Red 2
  6
ByLayer
 62
  256
370
   -1
100
AcDbLine
 10
288.1056092233708
 20
-253.2816092233707
 11
288.0286092233708
 21
-253.1546092233707
  0
LINE
  5
384
100
AcDbEntity
  8
Red 2
  6
ByLayer
 62
  256
370
   -1
100
AcDbLine
 10
288.0286092233708
 20
-253.1546092233707
 11
288.0286092233708
 21
-252.5706092233707
  0
LINE
  5
385
100
AcDbEntity
  8
Red 2
  6
ByLayer
 62
  256
370
   -1
100
AcDbLine
 10
288.0286092233708
 20
-252.5706092233707
 11
288.1056092233708
 21
-252.4436092233707
  0
LINE
  5
386
100
AcDbEntity
  8
Red 2
  6
ByLayer
 62
  256
370
   -1
100
AcDbLine
 10
288.1056092233708
 20
-252.4436092233707
 11
288.2576092233708
 21
-252.3676092233707
  0
LINE
  5
387
100
AcDbEntity
  8
Red 2
  6
ByLayer
 62
  256
370
   -1
100
AcDbLine
 10
288.2576092233708
 20
-252.3676092233707
 11
288.5366092233708
 21
-252.3676092233707
  0
LINE
  5
388
100
AcDbEntity
  8
Red 2
  6
ByLayer
 62
  256
370
   -1
100
AcDbLine
 10
288.5366092233708
 20
-252.3676092233707
 11
288.6896092233708
 21
-252.4436092233707
  0
LINE
  5
389
100
AcDbEntity
  8
Red 2
  6
ByLayer
 62
  256
370
   -1
100
AcDbLine
 10
288.6896092233708
 20
-252.4436092233707
 11
288.7406092233708
 21
-252.5706092233707
  0
LINE
  5
38A
100
AcDbEntity
  8
Red 2
  6
ByLayer
 62
  256
370
   -1
100
AcDbLine
 10
288.7406092233708
 20
-252.5706092233707
 11
288.7406092233708
 21
-252.7226092233707
  0
LINE
  5
38B
100
AcDbEntity
  8
Red 2
  6
ByLayer
 62
  256
370
   -1
100
AcDbLine
 10
288.7406092233708
 20
-252.7226092233707
 11
288.0286092233708
 21
-252.8756092233707
  0
LINE
  5
38C
100
AcDbEntity
  8
Red 2
  6
ByLayer
 62
  256
370
   -1
100
AcDbLine
 10
289.1976092233708
 20
-252.3676092233707
 11
289.7566092233707
 21
-252.3676092233707
  0
LINE
  5
38D
100
AcDbEntity
  8
Red 2
  6
ByLayer
 62
  256
370
   -1
100
AcDbLine
 10
289.4006092233707
 20
-251.8596092233707
 11
289.4006092233707
 21
-253.1546092233707
  0
LINE
  5
38E
100
AcDbEntity
  8
Red 2
  6
ByLayer
 62
  256
370
   -1
100
AcDbLine
 10
289.4006092233707
 20
-253.1546092233707
 11
289.4766092233708
 21
-253.2816092233707
  0
LINE
  5
38F
100
AcDbEntity
  8
Red 2
  6
ByLayer
 62
  256
370
   -1
100
AcDbLine
 10
289.4766092233708
 20
-253.2816092233707
 11
289.6036092233708
 21
-253.3576092233707
  0
LINE
  5
390
100
AcDbEntity
  8
Red 2
  6
ByLayer
 62
  256
370
   -1
100
AcDbLine
 10
289.6036092233708
 20
-253.3576092233707
 11
289.7566092233707
 21
-253.3576092233707
  0
LINE
  5
391
100
AcDbEntity
  8
Red 2
  6
ByLayer
 62
  256
370
   -1
100
AcDbLine
 10
290.2646092233708
 20
-253.2306092233707
 11
290.3406092233707
 21
-253.2816092233707
  0
LINE
  5
392
100
AcDbEntity
  8
Red 2
  6
ByLayer
 62
  256
370
   -1
100
AcDbLine
 10
290.3406092233707
 20
-253.2816092233707
 11
290.2646092233708
 21
-253.3576092233707
  0
LINE
  5
393
100
AcDbEntity
  8
Red 2
  6
ByLayer
 62
  256
370
   -1
100
AcDbLine
 10
290.2646092233708
 20
-253.3576092233707
 11
290.1876092233708
 21
-253.2816092233707
  0
LINE
  5
394
100
AcDbEntity
  8
Red 2
  6
ByLayer
 62
  256
370
   -1
100
AcDbLine
 10
290.1876092233708
 20
-253.2816092233707
 11
290.2646092233708
 21
-253.2306092233707
  0
LINE
  5
395
100
AcDbEntity
  8
Red 2
  6
ByLayer
 62
  256
370
   -1
100
AcDbLine
 10
290.2646092233708
 20
-253.2306092233707
 11
290.2646092233708
 21
-253.3576092233707
  0
LINE
  5
396
100
AcDbEntity
  8
Red 2
  6
ByLayer
 62
  256
370
   -1
100
AcDbLine
 10
290.2646092233708
 20
-252.4436092233707
 11
290.3406092233707
 21
-252.4946092233707
  0
LINE
  5
397
100
AcDbEntity
  8
Red 2
  6
ByLayer
 62
  256
370
   -1
100
AcDbLine
 10
290.3406092233707
 20
-252.4946092233707
 11
290.2646092233708
 21
-252.5706092233707
  0
LINE
  5
398
100
AcDbEntity
  8
Red 2
  6
ByLayer
 62
  256
370
   -1
100
AcDbLine
 10
290.2646092233708
 20
-252.5706092233707
 11
290.1876092233708
 21
-252.4946092233707
  0
LINE
  5
399
100
AcDbEntity
  8
Red 2
  6
ByLayer
 62
  256
370
   -1
100
AcDbLine
 10
290.1876092233708
 20
-252.4946092233707
 11
290.2646092233708
 21
-252.4436092233707
  0
LINE
  5
39A
100
AcDbEntity
  8
Red 2
  6
ByLayer
 62
  256
370
   -1
100
AcDbLine
 10
290.2646092233708
 20
-252.4436092233707
 11
290.2646092233708
 21
-252.5706092233707
  0
LINE
  5
39B
100
AcDbEntity
  8
Red 2
  6
ByLayer
 62
  256
370
   -1
100
AcDbLine
 10
293.1856092233708
 20
-251.7836092233707
 11
291.9156092233708
 21
-253.7136092233707
  0
LINE
  5
39C
100
AcDbEntity
  8
Red 2
  6
ByLayer
 62
  256
370
   -1
100
AcDbLine
 10
302.6846092233707
 20
-261.2066092233708
 11
302.6846092233707
 21
-264.2036092233707
  0
LINE
  5
39D
100
AcDbEntity
  8
Red 2
  6
ByLayer
 62
  256
370
   -1
100
AcDbLine
 10
366.6926092233708
 20
-261.2066092233708
 11
366.6926092233708
 21
-267.7086092233707
  0
LINE
  5
39E
100
AcDbEntity
  8
draw
  6
ByLayer
 62
  256
370
   -1
100
AcDbLine
 10
7
 20
-227
 11
298
 21
-227
  0
ARC
  5
39F
100
AcDbEntity
  8
draw
  6
ByLayer
 62
  256
370
   -1
100
AcDbCircle
 10
298
 20
-220
 40
7
100
AcDbArc
 50
270.2069176045403
 51
359.9790915870341
  0
ARC
  5
3A0
100
AcDbEntity
  8
draw
  6
ByLayer
 62
  256
370
   -1
100
AcDbCircle
 10
298
 20
-7
 40
7
100
AcDbArc
 50
359.9889890825746
 51
90.82544923198608
  0
LINE
  5
3A1
100
AcDbEntity
  8
draw
  6
ByLayer
 62
  256
370
   -1
100
AcDbLine
 10
304.9822469351491
 20
-6.944280836043488
 11
304.9790271957489
 21
-219.9712683093413
  0
LINE
  5
3A2
100
AcDbEntity
  8
draw
  6
ByLayer
 62
  256
370
   -1
100
AcDbLine
 10
297.8963161910139
 20
0
 11
297.0087294016179
 21
0
  0
LINE
  5
3A3
100
AcDbEntity
  8
draw
  6
DASHDOT2
 62
  256
370
   25
100
AcDbLine
 10
40
 20
-37
 11
270
 21
-37
  0
LINE
  5
3A4
100
AcDbEntity
  8
draw
  6
CONTINUOUS
 62
  256
370
   25
100
AcDbLine
 10
270
 20
-37
 11
320
 21
-37
  0
LINE
  5
3A5
100
AcDbEntity
  8
draw
  6
DASHDOT2
 62
  256
370
   25
100
AcDbLine
 10
40
 20
-167
 11
60
 21
-167
  0
LINE
  5
3A6
100
AcDbEntity
  8
draw
  6
DASHDOT2
 62
  256
370
   25
100
AcDbLine
 10
40
 20
-137
 11
60
 21
-137
  0
LINE
  5
3A7
100
AcDbEntity
  8
draw
  6
DASHDOT2
 62
  256
370
   25
100
AcDbLine
 10
40
 20
-97
 11
60
 21
-97
  0
LINE
  5
3A8
100
AcDbEntity
  8
draw
  6
CONTINUOUS
 62
  256
370
   25
100
AcDbLine
 10
60
 20
-97
 11
320
 21
-97
  0
LINE
  5
3A9
100
AcDbEntity
  8
draw
  6
CONTINUOUS
 62
  256
370
   25
100
AcDbLine
 10
60
 20
-137
 11
320
 21
-137
  0
LINE
  5
3AA
100
AcDbEntity
  8
draw
  6
CONTINUOUS
 62
  256
370
   25
100
AcDbLine
 10
60
 20
-167
 11
320
 21
-167
  0
MTEXT
  5
3AB
100
AcDbEntity
  8
draw
  6
CONTINUOUS
 62
  256
370
   13
100
AcDbMText
 10
283.8820234611486
 20
-236.4138340385137
 30
0
 40
1.5
 41
40.54366801585606
 71
    1
 72
    1
  1
\P\PM 1:1\PDrilling drawing for front of box\PPozsar Zsolt - http://www.pozsarzs.hu
  7
unicode
210
0
220
0
230
1
 50
0
 73
    2
 44
1.2
  0
MTEXT
  5
3AC
100
AcDbEntity
  8
draw
  6
CONTINUOUS
 62
  256
370
   13
100
AcDbMText
 10
289.815547138978
 20
-254.4925389944
 30
0
 40
1.5
 41
8.666666666666666
 71
    1
 72
    1
  1
front.dxf
  7
unicode
210
0
220
0
230
1
 50
0
 73
    2
 44
1.2
  0
MTEXT
  5
3AD
100
AcDbEntity
  8
draw
  6
CONTINUOUS
 62
  256
370
   13
100
AcDbMText
 10
292.4114637480283
 20
-258.2009912930434
 30
0
 40
1.5
 41
33.66716700396402
 71
    1
 72
    1
  1
MM6D Grow house control device
  7
unicode
210
0
220
0
230
1
 50
0
 73
    2
 44
1.2
  0
MTEXT
  5
3AE
100
AcDbEntity
  8
draw
  6
CONTINUOUS
 62
  256
370
   13
100
AcDbMText
 10
312.6225287756346
 20
-262.0948662066189
 30
0
 40
1.5
 41
12.25
 71
    1
 72
    1
  1
2020. 06. 12.
  7
unicode
210
0
220
0
230
1
 50
0
 73
    2
 44
1.2
  0
MTEXT
  5
3AF
100
AcDbEntity
  8
draw
  6
CONTINUOUS
 62
  256
370
   13
100
AcDbMText
 10
374.7391047779108
 20
-262.0021548991529
 30
0
 40
1.5
 41
6.166666666666667
 71
    1
 72
    1
  1
231006
  7
unicode
210
0
220
0
230
1
 50
0
 73
    2
 44
1.2
  0
DIMENSION
  5
3B0
100
AcDbEntity
  8
draw
  6
CONTINUOUS
 62
  256
370
   25
100
AcDbDimension
  2
*D1
 10
320.0625743283759
 20
-37.02989330821825
 30
0
 11
318.1875743283759
 21
-18.51494665410912
 31
0
 70
   32
 71
    5
 72
    0
  3
Standard
 53
0
210
0
220
0
230
1
100
AcDbAlignedDimension
 13
294.9443949514726
 23
0
 33
0
 14
294.9443949514726
 24
-37.02989330821824
 34
0
 50
90
100
AcDbRotatedDimension
  0
DIMENSION
  5
3B1
100
AcDbEntity
  8
draw
  6
CONTINUOUS
 62
  256
370
   25
100
AcDbDimension
  2
*D2
 10
320.0381671876445
 20
-37.02451796199199
 30
0
 11
318.1631671876445
 21
-52.0046253145867
 31
0
 70
   32
 71
    5
 72
    0
  3
Standard
 53
0
210
0
220
0
230
1
100
AcDbAlignedDimension
 13
319.7858706427588
 23
-66.98473266718142
 33
0
 14
320.0381671876445
 24
-37.02451796199199
 34
0
 50
90
100
AcDbRotatedDimension
  0
DIMENSION
  5
3B2
100
AcDbEntity
  8
draw
  6
CONTINUOUS
 62
  256
370
   25
100
AcDbDimension
  2
*D3
 10
320.0456304348131
 20
-97.03294273055481
 30
0
 11
318.1706304348131
 21
-82.00883769886812
 31
0
 70
   32
 71
    5
 72
    0
  3
Standard
 53
0
210
0
220
0
230
1
100
AcDbAlignedDimension
 13
318.0828689647795
 23
-66.98473266718142
 33
0
 14
317.8440426585736
 24
-97.03294273055481
 34
0
 50
90
100
AcDbRotatedDimension
  0
DIMENSION
  5
3B3
100
AcDbEntity
  8
draw
  6
CONTINUOUS
 62
  256
370
   25
100
AcDbDimension
  2
*D4
 10
320.090119705663
 20
-137.2100951178843
 30
0
 11
318.215119705663
 21
-117.1215189242196
 31
0
 70
   32
 71
    5
 72
    0
  3
Standard
 53
0
210
0
220
0
230
1
100
AcDbAlignedDimension
 13
317.8440426585736
 23
-97.03294273055481
 33
0
 14
317.8867459154488
 24
-137.2100951178843
 34
0
 50
90
100
AcDbRotatedDimension
  0
DIMENSION
  5
3B4
100
AcDbEntity
  8
draw
  6
CONTINUOUS
 62
  256
370
   25
100
AcDbDimension
  2
*D5
 10
320.1321446803918
 20
-166.9730647464193
 30
0
 11
318.2571446803918
 21
-152.0104947236715
 31
0
 70
   32
 71
    5
 72
    0
  3
Standard
 53
0
210
0
220
0
230
1
100
AcDbAlignedDimension
 13
317.8421780609598
 23
-137.0479247009238
 33
0
 14
318.185207223604
 24
-166.9730647464193
 34
0
 50
90
100
AcDbRotatedDimension
  0
CIRCLE
  5
3B5
100
AcDbEntity
  8
draw
  6
CONTINUOUS
 62
  256
370
   50
100
AcDbCircle
 10
7
 20
-7
 40
5
  0
CIRCLE
  5
3B6
100
AcDbEntity
  8
draw
  6
CONTINUOUS
 62
  256
370
   50
100
AcDbCircle
 10
7
 20
-220
 40
5
  0
CIRCLE
  5
3B7
100
AcDbEntity
  8
draw
  6
CONTINUOUS
 62
  256
370
   50
100
AcDbCircle
 10
298
 20
-7
 40
5
  0
CIRCLE
  5
3B8
100
AcDbEntity
  8
draw
  6
CONTINUOUS
 62
  256
370
   50
100
AcDbCircle
 10
298
 20
-220
 40
5
  0
DIMENSION
  5
3B9
100
AcDbEntity
  8
draw
  6
CONTINUOUS
 62
  256
370
   25
100
AcDbDimension
  2
*D6
 10
44.80586103896272
 20
-88.07625953077098
 30
0
 11
41.69420736175571
 21
-88.50482953588143
 31
0
 70
   33
 71
    5
 72
    0
  3
Standard
 53
0
210
0
220
0
230
1
100
AcDbAlignedDimension
 13
48.18864007318949
 23
-98.71102318657272
 33
0
 14
51.78386583781226
 24
-95.17887155817139
 34
0
  0
DIMENSION
  5
3BA
100
AcDbEntity
  8
draw
  6
CONTINUOUS
 62
  256
370
   25
100
AcDbDimension
  2
*D7
 10
44.5656262426016
 20
-26.50774039869576
 30
0
 11
40.47236316938108
 21
-28.08923462893008
 31
0
 70
   33
 71
    5
 72
    0
  3
Standard
 53
0
210
0
220
0
230
1
100
AcDbAlignedDimension
 13
47.19005550023778
 23
-39.95857351788307
 33
0
 14
52.66002264073685
 24
-34.21047245498573
 34
0
  0
LINE
  5
3BB
100
AcDbEntity
  8
draw
  6
DASHDOT2
 62
  256
370
   25
100
AcDbLine
 10
80
 20
-27
 11
80
 21
-47
  0
LINE
  5
3BC
100
AcDbEntity
  8
draw
  6
CONTINUOUS
 62
  256
370
   25
100
AcDbLine
 10
80
 20
-47
 11
80
 21
-227
  0
LINE
  5
3BD
100
AcDbEntity
  8
draw
  6
DASHDOT2
 62
  256
370
   25
100
AcDbLine
 10
165
 20
-57
 11
165
 21
-77
  0
LINE
  5
3BE
100
AcDbEntity
  8
draw
  6
DASHDOT2
 62
  256
370
   25
100
AcDbLine
 10
195
 20
-27
 11
195
 21
-77
  0
LINE
  5
3BF
100
AcDbEntity
  8
draw
  6
DASHDOT2
 62
  256
370
   25
100
AcDbLine
 10
225
 20
-27
 11
225
 21
-77
  0
LINE
  5
3C0
100
AcDbEntity
  8
draw
  6
DASHDOT2
 62
  256
370
   25
100
AcDbLine
 10
255
 20
-27
 11
255
 21
-77
  0
LINE
  5
3C1
100
AcDbEntity
  8
draw
  6
CONTINUOUS
 62
  256
370
   25
100
AcDbLine
 10
255
 20
-77
 11
255
 21
-227
  0
LINE
  5
3C2
100
AcDbEntity
  8
draw
  6
CONTINUOUS
 62
  256
370
   25
100
AcDbLine
 10
195
 20
-77
 11
195
 21
-227
  0
LINE
  5
3C3
100
AcDbEntity
  8
draw
  6
CONTINUOUS
 62
  256
370
   25
100
AcDbLine
 10
165
 20
-77
 11
165
 21
-227
  0
LINE
  5
3C4
100
AcDbEntity
  8
draw
  6
CONTINUOUS
 62
  256
370
   25
100
AcDbLine
 10
225
 20
-77
 11
225
 21
-227
  0
DIMENSION
  5
3C5
100
AcDbEntity
  8
draw
  6
CONTINUOUS
 62
  256
370
   25
100
AcDbDimension
  2
*D8
 10
50.00969982029973
 20
-240.1880257002175
 30
0
 11
24.9367127381885
 21
-238.3130257002175
 31
0
 70
   32
 71
    5
 72
    0
  3
Standard
 53
0
210
0
220
0
230
1
100
AcDbAlignedDimension
 13
-0.1362743439227279
 23
-220.2193397791282
 33
0
 14
50.00969982029973
 24
-220.1890490624514
 34
0
100
AcDbRotatedDimension
  0
DIMENSION
  5
3C6
100
AcDbEntity
  8
draw
  6
CONTINUOUS
 62
  256
370
   25
100
AcDbDimension
  2
*D9
 10
79.99102253670281
 20
-240.2176884741351
 30
0
 11
64.98760954307048
 21
-238.3426884741351
 31
0
 70
   32
 71
    5
 72
    0
  3
Standard
 53
0
210
0
220
0
230
1
100
AcDbAlignedDimension
 13
49.98419654943815
 23
-227.0081618166979
 33
0
 14
79.99102253670281
 24
-227.0081618166979
 34
0
100
AcDbRotatedDimension
  0
DIMENSION
  5
3C7
100
AcDbEntity
  8
draw
  6
CONTINUOUS
 62
  256
370
   25
100
AcDbDimension
  2
*D10
 10
165.0076144314677
 20
-240.3058810491441
 30
0
 11
122.5006869128909
 21
-238.4308810491441
 31
0
 70
   32
 71
    5
 72
    0
  3
Standard
 53
0
210
0
220
0
230
1
100
AcDbAlignedDimension
 13
79.9937593943141
 23
-227.0003213880259
 33
0
 14
165.0076144314677
 24
-226.9708522575954
 34
0
100
AcDbRotatedDimension
  0
DIMENSION
  5
3C8
100
AcDbEntity
  8
draw
  6
CONTINUOUS
 62
  256
370
   25
100
AcDbDimension
  2
*D11
 10
194.9628286292125
 20
-240.2992287621452
 30
0
 11
180.0001857795845
 21
-238.4242287621452
 31
0
 70
   32
 71
    5
 72
    0
  3
Standard
 53
0
210
0
220
0
230
1
100
AcDbAlignedDimension
 13
165.0375429299565
 23
-227.0081618166991
 33
0
 14
194.9628286292125
 24
-227.089702104708
 34
0
100
AcDbRotatedDimension
  0
DIMENSION
  5
3C9
100
AcDbEntity
  8
draw
  6
CONTINUOUS
 62
  256
370
   25
100
AcDbDimension
  2
*D12
 10
224.9696546164773
 20
-240.2992287621452
 30
0
 11
209.9662416228449
 21
-238.4242287621452
 31
0
 70
   32
 71
    5
 72
    0
  3
Standard
 53
0
210
0
220
0
230
1
100
AcDbAlignedDimension
 13
194.9628286292125
 23
-227.089702104708
 33
0
 14
224.9696546164773
 24
-226.9266215286902
 34
0
100
AcDbRotatedDimension
  0
DIMENSION
  5
3CA
100
AcDbEntity
  8
draw
  6
CONTINUOUS
 62
  256
370
   25
100
AcDbDimension
  2
*D13
 10
254.9764806037421
 20
-240.2992287621452
 30
0
 11
239.9730676101097
 21
-238.4242287621452
 31
0
 70
   32
 71
    5
 72
    0
  3
Standard
 53
0
210
0
220
0
230
1
100
AcDbAlignedDimension
 13
224.9696546164773
 23
-227.0081618166991
 33
0
 14
254.9764806037421
 24
-226.9266215286902
 34
0
100
AcDbRotatedDimension
  0
MTEXT
  5
3CB
100
AcDbEntity
  8
draw
  6
CONTINUOUS
 62
  256
370
   25
100
AcDbMText
 10
-0.1054127565889417
 20
-248.4578672801356
 30
0
 40
1.5
 41
39.70666666666666
 71
    1
 72
    1
  1
Box: Elettrocanali 400C8 (220x300x120)
  7
unicode
210
0
220
0
230
1
 50
0
 73
    2
 44
1.2
  0
ENDSEC
  0
SECTION
  2
OBJECTS
  0
DICTIONARY
  5
C
330
0
100
AcDbDictionary
281
    1
  3
ACAD_GROUP
350
D
  0
DICTIONARY
  5
D
330
C
100
AcDbDictionary
281
    1
  0
ENDSEC
  0
EOF
