999
dxfrw 0.6.3
  0
SECTION
  2
HEADER
  9
$ACADVER
  1
AC1021
  9
$DWGCODEPAGE
  3
ANSI_1250
  9
$INSBASE
 10
0
 20
0
 30
0
  9
$EXTMIN
 10
10.0076
 20
-286.995
 30
0
  9
$EXTMAX
 10
409.981
 20
-10.0076
 30
0
  9
$LIMMIN
 10
0
 20
0
  9
$LIMMAX
 10
420
 20
297
  9
$ORTHOMODE
 70
    0
  9
$REGENMODE
 70
    1
  9
$FILLMODE
 70
    1
  9
$QTEXTMODE
 70
    0
  9
$MIRRTEXT
 70
    0
  9
$LTSCALE
 40
1
  9
$ATTMODE
 70
    0
  9
$TEXTSIZE
 40
2.5
  9
$TRACEWID
 40
15.68
  9
$TEXTSTYLE
  7
STANDARD
  9
$CLAYER
  8
draw
  9
$CELTYPE
  6
BYLAYER
  9
$CECOLOR
 62
  256
  9
$CELTSCALE
 40
1
  9
$DISPSILH
 70
    0
  9
$DIMSCALE
 40
1
  9
$DIMASZ
 40
2.5
  9
$DIMEXO
 40
0.625
  9
$DIMDLI
 40
3.75
  9
$DIMRND
 40
0
  9
$DIMDLE
 40
0
  9
$DIMEXE
 40
1.25
  9
$DIMTP
 40
0
  9
$DIMTM
 40
0
  9
$DIMTXT
 40
2.5
  9
$DIMCEN
 40
2.5
  9
$DIMTSZ
 40
0
  9
$DIMTOL
 70
    0
  9
$DIMLIM
 70
    0
  9
$DIMTIH
 70
    0
  9
$DIMTOH
 70
    0
  9
$DIMSE1
 70
    0
  9
$DIMSE2
 70
    0
  9
$DIMTAD
 70
    1
  9
$DIMZIN
 70
    1
  9
$DIMBLK
  1

  9
$DIMASO
 70
    1
  9
$DIMSHO
 70
    1
  9
$DIMPOST
  1

  9
$DIMAPOST
  1

  9
$DIMALT
 70
    0
  9
$DIMALTD
 70
    3
  9
$DIMALTF
 40
0.03937
  9
$DIMLFAC
 40
1
  9
$DIMTOFL
 70
    1
  9
$DIMTVP
 40
0
  9
$DIMTIX
 70
    0
  9
$DIMSOXD
 70
    0
  9
$DIMSAH
 70
    0
  9
$DIMBLK1
  1

  9
$DIMBLK2
  1

  9
$DIMSTYLE
  2
Standard
  9
$DIMCLRD
 70
    0
  9
$DIMCLRE
 70
    0
  9
$DIMCLRT
 70
    0
  9
$DIMTFAC
 40
1
  9
$DIMGAP
 40
0.625
  9
$DIMJUST
 70
    0
  9
$DIMSD1
 70
    0
  9
$DIMSD2
 70
    0
  9
$DIMTOLJ
 70
    0
  9
$DIMTZIN
 70
    8
  9
$DIMALTZ
 70
    0
  9
$DIMALTTZ
 70
    0
  9
$DIMUPT
 70
    0
  9
$DIMDEC
 70
    4
  9
$DIMTDEC
 70
    2
  9
$DIMALTU
 70
    2
  9
$DIMALTTD
 70
    3
  9
$DIMTXSTY
  7
standard
  9
$DIMAUNIT
 70
    0
  9
$DIMADEC
 70
    2
  9
$DIMALTRND
 40
0
  9
$DIMAZIN
 70
    0
  9
$DIMDSEP
 70
    0
  9
$DIMATFIT
 70
    3
  9
$DIMFRAC
 70
    0
  9
$DIMLDRBLK
  1
STANDARD
  9
$DIMLUNIT
 70
    2
  9
$DIMLWD
 70
   -2
  9
$DIMLWE
 70
   -2
  9
$DIMTMOVE
 70
    0
  9
$DIMFXL
 40
1
  9
$DIMFXLON
 70
    0
  9
$DIMJOGANG
 40
0.7854
  9
$DIMTFILL
 70
    0
  9
$DIMTFILLCLR
 70
    0
  9
$DIMARCSYM
 70
    0
  9
$DIMLTYPE
  6

  9
$DIMLTEX1
  6

  9
$DIMLTEX2
  6

  9
$LUNITS
 70
    2
  9
$LUPREC
 70
    4
  9
$SKETCHINC
 40
1
  9
$FILLETRAD
 40
0
  9
$AUNITS
 70
    0
  9
$AUPREC
 70
    2
  9
$MENU
  1
.
  9
$ELEVATION
 40
0
  9
$PELEVATION
 40
0
  9
$THICKNESS
 40
0
  9
$LIMCHECK
 70
    0
  9
$CHAMFERA
 40
0
  9
$CHAMFERB
 40
0
  9
$CHAMFERC
 40
0
  9
$CHAMFERD
 40
0
  9
$SKPOLY
 70
    0
  9
$USRTIMER
 70
    1
  9
$ANGBASE
 50
0
  9
$ANGDIR
 70
    1
  9
$PDMODE
 70
   34
  9
$PDSIZE
 40
0
  9
$PLINEWID
 40
0
  9
$SPLFRAME
 70
    0
  9
$SPLINETYPE
 70
    2
  9
$SPLINESEGS
 70
    8
  9
$HANDSEED
  5
20000
  9
$SURFTAB1
 70
    6
  9
$SURFTAB2
 70
    6
  9
$SURFTYPE
 70
    6
  9
$SURFU
 70
    6
  9
$SURFV
 70
    6
  9
$UCSBASE
  2

  9
$UCSNAME
  2

  9
$UCSORG
 10
0
 20
0
 30
0
  9
$UCSXDIR
 10
1
 20
0
 30
0
  9
$UCSYDIR
 10
0
 20
1
 30
0
  9
$UCSORTHOREF
  2

  9
$UCSORTHOVIEW
 70
    0
  9
$UCSORGTOP
 10
0
 20
0
 30
0
  9
$UCSORGBOTTOM
 10
0
 20
0
 30
0
  9
$UCSORGLEFT
 10
0
 20
0
 30
0
  9
$UCSORGRIGHT
 10
0
 20
0
 30
0
  9
$UCSORGFRONT
 10
0
 20
0
 30
0
  9
$UCSORGBACK
 10
0
 20
0
 30
0
  9
$PUCSBASE
  2

  9
$PUCSNAME
  2

  9
$PUCSORG
 10
0
 20
0
 30
0
  9
$PUCSXDIR
 10
1
 20
0
 30
0
  9
$PUCSYDIR
 10
0
 20
1
 30
0
  9
$PUCSORTHOREF
  2

  9
$PUCSORTHOVIEW
 70
    0
  9
$PUCSORGTOP
 10
0
 20
0
 30
0
  9
$PUCSORGBOTTOM
 10
0
 20
0
 30
0
  9
$PUCSORGLEFT
 10
0
 20
0
 30
0
  9
$PUCSORGRIGHT
 10
0
 20
0
 30
0
  9
$PUCSORGFRONT
 10
0
 20
0
 30
0
  9
$PUCSORGBACK
 10
0
 20
0
 30
0
  9
$USERI1
 70
    0
  9
$USERI2
 70
    0
  9
$USERI3
 70
    0
  9
$USERI4
 70
    0
  9
$USERI5
 70
    0
  9
$USERR1
 40
0
  9
$USERR2
 40
0
  9
$USERR3
 40
0
  9
$USERR4
 40
0
  9
$USERR5
 40
0
  9
$WORLDVIEW
 70
    1
  9
$SHADEDGE
 70
    3
  9
$SHADEDIF
 70
   70
  9
$TILEMODE
 70
    1
  9
$MAXACTVP
 70
   64
  9
$PINSBASE
 10
0
 20
0
 30
0
  9
$PLIMCHECK
 70
    0
  9
$PEXTMIN
 10
0
 20
0
 30
0
  9
$PEXTMAX
 10
0
 20
0
 30
0
  9
$GRIDMODE
 70
    1
  9
$SNAPSTYLE
 70
    0
  9
$GRIDUNIT
 10
0
 20
0
  9
$PLIMMIN
 10
0
 20
0
  9
$PLIMMAX
 10
420
 20
297
  9
$UNITMODE
 70
    0
  9
$VISRETAIN
 70
    1
  9
$PLINEGEN
 70
    0
  9
$PSLTSCALE
 70
    1
  9
$TREEDEPTH
 70
 3020
  9
$CMLSTYLE
  2
Standard
  9
$CMLJUST
 70
    0
  9
$CMLSCALE
 40
20
  9
$PROXYGRAPHICS
 70
    1
  9
$MEASUREMENT
 70
    0
  9
$CELWEIGHT
370
   -1
  9
$ENDCAPS
280
    0
  9
$JOINSTYLE
280
    0
  9
$LWDISPLAY
290
    0
  9
$INSUNITS
 70
    4
  9
$HYPERLINKBASE
  1

  9
$STYLESHEET
  1

  9
$XEDIT
290
    1
  9
$CEPSNTYPE
380
    0
  9
$PSTYLEMODE
290
    1
  9
$EXTNAMES
290
    1
  9
$PSVPSCALE
 40
1
  9
$OLESTARTUP
290
    0
  9
$SORTENTS
280
  127
  9
$INDEXCTL
280
    0
  9
$HIDETEXT
280
    1
  9
$XCLIPFRAME
290
    0
  9
$HALOGAP
280
    0
  9
$OBSCOLOR
 70
  257
  9
$OBSLTYPE
280
    0
  9
$INTERSECTIONDISPLAY
280
    0
  9
$INTERSECTIONCOLOR
 70
  257
  9
$DIMASSOC
280
    1
  9
$PROJECTNAME
  1

  9
$CAMERADISPLAY
290
    0
  9
$LENSLENGTH
 40
50
  9
$CAMERAHEIGHT
 40
0
  9
$STEPSPERSEC
 40
2
  9
$STEPSIZE
 40
50
  9
$3DDWFPREC
 40
2
  9
$PSOLWIDTH
 40
5
  9
$PSOLHEIGHT
 40
80
  9
$LOFTANG1
 40
1.570796326794897
  9
$LOFTANG2
 40
1.570796326794897
  9
$LOFTMAG1
 40
0
  9
$LOFTMAG2
 40
0
  9
$LOFTPARAM
 70
    7
  9
$LOFTNORMALS
280
    1
  9
$LATITUDE
 40
1
  9
$LONGITUDE
 40
1
  9
$NORTHDIRECTION
 40
0
  9
$TIMEZONE
 70
-8000
  9
$LIGHTGLYPHDISPLAY
280
    1
  9
$TILEMODELIGHTSYNCH
280
    1
  9
$SOLIDHIST
280
    1
  9
$SHOWHIST
280
    1
  9
$DWFFRAME
280
    2
  9
$DGNFRAME
280
    0
  9
$REALWORLDSCALE
290
    1
  9
$INTERFERECOLOR
 62
    1
  9
$CSHADOW
280
    0
  9
$SHADOWPLANELOCATION
 40
0
  0
ENDSEC
  0
SECTION
  2
CLASSES
  0
ENDSEC
  0
SECTION
  2
TABLES
  0
TABLE
  2
VPORT
  5
8
330
0
100
AcDbSymbolTable
 70
    1
  0
VPORT
  5
31
330
2
100
AcDbSymbolTableRecord
100
AcDbViewportTableRecord
  2
*ACTIVE
 70
    0
 10
0
 20
0
 11
1
 21
1
 12
236.015446111842
 22
24.78860454724968
 13
0
 23
0
 14
10
 24
10
 15
10
 25
10
 16
0
 26
0
 36
1
 17
0
 27
0
 37
0
 40
424.5484947810648
 41
1.199013157894737
 42
50
 43
0
 44
0
 50
0
 51
0
 71
    0
 72
  100
 73
    1
 74
    3
 75
    0
 76
    1
 77
    0
 78
    0
281
    0
 65
    1
110
0
120
0
130
0
111
1
121
0
131
0
112
0
122
1
132
0
 79
    0
146
0
348
10020
 60
    7
 61
    5
292
1
282
    1
141
0
142
0
 63
  250
421
3358443
  0
ENDTAB
  0
TABLE
  2
LTYPE
  5
5
330
0
100
AcDbSymbolTable
 70
    4
  0
LTYPE
  5
14
330
5
100
AcDbSymbolTableRecord
100
AcDbLinetypeTableRecord
  2
ByBlock
 70
    0
  3

 72
   65
 73
    0
 40
0
  0
LTYPE
  5
15
330
5
100
AcDbSymbolTableRecord
100
AcDbLinetypeTableRecord
  2
ByLayer
 70
    0
  3

 72
   65
 73
    0
 40
0
  0
LTYPE
  5
16
330
5
100
AcDbSymbolTableRecord
100
AcDbLinetypeTableRecord
  2
Continuous
 70
    0
  3
Solid line
 72
   65
 73
    0
 40
0
  0
LTYPE
  5
32
330
5
100
AcDbSymbolTableRecord
100
AcDbLinetypeTableRecord
  2
DOT
 70
    0
  3
Dot . . . . . . . . . . . . . . . . . . . . . .
 72
   65
 73
    2
 40
6.35
 49
0
 74
    0
 49
-6.35
 74
    0
  0
LTYPE
  5
33
330
5
100
AcDbSymbolTableRecord
100
AcDbLinetypeTableRecord
  2
DOTTINY
 70
    0
  3
Dot (.15x) .....................................
 72
   65
 73
    2
 40
0.9525
 49
0
 74
    0
 49
-0.9525
 74
    0
  0
LTYPE
  5
34
330
5
100
AcDbSymbolTableRecord
100
AcDbLinetypeTableRecord
  2
DOT2
 70
    0
  3
Dot (.5x) .....................................
 72
   65
 73
    2
 40
3.175
 49
0
 74
    0
 49
-3.175
 74
    0
  0
LTYPE
  5
35
330
5
100
AcDbSymbolTableRecord
100
AcDbLinetypeTableRecord
  2
DOTX2
 70
    0
  3
Dot (2x) .  .  .  .  .  .  .  .  .  .  .  .  .
 72
   65
 73
    2
 40
12.7
 49
0
 74
    0
 49
-12.7
 74
    0
  0
LTYPE
  5
36
330
5
100
AcDbSymbolTableRecord
100
AcDbLinetypeTableRecord
  2
DASHED
 70
    0
  3
Dashed _ _ _ _ _ _ _ _ _ _ _ _ _ _ _ _ _
 72
   65
 73
    2
 40
19.05
 49
12.7
 74
    0
 49
-6.35
 74
    0
  0
LTYPE
  5
37
330
5
100
AcDbSymbolTableRecord
100
AcDbLinetypeTableRecord
  2
DASHEDTINY
 70
    0
  3
Dashed (.15x) _ _ _ _ _ _ _ _ _ _ _ _ _ _ _ _ _
 72
   65
 73
    2
 40
2.8575
 49
1.905
 74
    0
 49
-0.9525
 74
    0
  0
LTYPE
  5
38
330
5
100
AcDbSymbolTableRecord
100
AcDbLinetypeTableRecord
  2
DASHED2
 70
    0
  3
Dashed (.5x) _ _ _ _ _ _ _ _ _ _ _ _ _ _ _ _ _
 72
   65
 73
    2
 40
9.524999999999999
 49
6.35
 74
    0
 49
-3.175
 74
    0
  0
LTYPE
  5
39
330
5
100
AcDbSymbolTableRecord
100
AcDbLinetypeTableRecord
  2
DASHEDX2
 70
    0
  3
Dashed (2x) ____  ____  ____  ____  ____  ___
 72
   65
 73
    2
 40
38.09999999999999
 49
25.4
 74
    0
 49
-12.7
 74
    0
  0
LTYPE
  5
3A
330
5
100
AcDbSymbolTableRecord
100
AcDbLinetypeTableRecord
  2
DASHDOT
 70
    0
  3
Dash dot __ . __ . __ . __ . __ . __ . __ . __
 72
   65
 73
    4
 40
25.4
 49
12.7
 74
    0
 49
-6.35
 74
    0
 49
0
 74
    0
 49
-6.35
 74
    0
  0
LTYPE
  5
3B
330
5
100
AcDbSymbolTableRecord
100
AcDbLinetypeTableRecord
  2
DASHDOTTINY
 70
    0
  3
Dash dot (.15x) _._._._._._._._._._._._._._._.
 72
   65
 73
    4
 40
3.81
 49
1.905
 74
    0
 49
-0.9525
 74
    0
 49
0
 74
    0
 49
-0.9525
 74
    0
  0
LTYPE
  5
3C
330
5
100
AcDbSymbolTableRecord
100
AcDbLinetypeTableRecord
  2
DASHDOT2
 70
    0
  3
Dash dot (.5x) _._._._._._._._._._._._._._._.
 72
   65
 73
    4
 40
12.7
 49
6.35
 74
    0
 49
-3.175
 74
    0
 49
0
 74
    0
 49
-3.175
 74
    0
  0
LTYPE
  5
3D
330
5
100
AcDbSymbolTableRecord
100
AcDbLinetypeTableRecord
  2
DASHDOTX2
 70
    0
  3
Dash dot (2x) ____  .  ____  .  ____  .  ___
 72
   65
 73
    4
 40
50.8
 49
25.4
 74
    0
 49
-12.7
 74
    0
 49
0
 74
    0
 49
-12.7
 74
    0
  0
LTYPE
  5
3E
330
5
100
AcDbSymbolTableRecord
100
AcDbLinetypeTableRecord
  2
DIVIDE
 70
    0
  3
Divide ____ . . ____ . . ____ . . ____ . . ____
 72
   65
 73
    6
 40
31.75
 49
12.7
 74
    0
 49
-6.35
 74
    0
 49
0
 74
    0
 49
-6.35
 74
    0
 49
0
 74
    0
 49
-6.35
 74
    0
  0
LTYPE
  5
3F
330
5
100
AcDbSymbolTableRecord
100
AcDbLinetypeTableRecord
  2
DIVIDETINY
 70
    0
  3
Divide (.15x) __..__..__..__..__..__..__..__.._
 72
   65
 73
    6
 40
4.7625
 49
1.905
 74
    0
 49
-0.9525
 74
    0
 49
0
 74
    0
 49
-0.9525
 74
    0
 49
0
 74
    0
 49
-0.9525
 74
    0
  0
LTYPE
  5
40
330
5
100
AcDbSymbolTableRecord
100
AcDbLinetypeTableRecord
  2
DIVIDE2
 70
    0
  3
Divide (.5x) __..__..__..__..__..__..__..__.._
 72
   65
 73
    6
 40
15.875
 49
6.35
 74
    0
 49
-3.175
 74
    0
 49
0
 74
    0
 49
-3.175
 74
    0
 49
0
 74
    0
 49
-3.175
 74
    0
  0
LTYPE
  5
41
330
5
100
AcDbSymbolTableRecord
100
AcDbLinetypeTableRecord
  2
DIVIDEX2
 70
    0
  3
Divide (2x) ________  .  .  ________  .  .  _
 72
   65
 73
    6
 40
63.5
 49
25.4
 74
    0
 49
-12.7
 74
    0
 49
0
 74
    0
 49
-12.7
 74
    0
 49
0
 74
    0
 49
-12.7
 74
    0
  0
LTYPE
  5
42
330
5
100
AcDbSymbolTableRecord
100
AcDbLinetypeTableRecord
  2
BORDER
 70
    0
  3
Border __ __ . __ __ . __ __ . __ __ . __ __ .
 72
   65
 73
    6
 40
44.45
 49
12.7
 74
    0
 49
-6.35
 74
    0
 49
12.7
 74
    0
 49
-6.35
 74
    0
 49
0
 74
    0
 49
-6.35
 74
    0
  0
LTYPE
  5
43
330
5
100
AcDbSymbolTableRecord
100
AcDbLinetypeTableRecord
  2
BORDERTINY
 70
    0
  3
Border (.15x) __.__.__.__.__.__.__.__.__.__.__.
 72
   65
 73
    6
 40
6.6675
 49
1.905
 74
    0
 49
-0.9525
 74
    0
 49
1.905
 74
    0
 49
-0.9525
 74
    0
 49
0
 74
    0
 49
-0.9525
 74
    0
  0
LTYPE
  5
44
330
5
100
AcDbSymbolTableRecord
100
AcDbLinetypeTableRecord
  2
BORDER2
 70
    0
  3
Border (.5x) __.__.__.__.__.__.__.__.__.__.__.
 72
   65
 73
    6
 40
22.225
 49
6.35
 74
    0
 49
-3.175
 74
    0
 49
6.35
 74
    0
 49
-3.175
 74
    0
 49
0
 74
    0
 49
-3.175
 74
    0
  0
LTYPE
  5
45
330
5
100
AcDbSymbolTableRecord
100
AcDbLinetypeTableRecord
  2
BORDERX2
 70
    0
  3
Border (2x) ____  ____  .  ____  ____  .  ___
 72
   65
 73
    6
 40
88.89999999999999
 49
25.4
 74
    0
 49
-12.7
 74
    0
 49
25.4
 74
    0
 49
-12.7
 74
    0
 49
0
 74
    0
 49
-12.7
 74
    0
  0
LTYPE
  5
46
330
5
100
AcDbSymbolTableRecord
100
AcDbLinetypeTableRecord
  2
CENTER
 70
    0
  3
Center ____ _ ____ _ ____ _ ____ _ ____ _ ____
 72
   65
 73
    4
 40
50.8
 49
31.75
 74
    0
 49
-6.35
 74
    0
 49
6.35
 74
    0
 49
-6.35
 74
    0
  0
LTYPE
  5
47
330
5
100
AcDbSymbolTableRecord
100
AcDbLinetypeTableRecord
  2
CENTERTINY
 70
    0
  3
Center (.15x) ___ _ ___ _ ___ _ ___ _ ___ _ ___
 72
   65
 73
    4
 40
7.62
 49
4.7625
 74
    0
 49
-0.9525
 74
    0
 49
0.9525
 74
    0
 49
-0.9525
 74
    0
  0
LTYPE
  5
48
330
5
100
AcDbSymbolTableRecord
100
AcDbLinetypeTableRecord
  2
CENTER2
 70
    0
  3
Center (.5x) ___ _ ___ _ ___ _ ___ _ ___ _ ___
 72
   65
 73
    4
 40
28.575
 49
19.05
 74
    0
 49
-3.175
 74
    0
 49
3.175
 74
    0
 49
-3.175
 74
    0
  0
LTYPE
  5
49
330
5
100
AcDbSymbolTableRecord
100
AcDbLinetypeTableRecord
  2
CENTERX2
 70
    0
  3
Center (2x) ________  __  ________  __  _____
 72
   65
 73
    4
 40
101.6
 49
63.5
 74
    0
 49
-12.7
 74
    0
 49
12.7
 74
    0
 49
-12.7
 74
    0
  0
ENDTAB
  0
TABLE
  2
LAYER
  5
2
330
0
100
AcDbSymbolTable
 70
    1
  0
LAYER
  5
10
330
2
100
AcDbSymbolTableRecord
100
AcDbLayerTableRecord
  2
0
 70
    0
 62
    7
  6
CONTINUOUS
370
    0
390
F
  0
LAYER
  5
4A
330
2
100
AcDbSymbolTableRecord
100
AcDbLayerTableRecord
  2
BLACK
 70
    0
 62
    7
  6
CONTINUOUS
370
   -3
390
F
  0
LAYER
  5
4B
330
2
100
AcDbSymbolTableRecord
100
AcDbLayerTableRecord
  2
BLUE1
 70
    0
 62
  178
  6
CONTINUOUS
370
   -3
390
F
  0
LAYER
  5
4C
330
2
100
AcDbSymbolTableRecord
100
AcDbLayerTableRecord
  2
BLUE2
 70
    0
 62
    5
  6
CONTINUOUS
370
   -3
390
F
  0
LAYER
  5
4D
330
2
100
AcDbSymbolTableRecord
100
AcDbLayerTableRecord
  2
BLUE3
 70
    0
 62
  171
  6
CONTINUOUS
370
   -3
390
F
  0
LAYER
  5
4E
330
2
100
AcDbSymbolTableRecord
100
AcDbLayerTableRecord
  2
BLUE4
 70
    0
 62
    5
  6
CONTINUOUS
370
   -3
390
F
  0
LAYER
  5
4F
330
2
100
AcDbSymbolTableRecord
100
AcDbLayerTableRecord
  2
BROWN1
 70
    0
 62
   58
  6
CONTINUOUS
370
   -3
390
F
  0
LAYER
  5
50
330
2
100
AcDbSymbolTableRecord
100
AcDbLayerTableRecord
  2
BROWN2
 70
    0
 62
   54
  6
CONTINUOUS
370
   -3
390
F
  0
LAYER
  5
51
330
2
100
AcDbSymbolTableRecord
100
AcDbLayerTableRecord
  2
CYAN1
 70
    0
 62
  138
  6
CONTINUOUS
370
   -3
390
F
  0
LAYER
  5
52
330
2
100
AcDbSymbolTableRecord
100
AcDbLayerTableRecord
  2
CYAN2
 70
    0
 62
    4
  6
CONTINUOUS
370
   -3
390
F
  0
LAYER
  5
53
330
2
100
AcDbSymbolTableRecord
100
AcDbLayerTableRecord
  2
CYAN3
 70
    0
 62
  131
  6
CONTINUOUS
370
   -3
390
F
  0
LAYER
  5
54
330
2
100
AcDbSymbolTableRecord
100
AcDbLayerTableRecord
  2
CYAN4
 70
    0
 62
    4
  6
CONTINUOUS
370
   -3
390
F
  0
LAYER
  5
55
330
2
100
AcDbSymbolTableRecord
100
AcDbLayerTableRecord
  2
GRAY1
 70
    0
 62
  251
  6
CONTINUOUS
370
   -3
390
F
  0
LAYER
  5
56
330
2
100
AcDbSymbolTableRecord
100
AcDbLayerTableRecord
  2
GRAY2
 70
    0
 62
    8
  6
CONTINUOUS
370
   -3
390
F
  0
LAYER
  5
57
330
2
100
AcDbSymbolTableRecord
100
AcDbLayerTableRecord
  2
GRAY3
 70
    0
 62
    9
  6
CONTINUOUS
370
   -3
390
F
  0
LAYER
  5
58
330
2
100
AcDbSymbolTableRecord
100
AcDbLayerTableRecord
  2
GREEN1
 70
    0
 62
   98
  6
CONTINUOUS
370
   -3
390
F
  0
LAYER
  5
59
330
2
100
AcDbSymbolTableRecord
100
AcDbLayerTableRecord
  2
GREEN2
 70
    0
 62
    3
  6
CONTINUOUS
370
   -3
390
F
  0
LAYER
  5
5A
330
2
100
AcDbSymbolTableRecord
100
AcDbLayerTableRecord
  2
GREEN3
 70
    0
 62
   91
  6
CONTINUOUS
370
   -3
390
F
  0
LAYER
  5
5B
330
2
100
AcDbSymbolTableRecord
100
AcDbLayerTableRecord
  2
GREEN4
 70
    0
 62
    3
  6
CONTINUOUS
370
   -3
390
F
  0
LAYER
  5
5C
330
2
100
AcDbSymbolTableRecord
100
AcDbLayerTableRecord
  2
LYELLOW
 70
    0
 62
   51
  6
CONTINUOUS
370
   -3
390
F
  0
LAYER
  5
5D
330
2
100
AcDbSymbolTableRecord
100
AcDbLayerTableRecord
  2
MAGENTA1
 70
    0
 62
  228
  6
CONTINUOUS
370
   -3
390
F
  0
LAYER
  5
5E
330
2
100
AcDbSymbolTableRecord
100
AcDbLayerTableRecord
  2
MAGENTA2
 70
    0
 62
    6
  6
CONTINUOUS
370
   -3
390
F
  0
LAYER
  5
5F
330
2
100
AcDbSymbolTableRecord
100
AcDbLayerTableRecord
  2
MAGENTA3
 70
    0
 62
  221
  6
CONTINUOUS
370
   -3
390
F
  0
LAYER
  5
60
330
2
100
AcDbSymbolTableRecord
100
AcDbLayerTableRecord
  2
MAGENTA4
 70
    0
 62
    6
  6
CONTINUOUS
370
   -3
390
F
  0
LAYER
  5
61
330
2
100
AcDbSymbolTableRecord
100
AcDbLayerTableRecord
  2
RED1
 70
    0
 62
   18
  6
CONTINUOUS
370
   -3
390
F
  0
LAYER
  5
62
330
2
100
AcDbSymbolTableRecord
100
AcDbLayerTableRecord
  2
RED2
 70
    0
 62
    1
  6
CONTINUOUS
370
   -3
390
F
  0
LAYER
  5
63
330
2
100
AcDbSymbolTableRecord
100
AcDbLayerTableRecord
  2
RED3
 70
    0
 62
   11
  6
CONTINUOUS
370
   -3
390
F
  0
LAYER
  5
64
330
2
100
AcDbSymbolTableRecord
100
AcDbLayerTableRecord
  2
RED4
 70
    1
 62
    1
  6
CONTINUOUS
370
   -3
390
F
  0
LAYER
  5
65
330
2
100
AcDbSymbolTableRecord
100
AcDbLayerTableRecord
  2
Red 2
 70
    0
 62
    7
  6
CONTINUOUS
370
   -3
390
F
  0
LAYER
  5
66
330
2
100
AcDbSymbolTableRecord
100
AcDbLayerTableRecord
  2
WHITE
 70
    0
 62
    7
  6
CONTINUOUS
370
   -3
390
F
  0
LAYER
  5
67
330
2
100
AcDbSymbolTableRecord
100
AcDbLayerTableRecord
  2
YELLOW3
 70
    0
 62
    2
  6
CONTINUOUS
370
   -3
390
F
  0
LAYER
  5
68
330
2
100
AcDbSymbolTableRecord
100
AcDbLayerTableRecord
  2
YELLOW4
 70
    0
 62
    2
  6
CONTINUOUS
370
   -3
390
F
  0
LAYER
  5
69
330
2
100
AcDbSymbolTableRecord
100
AcDbLayerTableRecord
  2
draw
 70
    0
 62
    7
  6
CONTINUOUS
370
   50
390
F
  0
ENDTAB
  0
TABLE
  2
STYLE
  5
3
330
0
100
AcDbSymbolTable
 70
    3
  0
STYLE
  5
6A
330
2
100
AcDbSymbolTableRecord
100
AcDbTextStyleTableRecord
  2
Standard
 70
    0
 40
0
 41
1
 50
0
 71
    0
 42
1
  3
txt
  4

  0
ENDTAB
  0
TABLE
  2
VIEW
  5
6
330
0
100
AcDbSymbolTable
 70
    0
  0
ENDTAB
  0
TABLE
  2
UCS
  5
7
330
0
100
AcDbSymbolTable
 70
    0
  0
ENDTAB
  0
TABLE
  2
APPID
  5
9
330
0
100
AcDbSymbolTable
 70
    1
  0
APPID
  5
12
330
9
100
AcDbSymbolTableRecord
100
AcDbRegAppTableRecord
  2
ACAD
 70
    0
  0
APPID
  5
6B
330
9
100
AcDbSymbolTableRecord
100
AcDbRegAppTableRecord
  2
LibreCad
 70
    0
  0
ENDTAB
  0
TABLE
  2
DIMSTYLE
  5
A
330
0
100
AcDbSymbolTable
 70
    1
100
AcDbDimStyleTable
 71
    1
  0
DIMSTYLE
105
6C
330
A
100
AcDbSymbolTableRecord
100
AcDbDimStyleTableRecord
  2
Standard
 70
    0
 40
1
 41
2.5
 42
0.625
 43
0.38
 44
1.25
 45
0
 46
0
 47
0
 48
0
 49
1
140
2.5
141
0.09
142
0
143
25.4
144
1
145
0
146
1
147
0.625
148
0
 71
    0
 72
    0
 73
    0
 74
    1
 75
    0
 76
    0
 77
    0
 78
    1
 79
    0
170
    0
171
    2
172
    0
173
    0
174
    0
175
    0
176
    0
177
    0
178
    0
179
    2
271
    4
272
    4
273
    2
274
    2
275
    0
276
    0
277
    2
278
    0
279
    0
280
    0
281
    0
282
    0
283
    1
284
    0
285
    0
286
    0
288
    0
289
    3
340
standard
341

371
   -2
372
   -2
  0
ENDTAB
  0
TABLE
  2
BLOCK_RECORD
  5
1
330
0
100
AcDbSymbolTable
 70
    2
  0
BLOCK_RECORD
  5
1F
330
1
100
AcDbSymbolTableRecord
100
AcDbBlockTableRecord
  2
*Model_Space
 70
    0
280
    1
281
    0
  0
BLOCK_RECORD
  5
1E
330
1
100
AcDbSymbolTableRecord
100
AcDbBlockTableRecord
  2
*Paper_Space
 70
    0
280
    1
281
    0
  0
ENDTAB
  0
ENDSEC
  0
SECTION
  2
BLOCKS
  0
BLOCK
  5
20
330
1F
100
AcDbEntity
  8
0
100
AcDbBlockBegin
  2
*Model_Space
 70
    0
 10
0
 20
0
 30
0
  3
*Model_Space
  1

  0
ENDBLK
  5
21
330
1F
100
AcDbEntity
  8
0
100
AcDbBlockEnd
  0
BLOCK
  5
1C
330
1B
100
AcDbEntity
  8
0
100
AcDbBlockBegin
  2
*Paper_Space
 70
    0
 10
0
 20
0
 30
0
  3
*Paper_Space
  1

  0
ENDBLK
  5
1D
330
1F
100
AcDbEntity
  8
0
100
AcDbBlockEnd
  0
ENDSEC
  0
SECTION
  2
ENTITIES
  0
LINE
  5
6D
100
AcDbEntity
  8
Red 2
  6
ByLayer
 62
  256
370
   -1
100
AcDbLine
 10
299.999
 20
-253.009
 11
299.999
 21
-285.013
  0
LINE
  5
6E
100
AcDbEntity
  8
Red 2
  6
ByLayer
 62
  256
370
   -1
100
AcDbLine
 10
299.999
 20
-285.013
 11
408
 21
-285.013
  0
LINE
  5
6F
100
AcDbEntity
  8
Red 2
  6
ByLayer
 62
  256
370
   -1
100
AcDbLine
 10
408
 20
-285.013
 11
408
 21
-253.009
  0
LINE
  5
70
100
AcDbEntity
  8
Red 2
  6
ByLayer
 62
  256
370
   -1
100
AcDbLine
 10
408
 20
-253.009
 11
299.999
 21
-253.009
  0
LINE
  5
71
100
AcDbEntity
  8
Red 2
  6
ByLayer
 62
  256
370
   -1
100
AcDbLine
 10
10.0076
 20
-10.0076
 11
10.0076
 21
-286.995
  0
LINE
  5
72
100
AcDbEntity
  8
Red 2
  6
ByLayer
 62
  256
370
   -1
100
AcDbLine
 10
10.0076
 20
-286.995
 11
409.981
 21
-286.995
  0
LINE
  5
73
100
AcDbEntity
  8
Red 2
  6
ByLayer
 62
  256
370
   -1
100
AcDbLine
 10
409.981
 20
-286.995
 11
409.981
 21
-10.0076
  0
LINE
  5
74
100
AcDbEntity
  8
Red 2
  6
ByLayer
 62
  256
370
   -1
100
AcDbLine
 10
409.981
 20
-10.0076
 11
10.0076
 21
-10.0076
  0
LINE
  5
75
100
AcDbEntity
  8
Red 2
  6
ByLayer
 62
  256
370
   -1
100
AcDbLine
 10
11.9888
 20
-11.9888
 11
11.9888
 21
-285.013
  0
LINE
  5
76
100
AcDbEntity
  8
Red 2
  6
ByLayer
 62
  256
370
   -1
100
AcDbLine
 10
11.9888
 20
-285.013
 11
408
 21
-285.013
  0
LINE
  5
77
100
AcDbEntity
  8
Red 2
  6
ByLayer
 62
  256
370
   -1
100
AcDbLine
 10
408
 20
-285.013
 11
408
 21
-11.9888
  0
LINE
  5
78
100
AcDbEntity
  8
Red 2
  6
ByLayer
 62
  256
370
   -1
100
AcDbLine
 10
408
 20
-11.9888
 11
11.9888
 21
-11.9888
  0
LINE
  5
79
100
AcDbEntity
  8
Red 2
  6
ByLayer
 62
  256
370
   -1
100
AcDbLine
 10
59.9948
 20
-11.9888
 11
59.9948
 21
-10.0076
  0
LINE
  5
7A
100
AcDbEntity
  8
Red 2
  6
ByLayer
 62
  256
370
   -1
100
AcDbLine
 10
110.007
 20
-11.9888
 11
110.007
 21
-10.0076
  0
LINE
  5
7B
100
AcDbEntity
  8
Red 2
  6
ByLayer
 62
  256
370
   -1
100
AcDbLine
 10
159.995
 20
-11.9888
 11
159.995
 21
-10.0076
  0
LINE
  5
7C
100
AcDbEntity
  8
Red 2
  6
ByLayer
 62
  256
370
   -1
100
AcDbLine
 10
210.007
 20
-11.9888
 11
210.007
 21
-10.0076
  0
LINE
  5
7D
100
AcDbEntity
  8
Red 2
  6
ByLayer
 62
  256
370
   -1
100
AcDbLine
 10
259.994
 20
-11.9888
 11
259.994
 21
-10.0076
  0
LINE
  5
7E
100
AcDbEntity
  8
Red 2
  6
ByLayer
 62
  256
370
   -1
100
AcDbLine
 10
310.007
 20
-11.9888
 11
310.007
 21
-10.0076
  0
LINE
  5
7F
100
AcDbEntity
  8
Red 2
  6
ByLayer
 62
  256
370
   -1
100
AcDbLine
 10
359.994
 20
-11.9888
 11
359.994
 21
-10.0076
  0
LINE
  5
80
100
AcDbEntity
  8
Red 2
  6
ByLayer
 62
  256
370
   -1
100
AcDbLine
 10
35.9918
 20
-11.5824
 11
35.2552
 21
-11.5824
  0
LINE
  5
81
100
AcDbEntity
  8
Red 2
  6
ByLayer
 62
  256
370
   -1
100
AcDbLine
 10
35.6108
 20
-11.5824
 11
35.6108
 21
-10.287
  0
LINE
  5
82
100
AcDbEntity
  8
Red 2
  6
ByLayer
 62
  256
370
   -1
100
AcDbLine
 10
35.6108
 20
-10.287
 11
35.4838
 21
-10.4648
  0
LINE
  5
83
100
AcDbEntity
  8
Red 2
  6
ByLayer
 62
  256
370
   -1
100
AcDbLine
 10
35.4838
 20
-10.4648
 11
35.3822
 21
-10.5918
  0
LINE
  5
84
100
AcDbEntity
  8
Red 2
  6
ByLayer
 62
  256
370
   -1
100
AcDbLine
 10
35.3822
 20
-10.5918
 11
35.2552
 21
-10.6426
  0
LINE
  5
85
100
AcDbEntity
  8
Red 2
  6
ByLayer
 62
  256
370
   -1
100
AcDbLine
 10
85.2424
 20
-10.3886
 11
85.2932
 21
-10.3378
  0
LINE
  5
86
100
AcDbEntity
  8
Red 2
  6
ByLayer
 62
  256
370
   -1
100
AcDbLine
 10
85.2932
 20
-10.3378
 11
85.42019999999999
 21
-10.287
  0
LINE
  5
87
100
AcDbEntity
  8
Red 2
  6
ByLayer
 62
  256
370
   -1
100
AcDbLine
 10
85.42019999999999
 20
-10.287
 11
85.72499999999999
 21
-10.287
  0
LINE
  5
88
100
AcDbEntity
  8
Red 2
  6
ByLayer
 62
  256
370
   -1
100
AcDbLine
 10
85.72499999999999
 20
-10.287
 11
85.852
 21
-10.3378
  0
LINE
  5
89
100
AcDbEntity
  8
Red 2
  6
ByLayer
 62
  256
370
   -1
100
AcDbLine
 10
85.852
 20
-10.3378
 11
85.9028
 21
-10.3886
  0
LINE
  5
8A
100
AcDbEntity
  8
Red 2
  6
ByLayer
 62
  256
370
   -1
100
AcDbLine
 10
85.9028
 20
-10.3886
 11
85.979
 21
-10.5156
  0
LINE
  5
8B
100
AcDbEntity
  8
Red 2
  6
ByLayer
 62
  256
370
   -1
100
AcDbLine
 10
85.979
 20
-10.5156
 11
85.979
 21
-10.6426
  0
LINE
  5
8C
100
AcDbEntity
  8
Red 2
  6
ByLayer
 62
  256
370
   -1
100
AcDbLine
 10
85.979
 20
-10.6426
 11
85.9028
 21
-10.8204
  0
LINE
  5
8D
100
AcDbEntity
  8
Red 2
  6
ByLayer
 62
  256
370
   -1
100
AcDbLine
 10
85.9028
 20
-10.8204
 11
85.1662
 21
-11.5824
  0
LINE
  5
8E
100
AcDbEntity
  8
Red 2
  6
ByLayer
 62
  256
370
   -1
100
AcDbLine
 10
85.1662
 20
-11.5824
 11
85.979
 21
-11.5824
  0
LINE
  5
8F
100
AcDbEntity
  8
Red 2
  6
ByLayer
 62
  256
370
   -1
100
AcDbLine
 10
135.179
 20
-10.287
 11
135.992
 21
-10.287
  0
LINE
  5
90
100
AcDbEntity
  8
Red 2
  6
ByLayer
 62
  256
370
   -1
100
AcDbLine
 10
135.992
 20
-10.287
 11
135.56
 21
-10.7696
  0
LINE
  5
91
100
AcDbEntity
  8
Red 2
  6
ByLayer
 62
  256
370
   -1
100
AcDbLine
 10
135.56
 20
-10.7696
 11
135.738
 21
-10.7696
  0
LINE
  5
92
100
AcDbEntity
  8
Red 2
  6
ByLayer
 62
  256
370
   -1
100
AcDbLine
 10
135.738
 20
-10.7696
 11
135.865
 21
-10.8204
  0
LINE
  5
93
100
AcDbEntity
  8
Red 2
  6
ByLayer
 62
  256
370
   -1
100
AcDbLine
 10
135.865
 20
-10.8204
 11
135.915
 21
-10.8966
  0
LINE
  5
94
100
AcDbEntity
  8
Red 2
  6
ByLayer
 62
  256
370
   -1
100
AcDbLine
 10
135.915
 20
-10.8966
 11
135.992
 21
-11.0236
  0
LINE
  5
95
100
AcDbEntity
  8
Red 2
  6
ByLayer
 62
  256
370
   -1
100
AcDbLine
 10
135.992
 20
-11.0236
 11
135.992
 21
-11.3284
  0
LINE
  5
96
100
AcDbEntity
  8
Red 2
  6
ByLayer
 62
  256
370
   -1
100
AcDbLine
 10
135.992
 20
-11.3284
 11
135.915
 21
-11.4554
  0
LINE
  5
97
100
AcDbEntity
  8
Red 2
  6
ByLayer
 62
  256
370
   -1
100
AcDbLine
 10
135.915
 20
-11.4554
 11
135.865
 21
-11.5062
  0
LINE
  5
98
100
AcDbEntity
  8
Red 2
  6
ByLayer
 62
  256
370
   -1
100
AcDbLine
 10
135.865
 20
-11.5062
 11
135.738
 21
-11.5824
  0
LINE
  5
99
100
AcDbEntity
  8
Red 2
  6
ByLayer
 62
  256
370
   -1
100
AcDbLine
 10
135.738
 20
-11.5824
 11
135.382
 21
-11.5824
  0
LINE
  5
9A
100
AcDbEntity
  8
Red 2
  6
ByLayer
 62
  256
370
   -1
100
AcDbLine
 10
135.382
 20
-11.5824
 11
135.255
 21
-11.5062
  0
LINE
  5
9B
100
AcDbEntity
  8
Red 2
  6
ByLayer
 62
  256
370
   -1
100
AcDbLine
 10
135.255
 20
-11.5062
 11
135.179
 21
-11.4554
  0
LINE
  5
9C
100
AcDbEntity
  8
Red 2
  6
ByLayer
 62
  256
370
   -1
100
AcDbLine
 10
185.852
 20
-10.7188
 11
185.852
 21
-11.5824
  0
LINE
  5
9D
100
AcDbEntity
  8
Red 2
  6
ByLayer
 62
  256
370
   -1
100
AcDbLine
 10
185.547
 20
-10.2108
 11
185.242
 21
-11.1506
  0
LINE
  5
9E
100
AcDbEntity
  8
Red 2
  6
ByLayer
 62
  256
370
   -1
100
AcDbLine
 10
185.242
 20
-11.1506
 11
186.03
 21
-11.1506
  0
LINE
  5
9F
100
AcDbEntity
  8
Red 2
  6
ByLayer
 62
  256
370
   -1
100
AcDbLine
 10
235.915
 20
-10.287
 11
235.306
 21
-10.287
  0
LINE
  5
A0
100
AcDbEntity
  8
Red 2
  6
ByLayer
 62
  256
370
   -1
100
AcDbLine
 10
235.306
 20
-10.287
 11
235.255
 21
-10.8966
  0
LINE
  5
A1
100
AcDbEntity
  8
Red 2
  6
ByLayer
 62
  256
370
   -1
100
AcDbLine
 10
235.255
 20
-10.8966
 11
235.306
 21
-10.8204
  0
LINE
  5
A2
100
AcDbEntity
  8
Red 2
  6
ByLayer
 62
  256
370
   -1
100
AcDbLine
 10
235.306
 20
-10.8204
 11
235.433
 21
-10.7696
  0
LINE
  5
A3
100
AcDbEntity
  8
Red 2
  6
ByLayer
 62
  256
370
   -1
100
AcDbLine
 10
235.433
 20
-10.7696
 11
235.737
 21
-10.7696
  0
LINE
  5
A4
100
AcDbEntity
  8
Red 2
  6
ByLayer
 62
  256
370
   -1
100
AcDbLine
 10
235.737
 20
-10.7696
 11
235.864
 21
-10.8204
  0
LINE
  5
A5
100
AcDbEntity
  8
Red 2
  6
ByLayer
 62
  256
370
   -1
100
AcDbLine
 10
235.864
 20
-10.8204
 11
235.915
 21
-10.8966
  0
LINE
  5
A6
100
AcDbEntity
  8
Red 2
  6
ByLayer
 62
  256
370
   -1
100
AcDbLine
 10
235.915
 20
-10.8966
 11
235.991
 21
-11.0236
  0
LINE
  5
A7
100
AcDbEntity
  8
Red 2
  6
ByLayer
 62
  256
370
   -1
100
AcDbLine
 10
235.991
 20
-11.0236
 11
235.991
 21
-11.3284
  0
LINE
  5
A8
100
AcDbEntity
  8
Red 2
  6
ByLayer
 62
  256
370
   -1
100
AcDbLine
 10
235.991
 20
-11.3284
 11
235.915
 21
-11.4554
  0
LINE
  5
A9
100
AcDbEntity
  8
Red 2
  6
ByLayer
 62
  256
370
   -1
100
AcDbLine
 10
235.915
 20
-11.4554
 11
235.864
 21
-11.5062
  0
LINE
  5
AA
100
AcDbEntity
  8
Red 2
  6
ByLayer
 62
  256
370
   -1
100
AcDbLine
 10
235.864
 20
-11.5062
 11
235.737
 21
-11.5824
  0
LINE
  5
AB
100
AcDbEntity
  8
Red 2
  6
ByLayer
 62
  256
370
   -1
100
AcDbLine
 10
235.737
 20
-11.5824
 11
235.433
 21
-11.5824
  0
LINE
  5
AC
100
AcDbEntity
  8
Red 2
  6
ByLayer
 62
  256
370
   -1
100
AcDbLine
 10
235.433
 20
-11.5824
 11
235.306
 21
-11.5062
  0
LINE
  5
AD
100
AcDbEntity
  8
Red 2
  6
ByLayer
 62
  256
370
   -1
100
AcDbLine
 10
235.306
 20
-11.5062
 11
235.255
 21
-11.4554
  0
LINE
  5
AE
100
AcDbEntity
  8
Red 2
  6
ByLayer
 62
  256
370
   -1
100
AcDbLine
 10
285.852
 20
-10.287
 11
285.598
 21
-10.287
  0
LINE
  5
AF
100
AcDbEntity
  8
Red 2
  6
ByLayer
 62
  256
370
   -1
100
AcDbLine
 10
285.598
 20
-10.287
 11
285.471
 21
-10.3378
  0
LINE
  5
B0
100
AcDbEntity
  8
Red 2
  6
ByLayer
 62
  256
370
   -1
100
AcDbLine
 10
285.471
 20
-10.3378
 11
285.42
 21
-10.3886
  0
LINE
  5
B1
100
AcDbEntity
  8
Red 2
  6
ByLayer
 62
  256
370
   -1
100
AcDbLine
 10
285.42
 20
-10.3886
 11
285.293
 21
-10.5918
  0
LINE
  5
B2
100
AcDbEntity
  8
Red 2
  6
ByLayer
 62
  256
370
   -1
100
AcDbLine
 10
285.293
 20
-10.5918
 11
285.242
 21
-10.8204
  0
LINE
  5
B3
100
AcDbEntity
  8
Red 2
  6
ByLayer
 62
  256
370
   -1
100
AcDbLine
 10
285.242
 20
-10.8204
 11
285.242
 21
-11.3284
  0
LINE
  5
B4
100
AcDbEntity
  8
Red 2
  6
ByLayer
 62
  256
370
   -1
100
AcDbLine
 10
285.242
 20
-11.3284
 11
285.293
 21
-11.4554
  0
LINE
  5
B5
100
AcDbEntity
  8
Red 2
  6
ByLayer
 62
  256
370
   -1
100
AcDbLine
 10
285.293
 20
-11.4554
 11
285.369
 21
-11.5062
  0
LINE
  5
B6
100
AcDbEntity
  8
Red 2
  6
ByLayer
 62
  256
370
   -1
100
AcDbLine
 10
285.369
 20
-11.5062
 11
285.471
 21
-11.5824
  0
LINE
  5
B7
100
AcDbEntity
  8
Red 2
  6
ByLayer
 62
  256
370
   -1
100
AcDbLine
 10
285.471
 20
-11.5824
 11
285.725
 21
-11.5824
  0
LINE
  5
B8
100
AcDbEntity
  8
Red 2
  6
ByLayer
 62
  256
370
   -1
100
AcDbLine
 10
285.725
 20
-11.5824
 11
285.852
 21
-11.5062
  0
LINE
  5
B9
100
AcDbEntity
  8
Red 2
  6
ByLayer
 62
  256
370
   -1
100
AcDbLine
 10
285.852
 20
-11.5062
 11
285.902
 21
-11.4554
  0
LINE
  5
BA
100
AcDbEntity
  8
Red 2
  6
ByLayer
 62
  256
370
   -1
100
AcDbLine
 10
285.902
 20
-11.4554
 11
285.979
 21
-11.3284
  0
LINE
  5
BB
100
AcDbEntity
  8
Red 2
  6
ByLayer
 62
  256
370
   -1
100
AcDbLine
 10
285.979
 20
-11.3284
 11
285.979
 21
-11.0236
  0
LINE
  5
BC
100
AcDbEntity
  8
Red 2
  6
ByLayer
 62
  256
370
   -1
100
AcDbLine
 10
285.979
 20
-11.0236
 11
285.902
 21
-10.8966
  0
LINE
  5
BD
100
AcDbEntity
  8
Red 2
  6
ByLayer
 62
  256
370
   -1
100
AcDbLine
 10
285.902
 20
-10.8966
 11
285.852
 21
-10.8204
  0
LINE
  5
BE
100
AcDbEntity
  8
Red 2
  6
ByLayer
 62
  256
370
   -1
100
AcDbLine
 10
285.852
 20
-10.8204
 11
285.725
 21
-10.7696
  0
LINE
  5
BF
100
AcDbEntity
  8
Red 2
  6
ByLayer
 62
  256
370
   -1
100
AcDbLine
 10
285.725
 20
-10.7696
 11
285.471
 21
-10.7696
  0
LINE
  5
C0
100
AcDbEntity
  8
Red 2
  6
ByLayer
 62
  256
370
   -1
100
AcDbLine
 10
285.471
 20
-10.7696
 11
285.369
 21
-10.8204
  0
LINE
  5
C1
100
AcDbEntity
  8
Red 2
  6
ByLayer
 62
  256
370
   -1
100
AcDbLine
 10
285.369
 20
-10.8204
 11
285.293
 21
-10.8966
  0
LINE
  5
C2
100
AcDbEntity
  8
Red 2
  6
ByLayer
 62
  256
370
   -1
100
AcDbLine
 10
285.293
 20
-10.8966
 11
285.242
 21
-11.0236
  0
LINE
  5
C3
100
AcDbEntity
  8
Red 2
  6
ByLayer
 62
  256
370
   -1
100
AcDbLine
 10
335.178
 20
-10.287
 11
336.042
 21
-10.287
  0
LINE
  5
C4
100
AcDbEntity
  8
Red 2
  6
ByLayer
 62
  256
370
   -1
100
AcDbLine
 10
336.042
 20
-10.287
 11
335.483
 21
-11.5824
  0
LINE
  5
C5
100
AcDbEntity
  8
Red 2
  6
ByLayer
 62
  256
370
   -1
100
AcDbLine
 10
385.47
 20
-10.8204
 11
385.369
 21
-10.7696
  0
LINE
  5
C6
100
AcDbEntity
  8
Red 2
  6
ByLayer
 62
  256
370
   -1
100
AcDbLine
 10
385.369
 20
-10.7696
 11
385.293
 21
-10.7188
  0
LINE
  5
C7
100
AcDbEntity
  8
Red 2
  6
ByLayer
 62
  256
370
   -1
100
AcDbLine
 10
385.293
 20
-10.7188
 11
385.242
 21
-10.5918
  0
LINE
  5
C8
100
AcDbEntity
  8
Red 2
  6
ByLayer
 62
  256
370
   -1
100
AcDbLine
 10
385.242
 20
-10.5918
 11
385.242
 21
-10.5156
  0
LINE
  5
C9
100
AcDbEntity
  8
Red 2
  6
ByLayer
 62
  256
370
   -1
100
AcDbLine
 10
385.242
 20
-10.5156
 11
385.293
 21
-10.3886
  0
LINE
  5
CA
100
AcDbEntity
  8
Red 2
  6
ByLayer
 62
  256
370
   -1
100
AcDbLine
 10
385.293
 20
-10.3886
 11
385.369
 21
-10.3378
  0
LINE
  5
CB
100
AcDbEntity
  8
Red 2
  6
ByLayer
 62
  256
370
   -1
100
AcDbLine
 10
385.369
 20
-10.3378
 11
385.47
 21
-10.287
  0
LINE
  5
CC
100
AcDbEntity
  8
Red 2
  6
ByLayer
 62
  256
370
   -1
100
AcDbLine
 10
385.47
 20
-10.287
 11
385.724
 21
-10.287
  0
LINE
  5
CD
100
AcDbEntity
  8
Red 2
  6
ByLayer
 62
  256
370
   -1
100
AcDbLine
 10
385.724
 20
-10.287
 11
385.851
 21
-10.3378
  0
LINE
  5
CE
100
AcDbEntity
  8
Red 2
  6
ByLayer
 62
  256
370
   -1
100
AcDbLine
 10
385.851
 20
-10.3378
 11
385.902
 21
-10.3886
  0
LINE
  5
CF
100
AcDbEntity
  8
Red 2
  6
ByLayer
 62
  256
370
   -1
100
AcDbLine
 10
385.902
 20
-10.3886
 11
385.978
 21
-10.5156
  0
LINE
  5
D0
100
AcDbEntity
  8
Red 2
  6
ByLayer
 62
  256
370
   -1
100
AcDbLine
 10
385.978
 20
-10.5156
 11
385.978
 21
-10.5918
  0
LINE
  5
D1
100
AcDbEntity
  8
Red 2
  6
ByLayer
 62
  256
370
   -1
100
AcDbLine
 10
385.978
 20
-10.5918
 11
385.902
 21
-10.7188
  0
LINE
  5
D2
100
AcDbEntity
  8
Red 2
  6
ByLayer
 62
  256
370
   -1
100
AcDbLine
 10
385.902
 20
-10.7188
 11
385.851
 21
-10.7696
  0
LINE
  5
D3
100
AcDbEntity
  8
Red 2
  6
ByLayer
 62
  256
370
   -1
100
AcDbLine
 10
385.851
 20
-10.7696
 11
385.724
 21
-10.8204
  0
LINE
  5
D4
100
AcDbEntity
  8
Red 2
  6
ByLayer
 62
  256
370
   -1
100
AcDbLine
 10
385.724
 20
-10.8204
 11
385.47
 21
-10.8204
  0
LINE
  5
D5
100
AcDbEntity
  8
Red 2
  6
ByLayer
 62
  256
370
   -1
100
AcDbLine
 10
385.47
 20
-10.8204
 11
385.369
 21
-10.8966
  0
LINE
  5
D6
100
AcDbEntity
  8
Red 2
  6
ByLayer
 62
  256
370
   -1
100
AcDbLine
 10
385.369
 20
-10.8966
 11
385.293
 21
-10.9474
  0
LINE
  5
D7
100
AcDbEntity
  8
Red 2
  6
ByLayer
 62
  256
370
   -1
100
AcDbLine
 10
385.293
 20
-10.9474
 11
385.242
 21
-11.0744
  0
LINE
  5
D8
100
AcDbEntity
  8
Red 2
  6
ByLayer
 62
  256
370
   -1
100
AcDbLine
 10
385.242
 20
-11.0744
 11
385.242
 21
-11.3284
  0
LINE
  5
D9
100
AcDbEntity
  8
Red 2
  6
ByLayer
 62
  256
370
   -1
100
AcDbLine
 10
385.242
 20
-11.3284
 11
385.293
 21
-11.4554
  0
LINE
  5
DA
100
AcDbEntity
  8
Red 2
  6
ByLayer
 62
  256
370
   -1
100
AcDbLine
 10
385.293
 20
-11.4554
 11
385.369
 21
-11.5062
  0
LINE
  5
DB
100
AcDbEntity
  8
Red 2
  6
ByLayer
 62
  256
370
   -1
100
AcDbLine
 10
385.369
 20
-11.5062
 11
385.47
 21
-11.5824
  0
LINE
  5
DC
100
AcDbEntity
  8
Red 2
  6
ByLayer
 62
  256
370
   -1
100
AcDbLine
 10
385.47
 20
-11.5824
 11
385.724
 21
-11.5824
  0
LINE
  5
DD
100
AcDbEntity
  8
Red 2
  6
ByLayer
 62
  256
370
   -1
100
AcDbLine
 10
385.724
 20
-11.5824
 11
385.851
 21
-11.5062
  0
LINE
  5
DE
100
AcDbEntity
  8
Red 2
  6
ByLayer
 62
  256
370
   -1
100
AcDbLine
 10
385.851
 20
-11.5062
 11
385.902
 21
-11.4554
  0
LINE
  5
DF
100
AcDbEntity
  8
Red 2
  6
ByLayer
 62
  256
370
   -1
100
AcDbLine
 10
385.902
 20
-11.4554
 11
385.978
 21
-11.3284
  0
LINE
  5
E0
100
AcDbEntity
  8
Red 2
  6
ByLayer
 62
  256
370
   -1
100
AcDbLine
 10
385.978
 20
-11.3284
 11
385.978
 21
-11.0744
  0
LINE
  5
E1
100
AcDbEntity
  8
Red 2
  6
ByLayer
 62
  256
370
   -1
100
AcDbLine
 10
385.978
 20
-11.0744
 11
385.902
 21
-10.9474
  0
LINE
  5
E2
100
AcDbEntity
  8
Red 2
  6
ByLayer
 62
  256
370
   -1
100
AcDbLine
 10
385.902
 20
-10.9474
 11
385.851
 21
-10.8966
  0
LINE
  5
E3
100
AcDbEntity
  8
Red 2
  6
ByLayer
 62
  256
370
   -1
100
AcDbLine
 10
385.851
 20
-10.8966
 11
385.724
 21
-10.8204
  0
LINE
  5
E4
100
AcDbEntity
  8
Red 2
  6
ByLayer
 62
  256
370
   -1
100
AcDbLine
 10
59.9948
 20
-285.013
 11
59.9948
 21
-286.995
  0
LINE
  5
E5
100
AcDbEntity
  8
Red 2
  6
ByLayer
 62
  256
370
   -1
100
AcDbLine
 10
110.007
 20
-285.013
 11
110.007
 21
-286.995
  0
LINE
  5
E6
100
AcDbEntity
  8
Red 2
  6
ByLayer
 62
  256
370
   -1
100
AcDbLine
 10
159.995
 20
-285.013
 11
159.995
 21
-286.995
  0
LINE
  5
E7
100
AcDbEntity
  8
Red 2
  6
ByLayer
 62
  256
370
   -1
100
AcDbLine
 10
210.007
 20
-285.013
 11
210.007
 21
-286.995
  0
LINE
  5
E8
100
AcDbEntity
  8
Red 2
  6
ByLayer
 62
  256
370
   -1
100
AcDbLine
 10
259.994
 20
-285.013
 11
259.994
 21
-286.995
  0
LINE
  5
E9
100
AcDbEntity
  8
Red 2
  6
ByLayer
 62
  256
370
   -1
100
AcDbLine
 10
310.007
 20
-285.013
 11
310.007
 21
-286.995
  0
LINE
  5
EA
100
AcDbEntity
  8
Red 2
  6
ByLayer
 62
  256
370
   -1
100
AcDbLine
 10
359.994
 20
-285.013
 11
359.994
 21
-286.995
  0
LINE
  5
EB
100
AcDbEntity
  8
Red 2
  6
ByLayer
 62
  256
370
   -1
100
AcDbLine
 10
35.9918
 20
-286.588
 11
35.2552
 21
-286.588
  0
LINE
  5
EC
100
AcDbEntity
  8
Red 2
  6
ByLayer
 62
  256
370
   -1
100
AcDbLine
 10
35.6108
 20
-286.588
 11
35.6108
 21
-285.293
  0
LINE
  5
ED
100
AcDbEntity
  8
Red 2
  6
ByLayer
 62
  256
370
   -1
100
AcDbLine
 10
35.6108
 20
-285.293
 11
35.4838
 21
-285.471
  0
LINE
  5
EE
100
AcDbEntity
  8
Red 2
  6
ByLayer
 62
  256
370
   -1
100
AcDbLine
 10
35.4838
 20
-285.471
 11
35.3822
 21
-285.598
  0
LINE
  5
EF
100
AcDbEntity
  8
Red 2
  6
ByLayer
 62
  256
370
   -1
100
AcDbLine
 10
35.3822
 20
-285.598
 11
35.2552
 21
-285.648
  0
LINE
  5
F0
100
AcDbEntity
  8
Red 2
  6
ByLayer
 62
  256
370
   -1
100
AcDbLine
 10
85.2424
 20
-285.394
 11
85.2932
 21
-285.344
  0
LINE
  5
F1
100
AcDbEntity
  8
Red 2
  6
ByLayer
 62
  256
370
   -1
100
AcDbLine
 10
85.2932
 20
-285.344
 11
85.42019999999999
 21
-285.293
  0
LINE
  5
F2
100
AcDbEntity
  8
Red 2
  6
ByLayer
 62
  256
370
   -1
100
AcDbLine
 10
85.42019999999999
 20
-285.293
 11
85.72499999999999
 21
-285.293
  0
LINE
  5
F3
100
AcDbEntity
  8
Red 2
  6
ByLayer
 62
  256
370
   -1
100
AcDbLine
 10
85.72499999999999
 20
-285.293
 11
85.852
 21
-285.344
  0
LINE
  5
F4
100
AcDbEntity
  8
Red 2
  6
ByLayer
 62
  256
370
   -1
100
AcDbLine
 10
85.852
 20
-285.344
 11
85.9028
 21
-285.394
  0
LINE
  5
F5
100
AcDbEntity
  8
Red 2
  6
ByLayer
 62
  256
370
   -1
100
AcDbLine
 10
85.9028
 20
-285.394
 11
85.979
 21
-285.521
  0
LINE
  5
F6
100
AcDbEntity
  8
Red 2
  6
ByLayer
 62
  256
370
   -1
100
AcDbLine
 10
85.979
 20
-285.521
 11
85.979
 21
-285.648
  0
LINE
  5
F7
100
AcDbEntity
  8
Red 2
  6
ByLayer
 62
  256
370
   -1
100
AcDbLine
 10
85.979
 20
-285.648
 11
85.9028
 21
-285.826
  0
LINE
  5
F8
100
AcDbEntity
  8
Red 2
  6
ByLayer
 62
  256
370
   -1
100
AcDbLine
 10
85.9028
 20
-285.826
 11
85.1662
 21
-286.588
  0
LINE
  5
F9
100
AcDbEntity
  8
Red 2
  6
ByLayer
 62
  256
370
   -1
100
AcDbLine
 10
85.1662
 20
-286.588
 11
85.979
 21
-286.588
  0
LINE
  5
FA
100
AcDbEntity
  8
Red 2
  6
ByLayer
 62
  256
370
   -1
100
AcDbLine
 10
135.179
 20
-285.293
 11
135.992
 21
-285.293
  0
LINE
  5
FB
100
AcDbEntity
  8
Red 2
  6
ByLayer
 62
  256
370
   -1
100
AcDbLine
 10
135.992
 20
-285.293
 11
135.56
 21
-285.775
  0
LINE
  5
FC
100
AcDbEntity
  8
Red 2
  6
ByLayer
 62
  256
370
   -1
100
AcDbLine
 10
135.56
 20
-285.775
 11
135.738
 21
-285.775
  0
LINE
  5
FD
100
AcDbEntity
  8
Red 2
  6
ByLayer
 62
  256
370
   -1
100
AcDbLine
 10
135.738
 20
-285.775
 11
135.865
 21
-285.826
  0
LINE
  5
FE
100
AcDbEntity
  8
Red 2
  6
ByLayer
 62
  256
370
   -1
100
AcDbLine
 10
135.865
 20
-285.826
 11
135.915
 21
-285.902
  0
LINE
  5
FF
100
AcDbEntity
  8
Red 2
  6
ByLayer
 62
  256
370
   -1
100
AcDbLine
 10
135.915
 20
-285.902
 11
135.992
 21
-286.029
  0
LINE
  5
100
100
AcDbEntity
  8
Red 2
  6
ByLayer
 62
  256
370
   -1
100
AcDbLine
 10
135.992
 20
-286.029
 11
135.992
 21
-286.334
  0
LINE
  5
101
100
AcDbEntity
  8
Red 2
  6
ByLayer
 62
  256
370
   -1
100
AcDbLine
 10
135.992
 20
-286.334
 11
135.915
 21
-286.461
  0
LINE
  5
102
100
AcDbEntity
  8
Red 2
  6
ByLayer
 62
  256
370
   -1
100
AcDbLine
 10
135.915
 20
-286.461
 11
135.865
 21
-286.512
  0
LINE
  5
103
100
AcDbEntity
  8
Red 2
  6
ByLayer
 62
  256
370
   -1
100
AcDbLine
 10
135.865
 20
-286.512
 11
135.738
 21
-286.588
  0
LINE
  5
104
100
AcDbEntity
  8
Red 2
  6
ByLayer
 62
  256
370
   -1
100
AcDbLine
 10
135.738
 20
-286.588
 11
135.382
 21
-286.588
  0
LINE
  5
105
100
AcDbEntity
  8
Red 2
  6
ByLayer
 62
  256
370
   -1
100
AcDbLine
 10
135.382
 20
-286.588
 11
135.255
 21
-286.512
  0
LINE
  5
106
100
AcDbEntity
  8
Red 2
  6
ByLayer
 62
  256
370
   -1
100
AcDbLine
 10
135.255
 20
-286.512
 11
135.179
 21
-286.461
  0
LINE
  5
107
100
AcDbEntity
  8
Red 2
  6
ByLayer
 62
  256
370
   -1
100
AcDbLine
 10
185.852
 20
-285.725
 11
185.852
 21
-286.588
  0
LINE
  5
108
100
AcDbEntity
  8
Red 2
  6
ByLayer
 62
  256
370
   -1
100
AcDbLine
 10
185.547
 20
-285.217
 11
185.242
 21
-286.156
  0
LINE
  5
109
100
AcDbEntity
  8
Red 2
  6
ByLayer
 62
  256
370
   -1
100
AcDbLine
 10
185.242
 20
-286.156
 11
186.03
 21
-286.156
  0
LINE
  5
10A
100
AcDbEntity
  8
Red 2
  6
ByLayer
 62
  256
370
   -1
100
AcDbLine
 10
235.915
 20
-285.293
 11
235.306
 21
-285.293
  0
LINE
  5
10B
100
AcDbEntity
  8
Red 2
  6
ByLayer
 62
  256
370
   -1
100
AcDbLine
 10
235.306
 20
-285.293
 11
235.255
 21
-285.902
  0
LINE
  5
10C
100
AcDbEntity
  8
Red 2
  6
ByLayer
 62
  256
370
   -1
100
AcDbLine
 10
235.255
 20
-285.902
 11
235.306
 21
-285.826
  0
LINE
  5
10D
100
AcDbEntity
  8
Red 2
  6
ByLayer
 62
  256
370
   -1
100
AcDbLine
 10
235.306
 20
-285.826
 11
235.433
 21
-285.775
  0
LINE
  5
10E
100
AcDbEntity
  8
Red 2
  6
ByLayer
 62
  256
370
   -1
100
AcDbLine
 10
235.433
 20
-285.775
 11
235.737
 21
-285.775
  0
LINE
  5
10F
100
AcDbEntity
  8
Red 2
  6
ByLayer
 62
  256
370
   -1
100
AcDbLine
 10
235.737
 20
-285.775
 11
235.864
 21
-285.826
  0
LINE
  5
110
100
AcDbEntity
  8
Red 2
  6
ByLayer
 62
  256
370
   -1
100
AcDbLine
 10
235.864
 20
-285.826
 11
235.915
 21
-285.902
  0
LINE
  5
111
100
AcDbEntity
  8
Red 2
  6
ByLayer
 62
  256
370
   -1
100
AcDbLine
 10
235.915
 20
-285.902
 11
235.991
 21
-286.029
  0
LINE
  5
112
100
AcDbEntity
  8
Red 2
  6
ByLayer
 62
  256
370
   -1
100
AcDbLine
 10
235.991
 20
-286.029
 11
235.991
 21
-286.334
  0
LINE
  5
113
100
AcDbEntity
  8
Red 2
  6
ByLayer
 62
  256
370
   -1
100
AcDbLine
 10
235.991
 20
-286.334
 11
235.915
 21
-286.461
  0
LINE
  5
114
100
AcDbEntity
  8
Red 2
  6
ByLayer
 62
  256
370
   -1
100
AcDbLine
 10
235.915
 20
-286.461
 11
235.864
 21
-286.512
  0
LINE
  5
115
100
AcDbEntity
  8
Red 2
  6
ByLayer
 62
  256
370
   -1
100
AcDbLine
 10
235.864
 20
-286.512
 11
235.737
 21
-286.588
  0
LINE
  5
116
100
AcDbEntity
  8
Red 2
  6
ByLayer
 62
  256
370
   -1
100
AcDbLine
 10
235.737
 20
-286.588
 11
235.433
 21
-286.588
  0
LINE
  5
117
100
AcDbEntity
  8
Red 2
  6
ByLayer
 62
  256
370
   -1
100
AcDbLine
 10
235.433
 20
-286.588
 11
235.306
 21
-286.512
  0
LINE
  5
118
100
AcDbEntity
  8
Red 2
  6
ByLayer
 62
  256
370
   -1
100
AcDbLine
 10
235.306
 20
-286.512
 11
235.255
 21
-286.461
  0
LINE
  5
119
100
AcDbEntity
  8
Red 2
  6
ByLayer
 62
  256
370
   -1
100
AcDbLine
 10
285.852
 20
-285.293
 11
285.598
 21
-285.293
  0
LINE
  5
11A
100
AcDbEntity
  8
Red 2
  6
ByLayer
 62
  256
370
   -1
100
AcDbLine
 10
285.598
 20
-285.293
 11
285.471
 21
-285.344
  0
LINE
  5
11B
100
AcDbEntity
  8
Red 2
  6
ByLayer
 62
  256
370
   -1
100
AcDbLine
 10
285.471
 20
-285.344
 11
285.42
 21
-285.394
  0
LINE
  5
11C
100
AcDbEntity
  8
Red 2
  6
ByLayer
 62
  256
370
   -1
100
AcDbLine
 10
285.42
 20
-285.394
 11
285.293
 21
-285.598
  0
LINE
  5
11D
100
AcDbEntity
  8
Red 2
  6
ByLayer
 62
  256
370
   -1
100
AcDbLine
 10
285.293
 20
-285.598
 11
285.242
 21
-285.826
  0
LINE
  5
11E
100
AcDbEntity
  8
Red 2
  6
ByLayer
 62
  256
370
   -1
100
AcDbLine
 10
285.242
 20
-285.826
 11
285.242
 21
-286.334
  0
LINE
  5
11F
100
AcDbEntity
  8
Red 2
  6
ByLayer
 62
  256
370
   -1
100
AcDbLine
 10
285.242
 20
-286.334
 11
285.293
 21
-286.461
  0
LINE
  5
120
100
AcDbEntity
  8
Red 2
  6
ByLayer
 62
  256
370
   -1
100
AcDbLine
 10
285.293
 20
-286.461
 11
285.369
 21
-286.512
  0
LINE
  5
121
100
AcDbEntity
  8
Red 2
  6
ByLayer
 62
  256
370
   -1
100
AcDbLine
 10
285.369
 20
-286.512
 11
285.471
 21
-286.588
  0
LINE
  5
122
100
AcDbEntity
  8
Red 2
  6
ByLayer
 62
  256
370
   -1
100
AcDbLine
 10
285.471
 20
-286.588
 11
285.725
 21
-286.588
  0
LINE
  5
123
100
AcDbEntity
  8
Red 2
  6
ByLayer
 62
  256
370
   -1
100
AcDbLine
 10
285.725
 20
-286.588
 11
285.852
 21
-286.512
  0
LINE
  5
124
100
AcDbEntity
  8
Red 2
  6
ByLayer
 62
  256
370
   -1
100
AcDbLine
 10
285.852
 20
-286.512
 11
285.902
 21
-286.461
  0
LINE
  5
125
100
AcDbEntity
  8
Red 2
  6
ByLayer
 62
  256
370
   -1
100
AcDbLine
 10
285.902
 20
-286.461
 11
285.979
 21
-286.334
  0
LINE
  5
126
100
AcDbEntity
  8
Red 2
  6
ByLayer
 62
  256
370
   -1
100
AcDbLine
 10
285.979
 20
-286.334
 11
285.979
 21
-286.029
  0
LINE
  5
127
100
AcDbEntity
  8
Red 2
  6
ByLayer
 62
  256
370
   -1
100
AcDbLine
 10
285.979
 20
-286.029
 11
285.902
 21
-285.902
  0
LINE
  5
128
100
AcDbEntity
  8
Red 2
  6
ByLayer
 62
  256
370
   -1
100
AcDbLine
 10
285.902
 20
-285.902
 11
285.852
 21
-285.826
  0
LINE
  5
129
100
AcDbEntity
  8
Red 2
  6
ByLayer
 62
  256
370
   -1
100
AcDbLine
 10
285.852
 20
-285.826
 11
285.725
 21
-285.775
  0
LINE
  5
12A
100
AcDbEntity
  8
Red 2
  6
ByLayer
 62
  256
370
   -1
100
AcDbLine
 10
285.725
 20
-285.775
 11
285.471
 21
-285.775
  0
LINE
  5
12B
100
AcDbEntity
  8
Red 2
  6
ByLayer
 62
  256
370
   -1
100
AcDbLine
 10
285.471
 20
-285.775
 11
285.369
 21
-285.826
  0
LINE
  5
12C
100
AcDbEntity
  8
Red 2
  6
ByLayer
 62
  256
370
   -1
100
AcDbLine
 10
285.369
 20
-285.826
 11
285.293
 21
-285.902
  0
LINE
  5
12D
100
AcDbEntity
  8
Red 2
  6
ByLayer
 62
  256
370
   -1
100
AcDbLine
 10
285.293
 20
-285.902
 11
285.242
 21
-286.029
  0
LINE
  5
12E
100
AcDbEntity
  8
Red 2
  6
ByLayer
 62
  256
370
   -1
100
AcDbLine
 10
335.178
 20
-285.293
 11
336.042
 21
-285.293
  0
LINE
  5
12F
100
AcDbEntity
  8
Red 2
  6
ByLayer
 62
  256
370
   -1
100
AcDbLine
 10
336.042
 20
-285.293
 11
335.483
 21
-286.588
  0
LINE
  5
130
100
AcDbEntity
  8
Red 2
  6
ByLayer
 62
  256
370
   -1
100
AcDbLine
 10
385.47
 20
-285.826
 11
385.369
 21
-285.775
  0
LINE
  5
131
100
AcDbEntity
  8
Red 2
  6
ByLayer
 62
  256
370
   -1
100
AcDbLine
 10
385.369
 20
-285.775
 11
385.293
 21
-285.725
  0
LINE
  5
132
100
AcDbEntity
  8
Red 2
  6
ByLayer
 62
  256
370
   -1
100
AcDbLine
 10
385.293
 20
-285.725
 11
385.242
 21
-285.598
  0
LINE
  5
133
100
AcDbEntity
  8
Red 2
  6
ByLayer
 62
  256
370
   -1
100
AcDbLine
 10
385.242
 20
-285.598
 11
385.242
 21
-285.521
  0
LINE
  5
134
100
AcDbEntity
  8
Red 2
  6
ByLayer
 62
  256
370
   -1
100
AcDbLine
 10
385.242
 20
-285.521
 11
385.293
 21
-285.394
  0
LINE
  5
135
100
AcDbEntity
  8
Red 2
  6
ByLayer
 62
  256
370
   -1
100
AcDbLine
 10
385.293
 20
-285.394
 11
385.369
 21
-285.344
  0
LINE
  5
136
100
AcDbEntity
  8
Red 2
  6
ByLayer
 62
  256
370
   -1
100
AcDbLine
 10
385.369
 20
-285.344
 11
385.47
 21
-285.293
  0
LINE
  5
137
100
AcDbEntity
  8
Red 2
  6
ByLayer
 62
  256
370
   -1
100
AcDbLine
 10
385.47
 20
-285.293
 11
385.724
 21
-285.293
  0
LINE
  5
138
100
AcDbEntity
  8
Red 2
  6
ByLayer
 62
  256
370
   -1
100
AcDbLine
 10
385.724
 20
-285.293
 11
385.851
 21
-285.344
  0
LINE
  5
139
100
AcDbEntity
  8
Red 2
  6
ByLayer
 62
  256
370
   -1
100
AcDbLine
 10
385.851
 20
-285.344
 11
385.902
 21
-285.394
  0
LINE
  5
13A
100
AcDbEntity
  8
Red 2
  6
ByLayer
 62
  256
370
   -1
100
AcDbLine
 10
385.902
 20
-285.394
 11
385.978
 21
-285.521
  0
LINE
  5
13B
100
AcDbEntity
  8
Red 2
  6
ByLayer
 62
  256
370
   -1
100
AcDbLine
 10
385.978
 20
-285.521
 11
385.978
 21
-285.598
  0
LINE
  5
13C
100
AcDbEntity
  8
Red 2
  6
ByLayer
 62
  256
370
   -1
100
AcDbLine
 10
385.978
 20
-285.598
 11
385.902
 21
-285.725
  0
LINE
  5
13D
100
AcDbEntity
  8
Red 2
  6
ByLayer
 62
  256
370
   -1
100
AcDbLine
 10
385.902
 20
-285.725
 11
385.851
 21
-285.775
  0
LINE
  5
13E
100
AcDbEntity
  8
Red 2
  6
ByLayer
 62
  256
370
   -1
100
AcDbLine
 10
385.851
 20
-285.775
 11
385.724
 21
-285.826
  0
LINE
  5
13F
100
AcDbEntity
  8
Red 2
  6
ByLayer
 62
  256
370
   -1
100
AcDbLine
 10
385.724
 20
-285.826
 11
385.47
 21
-285.826
  0
LINE
  5
140
100
AcDbEntity
  8
Red 2
  6
ByLayer
 62
  256
370
   -1
100
AcDbLine
 10
385.47
 20
-285.826
 11
385.369
 21
-285.902
  0
LINE
  5
141
100
AcDbEntity
  8
Red 2
  6
ByLayer
 62
  256
370
   -1
100
AcDbLine
 10
385.369
 20
-285.902
 11
385.293
 21
-285.953
  0
LINE
  5
142
100
AcDbEntity
  8
Red 2
  6
ByLayer
 62
  256
370
   -1
100
AcDbLine
 10
385.293
 20
-285.953
 11
385.242
 21
-286.08
  0
LINE
  5
143
100
AcDbEntity
  8
Red 2
  6
ByLayer
 62
  256
370
   -1
100
AcDbLine
 10
385.242
 20
-286.08
 11
385.242
 21
-286.334
  0
LINE
  5
144
100
AcDbEntity
  8
Red 2
  6
ByLayer
 62
  256
370
   -1
100
AcDbLine
 10
385.242
 20
-286.334
 11
385.293
 21
-286.461
  0
LINE
  5
145
100
AcDbEntity
  8
Red 2
  6
ByLayer
 62
  256
370
   -1
100
AcDbLine
 10
385.293
 20
-286.461
 11
385.369
 21
-286.512
  0
LINE
  5
146
100
AcDbEntity
  8
Red 2
  6
ByLayer
 62
  256
370
   -1
100
AcDbLine
 10
385.369
 20
-286.512
 11
385.47
 21
-286.588
  0
LINE
  5
147
100
AcDbEntity
  8
Red 2
  6
ByLayer
 62
  256
370
   -1
100
AcDbLine
 10
385.47
 20
-286.588
 11
385.724
 21
-286.588
  0
LINE
  5
148
100
AcDbEntity
  8
Red 2
  6
ByLayer
 62
  256
370
   -1
100
AcDbLine
 10
385.724
 20
-286.588
 11
385.851
 21
-286.512
  0
LINE
  5
149
100
AcDbEntity
  8
Red 2
  6
ByLayer
 62
  256
370
   -1
100
AcDbLine
 10
385.851
 20
-286.512
 11
385.902
 21
-286.461
  0
LINE
  5
14A
100
AcDbEntity
  8
Red 2
  6
ByLayer
 62
  256
370
   -1
100
AcDbLine
 10
385.902
 20
-286.461
 11
385.978
 21
-286.334
  0
LINE
  5
14B
100
AcDbEntity
  8
Red 2
  6
ByLayer
 62
  256
370
   -1
100
AcDbLine
 10
385.978
 20
-286.334
 11
385.978
 21
-286.08
  0
LINE
  5
14C
100
AcDbEntity
  8
Red 2
  6
ByLayer
 62
  256
370
   -1
100
AcDbLine
 10
385.978
 20
-286.08
 11
385.902
 21
-285.953
  0
LINE
  5
14D
100
AcDbEntity
  8
Red 2
  6
ByLayer
 62
  256
370
   -1
100
AcDbLine
 10
385.902
 20
-285.953
 11
385.851
 21
-285.902
  0
LINE
  5
14E
100
AcDbEntity
  8
Red 2
  6
ByLayer
 62
  256
370
   -1
100
AcDbLine
 10
385.851
 20
-285.902
 11
385.724
 21
-285.826
  0
LINE
  5
14F
100
AcDbEntity
  8
Red 2
  6
ByLayer
 62
  256
370
   -1
100
AcDbLine
 10
10.0076
 20
-59.9948
 11
11.9888
 21
-59.9948
  0
LINE
  5
150
100
AcDbEntity
  8
Red 2
  6
ByLayer
 62
  256
370
   -1
100
AcDbLine
 10
10.0076
 20
-110.007
 11
11.9888
 21
-110.007
  0
LINE
  5
151
100
AcDbEntity
  8
Red 2
  6
ByLayer
 62
  256
370
   -1
100
AcDbLine
 10
10.0076
 20
-159.995
 11
11.9888
 21
-159.995
  0
LINE
  5
152
100
AcDbEntity
  8
Red 2
  6
ByLayer
 62
  256
370
   -1
100
AcDbLine
 10
10.0076
 20
-210.007
 11
11.9888
 21
-210.007
  0
LINE
  5
153
100
AcDbEntity
  8
Red 2
  6
ByLayer
 62
  256
370
   -1
100
AcDbLine
 10
10.0076
 20
-259.994
 11
11.9888
 21
-259.994
  0
LINE
  5
154
100
AcDbEntity
  8
Red 2
  6
ByLayer
 62
  256
370
   -1
100
AcDbLine
 10
10.6934
 20
-35.2044
 11
11.303
 21
-35.2044
  0
LINE
  5
155
100
AcDbEntity
  8
Red 2
  6
ByLayer
 62
  256
370
   -1
100
AcDbLine
 10
10.5664
 20
-35.5854
 11
10.9982
 21
-34.29
  0
LINE
  5
156
100
AcDbEntity
  8
Red 2
  6
ByLayer
 62
  256
370
   -1
100
AcDbLine
 10
10.9982
 20
-34.29
 11
11.43
 21
-35.5854
  0
LINE
  5
157
100
AcDbEntity
  8
Red 2
  6
ByLayer
 62
  256
370
   -1
100
AcDbLine
 10
11.0998
 20
-84.88679999999999
 11
11.2776
 21
-84.9376
  0
LINE
  5
158
100
AcDbEntity
  8
Red 2
  6
ByLayer
 62
  256
370
   -1
100
AcDbLine
 10
11.2776
 20
-84.9376
 11
11.3538
 21
-85.0138
  0
LINE
  5
159
100
AcDbEntity
  8
Red 2
  6
ByLayer
 62
  256
370
   -1
100
AcDbLine
 10
11.3538
 20
-85.0138
 11
11.4046
 21
-85.1408
  0
LINE
  5
15A
100
AcDbEntity
  8
Red 2
  6
ByLayer
 62
  256
370
   -1
100
AcDbLine
 10
11.4046
 20
-85.1408
 11
11.4046
 21
-85.3186
  0
LINE
  5
15B
100
AcDbEntity
  8
Red 2
  6
ByLayer
 62
  256
370
   -1
100
AcDbLine
 10
11.4046
 20
-85.3186
 11
11.3538
 21
-85.4456
  0
LINE
  5
15C
100
AcDbEntity
  8
Red 2
  6
ByLayer
 62
  256
370
   -1
100
AcDbLine
 10
11.3538
 20
-85.4456
 11
11.2776
 21
-85.49639999999999
  0
LINE
  5
15D
100
AcDbEntity
  8
Red 2
  6
ByLayer
 62
  256
370
   -1
100
AcDbLine
 10
11.2776
 20
-85.49639999999999
 11
11.176
 21
-85.57259999999999
  0
LINE
  5
15E
100
AcDbEntity
  8
Red 2
  6
ByLayer
 62
  256
370
   -1
100
AcDbLine
 10
11.176
 20
-85.57259999999999
 11
10.668
 21
-85.57259999999999
  0
LINE
  5
15F
100
AcDbEntity
  8
Red 2
  6
ByLayer
 62
  256
370
   -1
100
AcDbLine
 10
10.668
 20
-85.57259999999999
 11
10.668
 21
-84.27719999999999
  0
LINE
  5
160
100
AcDbEntity
  8
Red 2
  6
ByLayer
 62
  256
370
   -1
100
AcDbLine
 10
10.668
 20
-84.27719999999999
 11
11.0998
 21
-84.27719999999999
  0
LINE
  5
161
100
AcDbEntity
  8
Red 2
  6
ByLayer
 62
  256
370
   -1
100
AcDbLine
 10
11.0998
 20
-84.27719999999999
 11
11.2268
 21
-84.328
  0
LINE
  5
162
100
AcDbEntity
  8
Red 2
  6
ByLayer
 62
  256
370
   -1
100
AcDbLine
 10
11.2268
 20
-84.328
 11
11.2776
 21
-84.3788
  0
LINE
  5
163
100
AcDbEntity
  8
Red 2
  6
ByLayer
 62
  256
370
   -1
100
AcDbLine
 10
11.2776
 20
-84.3788
 11
11.3538
 21
-84.50579999999999
  0
LINE
  5
164
100
AcDbEntity
  8
Red 2
  6
ByLayer
 62
  256
370
   -1
100
AcDbLine
 10
11.3538
 20
-84.50579999999999
 11
11.3538
 21
-84.6328
  0
LINE
  5
165
100
AcDbEntity
  8
Red 2
  6
ByLayer
 62
  256
370
   -1
100
AcDbLine
 10
11.3538
 20
-84.6328
 11
11.2776
 21
-84.7598
  0
LINE
  5
166
100
AcDbEntity
  8
Red 2
  6
ByLayer
 62
  256
370
   -1
100
AcDbLine
 10
11.2776
 20
-84.7598
 11
11.2268
 21
-84.81059999999999
  0
LINE
  5
167
100
AcDbEntity
  8
Red 2
  6
ByLayer
 62
  256
370
   -1
100
AcDbLine
 10
11.2268
 20
-84.81059999999999
 11
11.0998
 21
-84.88679999999999
  0
LINE
  5
168
100
AcDbEntity
  8
Red 2
  6
ByLayer
 62
  256
370
   -1
100
AcDbLine
 10
11.0998
 20
-84.88679999999999
 11
10.668
 21
-84.88679999999999
  0
LINE
  5
169
100
AcDbEntity
  8
Red 2
  6
ByLayer
 62
  256
370
   -1
100
AcDbLine
 10
11.4046
 20
-135.458
 11
11.3538
 21
-135.509
  0
LINE
  5
16A
100
AcDbEntity
  8
Red 2
  6
ByLayer
 62
  256
370
   -1
100
AcDbLine
 10
11.3538
 20
-135.509
 11
11.176
 21
-135.585
  0
LINE
  5
16B
100
AcDbEntity
  8
Red 2
  6
ByLayer
 62
  256
370
   -1
100
AcDbLine
 10
11.176
 20
-135.585
 11
11.049
 21
-135.585
  0
LINE
  5
16C
100
AcDbEntity
  8
Red 2
  6
ByLayer
 62
  256
370
   -1
100
AcDbLine
 10
11.049
 20
-135.585
 11
10.8458
 21
-135.509
  0
LINE
  5
16D
100
AcDbEntity
  8
Red 2
  6
ByLayer
 62
  256
370
   -1
100
AcDbLine
 10
10.8458
 20
-135.509
 11
10.7442
 21
-135.382
  0
LINE
  5
16E
100
AcDbEntity
  8
Red 2
  6
ByLayer
 62
  256
370
   -1
100
AcDbLine
 10
10.7442
 20
-135.382
 11
10.668
 21
-135.255
  0
LINE
  5
16F
100
AcDbEntity
  8
Red 2
  6
ByLayer
 62
  256
370
   -1
100
AcDbLine
 10
10.668
 20
-135.255
 11
10.6172
 21
-135.026
  0
LINE
  5
170
100
AcDbEntity
  8
Red 2
  6
ByLayer
 62
  256
370
   -1
100
AcDbLine
 10
10.6172
 20
-135.026
 11
10.6172
 21
-134.823
  0
LINE
  5
171
100
AcDbEntity
  8
Red 2
  6
ByLayer
 62
  256
370
   -1
100
AcDbLine
 10
10.6172
 20
-134.823
 11
10.668
 21
-134.595
  0
LINE
  5
172
100
AcDbEntity
  8
Red 2
  6
ByLayer
 62
  256
370
   -1
100
AcDbLine
 10
10.668
 20
-134.595
 11
10.7442
 21
-134.468
  0
LINE
  5
173
100
AcDbEntity
  8
Red 2
  6
ByLayer
 62
  256
370
   -1
100
AcDbLine
 10
10.7442
 20
-134.468
 11
10.8458
 21
-134.341
  0
LINE
  5
174
100
AcDbEntity
  8
Red 2
  6
ByLayer
 62
  256
370
   -1
100
AcDbLine
 10
10.8458
 20
-134.341
 11
11.049
 21
-134.29
  0
LINE
  5
175
100
AcDbEntity
  8
Red 2
  6
ByLayer
 62
  256
370
   -1
100
AcDbLine
 10
11.049
 20
-134.29
 11
11.176
 21
-134.29
  0
LINE
  5
176
100
AcDbEntity
  8
Red 2
  6
ByLayer
 62
  256
370
   -1
100
AcDbLine
 10
11.176
 20
-134.29
 11
11.3538
 21
-134.341
  0
LINE
  5
177
100
AcDbEntity
  8
Red 2
  6
ByLayer
 62
  256
370
   -1
100
AcDbLine
 10
11.3538
 20
-134.341
 11
11.4046
 21
-134.391
  0
LINE
  5
178
100
AcDbEntity
  8
Red 2
  6
ByLayer
 62
  256
370
   -1
100
AcDbLine
 10
10.668
 20
-185.572
 11
10.668
 21
-184.277
  0
LINE
  5
179
100
AcDbEntity
  8
Red 2
  6
ByLayer
 62
  256
370
   -1
100
AcDbLine
 10
10.668
 20
-184.277
 11
10.9728
 21
-184.277
  0
LINE
  5
17A
100
AcDbEntity
  8
Red 2
  6
ByLayer
 62
  256
370
   -1
100
AcDbLine
 10
10.9728
 20
-184.277
 11
11.176
 21
-184.328
  0
LINE
  5
17B
100
AcDbEntity
  8
Red 2
  6
ByLayer
 62
  256
370
   -1
100
AcDbLine
 10
11.176
 20
-184.328
 11
11.2776
 21
-184.455
  0
LINE
  5
17C
100
AcDbEntity
  8
Red 2
  6
ByLayer
 62
  256
370
   -1
100
AcDbLine
 10
11.2776
 20
-184.455
 11
11.3538
 21
-184.582
  0
LINE
  5
17D
100
AcDbEntity
  8
Red 2
  6
ByLayer
 62
  256
370
   -1
100
AcDbLine
 10
11.3538
 20
-184.582
 11
11.4046
 21
-184.81
  0
LINE
  5
17E
100
AcDbEntity
  8
Red 2
  6
ByLayer
 62
  256
370
   -1
100
AcDbLine
 10
11.4046
 20
-184.81
 11
11.4046
 21
-185.014
  0
LINE
  5
17F
100
AcDbEntity
  8
Red 2
  6
ByLayer
 62
  256
370
   -1
100
AcDbLine
 10
11.4046
 20
-185.014
 11
11.3538
 21
-185.242
  0
LINE
  5
180
100
AcDbEntity
  8
Red 2
  6
ByLayer
 62
  256
370
   -1
100
AcDbLine
 10
11.3538
 20
-185.242
 11
11.2776
 21
-185.369
  0
LINE
  5
181
100
AcDbEntity
  8
Red 2
  6
ByLayer
 62
  256
370
   -1
100
AcDbLine
 10
11.2776
 20
-185.369
 11
11.176
 21
-185.496
  0
LINE
  5
182
100
AcDbEntity
  8
Red 2
  6
ByLayer
 62
  256
370
   -1
100
AcDbLine
 10
11.176
 20
-185.496
 11
10.9728
 21
-185.572
  0
LINE
  5
183
100
AcDbEntity
  8
Red 2
  6
ByLayer
 62
  256
370
   -1
100
AcDbLine
 10
10.9728
 20
-185.572
 11
10.668
 21
-185.572
  0
LINE
  5
184
100
AcDbEntity
  8
Red 2
  6
ByLayer
 62
  256
370
   -1
100
AcDbLine
 10
10.7188
 20
-234.899
 11
11.1506
 21
-234.899
  0
LINE
  5
185
100
AcDbEntity
  8
Red 2
  6
ByLayer
 62
  256
370
   -1
100
AcDbLine
 10
11.3284
 20
-235.585
 11
10.7188
 21
-235.585
  0
LINE
  5
186
100
AcDbEntity
  8
Red 2
  6
ByLayer
 62
  256
370
   -1
100
AcDbLine
 10
10.7188
 20
-235.585
 11
10.7188
 21
-234.29
  0
LINE
  5
187
100
AcDbEntity
  8
Red 2
  6
ByLayer
 62
  256
370
   -1
100
AcDbLine
 10
10.7188
 20
-234.29
 11
11.3284
 21
-234.29
  0
LINE
  5
188
100
AcDbEntity
  8
Red 2
  6
ByLayer
 62
  256
370
   -1
100
AcDbLine
 10
11.176
 20
-284.886
 11
10.7442
 21
-284.886
  0
LINE
  5
189
100
AcDbEntity
  8
Red 2
  6
ByLayer
 62
  256
370
   -1
100
AcDbLine
 10
10.7442
 20
-285.572
 11
10.7442
 21
-284.277
  0
LINE
  5
18A
100
AcDbEntity
  8
Red 2
  6
ByLayer
 62
  256
370
   -1
100
AcDbLine
 10
10.7442
 20
-284.277
 11
11.3538
 21
-284.277
  0
LINE
  5
18B
100
AcDbEntity
  8
Red 2
  6
ByLayer
 62
  256
370
   -1
100
AcDbLine
 10
409.981
 20
-59.9948
 11
408
 21
-59.9948
  0
LINE
  5
18C
100
AcDbEntity
  8
Red 2
  6
ByLayer
 62
  256
370
   -1
100
AcDbLine
 10
409.981
 20
-110.007
 11
408
 21
-110.007
  0
LINE
  5
18D
100
AcDbEntity
  8
Red 2
  6
ByLayer
 62
  256
370
   -1
100
AcDbLine
 10
409.981
 20
-159.995
 11
408
 21
-159.995
  0
LINE
  5
18E
100
AcDbEntity
  8
Red 2
  6
ByLayer
 62
  256
370
   -1
100
AcDbLine
 10
409.981
 20
-210.007
 11
408
 21
-210.007
  0
LINE
  5
18F
100
AcDbEntity
  8
Red 2
  6
ByLayer
 62
  256
370
   -1
100
AcDbLine
 10
409.981
 20
-259.994
 11
408
 21
-259.994
  0
LINE
  5
190
100
AcDbEntity
  8
Red 2
  6
ByLayer
 62
  256
370
   -1
100
AcDbLine
 10
408.686
 20
-35.2044
 11
409.296
 21
-35.2044
  0
LINE
  5
191
100
AcDbEntity
  8
Red 2
  6
ByLayer
 62
  256
370
   -1
100
AcDbLine
 10
408.559
 20
-35.5854
 11
408.991
 21
-34.29
  0
LINE
  5
192
100
AcDbEntity
  8
Red 2
  6
ByLayer
 62
  256
370
   -1
100
AcDbLine
 10
408.991
 20
-34.29
 11
409.423
 21
-35.5854
  0
LINE
  5
193
100
AcDbEntity
  8
Red 2
  6
ByLayer
 62
  256
370
   -1
100
AcDbLine
 10
409.092
 20
-84.88679999999999
 11
409.27
 21
-84.9376
  0
LINE
  5
194
100
AcDbEntity
  8
Red 2
  6
ByLayer
 62
  256
370
   -1
100
AcDbLine
 10
409.27
 20
-84.9376
 11
409.346
 21
-85.0138
  0
LINE
  5
195
100
AcDbEntity
  8
Red 2
  6
ByLayer
 62
  256
370
   -1
100
AcDbLine
 10
409.346
 20
-85.0138
 11
409.397
 21
-85.1408
  0
LINE
  5
196
100
AcDbEntity
  8
Red 2
  6
ByLayer
 62
  256
370
   -1
100
AcDbLine
 10
409.397
 20
-85.1408
 11
409.397
 21
-85.3186
  0
LINE
  5
197
100
AcDbEntity
  8
Red 2
  6
ByLayer
 62
  256
370
   -1
100
AcDbLine
 10
409.397
 20
-85.3186
 11
409.346
 21
-85.4456
  0
LINE
  5
198
100
AcDbEntity
  8
Red 2
  6
ByLayer
 62
  256
370
   -1
100
AcDbLine
 10
409.346
 20
-85.4456
 11
409.27
 21
-85.49639999999999
  0
LINE
  5
199
100
AcDbEntity
  8
Red 2
  6
ByLayer
 62
  256
370
   -1
100
AcDbLine
 10
409.27
 20
-85.49639999999999
 11
409.169
 21
-85.57259999999999
  0
LINE
  5
19A
100
AcDbEntity
  8
Red 2
  6
ByLayer
 62
  256
370
   -1
100
AcDbLine
 10
409.169
 20
-85.57259999999999
 11
408.661
 21
-85.57259999999999
  0
LINE
  5
19B
100
AcDbEntity
  8
Red 2
  6
ByLayer
 62
  256
370
   -1
100
AcDbLine
 10
408.661
 20
-85.57259999999999
 11
408.661
 21
-84.27719999999999
  0
LINE
  5
19C
100
AcDbEntity
  8
Red 2
  6
ByLayer
 62
  256
370
   -1
100
AcDbLine
 10
408.661
 20
-84.27719999999999
 11
409.092
 21
-84.27719999999999
  0
LINE
  5
19D
100
AcDbEntity
  8
Red 2
  6
ByLayer
 62
  256
370
   -1
100
AcDbLine
 10
409.092
 20
-84.27719999999999
 11
409.219
 21
-84.328
  0
LINE
  5
19E
100
AcDbEntity
  8
Red 2
  6
ByLayer
 62
  256
370
   -1
100
AcDbLine
 10
409.219
 20
-84.328
 11
409.27
 21
-84.3788
  0
LINE
  5
19F
100
AcDbEntity
  8
Red 2
  6
ByLayer
 62
  256
370
   -1
100
AcDbLine
 10
409.27
 20
-84.3788
 11
409.346
 21
-84.50579999999999
  0
LINE
  5
1A0
100
AcDbEntity
  8
Red 2
  6
ByLayer
 62
  256
370
   -1
100
AcDbLine
 10
409.346
 20
-84.50579999999999
 11
409.346
 21
-84.6328
  0
LINE
  5
1A1
100
AcDbEntity
  8
Red 2
  6
ByLayer
 62
  256
370
   -1
100
AcDbLine
 10
409.346
 20
-84.6328
 11
409.27
 21
-84.7598
  0
LINE
  5
1A2
100
AcDbEntity
  8
Red 2
  6
ByLayer
 62
  256
370
   -1
100
AcDbLine
 10
409.27
 20
-84.7598
 11
409.219
 21
-84.81059999999999
  0
LINE
  5
1A3
100
AcDbEntity
  8
Red 2
  6
ByLayer
 62
  256
370
   -1
100
AcDbLine
 10
409.219
 20
-84.81059999999999
 11
409.092
 21
-84.88679999999999
  0
LINE
  5
1A4
100
AcDbEntity
  8
Red 2
  6
ByLayer
 62
  256
370
   -1
100
AcDbLine
 10
409.092
 20
-84.88679999999999
 11
408.661
 21
-84.88679999999999
  0
LINE
  5
1A5
100
AcDbEntity
  8
Red 2
  6
ByLayer
 62
  256
370
   -1
100
AcDbLine
 10
409.397
 20
-135.458
 11
409.346
 21
-135.509
  0
LINE
  5
1A6
100
AcDbEntity
  8
Red 2
  6
ByLayer
 62
  256
370
   -1
100
AcDbLine
 10
409.346
 20
-135.509
 11
409.169
 21
-135.585
  0
LINE
  5
1A7
100
AcDbEntity
  8
Red 2
  6
ByLayer
 62
  256
370
   -1
100
AcDbLine
 10
409.169
 20
-135.585
 11
409.042
 21
-135.585
  0
LINE
  5
1A8
100
AcDbEntity
  8
Red 2
  6
ByLayer
 62
  256
370
   -1
100
AcDbLine
 10
409.042
 20
-135.585
 11
408.838
 21
-135.509
  0
LINE
  5
1A9
100
AcDbEntity
  8
Red 2
  6
ByLayer
 62
  256
370
   -1
100
AcDbLine
 10
408.838
 20
-135.509
 11
408.737
 21
-135.382
  0
LINE
  5
1AA
100
AcDbEntity
  8
Red 2
  6
ByLayer
 62
  256
370
   -1
100
AcDbLine
 10
408.737
 20
-135.382
 11
408.661
 21
-135.255
  0
LINE
  5
1AB
100
AcDbEntity
  8
Red 2
  6
ByLayer
 62
  256
370
   -1
100
AcDbLine
 10
408.661
 20
-135.255
 11
408.61
 21
-135.026
  0
LINE
  5
1AC
100
AcDbEntity
  8
Red 2
  6
ByLayer
 62
  256
370
   -1
100
AcDbLine
 10
408.61
 20
-135.026
 11
408.61
 21
-134.823
  0
LINE
  5
1AD
100
AcDbEntity
  8
Red 2
  6
ByLayer
 62
  256
370
   -1
100
AcDbLine
 10
408.61
 20
-134.823
 11
408.661
 21
-134.595
  0
LINE
  5
1AE
100
AcDbEntity
  8
Red 2
  6
ByLayer
 62
  256
370
   -1
100
AcDbLine
 10
408.661
 20
-134.595
 11
408.737
 21
-134.468
  0
LINE
  5
1AF
100
AcDbEntity
  8
Red 2
  6
ByLayer
 62
  256
370
   -1
100
AcDbLine
 10
408.737
 20
-134.468
 11
408.838
 21
-134.341
  0
LINE
  5
1B0
100
AcDbEntity
  8
Red 2
  6
ByLayer
 62
  256
370
   -1
100
AcDbLine
 10
408.838
 20
-134.341
 11
409.042
 21
-134.29
  0
LINE
  5
1B1
100
AcDbEntity
  8
Red 2
  6
ByLayer
 62
  256
370
   -1
100
AcDbLine
 10
409.042
 20
-134.29
 11
409.169
 21
-134.29
  0
LINE
  5
1B2
100
AcDbEntity
  8
Red 2
  6
ByLayer
 62
  256
370
   -1
100
AcDbLine
 10
409.169
 20
-134.29
 11
409.346
 21
-134.341
  0
LINE
  5
1B3
100
AcDbEntity
  8
Red 2
  6
ByLayer
 62
  256
370
   -1
100
AcDbLine
 10
409.346
 20
-134.341
 11
409.397
 21
-134.391
  0
LINE
  5
1B4
100
AcDbEntity
  8
Red 2
  6
ByLayer
 62
  256
370
   -1
100
AcDbLine
 10
408.661
 20
-185.572
 11
408.661
 21
-184.277
  0
LINE
  5
1B5
100
AcDbEntity
  8
Red 2
  6
ByLayer
 62
  256
370
   -1
100
AcDbLine
 10
408.661
 20
-184.277
 11
408.965
 21
-184.277
  0
LINE
  5
1B6
100
AcDbEntity
  8
Red 2
  6
ByLayer
 62
  256
370
   -1
100
AcDbLine
 10
408.965
 20
-184.277
 11
409.169
 21
-184.328
  0
LINE
  5
1B7
100
AcDbEntity
  8
Red 2
  6
ByLayer
 62
  256
370
   -1
100
AcDbLine
 10
409.169
 20
-184.328
 11
409.27
 21
-184.455
  0
LINE
  5
1B8
100
AcDbEntity
  8
Red 2
  6
ByLayer
 62
  256
370
   -1
100
AcDbLine
 10
409.27
 20
-184.455
 11
409.346
 21
-184.582
  0
LINE
  5
1B9
100
AcDbEntity
  8
Red 2
  6
ByLayer
 62
  256
370
   -1
100
AcDbLine
 10
409.346
 20
-184.582
 11
409.397
 21
-184.81
  0
LINE
  5
1BA
100
AcDbEntity
  8
Red 2
  6
ByLayer
 62
  256
370
   -1
100
AcDbLine
 10
409.397
 20
-184.81
 11
409.397
 21
-185.014
  0
LINE
  5
1BB
100
AcDbEntity
  8
Red 2
  6
ByLayer
 62
  256
370
   -1
100
AcDbLine
 10
409.397
 20
-185.014
 11
409.346
 21
-185.242
  0
LINE
  5
1BC
100
AcDbEntity
  8
Red 2
  6
ByLayer
 62
  256
370
   -1
100
AcDbLine
 10
409.346
 20
-185.242
 11
409.27
 21
-185.369
  0
LINE
  5
1BD
100
AcDbEntity
  8
Red 2
  6
ByLayer
 62
  256
370
   -1
100
AcDbLine
 10
409.27
 20
-185.369
 11
409.169
 21
-185.496
  0
LINE
  5
1BE
100
AcDbEntity
  8
Red 2
  6
ByLayer
 62
  256
370
   -1
100
AcDbLine
 10
409.169
 20
-185.496
 11
408.965
 21
-185.572
  0
LINE
  5
1BF
100
AcDbEntity
  8
Red 2
  6
ByLayer
 62
  256
370
   -1
100
AcDbLine
 10
408.965
 20
-185.572
 11
408.661
 21
-185.572
  0
LINE
  5
1C0
100
AcDbEntity
  8
Red 2
  6
ByLayer
 62
  256
370
   -1
100
AcDbLine
 10
408.711
 20
-234.899
 11
409.143
 21
-234.899
  0
LINE
  5
1C1
100
AcDbEntity
  8
Red 2
  6
ByLayer
 62
  256
370
   -1
100
AcDbLine
 10
409.321
 20
-235.585
 11
408.711
 21
-235.585
  0
LINE
  5
1C2
100
AcDbEntity
  8
Red 2
  6
ByLayer
 62
  256
370
   -1
100
AcDbLine
 10
408.711
 20
-235.585
 11
408.711
 21
-234.29
  0
LINE
  5
1C3
100
AcDbEntity
  8
Red 2
  6
ByLayer
 62
  256
370
   -1
100
AcDbLine
 10
408.711
 20
-234.29
 11
409.321
 21
-234.29
  0
LINE
  5
1C4
100
AcDbEntity
  8
Red 2
  6
ByLayer
 62
  256
370
   -1
100
AcDbLine
 10
409.169
 20
-284.886
 11
408.737
 21
-284.886
  0
LINE
  5
1C5
100
AcDbEntity
  8
Red 2
  6
ByLayer
 62
  256
370
   -1
100
AcDbLine
 10
408.737
 20
-285.572
 11
408.737
 21
-284.277
  0
LINE
  5
1C6
100
AcDbEntity
  8
Red 2
  6
ByLayer
 62
  256
370
   -1
100
AcDbLine
 10
408.737
 20
-284.277
 11
409.346
 21
-284.277
  0
LINE
  5
1C7
100
AcDbEntity
  8
Red 2
  6
ByLayer
 62
  256
370
   -1
100
AcDbLine
 10
323.342
 20
-280.772
 11
323.342
 21
-279.273
  0
LINE
  5
1C8
100
AcDbEntity
  8
Red 2
  6
ByLayer
 62
  256
370
   -1
100
AcDbLine
 10
323.342
 20
-279.273
 11
323.698
 21
-279.273
  0
LINE
  5
1C9
100
AcDbEntity
  8
Red 2
  6
ByLayer
 62
  256
370
   -1
100
AcDbLine
 10
323.698
 20
-279.273
 11
323.926
 21
-279.349
  0
LINE
  5
1CA
100
AcDbEntity
  8
Red 2
  6
ByLayer
 62
  256
370
   -1
100
AcDbLine
 10
323.926
 20
-279.349
 11
324.053
 21
-279.502
  0
LINE
  5
1CB
100
AcDbEntity
  8
Red 2
  6
ByLayer
 62
  256
370
   -1
100
AcDbLine
 10
324.053
 20
-279.502
 11
324.129
 21
-279.629
  0
LINE
  5
1CC
100
AcDbEntity
  8
Red 2
  6
ByLayer
 62
  256
370
   -1
100
AcDbLine
 10
324.129
 20
-279.629
 11
324.206
 21
-279.908
  0
LINE
  5
1CD
100
AcDbEntity
  8
Red 2
  6
ByLayer
 62
  256
370
   -1
100
AcDbLine
 10
324.206
 20
-279.908
 11
324.206
 21
-280.137
  0
LINE
  5
1CE
100
AcDbEntity
  8
Red 2
  6
ByLayer
 62
  256
370
   -1
100
AcDbLine
 10
324.206
 20
-280.137
 11
324.129
 21
-280.416
  0
LINE
  5
1CF
100
AcDbEntity
  8
Red 2
  6
ByLayer
 62
  256
370
   -1
100
AcDbLine
 10
324.129
 20
-280.416
 11
324.053
 21
-280.568
  0
LINE
  5
1D0
100
AcDbEntity
  8
Red 2
  6
ByLayer
 62
  256
370
   -1
100
AcDbLine
 10
324.053
 20
-280.568
 11
323.926
 21
-280.695
  0
LINE
  5
1D1
100
AcDbEntity
  8
Red 2
  6
ByLayer
 62
  256
370
   -1
100
AcDbLine
 10
323.926
 20
-280.695
 11
323.698
 21
-280.772
  0
LINE
  5
1D2
100
AcDbEntity
  8
Red 2
  6
ByLayer
 62
  256
370
   -1
100
AcDbLine
 10
323.698
 20
-280.772
 11
323.342
 21
-280.772
  0
LINE
  5
1D3
100
AcDbEntity
  8
Red 2
  6
ByLayer
 62
  256
370
   -1
100
AcDbLine
 10
325.476
 20
-280.772
 11
325.476
 21
-279.984
  0
LINE
  5
1D4
100
AcDbEntity
  8
Red 2
  6
ByLayer
 62
  256
370
   -1
100
AcDbLine
 10
325.476
 20
-279.984
 11
325.425
 21
-279.857
  0
LINE
  5
1D5
100
AcDbEntity
  8
Red 2
  6
ByLayer
 62
  256
370
   -1
100
AcDbLine
 10
325.425
 20
-279.857
 11
325.272
 21
-279.781
  0
LINE
  5
1D6
100
AcDbEntity
  8
Red 2
  6
ByLayer
 62
  256
370
   -1
100
AcDbLine
 10
325.272
 20
-279.781
 11
324.993
 21
-279.781
  0
LINE
  5
1D7
100
AcDbEntity
  8
Red 2
  6
ByLayer
 62
  256
370
   -1
100
AcDbLine
 10
324.993
 20
-279.781
 11
324.841
 21
-279.857
  0
LINE
  5
1D8
100
AcDbEntity
  8
Red 2
  6
ByLayer
 62
  256
370
   -1
100
AcDbLine
 10
325.476
 20
-280.695
 11
325.349
 21
-280.772
  0
LINE
  5
1D9
100
AcDbEntity
  8
Red 2
  6
ByLayer
 62
  256
370
   -1
100
AcDbLine
 10
325.349
 20
-280.772
 11
324.993
 21
-280.772
  0
LINE
  5
1DA
100
AcDbEntity
  8
Red 2
  6
ByLayer
 62
  256
370
   -1
100
AcDbLine
 10
324.993
 20
-280.772
 11
324.841
 21
-280.695
  0
LINE
  5
1DB
100
AcDbEntity
  8
Red 2
  6
ByLayer
 62
  256
370
   -1
100
AcDbLine
 10
324.841
 20
-280.695
 11
324.764
 21
-280.568
  0
LINE
  5
1DC
100
AcDbEntity
  8
Red 2
  6
ByLayer
 62
  256
370
   -1
100
AcDbLine
 10
324.764
 20
-280.568
 11
324.764
 21
-280.416
  0
LINE
  5
1DD
100
AcDbEntity
  8
Red 2
  6
ByLayer
 62
  256
370
   -1
100
AcDbLine
 10
324.764
 20
-280.416
 11
324.841
 21
-280.289
  0
LINE
  5
1DE
100
AcDbEntity
  8
Red 2
  6
ByLayer
 62
  256
370
   -1
100
AcDbLine
 10
324.841
 20
-280.289
 11
324.993
 21
-280.213
  0
LINE
  5
1DF
100
AcDbEntity
  8
Red 2
  6
ByLayer
 62
  256
370
   -1
100
AcDbLine
 10
324.993
 20
-280.213
 11
325.349
 21
-280.213
  0
LINE
  5
1E0
100
AcDbEntity
  8
Red 2
  6
ByLayer
 62
  256
370
   -1
100
AcDbLine
 10
325.349
 20
-280.213
 11
325.476
 21
-280.137
  0
LINE
  5
1E1
100
AcDbEntity
  8
Red 2
  6
ByLayer
 62
  256
370
   -1
100
AcDbLine
 10
325.984
 20
-279.781
 11
326.542
 21
-279.781
  0
LINE
  5
1E2
100
AcDbEntity
  8
Red 2
  6
ByLayer
 62
  256
370
   -1
100
AcDbLine
 10
326.187
 20
-279.273
 11
326.187
 21
-280.568
  0
LINE
  5
1E3
100
AcDbEntity
  8
Red 2
  6
ByLayer
 62
  256
370
   -1
100
AcDbLine
 10
326.187
 20
-280.568
 11
326.263
 21
-280.695
  0
LINE
  5
1E4
100
AcDbEntity
  8
Red 2
  6
ByLayer
 62
  256
370
   -1
100
AcDbLine
 10
326.263
 20
-280.695
 11
326.39
 21
-280.772
  0
LINE
  5
1E5
100
AcDbEntity
  8
Red 2
  6
ByLayer
 62
  256
370
   -1
100
AcDbLine
 10
326.39
 20
-280.772
 11
326.542
 21
-280.772
  0
LINE
  5
1E6
100
AcDbEntity
  8
Red 2
  6
ByLayer
 62
  256
370
   -1
100
AcDbLine
 10
327.635
 20
-280.695
 11
327.482
 21
-280.772
  0
LINE
  5
1E7
100
AcDbEntity
  8
Red 2
  6
ByLayer
 62
  256
370
   -1
100
AcDbLine
 10
327.482
 20
-280.772
 11
327.203
 21
-280.772
  0
LINE
  5
1E8
100
AcDbEntity
  8
Red 2
  6
ByLayer
 62
  256
370
   -1
100
AcDbLine
 10
327.203
 20
-280.772
 11
327.05
 21
-280.695
  0
LINE
  5
1E9
100
AcDbEntity
  8
Red 2
  6
ByLayer
 62
  256
370
   -1
100
AcDbLine
 10
327.05
 20
-280.695
 11
326.974
 21
-280.568
  0
LINE
  5
1EA
100
AcDbEntity
  8
Red 2
  6
ByLayer
 62
  256
370
   -1
100
AcDbLine
 10
326.974
 20
-280.568
 11
326.974
 21
-279.984
  0
LINE
  5
1EB
100
AcDbEntity
  8
Red 2
  6
ByLayer
 62
  256
370
   -1
100
AcDbLine
 10
326.974
 20
-279.984
 11
327.05
 21
-279.857
  0
LINE
  5
1EC
100
AcDbEntity
  8
Red 2
  6
ByLayer
 62
  256
370
   -1
100
AcDbLine
 10
327.05
 20
-279.857
 11
327.203
 21
-279.781
  0
LINE
  5
1ED
100
AcDbEntity
  8
Red 2
  6
ByLayer
 62
  256
370
   -1
100
AcDbLine
 10
327.203
 20
-279.781
 11
327.482
 21
-279.781
  0
LINE
  5
1EE
100
AcDbEntity
  8
Red 2
  6
ByLayer
 62
  256
370
   -1
100
AcDbLine
 10
327.482
 20
-279.781
 11
327.635
 21
-279.857
  0
LINE
  5
1EF
100
AcDbEntity
  8
Red 2
  6
ByLayer
 62
  256
370
   -1
100
AcDbLine
 10
327.635
 20
-279.857
 11
327.685
 21
-279.984
  0
LINE
  5
1F0
100
AcDbEntity
  8
Red 2
  6
ByLayer
 62
  256
370
   -1
100
AcDbLine
 10
327.685
 20
-279.984
 11
327.685
 21
-280.137
  0
LINE
  5
1F1
100
AcDbEntity
  8
Red 2
  6
ByLayer
 62
  256
370
   -1
100
AcDbLine
 10
327.685
 20
-280.137
 11
326.974
 21
-280.289
  0
LINE
  5
1F2
100
AcDbEntity
  8
Red 2
  6
ByLayer
 62
  256
370
   -1
100
AcDbLine
 10
328.346
 20
-280.645
 11
328.422
 21
-280.695
  0
LINE
  5
1F3
100
AcDbEntity
  8
Red 2
  6
ByLayer
 62
  256
370
   -1
100
AcDbLine
 10
328.422
 20
-280.695
 11
328.346
 21
-280.772
  0
LINE
  5
1F4
100
AcDbEntity
  8
Red 2
  6
ByLayer
 62
  256
370
   -1
100
AcDbLine
 10
328.346
 20
-280.772
 11
328.27
 21
-280.695
  0
LINE
  5
1F5
100
AcDbEntity
  8
Red 2
  6
ByLayer
 62
  256
370
   -1
100
AcDbLine
 10
328.27
 20
-280.695
 11
328.346
 21
-280.645
  0
LINE
  5
1F6
100
AcDbEntity
  8
Red 2
  6
ByLayer
 62
  256
370
   -1
100
AcDbLine
 10
328.346
 20
-280.645
 11
328.346
 21
-280.772
  0
LINE
  5
1F7
100
AcDbEntity
  8
Red 2
  6
ByLayer
 62
  256
370
   -1
100
AcDbLine
 10
328.346
 20
-279.857
 11
328.422
 21
-279.908
  0
LINE
  5
1F8
100
AcDbEntity
  8
Red 2
  6
ByLayer
 62
  256
370
   -1
100
AcDbLine
 10
328.422
 20
-279.908
 11
328.346
 21
-279.984
  0
LINE
  5
1F9
100
AcDbEntity
  8
Red 2
  6
ByLayer
 62
  256
370
   -1
100
AcDbLine
 10
328.346
 20
-279.984
 11
328.27
 21
-279.908
  0
LINE
  5
1FA
100
AcDbEntity
  8
Red 2
  6
ByLayer
 62
  256
370
   -1
100
AcDbLine
 10
328.27
 20
-279.908
 11
328.346
 21
-279.857
  0
LINE
  5
1FB
100
AcDbEntity
  8
Red 2
  6
ByLayer
 62
  256
370
   -1
100
AcDbLine
 10
328.346
 20
-279.857
 11
328.346
 21
-279.984
  0
LINE
  5
1FC
100
AcDbEntity
  8
Red 2
  6
ByLayer
 62
  256
370
   -1
100
AcDbLine
 10
299.999
 20
-281.508
 11
408
 21
-281.508
  0
LINE
  5
1FD
100
AcDbEntity
  8
Red 2
  6
ByLayer
 62
  256
370
   -1
100
AcDbLine
 10
301.346
 20
-283.566
 11
301.346
 21
-282.067
  0
LINE
  5
1FE
100
AcDbEntity
  8
Red 2
  6
ByLayer
 62
  256
370
   -1
100
AcDbLine
 10
302.209
 20
-283.566
 11
301.549
 21
-282.702
  0
LINE
  5
1FF
100
AcDbEntity
  8
Red 2
  6
ByLayer
 62
  256
370
   -1
100
AcDbLine
 10
302.209
 20
-282.067
 11
301.346
 21
-282.931
  0
LINE
  5
200
100
AcDbEntity
  8
Red 2
  6
ByLayer
 62
  256
370
   -1
100
AcDbLine
 10
302.844
 20
-283.566
 11
302.844
 21
-282.575
  0
LINE
  5
201
100
AcDbEntity
  8
Red 2
  6
ByLayer
 62
  256
370
   -1
100
AcDbLine
 10
302.844
 20
-282.067
 11
302.768
 21
-282.143
  0
LINE
  5
202
100
AcDbEntity
  8
Red 2
  6
ByLayer
 62
  256
370
   -1
100
AcDbLine
 10
302.768
 20
-282.143
 11
302.844
 21
-282.219
  0
LINE
  5
203
100
AcDbEntity
  8
Red 2
  6
ByLayer
 62
  256
370
   -1
100
AcDbLine
 10
302.844
 20
-282.219
 11
302.92
 21
-282.143
  0
LINE
  5
204
100
AcDbEntity
  8
Red 2
  6
ByLayer
 62
  256
370
   -1
100
AcDbLine
 10
302.92
 20
-282.143
 11
302.844
 21
-282.067
  0
LINE
  5
205
100
AcDbEntity
  8
Red 2
  6
ByLayer
 62
  256
370
   -1
100
AcDbLine
 10
302.844
 20
-282.067
 11
302.844
 21
-282.219
  0
LINE
  5
206
100
AcDbEntity
  8
Red 2
  6
ByLayer
 62
  256
370
   -1
100
AcDbLine
 10
304.419
 20
-283.439
 11
304.343
 21
-283.489
  0
LINE
  5
207
100
AcDbEntity
  8
Red 2
  6
ByLayer
 62
  256
370
   -1
100
AcDbLine
 10
304.343
 20
-283.489
 11
304.14
 21
-283.566
  0
LINE
  5
208
100
AcDbEntity
  8
Red 2
  6
ByLayer
 62
  256
370
   -1
100
AcDbLine
 10
304.14
 20
-283.566
 11
303.987
 21
-283.566
  0
LINE
  5
209
100
AcDbEntity
  8
Red 2
  6
ByLayer
 62
  256
370
   -1
100
AcDbLine
 10
303.987
 20
-283.566
 11
303.759
 21
-283.489
  0
LINE
  5
20A
100
AcDbEntity
  8
Red 2
  6
ByLayer
 62
  256
370
   -1
100
AcDbLine
 10
303.759
 20
-283.489
 11
303.632
 21
-283.362
  0
LINE
  5
20B
100
AcDbEntity
  8
Red 2
  6
ByLayer
 62
  256
370
   -1
100
AcDbLine
 10
303.632
 20
-283.362
 11
303.555
 21
-283.21
  0
LINE
  5
20C
100
AcDbEntity
  8
Red 2
  6
ByLayer
 62
  256
370
   -1
100
AcDbLine
 10
303.555
 20
-283.21
 11
303.479
 21
-282.931
  0
LINE
  5
20D
100
AcDbEntity
  8
Red 2
  6
ByLayer
 62
  256
370
   -1
100
AcDbLine
 10
303.479
 20
-282.931
 11
303.479
 21
-282.702
  0
LINE
  5
20E
100
AcDbEntity
  8
Red 2
  6
ByLayer
 62
  256
370
   -1
100
AcDbLine
 10
303.479
 20
-282.702
 11
303.555
 21
-282.423
  0
LINE
  5
20F
100
AcDbEntity
  8
Red 2
  6
ByLayer
 62
  256
370
   -1
100
AcDbLine
 10
303.555
 20
-282.423
 11
303.632
 21
-282.296
  0
LINE
  5
210
100
AcDbEntity
  8
Red 2
  6
ByLayer
 62
  256
370
   -1
100
AcDbLine
 10
303.632
 20
-282.296
 11
303.759
 21
-282.143
  0
LINE
  5
211
100
AcDbEntity
  8
Red 2
  6
ByLayer
 62
  256
370
   -1
100
AcDbLine
 10
303.759
 20
-282.143
 11
303.987
 21
-282.067
  0
LINE
  5
212
100
AcDbEntity
  8
Red 2
  6
ByLayer
 62
  256
370
   -1
100
AcDbLine
 10
303.987
 20
-282.067
 11
304.14
 21
-282.067
  0
LINE
  5
213
100
AcDbEntity
  8
Red 2
  6
ByLayer
 62
  256
370
   -1
100
AcDbLine
 10
304.14
 20
-282.067
 11
304.343
 21
-282.143
  0
LINE
  5
214
100
AcDbEntity
  8
Red 2
  6
ByLayer
 62
  256
370
   -1
100
AcDbLine
 10
304.343
 20
-282.143
 11
304.419
 21
-282.219
  0
LINE
  5
215
100
AcDbEntity
  8
Red 2
  6
ByLayer
 62
  256
370
   -1
100
AcDbLine
 10
305.689
 20
-283.566
 11
305.689
 21
-282.778
  0
LINE
  5
216
100
AcDbEntity
  8
Red 2
  6
ByLayer
 62
  256
370
   -1
100
AcDbLine
 10
305.689
 20
-282.778
 11
305.638
 21
-282.651
  0
LINE
  5
217
100
AcDbEntity
  8
Red 2
  6
ByLayer
 62
  256
370
   -1
100
AcDbLine
 10
305.638
 20
-282.651
 11
305.486
 21
-282.575
  0
LINE
  5
218
100
AcDbEntity
  8
Red 2
  6
ByLayer
 62
  256
370
   -1
100
AcDbLine
 10
305.486
 20
-282.575
 11
305.206
 21
-282.575
  0
LINE
  5
219
100
AcDbEntity
  8
Red 2
  6
ByLayer
 62
  256
370
   -1
100
AcDbLine
 10
305.206
 20
-282.575
 11
305.054
 21
-282.651
  0
LINE
  5
21A
100
AcDbEntity
  8
Red 2
  6
ByLayer
 62
  256
370
   -1
100
AcDbLine
 10
305.689
 20
-283.489
 11
305.562
 21
-283.566
  0
LINE
  5
21B
100
AcDbEntity
  8
Red 2
  6
ByLayer
 62
  256
370
   -1
100
AcDbLine
 10
305.562
 20
-283.566
 11
305.206
 21
-283.566
  0
LINE
  5
21C
100
AcDbEntity
  8
Red 2
  6
ByLayer
 62
  256
370
   -1
100
AcDbLine
 10
305.206
 20
-283.566
 11
305.054
 21
-283.489
  0
LINE
  5
21D
100
AcDbEntity
  8
Red 2
  6
ByLayer
 62
  256
370
   -1
100
AcDbLine
 10
305.054
 20
-283.489
 11
304.978
 21
-283.362
  0
LINE
  5
21E
100
AcDbEntity
  8
Red 2
  6
ByLayer
 62
  256
370
   -1
100
AcDbLine
 10
304.978
 20
-283.362
 11
304.978
 21
-283.21
  0
LINE
  5
21F
100
AcDbEntity
  8
Red 2
  6
ByLayer
 62
  256
370
   -1
100
AcDbLine
 10
304.978
 20
-283.21
 11
305.054
 21
-283.083
  0
LINE
  5
220
100
AcDbEntity
  8
Red 2
  6
ByLayer
 62
  256
370
   -1
100
AcDbLine
 10
305.054
 20
-283.083
 11
305.206
 21
-283.007
  0
LINE
  5
221
100
AcDbEntity
  8
Red 2
  6
ByLayer
 62
  256
370
   -1
100
AcDbLine
 10
305.206
 20
-283.007
 11
305.562
 21
-283.007
  0
LINE
  5
222
100
AcDbEntity
  8
Red 2
  6
ByLayer
 62
  256
370
   -1
100
AcDbLine
 10
305.562
 20
-283.007
 11
305.689
 21
-282.931
  0
LINE
  5
223
100
AcDbEntity
  8
Red 2
  6
ByLayer
 62
  256
370
   -1
100
AcDbLine
 10
307.035
 20
-283.566
 11
307.035
 21
-282.067
  0
LINE
  5
224
100
AcDbEntity
  8
Red 2
  6
ByLayer
 62
  256
370
   -1
100
AcDbLine
 10
307.035
 20
-283.489
 11
306.908
 21
-283.566
  0
LINE
  5
225
100
AcDbEntity
  8
Red 2
  6
ByLayer
 62
  256
370
   -1
100
AcDbLine
 10
306.908
 20
-283.566
 11
306.603
 21
-283.566
  0
LINE
  5
226
100
AcDbEntity
  8
Red 2
  6
ByLayer
 62
  256
370
   -1
100
AcDbLine
 10
306.603
 20
-283.566
 11
306.476
 21
-283.489
  0
LINE
  5
227
100
AcDbEntity
  8
Red 2
  6
ByLayer
 62
  256
370
   -1
100
AcDbLine
 10
306.476
 20
-283.489
 11
306.4
 21
-283.439
  0
LINE
  5
228
100
AcDbEntity
  8
Red 2
  6
ByLayer
 62
  256
370
   -1
100
AcDbLine
 10
306.4
 20
-283.439
 11
306.324
 21
-283.286
  0
LINE
  5
229
100
AcDbEntity
  8
Red 2
  6
ByLayer
 62
  256
370
   -1
100
AcDbLine
 10
306.324
 20
-283.286
 11
306.324
 21
-282.854
  0
LINE
  5
22A
100
AcDbEntity
  8
Red 2
  6
ByLayer
 62
  256
370
   -1
100
AcDbLine
 10
306.324
 20
-282.854
 11
306.4
 21
-282.702
  0
LINE
  5
22B
100
AcDbEntity
  8
Red 2
  6
ByLayer
 62
  256
370
   -1
100
AcDbLine
 10
306.4
 20
-282.702
 11
306.476
 21
-282.651
  0
LINE
  5
22C
100
AcDbEntity
  8
Red 2
  6
ByLayer
 62
  256
370
   -1
100
AcDbLine
 10
306.476
 20
-282.651
 11
306.603
 21
-282.575
  0
LINE
  5
22D
100
AcDbEntity
  8
Red 2
  6
ByLayer
 62
  256
370
   -1
100
AcDbLine
 10
306.603
 20
-282.575
 11
306.908
 21
-282.575
  0
LINE
  5
22E
100
AcDbEntity
  8
Red 2
  6
ByLayer
 62
  256
370
   -1
100
AcDbLine
 10
306.908
 20
-282.575
 11
307.035
 21
-282.651
  0
LINE
  5
22F
100
AcDbEntity
  8
Red 2
  6
ByLayer
 62
  256
370
   -1
100
AcDbLine
 10
308.889
 20
-282.778
 11
309.397
 21
-282.778
  0
LINE
  5
230
100
AcDbEntity
  8
Red 2
  6
ByLayer
 62
  256
370
   -1
100
AcDbLine
 10
309.601
 20
-283.566
 11
308.889
 21
-283.566
  0
LINE
  5
231
100
AcDbEntity
  8
Red 2
  6
ByLayer
 62
  256
370
   -1
100
AcDbLine
 10
308.889
 20
-283.566
 11
308.889
 21
-282.067
  0
LINE
  5
232
100
AcDbEntity
  8
Red 2
  6
ByLayer
 62
  256
370
   -1
100
AcDbLine
 10
308.889
 20
-282.067
 11
309.601
 21
-282.067
  0
LINE
  5
233
100
AcDbEntity
  8
Red 2
  6
ByLayer
 62
  256
370
   -1
100
AcDbLine
 10
310.236
 20
-283.439
 11
310.312
 21
-283.489
  0
LINE
  5
234
100
AcDbEntity
  8
Red 2
  6
ByLayer
 62
  256
370
   -1
100
AcDbLine
 10
310.312
 20
-283.489
 11
310.236
 21
-283.566
  0
LINE
  5
235
100
AcDbEntity
  8
Red 2
  6
ByLayer
 62
  256
370
   -1
100
AcDbLine
 10
310.236
 20
-283.566
 11
310.159
 21
-283.489
  0
LINE
  5
236
100
AcDbEntity
  8
Red 2
  6
ByLayer
 62
  256
370
   -1
100
AcDbLine
 10
310.159
 20
-283.489
 11
310.236
 21
-283.439
  0
LINE
  5
237
100
AcDbEntity
  8
Red 2
  6
ByLayer
 62
  256
370
   -1
100
AcDbLine
 10
310.236
 20
-283.439
 11
310.236
 21
-283.566
  0
LINE
  5
238
100
AcDbEntity
  8
Red 2
  6
ByLayer
 62
  256
370
   -1
100
AcDbLine
 10
310.947
 20
-283.566
 11
310.947
 21
-282.067
  0
LINE
  5
239
100
AcDbEntity
  8
Red 2
  6
ByLayer
 62
  256
370
   -1
100
AcDbLine
 10
310.947
 20
-282.067
 11
311.302
 21
-282.067
  0
LINE
  5
23A
100
AcDbEntity
  8
Red 2
  6
ByLayer
 62
  256
370
   -1
100
AcDbLine
 10
311.302
 20
-282.067
 11
311.531
 21
-282.143
  0
LINE
  5
23B
100
AcDbEntity
  8
Red 2
  6
ByLayer
 62
  256
370
   -1
100
AcDbLine
 10
311.531
 20
-282.143
 11
311.658
 21
-282.296
  0
LINE
  5
23C
100
AcDbEntity
  8
Red 2
  6
ByLayer
 62
  256
370
   -1
100
AcDbLine
 10
311.658
 20
-282.296
 11
311.734
 21
-282.423
  0
LINE
  5
23D
100
AcDbEntity
  8
Red 2
  6
ByLayer
 62
  256
370
   -1
100
AcDbLine
 10
311.734
 20
-282.423
 11
311.81
 21
-282.702
  0
LINE
  5
23E
100
AcDbEntity
  8
Red 2
  6
ByLayer
 62
  256
370
   -1
100
AcDbLine
 10
311.81
 20
-282.702
 11
311.81
 21
-282.931
  0
LINE
  5
23F
100
AcDbEntity
  8
Red 2
  6
ByLayer
 62
  256
370
   -1
100
AcDbLine
 10
311.81
 20
-282.931
 11
311.734
 21
-283.21
  0
LINE
  5
240
100
AcDbEntity
  8
Red 2
  6
ByLayer
 62
  256
370
   -1
100
AcDbLine
 10
311.734
 20
-283.21
 11
311.658
 21
-283.362
  0
LINE
  5
241
100
AcDbEntity
  8
Red 2
  6
ByLayer
 62
  256
370
   -1
100
AcDbLine
 10
311.658
 20
-283.362
 11
311.531
 21
-283.489
  0
LINE
  5
242
100
AcDbEntity
  8
Red 2
  6
ByLayer
 62
  256
370
   -1
100
AcDbLine
 10
311.531
 20
-283.489
 11
311.302
 21
-283.566
  0
LINE
  5
243
100
AcDbEntity
  8
Red 2
  6
ByLayer
 62
  256
370
   -1
100
AcDbLine
 10
311.302
 20
-283.566
 11
310.947
 21
-283.566
  0
LINE
  5
244
100
AcDbEntity
  8
Red 2
  6
ByLayer
 62
  256
370
   -1
100
AcDbLine
 10
312.445
 20
-283.439
 11
312.522
 21
-283.489
  0
LINE
  5
245
100
AcDbEntity
  8
Red 2
  6
ByLayer
 62
  256
370
   -1
100
AcDbLine
 10
312.522
 20
-283.489
 11
312.445
 21
-283.566
  0
LINE
  5
246
100
AcDbEntity
  8
Red 2
  6
ByLayer
 62
  256
370
   -1
100
AcDbLine
 10
312.445
 20
-283.566
 11
312.369
 21
-283.489
  0
LINE
  5
247
100
AcDbEntity
  8
Red 2
  6
ByLayer
 62
  256
370
   -1
100
AcDbLine
 10
312.369
 20
-283.489
 11
312.445
 21
-283.439
  0
LINE
  5
248
100
AcDbEntity
  8
Red 2
  6
ByLayer
 62
  256
370
   -1
100
AcDbLine
 10
312.445
 20
-283.439
 11
312.445
 21
-283.566
  0
LINE
  5
249
100
AcDbEntity
  8
Red 2
  6
ByLayer
 62
  256
370
   -1
100
AcDbLine
 10
313.08
 20
-283.134
 11
313.792
 21
-283.134
  0
LINE
  5
24A
100
AcDbEntity
  8
Red 2
  6
ByLayer
 62
  256
370
   -1
100
AcDbLine
 10
312.953
 20
-283.566
 11
313.436
 21
-282.067
  0
LINE
  5
24B
100
AcDbEntity
  8
Red 2
  6
ByLayer
 62
  256
370
   -1
100
AcDbLine
 10
313.436
 20
-282.067
 11
313.944
 21
-283.566
  0
LINE
  5
24C
100
AcDbEntity
  8
Red 2
  6
ByLayer
 62
  256
370
   -1
100
AcDbLine
 10
314.452
 20
-283.439
 11
314.528
 21
-283.489
  0
LINE
  5
24D
100
AcDbEntity
  8
Red 2
  6
ByLayer
 62
  256
370
   -1
100
AcDbLine
 10
314.528
 20
-283.489
 11
314.452
 21
-283.566
  0
LINE
  5
24E
100
AcDbEntity
  8
Red 2
  6
ByLayer
 62
  256
370
   -1
100
AcDbLine
 10
314.452
 20
-283.566
 11
314.376
 21
-283.489
  0
LINE
  5
24F
100
AcDbEntity
  8
Red 2
  6
ByLayer
 62
  256
370
   -1
100
AcDbLine
 10
314.376
 20
-283.489
 11
314.452
 21
-283.439
  0
LINE
  5
250
100
AcDbEntity
  8
Red 2
  6
ByLayer
 62
  256
370
   -1
100
AcDbLine
 10
314.452
 20
-283.439
 11
314.452
 21
-283.566
  0
LINE
  5
251
100
AcDbEntity
  8
Red 2
  6
ByLayer
 62
  256
370
   -1
100
AcDbLine
 10
317.449
 20
-283.566
 11
317.449
 21
-282.067
  0
LINE
  5
252
100
AcDbEntity
  8
Red 2
  6
ByLayer
 62
  256
370
   -1
100
AcDbLine
 10
317.602
 20
-283.007
 11
318.033
 21
-283.566
  0
LINE
  5
253
100
AcDbEntity
  8
Red 2
  6
ByLayer
 62
  256
370
   -1
100
AcDbLine
 10
318.033
 20
-282.575
 11
317.449
 21
-283.134
  0
LINE
  5
254
100
AcDbEntity
  8
Red 2
  6
ByLayer
 62
  256
370
   -1
100
AcDbLine
 10
318.668
 20
-283.566
 11
318.668
 21
-282.575
  0
LINE
  5
255
100
AcDbEntity
  8
Red 2
  6
ByLayer
 62
  256
370
   -1
100
AcDbLine
 10
318.668
 20
-282.067
 11
318.592
 21
-282.143
  0
LINE
  5
256
100
AcDbEntity
  8
Red 2
  6
ByLayer
 62
  256
370
   -1
100
AcDbLine
 10
318.592
 20
-282.143
 11
318.668
 21
-282.219
  0
LINE
  5
257
100
AcDbEntity
  8
Red 2
  6
ByLayer
 62
  256
370
   -1
100
AcDbLine
 10
318.668
 20
-282.219
 11
318.745
 21
-282.143
  0
LINE
  5
258
100
AcDbEntity
  8
Red 2
  6
ByLayer
 62
  256
370
   -1
100
AcDbLine
 10
318.745
 20
-282.143
 11
318.668
 21
-282.067
  0
LINE
  5
259
100
AcDbEntity
  8
Red 2
  6
ByLayer
 62
  256
370
   -1
100
AcDbLine
 10
318.668
 20
-282.067
 11
318.668
 21
-282.219
  0
LINE
  5
25A
100
AcDbEntity
  8
Red 2
  6
ByLayer
 62
  256
370
   -1
100
AcDbLine
 10
320.015
 20
-283.489
 11
319.888
 21
-283.566
  0
LINE
  5
25B
100
AcDbEntity
  8
Red 2
  6
ByLayer
 62
  256
370
   -1
100
AcDbLine
 10
319.888
 20
-283.566
 11
319.583
 21
-283.566
  0
LINE
  5
25C
100
AcDbEntity
  8
Red 2
  6
ByLayer
 62
  256
370
   -1
100
AcDbLine
 10
319.583
 20
-283.566
 11
319.456
 21
-283.489
  0
LINE
  5
25D
100
AcDbEntity
  8
Red 2
  6
ByLayer
 62
  256
370
   -1
100
AcDbLine
 10
319.456
 20
-283.489
 11
319.38
 21
-283.439
  0
LINE
  5
25E
100
AcDbEntity
  8
Red 2
  6
ByLayer
 62
  256
370
   -1
100
AcDbLine
 10
319.38
 20
-283.439
 11
319.303
 21
-283.286
  0
LINE
  5
25F
100
AcDbEntity
  8
Red 2
  6
ByLayer
 62
  256
370
   -1
100
AcDbLine
 10
319.303
 20
-283.286
 11
319.303
 21
-282.854
  0
LINE
  5
260
100
AcDbEntity
  8
Red 2
  6
ByLayer
 62
  256
370
   -1
100
AcDbLine
 10
319.303
 20
-282.854
 11
319.38
 21
-282.702
  0
LINE
  5
261
100
AcDbEntity
  8
Red 2
  6
ByLayer
 62
  256
370
   -1
100
AcDbLine
 10
319.38
 20
-282.702
 11
319.456
 21
-282.651
  0
LINE
  5
262
100
AcDbEntity
  8
Red 2
  6
ByLayer
 62
  256
370
   -1
100
AcDbLine
 10
319.456
 20
-282.651
 11
319.583
 21
-282.575
  0
LINE
  5
263
100
AcDbEntity
  8
Red 2
  6
ByLayer
 62
  256
370
   -1
100
AcDbLine
 10
319.583
 20
-282.575
 11
319.888
 21
-282.575
  0
LINE
  5
264
100
AcDbEntity
  8
Red 2
  6
ByLayer
 62
  256
370
   -1
100
AcDbLine
 10
319.888
 20
-282.575
 11
320.015
 21
-282.651
  0
LINE
  5
265
100
AcDbEntity
  8
Red 2
  6
ByLayer
 62
  256
370
   -1
100
AcDbLine
 10
321.31
 20
-283.566
 11
321.31
 21
-282.778
  0
LINE
  5
266
100
AcDbEntity
  8
Red 2
  6
ByLayer
 62
  256
370
   -1
100
AcDbLine
 10
321.31
 20
-282.778
 11
321.259
 21
-282.651
  0
LINE
  5
267
100
AcDbEntity
  8
Red 2
  6
ByLayer
 62
  256
370
   -1
100
AcDbLine
 10
321.259
 20
-282.651
 11
321.107
 21
-282.575
  0
LINE
  5
268
100
AcDbEntity
  8
Red 2
  6
ByLayer
 62
  256
370
   -1
100
AcDbLine
 10
321.107
 20
-282.575
 11
320.827
 21
-282.575
  0
LINE
  5
269
100
AcDbEntity
  8
Red 2
  6
ByLayer
 62
  256
370
   -1
100
AcDbLine
 10
320.827
 20
-282.575
 11
320.675
 21
-282.651
  0
LINE
  5
26A
100
AcDbEntity
  8
Red 2
  6
ByLayer
 62
  256
370
   -1
100
AcDbLine
 10
321.31
 20
-283.489
 11
321.183
 21
-283.566
  0
LINE
  5
26B
100
AcDbEntity
  8
Red 2
  6
ByLayer
 62
  256
370
   -1
100
AcDbLine
 10
321.183
 20
-283.566
 11
320.827
 21
-283.566
  0
LINE
  5
26C
100
AcDbEntity
  8
Red 2
  6
ByLayer
 62
  256
370
   -1
100
AcDbLine
 10
320.827
 20
-283.566
 11
320.675
 21
-283.489
  0
LINE
  5
26D
100
AcDbEntity
  8
Red 2
  6
ByLayer
 62
  256
370
   -1
100
AcDbLine
 10
320.675
 20
-283.489
 11
320.599
 21
-283.362
  0
LINE
  5
26E
100
AcDbEntity
  8
Red 2
  6
ByLayer
 62
  256
370
   -1
100
AcDbLine
 10
320.599
 20
-283.362
 11
320.599
 21
-283.21
  0
LINE
  5
26F
100
AcDbEntity
  8
Red 2
  6
ByLayer
 62
  256
370
   -1
100
AcDbLine
 10
320.599
 20
-283.21
 11
320.675
 21
-283.083
  0
LINE
  5
270
100
AcDbEntity
  8
Red 2
  6
ByLayer
 62
  256
370
   -1
100
AcDbLine
 10
320.675
 20
-283.083
 11
320.827
 21
-283.007
  0
LINE
  5
271
100
AcDbEntity
  8
Red 2
  6
ByLayer
 62
  256
370
   -1
100
AcDbLine
 10
320.827
 20
-283.007
 11
321.183
 21
-283.007
  0
LINE
  5
272
100
AcDbEntity
  8
Red 2
  6
ByLayer
 62
  256
370
   -1
100
AcDbLine
 10
321.183
 20
-283.007
 11
321.31
 21
-282.931
  0
LINE
  5
273
100
AcDbEntity
  8
Red 2
  6
ByLayer
 62
  256
370
   -1
100
AcDbLine
 10
322.656
 20
-283.566
 11
322.656
 21
-282.067
  0
LINE
  5
274
100
AcDbEntity
  8
Red 2
  6
ByLayer
 62
  256
370
   -1
100
AcDbLine
 10
322.656
 20
-283.489
 11
322.529
 21
-283.566
  0
LINE
  5
275
100
AcDbEntity
  8
Red 2
  6
ByLayer
 62
  256
370
   -1
100
AcDbLine
 10
322.529
 20
-283.566
 11
322.224
 21
-283.566
  0
LINE
  5
276
100
AcDbEntity
  8
Red 2
  6
ByLayer
 62
  256
370
   -1
100
AcDbLine
 10
322.224
 20
-283.566
 11
322.097
 21
-283.489
  0
LINE
  5
277
100
AcDbEntity
  8
Red 2
  6
ByLayer
 62
  256
370
   -1
100
AcDbLine
 10
322.097
 20
-283.489
 11
322.021
 21
-283.439
  0
LINE
  5
278
100
AcDbEntity
  8
Red 2
  6
ByLayer
 62
  256
370
   -1
100
AcDbLine
 10
322.021
 20
-283.439
 11
321.945
 21
-283.286
  0
LINE
  5
279
100
AcDbEntity
  8
Red 2
  6
ByLayer
 62
  256
370
   -1
100
AcDbLine
 10
321.945
 20
-283.286
 11
321.945
 21
-282.854
  0
LINE
  5
27A
100
AcDbEntity
  8
Red 2
  6
ByLayer
 62
  256
370
   -1
100
AcDbLine
 10
321.945
 20
-282.854
 11
322.021
 21
-282.702
  0
LINE
  5
27B
100
AcDbEntity
  8
Red 2
  6
ByLayer
 62
  256
370
   -1
100
AcDbLine
 10
322.021
 20
-282.702
 11
322.097
 21
-282.651
  0
LINE
  5
27C
100
AcDbEntity
  8
Red 2
  6
ByLayer
 62
  256
370
   -1
100
AcDbLine
 10
322.097
 20
-282.651
 11
322.224
 21
-282.575
  0
LINE
  5
27D
100
AcDbEntity
  8
Red 2
  6
ByLayer
 62
  256
370
   -1
100
AcDbLine
 10
322.224
 20
-282.575
 11
322.529
 21
-282.575
  0
LINE
  5
27E
100
AcDbEntity
  8
Red 2
  6
ByLayer
 62
  256
370
   -1
100
AcDbLine
 10
322.529
 20
-282.575
 11
322.656
 21
-282.651
  0
LINE
  5
27F
100
AcDbEntity
  8
Red 2
  6
ByLayer
 62
  256
370
   -1
100
AcDbLine
 10
325.145
 20
-282.575
 11
325.145
 21
-283.566
  0
LINE
  5
280
100
AcDbEntity
  8
Red 2
  6
ByLayer
 62
  256
370
   -1
100
AcDbLine
 10
324.79
 20
-281.991
 11
324.434
 21
-283.083
  0
LINE
  5
281
100
AcDbEntity
  8
Red 2
  6
ByLayer
 62
  256
370
   -1
100
AcDbLine
 10
324.434
 20
-283.083
 11
325.374
 21
-283.083
  0
LINE
  5
282
100
AcDbEntity
  8
Red 2
  6
ByLayer
 62
  256
370
   -1
100
AcDbLine
 10
325.933
 20
-283.439
 11
326.009
 21
-283.489
  0
LINE
  5
283
100
AcDbEntity
  8
Red 2
  6
ByLayer
 62
  256
370
   -1
100
AcDbLine
 10
326.009
 20
-283.489
 11
325.933
 21
-283.566
  0
LINE
  5
284
100
AcDbEntity
  8
Red 2
  6
ByLayer
 62
  256
370
   -1
100
AcDbLine
 10
325.933
 20
-283.566
 11
325.857
 21
-283.489
  0
LINE
  5
285
100
AcDbEntity
  8
Red 2
  6
ByLayer
 62
  256
370
   -1
100
AcDbLine
 10
325.857
 20
-283.489
 11
325.933
 21
-283.439
  0
LINE
  5
286
100
AcDbEntity
  8
Red 2
  6
ByLayer
 62
  256
370
   -1
100
AcDbLine
 10
325.933
 20
-283.439
 11
325.933
 21
-283.566
  0
LINE
  5
287
100
AcDbEntity
  8
Red 2
  6
ByLayer
 62
  256
370
   -1
100
AcDbLine
 10
326.923
 20
-282.067
 11
327.076
 21
-282.067
  0
LINE
  5
288
100
AcDbEntity
  8
Red 2
  6
ByLayer
 62
  256
370
   -1
100
AcDbLine
 10
327.076
 20
-282.067
 11
327.228
 21
-282.143
  0
LINE
  5
289
100
AcDbEntity
  8
Red 2
  6
ByLayer
 62
  256
370
   -1
100
AcDbLine
 10
327.228
 20
-282.143
 11
327.279
 21
-282.219
  0
LINE
  5
28A
100
AcDbEntity
  8
Red 2
  6
ByLayer
 62
  256
370
   -1
100
AcDbLine
 10
327.279
 20
-282.219
 11
327.355
 21
-282.346
  0
LINE
  5
28B
100
AcDbEntity
  8
Red 2
  6
ByLayer
 62
  256
370
   -1
100
AcDbLine
 10
327.355
 20
-282.346
 11
327.431
 21
-282.651
  0
LINE
  5
28C
100
AcDbEntity
  8
Red 2
  6
ByLayer
 62
  256
370
   -1
100
AcDbLine
 10
327.431
 20
-282.651
 11
327.431
 21
-283.007
  0
LINE
  5
28D
100
AcDbEntity
  8
Red 2
  6
ByLayer
 62
  256
370
   -1
100
AcDbLine
 10
327.431
 20
-283.007
 11
327.355
 21
-283.286
  0
LINE
  5
28E
100
AcDbEntity
  8
Red 2
  6
ByLayer
 62
  256
370
   -1
100
AcDbLine
 10
327.355
 20
-283.286
 11
327.279
 21
-283.439
  0
LINE
  5
28F
100
AcDbEntity
  8
Red 2
  6
ByLayer
 62
  256
370
   -1
100
AcDbLine
 10
327.279
 20
-283.439
 11
327.228
 21
-283.489
  0
LINE
  5
290
100
AcDbEntity
  8
Red 2
  6
ByLayer
 62
  256
370
   -1
100
AcDbLine
 10
327.228
 20
-283.489
 11
327.076
 21
-283.566
  0
LINE
  5
291
100
AcDbEntity
  8
Red 2
  6
ByLayer
 62
  256
370
   -1
100
AcDbLine
 10
327.076
 20
-283.566
 11
326.923
 21
-283.566
  0
LINE
  5
292
100
AcDbEntity
  8
Red 2
  6
ByLayer
 62
  256
370
   -1
100
AcDbLine
 10
326.923
 20
-283.566
 11
326.796
 21
-283.489
  0
LINE
  5
293
100
AcDbEntity
  8
Red 2
  6
ByLayer
 62
  256
370
   -1
100
AcDbLine
 10
326.796
 20
-283.489
 11
326.72
 21
-283.439
  0
LINE
  5
294
100
AcDbEntity
  8
Red 2
  6
ByLayer
 62
  256
370
   -1
100
AcDbLine
 10
326.72
 20
-283.439
 11
326.644
 21
-283.286
  0
LINE
  5
295
100
AcDbEntity
  8
Red 2
  6
ByLayer
 62
  256
370
   -1
100
AcDbLine
 10
326.644
 20
-283.286
 11
326.568
 21
-283.007
  0
LINE
  5
296
100
AcDbEntity
  8
Red 2
  6
ByLayer
 62
  256
370
   -1
100
AcDbLine
 10
326.568
 20
-283.007
 11
326.568
 21
-282.651
  0
LINE
  5
297
100
AcDbEntity
  8
Red 2
  6
ByLayer
 62
  256
370
   -1
100
AcDbLine
 10
326.568
 20
-282.651
 11
326.644
 21
-282.346
  0
LINE
  5
298
100
AcDbEntity
  8
Red 2
  6
ByLayer
 62
  256
370
   -1
100
AcDbLine
 10
326.644
 20
-282.346
 11
326.72
 21
-282.219
  0
LINE
  5
299
100
AcDbEntity
  8
Red 2
  6
ByLayer
 62
  256
370
   -1
100
AcDbLine
 10
326.72
 20
-282.219
 11
326.796
 21
-282.143
  0
LINE
  5
29A
100
AcDbEntity
  8
Red 2
  6
ByLayer
 62
  256
370
   -1
100
AcDbLine
 10
326.796
 20
-282.143
 11
326.923
 21
-282.067
  0
LINE
  5
29B
100
AcDbEntity
  8
Red 2
  6
ByLayer
 62
  256
370
   -1
100
AcDbLine
 10
328.066
 20
-283.439
 11
328.143
 21
-283.489
  0
LINE
  5
29C
100
AcDbEntity
  8
Red 2
  6
ByLayer
 62
  256
370
   -1
100
AcDbLine
 10
328.143
 20
-283.489
 11
328.066
 21
-283.566
  0
LINE
  5
29D
100
AcDbEntity
  8
Red 2
  6
ByLayer
 62
  256
370
   -1
100
AcDbLine
 10
328.066
 20
-283.566
 11
327.99
 21
-283.489
  0
LINE
  5
29E
100
AcDbEntity
  8
Red 2
  6
ByLayer
 62
  256
370
   -1
100
AcDbLine
 10
327.99
 20
-283.489
 11
328.066
 21
-283.439
  0
LINE
  5
29F
100
AcDbEntity
  8
Red 2
  6
ByLayer
 62
  256
370
   -1
100
AcDbLine
 10
328.066
 20
-283.439
 11
328.066
 21
-283.566
  0
LINE
  5
2A0
100
AcDbEntity
  8
Red 2
  6
ByLayer
 62
  256
370
   -1
100
AcDbLine
 10
329.489
 20
-282.067
 11
328.778
 21
-282.067
  0
LINE
  5
2A1
100
AcDbEntity
  8
Red 2
  6
ByLayer
 62
  256
370
   -1
100
AcDbLine
 10
328.778
 20
-282.067
 11
328.701
 21
-282.778
  0
LINE
  5
2A2
100
AcDbEntity
  8
Red 2
  6
ByLayer
 62
  256
370
   -1
100
AcDbLine
 10
328.701
 20
-282.778
 11
328.778
 21
-282.702
  0
LINE
  5
2A3
100
AcDbEntity
  8
Red 2
  6
ByLayer
 62
  256
370
   -1
100
AcDbLine
 10
328.778
 20
-282.702
 11
328.93
 21
-282.651
  0
LINE
  5
2A4
100
AcDbEntity
  8
Red 2
  6
ByLayer
 62
  256
370
   -1
100
AcDbLine
 10
328.93
 20
-282.651
 11
329.286
 21
-282.651
  0
LINE
  5
2A5
100
AcDbEntity
  8
Red 2
  6
ByLayer
 62
  256
370
   -1
100
AcDbLine
 10
329.286
 20
-282.651
 11
329.413
 21
-282.702
  0
LINE
  5
2A6
100
AcDbEntity
  8
Red 2
  6
ByLayer
 62
  256
370
   -1
100
AcDbLine
 10
329.413
 20
-282.702
 11
329.489
 21
-282.778
  0
LINE
  5
2A7
100
AcDbEntity
  8
Red 2
  6
ByLayer
 62
  256
370
   -1
100
AcDbLine
 10
329.489
 20
-282.778
 11
329.565
 21
-282.931
  0
LINE
  5
2A8
100
AcDbEntity
  8
Red 2
  6
ByLayer
 62
  256
370
   -1
100
AcDbLine
 10
329.565
 20
-282.931
 11
329.565
 21
-283.286
  0
LINE
  5
2A9
100
AcDbEntity
  8
Red 2
  6
ByLayer
 62
  256
370
   -1
100
AcDbLine
 10
329.565
 20
-283.286
 11
329.489
 21
-283.439
  0
LINE
  5
2AA
100
AcDbEntity
  8
Red 2
  6
ByLayer
 62
  256
370
   -1
100
AcDbLine
 10
329.489
 20
-283.439
 11
329.413
 21
-283.489
  0
LINE
  5
2AB
100
AcDbEntity
  8
Red 2
  6
ByLayer
 62
  256
370
   -1
100
AcDbLine
 10
329.413
 20
-283.489
 11
329.286
 21
-283.566
  0
LINE
  5
2AC
100
AcDbEntity
  8
Red 2
  6
ByLayer
 62
  256
370
   -1
100
AcDbLine
 10
329.286
 20
-283.566
 11
328.93
 21
-283.566
  0
LINE
  5
2AD
100
AcDbEntity
  8
Red 2
  6
ByLayer
 62
  256
370
   -1
100
AcDbLine
 10
328.93
 20
-283.566
 11
328.778
 21
-283.489
  0
LINE
  5
2AE
100
AcDbEntity
  8
Red 2
  6
ByLayer
 62
  256
370
   -1
100
AcDbLine
 10
328.778
 20
-283.489
 11
328.701
 21
-283.439
  0
LINE
  5
2AF
100
AcDbEntity
  8
Red 2
  6
ByLayer
 62
  256
370
   -1
100
AcDbLine
 10
330.2
 20
-283.007
 11
331.343
 21
-283.007
  0
LINE
  5
2B0
100
AcDbEntity
  8
Red 2
  6
ByLayer
 62
  256
370
   -1
100
AcDbLine
 10
330.784
 20
-283.566
 11
330.784
 21
-282.423
  0
LINE
  5
2B1
100
AcDbEntity
  8
Red 2
  6
ByLayer
 62
  256
370
   -1
100
AcDbLine
 10
332.689
 20
-283.566
 11
332.689
 21
-282.067
  0
LINE
  5
2B2
100
AcDbEntity
  8
Red 2
  6
ByLayer
 62
  256
370
   -1
100
AcDbLine
 10
332.689
 20
-283.489
 11
332.562
 21
-283.566
  0
LINE
  5
2B3
100
AcDbEntity
  8
Red 2
  6
ByLayer
 62
  256
370
   -1
100
AcDbLine
 10
332.562
 20
-283.566
 11
332.257
 21
-283.566
  0
LINE
  5
2B4
100
AcDbEntity
  8
Red 2
  6
ByLayer
 62
  256
370
   -1
100
AcDbLine
 10
332.257
 20
-283.566
 11
332.13
 21
-283.489
  0
LINE
  5
2B5
100
AcDbEntity
  8
Red 2
  6
ByLayer
 62
  256
370
   -1
100
AcDbLine
 10
332.13
 20
-283.489
 11
332.054
 21
-283.439
  0
LINE
  5
2B6
100
AcDbEntity
  8
Red 2
  6
ByLayer
 62
  256
370
   -1
100
AcDbLine
 10
332.054
 20
-283.439
 11
331.978
 21
-283.286
  0
LINE
  5
2B7
100
AcDbEntity
  8
Red 2
  6
ByLayer
 62
  256
370
   -1
100
AcDbLine
 10
331.978
 20
-283.286
 11
331.978
 21
-282.854
  0
LINE
  5
2B8
100
AcDbEntity
  8
Red 2
  6
ByLayer
 62
  256
370
   -1
100
AcDbLine
 10
331.978
 20
-282.854
 11
332.054
 21
-282.702
  0
LINE
  5
2B9
100
AcDbEntity
  8
Red 2
  6
ByLayer
 62
  256
370
   -1
100
AcDbLine
 10
332.054
 20
-282.702
 11
332.13
 21
-282.651
  0
LINE
  5
2BA
100
AcDbEntity
  8
Red 2
  6
ByLayer
 62
  256
370
   -1
100
AcDbLine
 10
332.13
 20
-282.651
 11
332.257
 21
-282.575
  0
LINE
  5
2BB
100
AcDbEntity
  8
Red 2
  6
ByLayer
 62
  256
370
   -1
100
AcDbLine
 10
332.257
 20
-282.575
 11
332.562
 21
-282.575
  0
LINE
  5
2BC
100
AcDbEntity
  8
Red 2
  6
ByLayer
 62
  256
370
   -1
100
AcDbLine
 10
332.562
 20
-282.575
 11
332.689
 21
-282.651
  0
LINE
  5
2BD
100
AcDbEntity
  8
Red 2
  6
ByLayer
 62
  256
370
   -1
100
AcDbLine
 10
333.197
 20
-282.575
 11
333.756
 21
-282.575
  0
LINE
  5
2BE
100
AcDbEntity
  8
Red 2
  6
ByLayer
 62
  256
370
   -1
100
AcDbLine
 10
333.4
 20
-283.566
 11
333.4
 21
-282.296
  0
LINE
  5
2BF
100
AcDbEntity
  8
Red 2
  6
ByLayer
 62
  256
370
   -1
100
AcDbLine
 10
333.4
 20
-282.296
 11
333.477
 21
-282.143
  0
LINE
  5
2C0
100
AcDbEntity
  8
Red 2
  6
ByLayer
 62
  256
370
   -1
100
AcDbLine
 10
333.477
 20
-282.143
 11
333.604
 21
-282.067
  0
LINE
  5
2C1
100
AcDbEntity
  8
Red 2
  6
ByLayer
 62
  256
370
   -1
100
AcDbLine
 10
333.604
 20
-282.067
 11
333.756
 21
-282.067
  0
LINE
  5
2C2
100
AcDbEntity
  8
Red 2
  6
ByLayer
 62
  256
370
   -1
100
AcDbLine
 10
334.188
 20
-283.489
 11
334.34
 21
-283.566
  0
LINE
  5
2C3
100
AcDbEntity
  8
Red 2
  6
ByLayer
 62
  256
370
   -1
100
AcDbLine
 10
334.34
 20
-283.566
 11
334.62
 21
-283.566
  0
LINE
  5
2C4
100
AcDbEntity
  8
Red 2
  6
ByLayer
 62
  256
370
   -1
100
AcDbLine
 10
334.62
 20
-283.566
 11
334.772
 21
-283.489
  0
LINE
  5
2C5
100
AcDbEntity
  8
Red 2
  6
ByLayer
 62
  256
370
   -1
100
AcDbLine
 10
334.772
 20
-283.489
 11
334.848
 21
-283.362
  0
LINE
  5
2C6
100
AcDbEntity
  8
Red 2
  6
ByLayer
 62
  256
370
   -1
100
AcDbLine
 10
334.848
 20
-283.362
 11
334.848
 21
-283.286
  0
LINE
  5
2C7
100
AcDbEntity
  8
Red 2
  6
ByLayer
 62
  256
370
   -1
100
AcDbLine
 10
334.848
 20
-283.286
 11
334.772
 21
-283.134
  0
LINE
  5
2C8
100
AcDbEntity
  8
Red 2
  6
ByLayer
 62
  256
370
   -1
100
AcDbLine
 10
334.772
 20
-283.134
 11
334.62
 21
-283.083
  0
LINE
  5
2C9
100
AcDbEntity
  8
Red 2
  6
ByLayer
 62
  256
370
   -1
100
AcDbLine
 10
334.62
 20
-283.083
 11
334.416
 21
-283.083
  0
LINE
  5
2CA
100
AcDbEntity
  8
Red 2
  6
ByLayer
 62
  256
370
   -1
100
AcDbLine
 10
334.416
 20
-283.083
 11
334.264
 21
-283.007
  0
LINE
  5
2CB
100
AcDbEntity
  8
Red 2
  6
ByLayer
 62
  256
370
   -1
100
AcDbLine
 10
334.264
 20
-283.007
 11
334.188
 21
-282.854
  0
LINE
  5
2CC
100
AcDbEntity
  8
Red 2
  6
ByLayer
 62
  256
370
   -1
100
AcDbLine
 10
334.188
 20
-282.854
 11
334.188
 21
-282.778
  0
LINE
  5
2CD
100
AcDbEntity
  8
Red 2
  6
ByLayer
 62
  256
370
   -1
100
AcDbLine
 10
334.188
 20
-282.778
 11
334.264
 21
-282.651
  0
LINE
  5
2CE
100
AcDbEntity
  8
Red 2
  6
ByLayer
 62
  256
370
   -1
100
AcDbLine
 10
334.264
 20
-282.651
 11
334.416
 21
-282.575
  0
LINE
  5
2CF
100
AcDbEntity
  8
Red 2
  6
ByLayer
 62
  256
370
   -1
100
AcDbLine
 10
334.416
 20
-282.575
 11
334.62
 21
-282.575
  0
LINE
  5
2D0
100
AcDbEntity
  8
Red 2
  6
ByLayer
 62
  256
370
   -1
100
AcDbLine
 10
334.62
 20
-282.575
 11
334.772
 21
-282.651
  0
LINE
  5
2D1
100
AcDbEntity
  8
Red 2
  6
ByLayer
 62
  256
370
   -1
100
AcDbLine
 10
336.118
 20
-282.575
 11
336.118
 21
-283.794
  0
LINE
  5
2D2
100
AcDbEntity
  8
Red 2
  6
ByLayer
 62
  256
370
   -1
100
AcDbLine
 10
336.118
 20
-283.794
 11
336.067
 21
-283.921
  0
LINE
  5
2D3
100
AcDbEntity
  8
Red 2
  6
ByLayer
 62
  256
370
   -1
100
AcDbLine
 10
336.067
 20
-283.921
 11
335.991
 21
-283.997
  0
LINE
  5
2D4
100
AcDbEntity
  8
Red 2
  6
ByLayer
 62
  256
370
   -1
100
AcDbLine
 10
335.991
 20
-283.997
 11
335.839
 21
-284.074
  0
LINE
  5
2D5
100
AcDbEntity
  8
Red 2
  6
ByLayer
 62
  256
370
   -1
100
AcDbLine
 10
335.839
 20
-284.074
 11
335.636
 21
-284.074
  0
LINE
  5
2D6
100
AcDbEntity
  8
Red 2
  6
ByLayer
 62
  256
370
   -1
100
AcDbLine
 10
335.636
 20
-284.074
 11
335.483
 21
-283.997
  0
LINE
  5
2D7
100
AcDbEntity
  8
Red 2
  6
ByLayer
 62
  256
370
   -1
100
AcDbLine
 10
336.118
 20
-283.489
 11
335.991
 21
-283.566
  0
LINE
  5
2D8
100
AcDbEntity
  8
Red 2
  6
ByLayer
 62
  256
370
   -1
100
AcDbLine
 10
335.991
 20
-283.566
 11
335.686
 21
-283.566
  0
LINE
  5
2D9
100
AcDbEntity
  8
Red 2
  6
ByLayer
 62
  256
370
   -1
100
AcDbLine
 10
335.686
 20
-283.566
 11
335.559
 21
-283.489
  0
LINE
  5
2DA
100
AcDbEntity
  8
Red 2
  6
ByLayer
 62
  256
370
   -1
100
AcDbLine
 10
335.559
 20
-283.489
 11
335.483
 21
-283.439
  0
LINE
  5
2DB
100
AcDbEntity
  8
Red 2
  6
ByLayer
 62
  256
370
   -1
100
AcDbLine
 10
335.483
 20
-283.439
 11
335.407
 21
-283.286
  0
LINE
  5
2DC
100
AcDbEntity
  8
Red 2
  6
ByLayer
 62
  256
370
   -1
100
AcDbLine
 10
335.407
 20
-283.286
 11
335.407
 21
-282.854
  0
LINE
  5
2DD
100
AcDbEntity
  8
Red 2
  6
ByLayer
 62
  256
370
   -1
100
AcDbLine
 10
335.407
 20
-282.854
 11
335.483
 21
-282.702
  0
LINE
  5
2DE
100
AcDbEntity
  8
Red 2
  6
ByLayer
 62
  256
370
   -1
100
AcDbLine
 10
335.483
 20
-282.702
 11
335.559
 21
-282.651
  0
LINE
  5
2DF
100
AcDbEntity
  8
Red 2
  6
ByLayer
 62
  256
370
   -1
100
AcDbLine
 10
335.559
 20
-282.651
 11
335.686
 21
-282.575
  0
LINE
  5
2E0
100
AcDbEntity
  8
Red 2
  6
ByLayer
 62
  256
370
   -1
100
AcDbLine
 10
335.686
 20
-282.575
 11
335.991
 21
-282.575
  0
LINE
  5
2E1
100
AcDbEntity
  8
Red 2
  6
ByLayer
 62
  256
370
   -1
100
AcDbLine
 10
335.991
 20
-282.575
 11
336.118
 21
-282.651
  0
LINE
  5
2E2
100
AcDbEntity
  8
Red 2
  6
ByLayer
 62
  256
370
   -1
100
AcDbLine
 10
337.617
 20
-283.566
 11
336.753
 21
-283.566
  0
LINE
  5
2E3
100
AcDbEntity
  8
Red 2
  6
ByLayer
 62
  256
370
   -1
100
AcDbLine
 10
337.185
 20
-283.566
 11
337.185
 21
-282.067
  0
LINE
  5
2E4
100
AcDbEntity
  8
Red 2
  6
ByLayer
 62
  256
370
   -1
100
AcDbLine
 10
337.185
 20
-282.067
 11
337.033
 21
-282.296
  0
LINE
  5
2E5
100
AcDbEntity
  8
Red 2
  6
ByLayer
 62
  256
370
   -1
100
AcDbLine
 10
337.033
 20
-282.296
 11
336.906
 21
-282.423
  0
LINE
  5
2E6
100
AcDbEntity
  8
Red 2
  6
ByLayer
 62
  256
370
   -1
100
AcDbLine
 10
336.906
 20
-282.423
 11
336.753
 21
-282.499
  0
LINE
  5
2E7
100
AcDbEntity
  8
Red 2
  6
ByLayer
 62
  256
370
   -1
100
AcDbLine
 10
338.252
 20
-283.007
 11
339.395
 21
-283.007
  0
LINE
  5
2E8
100
AcDbEntity
  8
Red 2
  6
ByLayer
 62
  256
370
   -1
100
AcDbLine
 10
340.741
 20
-282.575
 11
340.741
 21
-283.566
  0
LINE
  5
2E9
100
AcDbEntity
  8
Red 2
  6
ByLayer
 62
  256
370
   -1
100
AcDbLine
 10
340.385
 20
-281.991
 11
340.03
 21
-283.083
  0
LINE
  5
2EA
100
AcDbEntity
  8
Red 2
  6
ByLayer
 62
  256
370
   -1
100
AcDbLine
 10
340.03
 20
-283.083
 11
340.97
 21
-283.083
  0
LINE
  5
2EB
100
AcDbEntity
  8
Red 2
  6
ByLayer
 62
  256
370
   -1
100
AcDbLine
 10
299.999
 20
-278.511
 11
408
 21
-278.511
  0
LINE
  5
2EC
100
AcDbEntity
  8
Red 2
  6
ByLayer
 62
  256
370
   -1
100
AcDbLine
 10
387.198
 20
-280.772
 11
386.69
 21
-280.06
  0
LINE
  5
2ED
100
AcDbEntity
  8
Red 2
  6
ByLayer
 62
  256
370
   -1
100
AcDbLine
 10
386.334
 20
-280.772
 11
386.334
 21
-279.273
  0
LINE
  5
2EE
100
AcDbEntity
  8
Red 2
  6
ByLayer
 62
  256
370
   -1
100
AcDbLine
 10
386.334
 20
-279.273
 11
386.918
 21
-279.273
  0
LINE
  5
2EF
100
AcDbEntity
  8
Red 2
  6
ByLayer
 62
  256
370
   -1
100
AcDbLine
 10
386.918
 20
-279.273
 11
387.045
 21
-279.349
  0
LINE
  5
2F0
100
AcDbEntity
  8
Red 2
  6
ByLayer
 62
  256
370
   -1
100
AcDbLine
 10
387.045
 20
-279.349
 11
387.121
 21
-279.425
  0
LINE
  5
2F1
100
AcDbEntity
  8
Red 2
  6
ByLayer
 62
  256
370
   -1
100
AcDbLine
 10
387.121
 20
-279.425
 11
387.198
 21
-279.552
  0
LINE
  5
2F2
100
AcDbEntity
  8
Red 2
  6
ByLayer
 62
  256
370
   -1
100
AcDbLine
 10
387.198
 20
-279.552
 11
387.198
 21
-279.781
  0
LINE
  5
2F3
100
AcDbEntity
  8
Red 2
  6
ByLayer
 62
  256
370
   -1
100
AcDbLine
 10
387.198
 20
-279.781
 11
387.121
 21
-279.908
  0
LINE
  5
2F4
100
AcDbEntity
  8
Red 2
  6
ByLayer
 62
  256
370
   -1
100
AcDbLine
 10
387.121
 20
-279.908
 11
387.045
 21
-279.984
  0
LINE
  5
2F5
100
AcDbEntity
  8
Red 2
  6
ByLayer
 62
  256
370
   -1
100
AcDbLine
 10
387.045
 20
-279.984
 11
386.918
 21
-280.06
  0
LINE
  5
2F6
100
AcDbEntity
  8
Red 2
  6
ByLayer
 62
  256
370
   -1
100
AcDbLine
 10
386.918
 20
-280.06
 11
386.334
 21
-280.06
  0
LINE
  5
2F7
100
AcDbEntity
  8
Red 2
  6
ByLayer
 62
  256
370
   -1
100
AcDbLine
 10
388.417
 20
-280.695
 11
388.264
 21
-280.772
  0
LINE
  5
2F8
100
AcDbEntity
  8
Red 2
  6
ByLayer
 62
  256
370
   -1
100
AcDbLine
 10
388.264
 20
-280.772
 11
387.985
 21
-280.772
  0
LINE
  5
2F9
100
AcDbEntity
  8
Red 2
  6
ByLayer
 62
  256
370
   -1
100
AcDbLine
 10
387.985
 20
-280.772
 11
387.833
 21
-280.695
  0
LINE
  5
2FA
100
AcDbEntity
  8
Red 2
  6
ByLayer
 62
  256
370
   -1
100
AcDbLine
 10
387.833
 20
-280.695
 11
387.756
 21
-280.568
  0
LINE
  5
2FB
100
AcDbEntity
  8
Red 2
  6
ByLayer
 62
  256
370
   -1
100
AcDbLine
 10
387.756
 20
-280.568
 11
387.756
 21
-279.984
  0
LINE
  5
2FC
100
AcDbEntity
  8
Red 2
  6
ByLayer
 62
  256
370
   -1
100
AcDbLine
 10
387.756
 20
-279.984
 11
387.833
 21
-279.857
  0
LINE
  5
2FD
100
AcDbEntity
  8
Red 2
  6
ByLayer
 62
  256
370
   -1
100
AcDbLine
 10
387.833
 20
-279.857
 11
387.985
 21
-279.781
  0
LINE
  5
2FE
100
AcDbEntity
  8
Red 2
  6
ByLayer
 62
  256
370
   -1
100
AcDbLine
 10
387.985
 20
-279.781
 11
388.264
 21
-279.781
  0
LINE
  5
2FF
100
AcDbEntity
  8
Red 2
  6
ByLayer
 62
  256
370
   -1
100
AcDbLine
 10
388.264
 20
-279.781
 11
388.417
 21
-279.857
  0
LINE
  5
300
100
AcDbEntity
  8
Red 2
  6
ByLayer
 62
  256
370
   -1
100
AcDbLine
 10
388.417
 20
-279.857
 11
388.468
 21
-279.984
  0
LINE
  5
301
100
AcDbEntity
  8
Red 2
  6
ByLayer
 62
  256
370
   -1
100
AcDbLine
 10
388.468
 20
-279.984
 11
388.468
 21
-280.137
  0
LINE
  5
302
100
AcDbEntity
  8
Red 2
  6
ByLayer
 62
  256
370
   -1
100
AcDbLine
 10
388.468
 20
-280.137
 11
387.756
 21
-280.289
  0
LINE
  5
303
100
AcDbEntity
  8
Red 2
  6
ByLayer
 62
  256
370
   -1
100
AcDbLine
 10
388.976
 20
-279.781
 11
389.331
 21
-280.772
  0
LINE
  5
304
100
AcDbEntity
  8
Red 2
  6
ByLayer
 62
  256
370
   -1
100
AcDbLine
 10
389.331
 20
-280.772
 11
389.712
 21
-279.781
  0
LINE
  5
305
100
AcDbEntity
  8
Red 2
  6
ByLayer
 62
  256
370
   -1
100
AcDbLine
 10
390.271
 20
-280.645
 11
390.347
 21
-280.695
  0
LINE
  5
306
100
AcDbEntity
  8
Red 2
  6
ByLayer
 62
  256
370
   -1
100
AcDbLine
 10
390.347
 20
-280.695
 11
390.271
 21
-280.772
  0
LINE
  5
307
100
AcDbEntity
  8
Red 2
  6
ByLayer
 62
  256
370
   -1
100
AcDbLine
 10
390.271
 20
-280.772
 11
390.195
 21
-280.695
  0
LINE
  5
308
100
AcDbEntity
  8
Red 2
  6
ByLayer
 62
  256
370
   -1
100
AcDbLine
 10
390.195
 20
-280.695
 11
390.271
 21
-280.645
  0
LINE
  5
309
100
AcDbEntity
  8
Red 2
  6
ByLayer
 62
  256
370
   -1
100
AcDbLine
 10
390.271
 20
-280.645
 11
390.271
 21
-280.772
  0
LINE
  5
30A
100
AcDbEntity
  8
Red 2
  6
ByLayer
 62
  256
370
   -1
100
AcDbLine
 10
390.271
 20
-279.857
 11
390.347
 21
-279.908
  0
LINE
  5
30B
100
AcDbEntity
  8
Red 2
  6
ByLayer
 62
  256
370
   -1
100
AcDbLine
 10
390.347
 20
-279.908
 11
390.271
 21
-279.984
  0
LINE
  5
30C
100
AcDbEntity
  8
Red 2
  6
ByLayer
 62
  256
370
   -1
100
AcDbLine
 10
390.271
 20
-279.984
 11
390.195
 21
-279.908
  0
LINE
  5
30D
100
AcDbEntity
  8
Red 2
  6
ByLayer
 62
  256
370
   -1
100
AcDbLine
 10
390.195
 20
-279.908
 11
390.271
 21
-279.857
  0
LINE
  5
30E
100
AcDbEntity
  8
Red 2
  6
ByLayer
 62
  256
370
   -1
100
AcDbLine
 10
390.271
 20
-279.857
 11
390.271
 21
-279.984
  0
LINE
  5
30F
100
AcDbEntity
  8
Red 2
  6
ByLayer
 62
  256
370
   -1
100
AcDbLine
 10
301.269
 20
-280.695
 11
301.498
 21
-280.772
  0
LINE
  5
310
100
AcDbEntity
  8
Red 2
  6
ByLayer
 62
  256
370
   -1
100
AcDbLine
 10
301.498
 20
-280.772
 11
301.854
 21
-280.772
  0
LINE
  5
311
100
AcDbEntity
  8
Red 2
  6
ByLayer
 62
  256
370
   -1
100
AcDbLine
 10
301.854
 20
-280.772
 11
301.981
 21
-280.695
  0
LINE
  5
312
100
AcDbEntity
  8
Red 2
  6
ByLayer
 62
  256
370
   -1
100
AcDbLine
 10
301.981
 20
-280.695
 11
302.057
 21
-280.645
  0
LINE
  5
313
100
AcDbEntity
  8
Red 2
  6
ByLayer
 62
  256
370
   -1
100
AcDbLine
 10
302.057
 20
-280.645
 11
302.133
 21
-280.492
  0
LINE
  5
314
100
AcDbEntity
  8
Red 2
  6
ByLayer
 62
  256
370
   -1
100
AcDbLine
 10
302.133
 20
-280.492
 11
302.133
 21
-280.34
  0
LINE
  5
315
100
AcDbEntity
  8
Red 2
  6
ByLayer
 62
  256
370
   -1
100
AcDbLine
 10
302.133
 20
-280.34
 11
302.057
 21
-280.213
  0
LINE
  5
316
100
AcDbEntity
  8
Red 2
  6
ByLayer
 62
  256
370
   -1
100
AcDbLine
 10
302.057
 20
-280.213
 11
301.981
 21
-280.137
  0
LINE
  5
317
100
AcDbEntity
  8
Red 2
  6
ByLayer
 62
  256
370
   -1
100
AcDbLine
 10
301.981
 20
-280.137
 11
301.854
 21
-280.06
  0
LINE
  5
318
100
AcDbEntity
  8
Red 2
  6
ByLayer
 62
  256
370
   -1
100
AcDbLine
 10
301.854
 20
-280.06
 11
301.549
 21
-279.984
  0
LINE
  5
319
100
AcDbEntity
  8
Red 2
  6
ByLayer
 62
  256
370
   -1
100
AcDbLine
 10
301.549
 20
-279.984
 11
301.422
 21
-279.908
  0
LINE
  5
31A
100
AcDbEntity
  8
Red 2
  6
ByLayer
 62
  256
370
   -1
100
AcDbLine
 10
301.422
 20
-279.908
 11
301.346
 21
-279.857
  0
LINE
  5
31B
100
AcDbEntity
  8
Red 2
  6
ByLayer
 62
  256
370
   -1
100
AcDbLine
 10
301.346
 20
-279.857
 11
301.269
 21
-279.705
  0
LINE
  5
31C
100
AcDbEntity
  8
Red 2
  6
ByLayer
 62
  256
370
   -1
100
AcDbLine
 10
301.269
 20
-279.705
 11
301.269
 21
-279.552
  0
LINE
  5
31D
100
AcDbEntity
  8
Red 2
  6
ByLayer
 62
  256
370
   -1
100
AcDbLine
 10
301.269
 20
-279.552
 11
301.346
 21
-279.425
  0
LINE
  5
31E
100
AcDbEntity
  8
Red 2
  6
ByLayer
 62
  256
370
   -1
100
AcDbLine
 10
301.346
 20
-279.425
 11
301.422
 21
-279.349
  0
LINE
  5
31F
100
AcDbEntity
  8
Red 2
  6
ByLayer
 62
  256
370
   -1
100
AcDbLine
 10
301.422
 20
-279.349
 11
301.549
 21
-279.273
  0
LINE
  5
320
100
AcDbEntity
  8
Red 2
  6
ByLayer
 62
  256
370
   -1
100
AcDbLine
 10
301.549
 20
-279.273
 11
301.93
 21
-279.273
  0
LINE
  5
321
100
AcDbEntity
  8
Red 2
  6
ByLayer
 62
  256
370
   -1
100
AcDbLine
 10
301.93
 20
-279.273
 11
302.133
 21
-279.349
  0
LINE
  5
322
100
AcDbEntity
  8
Red 2
  6
ByLayer
 62
  256
370
   -1
100
AcDbLine
 10
302.768
 20
-280.772
 11
302.768
 21
-279.781
  0
LINE
  5
323
100
AcDbEntity
  8
Red 2
  6
ByLayer
 62
  256
370
   -1
100
AcDbLine
 10
302.768
 20
-279.273
 11
302.692
 21
-279.349
  0
LINE
  5
324
100
AcDbEntity
  8
Red 2
  6
ByLayer
 62
  256
370
   -1
100
AcDbLine
 10
302.692
 20
-279.349
 11
302.768
 21
-279.425
  0
LINE
  5
325
100
AcDbEntity
  8
Red 2
  6
ByLayer
 62
  256
370
   -1
100
AcDbLine
 10
302.768
 20
-279.425
 11
302.844
 21
-279.349
  0
LINE
  5
326
100
AcDbEntity
  8
Red 2
  6
ByLayer
 62
  256
370
   -1
100
AcDbLine
 10
302.844
 20
-279.349
 11
302.768
 21
-279.273
  0
LINE
  5
327
100
AcDbEntity
  8
Red 2
  6
ByLayer
 62
  256
370
   -1
100
AcDbLine
 10
302.768
 20
-279.273
 11
302.768
 21
-279.425
  0
LINE
  5
328
100
AcDbEntity
  8
Red 2
  6
ByLayer
 62
  256
370
   -1
100
AcDbLine
 10
303.327
 20
-279.781
 11
304.114
 21
-279.781
  0
LINE
  5
329
100
AcDbEntity
  8
Red 2
  6
ByLayer
 62
  256
370
   -1
100
AcDbLine
 10
304.114
 20
-279.781
 11
303.327
 21
-280.772
  0
LINE
  5
32A
100
AcDbEntity
  8
Red 2
  6
ByLayer
 62
  256
370
   -1
100
AcDbLine
 10
303.327
 20
-280.772
 11
304.114
 21
-280.772
  0
LINE
  5
32B
100
AcDbEntity
  8
Red 2
  6
ByLayer
 62
  256
370
   -1
100
AcDbLine
 10
305.283
 20
-280.695
 11
305.13
 21
-280.772
  0
LINE
  5
32C
100
AcDbEntity
  8
Red 2
  6
ByLayer
 62
  256
370
   -1
100
AcDbLine
 10
305.13
 20
-280.772
 11
304.851
 21
-280.772
  0
LINE
  5
32D
100
AcDbEntity
  8
Red 2
  6
ByLayer
 62
  256
370
   -1
100
AcDbLine
 10
304.851
 20
-280.772
 11
304.698
 21
-280.695
  0
LINE
  5
32E
100
AcDbEntity
  8
Red 2
  6
ByLayer
 62
  256
370
   -1
100
AcDbLine
 10
304.698
 20
-280.695
 11
304.622
 21
-280.568
  0
LINE
  5
32F
100
AcDbEntity
  8
Red 2
  6
ByLayer
 62
  256
370
   -1
100
AcDbLine
 10
304.622
 20
-280.568
 11
304.622
 21
-279.984
  0
LINE
  5
330
100
AcDbEntity
  8
Red 2
  6
ByLayer
 62
  256
370
   -1
100
AcDbLine
 10
304.622
 20
-279.984
 11
304.698
 21
-279.857
  0
LINE
  5
331
100
AcDbEntity
  8
Red 2
  6
ByLayer
 62
  256
370
   -1
100
AcDbLine
 10
304.698
 20
-279.857
 11
304.851
 21
-279.781
  0
LINE
  5
332
100
AcDbEntity
  8
Red 2
  6
ByLayer
 62
  256
370
   -1
100
AcDbLine
 10
304.851
 20
-279.781
 11
305.13
 21
-279.781
  0
LINE
  5
333
100
AcDbEntity
  8
Red 2
  6
ByLayer
 62
  256
370
   -1
100
AcDbLine
 10
305.13
 20
-279.781
 11
305.283
 21
-279.857
  0
LINE
  5
334
100
AcDbEntity
  8
Red 2
  6
ByLayer
 62
  256
370
   -1
100
AcDbLine
 10
305.283
 20
-279.857
 11
305.333
 21
-279.984
  0
LINE
  5
335
100
AcDbEntity
  8
Red 2
  6
ByLayer
 62
  256
370
   -1
100
AcDbLine
 10
305.333
 20
-279.984
 11
305.333
 21
-280.137
  0
LINE
  5
336
100
AcDbEntity
  8
Red 2
  6
ByLayer
 62
  256
370
   -1
100
AcDbLine
 10
305.333
 20
-280.137
 11
304.622
 21
-280.289
  0
LINE
  5
337
100
AcDbEntity
  8
Red 2
  6
ByLayer
 62
  256
370
   -1
100
AcDbLine
 10
305.994
 20
-280.645
 11
306.07
 21
-280.695
  0
LINE
  5
338
100
AcDbEntity
  8
Red 2
  6
ByLayer
 62
  256
370
   -1
100
AcDbLine
 10
306.07
 20
-280.695
 11
305.994
 21
-280.772
  0
LINE
  5
339
100
AcDbEntity
  8
Red 2
  6
ByLayer
 62
  256
370
   -1
100
AcDbLine
 10
305.994
 20
-280.772
 11
305.918
 21
-280.695
  0
LINE
  5
33A
100
AcDbEntity
  8
Red 2
  6
ByLayer
 62
  256
370
   -1
100
AcDbLine
 10
305.918
 20
-280.695
 11
305.994
 21
-280.645
  0
LINE
  5
33B
100
AcDbEntity
  8
Red 2
  6
ByLayer
 62
  256
370
   -1
100
AcDbLine
 10
305.994
 20
-280.645
 11
305.994
 21
-280.772
  0
LINE
  5
33C
100
AcDbEntity
  8
Red 2
  6
ByLayer
 62
  256
370
   -1
100
AcDbLine
 10
305.994
 20
-279.857
 11
306.07
 21
-279.908
  0
LINE
  5
33D
100
AcDbEntity
  8
Red 2
  6
ByLayer
 62
  256
370
   -1
100
AcDbLine
 10
306.07
 20
-279.908
 11
305.994
 21
-279.984
  0
LINE
  5
33E
100
AcDbEntity
  8
Red 2
  6
ByLayer
 62
  256
370
   -1
100
AcDbLine
 10
305.994
 20
-279.984
 11
305.918
 21
-279.908
  0
LINE
  5
33F
100
AcDbEntity
  8
Red 2
  6
ByLayer
 62
  256
370
   -1
100
AcDbLine
 10
305.918
 20
-279.908
 11
305.994
 21
-279.857
  0
LINE
  5
340
100
AcDbEntity
  8
Red 2
  6
ByLayer
 62
  256
370
   -1
100
AcDbLine
 10
305.994
 20
-279.857
 11
305.994
 21
-279.984
  0
LINE
  5
341
100
AcDbEntity
  8
Red 2
  6
ByLayer
 62
  256
370
   -1
100
AcDbLine
 10
307.772
 20
-280.34
 11
308.483
 21
-280.34
  0
LINE
  5
342
100
AcDbEntity
  8
Red 2
  6
ByLayer
 62
  256
370
   -1
100
AcDbLine
 10
307.645
 20
-280.772
 11
308.127
 21
-279.273
  0
LINE
  5
343
100
AcDbEntity
  8
Red 2
  6
ByLayer
 62
  256
370
   -1
100
AcDbLine
 10
308.127
 20
-279.273
 11
308.635
 21
-280.772
  0
LINE
  5
344
100
AcDbEntity
  8
Red 2
  6
ByLayer
 62
  256
370
   -1
100
AcDbLine
 10
308.991
 20
-279.273
 11
309.931
 21
-279.273
  0
LINE
  5
345
100
AcDbEntity
  8
Red 2
  6
ByLayer
 62
  256
370
   -1
100
AcDbLine
 10
309.931
 20
-279.273
 11
309.423
 21
-279.857
  0
LINE
  5
346
100
AcDbEntity
  8
Red 2
  6
ByLayer
 62
  256
370
   -1
100
AcDbLine
 10
309.423
 20
-279.857
 11
309.651
 21
-279.857
  0
LINE
  5
347
100
AcDbEntity
  8
Red 2
  6
ByLayer
 62
  256
370
   -1
100
AcDbLine
 10
309.651
 20
-279.857
 11
309.778
 21
-279.908
  0
LINE
  5
348
100
AcDbEntity
  8
Red 2
  6
ByLayer
 62
  256
370
   -1
100
AcDbLine
 10
309.778
 20
-279.908
 11
309.855
 21
-279.984
  0
LINE
  5
349
100
AcDbEntity
  8
Red 2
  6
ByLayer
 62
  256
370
   -1
100
AcDbLine
 10
309.855
 20
-279.984
 11
309.931
 21
-280.137
  0
LINE
  5
34A
100
AcDbEntity
  8
Red 2
  6
ByLayer
 62
  256
370
   -1
100
AcDbLine
 10
309.931
 20
-280.137
 11
309.931
 21
-280.492
  0
LINE
  5
34B
100
AcDbEntity
  8
Red 2
  6
ByLayer
 62
  256
370
   -1
100
AcDbLine
 10
309.931
 20
-280.492
 11
309.855
 21
-280.645
  0
LINE
  5
34C
100
AcDbEntity
  8
Red 2
  6
ByLayer
 62
  256
370
   -1
100
AcDbLine
 10
309.855
 20
-280.645
 11
309.778
 21
-280.695
  0
LINE
  5
34D
100
AcDbEntity
  8
Red 2
  6
ByLayer
 62
  256
370
   -1
100
AcDbLine
 10
309.778
 20
-280.695
 11
309.651
 21
-280.772
  0
LINE
  5
34E
100
AcDbEntity
  8
Red 2
  6
ByLayer
 62
  256
370
   -1
100
AcDbLine
 10
309.651
 20
-280.772
 11
309.22
 21
-280.772
  0
LINE
  5
34F
100
AcDbEntity
  8
Red 2
  6
ByLayer
 62
  256
370
   -1
100
AcDbLine
 10
309.22
 20
-280.772
 11
309.067
 21
-280.695
  0
LINE
  5
350
100
AcDbEntity
  8
Red 2
  6
ByLayer
 62
  256
370
   -1
100
AcDbLine
 10
309.067
 20
-280.695
 11
308.991
 21
-280.645
  0
LINE
  5
351
100
AcDbEntity
  8
Red 2
  6
ByLayer
 62
  256
370
   -1
100
AcDbLine
 10
386.334
 20
-283.566
 11
386.334
 21
-282.067
  0
LINE
  5
352
100
AcDbEntity
  8
Red 2
  6
ByLayer
 62
  256
370
   -1
100
AcDbLine
 10
387.68
 20
-283.566
 11
387.68
 21
-282.067
  0
LINE
  5
353
100
AcDbEntity
  8
Red 2
  6
ByLayer
 62
  256
370
   -1
100
AcDbLine
 10
387.68
 20
-283.489
 11
387.553
 21
-283.566
  0
LINE
  5
354
100
AcDbEntity
  8
Red 2
  6
ByLayer
 62
  256
370
   -1
100
AcDbLine
 10
387.553
 20
-283.566
 11
387.248
 21
-283.566
  0
LINE
  5
355
100
AcDbEntity
  8
Red 2
  6
ByLayer
 62
  256
370
   -1
100
AcDbLine
 10
387.248
 20
-283.566
 11
387.121
 21
-283.489
  0
LINE
  5
356
100
AcDbEntity
  8
Red 2
  6
ByLayer
 62
  256
370
   -1
100
AcDbLine
 10
387.121
 20
-283.489
 11
387.045
 21
-283.439
  0
LINE
  5
357
100
AcDbEntity
  8
Red 2
  6
ByLayer
 62
  256
370
   -1
100
AcDbLine
 10
387.045
 20
-283.439
 11
386.969
 21
-283.286
  0
LINE
  5
358
100
AcDbEntity
  8
Red 2
  6
ByLayer
 62
  256
370
   -1
100
AcDbLine
 10
386.969
 20
-283.286
 11
386.969
 21
-282.854
  0
LINE
  5
359
100
AcDbEntity
  8
Red 2
  6
ByLayer
 62
  256
370
   -1
100
AcDbLine
 10
386.969
 20
-282.854
 11
387.045
 21
-282.702
  0
LINE
  5
35A
100
AcDbEntity
  8
Red 2
  6
ByLayer
 62
  256
370
   -1
100
AcDbLine
 10
387.045
 20
-282.702
 11
387.121
 21
-282.651
  0
LINE
  5
35B
100
AcDbEntity
  8
Red 2
  6
ByLayer
 62
  256
370
   -1
100
AcDbLine
 10
387.121
 20
-282.651
 11
387.248
 21
-282.575
  0
LINE
  5
35C
100
AcDbEntity
  8
Red 2
  6
ByLayer
 62
  256
370
   -1
100
AcDbLine
 10
387.248
 20
-282.575
 11
387.553
 21
-282.575
  0
LINE
  5
35D
100
AcDbEntity
  8
Red 2
  6
ByLayer
 62
  256
370
   -1
100
AcDbLine
 10
387.553
 20
-282.575
 11
387.68
 21
-282.651
  0
LINE
  5
35E
100
AcDbEntity
  8
Red 2
  6
ByLayer
 62
  256
370
   -1
100
AcDbLine
 10
388.391
 20
-283.439
 11
388.468
 21
-283.489
  0
LINE
  5
35F
100
AcDbEntity
  8
Red 2
  6
ByLayer
 62
  256
370
   -1
100
AcDbLine
 10
388.468
 20
-283.489
 11
388.391
 21
-283.566
  0
LINE
  5
360
100
AcDbEntity
  8
Red 2
  6
ByLayer
 62
  256
370
   -1
100
AcDbLine
 10
388.391
 20
-283.566
 11
388.315
 21
-283.489
  0
LINE
  5
361
100
AcDbEntity
  8
Red 2
  6
ByLayer
 62
  256
370
   -1
100
AcDbLine
 10
388.315
 20
-283.489
 11
388.391
 21
-283.439
  0
LINE
  5
362
100
AcDbEntity
  8
Red 2
  6
ByLayer
 62
  256
370
   -1
100
AcDbLine
 10
388.391
 20
-283.439
 11
388.391
 21
-283.566
  0
LINE
  5
363
100
AcDbEntity
  8
Red 2
  6
ByLayer
 62
  256
370
   -1
100
AcDbLine
 10
388.391
 20
-282.651
 11
388.468
 21
-282.702
  0
LINE
  5
364
100
AcDbEntity
  8
Red 2
  6
ByLayer
 62
  256
370
   -1
100
AcDbLine
 10
388.468
 20
-282.702
 11
388.391
 21
-282.778
  0
LINE
  5
365
100
AcDbEntity
  8
Red 2
  6
ByLayer
 62
  256
370
   -1
100
AcDbLine
 10
388.391
 20
-282.778
 11
388.315
 21
-282.702
  0
LINE
  5
366
100
AcDbEntity
  8
Red 2
  6
ByLayer
 62
  256
370
   -1
100
AcDbLine
 10
388.315
 20
-282.702
 11
388.391
 21
-282.651
  0
LINE
  5
367
100
AcDbEntity
  8
Red 2
  6
ByLayer
 62
  256
370
   -1
100
AcDbLine
 10
388.391
 20
-282.651
 11
388.391
 21
-282.778
  0
LINE
  5
368
100
AcDbEntity
  8
Red 2
  6
ByLayer
 62
  256
370
   -1
100
AcDbLine
 10
391.033
 20
-283.566
 11
390.169
 21
-283.566
  0
LINE
  5
369
100
AcDbEntity
  8
Red 2
  6
ByLayer
 62
  256
370
   -1
100
AcDbLine
 10
390.601
 20
-283.566
 11
390.601
 21
-282.067
  0
LINE
  5
36A
100
AcDbEntity
  8
Red 2
  6
ByLayer
 62
  256
370
   -1
100
AcDbLine
 10
390.601
 20
-282.067
 11
390.449
 21
-282.296
  0
LINE
  5
36B
100
AcDbEntity
  8
Red 2
  6
ByLayer
 62
  256
370
   -1
100
AcDbLine
 10
390.449
 20
-282.296
 11
390.322
 21
-282.423
  0
LINE
  5
36C
100
AcDbEntity
  8
Red 2
  6
ByLayer
 62
  256
370
   -1
100
AcDbLine
 10
390.322
 20
-282.423
 11
390.169
 21
-282.499
  0
LINE
  5
36D
100
AcDbEntity
  8
Red 2
  6
ByLayer
 62
  256
370
   -1
100
AcDbLine
 10
392.735
 20
-281.991
 11
391.465
 21
-283.921
  0
LINE
  5
36E
100
AcDbEntity
  8
Red 2
  6
ByLayer
 62
  256
370
   -1
100
AcDbLine
 10
394.03
 20
-283.566
 11
393.167
 21
-283.566
  0
LINE
  5
36F
100
AcDbEntity
  8
Red 2
  6
ByLayer
 62
  256
370
   -1
100
AcDbLine
 10
393.598
 20
-283.566
 11
393.598
 21
-282.067
  0
LINE
  5
370
100
AcDbEntity
  8
Red 2
  6
ByLayer
 62
  256
370
   -1
100
AcDbLine
 10
393.598
 20
-282.067
 11
393.446
 21
-282.296
  0
LINE
  5
371
100
AcDbEntity
  8
Red 2
  6
ByLayer
 62
  256
370
   -1
100
AcDbLine
 10
393.446
 20
-282.296
 11
393.319
 21
-282.423
  0
LINE
  5
372
100
AcDbEntity
  8
Red 2
  6
ByLayer
 62
  256
370
   -1
100
AcDbLine
 10
393.319
 20
-282.423
 11
393.167
 21
-282.499
  0
LINE
  5
373
100
AcDbEntity
  8
Red 2
  6
ByLayer
 62
  256
370
   -1
100
AcDbLine
 10
299.999
 20
-274.498
 11
408
 21
-274.498
  0
LINE
  5
374
100
AcDbEntity
  8
Red 2
  6
ByLayer
 62
  256
370
   -1
100
AcDbLine
 10
301.447
 20
-275.184
 11
302.59
 21
-275.184
  0
LINE
  5
375
100
AcDbEntity
  8
Red 2
  6
ByLayer
 62
  256
370
   -1
100
AcDbLine
 10
301.777
 20
-277.19
 11
302.006
 21
-275.184
  0
LINE
  5
376
100
AcDbEntity
  8
Red 2
  6
ByLayer
 62
  256
370
   -1
100
AcDbLine
 10
303.022
 20
-277.19
 11
303.174
 21
-275.869
  0
LINE
  5
377
100
AcDbEntity
  8
Red 2
  6
ByLayer
 62
  256
370
   -1
100
AcDbLine
 10
303.251
 20
-275.184
 11
303.149
 21
-275.285
  0
LINE
  5
378
100
AcDbEntity
  8
Red 2
  6
ByLayer
 62
  256
370
   -1
100
AcDbLine
 10
303.149
 20
-275.285
 11
303.225
 21
-275.387
  0
LINE
  5
379
100
AcDbEntity
  8
Red 2
  6
ByLayer
 62
  256
370
   -1
100
AcDbLine
 10
303.225
 20
-275.387
 11
303.352
 21
-275.285
  0
LINE
  5
37A
100
AcDbEntity
  8
Red 2
  6
ByLayer
 62
  256
370
   -1
100
AcDbLine
 10
303.352
 20
-275.285
 11
303.251
 21
-275.184
  0
LINE
  5
37B
100
AcDbEntity
  8
Red 2
  6
ByLayer
 62
  256
370
   -1
100
AcDbLine
 10
303.251
 20
-275.184
 11
303.225
 21
-275.387
  0
LINE
  5
37C
100
AcDbEntity
  8
Red 2
  6
ByLayer
 62
  256
370
   -1
100
AcDbLine
 10
303.86
 20
-275.869
 11
304.622
 21
-275.869
  0
LINE
  5
37D
100
AcDbEntity
  8
Red 2
  6
ByLayer
 62
  256
370
   -1
100
AcDbLine
 10
304.216
 20
-275.184
 11
304.013
 21
-276.911
  0
LINE
  5
37E
100
AcDbEntity
  8
Red 2
  6
ByLayer
 62
  256
370
   -1
100
AcDbLine
 10
304.013
 20
-276.911
 11
304.089
 21
-277.089
  0
LINE
  5
37F
100
AcDbEntity
  8
Red 2
  6
ByLayer
 62
  256
370
   -1
100
AcDbLine
 10
304.089
 20
-277.089
 11
304.267
 21
-277.19
  0
LINE
  5
380
100
AcDbEntity
  8
Red 2
  6
ByLayer
 62
  256
370
   -1
100
AcDbLine
 10
304.267
 20
-277.19
 11
304.47
 21
-277.19
  0
LINE
  5
381
100
AcDbEntity
  8
Red 2
  6
ByLayer
 62
  256
370
   -1
100
AcDbLine
 10
305.41
 20
-277.19
 11
305.232
 21
-277.089
  0
LINE
  5
382
100
AcDbEntity
  8
Red 2
  6
ByLayer
 62
  256
370
   -1
100
AcDbLine
 10
305.232
 20
-277.089
 11
305.156
 21
-276.911
  0
LINE
  5
383
100
AcDbEntity
  8
Red 2
  6
ByLayer
 62
  256
370
   -1
100
AcDbLine
 10
305.156
 20
-276.911
 11
305.359
 21
-275.184
  0
LINE
  5
384
100
AcDbEntity
  8
Red 2
  6
ByLayer
 62
  256
370
   -1
100
AcDbLine
 10
306.934
 20
-277.089
 11
306.73
 21
-277.19
  0
LINE
  5
385
100
AcDbEntity
  8
Red 2
  6
ByLayer
 62
  256
370
   -1
100
AcDbLine
 10
306.73
 20
-277.19
 11
306.349
 21
-277.19
  0
LINE
  5
386
100
AcDbEntity
  8
Red 2
  6
ByLayer
 62
  256
370
   -1
100
AcDbLine
 10
306.349
 20
-277.19
 11
306.172
 21
-277.089
  0
LINE
  5
387
100
AcDbEntity
  8
Red 2
  6
ByLayer
 62
  256
370
   -1
100
AcDbLine
 10
306.172
 20
-277.089
 11
306.095
 21
-276.911
  0
LINE
  5
388
100
AcDbEntity
  8
Red 2
  6
ByLayer
 62
  256
370
   -1
100
AcDbLine
 10
306.095
 20
-276.911
 11
306.197
 21
-276.149
  0
LINE
  5
389
100
AcDbEntity
  8
Red 2
  6
ByLayer
 62
  256
370
   -1
100
AcDbLine
 10
306.197
 20
-276.149
 11
306.324
 21
-275.946
  0
LINE
  5
38A
100
AcDbEntity
  8
Red 2
  6
ByLayer
 62
  256
370
   -1
100
AcDbLine
 10
306.324
 20
-275.946
 11
306.502
 21
-275.869
  0
LINE
  5
38B
100
AcDbEntity
  8
Red 2
  6
ByLayer
 62
  256
370
   -1
100
AcDbLine
 10
306.502
 20
-275.869
 11
306.883
 21
-275.869
  0
LINE
  5
38C
100
AcDbEntity
  8
Red 2
  6
ByLayer
 62
  256
370
   -1
100
AcDbLine
 10
306.883
 20
-275.869
 11
307.086
 21
-275.946
  0
LINE
  5
38D
100
AcDbEntity
  8
Red 2
  6
ByLayer
 62
  256
370
   -1
100
AcDbLine
 10
307.086
 20
-275.946
 11
307.162
 21
-276.149
  0
LINE
  5
38E
100
AcDbEntity
  8
Red 2
  6
ByLayer
 62
  256
370
   -1
100
AcDbLine
 10
307.162
 20
-276.149
 11
307.137
 21
-276.327
  0
LINE
  5
38F
100
AcDbEntity
  8
Red 2
  6
ByLayer
 62
  256
370
   -1
100
AcDbLine
 10
307.137
 20
-276.327
 11
306.146
 21
-276.53
  0
LINE
  5
390
100
AcDbEntity
  8
Red 2
  6
ByLayer
 62
  256
370
   -1
100
AcDbLine
 10
307.899
 20
-277.012
 11
308
 21
-277.089
  0
LINE
  5
391
100
AcDbEntity
  8
Red 2
  6
ByLayer
 62
  256
370
   -1
100
AcDbLine
 10
308
 20
-277.089
 11
307.899
 21
-277.19
  0
LINE
  5
392
100
AcDbEntity
  8
Red 2
  6
ByLayer
 62
  256
370
   -1
100
AcDbLine
 10
307.899
 20
-277.19
 11
307.797
 21
-277.089
  0
LINE
  5
393
100
AcDbEntity
  8
Red 2
  6
ByLayer
 62
  256
370
   -1
100
AcDbLine
 10
307.797
 20
-277.089
 11
307.899
 21
-277.012
  0
LINE
  5
394
100
AcDbEntity
  8
Red 2
  6
ByLayer
 62
  256
370
   -1
100
AcDbLine
 10
307.899
 20
-277.012
 11
307.899
 21
-277.19
  0
LINE
  5
395
100
AcDbEntity
  8
Red 2
  6
ByLayer
 62
  256
370
   -1
100
AcDbLine
 10
308.051
 20
-275.946
 11
308.127
 21
-276.047
  0
LINE
  5
396
100
AcDbEntity
  8
Red 2
  6
ByLayer
 62
  256
370
   -1
100
AcDbLine
 10
308.127
 20
-276.047
 11
308.026
 21
-276.149
  0
LINE
  5
397
100
AcDbEntity
  8
Red 2
  6
ByLayer
 62
  256
370
   -1
100
AcDbLine
 10
308.026
 20
-276.149
 11
307.924
 21
-276.047
  0
LINE
  5
398
100
AcDbEntity
  8
Red 2
  6
ByLayer
 62
  256
370
   -1
100
AcDbLine
 10
307.924
 20
-276.047
 11
308.051
 21
-275.946
  0
LINE
  5
399
100
AcDbEntity
  8
Red 2
  6
ByLayer
 62
  256
370
   -1
100
AcDbLine
 10
308.051
 20
-275.946
 11
308.026
 21
-276.149
  0
LINE
  5
39A
100
AcDbEntity
  8
Red 2
  6
ByLayer
 62
  256
370
   -1
100
AcDbLine
 10
301.854
 20
-272.567
 11
301.346
 21
-272.567
  0
LINE
  5
39B
100
AcDbEntity
  8
Red 2
  6
ByLayer
 62
  256
370
   -1
100
AcDbLine
 10
301.346
 20
-273.355
 11
301.346
 21
-271.856
  0
LINE
  5
39C
100
AcDbEntity
  8
Red 2
  6
ByLayer
 62
  256
370
   -1
100
AcDbLine
 10
301.346
 20
-271.856
 11
302.057
 21
-271.856
  0
LINE
  5
39D
100
AcDbEntity
  8
Red 2
  6
ByLayer
 62
  256
370
   -1
100
AcDbLine
 10
302.641
 20
-273.355
 11
302.641
 21
-272.364
  0
LINE
  5
39E
100
AcDbEntity
  8
Red 2
  6
ByLayer
 62
  256
370
   -1
100
AcDbLine
 10
302.641
 20
-271.856
 11
302.565
 21
-271.932
  0
LINE
  5
39F
100
AcDbEntity
  8
Red 2
  6
ByLayer
 62
  256
370
   -1
100
AcDbLine
 10
302.565
 20
-271.932
 11
302.641
 21
-272.009
  0
LINE
  5
3A0
100
AcDbEntity
  8
Red 2
  6
ByLayer
 62
  256
370
   -1
100
AcDbLine
 10
302.641
 20
-272.009
 11
302.717
 21
-271.932
  0
LINE
  5
3A1
100
AcDbEntity
  8
Red 2
  6
ByLayer
 62
  256
370
   -1
100
AcDbLine
 10
302.717
 20
-271.932
 11
302.641
 21
-271.856
  0
LINE
  5
3A2
100
AcDbEntity
  8
Red 2
  6
ByLayer
 62
  256
370
   -1
100
AcDbLine
 10
302.641
 20
-271.856
 11
302.641
 21
-272.009
  0
LINE
  5
3A3
100
AcDbEntity
  8
Red 2
  6
ByLayer
 62
  256
370
   -1
100
AcDbLine
 10
303.555
 20
-273.355
 11
303.428
 21
-273.279
  0
LINE
  5
3A4
100
AcDbEntity
  8
Red 2
  6
ByLayer
 62
  256
370
   -1
100
AcDbLine
 10
303.428
 20
-273.279
 11
303.352
 21
-273.152
  0
LINE
  5
3A5
100
AcDbEntity
  8
Red 2
  6
ByLayer
 62
  256
370
   -1
100
AcDbLine
 10
303.352
 20
-273.152
 11
303.352
 21
-271.856
  0
LINE
  5
3A6
100
AcDbEntity
  8
Red 2
  6
ByLayer
 62
  256
370
   -1
100
AcDbLine
 10
304.724
 20
-273.279
 11
304.571
 21
-273.355
  0
LINE
  5
3A7
100
AcDbEntity
  8
Red 2
  6
ByLayer
 62
  256
370
   -1
100
AcDbLine
 10
304.571
 20
-273.355
 11
304.292
 21
-273.355
  0
LINE
  5
3A8
100
AcDbEntity
  8
Red 2
  6
ByLayer
 62
  256
370
   -1
100
AcDbLine
 10
304.292
 20
-273.355
 11
304.14
 21
-273.279
  0
LINE
  5
3A9
100
AcDbEntity
  8
Red 2
  6
ByLayer
 62
  256
370
   -1
100
AcDbLine
 10
304.14
 20
-273.279
 11
304.063
 21
-273.152
  0
LINE
  5
3AA
100
AcDbEntity
  8
Red 2
  6
ByLayer
 62
  256
370
   -1
100
AcDbLine
 10
304.063
 20
-273.152
 11
304.063
 21
-272.567
  0
LINE
  5
3AB
100
AcDbEntity
  8
Red 2
  6
ByLayer
 62
  256
370
   -1
100
AcDbLine
 10
304.063
 20
-272.567
 11
304.14
 21
-272.44
  0
LINE
  5
3AC
100
AcDbEntity
  8
Red 2
  6
ByLayer
 62
  256
370
   -1
100
AcDbLine
 10
304.14
 20
-272.44
 11
304.292
 21
-272.364
  0
LINE
  5
3AD
100
AcDbEntity
  8
Red 2
  6
ByLayer
 62
  256
370
   -1
100
AcDbLine
 10
304.292
 20
-272.364
 11
304.571
 21
-272.364
  0
LINE
  5
3AE
100
AcDbEntity
  8
Red 2
  6
ByLayer
 62
  256
370
   -1
100
AcDbLine
 10
304.571
 20
-272.364
 11
304.724
 21
-272.44
  0
LINE
  5
3AF
100
AcDbEntity
  8
Red 2
  6
ByLayer
 62
  256
370
   -1
100
AcDbLine
 10
304.724
 20
-272.44
 11
304.775
 21
-272.567
  0
LINE
  5
3B0
100
AcDbEntity
  8
Red 2
  6
ByLayer
 62
  256
370
   -1
100
AcDbLine
 10
304.775
 20
-272.567
 11
304.775
 21
-272.72
  0
LINE
  5
3B1
100
AcDbEntity
  8
Red 2
  6
ByLayer
 62
  256
370
   -1
100
AcDbLine
 10
304.775
 20
-272.72
 11
304.063
 21
-272.872
  0
LINE
  5
3B2
100
AcDbEntity
  8
Red 2
  6
ByLayer
 62
  256
370
   -1
100
AcDbLine
 10
305.435
 20
-273.228
 11
305.511
 21
-273.279
  0
LINE
  5
3B3
100
AcDbEntity
  8
Red 2
  6
ByLayer
 62
  256
370
   -1
100
AcDbLine
 10
305.511
 20
-273.279
 11
305.435
 21
-273.355
  0
LINE
  5
3B4
100
AcDbEntity
  8
Red 2
  6
ByLayer
 62
  256
370
   -1
100
AcDbLine
 10
305.435
 20
-273.355
 11
305.359
 21
-273.279
  0
LINE
  5
3B5
100
AcDbEntity
  8
Red 2
  6
ByLayer
 62
  256
370
   -1
100
AcDbLine
 10
305.359
 20
-273.279
 11
305.435
 21
-273.228
  0
LINE
  5
3B6
100
AcDbEntity
  8
Red 2
  6
ByLayer
 62
  256
370
   -1
100
AcDbLine
 10
305.435
 20
-273.228
 11
305.435
 21
-273.355
  0
LINE
  5
3B7
100
AcDbEntity
  8
Red 2
  6
ByLayer
 62
  256
370
   -1
100
AcDbLine
 10
305.435
 20
-272.44
 11
305.511
 21
-272.491
  0
LINE
  5
3B8
100
AcDbEntity
  8
Red 2
  6
ByLayer
 62
  256
370
   -1
100
AcDbLine
 10
305.511
 20
-272.491
 11
305.435
 21
-272.567
  0
LINE
  5
3B9
100
AcDbEntity
  8
Red 2
  6
ByLayer
 62
  256
370
   -1
100
AcDbLine
 10
305.435
 20
-272.567
 11
305.359
 21
-272.491
  0
LINE
  5
3BA
100
AcDbEntity
  8
Red 2
  6
ByLayer
 62
  256
370
   -1
100
AcDbLine
 10
305.359
 20
-272.491
 11
305.435
 21
-272.44
  0
LINE
  5
3BB
100
AcDbEntity
  8
Red 2
  6
ByLayer
 62
  256
370
   -1
100
AcDbLine
 10
305.435
 20
-272.44
 11
305.435
 21
-272.567
  0
LINE
  5
3BC
100
AcDbEntity
  8
Red 2
  6
ByLayer
 62
  256
370
   -1
100
AcDbLine
 10
307.924
 20
-273.355
 11
307.924
 21
-272.567
  0
LINE
  5
3BD
100
AcDbEntity
  8
Red 2
  6
ByLayer
 62
  256
370
   -1
100
AcDbLine
 10
307.924
 20
-272.567
 11
307.873
 21
-272.44
  0
LINE
  5
3BE
100
AcDbEntity
  8
Red 2
  6
ByLayer
 62
  256
370
   -1
100
AcDbLine
 10
307.873
 20
-272.44
 11
307.721
 21
-272.364
  0
LINE
  5
3BF
100
AcDbEntity
  8
Red 2
  6
ByLayer
 62
  256
370
   -1
100
AcDbLine
 10
307.721
 20
-272.364
 11
307.442
 21
-272.364
  0
LINE
  5
3C0
100
AcDbEntity
  8
Red 2
  6
ByLayer
 62
  256
370
   -1
100
AcDbLine
 10
307.442
 20
-272.364
 11
307.289
 21
-272.44
  0
LINE
  5
3C1
100
AcDbEntity
  8
Red 2
  6
ByLayer
 62
  256
370
   -1
100
AcDbLine
 10
307.924
 20
-273.279
 11
307.797
 21
-273.355
  0
LINE
  5
3C2
100
AcDbEntity
  8
Red 2
  6
ByLayer
 62
  256
370
   -1
100
AcDbLine
 10
307.797
 20
-273.355
 11
307.442
 21
-273.355
  0
LINE
  5
3C3
100
AcDbEntity
  8
Red 2
  6
ByLayer
 62
  256
370
   -1
100
AcDbLine
 10
307.442
 20
-273.355
 11
307.289
 21
-273.279
  0
LINE
  5
3C4
100
AcDbEntity
  8
Red 2
  6
ByLayer
 62
  256
370
   -1
100
AcDbLine
 10
307.289
 20
-273.279
 11
307.213
 21
-273.152
  0
LINE
  5
3C5
100
AcDbEntity
  8
Red 2
  6
ByLayer
 62
  256
370
   -1
100
AcDbLine
 10
307.213
 20
-273.152
 11
307.213
 21
-272.999
  0
LINE
  5
3C6
100
AcDbEntity
  8
Red 2
  6
ByLayer
 62
  256
370
   -1
100
AcDbLine
 10
307.213
 20
-272.999
 11
307.289
 21
-272.872
  0
LINE
  5
3C7
100
AcDbEntity
  8
Red 2
  6
ByLayer
 62
  256
370
   -1
100
AcDbLine
 10
307.289
 20
-272.872
 11
307.442
 21
-272.796
  0
LINE
  5
3C8
100
AcDbEntity
  8
Red 2
  6
ByLayer
 62
  256
370
   -1
100
AcDbLine
 10
307.442
 20
-272.796
 11
307.797
 21
-272.796
  0
LINE
  5
3C9
100
AcDbEntity
  8
Red 2
  6
ByLayer
 62
  256
370
   -1
100
AcDbLine
 10
307.797
 20
-272.796
 11
307.924
 21
-272.72
  0
LINE
  5
3CA
100
AcDbEntity
  8
Red 2
  6
ByLayer
 62
  256
370
   -1
100
AcDbLine
 10
309.27
 20
-273.355
 11
309.27
 21
-272.567
  0
LINE
  5
3CB
100
AcDbEntity
  8
Red 2
  6
ByLayer
 62
  256
370
   -1
100
AcDbLine
 10
309.27
 20
-272.567
 11
309.22
 21
-272.44
  0
LINE
  5
3CC
100
AcDbEntity
  8
Red 2
  6
ByLayer
 62
  256
370
   -1
100
AcDbLine
 10
309.22
 20
-272.44
 11
309.067
 21
-272.364
  0
LINE
  5
3CD
100
AcDbEntity
  8
Red 2
  6
ByLayer
 62
  256
370
   -1
100
AcDbLine
 10
309.067
 20
-272.364
 11
308.788
 21
-272.364
  0
LINE
  5
3CE
100
AcDbEntity
  8
Red 2
  6
ByLayer
 62
  256
370
   -1
100
AcDbLine
 10
308.788
 20
-272.364
 11
308.635
 21
-272.44
  0
LINE
  5
3CF
100
AcDbEntity
  8
Red 2
  6
ByLayer
 62
  256
370
   -1
100
AcDbLine
 10
309.27
 20
-273.279
 11
309.143
 21
-273.355
  0
LINE
  5
3D0
100
AcDbEntity
  8
Red 2
  6
ByLayer
 62
  256
370
   -1
100
AcDbLine
 10
309.143
 20
-273.355
 11
308.788
 21
-273.355
  0
LINE
  5
3D1
100
AcDbEntity
  8
Red 2
  6
ByLayer
 62
  256
370
   -1
100
AcDbLine
 10
308.788
 20
-273.355
 11
308.635
 21
-273.279
  0
LINE
  5
3D2
100
AcDbEntity
  8
Red 2
  6
ByLayer
 62
  256
370
   -1
100
AcDbLine
 10
308.635
 20
-273.279
 11
308.559
 21
-273.152
  0
LINE
  5
3D3
100
AcDbEntity
  8
Red 2
  6
ByLayer
 62
  256
370
   -1
100
AcDbLine
 10
308.559
 20
-273.152
 11
308.559
 21
-272.999
  0
LINE
  5
3D4
100
AcDbEntity
  8
Red 2
  6
ByLayer
 62
  256
370
   -1
100
AcDbLine
 10
308.559
 20
-272.999
 11
308.635
 21
-272.872
  0
LINE
  5
3D5
100
AcDbEntity
  8
Red 2
  6
ByLayer
 62
  256
370
   -1
100
AcDbLine
 10
308.635
 20
-272.872
 11
308.788
 21
-272.796
  0
LINE
  5
3D6
100
AcDbEntity
  8
Red 2
  6
ByLayer
 62
  256
370
   -1
100
AcDbLine
 10
308.788
 20
-272.796
 11
309.143
 21
-272.796
  0
LINE
  5
3D7
100
AcDbEntity
  8
Red 2
  6
ByLayer
 62
  256
370
   -1
100
AcDbLine
 10
309.143
 20
-272.796
 11
309.27
 21
-272.72
  0
LINE
  5
3D8
100
AcDbEntity
  8
Red 2
  6
ByLayer
 62
  256
370
   -1
100
AcDbLine
 10
309.982
 20
-273.228
 11
310.058
 21
-273.279
  0
LINE
  5
3D9
100
AcDbEntity
  8
Red 2
  6
ByLayer
 62
  256
370
   -1
100
AcDbLine
 10
310.058
 20
-273.279
 11
309.982
 21
-273.355
  0
LINE
  5
3DA
100
AcDbEntity
  8
Red 2
  6
ByLayer
 62
  256
370
   -1
100
AcDbLine
 10
309.982
 20
-273.355
 11
309.905
 21
-273.279
  0
LINE
  5
3DB
100
AcDbEntity
  8
Red 2
  6
ByLayer
 62
  256
370
   -1
100
AcDbLine
 10
309.905
 20
-273.279
 11
309.982
 21
-273.228
  0
LINE
  5
3DC
100
AcDbEntity
  8
Red 2
  6
ByLayer
 62
  256
370
   -1
100
AcDbLine
 10
309.982
 20
-273.228
 11
309.982
 21
-273.355
  0
LINE
  5
3DD
100
AcDbEntity
  8
Red 2
  6
ByLayer
 62
  256
370
   -1
100
AcDbLine
 10
310.617
 20
-273.279
 11
310.769
 21
-273.355
  0
LINE
  5
3DE
100
AcDbEntity
  8
Red 2
  6
ByLayer
 62
  256
370
   -1
100
AcDbLine
 10
310.769
 20
-273.355
 11
311.048
 21
-273.355
  0
LINE
  5
3DF
100
AcDbEntity
  8
Red 2
  6
ByLayer
 62
  256
370
   -1
100
AcDbLine
 10
311.048
 20
-273.355
 11
311.201
 21
-273.279
  0
LINE
  5
3E0
100
AcDbEntity
  8
Red 2
  6
ByLayer
 62
  256
370
   -1
100
AcDbLine
 10
311.201
 20
-273.279
 11
311.277
 21
-273.152
  0
LINE
  5
3E1
100
AcDbEntity
  8
Red 2
  6
ByLayer
 62
  256
370
   -1
100
AcDbLine
 10
311.277
 20
-273.152
 11
311.277
 21
-273.075
  0
LINE
  5
3E2
100
AcDbEntity
  8
Red 2
  6
ByLayer
 62
  256
370
   -1
100
AcDbLine
 10
311.277
 20
-273.075
 11
311.201
 21
-272.923
  0
LINE
  5
3E3
100
AcDbEntity
  8
Red 2
  6
ByLayer
 62
  256
370
   -1
100
AcDbLine
 10
311.201
 20
-272.923
 11
311.048
 21
-272.872
  0
LINE
  5
3E4
100
AcDbEntity
  8
Red 2
  6
ByLayer
 62
  256
370
   -1
100
AcDbLine
 10
311.048
 20
-272.872
 11
310.845
 21
-272.872
  0
LINE
  5
3E5
100
AcDbEntity
  8
Red 2
  6
ByLayer
 62
  256
370
   -1
100
AcDbLine
 10
310.845
 20
-272.872
 11
310.693
 21
-272.796
  0
LINE
  5
3E6
100
AcDbEntity
  8
Red 2
  6
ByLayer
 62
  256
370
   -1
100
AcDbLine
 10
310.693
 20
-272.796
 11
310.617
 21
-272.644
  0
LINE
  5
3E7
100
AcDbEntity
  8
Red 2
  6
ByLayer
 62
  256
370
   -1
100
AcDbLine
 10
310.617
 20
-272.644
 11
310.617
 21
-272.567
  0
LINE
  5
3E8
100
AcDbEntity
  8
Red 2
  6
ByLayer
 62
  256
370
   -1
100
AcDbLine
 10
310.617
 20
-272.567
 11
310.693
 21
-272.44
  0
LINE
  5
3E9
100
AcDbEntity
  8
Red 2
  6
ByLayer
 62
  256
370
   -1
100
AcDbLine
 10
310.693
 20
-272.44
 11
310.845
 21
-272.364
  0
LINE
  5
3EA
100
AcDbEntity
  8
Red 2
  6
ByLayer
 62
  256
370
   -1
100
AcDbLine
 10
310.845
 20
-272.364
 11
311.048
 21
-272.364
  0
LINE
  5
3EB
100
AcDbEntity
  8
Red 2
  6
ByLayer
 62
  256
370
   -1
100
AcDbLine
 10
311.048
 20
-272.364
 11
311.201
 21
-272.44
  0
LINE
  5
3EC
100
AcDbEntity
  8
Red 2
  6
ByLayer
 62
  256
370
   -1
100
AcDbLine
 10
312.547
 20
-273.279
 11
312.42
 21
-273.355
  0
LINE
  5
3ED
100
AcDbEntity
  8
Red 2
  6
ByLayer
 62
  256
370
   -1
100
AcDbLine
 10
312.42
 20
-273.355
 11
312.115
 21
-273.355
  0
LINE
  5
3EE
100
AcDbEntity
  8
Red 2
  6
ByLayer
 62
  256
370
   -1
100
AcDbLine
 10
312.115
 20
-273.355
 11
311.988
 21
-273.279
  0
LINE
  5
3EF
100
AcDbEntity
  8
Red 2
  6
ByLayer
 62
  256
370
   -1
100
AcDbLine
 10
311.988
 20
-273.279
 11
311.912
 21
-273.228
  0
LINE
  5
3F0
100
AcDbEntity
  8
Red 2
  6
ByLayer
 62
  256
370
   -1
100
AcDbLine
 10
311.912
 20
-273.228
 11
311.836
 21
-273.075
  0
LINE
  5
3F1
100
AcDbEntity
  8
Red 2
  6
ByLayer
 62
  256
370
   -1
100
AcDbLine
 10
311.836
 20
-273.075
 11
311.836
 21
-272.644
  0
LINE
  5
3F2
100
AcDbEntity
  8
Red 2
  6
ByLayer
 62
  256
370
   -1
100
AcDbLine
 10
311.836
 20
-272.644
 11
311.912
 21
-272.491
  0
LINE
  5
3F3
100
AcDbEntity
  8
Red 2
  6
ByLayer
 62
  256
370
   -1
100
AcDbLine
 10
311.912
 20
-272.491
 11
311.988
 21
-272.44
  0
LINE
  5
3F4
100
AcDbEntity
  8
Red 2
  6
ByLayer
 62
  256
370
   -1
100
AcDbLine
 10
311.988
 20
-272.44
 11
312.115
 21
-272.364
  0
LINE
  5
3F5
100
AcDbEntity
  8
Red 2
  6
ByLayer
 62
  256
370
   -1
100
AcDbLine
 10
312.115
 20
-272.364
 11
312.42
 21
-272.364
  0
LINE
  5
3F6
100
AcDbEntity
  8
Red 2
  6
ByLayer
 62
  256
370
   -1
100
AcDbLine
 10
312.42
 20
-272.364
 11
312.547
 21
-272.44
  0
LINE
  5
3F7
100
AcDbEntity
  8
Red 2
  6
ByLayer
 62
  256
370
   -1
100
AcDbLine
 10
313.207
 20
-273.355
 11
313.207
 21
-271.856
  0
LINE
  5
3F8
100
AcDbEntity
  8
Red 2
  6
ByLayer
 62
  256
370
   -1
100
AcDbLine
 10
313.842
 20
-273.355
 11
313.842
 21
-272.567
  0
LINE
  5
3F9
100
AcDbEntity
  8
Red 2
  6
ByLayer
 62
  256
370
   -1
100
AcDbLine
 10
313.842
 20
-272.567
 11
313.792
 21
-272.44
  0
LINE
  5
3FA
100
AcDbEntity
  8
Red 2
  6
ByLayer
 62
  256
370
   -1
100
AcDbLine
 10
313.792
 20
-272.44
 11
313.639
 21
-272.364
  0
LINE
  5
3FB
100
AcDbEntity
  8
Red 2
  6
ByLayer
 62
  256
370
   -1
100
AcDbLine
 10
313.639
 20
-272.364
 11
313.411
 21
-272.364
  0
LINE
  5
3FC
100
AcDbEntity
  8
Red 2
  6
ByLayer
 62
  256
370
   -1
100
AcDbLine
 10
313.411
 20
-272.364
 11
313.284
 21
-272.44
  0
LINE
  5
3FD
100
AcDbEntity
  8
Red 2
  6
ByLayer
 62
  256
370
   -1
100
AcDbLine
 10
313.284
 20
-272.44
 11
313.207
 21
-272.491
  0
LINE
  5
3FE
100
AcDbEntity
  8
Red 2
  6
ByLayer
 62
  256
370
   -1
100
AcDbLine
 10
299.999
 20
-268.503
 11
408
 21
-268.503
  0
LINE
  5
3FF
100
AcDbEntity
  8
Red 2
  6
ByLayer
 62
  256
370
   -1
100
AcDbLine
 10
301.269
 20
-270.586
 11
301.498
 21
-270.662
  0
LINE
  5
400
100
AcDbEntity
  8
Red 2
  6
ByLayer
 62
  256
370
   -1
100
AcDbLine
 10
301.498
 20
-270.662
 11
301.854
 21
-270.662
  0
LINE
  5
401
100
AcDbEntity
  8
Red 2
  6
ByLayer
 62
  256
370
   -1
100
AcDbLine
 10
301.854
 20
-270.662
 11
301.981
 21
-270.586
  0
LINE
  5
402
100
AcDbEntity
  8
Red 2
  6
ByLayer
 62
  256
370
   -1
100
AcDbLine
 10
301.981
 20
-270.586
 11
302.057
 21
-270.535
  0
LINE
  5
403
100
AcDbEntity
  8
Red 2
  6
ByLayer
 62
  256
370
   -1
100
AcDbLine
 10
302.057
 20
-270.535
 11
302.133
 21
-270.383
  0
LINE
  5
404
100
AcDbEntity
  8
Red 2
  6
ByLayer
 62
  256
370
   -1
100
AcDbLine
 10
302.133
 20
-270.383
 11
302.133
 21
-270.231
  0
LINE
  5
405
100
AcDbEntity
  8
Red 2
  6
ByLayer
 62
  256
370
   -1
100
AcDbLine
 10
302.133
 20
-270.231
 11
302.057
 21
-270.104
  0
LINE
  5
406
100
AcDbEntity
  8
Red 2
  6
ByLayer
 62
  256
370
   -1
100
AcDbLine
 10
302.057
 20
-270.104
 11
301.981
 21
-270.027
  0
LINE
  5
407
100
AcDbEntity
  8
Red 2
  6
ByLayer
 62
  256
370
   -1
100
AcDbLine
 10
301.981
 20
-270.027
 11
301.854
 21
-269.951
  0
LINE
  5
408
100
AcDbEntity
  8
Red 2
  6
ByLayer
 62
  256
370
   -1
100
AcDbLine
 10
301.854
 20
-269.951
 11
301.549
 21
-269.875
  0
LINE
  5
409
100
AcDbEntity
  8
Red 2
  6
ByLayer
 62
  256
370
   -1
100
AcDbLine
 10
301.549
 20
-269.875
 11
301.422
 21
-269.799
  0
LINE
  5
40A
100
AcDbEntity
  8
Red 2
  6
ByLayer
 62
  256
370
   -1
100
AcDbLine
 10
301.422
 20
-269.799
 11
301.346
 21
-269.748
  0
LINE
  5
40B
100
AcDbEntity
  8
Red 2
  6
ByLayer
 62
  256
370
   -1
100
AcDbLine
 10
301.346
 20
-269.748
 11
301.269
 21
-269.596
  0
LINE
  5
40C
100
AcDbEntity
  8
Red 2
  6
ByLayer
 62
  256
370
   -1
100
AcDbLine
 10
301.269
 20
-269.596
 11
301.269
 21
-269.443
  0
LINE
  5
40D
100
AcDbEntity
  8
Red 2
  6
ByLayer
 62
  256
370
   -1
100
AcDbLine
 10
301.269
 20
-269.443
 11
301.346
 21
-269.316
  0
LINE
  5
40E
100
AcDbEntity
  8
Red 2
  6
ByLayer
 62
  256
370
   -1
100
AcDbLine
 10
301.346
 20
-269.316
 11
301.422
 21
-269.24
  0
LINE
  5
40F
100
AcDbEntity
  8
Red 2
  6
ByLayer
 62
  256
370
   -1
100
AcDbLine
 10
301.422
 20
-269.24
 11
301.549
 21
-269.164
  0
LINE
  5
410
100
AcDbEntity
  8
Red 2
  6
ByLayer
 62
  256
370
   -1
100
AcDbLine
 10
301.549
 20
-269.164
 11
301.93
 21
-269.164
  0
LINE
  5
411
100
AcDbEntity
  8
Red 2
  6
ByLayer
 62
  256
370
   -1
100
AcDbLine
 10
301.93
 20
-269.164
 11
302.133
 21
-269.24
  0
LINE
  5
412
100
AcDbEntity
  8
Red 2
  6
ByLayer
 62
  256
370
   -1
100
AcDbLine
 10
302.768
 20
-270.662
 11
302.768
 21
-269.164
  0
LINE
  5
413
100
AcDbEntity
  8
Red 2
  6
ByLayer
 62
  256
370
   -1
100
AcDbLine
 10
303.403
 20
-270.662
 11
303.403
 21
-269.875
  0
LINE
  5
414
100
AcDbEntity
  8
Red 2
  6
ByLayer
 62
  256
370
   -1
100
AcDbLine
 10
303.403
 20
-269.875
 11
303.352
 21
-269.748
  0
LINE
  5
415
100
AcDbEntity
  8
Red 2
  6
ByLayer
 62
  256
370
   -1
100
AcDbLine
 10
303.352
 20
-269.748
 11
303.2
 21
-269.672
  0
LINE
  5
416
100
AcDbEntity
  8
Red 2
  6
ByLayer
 62
  256
370
   -1
100
AcDbLine
 10
303.2
 20
-269.672
 11
302.971
 21
-269.672
  0
LINE
  5
417
100
AcDbEntity
  8
Red 2
  6
ByLayer
 62
  256
370
   -1
100
AcDbLine
 10
302.971
 20
-269.672
 11
302.844
 21
-269.748
  0
LINE
  5
418
100
AcDbEntity
  8
Red 2
  6
ByLayer
 62
  256
370
   -1
100
AcDbLine
 10
302.844
 20
-269.748
 11
302.768
 21
-269.799
  0
LINE
  5
419
100
AcDbEntity
  8
Red 2
  6
ByLayer
 62
  256
370
   -1
100
AcDbLine
 10
304.698
 20
-270.586
 11
304.546
 21
-270.662
  0
LINE
  5
41A
100
AcDbEntity
  8
Red 2
  6
ByLayer
 62
  256
370
   -1
100
AcDbLine
 10
304.546
 20
-270.662
 11
304.267
 21
-270.662
  0
LINE
  5
41B
100
AcDbEntity
  8
Red 2
  6
ByLayer
 62
  256
370
   -1
100
AcDbLine
 10
304.267
 20
-270.662
 11
304.114
 21
-270.586
  0
LINE
  5
41C
100
AcDbEntity
  8
Red 2
  6
ByLayer
 62
  256
370
   -1
100
AcDbLine
 10
304.114
 20
-270.586
 11
304.038
 21
-270.459
  0
LINE
  5
41D
100
AcDbEntity
  8
Red 2
  6
ByLayer
 62
  256
370
   -1
100
AcDbLine
 10
304.038
 20
-270.459
 11
304.038
 21
-269.875
  0
LINE
  5
41E
100
AcDbEntity
  8
Red 2
  6
ByLayer
 62
  256
370
   -1
100
AcDbLine
 10
304.038
 20
-269.875
 11
304.114
 21
-269.748
  0
LINE
  5
41F
100
AcDbEntity
  8
Red 2
  6
ByLayer
 62
  256
370
   -1
100
AcDbLine
 10
304.114
 20
-269.748
 11
304.267
 21
-269.672
  0
LINE
  5
420
100
AcDbEntity
  8
Red 2
  6
ByLayer
 62
  256
370
   -1
100
AcDbLine
 10
304.267
 20
-269.672
 11
304.546
 21
-269.672
  0
LINE
  5
421
100
AcDbEntity
  8
Red 2
  6
ByLayer
 62
  256
370
   -1
100
AcDbLine
 10
304.546
 20
-269.672
 11
304.698
 21
-269.748
  0
LINE
  5
422
100
AcDbEntity
  8
Red 2
  6
ByLayer
 62
  256
370
   -1
100
AcDbLine
 10
304.698
 20
-269.748
 11
304.749
 21
-269.875
  0
LINE
  5
423
100
AcDbEntity
  8
Red 2
  6
ByLayer
 62
  256
370
   -1
100
AcDbLine
 10
304.749
 20
-269.875
 11
304.749
 21
-270.027
  0
LINE
  5
424
100
AcDbEntity
  8
Red 2
  6
ByLayer
 62
  256
370
   -1
100
AcDbLine
 10
304.749
 20
-270.027
 11
304.038
 21
-270.18
  0
LINE
  5
425
100
AcDbEntity
  8
Red 2
  6
ByLayer
 62
  256
370
   -1
100
AcDbLine
 10
305.994
 20
-270.586
 11
305.841
 21
-270.662
  0
LINE
  5
426
100
AcDbEntity
  8
Red 2
  6
ByLayer
 62
  256
370
   -1
100
AcDbLine
 10
305.841
 20
-270.662
 11
305.562
 21
-270.662
  0
LINE
  5
427
100
AcDbEntity
  8
Red 2
  6
ByLayer
 62
  256
370
   -1
100
AcDbLine
 10
305.562
 20
-270.662
 11
305.41
 21
-270.586
  0
LINE
  5
428
100
AcDbEntity
  8
Red 2
  6
ByLayer
 62
  256
370
   -1
100
AcDbLine
 10
305.41
 20
-270.586
 11
305.333
 21
-270.459
  0
LINE
  5
429
100
AcDbEntity
  8
Red 2
  6
ByLayer
 62
  256
370
   -1
100
AcDbLine
 10
305.333
 20
-270.459
 11
305.333
 21
-269.875
  0
LINE
  5
42A
100
AcDbEntity
  8
Red 2
  6
ByLayer
 62
  256
370
   -1
100
AcDbLine
 10
305.333
 20
-269.875
 11
305.41
 21
-269.748
  0
LINE
  5
42B
100
AcDbEntity
  8
Red 2
  6
ByLayer
 62
  256
370
   -1
100
AcDbLine
 10
305.41
 20
-269.748
 11
305.562
 21
-269.672
  0
LINE
  5
42C
100
AcDbEntity
  8
Red 2
  6
ByLayer
 62
  256
370
   -1
100
AcDbLine
 10
305.562
 20
-269.672
 11
305.841
 21
-269.672
  0
LINE
  5
42D
100
AcDbEntity
  8
Red 2
  6
ByLayer
 62
  256
370
   -1
100
AcDbLine
 10
305.841
 20
-269.672
 11
305.994
 21
-269.748
  0
LINE
  5
42E
100
AcDbEntity
  8
Red 2
  6
ByLayer
 62
  256
370
   -1
100
AcDbLine
 10
305.994
 20
-269.748
 11
306.045
 21
-269.875
  0
LINE
  5
42F
100
AcDbEntity
  8
Red 2
  6
ByLayer
 62
  256
370
   -1
100
AcDbLine
 10
306.045
 20
-269.875
 11
306.045
 21
-270.027
  0
LINE
  5
430
100
AcDbEntity
  8
Red 2
  6
ByLayer
 62
  256
370
   -1
100
AcDbLine
 10
306.045
 20
-270.027
 11
305.333
 21
-270.18
  0
LINE
  5
431
100
AcDbEntity
  8
Red 2
  6
ByLayer
 62
  256
370
   -1
100
AcDbLine
 10
306.502
 20
-269.672
 11
307.061
 21
-269.672
  0
LINE
  5
432
100
AcDbEntity
  8
Red 2
  6
ByLayer
 62
  256
370
   -1
100
AcDbLine
 10
306.705
 20
-269.164
 11
306.705
 21
-270.459
  0
LINE
  5
433
100
AcDbEntity
  8
Red 2
  6
ByLayer
 62
  256
370
   -1
100
AcDbLine
 10
306.705
 20
-270.459
 11
306.781
 21
-270.586
  0
LINE
  5
434
100
AcDbEntity
  8
Red 2
  6
ByLayer
 62
  256
370
   -1
100
AcDbLine
 10
306.781
 20
-270.586
 11
306.908
 21
-270.662
  0
LINE
  5
435
100
AcDbEntity
  8
Red 2
  6
ByLayer
 62
  256
370
   -1
100
AcDbLine
 10
306.908
 20
-270.662
 11
307.061
 21
-270.662
  0
LINE
  5
436
100
AcDbEntity
  8
Red 2
  6
ByLayer
 62
  256
370
   -1
100
AcDbLine
 10
307.569
 20
-270.535
 11
307.645
 21
-270.586
  0
LINE
  5
437
100
AcDbEntity
  8
Red 2
  6
ByLayer
 62
  256
370
   -1
100
AcDbLine
 10
307.645
 20
-270.586
 11
307.569
 21
-270.662
  0
LINE
  5
438
100
AcDbEntity
  8
Red 2
  6
ByLayer
 62
  256
370
   -1
100
AcDbLine
 10
307.569
 20
-270.662
 11
307.492
 21
-270.586
  0
LINE
  5
439
100
AcDbEntity
  8
Red 2
  6
ByLayer
 62
  256
370
   -1
100
AcDbLine
 10
307.492
 20
-270.586
 11
307.569
 21
-270.535
  0
LINE
  5
43A
100
AcDbEntity
  8
Red 2
  6
ByLayer
 62
  256
370
   -1
100
AcDbLine
 10
307.569
 20
-270.535
 11
307.569
 21
-270.662
  0
LINE
  5
43B
100
AcDbEntity
  8
Red 2
  6
ByLayer
 62
  256
370
   -1
100
AcDbLine
 10
307.569
 20
-269.748
 11
307.645
 21
-269.799
  0
LINE
  5
43C
100
AcDbEntity
  8
Red 2
  6
ByLayer
 62
  256
370
   -1
100
AcDbLine
 10
307.645
 20
-269.799
 11
307.569
 21
-269.875
  0
LINE
  5
43D
100
AcDbEntity
  8
Red 2
  6
ByLayer
 62
  256
370
   -1
100
AcDbLine
 10
307.569
 20
-269.875
 11
307.492
 21
-269.799
  0
LINE
  5
43E
100
AcDbEntity
  8
Red 2
  6
ByLayer
 62
  256
370
   -1
100
AcDbLine
 10
307.492
 20
-269.799
 11
307.569
 21
-269.748
  0
LINE
  5
43F
100
AcDbEntity
  8
Red 2
  6
ByLayer
 62
  256
370
   -1
100
AcDbLine
 10
307.569
 20
-269.748
 11
307.569
 21
-269.875
  0
LINE
  5
440
100
AcDbEntity
  8
Red 2
  6
ByLayer
 62
  256
370
   -1
100
AcDbLine
 10
310.49
 20
-269.088
 11
309.22
 21
-271.018
  0
LINE
  5
441
100
AcDbEntity
  8
Red 2
  6
ByLayer
 62
  256
370
   -1
100
AcDbLine
 10
319.989
 20
-278.511
 11
319.989
 21
-281.508
  0
LINE
  5
442
100
AcDbEntity
  8
Red 2
  6
ByLayer
 62
  256
370
   -1
100
AcDbLine
 10
383.997
 20
-278.511
 11
383.997
 21
-285.013
  0
CIRCLE
  5
443
100
AcDbEntity
  8
draw
  6
ByLayer
 62
  256
370
   -1
100
AcDbCircle
 10
50
 20
-37
 40
8
  0
CIRCLE
  5
444
100
AcDbEntity
  8
draw
  6
ByLayer
 62
  256
370
   -1
100
AcDbCircle
 10
80
 20
-37
 40
8
  0
CIRCLE
  5
445
100
AcDbEntity
  8
draw
  6
ByLayer
 62
  256
370
   -1
100
AcDbCircle
 10
195
 20
-37
 40
8
  0
CIRCLE
  5
446
100
AcDbEntity
  8
draw
  6
ByLayer
 62
  256
370
   -1
100
AcDbCircle
 10
225
 20
-37
 40
8
  0
CIRCLE
  5
447
100
AcDbEntity
  8
draw
  6
ByLayer
 62
  256
370
   -1
100
AcDbCircle
 10
255
 20
-37
 40
8
  0
CIRCLE
  5
448
100
AcDbEntity
  8
draw
  6
ByLayer
 62
  256
370
   -1
100
AcDbCircle
 10
28
 20
-15
 40
2
  0
ENDSEC
  0
SECTION
  2
OBJECTS
  0
DICTIONARY
  5
C
330
0
100
AcDbDictionary
281
    1
  3
ACAD_GROUP
350
D
  0
DICTIONARY
  5
D
330
C
100
AcDbDictionary
281
    1
  0
ENDSEC
  0
EOF
