  0
SECTION
  2
HEADER
  9
$ANGBASE
  50
0.0
  9
$ANGDIR
  70
  1
  9
$MEASUREMENT
  70
0
  0
ENDSEC
  0
SECTION
  2
TABLES
  0
TABLE
  2
LTYPE
  70
1
  0
LTYPE
  2
CONTINUOUS
  70
0
  3
Solid line
  72
65
  73
0
  40
0.0
  0
ENDTAB
  0
TABLE
  2
STYLE
  70
4
  0
STYLE
  2
KICAD
  70
0
  40
0
  41
1
  42
1
  50
0
  71
0
  3
isocp.shx
  0
STYLE
  2
KICADB
  70
0
  40
0
  41
1
  42
1
  50
0
  71
0
  3
isocp.shx
  0
STYLE
  2
KICADI
  70
0
  40
0
  41
1
  42
1
  50
15
  71
0
  3
isocp.shx
  0
STYLE
  2
KICADBI
  70
0
  40
0
  41
1
  42
1
  50
15
  71
0
  3
isocp.shx
  0
ENDTAB
  0
TABLE
  2
LAYER
  70
30
  0
LAYER
  2
BLACK
  70
0
  62
7
  6
CONTINUOUS
  0
LAYER
  2
GRAY1
  70
0
  62
251
  6
CONTINUOUS
  0
LAYER
  2
GRAY2
  70
0
  62
8
  6
CONTINUOUS
  0
LAYER
  2
GRAY3
  70
0
  62
9
  6
CONTINUOUS
  0
LAYER
  2
WHITE
  70
0
  62
7
  6
CONTINUOUS
  0
LAYER
  2
LYELLOW
  70
0
  62
51
  6
CONTINUOUS
  0
LAYER
  2
BLUE1
  70
0
  62
178
  6
CONTINUOUS
  0
LAYER
  2
GREEN1
  70
0
  62
98
  6
CONTINUOUS
  0
LAYER
  2
CYAN1
  70
0
  62
138
  6
CONTINUOUS
  0
LAYER
  2
RED1
  70
0
  62
18
  6
CONTINUOUS
  0
LAYER
  2
MAGENTA1
  70
0
  62
228
  6
CONTINUOUS
  0
LAYER
  2
BROWN1
  70
0
  62
58
  6
CONTINUOUS
  0
LAYER
  2
BLUE2
  70
0
  62
5
  6
CONTINUOUS
  0
LAYER
  2
GREEN2
  70
0
  62
3
  6
CONTINUOUS
  0
LAYER
  2
CYAN2
  70
0
  62
4
  6
CONTINUOUS
  0
LAYER
  2
RED2
  70
0
  62
1
  6
CONTINUOUS
  0
LAYER
  2
MAGENTA2
  70
0
  62
6
  6
CONTINUOUS
  0
LAYER
  2
BROWN2
  70
0
  62
54
  6
CONTINUOUS
  0
LAYER
  2
BLUE3
  70
0
  62
171
  6
CONTINUOUS
  0
LAYER
  2
GREEN3
  70
0
  62
91
  6
CONTINUOUS
  0
LAYER
  2
CYAN3
  70
0
  62
131
  6
CONTINUOUS
  0
LAYER
  2
RED3
  70
0
  62
11
  6
CONTINUOUS
  0
LAYER
  2
MAGENTA3
  70
0
  62
221
  6
CONTINUOUS
  0
LAYER
  2
YELLOW3
  70
0
  62
2
  6
CONTINUOUS
  0
LAYER
  2
BLUE4
  70
0
  62
5
  6
CONTINUOUS
  0
LAYER
  2
GREEN4
  70
0
  62
3
  6
CONTINUOUS
  0
LAYER
  2
CYAN4
  70
0
  62
4
  6
CONTINUOUS
  0
LAYER
  2
RED4
  70
0
  62
1
  6
CONTINUOUS
  0
LAYER
  2
MAGENTA4
  70
0
  62
6
  6
CONTINUOUS
  0
LAYER
  2
YELLOW4
  70
0
  62
2
  6
CONTINUOUS
  0
ENDTAB
  0
ENDSEC
  0
SECTION
  2
ENTITIES
0
LINE
8
Red 2
10
299.999
20
-253.009
11
299.999
21
-285.013
0
LINE
8
Red 2
10
299.999
20
-285.013
11
408
21
-285.013
0
LINE
8
Red 2
10
408
20
-285.013
11
408
21
-253.009
0
LINE
8
Red 2
10
408
20
-253.009
11
299.999
21
-253.009
0
LINE
8
Red 2
10
10.0076
20
-10.0076
11
10.0076
21
-286.995
0
LINE
8
Red 2
10
10.0076
20
-286.995
11
409.981
21
-286.995
0
LINE
8
Red 2
10
409.981
20
-286.995
11
409.981
21
-10.0076
0
LINE
8
Red 2
10
409.981
20
-10.0076
11
10.0076
21
-10.0076
0
LINE
8
Red 2
10
11.9888
20
-11.9888
11
11.9888
21
-285.013
0
LINE
8
Red 2
10
11.9888
20
-285.013
11
408
21
-285.013
0
LINE
8
Red 2
10
408
20
-285.013
11
408
21
-11.9888
0
LINE
8
Red 2
10
408
20
-11.9888
11
11.9888
21
-11.9888
0
LINE
8
Red 2
10
59.9948
20
-11.9888
11
59.9948
21
-10.0076
0
LINE
8
Red 2
10
110.007
20
-11.9888
11
110.007
21
-10.0076
0
LINE
8
Red 2
10
159.995
20
-11.9888
11
159.995
21
-10.0076
0
LINE
8
Red 2
10
210.007
20
-11.9888
11
210.007
21
-10.0076
0
LINE
8
Red 2
10
259.994
20
-11.9888
11
259.994
21
-10.0076
0
LINE
8
Red 2
10
310.007
20
-11.9888
11
310.007
21
-10.0076
0
LINE
8
Red 2
10
359.994
20
-11.9888
11
359.994
21
-10.0076
0
LINE
8
Red 2
10
35.9918
20
-11.5824
11
35.2552
21
-11.5824
0
LINE
8
Red 2
10
35.6108
20
-11.5824
11
35.6108
21
-10.287
0
LINE
8
Red 2
10
35.6108
20
-10.287
11
35.4838
21
-10.4648
0
LINE
8
Red 2
10
35.4838
20
-10.4648
11
35.3822
21
-10.5918
0
LINE
8
Red 2
10
35.3822
20
-10.5918
11
35.2552
21
-10.6426
0
LINE
8
Red 2
10
85.2424
20
-10.3886
11
85.2932
21
-10.3378
0
LINE
8
Red 2
10
85.2932
20
-10.3378
11
85.4202
21
-10.287
0
LINE
8
Red 2
10
85.4202
20
-10.287
11
85.725
21
-10.287
0
LINE
8
Red 2
10
85.725
20
-10.287
11
85.852
21
-10.3378
0
LINE
8
Red 2
10
85.852
20
-10.3378
11
85.9028
21
-10.3886
0
LINE
8
Red 2
10
85.9028
20
-10.3886
11
85.979
21
-10.5156
0
LINE
8
Red 2
10
85.979
20
-10.5156
11
85.979
21
-10.6426
0
LINE
8
Red 2
10
85.979
20
-10.6426
11
85.9028
21
-10.8204
0
LINE
8
Red 2
10
85.9028
20
-10.8204
11
85.1662
21
-11.5824
0
LINE
8
Red 2
10
85.1662
20
-11.5824
11
85.979
21
-11.5824
0
LINE
8
Red 2
10
135.179
20
-10.287
11
135.992
21
-10.287
0
LINE
8
Red 2
10
135.992
20
-10.287
11
135.56
21
-10.7696
0
LINE
8
Red 2
10
135.56
20
-10.7696
11
135.738
21
-10.7696
0
LINE
8
Red 2
10
135.738
20
-10.7696
11
135.865
21
-10.8204
0
LINE
8
Red 2
10
135.865
20
-10.8204
11
135.915
21
-10.8966
0
LINE
8
Red 2
10
135.915
20
-10.8966
11
135.992
21
-11.0236
0
LINE
8
Red 2
10
135.992
20
-11.0236
11
135.992
21
-11.3284
0
LINE
8
Red 2
10
135.992
20
-11.3284
11
135.915
21
-11.4554
0
LINE
8
Red 2
10
135.915
20
-11.4554
11
135.865
21
-11.5062
0
LINE
8
Red 2
10
135.865
20
-11.5062
11
135.738
21
-11.5824
0
LINE
8
Red 2
10
135.738
20
-11.5824
11
135.382
21
-11.5824
0
LINE
8
Red 2
10
135.382
20
-11.5824
11
135.255
21
-11.5062
0
LINE
8
Red 2
10
135.255
20
-11.5062
11
135.179
21
-11.4554
0
LINE
8
Red 2
10
185.852
20
-10.7188
11
185.852
21
-11.5824
0
LINE
8
Red 2
10
185.547
20
-10.2108
11
185.242
21
-11.1506
0
LINE
8
Red 2
10
185.242
20
-11.1506
11
186.03
21
-11.1506
0
LINE
8
Red 2
10
235.915
20
-10.287
11
235.306
21
-10.287
0
LINE
8
Red 2
10
235.306
20
-10.287
11
235.255
21
-10.8966
0
LINE
8
Red 2
10
235.255
20
-10.8966
11
235.306
21
-10.8204
0
LINE
8
Red 2
10
235.306
20
-10.8204
11
235.433
21
-10.7696
0
LINE
8
Red 2
10
235.433
20
-10.7696
11
235.737
21
-10.7696
0
LINE
8
Red 2
10
235.737
20
-10.7696
11
235.864
21
-10.8204
0
LINE
8
Red 2
10
235.864
20
-10.8204
11
235.915
21
-10.8966
0
LINE
8
Red 2
10
235.915
20
-10.8966
11
235.991
21
-11.0236
0
LINE
8
Red 2
10
235.991
20
-11.0236
11
235.991
21
-11.3284
0
LINE
8
Red 2
10
235.991
20
-11.3284
11
235.915
21
-11.4554
0
LINE
8
Red 2
10
235.915
20
-11.4554
11
235.864
21
-11.5062
0
LINE
8
Red 2
10
235.864
20
-11.5062
11
235.737
21
-11.5824
0
LINE
8
Red 2
10
235.737
20
-11.5824
11
235.433
21
-11.5824
0
LINE
8
Red 2
10
235.433
20
-11.5824
11
235.306
21
-11.5062
0
LINE
8
Red 2
10
235.306
20
-11.5062
11
235.255
21
-11.4554
0
LINE
8
Red 2
10
285.852
20
-10.287
11
285.598
21
-10.287
0
LINE
8
Red 2
10
285.598
20
-10.287
11
285.471
21
-10.3378
0
LINE
8
Red 2
10
285.471
20
-10.3378
11
285.42
21
-10.3886
0
LINE
8
Red 2
10
285.42
20
-10.3886
11
285.293
21
-10.5918
0
LINE
8
Red 2
10
285.293
20
-10.5918
11
285.242
21
-10.8204
0
LINE
8
Red 2
10
285.242
20
-10.8204
11
285.242
21
-11.3284
0
LINE
8
Red 2
10
285.242
20
-11.3284
11
285.293
21
-11.4554
0
LINE
8
Red 2
10
285.293
20
-11.4554
11
285.369
21
-11.5062
0
LINE
8
Red 2
10
285.369
20
-11.5062
11
285.471
21
-11.5824
0
LINE
8
Red 2
10
285.471
20
-11.5824
11
285.725
21
-11.5824
0
LINE
8
Red 2
10
285.725
20
-11.5824
11
285.852
21
-11.5062
0
LINE
8
Red 2
10
285.852
20
-11.5062
11
285.902
21
-11.4554
0
LINE
8
Red 2
10
285.902
20
-11.4554
11
285.979
21
-11.3284
0
LINE
8
Red 2
10
285.979
20
-11.3284
11
285.979
21
-11.0236
0
LINE
8
Red 2
10
285.979
20
-11.0236
11
285.902
21
-10.8966
0
LINE
8
Red 2
10
285.902
20
-10.8966
11
285.852
21
-10.8204
0
LINE
8
Red 2
10
285.852
20
-10.8204
11
285.725
21
-10.7696
0
LINE
8
Red 2
10
285.725
20
-10.7696
11
285.471
21
-10.7696
0
LINE
8
Red 2
10
285.471
20
-10.7696
11
285.369
21
-10.8204
0
LINE
8
Red 2
10
285.369
20
-10.8204
11
285.293
21
-10.8966
0
LINE
8
Red 2
10
285.293
20
-10.8966
11
285.242
21
-11.0236
0
LINE
8
Red 2
10
335.178
20
-10.287
11
336.042
21
-10.287
0
LINE
8
Red 2
10
336.042
20
-10.287
11
335.483
21
-11.5824
0
LINE
8
Red 2
10
385.47
20
-10.8204
11
385.369
21
-10.7696
0
LINE
8
Red 2
10
385.369
20
-10.7696
11
385.293
21
-10.7188
0
LINE
8
Red 2
10
385.293
20
-10.7188
11
385.242
21
-10.5918
0
LINE
8
Red 2
10
385.242
20
-10.5918
11
385.242
21
-10.5156
0
LINE
8
Red 2
10
385.242
20
-10.5156
11
385.293
21
-10.3886
0
LINE
8
Red 2
10
385.293
20
-10.3886
11
385.369
21
-10.3378
0
LINE
8
Red 2
10
385.369
20
-10.3378
11
385.47
21
-10.287
0
LINE
8
Red 2
10
385.47
20
-10.287
11
385.724
21
-10.287
0
LINE
8
Red 2
10
385.724
20
-10.287
11
385.851
21
-10.3378
0
LINE
8
Red 2
10
385.851
20
-10.3378
11
385.902
21
-10.3886
0
LINE
8
Red 2
10
385.902
20
-10.3886
11
385.978
21
-10.5156
0
LINE
8
Red 2
10
385.978
20
-10.5156
11
385.978
21
-10.5918
0
LINE
8
Red 2
10
385.978
20
-10.5918
11
385.902
21
-10.7188
0
LINE
8
Red 2
10
385.902
20
-10.7188
11
385.851
21
-10.7696
0
LINE
8
Red 2
10
385.851
20
-10.7696
11
385.724
21
-10.8204
0
LINE
8
Red 2
10
385.724
20
-10.8204
11
385.47
21
-10.8204
0
LINE
8
Red 2
10
385.47
20
-10.8204
11
385.369
21
-10.8966
0
LINE
8
Red 2
10
385.369
20
-10.8966
11
385.293
21
-10.9474
0
LINE
8
Red 2
10
385.293
20
-10.9474
11
385.242
21
-11.0744
0
LINE
8
Red 2
10
385.242
20
-11.0744
11
385.242
21
-11.3284
0
LINE
8
Red 2
10
385.242
20
-11.3284
11
385.293
21
-11.4554
0
LINE
8
Red 2
10
385.293
20
-11.4554
11
385.369
21
-11.5062
0
LINE
8
Red 2
10
385.369
20
-11.5062
11
385.47
21
-11.5824
0
LINE
8
Red 2
10
385.47
20
-11.5824
11
385.724
21
-11.5824
0
LINE
8
Red 2
10
385.724
20
-11.5824
11
385.851
21
-11.5062
0
LINE
8
Red 2
10
385.851
20
-11.5062
11
385.902
21
-11.4554
0
LINE
8
Red 2
10
385.902
20
-11.4554
11
385.978
21
-11.3284
0
LINE
8
Red 2
10
385.978
20
-11.3284
11
385.978
21
-11.0744
0
LINE
8
Red 2
10
385.978
20
-11.0744
11
385.902
21
-10.9474
0
LINE
8
Red 2
10
385.902
20
-10.9474
11
385.851
21
-10.8966
0
LINE
8
Red 2
10
385.851
20
-10.8966
11
385.724
21
-10.8204
0
LINE
8
Red 2
10
59.9948
20
-285.013
11
59.9948
21
-286.995
0
LINE
8
Red 2
10
110.007
20
-285.013
11
110.007
21
-286.995
0
LINE
8
Red 2
10
159.995
20
-285.013
11
159.995
21
-286.995
0
LINE
8
Red 2
10
210.007
20
-285.013
11
210.007
21
-286.995
0
LINE
8
Red 2
10
259.994
20
-285.013
11
259.994
21
-286.995
0
LINE
8
Red 2
10
310.007
20
-285.013
11
310.007
21
-286.995
0
LINE
8
Red 2
10
359.994
20
-285.013
11
359.994
21
-286.995
0
LINE
8
Red 2
10
35.9918
20
-286.588
11
35.2552
21
-286.588
0
LINE
8
Red 2
10
35.6108
20
-286.588
11
35.6108
21
-285.293
0
LINE
8
Red 2
10
35.6108
20
-285.293
11
35.4838
21
-285.471
0
LINE
8
Red 2
10
35.4838
20
-285.471
11
35.3822
21
-285.598
0
LINE
8
Red 2
10
35.3822
20
-285.598
11
35.2552
21
-285.648
0
LINE
8
Red 2
10
85.2424
20
-285.394
11
85.2932
21
-285.344
0
LINE
8
Red 2
10
85.2932
20
-285.344
11
85.4202
21
-285.293
0
LINE
8
Red 2
10
85.4202
20
-285.293
11
85.725
21
-285.293
0
LINE
8
Red 2
10
85.725
20
-285.293
11
85.852
21
-285.344
0
LINE
8
Red 2
10
85.852
20
-285.344
11
85.9028
21
-285.394
0
LINE
8
Red 2
10
85.9028
20
-285.394
11
85.979
21
-285.521
0
LINE
8
Red 2
10
85.979
20
-285.521
11
85.979
21
-285.648
0
LINE
8
Red 2
10
85.979
20
-285.648
11
85.9028
21
-285.826
0
LINE
8
Red 2
10
85.9028
20
-285.826
11
85.1662
21
-286.588
0
LINE
8
Red 2
10
85.1662
20
-286.588
11
85.979
21
-286.588
0
LINE
8
Red 2
10
135.179
20
-285.293
11
135.992
21
-285.293
0
LINE
8
Red 2
10
135.992
20
-285.293
11
135.56
21
-285.775
0
LINE
8
Red 2
10
135.56
20
-285.775
11
135.738
21
-285.775
0
LINE
8
Red 2
10
135.738
20
-285.775
11
135.865
21
-285.826
0
LINE
8
Red 2
10
135.865
20
-285.826
11
135.915
21
-285.902
0
LINE
8
Red 2
10
135.915
20
-285.902
11
135.992
21
-286.029
0
LINE
8
Red 2
10
135.992
20
-286.029
11
135.992
21
-286.334
0
LINE
8
Red 2
10
135.992
20
-286.334
11
135.915
21
-286.461
0
LINE
8
Red 2
10
135.915
20
-286.461
11
135.865
21
-286.512
0
LINE
8
Red 2
10
135.865
20
-286.512
11
135.738
21
-286.588
0
LINE
8
Red 2
10
135.738
20
-286.588
11
135.382
21
-286.588
0
LINE
8
Red 2
10
135.382
20
-286.588
11
135.255
21
-286.512
0
LINE
8
Red 2
10
135.255
20
-286.512
11
135.179
21
-286.461
0
LINE
8
Red 2
10
185.852
20
-285.725
11
185.852
21
-286.588
0
LINE
8
Red 2
10
185.547
20
-285.217
11
185.242
21
-286.156
0
LINE
8
Red 2
10
185.242
20
-286.156
11
186.03
21
-286.156
0
LINE
8
Red 2
10
235.915
20
-285.293
11
235.306
21
-285.293
0
LINE
8
Red 2
10
235.306
20
-285.293
11
235.255
21
-285.902
0
LINE
8
Red 2
10
235.255
20
-285.902
11
235.306
21
-285.826
0
LINE
8
Red 2
10
235.306
20
-285.826
11
235.433
21
-285.775
0
LINE
8
Red 2
10
235.433
20
-285.775
11
235.737
21
-285.775
0
LINE
8
Red 2
10
235.737
20
-285.775
11
235.864
21
-285.826
0
LINE
8
Red 2
10
235.864
20
-285.826
11
235.915
21
-285.902
0
LINE
8
Red 2
10
235.915
20
-285.902
11
235.991
21
-286.029
0
LINE
8
Red 2
10
235.991
20
-286.029
11
235.991
21
-286.334
0
LINE
8
Red 2
10
235.991
20
-286.334
11
235.915
21
-286.461
0
LINE
8
Red 2
10
235.915
20
-286.461
11
235.864
21
-286.512
0
LINE
8
Red 2
10
235.864
20
-286.512
11
235.737
21
-286.588
0
LINE
8
Red 2
10
235.737
20
-286.588
11
235.433
21
-286.588
0
LINE
8
Red 2
10
235.433
20
-286.588
11
235.306
21
-286.512
0
LINE
8
Red 2
10
235.306
20
-286.512
11
235.255
21
-286.461
0
LINE
8
Red 2
10
285.852
20
-285.293
11
285.598
21
-285.293
0
LINE
8
Red 2
10
285.598
20
-285.293
11
285.471
21
-285.344
0
LINE
8
Red 2
10
285.471
20
-285.344
11
285.42
21
-285.394
0
LINE
8
Red 2
10
285.42
20
-285.394
11
285.293
21
-285.598
0
LINE
8
Red 2
10
285.293
20
-285.598
11
285.242
21
-285.826
0
LINE
8
Red 2
10
285.242
20
-285.826
11
285.242
21
-286.334
0
LINE
8
Red 2
10
285.242
20
-286.334
11
285.293
21
-286.461
0
LINE
8
Red 2
10
285.293
20
-286.461
11
285.369
21
-286.512
0
LINE
8
Red 2
10
285.369
20
-286.512
11
285.471
21
-286.588
0
LINE
8
Red 2
10
285.471
20
-286.588
11
285.725
21
-286.588
0
LINE
8
Red 2
10
285.725
20
-286.588
11
285.852
21
-286.512
0
LINE
8
Red 2
10
285.852
20
-286.512
11
285.902
21
-286.461
0
LINE
8
Red 2
10
285.902
20
-286.461
11
285.979
21
-286.334
0
LINE
8
Red 2
10
285.979
20
-286.334
11
285.979
21
-286.029
0
LINE
8
Red 2
10
285.979
20
-286.029
11
285.902
21
-285.902
0
LINE
8
Red 2
10
285.902
20
-285.902
11
285.852
21
-285.826
0
LINE
8
Red 2
10
285.852
20
-285.826
11
285.725
21
-285.775
0
LINE
8
Red 2
10
285.725
20
-285.775
11
285.471
21
-285.775
0
LINE
8
Red 2
10
285.471
20
-285.775
11
285.369
21
-285.826
0
LINE
8
Red 2
10
285.369
20
-285.826
11
285.293
21
-285.902
0
LINE
8
Red 2
10
285.293
20
-285.902
11
285.242
21
-286.029
0
LINE
8
Red 2
10
335.178
20
-285.293
11
336.042
21
-285.293
0
LINE
8
Red 2
10
336.042
20
-285.293
11
335.483
21
-286.588
0
LINE
8
Red 2
10
385.47
20
-285.826
11
385.369
21
-285.775
0
LINE
8
Red 2
10
385.369
20
-285.775
11
385.293
21
-285.725
0
LINE
8
Red 2
10
385.293
20
-285.725
11
385.242
21
-285.598
0
LINE
8
Red 2
10
385.242
20
-285.598
11
385.242
21
-285.521
0
LINE
8
Red 2
10
385.242
20
-285.521
11
385.293
21
-285.394
0
LINE
8
Red 2
10
385.293
20
-285.394
11
385.369
21
-285.344
0
LINE
8
Red 2
10
385.369
20
-285.344
11
385.47
21
-285.293
0
LINE
8
Red 2
10
385.47
20
-285.293
11
385.724
21
-285.293
0
LINE
8
Red 2
10
385.724
20
-285.293
11
385.851
21
-285.344
0
LINE
8
Red 2
10
385.851
20
-285.344
11
385.902
21
-285.394
0
LINE
8
Red 2
10
385.902
20
-285.394
11
385.978
21
-285.521
0
LINE
8
Red 2
10
385.978
20
-285.521
11
385.978
21
-285.598
0
LINE
8
Red 2
10
385.978
20
-285.598
11
385.902
21
-285.725
0
LINE
8
Red 2
10
385.902
20
-285.725
11
385.851
21
-285.775
0
LINE
8
Red 2
10
385.851
20
-285.775
11
385.724
21
-285.826
0
LINE
8
Red 2
10
385.724
20
-285.826
11
385.47
21
-285.826
0
LINE
8
Red 2
10
385.47
20
-285.826
11
385.369
21
-285.902
0
LINE
8
Red 2
10
385.369
20
-285.902
11
385.293
21
-285.953
0
LINE
8
Red 2
10
385.293
20
-285.953
11
385.242
21
-286.08
0
LINE
8
Red 2
10
385.242
20
-286.08
11
385.242
21
-286.334
0
LINE
8
Red 2
10
385.242
20
-286.334
11
385.293
21
-286.461
0
LINE
8
Red 2
10
385.293
20
-286.461
11
385.369
21
-286.512
0
LINE
8
Red 2
10
385.369
20
-286.512
11
385.47
21
-286.588
0
LINE
8
Red 2
10
385.47
20
-286.588
11
385.724
21
-286.588
0
LINE
8
Red 2
10
385.724
20
-286.588
11
385.851
21
-286.512
0
LINE
8
Red 2
10
385.851
20
-286.512
11
385.902
21
-286.461
0
LINE
8
Red 2
10
385.902
20
-286.461
11
385.978
21
-286.334
0
LINE
8
Red 2
10
385.978
20
-286.334
11
385.978
21
-286.08
0
LINE
8
Red 2
10
385.978
20
-286.08
11
385.902
21
-285.953
0
LINE
8
Red 2
10
385.902
20
-285.953
11
385.851
21
-285.902
0
LINE
8
Red 2
10
385.851
20
-285.902
11
385.724
21
-285.826
0
LINE
8
Red 2
10
10.0076
20
-59.9948
11
11.9888
21
-59.9948
0
LINE
8
Red 2
10
10.0076
20
-110.007
11
11.9888
21
-110.007
0
LINE
8
Red 2
10
10.0076
20
-159.995
11
11.9888
21
-159.995
0
LINE
8
Red 2
10
10.0076
20
-210.007
11
11.9888
21
-210.007
0
LINE
8
Red 2
10
10.0076
20
-259.994
11
11.9888
21
-259.994
0
LINE
8
Red 2
10
10.6934
20
-35.2044
11
11.303
21
-35.2044
0
LINE
8
Red 2
10
10.5664
20
-35.5854
11
10.9982
21
-34.29
0
LINE
8
Red 2
10
10.9982
20
-34.29
11
11.43
21
-35.5854
0
LINE
8
Red 2
10
11.0998
20
-84.8868
11
11.2776
21
-84.9376
0
LINE
8
Red 2
10
11.2776
20
-84.9376
11
11.3538
21
-85.0138
0
LINE
8
Red 2
10
11.3538
20
-85.0138
11
11.4046
21
-85.1408
0
LINE
8
Red 2
10
11.4046
20
-85.1408
11
11.4046
21
-85.3186
0
LINE
8
Red 2
10
11.4046
20
-85.3186
11
11.3538
21
-85.4456
0
LINE
8
Red 2
10
11.3538
20
-85.4456
11
11.2776
21
-85.4964
0
LINE
8
Red 2
10
11.2776
20
-85.4964
11
11.176
21
-85.5726
0
LINE
8
Red 2
10
11.176
20
-85.5726
11
10.668
21
-85.5726
0
LINE
8
Red 2
10
10.668
20
-85.5726
11
10.668
21
-84.2772
0
LINE
8
Red 2
10
10.668
20
-84.2772
11
11.0998
21
-84.2772
0
LINE
8
Red 2
10
11.0998
20
-84.2772
11
11.2268
21
-84.328
0
LINE
8
Red 2
10
11.2268
20
-84.328
11
11.2776
21
-84.3788
0
LINE
8
Red 2
10
11.2776
20
-84.3788
11
11.3538
21
-84.5058
0
LINE
8
Red 2
10
11.3538
20
-84.5058
11
11.3538
21
-84.6328
0
LINE
8
Red 2
10
11.3538
20
-84.6328
11
11.2776
21
-84.7598
0
LINE
8
Red 2
10
11.2776
20
-84.7598
11
11.2268
21
-84.8106
0
LINE
8
Red 2
10
11.2268
20
-84.8106
11
11.0998
21
-84.8868
0
LINE
8
Red 2
10
11.0998
20
-84.8868
11
10.668
21
-84.8868
0
LINE
8
Red 2
10
11.4046
20
-135.458
11
11.3538
21
-135.509
0
LINE
8
Red 2
10
11.3538
20
-135.509
11
11.176
21
-135.585
0
LINE
8
Red 2
10
11.176
20
-135.585
11
11.049
21
-135.585
0
LINE
8
Red 2
10
11.049
20
-135.585
11
10.8458
21
-135.509
0
LINE
8
Red 2
10
10.8458
20
-135.509
11
10.7442
21
-135.382
0
LINE
8
Red 2
10
10.7442
20
-135.382
11
10.668
21
-135.255
0
LINE
8
Red 2
10
10.668
20
-135.255
11
10.6172
21
-135.026
0
LINE
8
Red 2
10
10.6172
20
-135.026
11
10.6172
21
-134.823
0
LINE
8
Red 2
10
10.6172
20
-134.823
11
10.668
21
-134.595
0
LINE
8
Red 2
10
10.668
20
-134.595
11
10.7442
21
-134.468
0
LINE
8
Red 2
10
10.7442
20
-134.468
11
10.8458
21
-134.341
0
LINE
8
Red 2
10
10.8458
20
-134.341
11
11.049
21
-134.29
0
LINE
8
Red 2
10
11.049
20
-134.29
11
11.176
21
-134.29
0
LINE
8
Red 2
10
11.176
20
-134.29
11
11.3538
21
-134.341
0
LINE
8
Red 2
10
11.3538
20
-134.341
11
11.4046
21
-134.391
0
LINE
8
Red 2
10
10.668
20
-185.572
11
10.668
21
-184.277
0
LINE
8
Red 2
10
10.668
20
-184.277
11
10.9728
21
-184.277
0
LINE
8
Red 2
10
10.9728
20
-184.277
11
11.176
21
-184.328
0
LINE
8
Red 2
10
11.176
20
-184.328
11
11.2776
21
-184.455
0
LINE
8
Red 2
10
11.2776
20
-184.455
11
11.3538
21
-184.582
0
LINE
8
Red 2
10
11.3538
20
-184.582
11
11.4046
21
-184.81
0
LINE
8
Red 2
10
11.4046
20
-184.81
11
11.4046
21
-185.014
0
LINE
8
Red 2
10
11.4046
20
-185.014
11
11.3538
21
-185.242
0
LINE
8
Red 2
10
11.3538
20
-185.242
11
11.2776
21
-185.369
0
LINE
8
Red 2
10
11.2776
20
-185.369
11
11.176
21
-185.496
0
LINE
8
Red 2
10
11.176
20
-185.496
11
10.9728
21
-185.572
0
LINE
8
Red 2
10
10.9728
20
-185.572
11
10.668
21
-185.572
0
LINE
8
Red 2
10
10.7188
20
-234.899
11
11.1506
21
-234.899
0
LINE
8
Red 2
10
11.3284
20
-235.585
11
10.7188
21
-235.585
0
LINE
8
Red 2
10
10.7188
20
-235.585
11
10.7188
21
-234.29
0
LINE
8
Red 2
10
10.7188
20
-234.29
11
11.3284
21
-234.29
0
LINE
8
Red 2
10
11.176
20
-284.886
11
10.7442
21
-284.886
0
LINE
8
Red 2
10
10.7442
20
-285.572
11
10.7442
21
-284.277
0
LINE
8
Red 2
10
10.7442
20
-284.277
11
11.3538
21
-284.277
0
LINE
8
Red 2
10
409.981
20
-59.9948
11
408
21
-59.9948
0
LINE
8
Red 2
10
409.981
20
-110.007
11
408
21
-110.007
0
LINE
8
Red 2
10
409.981
20
-159.995
11
408
21
-159.995
0
LINE
8
Red 2
10
409.981
20
-210.007
11
408
21
-210.007
0
LINE
8
Red 2
10
409.981
20
-259.994
11
408
21
-259.994
0
LINE
8
Red 2
10
408.686
20
-35.2044
11
409.296
21
-35.2044
0
LINE
8
Red 2
10
408.559
20
-35.5854
11
408.991
21
-34.29
0
LINE
8
Red 2
10
408.991
20
-34.29
11
409.423
21
-35.5854
0
LINE
8
Red 2
10
409.092
20
-84.8868
11
409.27
21
-84.9376
0
LINE
8
Red 2
10
409.27
20
-84.9376
11
409.346
21
-85.0138
0
LINE
8
Red 2
10
409.346
20
-85.0138
11
409.397
21
-85.1408
0
LINE
8
Red 2
10
409.397
20
-85.1408
11
409.397
21
-85.3186
0
LINE
8
Red 2
10
409.397
20
-85.3186
11
409.346
21
-85.4456
0
LINE
8
Red 2
10
409.346
20
-85.4456
11
409.27
21
-85.4964
0
LINE
8
Red 2
10
409.27
20
-85.4964
11
409.169
21
-85.5726
0
LINE
8
Red 2
10
409.169
20
-85.5726
11
408.661
21
-85.5726
0
LINE
8
Red 2
10
408.661
20
-85.5726
11
408.661
21
-84.2772
0
LINE
8
Red 2
10
408.661
20
-84.2772
11
409.092
21
-84.2772
0
LINE
8
Red 2
10
409.092
20
-84.2772
11
409.219
21
-84.328
0
LINE
8
Red 2
10
409.219
20
-84.328
11
409.27
21
-84.3788
0
LINE
8
Red 2
10
409.27
20
-84.3788
11
409.346
21
-84.5058
0
LINE
8
Red 2
10
409.346
20
-84.5058
11
409.346
21
-84.6328
0
LINE
8
Red 2
10
409.346
20
-84.6328
11
409.27
21
-84.7598
0
LINE
8
Red 2
10
409.27
20
-84.7598
11
409.219
21
-84.8106
0
LINE
8
Red 2
10
409.219
20
-84.8106
11
409.092
21
-84.8868
0
LINE
8
Red 2
10
409.092
20
-84.8868
11
408.661
21
-84.8868
0
LINE
8
Red 2
10
409.397
20
-135.458
11
409.346
21
-135.509
0
LINE
8
Red 2
10
409.346
20
-135.509
11
409.169
21
-135.585
0
LINE
8
Red 2
10
409.169
20
-135.585
11
409.042
21
-135.585
0
LINE
8
Red 2
10
409.042
20
-135.585
11
408.838
21
-135.509
0
LINE
8
Red 2
10
408.838
20
-135.509
11
408.737
21
-135.382
0
LINE
8
Red 2
10
408.737
20
-135.382
11
408.661
21
-135.255
0
LINE
8
Red 2
10
408.661
20
-135.255
11
408.61
21
-135.026
0
LINE
8
Red 2
10
408.61
20
-135.026
11
408.61
21
-134.823
0
LINE
8
Red 2
10
408.61
20
-134.823
11
408.661
21
-134.595
0
LINE
8
Red 2
10
408.661
20
-134.595
11
408.737
21
-134.468
0
LINE
8
Red 2
10
408.737
20
-134.468
11
408.838
21
-134.341
0
LINE
8
Red 2
10
408.838
20
-134.341
11
409.042
21
-134.29
0
LINE
8
Red 2
10
409.042
20
-134.29
11
409.169
21
-134.29
0
LINE
8
Red 2
10
409.169
20
-134.29
11
409.346
21
-134.341
0
LINE
8
Red 2
10
409.346
20
-134.341
11
409.397
21
-134.391
0
LINE
8
Red 2
10
408.661
20
-185.572
11
408.661
21
-184.277
0
LINE
8
Red 2
10
408.661
20
-184.277
11
408.965
21
-184.277
0
LINE
8
Red 2
10
408.965
20
-184.277
11
409.169
21
-184.328
0
LINE
8
Red 2
10
409.169
20
-184.328
11
409.27
21
-184.455
0
LINE
8
Red 2
10
409.27
20
-184.455
11
409.346
21
-184.582
0
LINE
8
Red 2
10
409.346
20
-184.582
11
409.397
21
-184.81
0
LINE
8
Red 2
10
409.397
20
-184.81
11
409.397
21
-185.014
0
LINE
8
Red 2
10
409.397
20
-185.014
11
409.346
21
-185.242
0
LINE
8
Red 2
10
409.346
20
-185.242
11
409.27
21
-185.369
0
LINE
8
Red 2
10
409.27
20
-185.369
11
409.169
21
-185.496
0
LINE
8
Red 2
10
409.169
20
-185.496
11
408.965
21
-185.572
0
LINE
8
Red 2
10
408.965
20
-185.572
11
408.661
21
-185.572
0
LINE
8
Red 2
10
408.711
20
-234.899
11
409.143
21
-234.899
0
LINE
8
Red 2
10
409.321
20
-235.585
11
408.711
21
-235.585
0
LINE
8
Red 2
10
408.711
20
-235.585
11
408.711
21
-234.29
0
LINE
8
Red 2
10
408.711
20
-234.29
11
409.321
21
-234.29
0
LINE
8
Red 2
10
409.169
20
-284.886
11
408.737
21
-284.886
0
LINE
8
Red 2
10
408.737
20
-285.572
11
408.737
21
-284.277
0
LINE
8
Red 2
10
408.737
20
-284.277
11
409.346
21
-284.277
0
LINE
8
Red 2
10
323.342
20
-280.772
11
323.342
21
-279.273
0
LINE
8
Red 2
10
323.342
20
-279.273
11
323.698
21
-279.273
0
LINE
8
Red 2
10
323.698
20
-279.273
11
323.926
21
-279.349
0
LINE
8
Red 2
10
323.926
20
-279.349
11
324.053
21
-279.502
0
LINE
8
Red 2
10
324.053
20
-279.502
11
324.129
21
-279.629
0
LINE
8
Red 2
10
324.129
20
-279.629
11
324.206
21
-279.908
0
LINE
8
Red 2
10
324.206
20
-279.908
11
324.206
21
-280.137
0
LINE
8
Red 2
10
324.206
20
-280.137
11
324.129
21
-280.416
0
LINE
8
Red 2
10
324.129
20
-280.416
11
324.053
21
-280.568
0
LINE
8
Red 2
10
324.053
20
-280.568
11
323.926
21
-280.695
0
LINE
8
Red 2
10
323.926
20
-280.695
11
323.698
21
-280.772
0
LINE
8
Red 2
10
323.698
20
-280.772
11
323.342
21
-280.772
0
LINE
8
Red 2
10
325.476
20
-280.772
11
325.476
21
-279.984
0
LINE
8
Red 2
10
325.476
20
-279.984
11
325.425
21
-279.857
0
LINE
8
Red 2
10
325.425
20
-279.857
11
325.272
21
-279.781
0
LINE
8
Red 2
10
325.272
20
-279.781
11
324.993
21
-279.781
0
LINE
8
Red 2
10
324.993
20
-279.781
11
324.841
21
-279.857
0
LINE
8
Red 2
10
325.476
20
-280.695
11
325.349
21
-280.772
0
LINE
8
Red 2
10
325.349
20
-280.772
11
324.993
21
-280.772
0
LINE
8
Red 2
10
324.993
20
-280.772
11
324.841
21
-280.695
0
LINE
8
Red 2
10
324.841
20
-280.695
11
324.764
21
-280.568
0
LINE
8
Red 2
10
324.764
20
-280.568
11
324.764
21
-280.416
0
LINE
8
Red 2
10
324.764
20
-280.416
11
324.841
21
-280.289
0
LINE
8
Red 2
10
324.841
20
-280.289
11
324.993
21
-280.213
0
LINE
8
Red 2
10
324.993
20
-280.213
11
325.349
21
-280.213
0
LINE
8
Red 2
10
325.349
20
-280.213
11
325.476
21
-280.137
0
LINE
8
Red 2
10
325.984
20
-279.781
11
326.542
21
-279.781
0
LINE
8
Red 2
10
326.187
20
-279.273
11
326.187
21
-280.568
0
LINE
8
Red 2
10
326.187
20
-280.568
11
326.263
21
-280.695
0
LINE
8
Red 2
10
326.263
20
-280.695
11
326.39
21
-280.772
0
LINE
8
Red 2
10
326.39
20
-280.772
11
326.542
21
-280.772
0
LINE
8
Red 2
10
327.635
20
-280.695
11
327.482
21
-280.772
0
LINE
8
Red 2
10
327.482
20
-280.772
11
327.203
21
-280.772
0
LINE
8
Red 2
10
327.203
20
-280.772
11
327.05
21
-280.695
0
LINE
8
Red 2
10
327.05
20
-280.695
11
326.974
21
-280.568
0
LINE
8
Red 2
10
326.974
20
-280.568
11
326.974
21
-279.984
0
LINE
8
Red 2
10
326.974
20
-279.984
11
327.05
21
-279.857
0
LINE
8
Red 2
10
327.05
20
-279.857
11
327.203
21
-279.781
0
LINE
8
Red 2
10
327.203
20
-279.781
11
327.482
21
-279.781
0
LINE
8
Red 2
10
327.482
20
-279.781
11
327.635
21
-279.857
0
LINE
8
Red 2
10
327.635
20
-279.857
11
327.685
21
-279.984
0
LINE
8
Red 2
10
327.685
20
-279.984
11
327.685
21
-280.137
0
LINE
8
Red 2
10
327.685
20
-280.137
11
326.974
21
-280.289
0
LINE
8
Red 2
10
328.346
20
-280.645
11
328.422
21
-280.695
0
LINE
8
Red 2
10
328.422
20
-280.695
11
328.346
21
-280.772
0
LINE
8
Red 2
10
328.346
20
-280.772
11
328.27
21
-280.695
0
LINE
8
Red 2
10
328.27
20
-280.695
11
328.346
21
-280.645
0
LINE
8
Red 2
10
328.346
20
-280.645
11
328.346
21
-280.772
0
LINE
8
Red 2
10
328.346
20
-279.857
11
328.422
21
-279.908
0
LINE
8
Red 2
10
328.422
20
-279.908
11
328.346
21
-279.984
0
LINE
8
Red 2
10
328.346
20
-279.984
11
328.27
21
-279.908
0
LINE
8
Red 2
10
328.27
20
-279.908
11
328.346
21
-279.857
0
LINE
8
Red 2
10
328.346
20
-279.857
11
328.346
21
-279.984
0
LINE
8
Red 2
10
299.999
20
-281.508
11
408
21
-281.508
0
LINE
8
Red 2
10
301.346
20
-283.566
11
301.346
21
-282.067
0
LINE
8
Red 2
10
302.209
20
-283.566
11
301.549
21
-282.702
0
LINE
8
Red 2
10
302.209
20
-282.067
11
301.346
21
-282.931
0
LINE
8
Red 2
10
302.844
20
-283.566
11
302.844
21
-282.575
0
LINE
8
Red 2
10
302.844
20
-282.067
11
302.768
21
-282.143
0
LINE
8
Red 2
10
302.768
20
-282.143
11
302.844
21
-282.219
0
LINE
8
Red 2
10
302.844
20
-282.219
11
302.92
21
-282.143
0
LINE
8
Red 2
10
302.92
20
-282.143
11
302.844
21
-282.067
0
LINE
8
Red 2
10
302.844
20
-282.067
11
302.844
21
-282.219
0
LINE
8
Red 2
10
304.419
20
-283.439
11
304.343
21
-283.489
0
LINE
8
Red 2
10
304.343
20
-283.489
11
304.14
21
-283.566
0
LINE
8
Red 2
10
304.14
20
-283.566
11
303.987
21
-283.566
0
LINE
8
Red 2
10
303.987
20
-283.566
11
303.759
21
-283.489
0
LINE
8
Red 2
10
303.759
20
-283.489
11
303.632
21
-283.362
0
LINE
8
Red 2
10
303.632
20
-283.362
11
303.555
21
-283.21
0
LINE
8
Red 2
10
303.555
20
-283.21
11
303.479
21
-282.931
0
LINE
8
Red 2
10
303.479
20
-282.931
11
303.479
21
-282.702
0
LINE
8
Red 2
10
303.479
20
-282.702
11
303.555
21
-282.423
0
LINE
8
Red 2
10
303.555
20
-282.423
11
303.632
21
-282.296
0
LINE
8
Red 2
10
303.632
20
-282.296
11
303.759
21
-282.143
0
LINE
8
Red 2
10
303.759
20
-282.143
11
303.987
21
-282.067
0
LINE
8
Red 2
10
303.987
20
-282.067
11
304.14
21
-282.067
0
LINE
8
Red 2
10
304.14
20
-282.067
11
304.343
21
-282.143
0
LINE
8
Red 2
10
304.343
20
-282.143
11
304.419
21
-282.219
0
LINE
8
Red 2
10
305.689
20
-283.566
11
305.689
21
-282.778
0
LINE
8
Red 2
10
305.689
20
-282.778
11
305.638
21
-282.651
0
LINE
8
Red 2
10
305.638
20
-282.651
11
305.486
21
-282.575
0
LINE
8
Red 2
10
305.486
20
-282.575
11
305.206
21
-282.575
0
LINE
8
Red 2
10
305.206
20
-282.575
11
305.054
21
-282.651
0
LINE
8
Red 2
10
305.689
20
-283.489
11
305.562
21
-283.566
0
LINE
8
Red 2
10
305.562
20
-283.566
11
305.206
21
-283.566
0
LINE
8
Red 2
10
305.206
20
-283.566
11
305.054
21
-283.489
0
LINE
8
Red 2
10
305.054
20
-283.489
11
304.978
21
-283.362
0
LINE
8
Red 2
10
304.978
20
-283.362
11
304.978
21
-283.21
0
LINE
8
Red 2
10
304.978
20
-283.21
11
305.054
21
-283.083
0
LINE
8
Red 2
10
305.054
20
-283.083
11
305.206
21
-283.007
0
LINE
8
Red 2
10
305.206
20
-283.007
11
305.562
21
-283.007
0
LINE
8
Red 2
10
305.562
20
-283.007
11
305.689
21
-282.931
0
LINE
8
Red 2
10
307.035
20
-283.566
11
307.035
21
-282.067
0
LINE
8
Red 2
10
307.035
20
-283.489
11
306.908
21
-283.566
0
LINE
8
Red 2
10
306.908
20
-283.566
11
306.603
21
-283.566
0
LINE
8
Red 2
10
306.603
20
-283.566
11
306.476
21
-283.489
0
LINE
8
Red 2
10
306.476
20
-283.489
11
306.4
21
-283.439
0
LINE
8
Red 2
10
306.4
20
-283.439
11
306.324
21
-283.286
0
LINE
8
Red 2
10
306.324
20
-283.286
11
306.324
21
-282.854
0
LINE
8
Red 2
10
306.324
20
-282.854
11
306.4
21
-282.702
0
LINE
8
Red 2
10
306.4
20
-282.702
11
306.476
21
-282.651
0
LINE
8
Red 2
10
306.476
20
-282.651
11
306.603
21
-282.575
0
LINE
8
Red 2
10
306.603
20
-282.575
11
306.908
21
-282.575
0
LINE
8
Red 2
10
306.908
20
-282.575
11
307.035
21
-282.651
0
LINE
8
Red 2
10
308.889
20
-282.778
11
309.397
21
-282.778
0
LINE
8
Red 2
10
309.601
20
-283.566
11
308.889
21
-283.566
0
LINE
8
Red 2
10
308.889
20
-283.566
11
308.889
21
-282.067
0
LINE
8
Red 2
10
308.889
20
-282.067
11
309.601
21
-282.067
0
LINE
8
Red 2
10
310.236
20
-283.439
11
310.312
21
-283.489
0
LINE
8
Red 2
10
310.312
20
-283.489
11
310.236
21
-283.566
0
LINE
8
Red 2
10
310.236
20
-283.566
11
310.159
21
-283.489
0
LINE
8
Red 2
10
310.159
20
-283.489
11
310.236
21
-283.439
0
LINE
8
Red 2
10
310.236
20
-283.439
11
310.236
21
-283.566
0
LINE
8
Red 2
10
310.947
20
-283.566
11
310.947
21
-282.067
0
LINE
8
Red 2
10
310.947
20
-282.067
11
311.302
21
-282.067
0
LINE
8
Red 2
10
311.302
20
-282.067
11
311.531
21
-282.143
0
LINE
8
Red 2
10
311.531
20
-282.143
11
311.658
21
-282.296
0
LINE
8
Red 2
10
311.658
20
-282.296
11
311.734
21
-282.423
0
LINE
8
Red 2
10
311.734
20
-282.423
11
311.81
21
-282.702
0
LINE
8
Red 2
10
311.81
20
-282.702
11
311.81
21
-282.931
0
LINE
8
Red 2
10
311.81
20
-282.931
11
311.734
21
-283.21
0
LINE
8
Red 2
10
311.734
20
-283.21
11
311.658
21
-283.362
0
LINE
8
Red 2
10
311.658
20
-283.362
11
311.531
21
-283.489
0
LINE
8
Red 2
10
311.531
20
-283.489
11
311.302
21
-283.566
0
LINE
8
Red 2
10
311.302
20
-283.566
11
310.947
21
-283.566
0
LINE
8
Red 2
10
312.445
20
-283.439
11
312.522
21
-283.489
0
LINE
8
Red 2
10
312.522
20
-283.489
11
312.445
21
-283.566
0
LINE
8
Red 2
10
312.445
20
-283.566
11
312.369
21
-283.489
0
LINE
8
Red 2
10
312.369
20
-283.489
11
312.445
21
-283.439
0
LINE
8
Red 2
10
312.445
20
-283.439
11
312.445
21
-283.566
0
LINE
8
Red 2
10
313.08
20
-283.134
11
313.792
21
-283.134
0
LINE
8
Red 2
10
312.953
20
-283.566
11
313.436
21
-282.067
0
LINE
8
Red 2
10
313.436
20
-282.067
11
313.944
21
-283.566
0
LINE
8
Red 2
10
314.452
20
-283.439
11
314.528
21
-283.489
0
LINE
8
Red 2
10
314.528
20
-283.489
11
314.452
21
-283.566
0
LINE
8
Red 2
10
314.452
20
-283.566
11
314.376
21
-283.489
0
LINE
8
Red 2
10
314.376
20
-283.489
11
314.452
21
-283.439
0
LINE
8
Red 2
10
314.452
20
-283.439
11
314.452
21
-283.566
0
LINE
8
Red 2
10
317.449
20
-283.566
11
317.449
21
-282.067
0
LINE
8
Red 2
10
317.602
20
-283.007
11
318.033
21
-283.566
0
LINE
8
Red 2
10
318.033
20
-282.575
11
317.449
21
-283.134
0
LINE
8
Red 2
10
318.668
20
-283.566
11
318.668
21
-282.575
0
LINE
8
Red 2
10
318.668
20
-282.067
11
318.592
21
-282.143
0
LINE
8
Red 2
10
318.592
20
-282.143
11
318.668
21
-282.219
0
LINE
8
Red 2
10
318.668
20
-282.219
11
318.745
21
-282.143
0
LINE
8
Red 2
10
318.745
20
-282.143
11
318.668
21
-282.067
0
LINE
8
Red 2
10
318.668
20
-282.067
11
318.668
21
-282.219
0
LINE
8
Red 2
10
320.015
20
-283.489
11
319.888
21
-283.566
0
LINE
8
Red 2
10
319.888
20
-283.566
11
319.583
21
-283.566
0
LINE
8
Red 2
10
319.583
20
-283.566
11
319.456
21
-283.489
0
LINE
8
Red 2
10
319.456
20
-283.489
11
319.38
21
-283.439
0
LINE
8
Red 2
10
319.38
20
-283.439
11
319.303
21
-283.286
0
LINE
8
Red 2
10
319.303
20
-283.286
11
319.303
21
-282.854
0
LINE
8
Red 2
10
319.303
20
-282.854
11
319.38
21
-282.702
0
LINE
8
Red 2
10
319.38
20
-282.702
11
319.456
21
-282.651
0
LINE
8
Red 2
10
319.456
20
-282.651
11
319.583
21
-282.575
0
LINE
8
Red 2
10
319.583
20
-282.575
11
319.888
21
-282.575
0
LINE
8
Red 2
10
319.888
20
-282.575
11
320.015
21
-282.651
0
LINE
8
Red 2
10
321.31
20
-283.566
11
321.31
21
-282.778
0
LINE
8
Red 2
10
321.31
20
-282.778
11
321.259
21
-282.651
0
LINE
8
Red 2
10
321.259
20
-282.651
11
321.107
21
-282.575
0
LINE
8
Red 2
10
321.107
20
-282.575
11
320.827
21
-282.575
0
LINE
8
Red 2
10
320.827
20
-282.575
11
320.675
21
-282.651
0
LINE
8
Red 2
10
321.31
20
-283.489
11
321.183
21
-283.566
0
LINE
8
Red 2
10
321.183
20
-283.566
11
320.827
21
-283.566
0
LINE
8
Red 2
10
320.827
20
-283.566
11
320.675
21
-283.489
0
LINE
8
Red 2
10
320.675
20
-283.489
11
320.599
21
-283.362
0
LINE
8
Red 2
10
320.599
20
-283.362
11
320.599
21
-283.21
0
LINE
8
Red 2
10
320.599
20
-283.21
11
320.675
21
-283.083
0
LINE
8
Red 2
10
320.675
20
-283.083
11
320.827
21
-283.007
0
LINE
8
Red 2
10
320.827
20
-283.007
11
321.183
21
-283.007
0
LINE
8
Red 2
10
321.183
20
-283.007
11
321.31
21
-282.931
0
LINE
8
Red 2
10
322.656
20
-283.566
11
322.656
21
-282.067
0
LINE
8
Red 2
10
322.656
20
-283.489
11
322.529
21
-283.566
0
LINE
8
Red 2
10
322.529
20
-283.566
11
322.224
21
-283.566
0
LINE
8
Red 2
10
322.224
20
-283.566
11
322.097
21
-283.489
0
LINE
8
Red 2
10
322.097
20
-283.489
11
322.021
21
-283.439
0
LINE
8
Red 2
10
322.021
20
-283.439
11
321.945
21
-283.286
0
LINE
8
Red 2
10
321.945
20
-283.286
11
321.945
21
-282.854
0
LINE
8
Red 2
10
321.945
20
-282.854
11
322.021
21
-282.702
0
LINE
8
Red 2
10
322.021
20
-282.702
11
322.097
21
-282.651
0
LINE
8
Red 2
10
322.097
20
-282.651
11
322.224
21
-282.575
0
LINE
8
Red 2
10
322.224
20
-282.575
11
322.529
21
-282.575
0
LINE
8
Red 2
10
322.529
20
-282.575
11
322.656
21
-282.651
0
LINE
8
Red 2
10
325.145
20
-282.575
11
325.145
21
-283.566
0
LINE
8
Red 2
10
324.79
20
-281.991
11
324.434
21
-283.083
0
LINE
8
Red 2
10
324.434
20
-283.083
11
325.374
21
-283.083
0
LINE
8
Red 2
10
325.933
20
-283.439
11
326.009
21
-283.489
0
LINE
8
Red 2
10
326.009
20
-283.489
11
325.933
21
-283.566
0
LINE
8
Red 2
10
325.933
20
-283.566
11
325.857
21
-283.489
0
LINE
8
Red 2
10
325.857
20
-283.489
11
325.933
21
-283.439
0
LINE
8
Red 2
10
325.933
20
-283.439
11
325.933
21
-283.566
0
LINE
8
Red 2
10
326.923
20
-282.067
11
327.076
21
-282.067
0
LINE
8
Red 2
10
327.076
20
-282.067
11
327.228
21
-282.143
0
LINE
8
Red 2
10
327.228
20
-282.143
11
327.279
21
-282.219
0
LINE
8
Red 2
10
327.279
20
-282.219
11
327.355
21
-282.346
0
LINE
8
Red 2
10
327.355
20
-282.346
11
327.431
21
-282.651
0
LINE
8
Red 2
10
327.431
20
-282.651
11
327.431
21
-283.007
0
LINE
8
Red 2
10
327.431
20
-283.007
11
327.355
21
-283.286
0
LINE
8
Red 2
10
327.355
20
-283.286
11
327.279
21
-283.439
0
LINE
8
Red 2
10
327.279
20
-283.439
11
327.228
21
-283.489
0
LINE
8
Red 2
10
327.228
20
-283.489
11
327.076
21
-283.566
0
LINE
8
Red 2
10
327.076
20
-283.566
11
326.923
21
-283.566
0
LINE
8
Red 2
10
326.923
20
-283.566
11
326.796
21
-283.489
0
LINE
8
Red 2
10
326.796
20
-283.489
11
326.72
21
-283.439
0
LINE
8
Red 2
10
326.72
20
-283.439
11
326.644
21
-283.286
0
LINE
8
Red 2
10
326.644
20
-283.286
11
326.568
21
-283.007
0
LINE
8
Red 2
10
326.568
20
-283.007
11
326.568
21
-282.651
0
LINE
8
Red 2
10
326.568
20
-282.651
11
326.644
21
-282.346
0
LINE
8
Red 2
10
326.644
20
-282.346
11
326.72
21
-282.219
0
LINE
8
Red 2
10
326.72
20
-282.219
11
326.796
21
-282.143
0
LINE
8
Red 2
10
326.796
20
-282.143
11
326.923
21
-282.067
0
LINE
8
Red 2
10
328.066
20
-283.439
11
328.143
21
-283.489
0
LINE
8
Red 2
10
328.143
20
-283.489
11
328.066
21
-283.566
0
LINE
8
Red 2
10
328.066
20
-283.566
11
327.99
21
-283.489
0
LINE
8
Red 2
10
327.99
20
-283.489
11
328.066
21
-283.439
0
LINE
8
Red 2
10
328.066
20
-283.439
11
328.066
21
-283.566
0
LINE
8
Red 2
10
329.489
20
-282.067
11
328.778
21
-282.067
0
LINE
8
Red 2
10
328.778
20
-282.067
11
328.701
21
-282.778
0
LINE
8
Red 2
10
328.701
20
-282.778
11
328.778
21
-282.702
0
LINE
8
Red 2
10
328.778
20
-282.702
11
328.93
21
-282.651
0
LINE
8
Red 2
10
328.93
20
-282.651
11
329.286
21
-282.651
0
LINE
8
Red 2
10
329.286
20
-282.651
11
329.413
21
-282.702
0
LINE
8
Red 2
10
329.413
20
-282.702
11
329.489
21
-282.778
0
LINE
8
Red 2
10
329.489
20
-282.778
11
329.565
21
-282.931
0
LINE
8
Red 2
10
329.565
20
-282.931
11
329.565
21
-283.286
0
LINE
8
Red 2
10
329.565
20
-283.286
11
329.489
21
-283.439
0
LINE
8
Red 2
10
329.489
20
-283.439
11
329.413
21
-283.489
0
LINE
8
Red 2
10
329.413
20
-283.489
11
329.286
21
-283.566
0
LINE
8
Red 2
10
329.286
20
-283.566
11
328.93
21
-283.566
0
LINE
8
Red 2
10
328.93
20
-283.566
11
328.778
21
-283.489
0
LINE
8
Red 2
10
328.778
20
-283.489
11
328.701
21
-283.439
0
LINE
8
Red 2
10
330.2
20
-283.007
11
331.343
21
-283.007
0
LINE
8
Red 2
10
330.784
20
-283.566
11
330.784
21
-282.423
0
LINE
8
Red 2
10
332.689
20
-283.566
11
332.689
21
-282.067
0
LINE
8
Red 2
10
332.689
20
-283.489
11
332.562
21
-283.566
0
LINE
8
Red 2
10
332.562
20
-283.566
11
332.257
21
-283.566
0
LINE
8
Red 2
10
332.257
20
-283.566
11
332.13
21
-283.489
0
LINE
8
Red 2
10
332.13
20
-283.489
11
332.054
21
-283.439
0
LINE
8
Red 2
10
332.054
20
-283.439
11
331.978
21
-283.286
0
LINE
8
Red 2
10
331.978
20
-283.286
11
331.978
21
-282.854
0
LINE
8
Red 2
10
331.978
20
-282.854
11
332.054
21
-282.702
0
LINE
8
Red 2
10
332.054
20
-282.702
11
332.13
21
-282.651
0
LINE
8
Red 2
10
332.13
20
-282.651
11
332.257
21
-282.575
0
LINE
8
Red 2
10
332.257
20
-282.575
11
332.562
21
-282.575
0
LINE
8
Red 2
10
332.562
20
-282.575
11
332.689
21
-282.651
0
LINE
8
Red 2
10
333.197
20
-282.575
11
333.756
21
-282.575
0
LINE
8
Red 2
10
333.4
20
-283.566
11
333.4
21
-282.296
0
LINE
8
Red 2
10
333.4
20
-282.296
11
333.477
21
-282.143
0
LINE
8
Red 2
10
333.477
20
-282.143
11
333.604
21
-282.067
0
LINE
8
Red 2
10
333.604
20
-282.067
11
333.756
21
-282.067
0
LINE
8
Red 2
10
334.188
20
-283.489
11
334.34
21
-283.566
0
LINE
8
Red 2
10
334.34
20
-283.566
11
334.62
21
-283.566
0
LINE
8
Red 2
10
334.62
20
-283.566
11
334.772
21
-283.489
0
LINE
8
Red 2
10
334.772
20
-283.489
11
334.848
21
-283.362
0
LINE
8
Red 2
10
334.848
20
-283.362
11
334.848
21
-283.286
0
LINE
8
Red 2
10
334.848
20
-283.286
11
334.772
21
-283.134
0
LINE
8
Red 2
10
334.772
20
-283.134
11
334.62
21
-283.083
0
LINE
8
Red 2
10
334.62
20
-283.083
11
334.416
21
-283.083
0
LINE
8
Red 2
10
334.416
20
-283.083
11
334.264
21
-283.007
0
LINE
8
Red 2
10
334.264
20
-283.007
11
334.188
21
-282.854
0
LINE
8
Red 2
10
334.188
20
-282.854
11
334.188
21
-282.778
0
LINE
8
Red 2
10
334.188
20
-282.778
11
334.264
21
-282.651
0
LINE
8
Red 2
10
334.264
20
-282.651
11
334.416
21
-282.575
0
LINE
8
Red 2
10
334.416
20
-282.575
11
334.62
21
-282.575
0
LINE
8
Red 2
10
334.62
20
-282.575
11
334.772
21
-282.651
0
LINE
8
Red 2
10
336.118
20
-282.575
11
336.118
21
-283.794
0
LINE
8
Red 2
10
336.118
20
-283.794
11
336.067
21
-283.921
0
LINE
8
Red 2
10
336.067
20
-283.921
11
335.991
21
-283.997
0
LINE
8
Red 2
10
335.991
20
-283.997
11
335.839
21
-284.074
0
LINE
8
Red 2
10
335.839
20
-284.074
11
335.636
21
-284.074
0
LINE
8
Red 2
10
335.636
20
-284.074
11
335.483
21
-283.997
0
LINE
8
Red 2
10
336.118
20
-283.489
11
335.991
21
-283.566
0
LINE
8
Red 2
10
335.991
20
-283.566
11
335.686
21
-283.566
0
LINE
8
Red 2
10
335.686
20
-283.566
11
335.559
21
-283.489
0
LINE
8
Red 2
10
335.559
20
-283.489
11
335.483
21
-283.439
0
LINE
8
Red 2
10
335.483
20
-283.439
11
335.407
21
-283.286
0
LINE
8
Red 2
10
335.407
20
-283.286
11
335.407
21
-282.854
0
LINE
8
Red 2
10
335.407
20
-282.854
11
335.483
21
-282.702
0
LINE
8
Red 2
10
335.483
20
-282.702
11
335.559
21
-282.651
0
LINE
8
Red 2
10
335.559
20
-282.651
11
335.686
21
-282.575
0
LINE
8
Red 2
10
335.686
20
-282.575
11
335.991
21
-282.575
0
LINE
8
Red 2
10
335.991
20
-282.575
11
336.118
21
-282.651
0
LINE
8
Red 2
10
337.617
20
-283.566
11
336.753
21
-283.566
0
LINE
8
Red 2
10
337.185
20
-283.566
11
337.185
21
-282.067
0
LINE
8
Red 2
10
337.185
20
-282.067
11
337.033
21
-282.296
0
LINE
8
Red 2
10
337.033
20
-282.296
11
336.906
21
-282.423
0
LINE
8
Red 2
10
336.906
20
-282.423
11
336.753
21
-282.499
0
LINE
8
Red 2
10
338.252
20
-283.007
11
339.395
21
-283.007
0
LINE
8
Red 2
10
340.741
20
-282.575
11
340.741
21
-283.566
0
LINE
8
Red 2
10
340.385
20
-281.991
11
340.03
21
-283.083
0
LINE
8
Red 2
10
340.03
20
-283.083
11
340.97
21
-283.083
0
LINE
8
Red 2
10
299.999
20
-278.511
11
408
21
-278.511
0
LINE
8
Red 2
10
387.198
20
-280.772
11
386.69
21
-280.06
0
LINE
8
Red 2
10
386.334
20
-280.772
11
386.334
21
-279.273
0
LINE
8
Red 2
10
386.334
20
-279.273
11
386.918
21
-279.273
0
LINE
8
Red 2
10
386.918
20
-279.273
11
387.045
21
-279.349
0
LINE
8
Red 2
10
387.045
20
-279.349
11
387.121
21
-279.425
0
LINE
8
Red 2
10
387.121
20
-279.425
11
387.198
21
-279.552
0
LINE
8
Red 2
10
387.198
20
-279.552
11
387.198
21
-279.781
0
LINE
8
Red 2
10
387.198
20
-279.781
11
387.121
21
-279.908
0
LINE
8
Red 2
10
387.121
20
-279.908
11
387.045
21
-279.984
0
LINE
8
Red 2
10
387.045
20
-279.984
11
386.918
21
-280.06
0
LINE
8
Red 2
10
386.918
20
-280.06
11
386.334
21
-280.06
0
LINE
8
Red 2
10
388.417
20
-280.695
11
388.264
21
-280.772
0
LINE
8
Red 2
10
388.264
20
-280.772
11
387.985
21
-280.772
0
LINE
8
Red 2
10
387.985
20
-280.772
11
387.833
21
-280.695
0
LINE
8
Red 2
10
387.833
20
-280.695
11
387.756
21
-280.568
0
LINE
8
Red 2
10
387.756
20
-280.568
11
387.756
21
-279.984
0
LINE
8
Red 2
10
387.756
20
-279.984
11
387.833
21
-279.857
0
LINE
8
Red 2
10
387.833
20
-279.857
11
387.985
21
-279.781
0
LINE
8
Red 2
10
387.985
20
-279.781
11
388.264
21
-279.781
0
LINE
8
Red 2
10
388.264
20
-279.781
11
388.417
21
-279.857
0
LINE
8
Red 2
10
388.417
20
-279.857
11
388.468
21
-279.984
0
LINE
8
Red 2
10
388.468
20
-279.984
11
388.468
21
-280.137
0
LINE
8
Red 2
10
388.468
20
-280.137
11
387.756
21
-280.289
0
LINE
8
Red 2
10
388.976
20
-279.781
11
389.331
21
-280.772
0
LINE
8
Red 2
10
389.331
20
-280.772
11
389.712
21
-279.781
0
LINE
8
Red 2
10
390.271
20
-280.645
11
390.347
21
-280.695
0
LINE
8
Red 2
10
390.347
20
-280.695
11
390.271
21
-280.772
0
LINE
8
Red 2
10
390.271
20
-280.772
11
390.195
21
-280.695
0
LINE
8
Red 2
10
390.195
20
-280.695
11
390.271
21
-280.645
0
LINE
8
Red 2
10
390.271
20
-280.645
11
390.271
21
-280.772
0
LINE
8
Red 2
10
390.271
20
-279.857
11
390.347
21
-279.908
0
LINE
8
Red 2
10
390.347
20
-279.908
11
390.271
21
-279.984
0
LINE
8
Red 2
10
390.271
20
-279.984
11
390.195
21
-279.908
0
LINE
8
Red 2
10
390.195
20
-279.908
11
390.271
21
-279.857
0
LINE
8
Red 2
10
390.271
20
-279.857
11
390.271
21
-279.984
0
LINE
8
Red 2
10
301.269
20
-280.695
11
301.498
21
-280.772
0
LINE
8
Red 2
10
301.498
20
-280.772
11
301.854
21
-280.772
0
LINE
8
Red 2
10
301.854
20
-280.772
11
301.981
21
-280.695
0
LINE
8
Red 2
10
301.981
20
-280.695
11
302.057
21
-280.645
0
LINE
8
Red 2
10
302.057
20
-280.645
11
302.133
21
-280.492
0
LINE
8
Red 2
10
302.133
20
-280.492
11
302.133
21
-280.34
0
LINE
8
Red 2
10
302.133
20
-280.34
11
302.057
21
-280.213
0
LINE
8
Red 2
10
302.057
20
-280.213
11
301.981
21
-280.137
0
LINE
8
Red 2
10
301.981
20
-280.137
11
301.854
21
-280.06
0
LINE
8
Red 2
10
301.854
20
-280.06
11
301.549
21
-279.984
0
LINE
8
Red 2
10
301.549
20
-279.984
11
301.422
21
-279.908
0
LINE
8
Red 2
10
301.422
20
-279.908
11
301.346
21
-279.857
0
LINE
8
Red 2
10
301.346
20
-279.857
11
301.269
21
-279.705
0
LINE
8
Red 2
10
301.269
20
-279.705
11
301.269
21
-279.552
0
LINE
8
Red 2
10
301.269
20
-279.552
11
301.346
21
-279.425
0
LINE
8
Red 2
10
301.346
20
-279.425
11
301.422
21
-279.349
0
LINE
8
Red 2
10
301.422
20
-279.349
11
301.549
21
-279.273
0
LINE
8
Red 2
10
301.549
20
-279.273
11
301.93
21
-279.273
0
LINE
8
Red 2
10
301.93
20
-279.273
11
302.133
21
-279.349
0
LINE
8
Red 2
10
302.768
20
-280.772
11
302.768
21
-279.781
0
LINE
8
Red 2
10
302.768
20
-279.273
11
302.692
21
-279.349
0
LINE
8
Red 2
10
302.692
20
-279.349
11
302.768
21
-279.425
0
LINE
8
Red 2
10
302.768
20
-279.425
11
302.844
21
-279.349
0
LINE
8
Red 2
10
302.844
20
-279.349
11
302.768
21
-279.273
0
LINE
8
Red 2
10
302.768
20
-279.273
11
302.768
21
-279.425
0
LINE
8
Red 2
10
303.327
20
-279.781
11
304.114
21
-279.781
0
LINE
8
Red 2
10
304.114
20
-279.781
11
303.327
21
-280.772
0
LINE
8
Red 2
10
303.327
20
-280.772
11
304.114
21
-280.772
0
LINE
8
Red 2
10
305.283
20
-280.695
11
305.13
21
-280.772
0
LINE
8
Red 2
10
305.13
20
-280.772
11
304.851
21
-280.772
0
LINE
8
Red 2
10
304.851
20
-280.772
11
304.698
21
-280.695
0
LINE
8
Red 2
10
304.698
20
-280.695
11
304.622
21
-280.568
0
LINE
8
Red 2
10
304.622
20
-280.568
11
304.622
21
-279.984
0
LINE
8
Red 2
10
304.622
20
-279.984
11
304.698
21
-279.857
0
LINE
8
Red 2
10
304.698
20
-279.857
11
304.851
21
-279.781
0
LINE
8
Red 2
10
304.851
20
-279.781
11
305.13
21
-279.781
0
LINE
8
Red 2
10
305.13
20
-279.781
11
305.283
21
-279.857
0
LINE
8
Red 2
10
305.283
20
-279.857
11
305.333
21
-279.984
0
LINE
8
Red 2
10
305.333
20
-279.984
11
305.333
21
-280.137
0
LINE
8
Red 2
10
305.333
20
-280.137
11
304.622
21
-280.289
0
LINE
8
Red 2
10
305.994
20
-280.645
11
306.07
21
-280.695
0
LINE
8
Red 2
10
306.07
20
-280.695
11
305.994
21
-280.772
0
LINE
8
Red 2
10
305.994
20
-280.772
11
305.918
21
-280.695
0
LINE
8
Red 2
10
305.918
20
-280.695
11
305.994
21
-280.645
0
LINE
8
Red 2
10
305.994
20
-280.645
11
305.994
21
-280.772
0
LINE
8
Red 2
10
305.994
20
-279.857
11
306.07
21
-279.908
0
LINE
8
Red 2
10
306.07
20
-279.908
11
305.994
21
-279.984
0
LINE
8
Red 2
10
305.994
20
-279.984
11
305.918
21
-279.908
0
LINE
8
Red 2
10
305.918
20
-279.908
11
305.994
21
-279.857
0
LINE
8
Red 2
10
305.994
20
-279.857
11
305.994
21
-279.984
0
LINE
8
Red 2
10
307.772
20
-280.34
11
308.483
21
-280.34
0
LINE
8
Red 2
10
307.645
20
-280.772
11
308.127
21
-279.273
0
LINE
8
Red 2
10
308.127
20
-279.273
11
308.635
21
-280.772
0
LINE
8
Red 2
10
308.991
20
-279.273
11
309.931
21
-279.273
0
LINE
8
Red 2
10
309.931
20
-279.273
11
309.423
21
-279.857
0
LINE
8
Red 2
10
309.423
20
-279.857
11
309.651
21
-279.857
0
LINE
8
Red 2
10
309.651
20
-279.857
11
309.778
21
-279.908
0
LINE
8
Red 2
10
309.778
20
-279.908
11
309.855
21
-279.984
0
LINE
8
Red 2
10
309.855
20
-279.984
11
309.931
21
-280.137
0
LINE
8
Red 2
10
309.931
20
-280.137
11
309.931
21
-280.492
0
LINE
8
Red 2
10
309.931
20
-280.492
11
309.855
21
-280.645
0
LINE
8
Red 2
10
309.855
20
-280.645
11
309.778
21
-280.695
0
LINE
8
Red 2
10
309.778
20
-280.695
11
309.651
21
-280.772
0
LINE
8
Red 2
10
309.651
20
-280.772
11
309.22
21
-280.772
0
LINE
8
Red 2
10
309.22
20
-280.772
11
309.067
21
-280.695
0
LINE
8
Red 2
10
309.067
20
-280.695
11
308.991
21
-280.645
0
LINE
8
Red 2
10
386.334
20
-283.566
11
386.334
21
-282.067
0
LINE
8
Red 2
10
387.68
20
-283.566
11
387.68
21
-282.067
0
LINE
8
Red 2
10
387.68
20
-283.489
11
387.553
21
-283.566
0
LINE
8
Red 2
10
387.553
20
-283.566
11
387.248
21
-283.566
0
LINE
8
Red 2
10
387.248
20
-283.566
11
387.121
21
-283.489
0
LINE
8
Red 2
10
387.121
20
-283.489
11
387.045
21
-283.439
0
LINE
8
Red 2
10
387.045
20
-283.439
11
386.969
21
-283.286
0
LINE
8
Red 2
10
386.969
20
-283.286
11
386.969
21
-282.854
0
LINE
8
Red 2
10
386.969
20
-282.854
11
387.045
21
-282.702
0
LINE
8
Red 2
10
387.045
20
-282.702
11
387.121
21
-282.651
0
LINE
8
Red 2
10
387.121
20
-282.651
11
387.248
21
-282.575
0
LINE
8
Red 2
10
387.248
20
-282.575
11
387.553
21
-282.575
0
LINE
8
Red 2
10
387.553
20
-282.575
11
387.68
21
-282.651
0
LINE
8
Red 2
10
388.391
20
-283.439
11
388.468
21
-283.489
0
LINE
8
Red 2
10
388.468
20
-283.489
11
388.391
21
-283.566
0
LINE
8
Red 2
10
388.391
20
-283.566
11
388.315
21
-283.489
0
LINE
8
Red 2
10
388.315
20
-283.489
11
388.391
21
-283.439
0
LINE
8
Red 2
10
388.391
20
-283.439
11
388.391
21
-283.566
0
LINE
8
Red 2
10
388.391
20
-282.651
11
388.468
21
-282.702
0
LINE
8
Red 2
10
388.468
20
-282.702
11
388.391
21
-282.778
0
LINE
8
Red 2
10
388.391
20
-282.778
11
388.315
21
-282.702
0
LINE
8
Red 2
10
388.315
20
-282.702
11
388.391
21
-282.651
0
LINE
8
Red 2
10
388.391
20
-282.651
11
388.391
21
-282.778
0
LINE
8
Red 2
10
391.033
20
-283.566
11
390.169
21
-283.566
0
LINE
8
Red 2
10
390.601
20
-283.566
11
390.601
21
-282.067
0
LINE
8
Red 2
10
390.601
20
-282.067
11
390.449
21
-282.296
0
LINE
8
Red 2
10
390.449
20
-282.296
11
390.322
21
-282.423
0
LINE
8
Red 2
10
390.322
20
-282.423
11
390.169
21
-282.499
0
LINE
8
Red 2
10
392.735
20
-281.991
11
391.465
21
-283.921
0
LINE
8
Red 2
10
394.03
20
-283.566
11
393.167
21
-283.566
0
LINE
8
Red 2
10
393.598
20
-283.566
11
393.598
21
-282.067
0
LINE
8
Red 2
10
393.598
20
-282.067
11
393.446
21
-282.296
0
LINE
8
Red 2
10
393.446
20
-282.296
11
393.319
21
-282.423
0
LINE
8
Red 2
10
393.319
20
-282.423
11
393.167
21
-282.499
0
LINE
8
Red 2
10
299.999
20
-274.498
11
408
21
-274.498
0
LINE
8
Red 2
10
301.447
20
-275.184
11
302.59
21
-275.184
0
LINE
8
Red 2
10
301.777
20
-277.19
11
302.006
21
-275.184
0
LINE
8
Red 2
10
303.022
20
-277.19
11
303.174
21
-275.869
0
LINE
8
Red 2
10
303.251
20
-275.184
11
303.149
21
-275.285
0
LINE
8
Red 2
10
303.149
20
-275.285
11
303.225
21
-275.387
0
LINE
8
Red 2
10
303.225
20
-275.387
11
303.352
21
-275.285
0
LINE
8
Red 2
10
303.352
20
-275.285
11
303.251
21
-275.184
0
LINE
8
Red 2
10
303.251
20
-275.184
11
303.225
21
-275.387
0
LINE
8
Red 2
10
303.86
20
-275.869
11
304.622
21
-275.869
0
LINE
8
Red 2
10
304.216
20
-275.184
11
304.013
21
-276.911
0
LINE
8
Red 2
10
304.013
20
-276.911
11
304.089
21
-277.089
0
LINE
8
Red 2
10
304.089
20
-277.089
11
304.267
21
-277.19
0
LINE
8
Red 2
10
304.267
20
-277.19
11
304.47
21
-277.19
0
LINE
8
Red 2
10
305.41
20
-277.19
11
305.232
21
-277.089
0
LINE
8
Red 2
10
305.232
20
-277.089
11
305.156
21
-276.911
0
LINE
8
Red 2
10
305.156
20
-276.911
11
305.359
21
-275.184
0
LINE
8
Red 2
10
306.934
20
-277.089
11
306.73
21
-277.19
0
LINE
8
Red 2
10
306.73
20
-277.19
11
306.349
21
-277.19
0
LINE
8
Red 2
10
306.349
20
-277.19
11
306.172
21
-277.089
0
LINE
8
Red 2
10
306.172
20
-277.089
11
306.095
21
-276.911
0
LINE
8
Red 2
10
306.095
20
-276.911
11
306.197
21
-276.149
0
LINE
8
Red 2
10
306.197
20
-276.149
11
306.324
21
-275.946
0
LINE
8
Red 2
10
306.324
20
-275.946
11
306.502
21
-275.869
0
LINE
8
Red 2
10
306.502
20
-275.869
11
306.883
21
-275.869
0
LINE
8
Red 2
10
306.883
20
-275.869
11
307.086
21
-275.946
0
LINE
8
Red 2
10
307.086
20
-275.946
11
307.162
21
-276.149
0
LINE
8
Red 2
10
307.162
20
-276.149
11
307.137
21
-276.327
0
LINE
8
Red 2
10
307.137
20
-276.327
11
306.146
21
-276.53
0
LINE
8
Red 2
10
307.899
20
-277.012
11
308
21
-277.089
0
LINE
8
Red 2
10
308
20
-277.089
11
307.899
21
-277.19
0
LINE
8
Red 2
10
307.899
20
-277.19
11
307.797
21
-277.089
0
LINE
8
Red 2
10
307.797
20
-277.089
11
307.899
21
-277.012
0
LINE
8
Red 2
10
307.899
20
-277.012
11
307.899
21
-277.19
0
LINE
8
Red 2
10
308.051
20
-275.946
11
308.127
21
-276.047
0
LINE
8
Red 2
10
308.127
20
-276.047
11
308.026
21
-276.149
0
LINE
8
Red 2
10
308.026
20
-276.149
11
307.924
21
-276.047
0
LINE
8
Red 2
10
307.924
20
-276.047
11
308.051
21
-275.946
0
LINE
8
Red 2
10
308.051
20
-275.946
11
308.026
21
-276.149
0
LINE
8
Red 2
10
301.854
20
-272.567
11
301.346
21
-272.567
0
LINE
8
Red 2
10
301.346
20
-273.355
11
301.346
21
-271.856
0
LINE
8
Red 2
10
301.346
20
-271.856
11
302.057
21
-271.856
0
LINE
8
Red 2
10
302.641
20
-273.355
11
302.641
21
-272.364
0
LINE
8
Red 2
10
302.641
20
-271.856
11
302.565
21
-271.932
0
LINE
8
Red 2
10
302.565
20
-271.932
11
302.641
21
-272.009
0
LINE
8
Red 2
10
302.641
20
-272.009
11
302.717
21
-271.932
0
LINE
8
Red 2
10
302.717
20
-271.932
11
302.641
21
-271.856
0
LINE
8
Red 2
10
302.641
20
-271.856
11
302.641
21
-272.009
0
LINE
8
Red 2
10
303.555
20
-273.355
11
303.428
21
-273.279
0
LINE
8
Red 2
10
303.428
20
-273.279
11
303.352
21
-273.152
0
LINE
8
Red 2
10
303.352
20
-273.152
11
303.352
21
-271.856
0
LINE
8
Red 2
10
304.724
20
-273.279
11
304.571
21
-273.355
0
LINE
8
Red 2
10
304.571
20
-273.355
11
304.292
21
-273.355
0
LINE
8
Red 2
10
304.292
20
-273.355
11
304.14
21
-273.279
0
LINE
8
Red 2
10
304.14
20
-273.279
11
304.063
21
-273.152
0
LINE
8
Red 2
10
304.063
20
-273.152
11
304.063
21
-272.567
0
LINE
8
Red 2
10
304.063
20
-272.567
11
304.14
21
-272.44
0
LINE
8
Red 2
10
304.14
20
-272.44
11
304.292
21
-272.364
0
LINE
8
Red 2
10
304.292
20
-272.364
11
304.571
21
-272.364
0
LINE
8
Red 2
10
304.571
20
-272.364
11
304.724
21
-272.44
0
LINE
8
Red 2
10
304.724
20
-272.44
11
304.775
21
-272.567
0
LINE
8
Red 2
10
304.775
20
-272.567
11
304.775
21
-272.72
0
LINE
8
Red 2
10
304.775
20
-272.72
11
304.063
21
-272.872
0
LINE
8
Red 2
10
305.435
20
-273.228
11
305.511
21
-273.279
0
LINE
8
Red 2
10
305.511
20
-273.279
11
305.435
21
-273.355
0
LINE
8
Red 2
10
305.435
20
-273.355
11
305.359
21
-273.279
0
LINE
8
Red 2
10
305.359
20
-273.279
11
305.435
21
-273.228
0
LINE
8
Red 2
10
305.435
20
-273.228
11
305.435
21
-273.355
0
LINE
8
Red 2
10
305.435
20
-272.44
11
305.511
21
-272.491
0
LINE
8
Red 2
10
305.511
20
-272.491
11
305.435
21
-272.567
0
LINE
8
Red 2
10
305.435
20
-272.567
11
305.359
21
-272.491
0
LINE
8
Red 2
10
305.359
20
-272.491
11
305.435
21
-272.44
0
LINE
8
Red 2
10
305.435
20
-272.44
11
305.435
21
-272.567
0
LINE
8
Red 2
10
307.924
20
-273.355
11
307.924
21
-272.567
0
LINE
8
Red 2
10
307.924
20
-272.567
11
307.873
21
-272.44
0
LINE
8
Red 2
10
307.873
20
-272.44
11
307.721
21
-272.364
0
LINE
8
Red 2
10
307.721
20
-272.364
11
307.442
21
-272.364
0
LINE
8
Red 2
10
307.442
20
-272.364
11
307.289
21
-272.44
0
LINE
8
Red 2
10
307.924
20
-273.279
11
307.797
21
-273.355
0
LINE
8
Red 2
10
307.797
20
-273.355
11
307.442
21
-273.355
0
LINE
8
Red 2
10
307.442
20
-273.355
11
307.289
21
-273.279
0
LINE
8
Red 2
10
307.289
20
-273.279
11
307.213
21
-273.152
0
LINE
8
Red 2
10
307.213
20
-273.152
11
307.213
21
-272.999
0
LINE
8
Red 2
10
307.213
20
-272.999
11
307.289
21
-272.872
0
LINE
8
Red 2
10
307.289
20
-272.872
11
307.442
21
-272.796
0
LINE
8
Red 2
10
307.442
20
-272.796
11
307.797
21
-272.796
0
LINE
8
Red 2
10
307.797
20
-272.796
11
307.924
21
-272.72
0
LINE
8
Red 2
10
309.27
20
-273.355
11
309.27
21
-272.567
0
LINE
8
Red 2
10
309.27
20
-272.567
11
309.22
21
-272.44
0
LINE
8
Red 2
10
309.22
20
-272.44
11
309.067
21
-272.364
0
LINE
8
Red 2
10
309.067
20
-272.364
11
308.788
21
-272.364
0
LINE
8
Red 2
10
308.788
20
-272.364
11
308.635
21
-272.44
0
LINE
8
Red 2
10
309.27
20
-273.279
11
309.143
21
-273.355
0
LINE
8
Red 2
10
309.143
20
-273.355
11
308.788
21
-273.355
0
LINE
8
Red 2
10
308.788
20
-273.355
11
308.635
21
-273.279
0
LINE
8
Red 2
10
308.635
20
-273.279
11
308.559
21
-273.152
0
LINE
8
Red 2
10
308.559
20
-273.152
11
308.559
21
-272.999
0
LINE
8
Red 2
10
308.559
20
-272.999
11
308.635
21
-272.872
0
LINE
8
Red 2
10
308.635
20
-272.872
11
308.788
21
-272.796
0
LINE
8
Red 2
10
308.788
20
-272.796
11
309.143
21
-272.796
0
LINE
8
Red 2
10
309.143
20
-272.796
11
309.27
21
-272.72
0
LINE
8
Red 2
10
309.982
20
-273.228
11
310.058
21
-273.279
0
LINE
8
Red 2
10
310.058
20
-273.279
11
309.982
21
-273.355
0
LINE
8
Red 2
10
309.982
20
-273.355
11
309.905
21
-273.279
0
LINE
8
Red 2
10
309.905
20
-273.279
11
309.982
21
-273.228
0
LINE
8
Red 2
10
309.982
20
-273.228
11
309.982
21
-273.355
0
LINE
8
Red 2
10
310.617
20
-273.279
11
310.769
21
-273.355
0
LINE
8
Red 2
10
310.769
20
-273.355
11
311.048
21
-273.355
0
LINE
8
Red 2
10
311.048
20
-273.355
11
311.201
21
-273.279
0
LINE
8
Red 2
10
311.201
20
-273.279
11
311.277
21
-273.152
0
LINE
8
Red 2
10
311.277
20
-273.152
11
311.277
21
-273.075
0
LINE
8
Red 2
10
311.277
20
-273.075
11
311.201
21
-272.923
0
LINE
8
Red 2
10
311.201
20
-272.923
11
311.048
21
-272.872
0
LINE
8
Red 2
10
311.048
20
-272.872
11
310.845
21
-272.872
0
LINE
8
Red 2
10
310.845
20
-272.872
11
310.693
21
-272.796
0
LINE
8
Red 2
10
310.693
20
-272.796
11
310.617
21
-272.644
0
LINE
8
Red 2
10
310.617
20
-272.644
11
310.617
21
-272.567
0
LINE
8
Red 2
10
310.617
20
-272.567
11
310.693
21
-272.44
0
LINE
8
Red 2
10
310.693
20
-272.44
11
310.845
21
-272.364
0
LINE
8
Red 2
10
310.845
20
-272.364
11
311.048
21
-272.364
0
LINE
8
Red 2
10
311.048
20
-272.364
11
311.201
21
-272.44
0
LINE
8
Red 2
10
312.547
20
-273.279
11
312.42
21
-273.355
0
LINE
8
Red 2
10
312.42
20
-273.355
11
312.115
21
-273.355
0
LINE
8
Red 2
10
312.115
20
-273.355
11
311.988
21
-273.279
0
LINE
8
Red 2
10
311.988
20
-273.279
11
311.912
21
-273.228
0
LINE
8
Red 2
10
311.912
20
-273.228
11
311.836
21
-273.075
0
LINE
8
Red 2
10
311.836
20
-273.075
11
311.836
21
-272.644
0
LINE
8
Red 2
10
311.836
20
-272.644
11
311.912
21
-272.491
0
LINE
8
Red 2
10
311.912
20
-272.491
11
311.988
21
-272.44
0
LINE
8
Red 2
10
311.988
20
-272.44
11
312.115
21
-272.364
0
LINE
8
Red 2
10
312.115
20
-272.364
11
312.42
21
-272.364
0
LINE
8
Red 2
10
312.42
20
-272.364
11
312.547
21
-272.44
0
LINE
8
Red 2
10
313.207
20
-273.355
11
313.207
21
-271.856
0
LINE
8
Red 2
10
313.842
20
-273.355
11
313.842
21
-272.567
0
LINE
8
Red 2
10
313.842
20
-272.567
11
313.792
21
-272.44
0
LINE
8
Red 2
10
313.792
20
-272.44
11
313.639
21
-272.364
0
LINE
8
Red 2
10
313.639
20
-272.364
11
313.411
21
-272.364
0
LINE
8
Red 2
10
313.411
20
-272.364
11
313.284
21
-272.44
0
LINE
8
Red 2
10
313.284
20
-272.44
11
313.207
21
-272.491
0
LINE
8
Red 2
10
299.999
20
-268.503
11
408
21
-268.503
0
LINE
8
Red 2
10
301.269
20
-270.586
11
301.498
21
-270.662
0
LINE
8
Red 2
10
301.498
20
-270.662
11
301.854
21
-270.662
0
LINE
8
Red 2
10
301.854
20
-270.662
11
301.981
21
-270.586
0
LINE
8
Red 2
10
301.981
20
-270.586
11
302.057
21
-270.535
0
LINE
8
Red 2
10
302.057
20
-270.535
11
302.133
21
-270.383
0
LINE
8
Red 2
10
302.133
20
-270.383
11
302.133
21
-270.231
0
LINE
8
Red 2
10
302.133
20
-270.231
11
302.057
21
-270.104
0
LINE
8
Red 2
10
302.057
20
-270.104
11
301.981
21
-270.027
0
LINE
8
Red 2
10
301.981
20
-270.027
11
301.854
21
-269.951
0
LINE
8
Red 2
10
301.854
20
-269.951
11
301.549
21
-269.875
0
LINE
8
Red 2
10
301.549
20
-269.875
11
301.422
21
-269.799
0
LINE
8
Red 2
10
301.422
20
-269.799
11
301.346
21
-269.748
0
LINE
8
Red 2
10
301.346
20
-269.748
11
301.269
21
-269.596
0
LINE
8
Red 2
10
301.269
20
-269.596
11
301.269
21
-269.443
0
LINE
8
Red 2
10
301.269
20
-269.443
11
301.346
21
-269.316
0
LINE
8
Red 2
10
301.346
20
-269.316
11
301.422
21
-269.24
0
LINE
8
Red 2
10
301.422
20
-269.24
11
301.549
21
-269.164
0
LINE
8
Red 2
10
301.549
20
-269.164
11
301.93
21
-269.164
0
LINE
8
Red 2
10
301.93
20
-269.164
11
302.133
21
-269.24
0
LINE
8
Red 2
10
302.768
20
-270.662
11
302.768
21
-269.164
0
LINE
8
Red 2
10
303.403
20
-270.662
11
303.403
21
-269.875
0
LINE
8
Red 2
10
303.403
20
-269.875
11
303.352
21
-269.748
0
LINE
8
Red 2
10
303.352
20
-269.748
11
303.2
21
-269.672
0
LINE
8
Red 2
10
303.2
20
-269.672
11
302.971
21
-269.672
0
LINE
8
Red 2
10
302.971
20
-269.672
11
302.844
21
-269.748
0
LINE
8
Red 2
10
302.844
20
-269.748
11
302.768
21
-269.799
0
LINE
8
Red 2
10
304.698
20
-270.586
11
304.546
21
-270.662
0
LINE
8
Red 2
10
304.546
20
-270.662
11
304.267
21
-270.662
0
LINE
8
Red 2
10
304.267
20
-270.662
11
304.114
21
-270.586
0
LINE
8
Red 2
10
304.114
20
-270.586
11
304.038
21
-270.459
0
LINE
8
Red 2
10
304.038
20
-270.459
11
304.038
21
-269.875
0
LINE
8
Red 2
10
304.038
20
-269.875
11
304.114
21
-269.748
0
LINE
8
Red 2
10
304.114
20
-269.748
11
304.267
21
-269.672
0
LINE
8
Red 2
10
304.267
20
-269.672
11
304.546
21
-269.672
0
LINE
8
Red 2
10
304.546
20
-269.672
11
304.698
21
-269.748
0
LINE
8
Red 2
10
304.698
20
-269.748
11
304.749
21
-269.875
0
LINE
8
Red 2
10
304.749
20
-269.875
11
304.749
21
-270.027
0
LINE
8
Red 2
10
304.749
20
-270.027
11
304.038
21
-270.18
0
LINE
8
Red 2
10
305.994
20
-270.586
11
305.841
21
-270.662
0
LINE
8
Red 2
10
305.841
20
-270.662
11
305.562
21
-270.662
0
LINE
8
Red 2
10
305.562
20
-270.662
11
305.41
21
-270.586
0
LINE
8
Red 2
10
305.41
20
-270.586
11
305.333
21
-270.459
0
LINE
8
Red 2
10
305.333
20
-270.459
11
305.333
21
-269.875
0
LINE
8
Red 2
10
305.333
20
-269.875
11
305.41
21
-269.748
0
LINE
8
Red 2
10
305.41
20
-269.748
11
305.562
21
-269.672
0
LINE
8
Red 2
10
305.562
20
-269.672
11
305.841
21
-269.672
0
LINE
8
Red 2
10
305.841
20
-269.672
11
305.994
21
-269.748
0
LINE
8
Red 2
10
305.994
20
-269.748
11
306.045
21
-269.875
0
LINE
8
Red 2
10
306.045
20
-269.875
11
306.045
21
-270.027
0
LINE
8
Red 2
10
306.045
20
-270.027
11
305.333
21
-270.18
0
LINE
8
Red 2
10
306.502
20
-269.672
11
307.061
21
-269.672
0
LINE
8
Red 2
10
306.705
20
-269.164
11
306.705
21
-270.459
0
LINE
8
Red 2
10
306.705
20
-270.459
11
306.781
21
-270.586
0
LINE
8
Red 2
10
306.781
20
-270.586
11
306.908
21
-270.662
0
LINE
8
Red 2
10
306.908
20
-270.662
11
307.061
21
-270.662
0
LINE
8
Red 2
10
307.569
20
-270.535
11
307.645
21
-270.586
0
LINE
8
Red 2
10
307.645
20
-270.586
11
307.569
21
-270.662
0
LINE
8
Red 2
10
307.569
20
-270.662
11
307.492
21
-270.586
0
LINE
8
Red 2
10
307.492
20
-270.586
11
307.569
21
-270.535
0
LINE
8
Red 2
10
307.569
20
-270.535
11
307.569
21
-270.662
0
LINE
8
Red 2
10
307.569
20
-269.748
11
307.645
21
-269.799
0
LINE
8
Red 2
10
307.645
20
-269.799
11
307.569
21
-269.875
0
LINE
8
Red 2
10
307.569
20
-269.875
11
307.492
21
-269.799
0
LINE
8
Red 2
10
307.492
20
-269.799
11
307.569
21
-269.748
0
LINE
8
Red 2
10
307.569
20
-269.748
11
307.569
21
-269.875
0
LINE
8
Red 2
10
310.49
20
-269.088
11
309.22
21
-271.018
0
LINE
8
Red 2
10
319.989
20
-278.511
11
319.989
21
-281.508
0
LINE
8
Red 2
10
383.997
20
-278.511
11
383.997
21
-285.013
  0
ENDSEC
  0
EOF
