999
dxfrw 0.6.3
  0
SECTION
  2
HEADER
  9
$ACADVER
  1
AC1021
  9
$DWGCODEPAGE
  3
ANSI_1250
  9
$INSBASE
 10
0
 20
0
 30
0
  9
$EXTMIN
 10
-12.88707413003172
 20
-57.94683450965425
 30
0
  9
$EXTMAX
 10
387.0863258699683
 20
220.5139279390403
 30
0
  9
$LIMMIN
 10
0
 20
0
  9
$LIMMAX
 10
420
 20
297
  9
$ORTHOMODE
 70
    0
  9
$REGENMODE
 70
    1
  9
$FILLMODE
 70
    1
  9
$QTEXTMODE
 70
    0
  9
$MIRRTEXT
 70
    0
  9
$LTSCALE
 40
1
  9
$ATTMODE
 70
    0
  9
$TEXTSIZE
 40
2.5
  9
$TRACEWID
 40
15.68
  9
$TEXTSTYLE
  7
STANDARD
  9
$CLAYER
  8
0
  9
$CELTYPE
  6
BYLAYER
  9
$CECOLOR
 62
  256
  9
$CELTSCALE
 40
1
  9
$DISPSILH
 70
    0
  9
$DIMSCALE
 40
2.5
  9
$DIMASZ
 40
2.5
  9
$DIMEXO
 40
0.625
  9
$DIMDLI
 40
3.75
  9
$DIMRND
 40
0
  9
$DIMDLE
 40
0
  9
$DIMEXE
 40
1.25
  9
$DIMTP
 40
0
  9
$DIMTM
 40
0
  9
$DIMTXT
 40
2.5
  9
$DIMCEN
 40
2.5
  9
$DIMTSZ
 40
0
  9
$DIMTOL
 70
    0
  9
$DIMLIM
 70
    0
  9
$DIMTIH
 70
    0
  9
$DIMTOH
 70
    0
  9
$DIMSE1
 70
    0
  9
$DIMSE2
 70
    0
  9
$DIMTAD
 70
    1
  9
$DIMZIN
 70
    8
  9
$DIMBLK
  1

  9
$DIMASO
 70
    1
  9
$DIMSHO
 70
    1
  9
$DIMPOST
  1

  9
$DIMAPOST
  1

  9
$DIMALT
 70
    0
  9
$DIMALTD
 70
    3
  9
$DIMALTF
 40
0.03937
  9
$DIMLFAC
 40
1
  9
$DIMTOFL
 70
    1
  9
$DIMTVP
 40
0
  9
$DIMTIX
 70
    0
  9
$DIMSOXD
 70
    0
  9
$DIMSAH
 70
    0
  9
$DIMBLK1
  1

  9
$DIMBLK2
  1

  9
$DIMSTYLE
  2
Standard
  9
$DIMCLRD
 70
    0
  9
$DIMCLRE
 70
    0
  9
$DIMCLRT
 70
    0
  9
$DIMTFAC
 40
1
  9
$DIMGAP
 40
0.625
  9
$DIMJUST
 70
    0
  9
$DIMSD1
 70
    0
  9
$DIMSD2
 70
    0
  9
$DIMTOLJ
 70
    0
  9
$DIMTZIN
 70
    8
  9
$DIMALTZ
 70
    0
  9
$DIMALTTZ
 70
    0
  9
$DIMUPT
 70
    0
  9
$DIMDEC
 70
    1
  9
$DIMTDEC
 70
    2
  9
$DIMALTU
 70
    2
  9
$DIMALTTD
 70
    3
  9
$DIMTXSTY
  7
standard
  9
$DIMAUNIT
 70
    0
  9
$DIMADEC
 70
    0
  9
$DIMALTRND
 40
0
  9
$DIMAZIN
 70
    0
  9
$DIMDSEP
 70
   44
  9
$DIMATFIT
 70
    3
  9
$DIMFRAC
 70
    0
  9
$DIMLDRBLK
  1
STANDARD
  9
$DIMLUNIT
 70
    2
  9
$DIMLWD
 70
   -2
  9
$DIMLWE
 70
   -2
  9
$DIMTMOVE
 70
    0
  9
$DIMFXL
 40
1
  9
$DIMFXLON
 70
    0
  9
$DIMJOGANG
 40
0.7854
  9
$DIMTFILL
 70
    0
  9
$DIMTFILLCLR
 70
    0
  9
$DIMARCSYM
 70
    0
  9
$DIMLTYPE
  6

  9
$DIMLTEX1
  6

  9
$DIMLTEX2
  6

  9
$LUNITS
 70
    2
  9
$LUPREC
 70
    1
  9
$SKETCHINC
 40
1
  9
$FILLETRAD
 40
0
  9
$AUNITS
 70
    0
  9
$AUPREC
 70
    1
  9
$MENU
  1
.
  9
$ELEVATION
 40
0
  9
$PELEVATION
 40
0
  9
$THICKNESS
 40
0
  9
$LIMCHECK
 70
    0
  9
$CHAMFERA
 40
0
  9
$CHAMFERB
 40
0
  9
$CHAMFERC
 40
0
  9
$CHAMFERD
 40
0
  9
$SKPOLY
 70
    0
  9
$USRTIMER
 70
    1
  9
$ANGBASE
 50
0
  9
$ANGDIR
 70
    1
  9
$PDMODE
 70
   34
  9
$PDSIZE
 40
0
  9
$PLINEWID
 40
0
  9
$SPLFRAME
 70
    0
  9
$SPLINETYPE
 70
    2
  9
$SPLINESEGS
 70
    8
  9
$HANDSEED
  5
20000
  9
$SURFTAB1
 70
    6
  9
$SURFTAB2
 70
    6
  9
$SURFTYPE
 70
    6
  9
$SURFU
 70
    6
  9
$SURFV
 70
    6
  9
$UCSBASE
  2

  9
$UCSNAME
  2

  9
$UCSORG
 10
0
 20
0
 30
0
  9
$UCSXDIR
 10
1
 20
0
 30
0
  9
$UCSYDIR
 10
0
 20
1
 30
0
  9
$UCSORTHOREF
  2

  9
$UCSORTHOVIEW
 70
    0
  9
$UCSORGTOP
 10
0
 20
0
 30
0
  9
$UCSORGBOTTOM
 10
0
 20
0
 30
0
  9
$UCSORGLEFT
 10
0
 20
0
 30
0
  9
$UCSORGRIGHT
 10
0
 20
0
 30
0
  9
$UCSORGFRONT
 10
0
 20
0
 30
0
  9
$UCSORGBACK
 10
0
 20
0
 30
0
  9
$PUCSBASE
  2

  9
$PUCSNAME
  2

  9
$PUCSORG
 10
0
 20
0
 30
0
  9
$PUCSXDIR
 10
1
 20
0
 30
0
  9
$PUCSYDIR
 10
0
 20
1
 30
0
  9
$PUCSORTHOREF
  2

  9
$PUCSORTHOVIEW
 70
    0
  9
$PUCSORGTOP
 10
0
 20
0
 30
0
  9
$PUCSORGBOTTOM
 10
0
 20
0
 30
0
  9
$PUCSORGLEFT
 10
0
 20
0
 30
0
  9
$PUCSORGRIGHT
 10
0
 20
0
 30
0
  9
$PUCSORGFRONT
 10
0
 20
0
 30
0
  9
$PUCSORGBACK
 10
0
 20
0
 30
0
  9
$USERI1
 70
    0
  9
$USERI2
 70
    0
  9
$USERI3
 70
    0
  9
$USERI4
 70
    0
  9
$USERI5
 70
    0
  9
$USERR1
 40
0
  9
$USERR2
 40
0
  9
$USERR3
 40
0
  9
$USERR4
 40
0
  9
$USERR5
 40
0
  9
$WORLDVIEW
 70
    1
  9
$SHADEDGE
 70
    3
  9
$SHADEDIF
 70
   70
  9
$TILEMODE
 70
    1
  9
$MAXACTVP
 70
   64
  9
$PINSBASE
 10
27.24140310070477
 20
69.10236956914162
 30
0
  9
$PLIMCHECK
 70
    0
  9
$PEXTMIN
 10
0
 20
0
 30
0
  9
$PEXTMAX
 10
0
 20
0
 30
0
  9
$GRIDMODE
 70
    1
  9
$SNAPSTYLE
 70
    0
  9
$GRIDUNIT
 10
0
 20
0
  9
$PLIMMIN
 10
0
 20
0
  9
$PLIMMAX
 10
420
 20
297
  9
$UNITMODE
 70
    0
  9
$VISRETAIN
 70
    1
  9
$PLINEGEN
 70
    0
  9
$PSLTSCALE
 70
    1
  9
$TREEDEPTH
 70
 3020
  9
$CMLSTYLE
  2
Standard
  9
$CMLJUST
 70
    0
  9
$CMLSCALE
 40
20
  9
$PROXYGRAPHICS
 70
    1
  9
$MEASUREMENT
 70
    0
  9
$CELWEIGHT
370
   -1
  9
$ENDCAPS
280
    0
  9
$JOINSTYLE
280
    0
  9
$LWDISPLAY
290
    0
  9
$INSUNITS
 70
    4
  9
$HYPERLINKBASE
  1

  9
$STYLESHEET
  1

  9
$XEDIT
290
    1
  9
$CEPSNTYPE
380
    0
  9
$PSTYLEMODE
290
    1
  9
$EXTNAMES
290
    1
  9
$PSVPSCALE
 40
0.9768009768009769
  9
$OLESTARTUP
290
    0
  9
$SORTENTS
280
  127
  9
$INDEXCTL
280
    0
  9
$HIDETEXT
280
    1
  9
$XCLIPFRAME
290
    0
  9
$HALOGAP
280
    0
  9
$OBSCOLOR
 70
  257
  9
$OBSLTYPE
280
    0
  9
$INTERSECTIONDISPLAY
280
    0
  9
$INTERSECTIONCOLOR
 70
  257
  9
$DIMASSOC
280
    1
  9
$PROJECTNAME
  1

  9
$CAMERADISPLAY
290
    0
  9
$LENSLENGTH
 40
50
  9
$CAMERAHEIGHT
 40
0
  9
$STEPSPERSEC
 40
2
  9
$STEPSIZE
 40
50
  9
$3DDWFPREC
 40
2
  9
$PSOLWIDTH
 40
5
  9
$PSOLHEIGHT
 40
80
  9
$LOFTANG1
 40
1.570796326794897
  9
$LOFTANG2
 40
1.570796326794897
  9
$LOFTMAG1
 40
0
  9
$LOFTMAG2
 40
0
  9
$LOFTPARAM
 70
    7
  9
$LOFTNORMALS
280
    1
  9
$LATITUDE
 40
1
  9
$LONGITUDE
 40
1
  9
$NORTHDIRECTION
 40
0
  9
$TIMEZONE
 70
-8000
  9
$LIGHTGLYPHDISPLAY
280
    1
  9
$TILEMODELIGHTSYNCH
280
    1
  9
$SOLIDHIST
280
    1
  9
$SHOWHIST
280
    1
  9
$DWFFRAME
280
    2
  9
$DGNFRAME
280
    0
  9
$REALWORLDSCALE
290
    1
  9
$INTERFERECOLOR
 62
    1
  9
$CSHADOW
280
    0
  9
$SHADOWPLANELOCATION
 40
0
  0
ENDSEC
  0
SECTION
  2
CLASSES
  0
ENDSEC
  0
SECTION
  2
TABLES
  0
TABLE
  2
VPORT
  5
8
330
0
100
AcDbSymbolTable
 70
    1
  0
VPORT
  5
31
330
2
100
AcDbSymbolTableRecord
100
AcDbViewportTableRecord
  2
*ACTIVE
 70
    0
 10
0
 20
0
 11
1
 21
1
 12
297.0457690034336
 22
139.1647352749826
 13
0
 23
0
 14
10
 24
10
 15
10
 25
10
 16
0
 26
0
 36
1
 17
0
 27
0
 37
0
 40
340.5158815405214
 41
1.595744680851064
 42
50
 43
0
 44
0
 50
0
 51
0
 71
    0
 72
  100
 73
    1
 74
    3
 75
    0
 76
    1
 77
    0
 78
    0
281
    0
 65
    1
110
0
120
0
130
0
111
1
121
0
131
0
112
0
122
1
132
0
 79
    0
146
0
348
10020
 60
    7
 61
    5
292
1
282
    1
141
0
142
0
 63
  250
421
3358443
  0
ENDTAB
  0
TABLE
  2
LTYPE
  5
5
330
0
100
AcDbSymbolTable
 70
    4
  0
LTYPE
  5
14
330
5
100
AcDbSymbolTableRecord
100
AcDbLinetypeTableRecord
  2
ByBlock
 70
    0
  3

 72
   65
 73
    0
 40
0
  0
LTYPE
  5
15
330
5
100
AcDbSymbolTableRecord
100
AcDbLinetypeTableRecord
  2
ByLayer
 70
    0
  3

 72
   65
 73
    0
 40
0
  0
LTYPE
  5
16
330
5
100
AcDbSymbolTableRecord
100
AcDbLinetypeTableRecord
  2
Continuous
 70
    0
  3
Solid line
 72
   65
 73
    0
 40
0
  0
LTYPE
  5
32
330
5
100
AcDbSymbolTableRecord
100
AcDbLinetypeTableRecord
  2
DOT
 70
    0
  3
Dot . . . . . . . . . . . . . . . . . . . . . .
 72
   65
 73
    2
 40
6.35
 49
0
 74
    0
 49
-6.35
 74
    0
  0
LTYPE
  5
33
330
5
100
AcDbSymbolTableRecord
100
AcDbLinetypeTableRecord
  2
DOTTINY
 70
    0
  3
Dot (.15x) .....................................
 72
   65
 73
    2
 40
0.9525
 49
0
 74
    0
 49
-0.9525
 74
    0
  0
LTYPE
  5
34
330
5
100
AcDbSymbolTableRecord
100
AcDbLinetypeTableRecord
  2
DOT2
 70
    0
  3
Dot (.5x) .....................................
 72
   65
 73
    2
 40
3.175
 49
0
 74
    0
 49
-3.175
 74
    0
  0
LTYPE
  5
35
330
5
100
AcDbSymbolTableRecord
100
AcDbLinetypeTableRecord
  2
DOTX2
 70
    0
  3
Dot (2x) .  .  .  .  .  .  .  .  .  .  .  .  .
 72
   65
 73
    2
 40
12.7
 49
0
 74
    0
 49
-12.7
 74
    0
  0
LTYPE
  5
36
330
5
100
AcDbSymbolTableRecord
100
AcDbLinetypeTableRecord
  2
DASHED
 70
    0
  3
Dashed _ _ _ _ _ _ _ _ _ _ _ _ _ _ _ _ _
 72
   65
 73
    2
 40
19.05
 49
12.7
 74
    0
 49
-6.35
 74
    0
  0
LTYPE
  5
37
330
5
100
AcDbSymbolTableRecord
100
AcDbLinetypeTableRecord
  2
DASHEDTINY
 70
    0
  3
Dashed (.15x) _ _ _ _ _ _ _ _ _ _ _ _ _ _ _ _ _
 72
   65
 73
    2
 40
2.8575
 49
1.905
 74
    0
 49
-0.9525
 74
    0
  0
LTYPE
  5
38
330
5
100
AcDbSymbolTableRecord
100
AcDbLinetypeTableRecord
  2
DASHED2
 70
    0
  3
Dashed (.5x) _ _ _ _ _ _ _ _ _ _ _ _ _ _ _ _ _
 72
   65
 73
    2
 40
9.524999999999999
 49
6.35
 74
    0
 49
-3.175
 74
    0
  0
LTYPE
  5
39
330
5
100
AcDbSymbolTableRecord
100
AcDbLinetypeTableRecord
  2
DASHEDX2
 70
    0
  3
Dashed (2x) ____  ____  ____  ____  ____  ___
 72
   65
 73
    2
 40
38.09999999999999
 49
25.4
 74
    0
 49
-12.7
 74
    0
  0
LTYPE
  5
3A
330
5
100
AcDbSymbolTableRecord
100
AcDbLinetypeTableRecord
  2
DASHDOT
 70
    0
  3
Dash dot __ . __ . __ . __ . __ . __ . __ . __
 72
   65
 73
    4
 40
25.4
 49
12.7
 74
    0
 49
-6.35
 74
    0
 49
0
 74
    0
 49
-6.35
 74
    0
  0
LTYPE
  5
3B
330
5
100
AcDbSymbolTableRecord
100
AcDbLinetypeTableRecord
  2
DASHDOTTINY
 70
    0
  3
Dash dot (.15x) _._._._._._._._._._._._._._._.
 72
   65
 73
    4
 40
3.81
 49
1.905
 74
    0
 49
-0.9525
 74
    0
 49
0
 74
    0
 49
-0.9525
 74
    0
  0
LTYPE
  5
3C
330
5
100
AcDbSymbolTableRecord
100
AcDbLinetypeTableRecord
  2
DASHDOT2
 70
    0
  3
Dash dot (.5x) _._._._._._._._._._._._._._._.
 72
   65
 73
    4
 40
12.7
 49
6.35
 74
    0
 49
-3.175
 74
    0
 49
0
 74
    0
 49
-3.175
 74
    0
  0
LTYPE
  5
3D
330
5
100
AcDbSymbolTableRecord
100
AcDbLinetypeTableRecord
  2
DASHDOTX2
 70
    0
  3
Dash dot (2x) ____  .  ____  .  ____  .  ___
 72
   65
 73
    4
 40
50.8
 49
25.4
 74
    0
 49
-12.7
 74
    0
 49
0
 74
    0
 49
-12.7
 74
    0
  0
LTYPE
  5
3E
330
5
100
AcDbSymbolTableRecord
100
AcDbLinetypeTableRecord
  2
DIVIDE
 70
    0
  3
Divide ____ . . ____ . . ____ . . ____ . . ____
 72
   65
 73
    6
 40
31.75
 49
12.7
 74
    0
 49
-6.35
 74
    0
 49
0
 74
    0
 49
-6.35
 74
    0
 49
0
 74
    0
 49
-6.35
 74
    0
  0
LTYPE
  5
3F
330
5
100
AcDbSymbolTableRecord
100
AcDbLinetypeTableRecord
  2
DIVIDETINY
 70
    0
  3
Divide (.15x) __..__..__..__..__..__..__..__.._
 72
   65
 73
    6
 40
4.7625
 49
1.905
 74
    0
 49
-0.9525
 74
    0
 49
0
 74
    0
 49
-0.9525
 74
    0
 49
0
 74
    0
 49
-0.9525
 74
    0
  0
LTYPE
  5
40
330
5
100
AcDbSymbolTableRecord
100
AcDbLinetypeTableRecord
  2
DIVIDE2
 70
    0
  3
Divide (.5x) __..__..__..__..__..__..__..__.._
 72
   65
 73
    6
 40
15.875
 49
6.35
 74
    0
 49
-3.175
 74
    0
 49
0
 74
    0
 49
-3.175
 74
    0
 49
0
 74
    0
 49
-3.175
 74
    0
  0
LTYPE
  5
41
330
5
100
AcDbSymbolTableRecord
100
AcDbLinetypeTableRecord
  2
DIVIDEX2
 70
    0
  3
Divide (2x) ________  .  .  ________  .  .  _
 72
   65
 73
    6
 40
63.5
 49
25.4
 74
    0
 49
-12.7
 74
    0
 49
0
 74
    0
 49
-12.7
 74
    0
 49
0
 74
    0
 49
-12.7
 74
    0
  0
LTYPE
  5
42
330
5
100
AcDbSymbolTableRecord
100
AcDbLinetypeTableRecord
  2
BORDER
 70
    0
  3
Border __ __ . __ __ . __ __ . __ __ . __ __ .
 72
   65
 73
    6
 40
44.45
 49
12.7
 74
    0
 49
-6.35
 74
    0
 49
12.7
 74
    0
 49
-6.35
 74
    0
 49
0
 74
    0
 49
-6.35
 74
    0
  0
LTYPE
  5
43
330
5
100
AcDbSymbolTableRecord
100
AcDbLinetypeTableRecord
  2
BORDERTINY
 70
    0
  3
Border (.15x) __.__.__.__.__.__.__.__.__.__.__.
 72
   65
 73
    6
 40
6.6675
 49
1.905
 74
    0
 49
-0.9525
 74
    0
 49
1.905
 74
    0
 49
-0.9525
 74
    0
 49
0
 74
    0
 49
-0.9525
 74
    0
  0
LTYPE
  5
44
330
5
100
AcDbSymbolTableRecord
100
AcDbLinetypeTableRecord
  2
BORDER2
 70
    0
  3
Border (.5x) __.__.__.__.__.__.__.__.__.__.__.
 72
   65
 73
    6
 40
22.225
 49
6.35
 74
    0
 49
-3.175
 74
    0
 49
6.35
 74
    0
 49
-3.175
 74
    0
 49
0
 74
    0
 49
-3.175
 74
    0
  0
LTYPE
  5
45
330
5
100
AcDbSymbolTableRecord
100
AcDbLinetypeTableRecord
  2
BORDERX2
 70
    0
  3
Border (2x) ____  ____  .  ____  ____  .  ___
 72
   65
 73
    6
 40
88.89999999999999
 49
25.4
 74
    0
 49
-12.7
 74
    0
 49
25.4
 74
    0
 49
-12.7
 74
    0
 49
0
 74
    0
 49
-12.7
 74
    0
  0
LTYPE
  5
46
330
5
100
AcDbSymbolTableRecord
100
AcDbLinetypeTableRecord
  2
CENTER
 70
    0
  3
Center ____ _ ____ _ ____ _ ____ _ ____ _ ____
 72
   65
 73
    4
 40
50.8
 49
31.75
 74
    0
 49
-6.35
 74
    0
 49
6.35
 74
    0
 49
-6.35
 74
    0
  0
LTYPE
  5
47
330
5
100
AcDbSymbolTableRecord
100
AcDbLinetypeTableRecord
  2
CENTERTINY
 70
    0
  3
Center (.15x) ___ _ ___ _ ___ _ ___ _ ___ _ ___
 72
   65
 73
    4
 40
7.619999999999999
 49
4.7625
 74
    0
 49
-0.9525
 74
    0
 49
0.9525
 74
    0
 49
-0.9525
 74
    0
  0
LTYPE
  5
48
330
5
100
AcDbSymbolTableRecord
100
AcDbLinetypeTableRecord
  2
CENTER2
 70
    0
  3
Center (.5x) ___ _ ___ _ ___ _ ___ _ ___ _ ___
 72
   65
 73
    4
 40
28.575
 49
19.05
 74
    0
 49
-3.175
 74
    0
 49
3.175
 74
    0
 49
-3.175
 74
    0
  0
LTYPE
  5
49
330
5
100
AcDbSymbolTableRecord
100
AcDbLinetypeTableRecord
  2
CENTERX2
 70
    0
  3
Center (2x) ________  __  ________  __  _____
 72
   65
 73
    4
 40
101.6
 49
63.5
 74
    0
 49
-12.7
 74
    0
 49
12.7
 74
    0
 49
-12.7
 74
    0
  0
ENDTAB
  0
TABLE
  2
LAYER
  5
2
330
0
100
AcDbSymbolTable
 70
    1
  0
LAYER
  5
10
330
2
100
AcDbSymbolTableRecord
100
AcDbLayerTableRecord
  2
0
 70
    0
 62
    7
  6
CONTINUOUS
370
    0
390
F
  0
LAYER
  5
4A
330
2
100
AcDbSymbolTableRecord
100
AcDbLayerTableRecord
  2
BLACK
 70
    0
 62
    7
  6
CONTINUOUS
370
   -3
390
F
  0
LAYER
  5
4B
330
2
100
AcDbSymbolTableRecord
100
AcDbLayerTableRecord
  2
BLUE1
 70
    0
 62
  178
  6
CONTINUOUS
370
   -3
390
F
  0
LAYER
  5
4C
330
2
100
AcDbSymbolTableRecord
100
AcDbLayerTableRecord
  2
BLUE2
 70
    0
 62
    5
  6
CONTINUOUS
370
   -3
390
F
  0
LAYER
  5
4D
330
2
100
AcDbSymbolTableRecord
100
AcDbLayerTableRecord
  2
BLUE3
 70
    0
 62
  171
  6
CONTINUOUS
370
   -3
390
F
  0
LAYER
  5
4E
330
2
100
AcDbSymbolTableRecord
100
AcDbLayerTableRecord
  2
BLUE4
 70
    0
 62
    5
  6
CONTINUOUS
370
   -3
390
F
  0
LAYER
  5
4F
330
2
100
AcDbSymbolTableRecord
100
AcDbLayerTableRecord
  2
BROWN1
 70
    0
 62
   58
  6
CONTINUOUS
370
   -3
390
F
  0
LAYER
  5
50
330
2
100
AcDbSymbolTableRecord
100
AcDbLayerTableRecord
  2
BROWN2
 70
    0
 62
   54
  6
CONTINUOUS
370
   -3
390
F
  0
LAYER
  5
51
330
2
100
AcDbSymbolTableRecord
100
AcDbLayerTableRecord
  2
CYAN1
 70
    0
 62
  138
  6
CONTINUOUS
370
   -3
390
F
  0
LAYER
  5
52
330
2
100
AcDbSymbolTableRecord
100
AcDbLayerTableRecord
  2
CYAN2
 70
    0
 62
    4
  6
CONTINUOUS
370
   -3
390
F
  0
LAYER
  5
53
330
2
100
AcDbSymbolTableRecord
100
AcDbLayerTableRecord
  2
CYAN3
 70
    0
 62
  131
  6
CONTINUOUS
370
   -3
390
F
  0
LAYER
  5
54
330
2
100
AcDbSymbolTableRecord
100
AcDbLayerTableRecord
  2
CYAN4
 70
    0
 62
    4
  6
CONTINUOUS
370
   -3
390
F
  0
LAYER
  5
55
330
2
100
AcDbSymbolTableRecord
100
AcDbLayerTableRecord
  2
GRAY1
 70
    0
 62
  251
  6
CONTINUOUS
370
   -3
390
F
  0
LAYER
  5
56
330
2
100
AcDbSymbolTableRecord
100
AcDbLayerTableRecord
  2
GRAY2
 70
    0
 62
    8
  6
CONTINUOUS
370
   -3
390
F
  0
LAYER
  5
57
330
2
100
AcDbSymbolTableRecord
100
AcDbLayerTableRecord
  2
GRAY3
 70
    0
 62
    9
  6
CONTINUOUS
370
   -3
390
F
  0
LAYER
  5
58
330
2
100
AcDbSymbolTableRecord
100
AcDbLayerTableRecord
  2
GREEN1
 70
    0
 62
   98
  6
CONTINUOUS
370
   -3
390
F
  0
LAYER
  5
59
330
2
100
AcDbSymbolTableRecord
100
AcDbLayerTableRecord
  2
GREEN2
 70
    0
 62
    3
  6
CONTINUOUS
370
   -3
390
F
  0
LAYER
  5
5A
330
2
100
AcDbSymbolTableRecord
100
AcDbLayerTableRecord
  2
GREEN3
 70
    0
 62
   91
  6
CONTINUOUS
370
   -3
390
F
  0
LAYER
  5
5B
330
2
100
AcDbSymbolTableRecord
100
AcDbLayerTableRecord
  2
GREEN4
 70
    0
 62
    3
  6
CONTINUOUS
370
   -3
390
F
  0
LAYER
  5
5C
330
2
100
AcDbSymbolTableRecord
100
AcDbLayerTableRecord
  2
LYELLOW
 70
    0
 62
   51
  6
CONTINUOUS
370
   -3
390
F
  0
LAYER
  5
5D
330
2
100
AcDbSymbolTableRecord
100
AcDbLayerTableRecord
  2
MAGENTA1
 70
    0
 62
  228
  6
CONTINUOUS
370
   -3
390
F
  0
LAYER
  5
5E
330
2
100
AcDbSymbolTableRecord
100
AcDbLayerTableRecord
  2
MAGENTA2
 70
    0
 62
    6
  6
CONTINUOUS
370
   -3
390
F
  0
LAYER
  5
5F
330
2
100
AcDbSymbolTableRecord
100
AcDbLayerTableRecord
  2
MAGENTA3
 70
    0
 62
  221
  6
CONTINUOUS
370
   -3
390
F
  0
LAYER
  5
60
330
2
100
AcDbSymbolTableRecord
100
AcDbLayerTableRecord
  2
MAGENTA4
 70
    0
 62
    6
  6
CONTINUOUS
370
   -3
390
F
  0
LAYER
  5
61
330
2
100
AcDbSymbolTableRecord
100
AcDbLayerTableRecord
  2
RED1
 70
    0
 62
   18
  6
CONTINUOUS
370
   -3
390
F
  0
LAYER
  5
62
330
2
100
AcDbSymbolTableRecord
100
AcDbLayerTableRecord
  2
RED2
 70
    0
 62
    1
  6
CONTINUOUS
370
   -3
390
F
  0
LAYER
  5
63
330
2
100
AcDbSymbolTableRecord
100
AcDbLayerTableRecord
  2
RED3
 70
    0
 62
   11
  6
CONTINUOUS
370
   -3
390
F
  0
LAYER
  5
64
330
2
100
AcDbSymbolTableRecord
100
AcDbLayerTableRecord
  2
RED4
 70
    0
 62
    1
  6
CONTINUOUS
370
   -3
390
F
  0
LAYER
  5
65
330
2
100
AcDbSymbolTableRecord
100
AcDbLayerTableRecord
  2
Red 2
 70
    0
 62
    7
  6
CONTINUOUS
370
   -3
390
F
  0
LAYER
  5
66
330
2
100
AcDbSymbolTableRecord
100
AcDbLayerTableRecord
  2
WHITE
 70
    0
 62
    7
  6
CONTINUOUS
370
   -3
390
F
  0
LAYER
  5
67
330
2
100
AcDbSymbolTableRecord
100
AcDbLayerTableRecord
  2
YELLOW3
 70
    0
 62
    2
  6
CONTINUOUS
370
   -3
390
F
  0
LAYER
  5
68
330
2
100
AcDbSymbolTableRecord
100
AcDbLayerTableRecord
  2
YELLOW4
 70
    0
 62
    2
  6
CONTINUOUS
370
   -3
390
F
  0
ENDTAB
  0
TABLE
  2
STYLE
  5
3
330
0
100
AcDbSymbolTable
 70
    3
  0
STYLE
  5
69
330
2
100
AcDbSymbolTableRecord
100
AcDbTextStyleTableRecord
  2
unicode
 70
    0
 40
0
 41
1
 50
0
 71
    0
 42
1
  3
unicode
  4

  0
STYLE
  5
6A
330
2
100
AcDbSymbolTableRecord
100
AcDbTextStyleTableRecord
  2
Standard
 70
    0
 40
0
 41
1
 50
0
 71
    0
 42
1
  3
txt
  4

  0
ENDTAB
  0
TABLE
  2
VIEW
  5
6
330
0
100
AcDbSymbolTable
 70
    0
  0
ENDTAB
  0
TABLE
  2
UCS
  5
7
330
0
100
AcDbSymbolTable
 70
    0
  0
ENDTAB
  0
TABLE
  2
APPID
  5
9
330
0
100
AcDbSymbolTable
 70
    1
  0
APPID
  5
12
330
9
100
AcDbSymbolTableRecord
100
AcDbRegAppTableRecord
  2
ACAD
 70
    0
  0
APPID
  5
6B
330
9
100
AcDbSymbolTableRecord
100
AcDbRegAppTableRecord
  2
LibreCad
 70
    0
  0
ENDTAB
  0
TABLE
  2
DIMSTYLE
  5
A
330
0
100
AcDbSymbolTable
 70
    1
100
AcDbDimStyleTable
 71
    1
  0
DIMSTYLE
105
6C
330
A
100
AcDbSymbolTableRecord
100
AcDbDimStyleTableRecord
  2
Standard
 70
    0
 40
2.5
 41
2.5
 42
0.625
 43
0.38
 44
1.25
 45
0
 46
0
 47
0
 48
0
 49
1
140
2.5
141
0.09
142
0
143
25.4
144
1
145
0
146
1
147
0.625
148
0
 71
    0
 72
    0
 73
    0
 74
    1
 75
    0
 76
    0
 77
    0
 78
    8
 79
    0
170
    0
171
    2
172
    0
173
    0
174
    0
175
    0
176
    0
177
    0
178
    0
179
    0
271
    1
272
    4
273
    2
274
    2
275
    0
276
    0
277
    2
278
   44
279
    0
280
    0
281
    0
282
    0
283
    1
284
    0
285
    0
286
    0
288
    0
289
    3
340
standard
341

371
   -2
372
   -2
  0
ENDTAB
  0
TABLE
  2
BLOCK_RECORD
  5
1
330
0
100
AcDbSymbolTable
 70
    2
  0
BLOCK_RECORD
  5
1F
330
1
100
AcDbSymbolTableRecord
100
AcDbBlockTableRecord
  2
*Model_Space
 70
    0
280
    1
281
    0
  0
BLOCK_RECORD
  5
1E
330
1
100
AcDbSymbolTableRecord
100
AcDbBlockTableRecord
  2
*Paper_Space
 70
    0
280
    1
281
    0
  0
BLOCK_RECORD
  5
6D
330
1
100
AcDbSymbolTableRecord
100
AcDbBlockTableRecord
  2
*D4
 70
    0
280
    1
281
    0
  0
BLOCK_RECORD
  5
70
330
1
100
AcDbSymbolTableRecord
100
AcDbBlockTableRecord
  2
*D8
 70
    0
280
    1
281
    0
  0
BLOCK_RECORD
  5
73
330
1
100
AcDbSymbolTableRecord
100
AcDbBlockTableRecord
  2
*D2
 70
    0
280
    1
281
    0
  0
BLOCK_RECORD
  5
76
330
1
100
AcDbSymbolTableRecord
100
AcDbBlockTableRecord
  2
*D15
 70
    0
280
    1
281
    0
  0
BLOCK_RECORD
  5
79
330
1
100
AcDbSymbolTableRecord
100
AcDbBlockTableRecord
  2
*D16
 70
    0
280
    1
281
    0
  0
BLOCK_RECORD
  5
7C
330
1
100
AcDbSymbolTableRecord
100
AcDbBlockTableRecord
  2
*D18
 70
    0
280
    1
281
    0
  0
BLOCK_RECORD
  5
7F
330
1
100
AcDbSymbolTableRecord
100
AcDbBlockTableRecord
  2
*D12
 70
    0
280
    1
281
    0
  0
BLOCK_RECORD
  5
82
330
1
100
AcDbSymbolTableRecord
100
AcDbBlockTableRecord
  2
*D9
 70
    0
280
    1
281
    0
  0
BLOCK_RECORD
  5
85
330
1
100
AcDbSymbolTableRecord
100
AcDbBlockTableRecord
  2
*D10
 70
    0
280
    1
281
    0
  0
BLOCK_RECORD
  5
88
330
1
100
AcDbSymbolTableRecord
100
AcDbBlockTableRecord
  2
*D3
 70
    0
280
    1
281
    0
  0
BLOCK_RECORD
  5
8B
330
1
100
AcDbSymbolTableRecord
100
AcDbBlockTableRecord
  2
*D14
 70
    0
280
    1
281
    0
  0
BLOCK_RECORD
  5
8E
330
1
100
AcDbSymbolTableRecord
100
AcDbBlockTableRecord
  2
*D1
 70
    0
280
    1
281
    0
  0
BLOCK_RECORD
  5
91
330
1
100
AcDbSymbolTableRecord
100
AcDbBlockTableRecord
  2
*D7
 70
    0
280
    1
281
    0
  0
BLOCK_RECORD
  5
94
330
1
100
AcDbSymbolTableRecord
100
AcDbBlockTableRecord
  2
*D6
 70
    0
280
    1
281
    0
  0
BLOCK_RECORD
  5
97
330
1
100
AcDbSymbolTableRecord
100
AcDbBlockTableRecord
  2
*D11
 70
    0
280
    1
281
    0
  0
BLOCK_RECORD
  5
9A
330
1
100
AcDbSymbolTableRecord
100
AcDbBlockTableRecord
  2
*D5
 70
    0
280
    1
281
    0
  0
BLOCK_RECORD
  5
9D
330
1
100
AcDbSymbolTableRecord
100
AcDbBlockTableRecord
  2
*D13
 70
    0
280
    1
281
    0
  0
BLOCK_RECORD
  5
A0
330
1
100
AcDbSymbolTableRecord
100
AcDbBlockTableRecord
  2
*D17
 70
    0
280
    1
281
    0
  0
BLOCK_RECORD
  5
A3
330
1
100
AcDbSymbolTableRecord
100
AcDbBlockTableRecord
  2
*D19
 70
    0
280
    1
281
    0
  0
ENDTAB
  0
ENDSEC
  0
SECTION
  2
BLOCKS
  0
BLOCK
  5
20
330
1F
100
AcDbEntity
  8
0
100
AcDbBlockBegin
  2
*Model_Space
 70
    0
 10
0
 20
0
 30
0
  3
*Model_Space
  1

  0
ENDBLK
  5
21
330
1F
100
AcDbEntity
  8
0
100
AcDbBlockEnd
  0
BLOCK
  5
1C
330
1B
100
AcDbEntity
  8
0
100
AcDbBlockBegin
  2
*Paper_Space
 70
    0
 10
0
 20
0
 30
0
  3
*Paper_Space
  1

  0
ENDBLK
  5
1D
330
1F
100
AcDbEntity
  8
0
100
AcDbBlockEnd
  0
BLOCK
  5
6E
330
6D
100
AcDbEntity
  8
0
100
AcDbBlockBegin
  2
*D4
 70
    1
 10
0
 20
0
  3
*D4
  1

  0
LINE
  5
A6
100
AcDbEntity
  8
0
  6
ByBlock
 62
    0
370
   -2
100
AcDbLine
 10
-12.5
 20
-20.22867194371488
 11
27.5371514172798
 21
-20.22867194371488
  0
SOLID
  5
A7
100
AcDbEntity
  8
0
  6
ByBlock
 62
    0
370
   -2
100
AcDbTrace
 10
0
 20
-20.22867194371488
 30
0
 11
-6.25
 21
-21.26938358814698
 31
0
 12
-6.25
 22
-19.18796029928278
 32
0
 13
-6.25
 23
-19.18796029928278
 33
0
  0
SOLID
  5
A8
100
AcDbEntity
  8
0
  6
ByBlock
 62
    0
370
   -2
100
AcDbTrace
 10
15.0371514172798
 20
-20.22867194371488
 30
0
 11
21.2871514172798
 21
-19.18796029928278
 31
0
 12
21.2871514172798
 22
-21.26938358814698
 32
0
 13
21.2871514172798
 23
-21.26938358814698
 33
0
  0
MTEXT
  5
A9
100
AcDbEntity
  8
0
  6
CONTINUOUS
 62
    0
370
   -2
100
AcDbMText
 10
7.518575708639901
 20
-15.54117194371488
 30
0
 40
6.25
 41
6.250000000000387
 71
    5
 72
    1
  1
15
  7
standard
210
0
220
0
230
1
 50
0
 73
    2
 44
1
  0
LINE
  5
AA
100
AcDbEntity
  8
0
  6
ByBlock
 62
    0
370
   -2
100
AcDbLine
 10
-2.870265935501609e-16
 20
13.74317197830266
 11
-5.740531871003218e-16
 21
-23.35367194371488
  0
LINE
  5
AB
100
AcDbEntity
  8
0
  6
ByBlock
 62
    0
370
   -2
100
AcDbLine
 10
15.0371514172798
 20
-1.5625
 11
15.0371514172798
 21
-23.35367194371488
  0
ENDBLK
  5
6F
330
6D
100
AcDbEntity
  8
0
100
AcDbBlockEnd
  0
BLOCK
  5
71
330
70
100
AcDbEntity
  8
0
100
AcDbBlockBegin
  2
*D8
 70
    1
 10
0
 20
0
  3
*D8
  1

  0
LINE
  5
AC
100
AcDbEntity
  8
0
  6
ByBlock
 62
    0
370
   -2
100
AcDbLine
 10
310.0857490088216
 20
74.98569288070102
 11
310.0857490088216
 21
14.95716991918662
  0
SOLID
  5
AD
100
AcDbEntity
  8
0
  6
ByBlock
 62
    0
370
   -2
100
AcDbTrace
 10
310.0857490088216
 20
74.98569288070102
 30
0
 11
311.1264606532537
 21
68.73569288070102
 31
0
 12
309.0450373643895
 22
68.73569288070102
 32
0
 13
309.0450373643895
 23
68.73569288070102
 33
0
  0
SOLID
  5
AE
100
AcDbEntity
  8
0
  6
ByBlock
 62
    0
370
   -2
100
AcDbTrace
 10
310.0857490088216
 20
14.95716991918662
 30
0
 11
309.0450373643895
 21
21.20716991918662
 31
0
 12
311.1264606532537
 22
21.20716991918662
 32
0
 13
311.1264606532537
 23
21.20716991918662
 33
0
  0
MTEXT
  5
AF
100
AcDbEntity
  8
0
  6
CONTINUOUS
 62
    0
370
   -2
100
AcDbMText
 10
305.3982490088216
 20
44.97143139994382
 30
0
 40
6.25
 41
7.638888888889277
 71
    5
 72
    1
  1
60
  7
standard
210
0
220
0
230
1
 50
90
 73
    2
 44
1
  0
LINE
  5
B0
100
AcDbEntity
  8
0
  6
ByBlock
 62
    0
370
   -2
100
AcDbLine
 10
284.5624400410131
 20
74.98569288070102
 11
313.2107490088216
 21
74.98569288070102
  0
LINE
  5
B1
100
AcDbEntity
  8
0
  6
ByBlock
 62
    0
370
   -2
100
AcDbLine
 10
291.6528744852774
 20
14.95716991918662
 11
313.2107490088216
 21
14.95716991918662
  0
ENDBLK
  5
72
330
70
100
AcDbEntity
  8
0
100
AcDbBlockEnd
  0
BLOCK
  5
74
330
73
100
AcDbEntity
  8
0
100
AcDbBlockBegin
  2
*D2
 70
    1
 10
0
 20
0
  3
*D2
  1

  0
LINE
  5
B2
100
AcDbEntity
  8
0
  6
ByBlock
 62
    0
370
   -2
100
AcDbLine
 10
29.0042483988833
 20
20.00438383568104
 11
29.0042483988833
 21
-6.435717412402509e-16
  0
SOLID
  5
B3
100
AcDbEntity
  8
0
  6
ByBlock
 62
    0
370
   -2
100
AcDbTrace
 10
29.0042483988833
 20
20.00438383568104
 30
0
 11
30.0449600433154
 21
13.75438383568104
 31
0
 12
27.9635367544512
 22
13.75438383568104
 32
0
 13
27.9635367544512
 23
13.75438383568104
 33
0
  0
SOLID
  5
B4
100
AcDbEntity
  8
0
  6
ByBlock
 62
    0
370
   -2
100
AcDbTrace
 10
29.0042483988833
 20
-6.435717412402509e-16
 30
0
 11
27.9635367544512
 21
6.249999999999999
 31
0
 12
30.0449600433154
 22
6.249999999999999
 32
0
 13
30.0449600433154
 23
6.249999999999999
 33
0
  0
MTEXT
  5
B5
100
AcDbEntity
  8
0
  6
CONTINUOUS
 62
    0
370
   -2
100
AcDbMText
 10
24.3167483988833
 20
10.00219191784052
 30
0
 40
6.25
 41
7.638888888888888
 71
    5
 72
    1
  1
20
  7
standard
210
0
220
0
230
1
 50
90
 73
    2
 44
1
  0
LINE
  5
B6
100
AcDbEntity
  8
0
  6
ByBlock
 62
    0
370
   -2
100
AcDbLine
 10
21.51730667623698
 20
20.00438383568104
 11
32.1292483988833
 21
20.00438383568104
  0
LINE
  5
B7
100
AcDbEntity
  8
0
  6
ByBlock
 62
    0
370
   -2
100
AcDbLine
 10
21.5092813550215
 20
0
 11
32.1292483988833
 21
-6.435717412402509e-16
  0
ENDBLK
  5
75
330
73
100
AcDbEntity
  8
0
100
AcDbBlockEnd
  0
BLOCK
  5
77
330
76
100
AcDbEntity
  8
0
100
AcDbBlockBegin
  2
*D15
 70
    1
 10
0
 20
0
  3
*D15
  1

  0
LINE
  5
B8
100
AcDbEntity
  8
0
  6
ByBlock
 62
    0
370
   -2
100
AcDbLine
 10
209.8040650125469
 20
27.53715141728152
 11
209.8040650125469
 21
-12.5
  0
SOLID
  5
B9
100
AcDbEntity
  8
0
  6
ByBlock
 62
    0
370
   -2
100
AcDbTrace
 10
209.8040650125469
 20
15.03715141728152
 30
0
 11
208.7633533681148
 21
21.28715141728152
 31
0
 12
210.844776656979
 22
21.28715141728152
 32
0
 13
210.844776656979
 23
21.28715141728152
 33
0
  0
SOLID
  5
BA
100
AcDbEntity
  8
0
  6
ByBlock
 62
    0
370
   -2
100
AcDbTrace
 10
209.8040650125469
 20
0
 30
0
 11
210.844776656979
 21
-6.25
 31
0
 12
208.7633533681148
 22
-6.25
 32
0
 13
208.7633533681148
 23
-6.25
 33
0
  0
MTEXT
  5
BB
100
AcDbEntity
  8
0
  6
CONTINUOUS
 62
    0
370
   -2
100
AcDbMText
 10
205.1165650125469
 20
7.518575708640761
 30
0
 40
6.25
 41
6.250000000000387
 71
    5
 72
    1
  1
15
  7
standard
210
0
220
0
230
1
 50
90
 73
    2
 44
1
  0
LINE
  5
BC
100
AcDbEntity
  8
0
  6
ByBlock
 62
    0
370
   -2
100
AcDbLine
 10
193.5547011313623
 20
15.03715141728152
 11
212.9290650125469
 21
15.03715141728152
  0
LINE
  5
BD
100
AcDbEntity
  8
0
  6
ByBlock
 62
    0
370
   -2
100
AcDbLine
 10
193.5547011313623
 20
0
 11
212.9290650125469
 21
0
  0
ENDBLK
  5
78
330
76
100
AcDbEntity
  8
0
100
AcDbBlockEnd
  0
BLOCK
  5
7A
330
79
100
AcDbEntity
  8
0
100
AcDbBlockBegin
  2
*D16
 70
    1
 10
0
 20
0
  3
*D16
  1

  0
LINE
  5
BE
100
AcDbEntity
  8
0
  6
ByBlock
 62
    0
370
   -2
100
AcDbLine
 10
15.02604381180905
 20
-20.00000000000571
 11
178.0690439852732
 21
-20.00000000000571
  0
SOLID
  5
BF
100
AcDbEntity
  8
0
  6
ByBlock
 62
    0
370
   -2
100
AcDbTrace
 10
15.02604381180905
 20
-20.00000000000571
 30
0
 11
21.27604381180905
 21
-18.95928835557361
 31
0
 12
21.27604381180905
 22
-21.04071164443781
 32
0
 13
21.27604381180905
 23
-21.04071164443781
 33
0
  0
SOLID
  5
C0
100
AcDbEntity
  8
0
  6
ByBlock
 62
    0
370
   -2
100
AcDbTrace
 10
178.0690439852732
 20
-20.00000000000571
 30
0
 11
171.8190439852732
 21
-21.04071164443781
 31
0
 12
171.8190439852732
 22
-18.95928835557361
 32
0
 13
171.8190439852732
 23
-18.95928835557361
 33
0
  0
MTEXT
  5
C1
100
AcDbEntity
  8
0
  6
CONTINUOUS
 62
    0
370
   -2
100
AcDbMText
 10
96.54754389854114
 20
-15.31250000000571
 30
0
 40
6.25
 41
11.11111111111189
 71
    5
 72
    1
  1
163
  7
standard
210
0
220
0
230
1
 50
0
 73
    2
 44
1
  0
LINE
  5
C2
100
AcDbEntity
  8
0
  6
ByBlock
 62
    0
370
   -2
100
AcDbLine
 10
15.02604381180902
 20
-18.64493822967424
 11
15.02604381180899
 21
-16.87500000000571
  0
LINE
  5
C3
100
AcDbEntity
  8
0
  6
ByBlock
 62
    0
370
   -2
100
AcDbLine
 10
178.0690439852732
 20
5.522475224878245
 11
178.0690439852732
 21
-23.12500000000571
  0
ENDBLK
  5
7B
330
79
100
AcDbEntity
  8
0
100
AcDbBlockEnd
  0
BLOCK
  5
7D
330
7C
100
AcDbEntity
  8
0
100
AcDbBlockBegin
  2
*D18
 70
    1
 10
0
 20
0
  3
*D18
  1

  0
LINE
  5
C4
100
AcDbEntity
  8
0
  6
ByBlock
 62
    0
370
   -2
100
AcDbLine
 10
170.6307093101761
 20
19.53218596986205
 11
170.6307093101761
 21
-12.5
  0
SOLID
  5
C5
100
AcDbEntity
  8
0
  6
ByBlock
 62
    0
370
   -2
100
AcDbTrace
 10
170.6307093101761
 20
7.032185969862053
 30
0
 11
169.589997665744
 21
13.28218596986205
 31
0
 12
171.6714209546082
 22
13.28218596986205
 32
0
 13
171.6714209546082
 23
13.28218596986205
 33
0
  0
SOLID
  5
C6
100
AcDbEntity
  8
0
  6
ByBlock
 62
    0
370
   -2
100
AcDbTrace
 10
170.6307093101761
 20
0
 30
0
 11
171.6714209546082
 21
-6.25
 31
0
 12
169.589997665744
 22
-6.25
 32
0
 13
169.589997665744
 23
-6.25
 33
0
  0
MTEXT
  5
C7
100
AcDbEntity
  8
0
  6
CONTINUOUS
 62
    0
370
   -2
100
AcDbMText
 10
165.9432093101761
 20
3.516092984931027
 30
0
 40
6.25
 41
2.777777777777778
 71
    5
 72
    1
  1
7
  7
standard
210
0
220
0
230
1
 50
90
 73
    2
 44
1
  0
LINE
  5
C8
100
AcDbEntity
  8
0
  6
ByBlock
 62
    0
370
   -2
100
AcDbLine
 10
173.5498615085856
 20
7.032185969862053
 11
167.5057093101761
 21
7.032185969862053
  0
LINE
  5
C9
100
AcDbEntity
  8
0
  6
ByBlock
 62
    0
370
   -2
100
AcDbLine
 10
173.5134253118506
 20
1.913510623667739e-16
 11
167.5057093101761
 21
3.827021247335479e-16
  0
ENDBLK
  5
7E
330
7C
100
AcDbEntity
  8
0
100
AcDbBlockEnd
  0
BLOCK
  5
80
330
7F
100
AcDbEntity
  8
0
100
AcDbBlockBegin
  2
*D12
 70
    1
 10
0
 20
0
  3
*D12
  1

  0
LINE
  5
CA
100
AcDbEntity
  8
0
  6
ByBlock
 62
    0
370
   -2
100
AcDbLine
 10
39.89356271004774
 20
89.96405468286277
 11
-0.1017692926276728
 21
89.96405468286277
  0
SOLID
  5
CB
100
AcDbEntity
  8
0
  6
ByBlock
 62
    0
370
   -2
100
AcDbTrace
 10
39.89356271004774
 20
89.96405468286277
 30
0
 11
33.64356271004774
 21
88.92334303843066
 31
0
 12
33.64356271004774
 22
91.00476632729487
 32
0
 13
33.64356271004774
 23
91.00476632729487
 33
0
  0
SOLID
  5
CC
100
AcDbEntity
  8
0
  6
ByBlock
 62
    0
370
   -2
100
AcDbTrace
 10
-0.1017692926276728
 20
89.96405468286277
 30
0
 11
6.148230707372327
 21
91.00476632729487
 31
0
 12
6.148230707372327
 22
88.92334303843066
 32
0
 13
6.148230707372327
 23
88.92334303843066
 33
0
  0
MTEXT
  5
CD
100
AcDbEntity
  8
0
  6
CONTINUOUS
 62
    0
370
   -2
100
AcDbMText
 10
19.89589670871003
 20
94.65155468286277
 30
0
 40
6.25
 41
8.333333333333332
 71
    5
 72
    1
  1
40
  7
standard
210
0
220
0
230
1
 50
360
 73
    2
 44
1
  0
LINE
  5
CE
100
AcDbEntity
  8
0
  6
ByBlock
 62
    0
370
   -2
100
AcDbLine
 10
39.89356271004774
 20
69.54438747528543
 11
39.89356271004774
 21
93.08905468286277
  0
LINE
  5
CF
100
AcDbEntity
  8
0
  6
ByBlock
 62
    0
370
   -2
100
AcDbLine
 10
-0.1017692926276727
 20
69.13731030477474
 11
-0.1017692926276726
 21
93.08905468286277
  0
ENDBLK
  5
81
330
7F
100
AcDbEntity
  8
0
100
AcDbBlockEnd
  0
BLOCK
  5
83
330
82
100
AcDbEntity
  8
0
100
AcDbBlockBegin
  2
*D9
 70
    1
 10
0
 20
0
  3
*D9
  1

  0
LINE
  5
D0
100
AcDbEntity
  8
0
  6
ByBlock
 62
    0
370
   -2
100
AcDbLine
 10
310.1104664539056
 20
74.98569288070141
 11
310.1104664539056
 21
137.9884259081567
  0
SOLID
  5
D1
100
AcDbEntity
  8
0
  6
ByBlock
 62
    0
370
   -2
100
AcDbTrace
 10
310.1104664539056
 20
74.98569288070141
 30
0
 11
309.0697548094735
 21
81.23569288070141
 31
0
 12
311.1511780983377
 22
81.23569288070141
 32
0
 13
311.1511780983377
 23
81.23569288070141
 33
0
  0
SOLID
  5
D2
100
AcDbEntity
  8
0
  6
ByBlock
 62
    0
370
   -2
100
AcDbTrace
 10
310.1104664539056
 20
137.9884259081567
 30
0
 11
311.1511780983377
 21
131.7384259081567
 31
0
 12
309.0697548094735
 22
131.7384259081567
 32
0
 13
309.0697548094735
 23
131.7384259081567
 33
0
  0
MTEXT
  5
D3
100
AcDbEntity
  8
0
  6
CONTINUOUS
 62
    0
370
   -2
100
AcDbMText
 10
305.4229664539056
 20
106.4870593944291
 30
0
 40
6.25
 41
7.638888888889664
 71
    5
 72
    1
  1
63
  7
standard
210
0
220
0
230
1
 50
90
 73
    2
 44
1
  0
LINE
  5
D4
100
AcDbEntity
  8
0
  6
ByBlock
 62
    0
370
   -2
100
AcDbLine
 10
311.6345342151453
 20
74.98569288070141
 11
313.2354664539056
 21
74.98569288070141
  0
LINE
  5
D5
100
AcDbEntity
  8
0
  6
ByBlock
 62
    0
370
   -2
100
AcDbLine
 10
284.6707155235589
 20
137.9884259081567
 11
313.2354664539056
 21
137.9884259081567
  0
ENDBLK
  5
84
330
82
100
AcDbEntity
  8
0
100
AcDbBlockEnd
  0
BLOCK
  5
86
330
85
100
AcDbEntity
  8
0
100
AcDbBlockBegin
  2
*D10
 70
    1
 10
0
 20
0
  3
*D10
  1

  0
LINE
  5
D6
100
AcDbEntity
  8
0
  6
ByBlock
 62
    0
370
   -2
100
AcDbLine
 10
310.0967879599274
 20
138.0108318073669
 11
310.0967879599274
 21
193.0046618316561
  0
SOLID
  5
D7
100
AcDbEntity
  8
0
  6
ByBlock
 62
    0
370
   -2
100
AcDbTrace
 10
310.0967879599274
 20
138.0108318073669
 30
0
 11
309.0560763154953
 21
144.2608318073669
 31
0
 12
311.1374996043595
 22
144.2608318073669
 32
0
 13
311.1374996043595
 23
144.2608318073669
 33
0
  0
SOLID
  5
D8
100
AcDbEntity
  8
0
  6
ByBlock
 62
    0
370
   -2
100
AcDbTrace
 10
310.0967879599274
 20
193.0046618316561
 30
0
 11
311.1374996043595
 21
186.7546618316561
 31
0
 12
309.0560763154953
 22
186.7546618316561
 32
0
 13
309.0560763154953
 23
186.7546618316561
 33
0
  0
MTEXT
  5
D9
100
AcDbEntity
  8
0
  6
CONTINUOUS
 62
    0
370
   -2
100
AcDbMText
 10
305.4092879599274
 20
165.5077468195115
 30
0
 40
6.25
 41
7.638888888889664
 71
    5
 72
    1
  1
55
  7
standard
210
0
220
0
230
1
 50
90
 73
    2
 44
1
  0
LINE
  5
DA
100
AcDbEntity
  8
0
  6
ByBlock
 62
    0
370
   -2
100
AcDbLine
 10
311.6592879599274
 20
138.0108318073669
 11
313.2217879599274
 21
138.0108318073669
  0
LINE
  5
DB
100
AcDbEntity
  8
0
  6
ByBlock
 62
    0
370
   -2
100
AcDbLine
 10
311.2645953999445
 20
193.0046618316561
 11
313.2217879599274
 21
193.0046618316561
  0
ENDBLK
  5
87
330
85
100
AcDbEntity
  8
0
100
AcDbBlockEnd
  0
BLOCK
  5
89
330
88
100
AcDbEntity
  8
0
100
AcDbBlockBegin
  2
*D3
 70
    1
 10
0
 20
0
  3
*D3
  1

  0
LINE
  5
DC
100
AcDbEntity
  8
0
  6
ByBlock
 62
    0
370
   -2
100
AcDbLine
 10
2.49691995895876
 20
173.2931386417804
 11
37.48105727970202
 21
173.2931386417804
  0
SOLID
  5
DD
100
AcDbEntity
  8
0
  6
ByBlock
 62
    0
370
   -2
100
AcDbTrace
 10
14.99691995895876
 20
173.2931386417804
 30
0
 11
8.74691995895876
 21
172.2524269973483
 31
0
 12
8.74691995895876
 22
174.3338502862125
 32
0
 13
8.74691995895876
 23
174.3338502862125
 33
0
  0
SOLID
  5
DE
100
AcDbEntity
  8
0
  6
ByBlock
 62
    0
370
   -2
100
AcDbTrace
 10
24.98105727970202
 20
173.2931386417804
 30
0
 11
31.23105727970202
 21
174.3338502862125
 31
0
 12
31.23105727970202
 22
172.2524269973483
 32
0
 13
31.23105727970202
 23
172.2524269973483
 33
0
  0
MTEXT
  5
DF
100
AcDbEntity
  8
0
  6
CONTINUOUS
 62
    0
370
   -2
100
AcDbMText
 10
19.98898861933039
 20
177.9806386417804
 30
0
 40
6.25
 41
6.25
 71
    5
 72
    1
  1
10
  7
standard
210
0
220
0
230
1
 50
0
 73
    2
 44
1
  0
LINE
  5
E0
100
AcDbEntity
  8
0
  6
ByBlock
 62
    0
370
   -2
100
AcDbLine
 10
14.99691995895876
 20
186.4789908666127
 11
14.99691995895876
 21
170.1681386417804
  0
LINE
  5
E1
100
AcDbEntity
  8
0
  6
ByBlock
 62
    0
370
   -2
100
AcDbLine
 10
24.98105727970202
 20
186.5618467779882
 11
24.98105727970202
 21
170.1681386417804
  0
ENDBLK
  5
8A
330
88
100
AcDbEntity
  8
0
100
AcDbBlockEnd
  0
BLOCK
  5
8C
330
8B
100
AcDbEntity
  8
0
100
AcDbBlockBegin
  2
*D14
 70
    1
 10
0
 20
0
  3
*D14
  1

  0
LINE
  5
E2
100
AcDbEntity
  8
0
  6
ByBlock
 62
    0
370
   -2
100
AcDbLine
 10
209.82093475329
 20
68.07093920106736
 11
209.82093475329
 21
15.08390130023652
  0
SOLID
  5
E3
100
AcDbEntity
  8
0
  6
ByBlock
 62
    0
370
   -2
100
AcDbTrace
 10
209.82093475329
 20
68.07093920106736
 30
0
 11
210.8616463977221
 21
61.82093920106736
 31
0
 12
208.7802231088579
 22
61.82093920106736
 32
0
 13
208.7802231088579
 23
61.82093920106736
 33
0
  0
SOLID
  5
E4
100
AcDbEntity
  8
0
  6
ByBlock
 62
    0
370
   -2
100
AcDbTrace
 10
209.82093475329
 20
15.08390130023652
 30
0
 11
208.7802231088579
 21
21.33390130023652
 31
0
 12
210.8616463977221
 22
21.33390130023652
 32
0
 13
210.8616463977221
 23
21.33390130023652
 33
0
  0
MTEXT
  5
E5
100
AcDbEntity
  8
0
  6
CONTINUOUS
 62
    0
370
   -2
100
AcDbMText
 10
205.13343475329
 20
41.57742025065194
 30
0
 40
6.25
 41
7.638888888889664
 71
    5
 72
    1
  1
53
  7
standard
210
0
220
0
230
1
 50
90
 73
    2
 44
1
  0
LINE
  5
E6
100
AcDbEntity
  8
0
  6
ByBlock
 62
    0
370
   -2
100
AcDbLine
 10
193.7855499030141
 20
68.07093920106736
 11
212.94593475329
 21
68.07093920106736
  0
LINE
  5
E7
100
AcDbEntity
  8
0
  6
ByBlock
 62
    0
370
   -2
100
AcDbLine
 10
193.398783203008
 20
15.08390130023652
 11
212.94593475329
 21
15.08390130023652
  0
ENDBLK
  5
8D
330
8B
100
AcDbEntity
  8
0
100
AcDbBlockEnd
  0
BLOCK
  5
8F
330
8E
100
AcDbEntity
  8
0
100
AcDbBlockBegin
  2
*D1
 70
    1
 10
0
 20
0
  3
*D1
  1

  0
LINE
  5
E8
100
AcDbEntity
  8
0
  6
ByBlock
 62
    0
370
   -2
100
AcDbLine
 10
19.91665257659962
 20
40.2393011828171
 11
-0.05355677684647248
 21
40.2393011828171
  0
SOLID
  5
E9
100
AcDbEntity
  8
0
  6
ByBlock
 62
    0
370
   -2
100
AcDbTrace
 10
19.91665257659962
 20
40.2393011828171
 30
0
 11
13.66665257659962
 21
39.198589538385
 31
0
 12
13.66665257659962
 22
41.2800128272492
 32
0
 13
13.66665257659962
 23
41.2800128272492
 33
0
  0
SOLID
  5
EA
100
AcDbEntity
  8
0
  6
ByBlock
 62
    0
370
   -2
100
AcDbTrace
 10
-0.05355677684647248
 20
40.2393011828171
 30
0
 11
6.196443223153527
 21
41.2800128272492
 31
0
 12
6.196443223153527
 22
39.198589538385
 32
0
 13
6.196443223153527
 23
39.198589538385
 33
0
  0
MTEXT
  5
EB
100
AcDbEntity
  8
0
  6
CONTINUOUS
 62
    0
370
   -2
100
AcDbMText
 10
9.931547899876573
 20
44.9268011828171
 30
0
 40
6.25
 41
7.638888888888888
 71
    5
 72
    1
  1
20
  7
standard
210
0
220
0
230
1
 50
360
 73
    2
 44
1
  0
LINE
  5
EC
100
AcDbEntity
  8
0
  6
ByBlock
 62
    0
370
   -2
100
AcDbLine
 10
19.91665257659962
 20
21.47915257659962
 11
19.91665257659962
 21
43.3643011828171
  0
LINE
  5
ED
100
AcDbEntity
  8
0
  6
ByBlock
 62
    0
370
   -2
100
AcDbLine
 10
-0.05355677684647239
 20
21.53917776373424
 11
-0.05355677684647229
 21
43.3643011828171
  0
ENDBLK
  5
90
330
8E
100
AcDbEntity
  8
0
100
AcDbBlockEnd
  0
BLOCK
  5
92
330
91
100
AcDbEntity
  8
0
100
AcDbBlockBegin
  2
*D7
 70
    1
 10
0
 20
0
  3
*D7
  1

  0
LINE
  5
EE
100
AcDbEntity
  8
0
  6
ByBlock
 62
    0
370
   -2
100
AcDbLine
 10
310.1412479814005
 20
180.4767765217603
 11
310.1412479814005
 21
220.5139279390403
  0
SOLID
  5
EF
100
AcDbEntity
  8
0
  6
ByBlock
 62
    0
370
   -2
100
AcDbTrace
 10
310.1412479814005
 20
192.9767765217603
 30
0
 11
311.1819596258326
 21
186.7267765217603
 31
0
 12
309.1005363369684
 22
186.7267765217603
 32
0
 13
309.1005363369684
 23
186.7267765217603
 33
0
  0
SOLID
  5
F0
100
AcDbEntity
  8
0
  6
ByBlock
 62
    0
370
   -2
100
AcDbTrace
 10
310.1412479814005
 20
208.0139279390403
 30
0
 11
309.1005363369684
 21
214.2639279390403
 31
0
 12
311.1819596258326
 22
214.2639279390403
 32
0
 13
311.1819596258326
 23
214.2639279390403
 33
0
  0
MTEXT
  5
F1
100
AcDbEntity
  8
0
  6
CONTINUOUS
 62
    0
370
   -2
100
AcDbMText
 10
305.4537479814005
 20
200.4953522304003
 30
0
 40
6.25
 41
6.250000000000387
 71
    5
 72
    1
  1
15
  7
standard
210
0
220
0
230
1
 50
90
 73
    2
 44
1
  0
LINE
  5
F2
100
AcDbEntity
  8
0
  6
ByBlock
 62
    0
370
   -2
100
AcDbLine
 10
291.4751990510119
 20
192.9767765217603
 11
313.2662479814005
 21
192.9767765217603
  0
LINE
  5
F3
100
AcDbEntity
  8
0
  6
ByBlock
 62
    0
370
   -2
100
AcDbLine
 10
276.3485407800576
 20
208.0139279390403
 11
313.2662479814005
 21
208.0139279390403
  0
ENDBLK
  5
93
330
91
100
AcDbEntity
  8
0
100
AcDbBlockEnd
  0
BLOCK
  5
95
330
94
100
AcDbEntity
  8
0
100
AcDbBlockBegin
  2
*D6
 70
    1
 10
0
 20
0
  3
*D6
  1

  0
LINE
  5
F4
100
AcDbEntity
  8
0
  6
ByBlock
 62
    0
370
   -2
100
AcDbLine
 10
310.0967879599071
 20
-12.5
 11
310.0967879599071
 21
27.52432936380736
  0
SOLID
  5
F5
100
AcDbEntity
  8
0
  6
ByBlock
 62
    0
370
   -2
100
AcDbTrace
 10
310.0967879599071
 20
-1.77635683940025e-15
 30
0
 11
311.1374996043392
 21
-6.250000000000002
 31
0
 12
309.056076315475
 22
-6.250000000000002
 32
0
 13
309.056076315475
 23
-6.250000000000002
 33
0
  0
SOLID
  5
F6
100
AcDbEntity
  8
0
  6
ByBlock
 62
    0
370
   -2
100
AcDbTrace
 10
310.0967879599071
 20
15.02432936380736
 30
0
 11
309.056076315475
 21
21.27432936380736
 31
0
 12
311.1374996043392
 22
21.27432936380736
 32
0
 13
311.1374996043392
 23
21.27432936380736
 33
0
  0
MTEXT
  5
F7
100
AcDbEntity
  8
0
  6
CONTINUOUS
 62
    0
370
   -2
100
AcDbMText
 10
305.4092879599071
 20
7.51216468190368
 30
0
 40
6.25
 41
6.250000000000387
 71
    5
 72
    1
  1
15
  7
standard
210
0
220
0
230
1
 50
90
 73
    2
 44
1
  0
LINE
  5
F8
100
AcDbEntity
  8
0
  6
ByBlock
 62
    0
370
   -2
100
AcDbLine
 10
276.431567162743
 20
0
 11
313.2217879599071
 21
-1.77635683940025e-15
  0
LINE
  5
F9
100
AcDbEntity
  8
0
  6
ByBlock
 62
    0
370
   -2
100
AcDbLine
 10
291.5943696082444
 20
15.02432936380736
 11
313.2217879599071
 21
15.02432936380736
  0
ENDBLK
  5
96
330
94
100
AcDbEntity
  8
0
100
AcDbBlockEnd
  0
BLOCK
  5
98
330
97
100
AcDbEntity
  8
0
100
AcDbBlockBegin
  2
*D11
 70
    1
 10
0
 20
0
  3
*D11
  1

  0
LINE
  5
FA
100
AcDbEntity
  8
0
  6
ByBlock
 62
    0
370
   -2
100
AcDbLine
 10
270.4999400410157
 20
143.8501047099176
 11
302.4956898141424
 21
143.8501047099176
  0
SOLID
  5
FB
100
AcDbEntity
  8
0
  6
ByBlock
 62
    0
370
   -2
100
AcDbTrace
 10
282.9999400410157
 20
143.8501047099176
 30
0
 11
276.7499400410157
 21
142.8093930654855
 31
0
 12
276.7499400410157
 22
144.8908163543497
 32
0
 13
276.7499400410157
 23
144.8908163543497
 33
0
  0
SOLID
  5
FC
100
AcDbEntity
  8
0
  6
ByBlock
 62
    0
370
   -2
100
AcDbTrace
 10
289.9956898141424
 20
143.8501047099176
 30
0
 11
296.2456898141424
 21
144.8908163543497
 31
0
 12
296.2456898141424
 22
142.8093930654855
 32
0
 13
296.2456898141424
 23
142.8093930654855
 33
0
  0
MTEXT
  5
FD
100
AcDbEntity
  8
0
  6
CONTINUOUS
 62
    0
370
   -2
100
AcDbMText
 10
286.497814927579
 20
148.5376047099176
 30
0
 40
6.25
 41
2.777777777777778
 71
    5
 72
    1
  1
7
  7
standard
210
0
220
0
230
1
 50
0
 73
    2
 44
1
  0
LINE
  5
FE
100
AcDbEntity
  8
0
  6
ByBlock
 62
    0
370
   -2
100
AcDbLine
 10
282.9999400410157
 20
139.582813232312
 11
282.9999400410157
 21
146.9751047099176
  0
LINE
  5
FF
100
AcDbEntity
  8
0
  6
ByBlock
 62
    0
370
   -2
100
AcDbLine
 10
289.9956898141424
 20
139.546377035577
 11
289.9956898141424
 21
146.9751047099176
  0
ENDBLK
  5
99
330
97
100
AcDbEntity
  8
0
100
AcDbBlockEnd
  0
BLOCK
  5
9B
330
9A
100
AcDbEntity
  8
0
100
AcDbBlockBegin
  2
*D5
 70
    1
 10
0
 20
0
  3
*D5
  1

  0
LINE
  5
100
100
AcDbEntity
  8
0
  6
ByBlock
 62
    0
370
   -2
100
AcDbLine
 10
262.5823979725703
 20
-19.99775637246747
 11
302.6109838148013
 21
-19.99775637246747
  0
SOLID
  5
101
100
AcDbEntity
  8
0
  6
ByBlock
 62
    0
370
   -2
100
AcDbTrace
 10
275.0823979725703
 20
-19.99775637246747
 30
0
 11
268.8323979725703
 21
-21.03846801689957
 31
0
 12
268.8323979725703
 22
-18.95704472803537
 32
0
 13
268.8323979725703
 23
-18.95704472803537
 33
0
  0
SOLID
  5
102
100
AcDbEntity
  8
0
  6
ByBlock
 62
    0
370
   -2
100
AcDbTrace
 10
290.1109838148013
 20
-19.99775637246747
 30
0
 11
296.3609838148013
 21
-18.95704472803537
 31
0
 12
296.3609838148013
 22
-21.03846801689957
 32
0
 13
296.3609838148013
 23
-21.03846801689957
 33
0
  0
MTEXT
  5
103
100
AcDbEntity
  8
0
  6
CONTINUOUS
 62
    0
370
   -2
100
AcDbMText
 10
282.5966908936858
 20
-15.31025637246747
 30
0
 40
6.25
 41
6.250000000000387
 71
    5
 72
    1
  1
15
  7
standard
210
0
220
0
230
1
 50
0
 73
    2
 44
1
  0
LINE
  5
104
100
AcDbEntity
  8
0
  6
ByBlock
 62
    0
370
   -2
100
AcDbLine
 10
275.0823979725703
 20
-1.5625
 11
275.0823979725703
 21
-23.12275637246747
  0
LINE
  5
105
100
AcDbEntity
  8
0
  6
ByBlock
 62
    0
370
   -2
100
AcDbLine
 10
290.1109838148013
 20
13.60485456865822
 11
290.1109838148013
 21
-23.12275637246747
  0
ENDBLK
  5
9C
330
9A
100
AcDbEntity
  8
0
100
AcDbBlockEnd
  0
BLOCK
  5
9E
330
9D
100
AcDbEntity
  8
0
100
AcDbBlockBegin
  2
*D13
 70
    1
 10
0
 20
0
  3
*D13
  1

  0
LINE
  5
106
100
AcDbEntity
  8
0
  6
ByBlock
 62
    0
370
   -2
100
AcDbLine
 10
39.89356271004775
 20
89.9296394019599
 11
191.9026942776874
 21
89.9296394019599
  0
SOLID
  5
107
100
AcDbEntity
  8
0
  6
ByBlock
 62
    0
370
   -2
100
AcDbTrace
 10
39.89356271004775
 20
89.9296394019599
 30
0
 11
46.14356271004775
 21
90.97035104639201
 31
0
 12
46.14356271004775
 22
88.8889277575278
 32
0
 13
46.14356271004775
 23
88.8889277575278
 33
0
  0
SOLID
  5
108
100
AcDbEntity
  8
0
  6
ByBlock
 62
    0
370
   -2
100
AcDbTrace
 10
191.9026942776874
 20
89.9296394019599
 30
0
 11
185.6526942776874
 21
88.8889277575278
 31
0
 12
185.6526942776874
 22
90.97035104639201
 32
0
 13
185.6526942776874
 23
90.97035104639201
 33
0
  0
MTEXT
  5
109
100
AcDbEntity
  8
0
  6
CONTINUOUS
 62
    0
370
   -2
100
AcDbMText
 10
115.8981284938676
 20
94.6171394019599
 30
0
 40
6.25
 41
11.1111111111115
 71
    5
 72
    1
  1
152
  7
standard
210
0
220
0
230
1
 50
0
 73
    2
 44
1
  0
LINE
  5
10A
100
AcDbEntity
  8
0
  6
ByBlock
 62
    0
370
   -2
100
AcDbLine
 10
39.89356271004774
 20
69.64615676791311
 11
39.89356271004775
 21
93.0546394019599
  0
LINE
  5
10B
100
AcDbEntity
  8
0
  6
ByBlock
 62
    0
370
   -2
100
AcDbLine
 10
191.9026942776874
 20
69.40869508511523
 11
191.9026942776874
 21
93.0546394019599
  0
ENDBLK
  5
9F
330
9D
100
AcDbEntity
  8
0
100
AcDbBlockEnd
  0
BLOCK
  5
A1
330
A0
100
AcDbEntity
  8
0
100
AcDbBlockBegin
  2
*D17
 70
    1
 10
0
 20
0
  3
*D17
  1

  0
LINE
  5
10C
100
AcDbEntity
  8
0
  6
ByBlock
 62
    0
370
   -2
100
AcDbLine
 10
177.939625104499
 20
-19.96002836936784
 11
274.965054487435
 21
-19.96002836936784
  0
SOLID
  5
10D
100
AcDbEntity
  8
0
  6
ByBlock
 62
    0
370
   -2
100
AcDbTrace
 10
177.939625104499
 20
-19.96002836936784
 30
0
 11
184.189625104499
 21
-18.91931672493574
 31
0
 12
184.189625104499
 22
-21.00074001379994
 32
0
 13
184.189625104499
 23
-21.00074001379994
 33
0
  0
SOLID
  5
10E
100
AcDbEntity
  8
0
  6
ByBlock
 62
    0
370
   -2
100
AcDbTrace
 10
274.965054487435
 20
-19.96002836936784
 30
0
 11
268.715054487435
 21
-21.00074001379994
 31
0
 12
268.715054487435
 22
-18.91931672493574
 32
0
 13
268.715054487435
 23
-18.91931672493574
 33
0
  0
MTEXT
  5
10F
100
AcDbEntity
  8
0
  6
CONTINUOUS
 62
    0
370
   -2
100
AcDbMText
 10
226.452339795967
 20
-15.27252836936784
 30
0
 40
6.25
 41
7.638888888889276
 71
    5
 72
    1
  1
97
  7
standard
210
0
220
0
230
1
 50
0
 73
    2
 44
1
  0
LINE
  5
110
100
AcDbEntity
  8
0
  6
ByBlock
 62
    0
370
   -2
100
AcDbLine
 10
177.939625104499
 20
-18.48703522304213
 11
177.939625104499
 21
-16.83502836936784
  0
LINE
  5
111
100
AcDbEntity
  8
0
  6
ByBlock
 62
    0
370
   -2
100
AcDbLine
 10
274.965054487435
 20
-21.43302151569354
 11
274.965054487435
 21
-23.08502836936784
  0
ENDBLK
  5
A2
330
A0
100
AcDbEntity
  8
0
100
AcDbBlockEnd
  0
BLOCK
  5
A4
330
A3
100
AcDbEntity
  8
0
100
AcDbBlockBegin
  2
*D19
 70
    1
 10
0
 20
0
  3
*D19
  1

  0
LINE
  5
112
100
AcDbEntity
  8
0
  6
ByBlock
 62
    0
370
   -2
100
AcDbLine
 10
115.0018943469448
 20
159.8771759040043
 11
3.944304526105059e-31
 21
159.8771759040043
  0
SOLID
  5
113
100
AcDbEntity
  8
0
  6
ByBlock
 62
    0
370
   -2
100
AcDbTrace
 10
115.0018943469448
 20
159.8771759040043
 30
0
 11
108.7518943469448
 21
158.8364642595722
 31
0
 12
108.7518943469448
 22
160.9178875484364
 32
0
 13
108.7518943469448
 23
160.9178875484364
 33
0
  0
SOLID
  5
114
100
AcDbEntity
  8
0
  6
ByBlock
 62
    0
370
   -2
100
AcDbTrace
 10
3.944304526105059e-31
 20
159.8771759040043
 30
0
 11
6.25
 21
160.9178875484364
 31
0
 12
6.25
 22
158.8364642595722
 32
0
 13
6.25
 23
158.8364642595722
 33
0
  0
MTEXT
  5
115
100
AcDbEntity
  8
0
  6
CONTINUOUS
 62
    0
370
   -2
100
AcDbMText
 10
57.50094717347239
 20
164.5646759040043
 30
0
 40
6.25
 41
9.722222222222609
 71
    5
 72
    1
  1
115
  7
standard
210
0
220
0
230
1
 50
360
 73
    2
 44
1
  0
LINE
  5
116
100
AcDbEntity
  8
0
  6
ByBlock
 62
    0
370
   -2
100
AcDbLine
 10
115.0018943469448
 20
201.3698012226942
 11
115.0018943469448
 21
156.7521759040043
  0
LINE
  5
117
100
AcDbEntity
  8
0
  6
ByBlock
 62
    0
370
   -2
100
AcDbLine
 10
-2.870265935501609e-16
 20
188.8478465063789
 11
-5.740531871003214e-16
 21
156.7521759040043
  0
ENDBLK
  5
A5
330
A3
100
AcDbEntity
  8
0
100
AcDbBlockEnd
  0
ENDSEC
  0
SECTION
  2
ENTITIES
  0
LINE
  5
118
100
AcDbEntity
  8
0
  6
CONTINUOUS
 62
  256
370
   50
100
AcDbLine
 10
15
 20
0
 11
275
 21
0
  0
LINE
  5
119
100
AcDbEntity
  8
0
  6
CONTINUOUS
 62
  256
370
   50
100
AcDbLine
 10
290
 20
15
 11
290
 21
193
  0
LINE
  5
11A
100
AcDbEntity
  8
0
  6
CONTINUOUS
 62
  256
370
   50
100
AcDbLine
 10
0
 20
15
 11
0
 21
193
  0
LINE
  5
11B
100
AcDbEntity
  8
0
  6
CONTINUOUS
 62
  256
370
   50
100
AcDbLine
 10
15
 20
208
 11
275
 21
208
  0
LINE
  5
11C
100
AcDbEntity
  8
0
  6
CONTINUOUS
 62
  256
370
   50
100
AcDbLine
 10
-0.02818461514394776
 20
14.99421525658021
 11
14.99709073182799
 21
0
  0
LINE
  5
11D
100
AcDbEntity
  8
0
  6
CONTINUOUS
 62
  256
370
   50
100
AcDbLine
 10
274.9853615074435
 20
0.02180174118032534
 11
290.006892346149
 21
14.94975028692757
  0
LINE
  5
11E
100
AcDbEntity
  8
0
  6
CONTINUOUS
 62
  256
370
   50
100
AcDbLine
 10
289.9995898076072
 20
192.975130377133
 11
274.9953928111111
 21
207.9988619065593
  0
LINE
  5
11F
100
AcDbEntity
  8
0
  6
CONTINUOUS
 62
  256
370
   50
100
AcDbLine
 10
14.96592246868814
 20
207.9988619065657
 11
-0.01062077146010935
 21
193.0219005160273
  0
LINE
  5
120
100
AcDbEntity
  8
Red 2
  6
ByLayer
 62
  256
370
   -1
100
AcDbLine
 10
277.1043258699683
 20
-23.96083450965423
 11
277.1043258699683
 21
-55.96483450965422
  0
LINE
  5
121
100
AcDbEntity
  8
Red 2
  6
ByLayer
 62
  256
370
   -1
100
AcDbLine
 10
277.1043258699683
 20
-55.96483450965422
 11
385.1053258699683
 21
-55.96483450965422
  0
LINE
  5
122
100
AcDbEntity
  8
Red 2
  6
ByLayer
 62
  256
370
   -1
100
AcDbLine
 10
385.1053258699683
 20
-55.96483450965422
 11
385.1053258699683
 21
-23.96083450965423
  0
LINE
  5
123
100
AcDbEntity
  8
Red 2
  6
ByLayer
 62
  256
370
   -1
100
AcDbLine
 10
385.1053258699683
 20
-23.96083450965423
 11
277.1043258699683
 21
-23.96083450965423
  0
LINE
  5
124
100
AcDbEntity
  8
Red 2
  6
ByLayer
 62
  256
370
   -1
100
AcDbLine
 10
-12.88707413003172
 20
219.0405654903458
 11
-12.88707413003172
 21
-57.94683450965425
  0
LINE
  5
125
100
AcDbEntity
  8
Red 2
  6
ByLayer
 62
  256
370
   -1
100
AcDbLine
 10
-12.88707413003172
 20
-57.94683450965425
 11
387.0863258699683
 21
-57.94683450965425
  0
LINE
  5
126
100
AcDbEntity
  8
Red 2
  6
ByLayer
 62
  256
370
   -1
100
AcDbLine
 10
387.0863258699683
 20
-57.94683450965425
 11
387.0863258699683
 21
219.0405654903458
  0
LINE
  5
127
100
AcDbEntity
  8
Red 2
  6
ByLayer
 62
  256
370
   -1
100
AcDbLine
 10
387.0863258699683
 20
219.0405654903458
 11
-12.88707413003172
 21
219.0405654903458
  0
LINE
  5
128
100
AcDbEntity
  8
Red 2
  6
ByLayer
 62
  256
370
   -1
100
AcDbLine
 10
-10.90587413003172
 20
217.0593654903458
 11
-10.90587413003172
 21
-55.96483450965422
  0
LINE
  5
129
100
AcDbEntity
  8
Red 2
  6
ByLayer
 62
  256
370
   -1
100
AcDbLine
 10
-10.90587413003172
 20
-55.96483450965422
 11
385.1053258699683
 21
-55.96483450965422
  0
LINE
  5
12A
100
AcDbEntity
  8
Red 2
  6
ByLayer
 62
  256
370
   -1
100
AcDbLine
 10
385.1053258699683
 20
-55.96483450965422
 11
385.1053258699683
 21
217.0593654903458
  0
LINE
  5
12B
100
AcDbEntity
  8
Red 2
  6
ByLayer
 62
  256
370
   -1
100
AcDbLine
 10
385.1053258699683
 20
217.0593654903458
 11
-10.90587413003172
 21
217.0593654903458
  0
LINE
  5
12C
100
AcDbEntity
  8
Red 2
  6
ByLayer
 62
  256
370
   -1
100
AcDbLine
 10
37.10012586996828
 20
217.0593654903458
 11
37.10012586996828
 21
219.0405654903458
  0
LINE
  5
12D
100
AcDbEntity
  8
Red 2
  6
ByLayer
 62
  256
370
   -1
100
AcDbLine
 10
87.11232586996829
 20
217.0593654903458
 11
87.11232586996829
 21
219.0405654903458
  0
LINE
  5
12E
100
AcDbEntity
  8
Red 2
  6
ByLayer
 62
  256
370
   -1
100
AcDbLine
 10
137.1003258699683
 20
217.0593654903458
 11
137.1003258699683
 21
219.0405654903458
  0
LINE
  5
12F
100
AcDbEntity
  8
Red 2
  6
ByLayer
 62
  256
370
   -1
100
AcDbLine
 10
187.1123258699683
 20
217.0593654903458
 11
187.1123258699683
 21
219.0405654903458
  0
LINE
  5
130
100
AcDbEntity
  8
Red 2
  6
ByLayer
 62
  256
370
   -1
100
AcDbLine
 10
237.0993258699683
 20
217.0593654903458
 11
237.0993258699683
 21
219.0405654903458
  0
LINE
  5
131
100
AcDbEntity
  8
Red 2
  6
ByLayer
 62
  256
370
   -1
100
AcDbLine
 10
287.1123258699683
 20
217.0593654903458
 11
287.1123258699683
 21
219.0405654903458
  0
LINE
  5
132
100
AcDbEntity
  8
Red 2
  6
ByLayer
 62
  256
370
   -1
100
AcDbLine
 10
337.0993258699683
 20
217.0593654903458
 11
337.0993258699683
 21
219.0405654903458
  0
LINE
  5
133
100
AcDbEntity
  8
Red 2
  6
ByLayer
 62
  256
370
   -1
100
AcDbLine
 10
13.09712586996828
 20
217.4657654903457
 11
12.36052586996828
 21
217.4657654903457
  0
LINE
  5
134
100
AcDbEntity
  8
Red 2
  6
ByLayer
 62
  256
370
   -1
100
AcDbLine
 10
12.71612586996828
 20
217.4657654903457
 11
12.71612586996828
 21
218.7611654903457
  0
LINE
  5
135
100
AcDbEntity
  8
Red 2
  6
ByLayer
 62
  256
370
   -1
100
AcDbLine
 10
12.71612586996828
 20
218.7611654903457
 11
12.58912586996829
 21
218.5833654903458
  0
LINE
  5
136
100
AcDbEntity
  8
Red 2
  6
ByLayer
 62
  256
370
   -1
100
AcDbLine
 10
12.58912586996829
 20
218.5833654903458
 11
12.48752586996828
 21
218.4563654903457
  0
LINE
  5
137
100
AcDbEntity
  8
Red 2
  6
ByLayer
 62
  256
370
   -1
100
AcDbLine
 10
12.48752586996828
 20
218.4563654903457
 11
12.36052586996828
 21
218.4055654903458
  0
LINE
  5
138
100
AcDbEntity
  8
Red 2
  6
ByLayer
 62
  256
370
   -1
100
AcDbLine
 10
62.34772586996829
 20
218.6595654903458
 11
62.39852586996828
 21
218.7103654903458
  0
LINE
  5
139
100
AcDbEntity
  8
Red 2
  6
ByLayer
 62
  256
370
   -1
100
AcDbLine
 10
62.39852586996828
 20
218.7103654903458
 11
62.52552586996828
 21
218.7611654903457
  0
LINE
  5
13A
100
AcDbEntity
  8
Red 2
  6
ByLayer
 62
  256
370
   -1
100
AcDbLine
 10
62.52552586996828
 20
218.7611654903457
 11
62.83032586996828
 21
218.7611654903457
  0
LINE
  5
13B
100
AcDbEntity
  8
Red 2
  6
ByLayer
 62
  256
370
   -1
100
AcDbLine
 10
62.83032586996828
 20
218.7611654903457
 11
62.95732586996829
 21
218.7103654903458
  0
LINE
  5
13C
100
AcDbEntity
  8
Red 2
  6
ByLayer
 62
  256
370
   -1
100
AcDbLine
 10
62.95732586996829
 20
218.7103654903458
 11
63.00812586996828
 21
218.6595654903458
  0
LINE
  5
13D
100
AcDbEntity
  8
Red 2
  6
ByLayer
 62
  256
370
   -1
100
AcDbLine
 10
63.00812586996828
 20
218.6595654903458
 11
63.08432586996828
 21
218.5325654903457
  0
LINE
  5
13E
100
AcDbEntity
  8
Red 2
  6
ByLayer
 62
  256
370
   -1
100
AcDbLine
 10
63.08432586996828
 20
218.5325654903457
 11
63.08432586996828
 21
218.4055654903458
  0
LINE
  5
13F
100
AcDbEntity
  8
Red 2
  6
ByLayer
 62
  256
370
   -1
100
AcDbLine
 10
63.08432586996828
 20
218.4055654903458
 11
63.00812586996828
 21
218.2277654903457
  0
LINE
  5
140
100
AcDbEntity
  8
Red 2
  6
ByLayer
 62
  256
370
   -1
100
AcDbLine
 10
63.00812586996828
 20
218.2277654903457
 11
62.27152586996829
 21
217.4657654903457
  0
LINE
  5
141
100
AcDbEntity
  8
Red 2
  6
ByLayer
 62
  256
370
   -1
100
AcDbLine
 10
62.27152586996829
 20
217.4657654903457
 11
63.08432586996828
 21
217.4657654903457
  0
LINE
  5
142
100
AcDbEntity
  8
Red 2
  6
ByLayer
 62
  256
370
   -1
100
AcDbLine
 10
112.2843258699683
 20
218.7611654903457
 11
113.0973258699683
 21
218.7611654903457
  0
LINE
  5
143
100
AcDbEntity
  8
Red 2
  6
ByLayer
 62
  256
370
   -1
100
AcDbLine
 10
113.0973258699683
 20
218.7611654903457
 11
112.6653258699683
 21
218.2785654903458
  0
LINE
  5
144
100
AcDbEntity
  8
Red 2
  6
ByLayer
 62
  256
370
   -1
100
AcDbLine
 10
112.6653258699683
 20
218.2785654903458
 11
112.8433258699683
 21
218.2785654903458
  0
LINE
  5
145
100
AcDbEntity
  8
Red 2
  6
ByLayer
 62
  256
370
   -1
100
AcDbLine
 10
112.8433258699683
 20
218.2785654903458
 11
112.9703258699683
 21
218.2277654903457
  0
LINE
  5
146
100
AcDbEntity
  8
Red 2
  6
ByLayer
 62
  256
370
   -1
100
AcDbLine
 10
112.9703258699683
 20
218.2277654903457
 11
113.0203258699683
 21
218.1515654903457
  0
LINE
  5
147
100
AcDbEntity
  8
Red 2
  6
ByLayer
 62
  256
370
   -1
100
AcDbLine
 10
113.0203258699683
 20
218.1515654903457
 11
113.0973258699683
 21
218.0245654903458
  0
LINE
  5
148
100
AcDbEntity
  8
Red 2
  6
ByLayer
 62
  256
370
   -1
100
AcDbLine
 10
113.0973258699683
 20
218.0245654903458
 11
113.0973258699683
 21
217.7197654903458
  0
LINE
  5
149
100
AcDbEntity
  8
Red 2
  6
ByLayer
 62
  256
370
   -1
100
AcDbLine
 10
113.0973258699683
 20
217.7197654903458
 11
113.0203258699683
 21
217.5927654903458
  0
LINE
  5
14A
100
AcDbEntity
  8
Red 2
  6
ByLayer
 62
  256
370
   -1
100
AcDbLine
 10
113.0203258699683
 20
217.5927654903458
 11
112.9703258699683
 21
217.5419654903457
  0
LINE
  5
14B
100
AcDbEntity
  8
Red 2
  6
ByLayer
 62
  256
370
   -1
100
AcDbLine
 10
112.9703258699683
 20
217.5419654903457
 11
112.8433258699683
 21
217.4657654903457
  0
LINE
  5
14C
100
AcDbEntity
  8
Red 2
  6
ByLayer
 62
  256
370
   -1
100
AcDbLine
 10
112.8433258699683
 20
217.4657654903457
 11
112.4873258699683
 21
217.4657654903457
  0
LINE
  5
14D
100
AcDbEntity
  8
Red 2
  6
ByLayer
 62
  256
370
   -1
100
AcDbLine
 10
112.4873258699683
 20
217.4657654903457
 11
112.3603258699683
 21
217.5419654903457
  0
LINE
  5
14E
100
AcDbEntity
  8
Red 2
  6
ByLayer
 62
  256
370
   -1
100
AcDbLine
 10
112.3603258699683
 20
217.5419654903457
 11
112.2843258699683
 21
217.5927654903458
  0
LINE
  5
14F
100
AcDbEntity
  8
Red 2
  6
ByLayer
 62
  256
370
   -1
100
AcDbLine
 10
162.9573258699683
 20
218.3293654903458
 11
162.9573258699683
 21
217.4657654903457
  0
LINE
  5
150
100
AcDbEntity
  8
Red 2
  6
ByLayer
 62
  256
370
   -1
100
AcDbLine
 10
162.6523258699683
 20
218.8373654903457
 11
162.3473258699683
 21
217.8975654903458
  0
LINE
  5
151
100
AcDbEntity
  8
Red 2
  6
ByLayer
 62
  256
370
   -1
100
AcDbLine
 10
162.3473258699683
 20
217.8975654903458
 11
163.1353258699683
 21
217.8975654903458
  0
LINE
  5
152
100
AcDbEntity
  8
Red 2
  6
ByLayer
 62
  256
370
   -1
100
AcDbLine
 10
213.0203258699683
 20
218.7611654903457
 11
212.4113258699683
 21
218.7611654903457
  0
LINE
  5
153
100
AcDbEntity
  8
Red 2
  6
ByLayer
 62
  256
370
   -1
100
AcDbLine
 10
212.4113258699683
 20
218.7611654903457
 11
212.3603258699683
 21
218.1515654903457
  0
LINE
  5
154
100
AcDbEntity
  8
Red 2
  6
ByLayer
 62
  256
370
   -1
100
AcDbLine
 10
212.3603258699683
 20
218.1515654903457
 11
212.4113258699683
 21
218.2277654903457
  0
LINE
  5
155
100
AcDbEntity
  8
Red 2
  6
ByLayer
 62
  256
370
   -1
100
AcDbLine
 10
212.4113258699683
 20
218.2277654903457
 11
212.5383258699683
 21
218.2785654903458
  0
LINE
  5
156
100
AcDbEntity
  8
Red 2
  6
ByLayer
 62
  256
370
   -1
100
AcDbLine
 10
212.5383258699683
 20
218.2785654903458
 11
212.8423258699683
 21
218.2785654903458
  0
LINE
  5
157
100
AcDbEntity
  8
Red 2
  6
ByLayer
 62
  256
370
   -1
100
AcDbLine
 10
212.8423258699683
 20
218.2785654903458
 11
212.9693258699683
 21
218.2277654903457
  0
LINE
  5
158
100
AcDbEntity
  8
Red 2
  6
ByLayer
 62
  256
370
   -1
100
AcDbLine
 10
212.9693258699683
 20
218.2277654903457
 11
213.0203258699683
 21
218.1515654903457
  0
LINE
  5
159
100
AcDbEntity
  8
Red 2
  6
ByLayer
 62
  256
370
   -1
100
AcDbLine
 10
213.0203258699683
 20
218.1515654903457
 11
213.0963258699683
 21
218.0245654903458
  0
LINE
  5
15A
100
AcDbEntity
  8
Red 2
  6
ByLayer
 62
  256
370
   -1
100
AcDbLine
 10
213.0963258699683
 20
218.0245654903458
 11
213.0963258699683
 21
217.7197654903458
  0
LINE
  5
15B
100
AcDbEntity
  8
Red 2
  6
ByLayer
 62
  256
370
   -1
100
AcDbLine
 10
213.0963258699683
 20
217.7197654903458
 11
213.0203258699683
 21
217.5927654903458
  0
LINE
  5
15C
100
AcDbEntity
  8
Red 2
  6
ByLayer
 62
  256
370
   -1
100
AcDbLine
 10
213.0203258699683
 20
217.5927654903458
 11
212.9693258699683
 21
217.5419654903457
  0
LINE
  5
15D
100
AcDbEntity
  8
Red 2
  6
ByLayer
 62
  256
370
   -1
100
AcDbLine
 10
212.9693258699683
 20
217.5419654903457
 11
212.8423258699683
 21
217.4657654903457
  0
LINE
  5
15E
100
AcDbEntity
  8
Red 2
  6
ByLayer
 62
  256
370
   -1
100
AcDbLine
 10
212.8423258699683
 20
217.4657654903457
 11
212.5383258699683
 21
217.4657654903457
  0
LINE
  5
15F
100
AcDbEntity
  8
Red 2
  6
ByLayer
 62
  256
370
   -1
100
AcDbLine
 10
212.5383258699683
 20
217.4657654903457
 11
212.4113258699683
 21
217.5419654903457
  0
LINE
  5
160
100
AcDbEntity
  8
Red 2
  6
ByLayer
 62
  256
370
   -1
100
AcDbLine
 10
212.4113258699683
 20
217.5419654903457
 11
212.3603258699683
 21
217.5927654903458
  0
LINE
  5
161
100
AcDbEntity
  8
Red 2
  6
ByLayer
 62
  256
370
   -1
100
AcDbLine
 10
262.9573258699683
 20
218.7611654903457
 11
262.7033258699683
 21
218.7611654903457
  0
LINE
  5
162
100
AcDbEntity
  8
Red 2
  6
ByLayer
 62
  256
370
   -1
100
AcDbLine
 10
262.7033258699683
 20
218.7611654903457
 11
262.5763258699683
 21
218.7103654903458
  0
LINE
  5
163
100
AcDbEntity
  8
Red 2
  6
ByLayer
 62
  256
370
   -1
100
AcDbLine
 10
262.5763258699683
 20
218.7103654903458
 11
262.5253258699683
 21
218.6595654903458
  0
LINE
  5
164
100
AcDbEntity
  8
Red 2
  6
ByLayer
 62
  256
370
   -1
100
AcDbLine
 10
262.5253258699683
 20
218.6595654903458
 11
262.3983258699683
 21
218.4563654903457
  0
LINE
  5
165
100
AcDbEntity
  8
Red 2
  6
ByLayer
 62
  256
370
   -1
100
AcDbLine
 10
262.3983258699683
 20
218.4563654903457
 11
262.3473258699683
 21
218.2277654903457
  0
LINE
  5
166
100
AcDbEntity
  8
Red 2
  6
ByLayer
 62
  256
370
   -1
100
AcDbLine
 10
262.3473258699683
 20
218.2277654903457
 11
262.3473258699683
 21
217.7197654903458
  0
LINE
  5
167
100
AcDbEntity
  8
Red 2
  6
ByLayer
 62
  256
370
   -1
100
AcDbLine
 10
262.3473258699683
 20
217.7197654903458
 11
262.3983258699683
 21
217.5927654903458
  0
LINE
  5
168
100
AcDbEntity
  8
Red 2
  6
ByLayer
 62
  256
370
   -1
100
AcDbLine
 10
262.3983258699683
 20
217.5927654903458
 11
262.4743258699683
 21
217.5419654903457
  0
LINE
  5
169
100
AcDbEntity
  8
Red 2
  6
ByLayer
 62
  256
370
   -1
100
AcDbLine
 10
262.4743258699683
 20
217.5419654903457
 11
262.5763258699683
 21
217.4657654903457
  0
LINE
  5
16A
100
AcDbEntity
  8
Red 2
  6
ByLayer
 62
  256
370
   -1
100
AcDbLine
 10
262.5763258699683
 20
217.4657654903457
 11
262.8303258699683
 21
217.4657654903457
  0
LINE
  5
16B
100
AcDbEntity
  8
Red 2
  6
ByLayer
 62
  256
370
   -1
100
AcDbLine
 10
262.8303258699683
 20
217.4657654903457
 11
262.9573258699683
 21
217.5419654903457
  0
LINE
  5
16C
100
AcDbEntity
  8
Red 2
  6
ByLayer
 62
  256
370
   -1
100
AcDbLine
 10
262.9573258699683
 20
217.5419654903457
 11
263.0073258699683
 21
217.5927654903458
  0
LINE
  5
16D
100
AcDbEntity
  8
Red 2
  6
ByLayer
 62
  256
370
   -1
100
AcDbLine
 10
263.0073258699683
 20
217.5927654903458
 11
263.0843258699683
 21
217.7197654903458
  0
LINE
  5
16E
100
AcDbEntity
  8
Red 2
  6
ByLayer
 62
  256
370
   -1
100
AcDbLine
 10
263.0843258699683
 20
217.7197654903458
 11
263.0843258699683
 21
218.0245654903458
  0
LINE
  5
16F
100
AcDbEntity
  8
Red 2
  6
ByLayer
 62
  256
370
   -1
100
AcDbLine
 10
263.0843258699683
 20
218.0245654903458
 11
263.0073258699683
 21
218.1515654903457
  0
LINE
  5
170
100
AcDbEntity
  8
Red 2
  6
ByLayer
 62
  256
370
   -1
100
AcDbLine
 10
263.0073258699683
 20
218.1515654903457
 11
262.9573258699683
 21
218.2277654903457
  0
LINE
  5
171
100
AcDbEntity
  8
Red 2
  6
ByLayer
 62
  256
370
   -1
100
AcDbLine
 10
262.9573258699683
 20
218.2277654903457
 11
262.8303258699683
 21
218.2785654903458
  0
LINE
  5
172
100
AcDbEntity
  8
Red 2
  6
ByLayer
 62
  256
370
   -1
100
AcDbLine
 10
262.8303258699683
 20
218.2785654903458
 11
262.5763258699683
 21
218.2785654903458
  0
LINE
  5
173
100
AcDbEntity
  8
Red 2
  6
ByLayer
 62
  256
370
   -1
100
AcDbLine
 10
262.5763258699683
 20
218.2785654903458
 11
262.4743258699683
 21
218.2277654903457
  0
LINE
  5
174
100
AcDbEntity
  8
Red 2
  6
ByLayer
 62
  256
370
   -1
100
AcDbLine
 10
262.4743258699683
 20
218.2277654903457
 11
262.3983258699683
 21
218.1515654903457
  0
LINE
  5
175
100
AcDbEntity
  8
Red 2
  6
ByLayer
 62
  256
370
   -1
100
AcDbLine
 10
262.3983258699683
 20
218.1515654903457
 11
262.3473258699683
 21
218.0245654903458
  0
LINE
  5
176
100
AcDbEntity
  8
Red 2
  6
ByLayer
 62
  256
370
   -1
100
AcDbLine
 10
312.2833258699683
 20
218.7611654903457
 11
313.1473258699683
 21
218.7611654903457
  0
LINE
  5
177
100
AcDbEntity
  8
Red 2
  6
ByLayer
 62
  256
370
   -1
100
AcDbLine
 10
313.1473258699683
 20
218.7611654903457
 11
312.5883258699683
 21
217.4657654903457
  0
LINE
  5
178
100
AcDbEntity
  8
Red 2
  6
ByLayer
 62
  256
370
   -1
100
AcDbLine
 10
362.5753258699683
 20
218.2277654903457
 11
362.4743258699683
 21
218.2785654903458
  0
LINE
  5
179
100
AcDbEntity
  8
Red 2
  6
ByLayer
 62
  256
370
   -1
100
AcDbLine
 10
362.4743258699683
 20
218.2785654903458
 11
362.3983258699683
 21
218.3293654903458
  0
LINE
  5
17A
100
AcDbEntity
  8
Red 2
  6
ByLayer
 62
  256
370
   -1
100
AcDbLine
 10
362.3983258699683
 20
218.3293654903458
 11
362.3473258699683
 21
218.4563654903457
  0
LINE
  5
17B
100
AcDbEntity
  8
Red 2
  6
ByLayer
 62
  256
370
   -1
100
AcDbLine
 10
362.3473258699683
 20
218.4563654903457
 11
362.3473258699683
 21
218.5325654903457
  0
LINE
  5
17C
100
AcDbEntity
  8
Red 2
  6
ByLayer
 62
  256
370
   -1
100
AcDbLine
 10
362.3473258699683
 20
218.5325654903457
 11
362.3983258699683
 21
218.6595654903458
  0
LINE
  5
17D
100
AcDbEntity
  8
Red 2
  6
ByLayer
 62
  256
370
   -1
100
AcDbLine
 10
362.3983258699683
 20
218.6595654903458
 11
362.4743258699683
 21
218.7103654903458
  0
LINE
  5
17E
100
AcDbEntity
  8
Red 2
  6
ByLayer
 62
  256
370
   -1
100
AcDbLine
 10
362.4743258699683
 20
218.7103654903458
 11
362.5753258699683
 21
218.7611654903457
  0
LINE
  5
17F
100
AcDbEntity
  8
Red 2
  6
ByLayer
 62
  256
370
   -1
100
AcDbLine
 10
362.5753258699683
 20
218.7611654903457
 11
362.8293258699683
 21
218.7611654903457
  0
LINE
  5
180
100
AcDbEntity
  8
Red 2
  6
ByLayer
 62
  256
370
   -1
100
AcDbLine
 10
362.8293258699683
 20
218.7611654903457
 11
362.9563258699683
 21
218.7103654903458
  0
LINE
  5
181
100
AcDbEntity
  8
Red 2
  6
ByLayer
 62
  256
370
   -1
100
AcDbLine
 10
362.9563258699683
 20
218.7103654903458
 11
363.0073258699683
 21
218.6595654903458
  0
LINE
  5
182
100
AcDbEntity
  8
Red 2
  6
ByLayer
 62
  256
370
   -1
100
AcDbLine
 10
363.0073258699683
 20
218.6595654903458
 11
363.0833258699683
 21
218.5325654903457
  0
LINE
  5
183
100
AcDbEntity
  8
Red 2
  6
ByLayer
 62
  256
370
   -1
100
AcDbLine
 10
363.0833258699683
 20
218.5325654903457
 11
363.0833258699683
 21
218.4563654903457
  0
LINE
  5
184
100
AcDbEntity
  8
Red 2
  6
ByLayer
 62
  256
370
   -1
100
AcDbLine
 10
363.0833258699683
 20
218.4563654903457
 11
363.0073258699683
 21
218.3293654903458
  0
LINE
  5
185
100
AcDbEntity
  8
Red 2
  6
ByLayer
 62
  256
370
   -1
100
AcDbLine
 10
363.0073258699683
 20
218.3293654903458
 11
362.9563258699683
 21
218.2785654903458
  0
LINE
  5
186
100
AcDbEntity
  8
Red 2
  6
ByLayer
 62
  256
370
   -1
100
AcDbLine
 10
362.9563258699683
 20
218.2785654903458
 11
362.8293258699683
 21
218.2277654903457
  0
LINE
  5
187
100
AcDbEntity
  8
Red 2
  6
ByLayer
 62
  256
370
   -1
100
AcDbLine
 10
362.8293258699683
 20
218.2277654903457
 11
362.5753258699683
 21
218.2277654903457
  0
LINE
  5
188
100
AcDbEntity
  8
Red 2
  6
ByLayer
 62
  256
370
   -1
100
AcDbLine
 10
362.5753258699683
 20
218.2277654903457
 11
362.4743258699683
 21
218.1515654903457
  0
LINE
  5
189
100
AcDbEntity
  8
Red 2
  6
ByLayer
 62
  256
370
   -1
100
AcDbLine
 10
362.4743258699683
 20
218.1515654903457
 11
362.3983258699683
 21
218.1007654903458
  0
LINE
  5
18A
100
AcDbEntity
  8
Red 2
  6
ByLayer
 62
  256
370
   -1
100
AcDbLine
 10
362.3983258699683
 20
218.1007654903458
 11
362.3473258699683
 21
217.9737654903458
  0
LINE
  5
18B
100
AcDbEntity
  8
Red 2
  6
ByLayer
 62
  256
370
   -1
100
AcDbLine
 10
362.3473258699683
 20
217.9737654903458
 11
362.3473258699683
 21
217.7197654903458
  0
LINE
  5
18C
100
AcDbEntity
  8
Red 2
  6
ByLayer
 62
  256
370
   -1
100
AcDbLine
 10
362.3473258699683
 20
217.7197654903458
 11
362.3983258699683
 21
217.5927654903458
  0
LINE
  5
18D
100
AcDbEntity
  8
Red 2
  6
ByLayer
 62
  256
370
   -1
100
AcDbLine
 10
362.3983258699683
 20
217.5927654903458
 11
362.4743258699683
 21
217.5419654903457
  0
LINE
  5
18E
100
AcDbEntity
  8
Red 2
  6
ByLayer
 62
  256
370
   -1
100
AcDbLine
 10
362.4743258699683
 20
217.5419654903457
 11
362.5753258699683
 21
217.4657654903457
  0
LINE
  5
18F
100
AcDbEntity
  8
Red 2
  6
ByLayer
 62
  256
370
   -1
100
AcDbLine
 10
362.5753258699683
 20
217.4657654903457
 11
362.8293258699683
 21
217.4657654903457
  0
LINE
  5
190
100
AcDbEntity
  8
Red 2
  6
ByLayer
 62
  256
370
   -1
100
AcDbLine
 10
362.8293258699683
 20
217.4657654903457
 11
362.9563258699683
 21
217.5419654903457
  0
LINE
  5
191
100
AcDbEntity
  8
Red 2
  6
ByLayer
 62
  256
370
   -1
100
AcDbLine
 10
362.9563258699683
 20
217.5419654903457
 11
363.0073258699683
 21
217.5927654903458
  0
LINE
  5
192
100
AcDbEntity
  8
Red 2
  6
ByLayer
 62
  256
370
   -1
100
AcDbLine
 10
363.0073258699683
 20
217.5927654903458
 11
363.0833258699683
 21
217.7197654903458
  0
LINE
  5
193
100
AcDbEntity
  8
Red 2
  6
ByLayer
 62
  256
370
   -1
100
AcDbLine
 10
363.0833258699683
 20
217.7197654903458
 11
363.0833258699683
 21
217.9737654903458
  0
LINE
  5
194
100
AcDbEntity
  8
Red 2
  6
ByLayer
 62
  256
370
   -1
100
AcDbLine
 10
363.0833258699683
 20
217.9737654903458
 11
363.0073258699683
 21
218.1007654903458
  0
LINE
  5
195
100
AcDbEntity
  8
Red 2
  6
ByLayer
 62
  256
370
   -1
100
AcDbLine
 10
363.0073258699683
 20
218.1007654903458
 11
362.9563258699683
 21
218.1515654903457
  0
LINE
  5
196
100
AcDbEntity
  8
Red 2
  6
ByLayer
 62
  256
370
   -1
100
AcDbLine
 10
362.9563258699683
 20
218.1515654903457
 11
362.8293258699683
 21
218.2277654903457
  0
LINE
  5
197
100
AcDbEntity
  8
Red 2
  6
ByLayer
 62
  256
370
   -1
100
AcDbLine
 10
37.10012586996828
 20
-55.96483450965422
 11
37.10012586996828
 21
-57.94683450965425
  0
LINE
  5
198
100
AcDbEntity
  8
Red 2
  6
ByLayer
 62
  256
370
   -1
100
AcDbLine
 10
87.11232586996829
 20
-55.96483450965422
 11
87.11232586996829
 21
-57.94683450965425
  0
LINE
  5
199
100
AcDbEntity
  8
Red 2
  6
ByLayer
 62
  256
370
   -1
100
AcDbLine
 10
137.1003258699683
 20
-55.96483450965422
 11
137.1003258699683
 21
-57.94683450965425
  0
LINE
  5
19A
100
AcDbEntity
  8
Red 2
  6
ByLayer
 62
  256
370
   -1
100
AcDbLine
 10
187.1123258699683
 20
-55.96483450965422
 11
187.1123258699683
 21
-57.94683450965425
  0
LINE
  5
19B
100
AcDbEntity
  8
Red 2
  6
ByLayer
 62
  256
370
   -1
100
AcDbLine
 10
237.0993258699683
 20
-55.96483450965422
 11
237.0993258699683
 21
-57.94683450965425
  0
LINE
  5
19C
100
AcDbEntity
  8
Red 2
  6
ByLayer
 62
  256
370
   -1
100
AcDbLine
 10
287.1123258699683
 20
-55.96483450965422
 11
287.1123258699683
 21
-57.94683450965425
  0
LINE
  5
19D
100
AcDbEntity
  8
Red 2
  6
ByLayer
 62
  256
370
   -1
100
AcDbLine
 10
337.0993258699683
 20
-55.96483450965422
 11
337.0993258699683
 21
-57.94683450965425
  0
LINE
  5
19E
100
AcDbEntity
  8
Red 2
  6
ByLayer
 62
  256
370
   -1
100
AcDbLine
 10
13.09712586996828
 20
-57.53983450965427
 11
12.36052586996828
 21
-57.53983450965427
  0
LINE
  5
19F
100
AcDbEntity
  8
Red 2
  6
ByLayer
 62
  256
370
   -1
100
AcDbLine
 10
12.71612586996828
 20
-57.53983450965427
 11
12.71612586996828
 21
-56.24483450965425
  0
LINE
  5
1A0
100
AcDbEntity
  8
Red 2
  6
ByLayer
 62
  256
370
   -1
100
AcDbLine
 10
12.71612586996828
 20
-56.24483450965425
 11
12.58912586996829
 21
-56.42283450965425
  0
LINE
  5
1A1
100
AcDbEntity
  8
Red 2
  6
ByLayer
 62
  256
370
   -1
100
AcDbLine
 10
12.58912586996829
 20
-56.42283450965425
 11
12.48752586996828
 21
-56.54983450965426
  0
LINE
  5
1A2
100
AcDbEntity
  8
Red 2
  6
ByLayer
 62
  256
370
   -1
100
AcDbLine
 10
12.48752586996828
 20
-56.54983450965426
 11
12.36052586996828
 21
-56.59983450965427
  0
LINE
  5
1A3
100
AcDbEntity
  8
Red 2
  6
ByLayer
 62
  256
370
   -1
100
AcDbLine
 10
62.34772586996829
 20
-56.34583450965425
 11
62.39852586996828
 21
-56.29583450965424
  0
LINE
  5
1A4
100
AcDbEntity
  8
Red 2
  6
ByLayer
 62
  256
370
   -1
100
AcDbLine
 10
62.39852586996828
 20
-56.29583450965424
 11
62.52552586996828
 21
-56.24483450965425
  0
LINE
  5
1A5
100
AcDbEntity
  8
Red 2
  6
ByLayer
 62
  256
370
   -1
100
AcDbLine
 10
62.52552586996828
 20
-56.24483450965425
 11
62.83032586996828
 21
-56.24483450965425
  0
LINE
  5
1A6
100
AcDbEntity
  8
Red 2
  6
ByLayer
 62
  256
370
   -1
100
AcDbLine
 10
62.83032586996828
 20
-56.24483450965425
 11
62.95732586996829
 21
-56.29583450965424
  0
LINE
  5
1A7
100
AcDbEntity
  8
Red 2
  6
ByLayer
 62
  256
370
   -1
100
AcDbLine
 10
62.95732586996829
 20
-56.29583450965424
 11
63.00812586996828
 21
-56.34583450965425
  0
LINE
  5
1A8
100
AcDbEntity
  8
Red 2
  6
ByLayer
 62
  256
370
   -1
100
AcDbLine
 10
63.00812586996828
 20
-56.34583450965425
 11
63.08432586996828
 21
-56.47283450965426
  0
LINE
  5
1A9
100
AcDbEntity
  8
Red 2
  6
ByLayer
 62
  256
370
   -1
100
AcDbLine
 10
63.08432586996828
 20
-56.47283450965426
 11
63.08432586996828
 21
-56.59983450965427
  0
LINE
  5
1AA
100
AcDbEntity
  8
Red 2
  6
ByLayer
 62
  256
370
   -1
100
AcDbLine
 10
63.08432586996828
 20
-56.59983450965427
 11
63.00812586996828
 21
-56.77783450965427
  0
LINE
  5
1AB
100
AcDbEntity
  8
Red 2
  6
ByLayer
 62
  256
370
   -1
100
AcDbLine
 10
63.00812586996828
 20
-56.77783450965427
 11
62.27152586996829
 21
-57.53983450965427
  0
LINE
  5
1AC
100
AcDbEntity
  8
Red 2
  6
ByLayer
 62
  256
370
   -1
100
AcDbLine
 10
62.27152586996829
 20
-57.53983450965427
 11
63.08432586996828
 21
-57.53983450965427
  0
LINE
  5
1AD
100
AcDbEntity
  8
Red 2
  6
ByLayer
 62
  256
370
   -1
100
AcDbLine
 10
112.2843258699683
 20
-56.24483450965425
 11
113.0973258699683
 21
-56.24483450965425
  0
LINE
  5
1AE
100
AcDbEntity
  8
Red 2
  6
ByLayer
 62
  256
370
   -1
100
AcDbLine
 10
113.0973258699683
 20
-56.24483450965425
 11
112.6653258699683
 21
-56.72683450965422
  0
LINE
  5
1AF
100
AcDbEntity
  8
Red 2
  6
ByLayer
 62
  256
370
   -1
100
AcDbLine
 10
112.6653258699683
 20
-56.72683450965422
 11
112.8433258699683
 21
-56.72683450965422
  0
LINE
  5
1B0
100
AcDbEntity
  8
Red 2
  6
ByLayer
 62
  256
370
   -1
100
AcDbLine
 10
112.8433258699683
 20
-56.72683450965422
 11
112.9703258699683
 21
-56.77783450965427
  0
LINE
  5
1B1
100
AcDbEntity
  8
Red 2
  6
ByLayer
 62
  256
370
   -1
100
AcDbLine
 10
112.9703258699683
 20
-56.77783450965427
 11
113.0203258699683
 21
-56.85383450965423
  0
LINE
  5
1B2
100
AcDbEntity
  8
Red 2
  6
ByLayer
 62
  256
370
   -1
100
AcDbLine
 10
113.0203258699683
 20
-56.85383450965423
 11
113.0973258699683
 21
-56.98083450965424
  0
LINE
  5
1B3
100
AcDbEntity
  8
Red 2
  6
ByLayer
 62
  256
370
   -1
100
AcDbLine
 10
113.0973258699683
 20
-56.98083450965424
 11
113.0973258699683
 21
-57.28583450965425
  0
LINE
  5
1B4
100
AcDbEntity
  8
Red 2
  6
ByLayer
 62
  256
370
   -1
100
AcDbLine
 10
113.0973258699683
 20
-57.28583450965425
 11
113.0203258699683
 21
-57.41283450965426
  0
LINE
  5
1B5
100
AcDbEntity
  8
Red 2
  6
ByLayer
 62
  256
370
   -1
100
AcDbLine
 10
113.0203258699683
 20
-57.41283450965426
 11
112.9703258699683
 21
-57.46383450965425
  0
LINE
  5
1B6
100
AcDbEntity
  8
Red 2
  6
ByLayer
 62
  256
370
   -1
100
AcDbLine
 10
112.9703258699683
 20
-57.46383450965425
 11
112.8433258699683
 21
-57.53983450965427
  0
LINE
  5
1B7
100
AcDbEntity
  8
Red 2
  6
ByLayer
 62
  256
370
   -1
100
AcDbLine
 10
112.8433258699683
 20
-57.53983450965427
 11
112.4873258699683
 21
-57.53983450965427
  0
LINE
  5
1B8
100
AcDbEntity
  8
Red 2
  6
ByLayer
 62
  256
370
   -1
100
AcDbLine
 10
112.4873258699683
 20
-57.53983450965427
 11
112.3603258699683
 21
-57.46383450965425
  0
LINE
  5
1B9
100
AcDbEntity
  8
Red 2
  6
ByLayer
 62
  256
370
   -1
100
AcDbLine
 10
112.3603258699683
 20
-57.46383450965425
 11
112.2843258699683
 21
-57.41283450965426
  0
LINE
  5
1BA
100
AcDbEntity
  8
Red 2
  6
ByLayer
 62
  256
370
   -1
100
AcDbLine
 10
162.9573258699683
 20
-56.67683450965427
 11
162.9573258699683
 21
-57.53983450965427
  0
LINE
  5
1BB
100
AcDbEntity
  8
Red 2
  6
ByLayer
 62
  256
370
   -1
100
AcDbLine
 10
162.6523258699683
 20
-56.16883450965423
 11
162.3473258699683
 21
-57.10783450965425
  0
LINE
  5
1BC
100
AcDbEntity
  8
Red 2
  6
ByLayer
 62
  256
370
   -1
100
AcDbLine
 10
162.3473258699683
 20
-57.10783450965425
 11
163.1353258699683
 21
-57.10783450965425
  0
LINE
  5
1BD
100
AcDbEntity
  8
Red 2
  6
ByLayer
 62
  256
370
   -1
100
AcDbLine
 10
213.0203258699683
 20
-56.24483450965425
 11
212.4113258699683
 21
-56.24483450965425
  0
LINE
  5
1BE
100
AcDbEntity
  8
Red 2
  6
ByLayer
 62
  256
370
   -1
100
AcDbLine
 10
212.4113258699683
 20
-56.24483450965425
 11
212.3603258699683
 21
-56.85383450965423
  0
LINE
  5
1BF
100
AcDbEntity
  8
Red 2
  6
ByLayer
 62
  256
370
   -1
100
AcDbLine
 10
212.3603258699683
 20
-56.85383450965423
 11
212.4113258699683
 21
-56.77783450965427
  0
LINE
  5
1C0
100
AcDbEntity
  8
Red 2
  6
ByLayer
 62
  256
370
   -1
100
AcDbLine
 10
212.4113258699683
 20
-56.77783450965427
 11
212.5383258699683
 21
-56.72683450965422
  0
LINE
  5
1C1
100
AcDbEntity
  8
Red 2
  6
ByLayer
 62
  256
370
   -1
100
AcDbLine
 10
212.5383258699683
 20
-56.72683450965422
 11
212.8423258699683
 21
-56.72683450965422
  0
LINE
  5
1C2
100
AcDbEntity
  8
Red 2
  6
ByLayer
 62
  256
370
   -1
100
AcDbLine
 10
212.8423258699683
 20
-56.72683450965422
 11
212.9693258699683
 21
-56.77783450965427
  0
LINE
  5
1C3
100
AcDbEntity
  8
Red 2
  6
ByLayer
 62
  256
370
   -1
100
AcDbLine
 10
212.9693258699683
 20
-56.77783450965427
 11
213.0203258699683
 21
-56.85383450965423
  0
LINE
  5
1C4
100
AcDbEntity
  8
Red 2
  6
ByLayer
 62
  256
370
   -1
100
AcDbLine
 10
213.0203258699683
 20
-56.85383450965423
 11
213.0963258699683
 21
-56.98083450965424
  0
LINE
  5
1C5
100
AcDbEntity
  8
Red 2
  6
ByLayer
 62
  256
370
   -1
100
AcDbLine
 10
213.0963258699683
 20
-56.98083450965424
 11
213.0963258699683
 21
-57.28583450965425
  0
LINE
  5
1C6
100
AcDbEntity
  8
Red 2
  6
ByLayer
 62
  256
370
   -1
100
AcDbLine
 10
213.0963258699683
 20
-57.28583450965425
 11
213.0203258699683
 21
-57.41283450965426
  0
LINE
  5
1C7
100
AcDbEntity
  8
Red 2
  6
ByLayer
 62
  256
370
   -1
100
AcDbLine
 10
213.0203258699683
 20
-57.41283450965426
 11
212.9693258699683
 21
-57.46383450965425
  0
LINE
  5
1C8
100
AcDbEntity
  8
Red 2
  6
ByLayer
 62
  256
370
   -1
100
AcDbLine
 10
212.9693258699683
 20
-57.46383450965425
 11
212.8423258699683
 21
-57.53983450965427
  0
LINE
  5
1C9
100
AcDbEntity
  8
Red 2
  6
ByLayer
 62
  256
370
   -1
100
AcDbLine
 10
212.8423258699683
 20
-57.53983450965427
 11
212.5383258699683
 21
-57.53983450965427
  0
LINE
  5
1CA
100
AcDbEntity
  8
Red 2
  6
ByLayer
 62
  256
370
   -1
100
AcDbLine
 10
212.5383258699683
 20
-57.53983450965427
 11
212.4113258699683
 21
-57.46383450965425
  0
LINE
  5
1CB
100
AcDbEntity
  8
Red 2
  6
ByLayer
 62
  256
370
   -1
100
AcDbLine
 10
212.4113258699683
 20
-57.46383450965425
 11
212.3603258699683
 21
-57.41283450965426
  0
LINE
  5
1CC
100
AcDbEntity
  8
Red 2
  6
ByLayer
 62
  256
370
   -1
100
AcDbLine
 10
262.9573258699683
 20
-56.24483450965425
 11
262.7033258699683
 21
-56.24483450965425
  0
LINE
  5
1CD
100
AcDbEntity
  8
Red 2
  6
ByLayer
 62
  256
370
   -1
100
AcDbLine
 10
262.7033258699683
 20
-56.24483450965425
 11
262.5763258699683
 21
-56.29583450965424
  0
LINE
  5
1CE
100
AcDbEntity
  8
Red 2
  6
ByLayer
 62
  256
370
   -1
100
AcDbLine
 10
262.5763258699683
 20
-56.29583450965424
 11
262.5253258699683
 21
-56.34583450965425
  0
LINE
  5
1CF
100
AcDbEntity
  8
Red 2
  6
ByLayer
 62
  256
370
   -1
100
AcDbLine
 10
262.5253258699683
 20
-56.34583450965425
 11
262.3983258699683
 21
-56.54983450965426
  0
LINE
  5
1D0
100
AcDbEntity
  8
Red 2
  6
ByLayer
 62
  256
370
   -1
100
AcDbLine
 10
262.3983258699683
 20
-56.54983450965426
 11
262.3473258699683
 21
-56.77783450965427
  0
LINE
  5
1D1
100
AcDbEntity
  8
Red 2
  6
ByLayer
 62
  256
370
   -1
100
AcDbLine
 10
262.3473258699683
 20
-56.77783450965427
 11
262.3473258699683
 21
-57.28583450965425
  0
LINE
  5
1D2
100
AcDbEntity
  8
Red 2
  6
ByLayer
 62
  256
370
   -1
100
AcDbLine
 10
262.3473258699683
 20
-57.28583450965425
 11
262.3983258699683
 21
-57.41283450965426
  0
LINE
  5
1D3
100
AcDbEntity
  8
Red 2
  6
ByLayer
 62
  256
370
   -1
100
AcDbLine
 10
262.3983258699683
 20
-57.41283450965426
 11
262.4743258699683
 21
-57.46383450965425
  0
LINE
  5
1D4
100
AcDbEntity
  8
Red 2
  6
ByLayer
 62
  256
370
   -1
100
AcDbLine
 10
262.4743258699683
 20
-57.46383450965425
 11
262.5763258699683
 21
-57.53983450965427
  0
LINE
  5
1D5
100
AcDbEntity
  8
Red 2
  6
ByLayer
 62
  256
370
   -1
100
AcDbLine
 10
262.5763258699683
 20
-57.53983450965427
 11
262.8303258699683
 21
-57.53983450965427
  0
LINE
  5
1D6
100
AcDbEntity
  8
Red 2
  6
ByLayer
 62
  256
370
   -1
100
AcDbLine
 10
262.8303258699683
 20
-57.53983450965427
 11
262.9573258699683
 21
-57.46383450965425
  0
LINE
  5
1D7
100
AcDbEntity
  8
Red 2
  6
ByLayer
 62
  256
370
   -1
100
AcDbLine
 10
262.9573258699683
 20
-57.46383450965425
 11
263.0073258699683
 21
-57.41283450965426
  0
LINE
  5
1D8
100
AcDbEntity
  8
Red 2
  6
ByLayer
 62
  256
370
   -1
100
AcDbLine
 10
263.0073258699683
 20
-57.41283450965426
 11
263.0843258699683
 21
-57.28583450965425
  0
LINE
  5
1D9
100
AcDbEntity
  8
Red 2
  6
ByLayer
 62
  256
370
   -1
100
AcDbLine
 10
263.0843258699683
 20
-57.28583450965425
 11
263.0843258699683
 21
-56.98083450965424
  0
LINE
  5
1DA
100
AcDbEntity
  8
Red 2
  6
ByLayer
 62
  256
370
   -1
100
AcDbLine
 10
263.0843258699683
 20
-56.98083450965424
 11
263.0073258699683
 21
-56.85383450965423
  0
LINE
  5
1DB
100
AcDbEntity
  8
Red 2
  6
ByLayer
 62
  256
370
   -1
100
AcDbLine
 10
263.0073258699683
 20
-56.85383450965423
 11
262.9573258699683
 21
-56.77783450965427
  0
LINE
  5
1DC
100
AcDbEntity
  8
Red 2
  6
ByLayer
 62
  256
370
   -1
100
AcDbLine
 10
262.9573258699683
 20
-56.77783450965427
 11
262.8303258699683
 21
-56.72683450965422
  0
LINE
  5
1DD
100
AcDbEntity
  8
Red 2
  6
ByLayer
 62
  256
370
   -1
100
AcDbLine
 10
262.8303258699683
 20
-56.72683450965422
 11
262.5763258699683
 21
-56.72683450965422
  0
LINE
  5
1DE
100
AcDbEntity
  8
Red 2
  6
ByLayer
 62
  256
370
   -1
100
AcDbLine
 10
262.5763258699683
 20
-56.72683450965422
 11
262.4743258699683
 21
-56.77783450965427
  0
LINE
  5
1DF
100
AcDbEntity
  8
Red 2
  6
ByLayer
 62
  256
370
   -1
100
AcDbLine
 10
262.4743258699683
 20
-56.77783450965427
 11
262.3983258699683
 21
-56.85383450965423
  0
LINE
  5
1E0
100
AcDbEntity
  8
Red 2
  6
ByLayer
 62
  256
370
   -1
100
AcDbLine
 10
262.3983258699683
 20
-56.85383450965423
 11
262.3473258699683
 21
-56.98083450965424
  0
LINE
  5
1E1
100
AcDbEntity
  8
Red 2
  6
ByLayer
 62
  256
370
   -1
100
AcDbLine
 10
312.2833258699683
 20
-56.24483450965425
 11
313.1473258699683
 21
-56.24483450965425
  0
LINE
  5
1E2
100
AcDbEntity
  8
Red 2
  6
ByLayer
 62
  256
370
   -1
100
AcDbLine
 10
313.1473258699683
 20
-56.24483450965425
 11
312.5883258699683
 21
-57.53983450965427
  0
LINE
  5
1E3
100
AcDbEntity
  8
Red 2
  6
ByLayer
 62
  256
370
   -1
100
AcDbLine
 10
362.5753258699683
 20
-56.77783450965427
 11
362.4743258699683
 21
-56.72683450965422
  0
LINE
  5
1E4
100
AcDbEntity
  8
Red 2
  6
ByLayer
 62
  256
370
   -1
100
AcDbLine
 10
362.4743258699683
 20
-56.72683450965422
 11
362.3983258699683
 21
-56.67683450965427
  0
LINE
  5
1E5
100
AcDbEntity
  8
Red 2
  6
ByLayer
 62
  256
370
   -1
100
AcDbLine
 10
362.3983258699683
 20
-56.67683450965427
 11
362.3473258699683
 21
-56.54983450965426
  0
LINE
  5
1E6
100
AcDbEntity
  8
Red 2
  6
ByLayer
 62
  256
370
   -1
100
AcDbLine
 10
362.3473258699683
 20
-56.54983450965426
 11
362.3473258699683
 21
-56.47283450965426
  0
LINE
  5
1E7
100
AcDbEntity
  8
Red 2
  6
ByLayer
 62
  256
370
   -1
100
AcDbLine
 10
362.3473258699683
 20
-56.47283450965426
 11
362.3983258699683
 21
-56.34583450965425
  0
LINE
  5
1E8
100
AcDbEntity
  8
Red 2
  6
ByLayer
 62
  256
370
   -1
100
AcDbLine
 10
362.3983258699683
 20
-56.34583450965425
 11
362.4743258699683
 21
-56.29583450965424
  0
LINE
  5
1E9
100
AcDbEntity
  8
Red 2
  6
ByLayer
 62
  256
370
   -1
100
AcDbLine
 10
362.4743258699683
 20
-56.29583450965424
 11
362.5753258699683
 21
-56.24483450965425
  0
LINE
  5
1EA
100
AcDbEntity
  8
Red 2
  6
ByLayer
 62
  256
370
   -1
100
AcDbLine
 10
362.5753258699683
 20
-56.24483450965425
 11
362.8293258699683
 21
-56.24483450965425
  0
LINE
  5
1EB
100
AcDbEntity
  8
Red 2
  6
ByLayer
 62
  256
370
   -1
100
AcDbLine
 10
362.8293258699683
 20
-56.24483450965425
 11
362.9563258699683
 21
-56.29583450965424
  0
LINE
  5
1EC
100
AcDbEntity
  8
Red 2
  6
ByLayer
 62
  256
370
   -1
100
AcDbLine
 10
362.9563258699683
 20
-56.29583450965424
 11
363.0073258699683
 21
-56.34583450965425
  0
LINE
  5
1ED
100
AcDbEntity
  8
Red 2
  6
ByLayer
 62
  256
370
   -1
100
AcDbLine
 10
363.0073258699683
 20
-56.34583450965425
 11
363.0833258699683
 21
-56.47283450965426
  0
LINE
  5
1EE
100
AcDbEntity
  8
Red 2
  6
ByLayer
 62
  256
370
   -1
100
AcDbLine
 10
363.0833258699683
 20
-56.47283450965426
 11
363.0833258699683
 21
-56.54983450965426
  0
LINE
  5
1EF
100
AcDbEntity
  8
Red 2
  6
ByLayer
 62
  256
370
   -1
100
AcDbLine
 10
363.0833258699683
 20
-56.54983450965426
 11
363.0073258699683
 21
-56.67683450965427
  0
LINE
  5
1F0
100
AcDbEntity
  8
Red 2
  6
ByLayer
 62
  256
370
   -1
100
AcDbLine
 10
363.0073258699683
 20
-56.67683450965427
 11
362.9563258699683
 21
-56.72683450965422
  0
LINE
  5
1F1
100
AcDbEntity
  8
Red 2
  6
ByLayer
 62
  256
370
   -1
100
AcDbLine
 10
362.9563258699683
 20
-56.72683450965422
 11
362.8293258699683
 21
-56.77783450965427
  0
LINE
  5
1F2
100
AcDbEntity
  8
Red 2
  6
ByLayer
 62
  256
370
   -1
100
AcDbLine
 10
362.8293258699683
 20
-56.77783450965427
 11
362.5753258699683
 21
-56.77783450965427
  0
LINE
  5
1F3
100
AcDbEntity
  8
Red 2
  6
ByLayer
 62
  256
370
   -1
100
AcDbLine
 10
362.5753258699683
 20
-56.77783450965427
 11
362.4743258699683
 21
-56.85383450965423
  0
LINE
  5
1F4
100
AcDbEntity
  8
Red 2
  6
ByLayer
 62
  256
370
   -1
100
AcDbLine
 10
362.4743258699683
 20
-56.85383450965423
 11
362.3983258699683
 21
-56.90483450965422
  0
LINE
  5
1F5
100
AcDbEntity
  8
Red 2
  6
ByLayer
 62
  256
370
   -1
100
AcDbLine
 10
362.3983258699683
 20
-56.90483450965422
 11
362.3473258699683
 21
-57.03183450965423
  0
LINE
  5
1F6
100
AcDbEntity
  8
Red 2
  6
ByLayer
 62
  256
370
   -1
100
AcDbLine
 10
362.3473258699683
 20
-57.03183450965423
 11
362.3473258699683
 21
-57.28583450965425
  0
LINE
  5
1F7
100
AcDbEntity
  8
Red 2
  6
ByLayer
 62
  256
370
   -1
100
AcDbLine
 10
362.3473258699683
 20
-57.28583450965425
 11
362.3983258699683
 21
-57.41283450965426
  0
LINE
  5
1F8
100
AcDbEntity
  8
Red 2
  6
ByLayer
 62
  256
370
   -1
100
AcDbLine
 10
362.3983258699683
 20
-57.41283450965426
 11
362.4743258699683
 21
-57.46383450965425
  0
LINE
  5
1F9
100
AcDbEntity
  8
Red 2
  6
ByLayer
 62
  256
370
   -1
100
AcDbLine
 10
362.4743258699683
 20
-57.46383450965425
 11
362.5753258699683
 21
-57.53983450965427
  0
LINE
  5
1FA
100
AcDbEntity
  8
Red 2
  6
ByLayer
 62
  256
370
   -1
100
AcDbLine
 10
362.5753258699683
 20
-57.53983450965427
 11
362.8293258699683
 21
-57.53983450965427
  0
LINE
  5
1FB
100
AcDbEntity
  8
Red 2
  6
ByLayer
 62
  256
370
   -1
100
AcDbLine
 10
362.8293258699683
 20
-57.53983450965427
 11
362.9563258699683
 21
-57.46383450965425
  0
LINE
  5
1FC
100
AcDbEntity
  8
Red 2
  6
ByLayer
 62
  256
370
   -1
100
AcDbLine
 10
362.9563258699683
 20
-57.46383450965425
 11
363.0073258699683
 21
-57.41283450965426
  0
LINE
  5
1FD
100
AcDbEntity
  8
Red 2
  6
ByLayer
 62
  256
370
   -1
100
AcDbLine
 10
363.0073258699683
 20
-57.41283450965426
 11
363.0833258699683
 21
-57.28583450965425
  0
LINE
  5
1FE
100
AcDbEntity
  8
Red 2
  6
ByLayer
 62
  256
370
   -1
100
AcDbLine
 10
363.0833258699683
 20
-57.28583450965425
 11
363.0833258699683
 21
-57.03183450965423
  0
LINE
  5
1FF
100
AcDbEntity
  8
Red 2
  6
ByLayer
 62
  256
370
   -1
100
AcDbLine
 10
363.0833258699683
 20
-57.03183450965423
 11
363.0073258699683
 21
-56.90483450965422
  0
LINE
  5
200
100
AcDbEntity
  8
Red 2
  6
ByLayer
 62
  256
370
   -1
100
AcDbLine
 10
363.0073258699683
 20
-56.90483450965422
 11
362.9563258699683
 21
-56.85383450965423
  0
LINE
  5
201
100
AcDbEntity
  8
Red 2
  6
ByLayer
 62
  256
370
   -1
100
AcDbLine
 10
362.9563258699683
 20
-56.85383450965423
 11
362.8293258699683
 21
-56.77783450965427
  0
LINE
  5
202
100
AcDbEntity
  8
Red 2
  6
ByLayer
 62
  256
370
   -1
100
AcDbLine
 10
-12.88707413003172
 20
169.0533654903458
 11
-10.90587413003172
 21
169.0533654903458
  0
LINE
  5
203
100
AcDbEntity
  8
Red 2
  6
ByLayer
 62
  256
370
   -1
100
AcDbLine
 10
-12.88707413003172
 20
119.0411654903457
 11
-10.90587413003172
 21
119.0411654903457
  0
LINE
  5
204
100
AcDbEntity
  8
Red 2
  6
ByLayer
 62
  256
370
   -1
100
AcDbLine
 10
-12.88707413003172
 20
69.05316549034575
 11
-10.90587413003172
 21
69.05316549034575
  0
LINE
  5
205
100
AcDbEntity
  8
Red 2
  6
ByLayer
 62
  256
370
   -1
100
AcDbLine
 10
-12.88707413003172
 20
19.04116549034575
 11
-10.90587413003172
 21
19.04116549034575
  0
LINE
  5
206
100
AcDbEntity
  8
Red 2
  6
ByLayer
 62
  256
370
   -1
100
AcDbLine
 10
-12.88707413003172
 20
-30.94583450965428
 11
-10.90587413003172
 21
-30.94583450965428
  0
LINE
  5
207
100
AcDbEntity
  8
Red 2
  6
ByLayer
 62
  256
370
   -1
100
AcDbLine
 10
-12.20127413003172
 20
193.8437654903458
 11
-11.59167413003172
 21
193.8437654903458
  0
LINE
  5
208
100
AcDbEntity
  8
Red 2
  6
ByLayer
 62
  256
370
   -1
100
AcDbLine
 10
-12.32827413003172
 20
193.4627654903458
 11
-11.89647413003172
 21
194.7581654903458
  0
LINE
  5
209
100
AcDbEntity
  8
Red 2
  6
ByLayer
 62
  256
370
   -1
100
AcDbLine
 10
-11.89647413003172
 20
194.7581654903458
 11
-11.46467413003172
 21
193.4627654903458
  0
LINE
  5
20A
100
AcDbEntity
  8
Red 2
  6
ByLayer
 62
  256
370
   -1
100
AcDbLine
 10
-11.79487413003172
 20
144.1613654903458
 11
-11.61707413003172
 21
144.1105654903457
  0
LINE
  5
20B
100
AcDbEntity
  8
Red 2
  6
ByLayer
 62
  256
370
   -1
100
AcDbLine
 10
-11.61707413003172
 20
144.1105654903457
 11
-11.54087413003172
 21
144.0343654903457
  0
LINE
  5
20C
100
AcDbEntity
  8
Red 2
  6
ByLayer
 62
  256
370
   -1
100
AcDbLine
 10
-11.54087413003172
 20
144.0343654903457
 11
-11.49007413003172
 21
143.9073654903457
  0
LINE
  5
20D
100
AcDbEntity
  8
Red 2
  6
ByLayer
 62
  256
370
   -1
100
AcDbLine
 10
-11.49007413003172
 20
143.9073654903457
 11
-11.49007413003172
 21
143.7295654903457
  0
LINE
  5
20E
100
AcDbEntity
  8
Red 2
  6
ByLayer
 62
  256
370
   -1
100
AcDbLine
 10
-11.49007413003172
 20
143.7295654903457
 11
-11.54087413003172
 21
143.6025654903457
  0
LINE
  5
20F
100
AcDbEntity
  8
Red 2
  6
ByLayer
 62
  256
370
   -1
100
AcDbLine
 10
-11.54087413003172
 20
143.6025654903457
 11
-11.61707413003172
 21
143.5517654903458
  0
LINE
  5
210
100
AcDbEntity
  8
Red 2
  6
ByLayer
 62
  256
370
   -1
100
AcDbLine
 10
-11.61707413003172
 20
143.5517654903458
 11
-11.71867413003172
 21
143.4755654903458
  0
LINE
  5
211
100
AcDbEntity
  8
Red 2
  6
ByLayer
 62
  256
370
   -1
100
AcDbLine
 10
-11.71867413003172
 20
143.4755654903458
 11
-12.22667413003172
 21
143.4755654903458
  0
LINE
  5
212
100
AcDbEntity
  8
Red 2
  6
ByLayer
 62
  256
370
   -1
100
AcDbLine
 10
-12.22667413003172
 20
143.4755654903458
 11
-12.22667413003172
 21
144.7709654903458
  0
LINE
  5
213
100
AcDbEntity
  8
Red 2
  6
ByLayer
 62
  256
370
   -1
100
AcDbLine
 10
-12.22667413003172
 20
144.7709654903458
 11
-11.79487413003172
 21
144.7709654903458
  0
LINE
  5
214
100
AcDbEntity
  8
Red 2
  6
ByLayer
 62
  256
370
   -1
100
AcDbLine
 10
-11.79487413003172
 20
144.7709654903458
 11
-11.66787413003172
 21
144.7201654903457
  0
LINE
  5
215
100
AcDbEntity
  8
Red 2
  6
ByLayer
 62
  256
370
   -1
100
AcDbLine
 10
-11.66787413003172
 20
144.7201654903457
 11
-11.61707413003172
 21
144.6693654903457
  0
LINE
  5
216
100
AcDbEntity
  8
Red 2
  6
ByLayer
 62
  256
370
   -1
100
AcDbLine
 10
-11.61707413003172
 20
144.6693654903457
 11
-11.54087413003172
 21
144.5423654903458
  0
LINE
  5
217
100
AcDbEntity
  8
Red 2
  6
ByLayer
 62
  256
370
   -1
100
AcDbLine
 10
-11.54087413003172
 20
144.5423654903458
 11
-11.54087413003172
 21
144.4153654903457
  0
LINE
  5
218
100
AcDbEntity
  8
Red 2
  6
ByLayer
 62
  256
370
   -1
100
AcDbLine
 10
-11.54087413003172
 20
144.4153654903457
 11
-11.61707413003172
 21
144.2883654903458
  0
LINE
  5
219
100
AcDbEntity
  8
Red 2
  6
ByLayer
 62
  256
370
   -1
100
AcDbLine
 10
-11.61707413003172
 20
144.2883654903458
 11
-11.66787413003172
 21
144.2375654903458
  0
LINE
  5
21A
100
AcDbEntity
  8
Red 2
  6
ByLayer
 62
  256
370
   -1
100
AcDbLine
 10
-11.66787413003172
 20
144.2375654903458
 11
-11.79487413003172
 21
144.1613654903458
  0
LINE
  5
21B
100
AcDbEntity
  8
Red 2
  6
ByLayer
 62
  256
370
   -1
100
AcDbLine
 10
-11.79487413003172
 20
144.1613654903458
 11
-12.22667413003172
 21
144.1613654903458
  0
LINE
  5
21C
100
AcDbEntity
  8
Red 2
  6
ByLayer
 62
  256
370
   -1
100
AcDbLine
 10
-11.49007413003172
 20
93.59016549034575
 11
-11.54087413003172
 21
93.53916549034577
  0
LINE
  5
21D
100
AcDbEntity
  8
Red 2
  6
ByLayer
 62
  256
370
   -1
100
AcDbLine
 10
-11.54087413003172
 20
93.53916549034577
 11
-11.71867413003172
 21
93.46316549034574
  0
LINE
  5
21E
100
AcDbEntity
  8
Red 2
  6
ByLayer
 62
  256
370
   -1
100
AcDbLine
 10
-11.71867413003172
 20
93.46316549034574
 11
-11.84567413003172
 21
93.46316549034574
  0
LINE
  5
21F
100
AcDbEntity
  8
Red 2
  6
ByLayer
 62
  256
370
   -1
100
AcDbLine
 10
-11.84567413003172
 20
93.46316549034574
 11
-12.04887413003172
 21
93.53916549034577
  0
LINE
  5
220
100
AcDbEntity
  8
Red 2
  6
ByLayer
 62
  256
370
   -1
100
AcDbLine
 10
-12.04887413003172
 20
93.53916549034577
 11
-12.15047413003172
 21
93.66616549034575
  0
LINE
  5
221
100
AcDbEntity
  8
Red 2
  6
ByLayer
 62
  256
370
   -1
100
AcDbLine
 10
-12.15047413003172
 20
93.66616549034575
 11
-12.22667413003172
 21
93.79316549034576
  0
LINE
  5
222
100
AcDbEntity
  8
Red 2
  6
ByLayer
 62
  256
370
   -1
100
AcDbLine
 10
-12.22667413003172
 20
93.79316549034576
 11
-12.27747413003172
 21
94.02216549034574
  0
LINE
  5
223
100
AcDbEntity
  8
Red 2
  6
ByLayer
 62
  256
370
   -1
100
AcDbLine
 10
-12.27747413003172
 20
94.02216549034574
 11
-12.27747413003172
 21
94.22516549034574
  0
LINE
  5
224
100
AcDbEntity
  8
Red 2
  6
ByLayer
 62
  256
370
   -1
100
AcDbLine
 10
-12.27747413003172
 20
94.22516549034574
 11
-12.22667413003172
 21
94.45316549034575
  0
LINE
  5
225
100
AcDbEntity
  8
Red 2
  6
ByLayer
 62
  256
370
   -1
100
AcDbLine
 10
-12.22667413003172
 20
94.45316549034575
 11
-12.15047413003172
 21
94.58016549034576
  0
LINE
  5
226
100
AcDbEntity
  8
Red 2
  6
ByLayer
 62
  256
370
   -1
100
AcDbLine
 10
-12.15047413003172
 20
94.58016549034576
 11
-12.04887413003172
 21
94.70716549034574
  0
LINE
  5
227
100
AcDbEntity
  8
Red 2
  6
ByLayer
 62
  256
370
   -1
100
AcDbLine
 10
-12.04887413003172
 20
94.70716549034574
 11
-11.84567413003172
 21
94.75816549034576
  0
LINE
  5
228
100
AcDbEntity
  8
Red 2
  6
ByLayer
 62
  256
370
   -1
100
AcDbLine
 10
-11.84567413003172
 20
94.75816549034576
 11
-11.71867413003172
 21
94.75816549034576
  0
LINE
  5
229
100
AcDbEntity
  8
Red 2
  6
ByLayer
 62
  256
370
   -1
100
AcDbLine
 10
-11.71867413003172
 20
94.75816549034576
 11
-11.54087413003172
 21
94.70716549034574
  0
LINE
  5
22A
100
AcDbEntity
  8
Red 2
  6
ByLayer
 62
  256
370
   -1
100
AcDbLine
 10
-11.54087413003172
 20
94.70716549034574
 11
-11.49007413003172
 21
94.65716549034576
  0
LINE
  5
22B
100
AcDbEntity
  8
Red 2
  6
ByLayer
 62
  256
370
   -1
100
AcDbLine
 10
-12.22667413003172
 20
43.47616549034575
 11
-12.22667413003172
 21
44.77116549034577
  0
LINE
  5
22C
100
AcDbEntity
  8
Red 2
  6
ByLayer
 62
  256
370
   -1
100
AcDbLine
 10
-12.22667413003172
 20
44.77116549034577
 11
-11.92187413003172
 21
44.77116549034577
  0
LINE
  5
22D
100
AcDbEntity
  8
Red 2
  6
ByLayer
 62
  256
370
   -1
100
AcDbLine
 10
-11.92187413003172
 20
44.77116549034577
 11
-11.71867413003172
 21
44.72016549034575
  0
LINE
  5
22E
100
AcDbEntity
  8
Red 2
  6
ByLayer
 62
  256
370
   -1
100
AcDbLine
 10
-11.71867413003172
 20
44.72016549034575
 11
-11.61707413003172
 21
44.59316549034574
  0
LINE
  5
22F
100
AcDbEntity
  8
Red 2
  6
ByLayer
 62
  256
370
   -1
100
AcDbLine
 10
-11.61707413003172
 20
44.59316549034574
 11
-11.54087413003172
 21
44.46616549034576
  0
LINE
  5
230
100
AcDbEntity
  8
Red 2
  6
ByLayer
 62
  256
370
   -1
100
AcDbLine
 10
-11.54087413003172
 20
44.46616549034576
 11
-11.49007413003172
 21
44.23816549034575
  0
LINE
  5
231
100
AcDbEntity
  8
Red 2
  6
ByLayer
 62
  256
370
   -1
100
AcDbLine
 10
-11.49007413003172
 20
44.23816549034575
 11
-11.49007413003172
 21
44.03416549034574
  0
LINE
  5
232
100
AcDbEntity
  8
Red 2
  6
ByLayer
 62
  256
370
   -1
100
AcDbLine
 10
-11.49007413003172
 20
44.03416549034574
 11
-11.54087413003172
 21
43.80616549034576
  0
LINE
  5
233
100
AcDbEntity
  8
Red 2
  6
ByLayer
 62
  256
370
   -1
100
AcDbLine
 10
-11.54087413003172
 20
43.80616549034576
 11
-11.61707413003172
 21
43.67916549034575
  0
LINE
  5
234
100
AcDbEntity
  8
Red 2
  6
ByLayer
 62
  256
370
   -1
100
AcDbLine
 10
-11.61707413003172
 20
43.67916549034575
 11
-11.71867413003172
 21
43.55216549034574
  0
LINE
  5
235
100
AcDbEntity
  8
Red 2
  6
ByLayer
 62
  256
370
   -1
100
AcDbLine
 10
-11.71867413003172
 20
43.55216549034574
 11
-11.92187413003172
 21
43.47616549034575
  0
LINE
  5
236
100
AcDbEntity
  8
Red 2
  6
ByLayer
 62
  256
370
   -1
100
AcDbLine
 10
-11.92187413003172
 20
43.47616549034575
 11
-12.22667413003172
 21
43.47616549034575
  0
LINE
  5
237
100
AcDbEntity
  8
Red 2
  6
ByLayer
 62
  256
370
   -1
100
AcDbLine
 10
-12.17587413003172
 20
-5.850834509654248
 11
-11.74407413003172
 21
-5.850834509654248
  0
LINE
  5
238
100
AcDbEntity
  8
Red 2
  6
ByLayer
 62
  256
370
   -1
100
AcDbLine
 10
-11.56627413003172
 20
-6.536834509654255
 11
-12.17587413003172
 21
-6.536834509654255
  0
LINE
  5
239
100
AcDbEntity
  8
Red 2
  6
ByLayer
 62
  256
370
   -1
100
AcDbLine
 10
-12.17587413003172
 20
-6.536834509654255
 11
-12.17587413003172
 21
-5.24183450965424
  0
LINE
  5
23A
100
AcDbEntity
  8
Red 2
  6
ByLayer
 62
  256
370
   -1
100
AcDbLine
 10
-12.17587413003172
 20
-5.24183450965424
 11
-11.56627413003172
 21
-5.24183450965424
  0
LINE
  5
23B
100
AcDbEntity
  8
Red 2
  6
ByLayer
 62
  256
370
   -1
100
AcDbLine
 10
-11.71867413003172
 20
-55.83783450965427
 11
-12.15047413003172
 21
-55.83783450965427
  0
LINE
  5
23C
100
AcDbEntity
  8
Red 2
  6
ByLayer
 62
  256
370
   -1
100
AcDbLine
 10
-12.15047413003172
 20
-56.52383450965425
 11
-12.15047413003172
 21
-55.22883450965423
  0
LINE
  5
23D
100
AcDbEntity
  8
Red 2
  6
ByLayer
 62
  256
370
   -1
100
AcDbLine
 10
-12.15047413003172
 20
-55.22883450965423
 11
-11.54087413003172
 21
-55.22883450965423
  0
LINE
  5
23E
100
AcDbEntity
  8
Red 2
  6
ByLayer
 62
  256
370
   -1
100
AcDbLine
 10
387.0863258699683
 20
169.0533654903458
 11
385.1053258699683
 21
169.0533654903458
  0
LINE
  5
23F
100
AcDbEntity
  8
Red 2
  6
ByLayer
 62
  256
370
   -1
100
AcDbLine
 10
387.0863258699683
 20
119.0411654903457
 11
385.1053258699683
 21
119.0411654903457
  0
LINE
  5
240
100
AcDbEntity
  8
Red 2
  6
ByLayer
 62
  256
370
   -1
100
AcDbLine
 10
387.0863258699683
 20
69.05316549034575
 11
385.1053258699683
 21
69.05316549034575
  0
LINE
  5
241
100
AcDbEntity
  8
Red 2
  6
ByLayer
 62
  256
370
   -1
100
AcDbLine
 10
387.0863258699683
 20
19.04116549034575
 11
385.1053258699683
 21
19.04116549034575
  0
LINE
  5
242
100
AcDbEntity
  8
Red 2
  6
ByLayer
 62
  256
370
   -1
100
AcDbLine
 10
387.0863258699683
 20
-30.94583450965428
 11
385.1053258699683
 21
-30.94583450965428
  0
LINE
  5
243
100
AcDbEntity
  8
Red 2
  6
ByLayer
 62
  256
370
   -1
100
AcDbLine
 10
385.7913258699683
 20
193.8437654903458
 11
386.4013258699683
 21
193.8437654903458
  0
LINE
  5
244
100
AcDbEntity
  8
Red 2
  6
ByLayer
 62
  256
370
   -1
100
AcDbLine
 10
385.6643258699683
 20
193.4627654903458
 11
386.0963258699683
 21
194.7581654903458
  0
LINE
  5
245
100
AcDbEntity
  8
Red 2
  6
ByLayer
 62
  256
370
   -1
100
AcDbLine
 10
386.0963258699683
 20
194.7581654903458
 11
386.5283258699683
 21
193.4627654903458
  0
LINE
  5
246
100
AcDbEntity
  8
Red 2
  6
ByLayer
 62
  256
370
   -1
100
AcDbLine
 10
386.1973258699683
 20
144.1613654903458
 11
386.3753258699683
 21
144.1105654903457
  0
LINE
  5
247
100
AcDbEntity
  8
Red 2
  6
ByLayer
 62
  256
370
   -1
100
AcDbLine
 10
386.3753258699683
 20
144.1105654903457
 11
386.4513258699683
 21
144.0343654903457
  0
LINE
  5
248
100
AcDbEntity
  8
Red 2
  6
ByLayer
 62
  256
370
   -1
100
AcDbLine
 10
386.4513258699683
 20
144.0343654903457
 11
386.5023258699683
 21
143.9073654903457
  0
LINE
  5
249
100
AcDbEntity
  8
Red 2
  6
ByLayer
 62
  256
370
   -1
100
AcDbLine
 10
386.5023258699683
 20
143.9073654903457
 11
386.5023258699683
 21
143.7295654903457
  0
LINE
  5
24A
100
AcDbEntity
  8
Red 2
  6
ByLayer
 62
  256
370
   -1
100
AcDbLine
 10
386.5023258699683
 20
143.7295654903457
 11
386.4513258699683
 21
143.6025654903457
  0
LINE
  5
24B
100
AcDbEntity
  8
Red 2
  6
ByLayer
 62
  256
370
   -1
100
AcDbLine
 10
386.4513258699683
 20
143.6025654903457
 11
386.3753258699683
 21
143.5517654903458
  0
LINE
  5
24C
100
AcDbEntity
  8
Red 2
  6
ByLayer
 62
  256
370
   -1
100
AcDbLine
 10
386.3753258699683
 20
143.5517654903458
 11
386.2743258699683
 21
143.4755654903458
  0
LINE
  5
24D
100
AcDbEntity
  8
Red 2
  6
ByLayer
 62
  256
370
   -1
100
AcDbLine
 10
386.2743258699683
 20
143.4755654903458
 11
385.7663258699683
 21
143.4755654903458
  0
LINE
  5
24E
100
AcDbEntity
  8
Red 2
  6
ByLayer
 62
  256
370
   -1
100
AcDbLine
 10
385.7663258699683
 20
143.4755654903458
 11
385.7663258699683
 21
144.7709654903458
  0
LINE
  5
24F
100
AcDbEntity
  8
Red 2
  6
ByLayer
 62
  256
370
   -1
100
AcDbLine
 10
385.7663258699683
 20
144.7709654903458
 11
386.1973258699683
 21
144.7709654903458
  0
LINE
  5
250
100
AcDbEntity
  8
Red 2
  6
ByLayer
 62
  256
370
   -1
100
AcDbLine
 10
386.1973258699683
 20
144.7709654903458
 11
386.3243258699683
 21
144.7201654903457
  0
LINE
  5
251
100
AcDbEntity
  8
Red 2
  6
ByLayer
 62
  256
370
   -1
100
AcDbLine
 10
386.3243258699683
 20
144.7201654903457
 11
386.3753258699683
 21
144.6693654903457
  0
LINE
  5
252
100
AcDbEntity
  8
Red 2
  6
ByLayer
 62
  256
370
   -1
100
AcDbLine
 10
386.3753258699683
 20
144.6693654903457
 11
386.4513258699683
 21
144.5423654903458
  0
LINE
  5
253
100
AcDbEntity
  8
Red 2
  6
ByLayer
 62
  256
370
   -1
100
AcDbLine
 10
386.4513258699683
 20
144.5423654903458
 11
386.4513258699683
 21
144.4153654903457
  0
LINE
  5
254
100
AcDbEntity
  8
Red 2
  6
ByLayer
 62
  256
370
   -1
100
AcDbLine
 10
386.4513258699683
 20
144.4153654903457
 11
386.3753258699683
 21
144.2883654903458
  0
LINE
  5
255
100
AcDbEntity
  8
Red 2
  6
ByLayer
 62
  256
370
   -1
100
AcDbLine
 10
386.3753258699683
 20
144.2883654903458
 11
386.3243258699683
 21
144.2375654903458
  0
LINE
  5
256
100
AcDbEntity
  8
Red 2
  6
ByLayer
 62
  256
370
   -1
100
AcDbLine
 10
386.3243258699683
 20
144.2375654903458
 11
386.1973258699683
 21
144.1613654903458
  0
LINE
  5
257
100
AcDbEntity
  8
Red 2
  6
ByLayer
 62
  256
370
   -1
100
AcDbLine
 10
386.1973258699683
 20
144.1613654903458
 11
385.7663258699683
 21
144.1613654903458
  0
LINE
  5
258
100
AcDbEntity
  8
Red 2
  6
ByLayer
 62
  256
370
   -1
100
AcDbLine
 10
386.5023258699683
 20
93.59016549034575
 11
386.4513258699683
 21
93.53916549034577
  0
LINE
  5
259
100
AcDbEntity
  8
Red 2
  6
ByLayer
 62
  256
370
   -1
100
AcDbLine
 10
386.4513258699683
 20
93.53916549034577
 11
386.2743258699683
 21
93.46316549034574
  0
LINE
  5
25A
100
AcDbEntity
  8
Red 2
  6
ByLayer
 62
  256
370
   -1
100
AcDbLine
 10
386.2743258699683
 20
93.46316549034574
 11
386.1473258699683
 21
93.46316549034574
  0
LINE
  5
25B
100
AcDbEntity
  8
Red 2
  6
ByLayer
 62
  256
370
   -1
100
AcDbLine
 10
386.1473258699683
 20
93.46316549034574
 11
385.9433258699683
 21
93.53916549034577
  0
LINE
  5
25C
100
AcDbEntity
  8
Red 2
  6
ByLayer
 62
  256
370
   -1
100
AcDbLine
 10
385.9433258699683
 20
93.53916549034577
 11
385.8423258699683
 21
93.66616549034575
  0
LINE
  5
25D
100
AcDbEntity
  8
Red 2
  6
ByLayer
 62
  256
370
   -1
100
AcDbLine
 10
385.8423258699683
 20
93.66616549034575
 11
385.7663258699683
 21
93.79316549034576
  0
LINE
  5
25E
100
AcDbEntity
  8
Red 2
  6
ByLayer
 62
  256
370
   -1
100
AcDbLine
 10
385.7663258699683
 20
93.79316549034576
 11
385.7153258699683
 21
94.02216549034574
  0
LINE
  5
25F
100
AcDbEntity
  8
Red 2
  6
ByLayer
 62
  256
370
   -1
100
AcDbLine
 10
385.7153258699683
 20
94.02216549034574
 11
385.7153258699683
 21
94.22516549034574
  0
LINE
  5
260
100
AcDbEntity
  8
Red 2
  6
ByLayer
 62
  256
370
   -1
100
AcDbLine
 10
385.7153258699683
 20
94.22516549034574
 11
385.7663258699683
 21
94.45316549034575
  0
LINE
  5
261
100
AcDbEntity
  8
Red 2
  6
ByLayer
 62
  256
370
   -1
100
AcDbLine
 10
385.7663258699683
 20
94.45316549034575
 11
385.8423258699683
 21
94.58016549034576
  0
LINE
  5
262
100
AcDbEntity
  8
Red 2
  6
ByLayer
 62
  256
370
   -1
100
AcDbLine
 10
385.8423258699683
 20
94.58016549034576
 11
385.9433258699683
 21
94.70716549034574
  0
LINE
  5
263
100
AcDbEntity
  8
Red 2
  6
ByLayer
 62
  256
370
   -1
100
AcDbLine
 10
385.9433258699683
 20
94.70716549034574
 11
386.1473258699683
 21
94.75816549034576
  0
LINE
  5
264
100
AcDbEntity
  8
Red 2
  6
ByLayer
 62
  256
370
   -1
100
AcDbLine
 10
386.1473258699683
 20
94.75816549034576
 11
386.2743258699683
 21
94.75816549034576
  0
LINE
  5
265
100
AcDbEntity
  8
Red 2
  6
ByLayer
 62
  256
370
   -1
100
AcDbLine
 10
386.2743258699683
 20
94.75816549034576
 11
386.4513258699683
 21
94.70716549034574
  0
LINE
  5
266
100
AcDbEntity
  8
Red 2
  6
ByLayer
 62
  256
370
   -1
100
AcDbLine
 10
386.4513258699683
 20
94.70716549034574
 11
386.5023258699683
 21
94.65716549034576
  0
LINE
  5
267
100
AcDbEntity
  8
Red 2
  6
ByLayer
 62
  256
370
   -1
100
AcDbLine
 10
385.7663258699683
 20
43.47616549034575
 11
385.7663258699683
 21
44.77116549034577
  0
LINE
  5
268
100
AcDbEntity
  8
Red 2
  6
ByLayer
 62
  256
370
   -1
100
AcDbLine
 10
385.7663258699683
 20
44.77116549034577
 11
386.0703258699683
 21
44.77116549034577
  0
LINE
  5
269
100
AcDbEntity
  8
Red 2
  6
ByLayer
 62
  256
370
   -1
100
AcDbLine
 10
386.0703258699683
 20
44.77116549034577
 11
386.2743258699683
 21
44.72016549034575
  0
LINE
  5
26A
100
AcDbEntity
  8
Red 2
  6
ByLayer
 62
  256
370
   -1
100
AcDbLine
 10
386.2743258699683
 20
44.72016549034575
 11
386.3753258699683
 21
44.59316549034574
  0
LINE
  5
26B
100
AcDbEntity
  8
Red 2
  6
ByLayer
 62
  256
370
   -1
100
AcDbLine
 10
386.3753258699683
 20
44.59316549034574
 11
386.4513258699683
 21
44.46616549034576
  0
LINE
  5
26C
100
AcDbEntity
  8
Red 2
  6
ByLayer
 62
  256
370
   -1
100
AcDbLine
 10
386.4513258699683
 20
44.46616549034576
 11
386.5023258699683
 21
44.23816549034575
  0
LINE
  5
26D
100
AcDbEntity
  8
Red 2
  6
ByLayer
 62
  256
370
   -1
100
AcDbLine
 10
386.5023258699683
 20
44.23816549034575
 11
386.5023258699683
 21
44.03416549034574
  0
LINE
  5
26E
100
AcDbEntity
  8
Red 2
  6
ByLayer
 62
  256
370
   -1
100
AcDbLine
 10
386.5023258699683
 20
44.03416549034574
 11
386.4513258699683
 21
43.80616549034576
  0
LINE
  5
26F
100
AcDbEntity
  8
Red 2
  6
ByLayer
 62
  256
370
   -1
100
AcDbLine
 10
386.4513258699683
 20
43.80616549034576
 11
386.3753258699683
 21
43.67916549034575
  0
LINE
  5
270
100
AcDbEntity
  8
Red 2
  6
ByLayer
 62
  256
370
   -1
100
AcDbLine
 10
386.3753258699683
 20
43.67916549034575
 11
386.2743258699683
 21
43.55216549034574
  0
LINE
  5
271
100
AcDbEntity
  8
Red 2
  6
ByLayer
 62
  256
370
   -1
100
AcDbLine
 10
386.2743258699683
 20
43.55216549034574
 11
386.0703258699683
 21
43.47616549034575
  0
LINE
  5
272
100
AcDbEntity
  8
Red 2
  6
ByLayer
 62
  256
370
   -1
100
AcDbLine
 10
386.0703258699683
 20
43.47616549034575
 11
385.7663258699683
 21
43.47616549034575
  0
LINE
  5
273
100
AcDbEntity
  8
Red 2
  6
ByLayer
 62
  256
370
   -1
100
AcDbLine
 10
385.8163258699683
 20
-5.850834509654248
 11
386.2483258699683
 21
-5.850834509654248
  0
LINE
  5
274
100
AcDbEntity
  8
Red 2
  6
ByLayer
 62
  256
370
   -1
100
AcDbLine
 10
386.4263258699683
 20
-6.536834509654255
 11
385.8163258699683
 21
-6.536834509654255
  0
LINE
  5
275
100
AcDbEntity
  8
Red 2
  6
ByLayer
 62
  256
370
   -1
100
AcDbLine
 10
385.8163258699683
 20
-6.536834509654255
 11
385.8163258699683
 21
-5.24183450965424
  0
LINE
  5
276
100
AcDbEntity
  8
Red 2
  6
ByLayer
 62
  256
370
   -1
100
AcDbLine
 10
385.8163258699683
 20
-5.24183450965424
 11
386.4263258699683
 21
-5.24183450965424
  0
LINE
  5
277
100
AcDbEntity
  8
Red 2
  6
ByLayer
 62
  256
370
   -1
100
AcDbLine
 10
386.2743258699683
 20
-55.83783450965427
 11
385.8423258699683
 21
-55.83783450965427
  0
LINE
  5
278
100
AcDbEntity
  8
Red 2
  6
ByLayer
 62
  256
370
   -1
100
AcDbLine
 10
385.8423258699683
 20
-56.52383450965425
 11
385.8423258699683
 21
-55.22883450965423
  0
LINE
  5
279
100
AcDbEntity
  8
Red 2
  6
ByLayer
 62
  256
370
   -1
100
AcDbLine
 10
385.8423258699683
 20
-55.22883450965423
 11
386.4513258699683
 21
-55.22883450965423
  0
LINE
  5
27A
100
AcDbEntity
  8
Red 2
  6
ByLayer
 62
  256
370
   -1
100
AcDbLine
 10
300.4473258699683
 20
-51.72383450965424
 11
300.4473258699683
 21
-50.22483450965427
  0
LINE
  5
27B
100
AcDbEntity
  8
Red 2
  6
ByLayer
 62
  256
370
   -1
100
AcDbLine
 10
300.4473258699683
 20
-50.22483450965427
 11
300.8033258699683
 21
-50.22483450965427
  0
LINE
  5
27C
100
AcDbEntity
  8
Red 2
  6
ByLayer
 62
  256
370
   -1
100
AcDbLine
 10
300.8033258699683
 20
-50.22483450965427
 11
301.0313258699683
 21
-50.30083450965424
  0
LINE
  5
27D
100
AcDbEntity
  8
Red 2
  6
ByLayer
 62
  256
370
   -1
100
AcDbLine
 10
301.0313258699683
 20
-50.30083450965424
 11
301.1583258699683
 21
-50.45383450965426
  0
LINE
  5
27E
100
AcDbEntity
  8
Red 2
  6
ByLayer
 62
  256
370
   -1
100
AcDbLine
 10
301.1583258699683
 20
-50.45383450965426
 11
301.2343258699683
 21
-50.58083450965427
  0
LINE
  5
27F
100
AcDbEntity
  8
Red 2
  6
ByLayer
 62
  256
370
   -1
100
AcDbLine
 10
301.2343258699683
 20
-50.58083450965427
 11
301.3113258699683
 21
-50.85983450965426
  0
LINE
  5
280
100
AcDbEntity
  8
Red 2
  6
ByLayer
 62
  256
370
   -1
100
AcDbLine
 10
301.3113258699683
 20
-50.85983450965426
 11
301.3113258699683
 21
-51.08883450965425
  0
LINE
  5
281
100
AcDbEntity
  8
Red 2
  6
ByLayer
 62
  256
370
   -1
100
AcDbLine
 10
301.3113258699683
 20
-51.08883450965425
 11
301.2343258699683
 21
-51.36783450965424
  0
LINE
  5
282
100
AcDbEntity
  8
Red 2
  6
ByLayer
 62
  256
370
   -1
100
AcDbLine
 10
301.2343258699683
 20
-51.36783450965424
 11
301.1583258699683
 21
-51.51983450965423
  0
LINE
  5
283
100
AcDbEntity
  8
Red 2
  6
ByLayer
 62
  256
370
   -1
100
AcDbLine
 10
301.1583258699683
 20
-51.51983450965423
 11
301.0313258699683
 21
-51.64683450965424
  0
LINE
  5
284
100
AcDbEntity
  8
Red 2
  6
ByLayer
 62
  256
370
   -1
100
AcDbLine
 10
301.0313258699683
 20
-51.64683450965424
 11
300.8033258699683
 21
-51.72383450965424
  0
LINE
  5
285
100
AcDbEntity
  8
Red 2
  6
ByLayer
 62
  256
370
   -1
100
AcDbLine
 10
300.8033258699683
 20
-51.72383450965424
 11
300.4473258699683
 21
-51.72383450965424
  0
LINE
  5
286
100
AcDbEntity
  8
Red 2
  6
ByLayer
 62
  256
370
   -1
100
AcDbLine
 10
302.5813258699683
 20
-51.72383450965424
 11
302.5813258699683
 21
-50.93583450965423
  0
LINE
  5
287
100
AcDbEntity
  8
Red 2
  6
ByLayer
 62
  256
370
   -1
100
AcDbLine
 10
302.5813258699683
 20
-50.93583450965423
 11
302.5303258699683
 21
-50.80883450965428
  0
LINE
  5
288
100
AcDbEntity
  8
Red 2
  6
ByLayer
 62
  256
370
   -1
100
AcDbLine
 10
302.5303258699683
 20
-50.80883450965428
 11
302.3773258699683
 21
-50.73283450965425
  0
LINE
  5
289
100
AcDbEntity
  8
Red 2
  6
ByLayer
 62
  256
370
   -1
100
AcDbLine
 10
302.3773258699683
 20
-50.73283450965425
 11
302.0983258699683
 21
-50.73283450965425
  0
LINE
  5
28A
100
AcDbEntity
  8
Red 2
  6
ByLayer
 62
  256
370
   -1
100
AcDbLine
 10
302.0983258699683
 20
-50.73283450965425
 11
301.9463258699683
 21
-50.80883450965428
  0
LINE
  5
28B
100
AcDbEntity
  8
Red 2
  6
ByLayer
 62
  256
370
   -1
100
AcDbLine
 10
302.5813258699683
 20
-51.64683450965424
 11
302.4543258699683
 21
-51.72383450965424
  0
LINE
  5
28C
100
AcDbEntity
  8
Red 2
  6
ByLayer
 62
  256
370
   -1
100
AcDbLine
 10
302.4543258699683
 20
-51.72383450965424
 11
302.0983258699683
 21
-51.72383450965424
  0
LINE
  5
28D
100
AcDbEntity
  8
Red 2
  6
ByLayer
 62
  256
370
   -1
100
AcDbLine
 10
302.0983258699683
 20
-51.72383450965424
 11
301.9463258699683
 21
-51.64683450965424
  0
LINE
  5
28E
100
AcDbEntity
  8
Red 2
  6
ByLayer
 62
  256
370
   -1
100
AcDbLine
 10
301.9463258699683
 20
-51.64683450965424
 11
301.8693258699683
 21
-51.51983450965423
  0
LINE
  5
28F
100
AcDbEntity
  8
Red 2
  6
ByLayer
 62
  256
370
   -1
100
AcDbLine
 10
301.8693258699683
 20
-51.51983450965423
 11
301.8693258699683
 21
-51.36783450965424
  0
LINE
  5
290
100
AcDbEntity
  8
Red 2
  6
ByLayer
 62
  256
370
   -1
100
AcDbLine
 10
301.8693258699683
 20
-51.36783450965424
 11
301.9463258699683
 21
-51.24083450965423
  0
LINE
  5
291
100
AcDbEntity
  8
Red 2
  6
ByLayer
 62
  256
370
   -1
100
AcDbLine
 10
301.9463258699683
 20
-51.24083450965423
 11
302.0983258699683
 21
-51.16483450965427
  0
LINE
  5
292
100
AcDbEntity
  8
Red 2
  6
ByLayer
 62
  256
370
   -1
100
AcDbLine
 10
302.0983258699683
 20
-51.16483450965427
 11
302.4543258699683
 21
-51.16483450965427
  0
LINE
  5
293
100
AcDbEntity
  8
Red 2
  6
ByLayer
 62
  256
370
   -1
100
AcDbLine
 10
302.4543258699683
 20
-51.16483450965427
 11
302.5813258699683
 21
-51.08883450965425
  0
LINE
  5
294
100
AcDbEntity
  8
Red 2
  6
ByLayer
 62
  256
370
   -1
100
AcDbLine
 10
303.0893258699683
 20
-50.73283450965425
 11
303.6473258699683
 21
-50.73283450965425
  0
LINE
  5
295
100
AcDbEntity
  8
Red 2
  6
ByLayer
 62
  256
370
   -1
100
AcDbLine
 10
303.2923258699683
 20
-50.22483450965427
 11
303.2923258699683
 21
-51.51983450965423
  0
LINE
  5
296
100
AcDbEntity
  8
Red 2
  6
ByLayer
 62
  256
370
   -1
100
AcDbLine
 10
303.2923258699683
 20
-51.51983450965423
 11
303.3683258699683
 21
-51.64683450965424
  0
LINE
  5
297
100
AcDbEntity
  8
Red 2
  6
ByLayer
 62
  256
370
   -1
100
AcDbLine
 10
303.3683258699683
 20
-51.64683450965424
 11
303.4953258699683
 21
-51.72383450965424
  0
LINE
  5
298
100
AcDbEntity
  8
Red 2
  6
ByLayer
 62
  256
370
   -1
100
AcDbLine
 10
303.4953258699683
 20
-51.72383450965424
 11
303.6473258699683
 21
-51.72383450965424
  0
LINE
  5
299
100
AcDbEntity
  8
Red 2
  6
ByLayer
 62
  256
370
   -1
100
AcDbLine
 10
304.7403258699683
 20
-51.64683450965424
 11
304.5873258699683
 21
-51.72383450965424
  0
LINE
  5
29A
100
AcDbEntity
  8
Red 2
  6
ByLayer
 62
  256
370
   -1
100
AcDbLine
 10
304.5873258699683
 20
-51.72383450965424
 11
304.3083258699683
 21
-51.72383450965424
  0
LINE
  5
29B
100
AcDbEntity
  8
Red 2
  6
ByLayer
 62
  256
370
   -1
100
AcDbLine
 10
304.3083258699683
 20
-51.72383450965424
 11
304.1553258699683
 21
-51.64683450965424
  0
LINE
  5
29C
100
AcDbEntity
  8
Red 2
  6
ByLayer
 62
  256
370
   -1
100
AcDbLine
 10
304.1553258699683
 20
-51.64683450965424
 11
304.0793258699683
 21
-51.51983450965423
  0
LINE
  5
29D
100
AcDbEntity
  8
Red 2
  6
ByLayer
 62
  256
370
   -1
100
AcDbLine
 10
304.0793258699683
 20
-51.51983450965423
 11
304.0793258699683
 21
-50.93583450965423
  0
LINE
  5
29E
100
AcDbEntity
  8
Red 2
  6
ByLayer
 62
  256
370
   -1
100
AcDbLine
 10
304.0793258699683
 20
-50.93583450965423
 11
304.1553258699683
 21
-50.80883450965428
  0
LINE
  5
29F
100
AcDbEntity
  8
Red 2
  6
ByLayer
 62
  256
370
   -1
100
AcDbLine
 10
304.1553258699683
 20
-50.80883450965428
 11
304.3083258699683
 21
-50.73283450965425
  0
LINE
  5
2A0
100
AcDbEntity
  8
Red 2
  6
ByLayer
 62
  256
370
   -1
100
AcDbLine
 10
304.3083258699683
 20
-50.73283450965425
 11
304.5873258699683
 21
-50.73283450965425
  0
LINE
  5
2A1
100
AcDbEntity
  8
Red 2
  6
ByLayer
 62
  256
370
   -1
100
AcDbLine
 10
304.5873258699683
 20
-50.73283450965425
 11
304.7403258699683
 21
-50.80883450965428
  0
LINE
  5
2A2
100
AcDbEntity
  8
Red 2
  6
ByLayer
 62
  256
370
   -1
100
AcDbLine
 10
304.7403258699683
 20
-50.80883450965428
 11
304.7903258699683
 21
-50.93583450965423
  0
LINE
  5
2A3
100
AcDbEntity
  8
Red 2
  6
ByLayer
 62
  256
370
   -1
100
AcDbLine
 10
304.7903258699683
 20
-50.93583450965423
 11
304.7903258699683
 21
-51.08883450965425
  0
LINE
  5
2A4
100
AcDbEntity
  8
Red 2
  6
ByLayer
 62
  256
370
   -1
100
AcDbLine
 10
304.7903258699683
 20
-51.08883450965425
 11
304.0793258699683
 21
-51.24083450965423
  0
LINE
  5
2A5
100
AcDbEntity
  8
Red 2
  6
ByLayer
 62
  256
370
   -1
100
AcDbLine
 10
305.4513258699683
 20
-51.59683450965423
 11
305.5273258699683
 21
-51.64683450965424
  0
LINE
  5
2A6
100
AcDbEntity
  8
Red 2
  6
ByLayer
 62
  256
370
   -1
100
AcDbLine
 10
305.5273258699683
 20
-51.64683450965424
 11
305.4513258699683
 21
-51.72383450965424
  0
LINE
  5
2A7
100
AcDbEntity
  8
Red 2
  6
ByLayer
 62
  256
370
   -1
100
AcDbLine
 10
305.4513258699683
 20
-51.72383450965424
 11
305.3753258699683
 21
-51.64683450965424
  0
LINE
  5
2A8
100
AcDbEntity
  8
Red 2
  6
ByLayer
 62
  256
370
   -1
100
AcDbLine
 10
305.3753258699683
 20
-51.64683450965424
 11
305.4513258699683
 21
-51.59683450965423
  0
LINE
  5
2A9
100
AcDbEntity
  8
Red 2
  6
ByLayer
 62
  256
370
   -1
100
AcDbLine
 10
305.4513258699683
 20
-51.59683450965423
 11
305.4513258699683
 21
-51.72383450965424
  0
LINE
  5
2AA
100
AcDbEntity
  8
Red 2
  6
ByLayer
 62
  256
370
   -1
100
AcDbLine
 10
305.4513258699683
 20
-50.80883450965428
 11
305.5273258699683
 21
-50.85983450965426
  0
LINE
  5
2AB
100
AcDbEntity
  8
Red 2
  6
ByLayer
 62
  256
370
   -1
100
AcDbLine
 10
305.5273258699683
 20
-50.85983450965426
 11
305.4513258699683
 21
-50.93583450965423
  0
LINE
  5
2AC
100
AcDbEntity
  8
Red 2
  6
ByLayer
 62
  256
370
   -1
100
AcDbLine
 10
305.4513258699683
 20
-50.93583450965423
 11
305.3753258699683
 21
-50.85983450965426
  0
LINE
  5
2AD
100
AcDbEntity
  8
Red 2
  6
ByLayer
 62
  256
370
   -1
100
AcDbLine
 10
305.3753258699683
 20
-50.85983450965426
 11
305.4513258699683
 21
-50.80883450965428
  0
LINE
  5
2AE
100
AcDbEntity
  8
Red 2
  6
ByLayer
 62
  256
370
   -1
100
AcDbLine
 10
305.4513258699683
 20
-50.80883450965428
 11
305.4513258699683
 21
-50.93583450965423
  0
LINE
  5
2AF
100
AcDbEntity
  8
Red 2
  6
ByLayer
 62
  256
370
   -1
100
AcDbLine
 10
277.1043258699683
 20
-52.45983450965423
 11
385.1053258699683
 21
-52.45983450965423
  0
LINE
  5
2B0
100
AcDbEntity
  8
Red 2
  6
ByLayer
 62
  256
370
   -1
100
AcDbLine
 10
277.1043258699683
 20
-49.46283450965427
 11
385.1053258699683
 21
-49.46283450965427
  0
LINE
  5
2B1
100
AcDbEntity
  8
Red 2
  6
ByLayer
 62
  256
370
   -1
100
AcDbLine
 10
364.3033258699683
 20
-51.72383450965424
 11
363.7953258699683
 21
-51.01183450965425
  0
LINE
  5
2B2
100
AcDbEntity
  8
Red 2
  6
ByLayer
 62
  256
370
   -1
100
AcDbLine
 10
363.4393258699683
 20
-51.72383450965424
 11
363.4393258699683
 21
-50.22483450965427
  0
LINE
  5
2B3
100
AcDbEntity
  8
Red 2
  6
ByLayer
 62
  256
370
   -1
100
AcDbLine
 10
363.4393258699683
 20
-50.22483450965427
 11
364.0233258699683
 21
-50.22483450965427
  0
LINE
  5
2B4
100
AcDbEntity
  8
Red 2
  6
ByLayer
 62
  256
370
   -1
100
AcDbLine
 10
364.0233258699683
 20
-50.22483450965427
 11
364.1503258699683
 21
-50.30083450965424
  0
LINE
  5
2B5
100
AcDbEntity
  8
Red 2
  6
ByLayer
 62
  256
370
   -1
100
AcDbLine
 10
364.1503258699683
 20
-50.30083450965424
 11
364.2263258699683
 21
-50.37683450965426
  0
LINE
  5
2B6
100
AcDbEntity
  8
Red 2
  6
ByLayer
 62
  256
370
   -1
100
AcDbLine
 10
364.2263258699683
 20
-50.37683450965426
 11
364.3033258699683
 21
-50.50383450965427
  0
LINE
  5
2B7
100
AcDbEntity
  8
Red 2
  6
ByLayer
 62
  256
370
   -1
100
AcDbLine
 10
364.3033258699683
 20
-50.50383450965427
 11
364.3033258699683
 21
-50.73283450965425
  0
LINE
  5
2B8
100
AcDbEntity
  8
Red 2
  6
ByLayer
 62
  256
370
   -1
100
AcDbLine
 10
364.3033258699683
 20
-50.73283450965425
 11
364.2263258699683
 21
-50.85983450965426
  0
LINE
  5
2B9
100
AcDbEntity
  8
Red 2
  6
ByLayer
 62
  256
370
   -1
100
AcDbLine
 10
364.2263258699683
 20
-50.85983450965426
 11
364.1503258699683
 21
-50.93583450965423
  0
LINE
  5
2BA
100
AcDbEntity
  8
Red 2
  6
ByLayer
 62
  256
370
   -1
100
AcDbLine
 10
364.1503258699683
 20
-50.93583450965423
 11
364.0233258699683
 21
-51.01183450965425
  0
LINE
  5
2BB
100
AcDbEntity
  8
Red 2
  6
ByLayer
 62
  256
370
   -1
100
AcDbLine
 10
364.0233258699683
 20
-51.01183450965425
 11
363.4393258699683
 21
-51.01183450965425
  0
LINE
  5
2BC
100
AcDbEntity
  8
Red 2
  6
ByLayer
 62
  256
370
   -1
100
AcDbLine
 10
365.5223258699683
 20
-51.64683450965424
 11
365.3693258699683
 21
-51.72383450965424
  0
LINE
  5
2BD
100
AcDbEntity
  8
Red 2
  6
ByLayer
 62
  256
370
   -1
100
AcDbLine
 10
365.3693258699683
 20
-51.72383450965424
 11
365.0903258699683
 21
-51.72383450965424
  0
LINE
  5
2BE
100
AcDbEntity
  8
Red 2
  6
ByLayer
 62
  256
370
   -1
100
AcDbLine
 10
365.0903258699683
 20
-51.72383450965424
 11
364.9383258699683
 21
-51.64683450965424
  0
LINE
  5
2BF
100
AcDbEntity
  8
Red 2
  6
ByLayer
 62
  256
370
   -1
100
AcDbLine
 10
364.9383258699683
 20
-51.64683450965424
 11
364.8613258699683
 21
-51.51983450965423
  0
LINE
  5
2C0
100
AcDbEntity
  8
Red 2
  6
ByLayer
 62
  256
370
   -1
100
AcDbLine
 10
364.8613258699683
 20
-51.51983450965423
 11
364.8613258699683
 21
-50.93583450965423
  0
LINE
  5
2C1
100
AcDbEntity
  8
Red 2
  6
ByLayer
 62
  256
370
   -1
100
AcDbLine
 10
364.8613258699683
 20
-50.93583450965423
 11
364.9383258699683
 21
-50.80883450965428
  0
LINE
  5
2C2
100
AcDbEntity
  8
Red 2
  6
ByLayer
 62
  256
370
   -1
100
AcDbLine
 10
364.9383258699683
 20
-50.80883450965428
 11
365.0903258699683
 21
-50.73283450965425
  0
LINE
  5
2C3
100
AcDbEntity
  8
Red 2
  6
ByLayer
 62
  256
370
   -1
100
AcDbLine
 10
365.0903258699683
 20
-50.73283450965425
 11
365.3693258699683
 21
-50.73283450965425
  0
LINE
  5
2C4
100
AcDbEntity
  8
Red 2
  6
ByLayer
 62
  256
370
   -1
100
AcDbLine
 10
365.3693258699683
 20
-50.73283450965425
 11
365.5223258699683
 21
-50.80883450965428
  0
LINE
  5
2C5
100
AcDbEntity
  8
Red 2
  6
ByLayer
 62
  256
370
   -1
100
AcDbLine
 10
365.5223258699683
 20
-50.80883450965428
 11
365.5733258699683
 21
-50.93583450965423
  0
LINE
  5
2C6
100
AcDbEntity
  8
Red 2
  6
ByLayer
 62
  256
370
   -1
100
AcDbLine
 10
365.5733258699683
 20
-50.93583450965423
 11
365.5733258699683
 21
-51.08883450965425
  0
LINE
  5
2C7
100
AcDbEntity
  8
Red 2
  6
ByLayer
 62
  256
370
   -1
100
AcDbLine
 10
365.5733258699683
 20
-51.08883450965425
 11
364.8613258699683
 21
-51.24083450965423
  0
LINE
  5
2C8
100
AcDbEntity
  8
Red 2
  6
ByLayer
 62
  256
370
   -1
100
AcDbLine
 10
366.0813258699683
 20
-50.73283450965425
 11
366.4363258699683
 21
-51.72383450965424
  0
LINE
  5
2C9
100
AcDbEntity
  8
Red 2
  6
ByLayer
 62
  256
370
   -1
100
AcDbLine
 10
366.4363258699683
 20
-51.72383450965424
 11
366.8173258699683
 21
-50.73283450965425
  0
LINE
  5
2CA
100
AcDbEntity
  8
Red 2
  6
ByLayer
 62
  256
370
   -1
100
AcDbLine
 10
367.3763258699683
 20
-51.59683450965423
 11
367.4523258699683
 21
-51.64683450965424
  0
LINE
  5
2CB
100
AcDbEntity
  8
Red 2
  6
ByLayer
 62
  256
370
   -1
100
AcDbLine
 10
367.4523258699683
 20
-51.64683450965424
 11
367.3763258699683
 21
-51.72383450965424
  0
LINE
  5
2CC
100
AcDbEntity
  8
Red 2
  6
ByLayer
 62
  256
370
   -1
100
AcDbLine
 10
367.3763258699683
 20
-51.72383450965424
 11
367.3003258699683
 21
-51.64683450965424
  0
LINE
  5
2CD
100
AcDbEntity
  8
Red 2
  6
ByLayer
 62
  256
370
   -1
100
AcDbLine
 10
367.3003258699683
 20
-51.64683450965424
 11
367.3763258699683
 21
-51.59683450965423
  0
LINE
  5
2CE
100
AcDbEntity
  8
Red 2
  6
ByLayer
 62
  256
370
   -1
100
AcDbLine
 10
367.3763258699683
 20
-51.59683450965423
 11
367.3763258699683
 21
-51.72383450965424
  0
LINE
  5
2CF
100
AcDbEntity
  8
Red 2
  6
ByLayer
 62
  256
370
   -1
100
AcDbLine
 10
367.3763258699683
 20
-50.80883450965428
 11
367.4523258699683
 21
-50.85983450965426
  0
LINE
  5
2D0
100
AcDbEntity
  8
Red 2
  6
ByLayer
 62
  256
370
   -1
100
AcDbLine
 10
367.4523258699683
 20
-50.85983450965426
 11
367.3763258699683
 21
-50.93583450965423
  0
LINE
  5
2D1
100
AcDbEntity
  8
Red 2
  6
ByLayer
 62
  256
370
   -1
100
AcDbLine
 10
367.3763258699683
 20
-50.93583450965423
 11
367.3003258699683
 21
-50.85983450965426
  0
LINE
  5
2D2
100
AcDbEntity
  8
Red 2
  6
ByLayer
 62
  256
370
   -1
100
AcDbLine
 10
367.3003258699683
 20
-50.85983450965426
 11
367.3763258699683
 21
-50.80883450965428
  0
LINE
  5
2D3
100
AcDbEntity
  8
Red 2
  6
ByLayer
 62
  256
370
   -1
100
AcDbLine
 10
367.3763258699683
 20
-50.80883450965428
 11
367.3763258699683
 21
-50.93583450965423
  0
LINE
  5
2D4
100
AcDbEntity
  8
Red 2
  6
ByLayer
 62
  256
370
   -1
100
AcDbLine
 10
278.3743258699683
 20
-51.64683450965424
 11
278.6033258699683
 21
-51.72383450965424
  0
LINE
  5
2D5
100
AcDbEntity
  8
Red 2
  6
ByLayer
 62
  256
370
   -1
100
AcDbLine
 10
278.6033258699683
 20
-51.72383450965424
 11
278.9593258699683
 21
-51.72383450965424
  0
LINE
  5
2D6
100
AcDbEntity
  8
Red 2
  6
ByLayer
 62
  256
370
   -1
100
AcDbLine
 10
278.9593258699683
 20
-51.72383450965424
 11
279.0863258699683
 21
-51.64683450965424
  0
LINE
  5
2D7
100
AcDbEntity
  8
Red 2
  6
ByLayer
 62
  256
370
   -1
100
AcDbLine
 10
279.0863258699683
 20
-51.64683450965424
 11
279.1623258699683
 21
-51.59683450965423
  0
LINE
  5
2D8
100
AcDbEntity
  8
Red 2
  6
ByLayer
 62
  256
370
   -1
100
AcDbLine
 10
279.1623258699683
 20
-51.59683450965423
 11
279.2383258699683
 21
-51.44383450965427
  0
LINE
  5
2D9
100
AcDbEntity
  8
Red 2
  6
ByLayer
 62
  256
370
   -1
100
AcDbLine
 10
279.2383258699683
 20
-51.44383450965427
 11
279.2383258699683
 21
-51.29183450965422
  0
LINE
  5
2DA
100
AcDbEntity
  8
Red 2
  6
ByLayer
 62
  256
370
   -1
100
AcDbLine
 10
279.2383258699683
 20
-51.29183450965422
 11
279.1623258699683
 21
-51.16483450965427
  0
LINE
  5
2DB
100
AcDbEntity
  8
Red 2
  6
ByLayer
 62
  256
370
   -1
100
AcDbLine
 10
279.1623258699683
 20
-51.16483450965427
 11
279.0863258699683
 21
-51.08883450965425
  0
LINE
  5
2DC
100
AcDbEntity
  8
Red 2
  6
ByLayer
 62
  256
370
   -1
100
AcDbLine
 10
279.0863258699683
 20
-51.08883450965425
 11
278.9593258699683
 21
-51.01183450965425
  0
LINE
  5
2DD
100
AcDbEntity
  8
Red 2
  6
ByLayer
 62
  256
370
   -1
100
AcDbLine
 10
278.9593258699683
 20
-51.01183450965425
 11
278.6543258699683
 21
-50.93583450965423
  0
LINE
  5
2DE
100
AcDbEntity
  8
Red 2
  6
ByLayer
 62
  256
370
   -1
100
AcDbLine
 10
278.6543258699683
 20
-50.93583450965423
 11
278.5273258699683
 21
-50.85983450965426
  0
LINE
  5
2DF
100
AcDbEntity
  8
Red 2
  6
ByLayer
 62
  256
370
   -1
100
AcDbLine
 10
278.5273258699683
 20
-50.85983450965426
 11
278.4513258699683
 21
-50.80883450965428
  0
LINE
  5
2E0
100
AcDbEntity
  8
Red 2
  6
ByLayer
 62
  256
370
   -1
100
AcDbLine
 10
278.4513258699683
 20
-50.80883450965428
 11
278.3743258699683
 21
-50.65683450965423
  0
LINE
  5
2E1
100
AcDbEntity
  8
Red 2
  6
ByLayer
 62
  256
370
   -1
100
AcDbLine
 10
278.3743258699683
 20
-50.65683450965423
 11
278.3743258699683
 21
-50.50383450965427
  0
LINE
  5
2E2
100
AcDbEntity
  8
Red 2
  6
ByLayer
 62
  256
370
   -1
100
AcDbLine
 10
278.3743258699683
 20
-50.50383450965427
 11
278.4513258699683
 21
-50.37683450965426
  0
LINE
  5
2E3
100
AcDbEntity
  8
Red 2
  6
ByLayer
 62
  256
370
   -1
100
AcDbLine
 10
278.4513258699683
 20
-50.37683450965426
 11
278.5273258699683
 21
-50.30083450965424
  0
LINE
  5
2E4
100
AcDbEntity
  8
Red 2
  6
ByLayer
 62
  256
370
   -1
100
AcDbLine
 10
278.5273258699683
 20
-50.30083450965424
 11
278.6543258699683
 21
-50.22483450965427
  0
LINE
  5
2E5
100
AcDbEntity
  8
Red 2
  6
ByLayer
 62
  256
370
   -1
100
AcDbLine
 10
278.6543258699683
 20
-50.22483450965427
 11
279.0353258699683
 21
-50.22483450965427
  0
LINE
  5
2E6
100
AcDbEntity
  8
Red 2
  6
ByLayer
 62
  256
370
   -1
100
AcDbLine
 10
279.0353258699683
 20
-50.22483450965427
 11
279.2383258699683
 21
-50.30083450965424
  0
LINE
  5
2E7
100
AcDbEntity
  8
Red 2
  6
ByLayer
 62
  256
370
   -1
100
AcDbLine
 10
279.8733258699683
 20
-51.72383450965424
 11
279.8733258699683
 21
-50.73283450965425
  0
LINE
  5
2E8
100
AcDbEntity
  8
Red 2
  6
ByLayer
 62
  256
370
   -1
100
AcDbLine
 10
279.8733258699683
 20
-50.22483450965427
 11
279.7973258699683
 21
-50.30083450965424
  0
LINE
  5
2E9
100
AcDbEntity
  8
Red 2
  6
ByLayer
 62
  256
370
   -1
100
AcDbLine
 10
279.7973258699683
 20
-50.30083450965424
 11
279.8733258699683
 21
-50.37683450965426
  0
LINE
  5
2EA
100
AcDbEntity
  8
Red 2
  6
ByLayer
 62
  256
370
   -1
100
AcDbLine
 10
279.8733258699683
 20
-50.37683450965426
 11
279.9493258699683
 21
-50.30083450965424
  0
LINE
  5
2EB
100
AcDbEntity
  8
Red 2
  6
ByLayer
 62
  256
370
   -1
100
AcDbLine
 10
279.9493258699683
 20
-50.30083450965424
 11
279.8733258699683
 21
-50.22483450965427
  0
LINE
  5
2EC
100
AcDbEntity
  8
Red 2
  6
ByLayer
 62
  256
370
   -1
100
AcDbLine
 10
279.8733258699683
 20
-50.22483450965427
 11
279.8733258699683
 21
-50.37683450965426
  0
LINE
  5
2ED
100
AcDbEntity
  8
Red 2
  6
ByLayer
 62
  256
370
   -1
100
AcDbLine
 10
280.4323258699683
 20
-50.73283450965425
 11
281.2193258699683
 21
-50.73283450965425
  0
LINE
  5
2EE
100
AcDbEntity
  8
Red 2
  6
ByLayer
 62
  256
370
   -1
100
AcDbLine
 10
281.2193258699683
 20
-50.73283450965425
 11
280.4323258699683
 21
-51.72383450965424
  0
LINE
  5
2EF
100
AcDbEntity
  8
Red 2
  6
ByLayer
 62
  256
370
   -1
100
AcDbLine
 10
280.4323258699683
 20
-51.72383450965424
 11
281.2193258699683
 21
-51.72383450965424
  0
LINE
  5
2F0
100
AcDbEntity
  8
Red 2
  6
ByLayer
 62
  256
370
   -1
100
AcDbLine
 10
282.3883258699683
 20
-51.64683450965424
 11
282.2353258699683
 21
-51.72383450965424
  0
LINE
  5
2F1
100
AcDbEntity
  8
Red 2
  6
ByLayer
 62
  256
370
   -1
100
AcDbLine
 10
282.2353258699683
 20
-51.72383450965424
 11
281.9563258699683
 21
-51.72383450965424
  0
LINE
  5
2F2
100
AcDbEntity
  8
Red 2
  6
ByLayer
 62
  256
370
   -1
100
AcDbLine
 10
281.9563258699683
 20
-51.72383450965424
 11
281.8033258699683
 21
-51.64683450965424
  0
LINE
  5
2F3
100
AcDbEntity
  8
Red 2
  6
ByLayer
 62
  256
370
   -1
100
AcDbLine
 10
281.8033258699683
 20
-51.64683450965424
 11
281.7273258699683
 21
-51.51983450965423
  0
LINE
  5
2F4
100
AcDbEntity
  8
Red 2
  6
ByLayer
 62
  256
370
   -1
100
AcDbLine
 10
281.7273258699683
 20
-51.51983450965423
 11
281.7273258699683
 21
-50.93583450965423
  0
LINE
  5
2F5
100
AcDbEntity
  8
Red 2
  6
ByLayer
 62
  256
370
   -1
100
AcDbLine
 10
281.7273258699683
 20
-50.93583450965423
 11
281.8033258699683
 21
-50.80883450965428
  0
LINE
  5
2F6
100
AcDbEntity
  8
Red 2
  6
ByLayer
 62
  256
370
   -1
100
AcDbLine
 10
281.8033258699683
 20
-50.80883450965428
 11
281.9563258699683
 21
-50.73283450965425
  0
LINE
  5
2F7
100
AcDbEntity
  8
Red 2
  6
ByLayer
 62
  256
370
   -1
100
AcDbLine
 10
281.9563258699683
 20
-50.73283450965425
 11
282.2353258699683
 21
-50.73283450965425
  0
LINE
  5
2F8
100
AcDbEntity
  8
Red 2
  6
ByLayer
 62
  256
370
   -1
100
AcDbLine
 10
282.2353258699683
 20
-50.73283450965425
 11
282.3883258699683
 21
-50.80883450965428
  0
LINE
  5
2F9
100
AcDbEntity
  8
Red 2
  6
ByLayer
 62
  256
370
   -1
100
AcDbLine
 10
282.3883258699683
 20
-50.80883450965428
 11
282.4383258699683
 21
-50.93583450965423
  0
LINE
  5
2FA
100
AcDbEntity
  8
Red 2
  6
ByLayer
 62
  256
370
   -1
100
AcDbLine
 10
282.4383258699683
 20
-50.93583450965423
 11
282.4383258699683
 21
-51.08883450965425
  0
LINE
  5
2FB
100
AcDbEntity
  8
Red 2
  6
ByLayer
 62
  256
370
   -1
100
AcDbLine
 10
282.4383258699683
 20
-51.08883450965425
 11
281.7273258699683
 21
-51.24083450965423
  0
LINE
  5
2FC
100
AcDbEntity
  8
Red 2
  6
ByLayer
 62
  256
370
   -1
100
AcDbLine
 10
283.0993258699683
 20
-51.59683450965423
 11
283.1753258699683
 21
-51.64683450965424
  0
LINE
  5
2FD
100
AcDbEntity
  8
Red 2
  6
ByLayer
 62
  256
370
   -1
100
AcDbLine
 10
283.1753258699683
 20
-51.64683450965424
 11
283.0993258699683
 21
-51.72383450965424
  0
LINE
  5
2FE
100
AcDbEntity
  8
Red 2
  6
ByLayer
 62
  256
370
   -1
100
AcDbLine
 10
283.0993258699683
 20
-51.72383450965424
 11
283.0233258699683
 21
-51.64683450965424
  0
LINE
  5
2FF
100
AcDbEntity
  8
Red 2
  6
ByLayer
 62
  256
370
   -1
100
AcDbLine
 10
283.0233258699683
 20
-51.64683450965424
 11
283.0993258699683
 21
-51.59683450965423
  0
LINE
  5
300
100
AcDbEntity
  8
Red 2
  6
ByLayer
 62
  256
370
   -1
100
AcDbLine
 10
283.0993258699683
 20
-51.59683450965423
 11
283.0993258699683
 21
-51.72383450965424
  0
LINE
  5
301
100
AcDbEntity
  8
Red 2
  6
ByLayer
 62
  256
370
   -1
100
AcDbLine
 10
283.0993258699683
 20
-50.80883450965428
 11
283.1753258699683
 21
-50.85983450965426
  0
LINE
  5
302
100
AcDbEntity
  8
Red 2
  6
ByLayer
 62
  256
370
   -1
100
AcDbLine
 10
283.1753258699683
 20
-50.85983450965426
 11
283.0993258699683
 21
-50.93583450965423
  0
LINE
  5
303
100
AcDbEntity
  8
Red 2
  6
ByLayer
 62
  256
370
   -1
100
AcDbLine
 10
283.0993258699683
 20
-50.93583450965423
 11
283.0233258699683
 21
-50.85983450965426
  0
LINE
  5
304
100
AcDbEntity
  8
Red 2
  6
ByLayer
 62
  256
370
   -1
100
AcDbLine
 10
283.0233258699683
 20
-50.85983450965426
 11
283.0993258699683
 21
-50.80883450965428
  0
LINE
  5
305
100
AcDbEntity
  8
Red 2
  6
ByLayer
 62
  256
370
   -1
100
AcDbLine
 10
283.0993258699683
 20
-50.80883450965428
 11
283.0993258699683
 21
-50.93583450965423
  0
LINE
  5
306
100
AcDbEntity
  8
Red 2
  6
ByLayer
 62
  256
370
   -1
100
AcDbLine
 10
284.8773258699683
 20
-51.29183450965422
 11
285.5883258699683
 21
-51.29183450965422
  0
LINE
  5
307
100
AcDbEntity
  8
Red 2
  6
ByLayer
 62
  256
370
   -1
100
AcDbLine
 10
284.7503258699683
 20
-51.72383450965424
 11
285.2323258699683
 21
-50.22483450965427
  0
LINE
  5
308
100
AcDbEntity
  8
Red 2
  6
ByLayer
 62
  256
370
   -1
100
AcDbLine
 10
285.2323258699683
 20
-50.22483450965427
 11
285.7403258699683
 21
-51.72383450965424
  0
LINE
  5
309
100
AcDbEntity
  8
Red 2
  6
ByLayer
 62
  256
370
   -1
100
AcDbLine
 10
286.0963258699683
 20
-50.22483450965427
 11
287.0363258699683
 21
-50.22483450965427
  0
LINE
  5
30A
100
AcDbEntity
  8
Red 2
  6
ByLayer
 62
  256
370
   -1
100
AcDbLine
 10
287.0363258699683
 20
-50.22483450965427
 11
286.5283258699683
 21
-50.80883450965428
  0
LINE
  5
30B
100
AcDbEntity
  8
Red 2
  6
ByLayer
 62
  256
370
   -1
100
AcDbLine
 10
286.5283258699683
 20
-50.80883450965428
 11
286.7563258699683
 21
-50.80883450965428
  0
LINE
  5
30C
100
AcDbEntity
  8
Red 2
  6
ByLayer
 62
  256
370
   -1
100
AcDbLine
 10
286.7563258699683
 20
-50.80883450965428
 11
286.8833258699683
 21
-50.85983450965426
  0
LINE
  5
30D
100
AcDbEntity
  8
Red 2
  6
ByLayer
 62
  256
370
   -1
100
AcDbLine
 10
286.8833258699683
 20
-50.85983450965426
 11
286.9603258699683
 21
-50.93583450965423
  0
LINE
  5
30E
100
AcDbEntity
  8
Red 2
  6
ByLayer
 62
  256
370
   -1
100
AcDbLine
 10
286.9603258699683
 20
-50.93583450965423
 11
287.0363258699683
 21
-51.08883450965425
  0
LINE
  5
30F
100
AcDbEntity
  8
Red 2
  6
ByLayer
 62
  256
370
   -1
100
AcDbLine
 10
287.0363258699683
 20
-51.08883450965425
 11
287.0363258699683
 21
-51.44383450965427
  0
LINE
  5
310
100
AcDbEntity
  8
Red 2
  6
ByLayer
 62
  256
370
   -1
100
AcDbLine
 10
287.0363258699683
 20
-51.44383450965427
 11
286.9603258699683
 21
-51.59683450965423
  0
LINE
  5
311
100
AcDbEntity
  8
Red 2
  6
ByLayer
 62
  256
370
   -1
100
AcDbLine
 10
286.9603258699683
 20
-51.59683450965423
 11
286.8833258699683
 21
-51.64683450965424
  0
LINE
  5
312
100
AcDbEntity
  8
Red 2
  6
ByLayer
 62
  256
370
   -1
100
AcDbLine
 10
286.8833258699683
 20
-51.64683450965424
 11
286.7563258699683
 21
-51.72383450965424
  0
LINE
  5
313
100
AcDbEntity
  8
Red 2
  6
ByLayer
 62
  256
370
   -1
100
AcDbLine
 10
286.7563258699683
 20
-51.72383450965424
 11
286.3253258699683
 21
-51.72383450965424
  0
LINE
  5
314
100
AcDbEntity
  8
Red 2
  6
ByLayer
 62
  256
370
   -1
100
AcDbLine
 10
286.3253258699683
 20
-51.72383450965424
 11
286.1723258699683
 21
-51.64683450965424
  0
LINE
  5
315
100
AcDbEntity
  8
Red 2
  6
ByLayer
 62
  256
370
   -1
100
AcDbLine
 10
286.1723258699683
 20
-51.64683450965424
 11
286.0963258699683
 21
-51.59683450965423
  0
LINE
  5
316
100
AcDbEntity
  8
Red 2
  6
ByLayer
 62
  256
370
   -1
100
AcDbLine
 10
363.4393258699683
 20
-54.51783450965422
 11
363.4393258699683
 21
-53.01883450965425
  0
LINE
  5
317
100
AcDbEntity
  8
Red 2
  6
ByLayer
 62
  256
370
   -1
100
AcDbLine
 10
364.7853258699683
 20
-54.51783450965422
 11
364.7853258699683
 21
-53.01883450965425
  0
LINE
  5
318
100
AcDbEntity
  8
Red 2
  6
ByLayer
 62
  256
370
   -1
100
AcDbLine
 10
364.7853258699683
 20
-54.44083450965422
 11
364.6583258699683
 21
-54.51783450965422
  0
LINE
  5
319
100
AcDbEntity
  8
Red 2
  6
ByLayer
 62
  256
370
   -1
100
AcDbLine
 10
364.6583258699683
 20
-54.51783450965422
 11
364.3533258699683
 21
-54.51783450965422
  0
LINE
  5
31A
100
AcDbEntity
  8
Red 2
  6
ByLayer
 62
  256
370
   -1
100
AcDbLine
 10
364.3533258699683
 20
-54.51783450965422
 11
364.2263258699683
 21
-54.44083450965422
  0
LINE
  5
31B
100
AcDbEntity
  8
Red 2
  6
ByLayer
 62
  256
370
   -1
100
AcDbLine
 10
364.2263258699683
 20
-54.44083450965422
 11
364.1503258699683
 21
-54.39083450965427
  0
LINE
  5
31C
100
AcDbEntity
  8
Red 2
  6
ByLayer
 62
  256
370
   -1
100
AcDbLine
 10
364.1503258699683
 20
-54.39083450965427
 11
364.0743258699683
 21
-54.23783450965425
  0
LINE
  5
31D
100
AcDbEntity
  8
Red 2
  6
ByLayer
 62
  256
370
   -1
100
AcDbLine
 10
364.0743258699683
 20
-54.23783450965425
 11
364.0743258699683
 21
-53.80583450965423
  0
LINE
  5
31E
100
AcDbEntity
  8
Red 2
  6
ByLayer
 62
  256
370
   -1
100
AcDbLine
 10
364.0743258699683
 20
-53.80583450965423
 11
364.1503258699683
 21
-53.65383450965425
  0
LINE
  5
31F
100
AcDbEntity
  8
Red 2
  6
ByLayer
 62
  256
370
   -1
100
AcDbLine
 10
364.1503258699683
 20
-53.65383450965425
 11
364.2263258699683
 21
-53.60283450965426
  0
LINE
  5
320
100
AcDbEntity
  8
Red 2
  6
ByLayer
 62
  256
370
   -1
100
AcDbLine
 10
364.2263258699683
 20
-53.60283450965426
 11
364.3533258699683
 21
-53.52683450965424
  0
LINE
  5
321
100
AcDbEntity
  8
Red 2
  6
ByLayer
 62
  256
370
   -1
100
AcDbLine
 10
364.3533258699683
 20
-53.52683450965424
 11
364.6583258699683
 21
-53.52683450965424
  0
LINE
  5
322
100
AcDbEntity
  8
Red 2
  6
ByLayer
 62
  256
370
   -1
100
AcDbLine
 10
364.6583258699683
 20
-53.52683450965424
 11
364.7853258699683
 21
-53.60283450965426
  0
LINE
  5
323
100
AcDbEntity
  8
Red 2
  6
ByLayer
 62
  256
370
   -1
100
AcDbLine
 10
365.4963258699683
 20
-54.39083450965427
 11
365.5733258699683
 21
-54.44083450965422
  0
LINE
  5
324
100
AcDbEntity
  8
Red 2
  6
ByLayer
 62
  256
370
   -1
100
AcDbLine
 10
365.5733258699683
 20
-54.44083450965422
 11
365.4963258699683
 21
-54.51783450965422
  0
LINE
  5
325
100
AcDbEntity
  8
Red 2
  6
ByLayer
 62
  256
370
   -1
100
AcDbLine
 10
365.4963258699683
 20
-54.51783450965422
 11
365.4203258699683
 21
-54.44083450965422
  0
LINE
  5
326
100
AcDbEntity
  8
Red 2
  6
ByLayer
 62
  256
370
   -1
100
AcDbLine
 10
365.4203258699683
 20
-54.44083450965422
 11
365.4963258699683
 21
-54.39083450965427
  0
LINE
  5
327
100
AcDbEntity
  8
Red 2
  6
ByLayer
 62
  256
370
   -1
100
AcDbLine
 10
365.4963258699683
 20
-54.39083450965427
 11
365.4963258699683
 21
-54.51783450965422
  0
LINE
  5
328
100
AcDbEntity
  8
Red 2
  6
ByLayer
 62
  256
370
   -1
100
AcDbLine
 10
365.4963258699683
 20
-53.60283450965426
 11
365.5733258699683
 21
-53.65383450965425
  0
LINE
  5
329
100
AcDbEntity
  8
Red 2
  6
ByLayer
 62
  256
370
   -1
100
AcDbLine
 10
365.5733258699683
 20
-53.65383450965425
 11
365.4963258699683
 21
-53.72983450965427
  0
LINE
  5
32A
100
AcDbEntity
  8
Red 2
  6
ByLayer
 62
  256
370
   -1
100
AcDbLine
 10
365.4963258699683
 20
-53.72983450965427
 11
365.4203258699683
 21
-53.65383450965425
  0
LINE
  5
32B
100
AcDbEntity
  8
Red 2
  6
ByLayer
 62
  256
370
   -1
100
AcDbLine
 10
365.4203258699683
 20
-53.65383450965425
 11
365.4963258699683
 21
-53.60283450965426
  0
LINE
  5
32C
100
AcDbEntity
  8
Red 2
  6
ByLayer
 62
  256
370
   -1
100
AcDbLine
 10
365.4963258699683
 20
-53.60283450965426
 11
365.4963258699683
 21
-53.72983450965427
  0
LINE
  5
32D
100
AcDbEntity
  8
Red 2
  6
ByLayer
 62
  256
370
   -1
100
AcDbLine
 10
368.1383258699683
 20
-54.51783450965422
 11
367.2743258699683
 21
-54.51783450965422
  0
LINE
  5
32E
100
AcDbEntity
  8
Red 2
  6
ByLayer
 62
  256
370
   -1
100
AcDbLine
 10
367.7063258699683
 20
-54.51783450965422
 11
367.7063258699683
 21
-53.01883450965425
  0
LINE
  5
32F
100
AcDbEntity
  8
Red 2
  6
ByLayer
 62
  256
370
   -1
100
AcDbLine
 10
367.7063258699683
 20
-53.01883450965425
 11
367.5543258699683
 21
-53.24783450965424
  0
LINE
  5
330
100
AcDbEntity
  8
Red 2
  6
ByLayer
 62
  256
370
   -1
100
AcDbLine
 10
367.5543258699683
 20
-53.24783450965424
 11
367.4273258699683
 21
-53.37483450965425
  0
LINE
  5
331
100
AcDbEntity
  8
Red 2
  6
ByLayer
 62
  256
370
   -1
100
AcDbLine
 10
367.4273258699683
 20
-53.37483450965425
 11
367.2743258699683
 21
-53.45083450965427
  0
LINE
  5
332
100
AcDbEntity
  8
Red 2
  6
ByLayer
 62
  256
370
   -1
100
AcDbLine
 10
369.8403258699683
 20
-52.94283450965423
 11
368.5703258699683
 21
-54.87283450965424
  0
LINE
  5
333
100
AcDbEntity
  8
Red 2
  6
ByLayer
 62
  256
370
   -1
100
AcDbLine
 10
371.1353258699683
 20
-54.51783450965422
 11
370.2723258699683
 21
-54.51783450965422
  0
LINE
  5
334
100
AcDbEntity
  8
Red 2
  6
ByLayer
 62
  256
370
   -1
100
AcDbLine
 10
370.7033258699683
 20
-54.51783450965422
 11
370.7033258699683
 21
-53.01883450965425
  0
LINE
  5
335
100
AcDbEntity
  8
Red 2
  6
ByLayer
 62
  256
370
   -1
100
AcDbLine
 10
370.7033258699683
 20
-53.01883450965425
 11
370.5513258699683
 21
-53.24783450965424
  0
LINE
  5
336
100
AcDbEntity
  8
Red 2
  6
ByLayer
 62
  256
370
   -1
100
AcDbLine
 10
370.5513258699683
 20
-53.24783450965424
 11
370.4243258699683
 21
-53.37483450965425
  0
LINE
  5
337
100
AcDbEntity
  8
Red 2
  6
ByLayer
 62
  256
370
   -1
100
AcDbLine
 10
370.4243258699683
 20
-53.37483450965425
 11
370.2723258699683
 21
-53.45083450965427
  0
LINE
  5
338
100
AcDbEntity
  8
Red 2
  6
ByLayer
 62
  256
370
   -1
100
AcDbLine
 10
277.1043258699683
 20
-45.44983450965424
 11
385.1053258699683
 21
-45.44983450965424
  0
LINE
  5
339
100
AcDbEntity
  8
Red 2
  6
ByLayer
 62
  256
370
   -1
100
AcDbLine
 10
278.5523258699683
 20
-46.13583450965427
 11
279.6953258699683
 21
-46.13583450965427
  0
LINE
  5
33A
100
AcDbEntity
  8
Red 2
  6
ByLayer
 62
  256
370
   -1
100
AcDbLine
 10
278.8823258699683
 20
-48.14183450965425
 11
279.1113258699683
 21
-46.13583450965427
  0
LINE
  5
33B
100
AcDbEntity
  8
Red 2
  6
ByLayer
 62
  256
370
   -1
100
AcDbLine
 10
280.1273258699683
 20
-48.14183450965425
 11
280.2793258699683
 21
-46.82083450965428
  0
LINE
  5
33C
100
AcDbEntity
  8
Red 2
  6
ByLayer
 62
  256
370
   -1
100
AcDbLine
 10
280.3563258699683
 20
-46.13583450965427
 11
280.2543258699683
 21
-46.23683450965427
  0
LINE
  5
33D
100
AcDbEntity
  8
Red 2
  6
ByLayer
 62
  256
370
   -1
100
AcDbLine
 10
280.2543258699683
 20
-46.23683450965427
 11
280.3303258699683
 21
-46.33883450965425
  0
LINE
  5
33E
100
AcDbEntity
  8
Red 2
  6
ByLayer
 62
  256
370
   -1
100
AcDbLine
 10
280.3303258699683
 20
-46.33883450965425
 11
280.4573258699683
 21
-46.23683450965427
  0
LINE
  5
33F
100
AcDbEntity
  8
Red 2
  6
ByLayer
 62
  256
370
   -1
100
AcDbLine
 10
280.4573258699683
 20
-46.23683450965427
 11
280.3563258699683
 21
-46.13583450965427
  0
LINE
  5
340
100
AcDbEntity
  8
Red 2
  6
ByLayer
 62
  256
370
   -1
100
AcDbLine
 10
280.3563258699683
 20
-46.13583450965427
 11
280.3303258699683
 21
-46.33883450965425
  0
LINE
  5
341
100
AcDbEntity
  8
Red 2
  6
ByLayer
 62
  256
370
   -1
100
AcDbLine
 10
280.9653258699683
 20
-46.82083450965428
 11
281.7273258699683
 21
-46.82083450965428
  0
LINE
  5
342
100
AcDbEntity
  8
Red 2
  6
ByLayer
 62
  256
370
   -1
100
AcDbLine
 10
281.3213258699683
 20
-46.13583450965427
 11
281.1183258699683
 21
-47.86283450965425
  0
LINE
  5
343
100
AcDbEntity
  8
Red 2
  6
ByLayer
 62
  256
370
   -1
100
AcDbLine
 10
281.1183258699683
 20
-47.86283450965425
 11
281.1943258699683
 21
-48.04083450965425
  0
LINE
  5
344
100
AcDbEntity
  8
Red 2
  6
ByLayer
 62
  256
370
   -1
100
AcDbLine
 10
281.1943258699683
 20
-48.04083450965425
 11
281.3723258699683
 21
-48.14183450965425
  0
LINE
  5
345
100
AcDbEntity
  8
Red 2
  6
ByLayer
 62
  256
370
   -1
100
AcDbLine
 10
281.3723258699683
 20
-48.14183450965425
 11
281.5753258699683
 21
-48.14183450965425
  0
LINE
  5
346
100
AcDbEntity
  8
Red 2
  6
ByLayer
 62
  256
370
   -1
100
AcDbLine
 10
282.5153258699683
 20
-48.14183450965425
 11
282.3373258699683
 21
-48.04083450965425
  0
LINE
  5
347
100
AcDbEntity
  8
Red 2
  6
ByLayer
 62
  256
370
   -1
100
AcDbLine
 10
282.3373258699683
 20
-48.04083450965425
 11
282.2613258699683
 21
-47.86283450965425
  0
LINE
  5
348
100
AcDbEntity
  8
Red 2
  6
ByLayer
 62
  256
370
   -1
100
AcDbLine
 10
282.2613258699683
 20
-47.86283450965425
 11
282.4643258699683
 21
-46.13583450965427
  0
LINE
  5
349
100
AcDbEntity
  8
Red 2
  6
ByLayer
 62
  256
370
   -1
100
AcDbLine
 10
284.0393258699683
 20
-48.04083450965425
 11
283.8353258699683
 21
-48.14183450965425
  0
LINE
  5
34A
100
AcDbEntity
  8
Red 2
  6
ByLayer
 62
  256
370
   -1
100
AcDbLine
 10
283.8353258699683
 20
-48.14183450965425
 11
283.4543258699683
 21
-48.14183450965425
  0
LINE
  5
34B
100
AcDbEntity
  8
Red 2
  6
ByLayer
 62
  256
370
   -1
100
AcDbLine
 10
283.4543258699683
 20
-48.14183450965425
 11
283.2773258699683
 21
-48.04083450965425
  0
LINE
  5
34C
100
AcDbEntity
  8
Red 2
  6
ByLayer
 62
  256
370
   -1
100
AcDbLine
 10
283.2773258699683
 20
-48.04083450965425
 11
283.2003258699683
 21
-47.86283450965425
  0
LINE
  5
34D
100
AcDbEntity
  8
Red 2
  6
ByLayer
 62
  256
370
   -1
100
AcDbLine
 10
283.2003258699683
 20
-47.86283450965425
 11
283.3023258699683
 21
-47.10083450965425
  0
LINE
  5
34E
100
AcDbEntity
  8
Red 2
  6
ByLayer
 62
  256
370
   -1
100
AcDbLine
 10
283.3023258699683
 20
-47.10083450965425
 11
283.4293258699683
 21
-46.89783450965427
  0
LINE
  5
34F
100
AcDbEntity
  8
Red 2
  6
ByLayer
 62
  256
370
   -1
100
AcDbLine
 10
283.4293258699683
 20
-46.89783450965427
 11
283.6073258699683
 21
-46.82083450965428
  0
LINE
  5
350
100
AcDbEntity
  8
Red 2
  6
ByLayer
 62
  256
370
   -1
100
AcDbLine
 10
283.6073258699683
 20
-46.82083450965428
 11
283.9883258699683
 21
-46.82083450965428
  0
LINE
  5
351
100
AcDbEntity
  8
Red 2
  6
ByLayer
 62
  256
370
   -1
100
AcDbLine
 10
283.9883258699683
 20
-46.82083450965428
 11
284.1913258699683
 21
-46.89783450965427
  0
LINE
  5
352
100
AcDbEntity
  8
Red 2
  6
ByLayer
 62
  256
370
   -1
100
AcDbLine
 10
284.1913258699683
 20
-46.89783450965427
 11
284.2673258699683
 21
-47.10083450965425
  0
LINE
  5
353
100
AcDbEntity
  8
Red 2
  6
ByLayer
 62
  256
370
   -1
100
AcDbLine
 10
284.2673258699683
 20
-47.10083450965425
 11
284.2423258699683
 21
-47.27883450965425
  0
LINE
  5
354
100
AcDbEntity
  8
Red 2
  6
ByLayer
 62
  256
370
   -1
100
AcDbLine
 10
284.2423258699683
 20
-47.27883450965425
 11
283.2513258699683
 21
-47.48183450965422
  0
LINE
  5
355
100
AcDbEntity
  8
Red 2
  6
ByLayer
 62
  256
370
   -1
100
AcDbLine
 10
285.0043258699683
 20
-47.96383450965425
 11
285.1053258699683
 21
-48.04083450965425
  0
LINE
  5
356
100
AcDbEntity
  8
Red 2
  6
ByLayer
 62
  256
370
   -1
100
AcDbLine
 10
285.1053258699683
 20
-48.04083450965425
 11
285.0043258699683
 21
-48.14183450965425
  0
LINE
  5
357
100
AcDbEntity
  8
Red 2
  6
ByLayer
 62
  256
370
   -1
100
AcDbLine
 10
285.0043258699683
 20
-48.14183450965425
 11
284.9023258699683
 21
-48.04083450965425
  0
LINE
  5
358
100
AcDbEntity
  8
Red 2
  6
ByLayer
 62
  256
370
   -1
100
AcDbLine
 10
284.9023258699683
 20
-48.04083450965425
 11
285.0043258699683
 21
-47.96383450965425
  0
LINE
  5
359
100
AcDbEntity
  8
Red 2
  6
ByLayer
 62
  256
370
   -1
100
AcDbLine
 10
285.0043258699683
 20
-47.96383450965425
 11
285.0043258699683
 21
-48.14183450965425
  0
LINE
  5
35A
100
AcDbEntity
  8
Red 2
  6
ByLayer
 62
  256
370
   -1
100
AcDbLine
 10
285.1563258699683
 20
-46.89783450965427
 11
285.2323258699683
 21
-46.99883450965427
  0
LINE
  5
35B
100
AcDbEntity
  8
Red 2
  6
ByLayer
 62
  256
370
   -1
100
AcDbLine
 10
285.2323258699683
 20
-46.99883450965427
 11
285.1313258699683
 21
-47.10083450965425
  0
LINE
  5
35C
100
AcDbEntity
  8
Red 2
  6
ByLayer
 62
  256
370
   -1
100
AcDbLine
 10
285.1313258699683
 20
-47.10083450965425
 11
285.0293258699683
 21
-46.99883450965427
  0
LINE
  5
35D
100
AcDbEntity
  8
Red 2
  6
ByLayer
 62
  256
370
   -1
100
AcDbLine
 10
285.0293258699683
 20
-46.99883450965427
 11
285.1563258699683
 21
-46.89783450965427
  0
LINE
  5
35E
100
AcDbEntity
  8
Red 2
  6
ByLayer
 62
  256
370
   -1
100
AcDbLine
 10
285.1563258699683
 20
-46.89783450965427
 11
285.1313258699683
 21
-47.10083450965425
  0
LINE
  5
35F
100
AcDbEntity
  8
Red 2
  6
ByLayer
 62
  256
370
   -1
100
AcDbLine
 10
278.9593258699683
 20
-43.51883450965425
 11
278.4513258699683
 21
-43.51883450965425
  0
LINE
  5
360
100
AcDbEntity
  8
Red 2
  6
ByLayer
 62
  256
370
   -1
100
AcDbLine
 10
278.4513258699683
 20
-44.30683450965427
 11
278.4513258699683
 21
-42.80783450965424
  0
LINE
  5
361
100
AcDbEntity
  8
Red 2
  6
ByLayer
 62
  256
370
   -1
100
AcDbLine
 10
278.4513258699683
 20
-42.80783450965424
 11
279.1623258699683
 21
-42.80783450965424
  0
LINE
  5
362
100
AcDbEntity
  8
Red 2
  6
ByLayer
 62
  256
370
   -1
100
AcDbLine
 10
279.7463258699683
 20
-44.30683450965427
 11
279.7463258699683
 21
-43.31583450965422
  0
LINE
  5
363
100
AcDbEntity
  8
Red 2
  6
ByLayer
 62
  256
370
   -1
100
AcDbLine
 10
279.7463258699683
 20
-42.80783450965424
 11
279.6703258699683
 21
-42.88383450965426
  0
LINE
  5
364
100
AcDbEntity
  8
Red 2
  6
ByLayer
 62
  256
370
   -1
100
AcDbLine
 10
279.6703258699683
 20
-42.88383450965426
 11
279.7463258699683
 21
-42.96083450965426
  0
LINE
  5
365
100
AcDbEntity
  8
Red 2
  6
ByLayer
 62
  256
370
   -1
100
AcDbLine
 10
279.7463258699683
 20
-42.96083450965426
 11
279.8223258699683
 21
-42.88383450965426
  0
LINE
  5
366
100
AcDbEntity
  8
Red 2
  6
ByLayer
 62
  256
370
   -1
100
AcDbLine
 10
279.8223258699683
 20
-42.88383450965426
 11
279.7463258699683
 21
-42.80783450965424
  0
LINE
  5
367
100
AcDbEntity
  8
Red 2
  6
ByLayer
 62
  256
370
   -1
100
AcDbLine
 10
279.7463258699683
 20
-42.80783450965424
 11
279.7463258699683
 21
-42.96083450965426
  0
LINE
  5
368
100
AcDbEntity
  8
Red 2
  6
ByLayer
 62
  256
370
   -1
100
AcDbLine
 10
280.6603258699683
 20
-44.30683450965427
 11
280.5333258699683
 21
-44.23083450965424
  0
LINE
  5
369
100
AcDbEntity
  8
Red 2
  6
ByLayer
 62
  256
370
   -1
100
AcDbLine
 10
280.5333258699683
 20
-44.23083450965424
 11
280.4573258699683
 21
-44.10383450965423
  0
LINE
  5
36A
100
AcDbEntity
  8
Red 2
  6
ByLayer
 62
  256
370
   -1
100
AcDbLine
 10
280.4573258699683
 20
-44.10383450965423
 11
280.4573258699683
 21
-42.80783450965424
  0
LINE
  5
36B
100
AcDbEntity
  8
Red 2
  6
ByLayer
 62
  256
370
   -1
100
AcDbLine
 10
281.8293258699683
 20
-44.23083450965424
 11
281.6763258699683
 21
-44.30683450965427
  0
LINE
  5
36C
100
AcDbEntity
  8
Red 2
  6
ByLayer
 62
  256
370
   -1
100
AcDbLine
 10
281.6763258699683
 20
-44.30683450965427
 11
281.3973258699683
 21
-44.30683450965427
  0
LINE
  5
36D
100
AcDbEntity
  8
Red 2
  6
ByLayer
 62
  256
370
   -1
100
AcDbLine
 10
281.3973258699683
 20
-44.30683450965427
 11
281.2453258699683
 21
-44.23083450965424
  0
LINE
  5
36E
100
AcDbEntity
  8
Red 2
  6
ByLayer
 62
  256
370
   -1
100
AcDbLine
 10
281.2453258699683
 20
-44.23083450965424
 11
281.1683258699683
 21
-44.10383450965423
  0
LINE
  5
36F
100
AcDbEntity
  8
Red 2
  6
ByLayer
 62
  256
370
   -1
100
AcDbLine
 10
281.1683258699683
 20
-44.10383450965423
 11
281.1683258699683
 21
-43.51883450965425
  0
LINE
  5
370
100
AcDbEntity
  8
Red 2
  6
ByLayer
 62
  256
370
   -1
100
AcDbLine
 10
281.1683258699683
 20
-43.51883450965425
 11
281.2453258699683
 21
-43.39183450965425
  0
LINE
  5
371
100
AcDbEntity
  8
Red 2
  6
ByLayer
 62
  256
370
   -1
100
AcDbLine
 10
281.2453258699683
 20
-43.39183450965425
 11
281.3973258699683
 21
-43.31583450965422
  0
LINE
  5
372
100
AcDbEntity
  8
Red 2
  6
ByLayer
 62
  256
370
   -1
100
AcDbLine
 10
281.3973258699683
 20
-43.31583450965422
 11
281.6763258699683
 21
-43.31583450965422
  0
LINE
  5
373
100
AcDbEntity
  8
Red 2
  6
ByLayer
 62
  256
370
   -1
100
AcDbLine
 10
281.6763258699683
 20
-43.31583450965422
 11
281.8293258699683
 21
-43.39183450965425
  0
LINE
  5
374
100
AcDbEntity
  8
Red 2
  6
ByLayer
 62
  256
370
   -1
100
AcDbLine
 10
281.8293258699683
 20
-43.39183450965425
 11
281.8803258699683
 21
-43.51883450965425
  0
LINE
  5
375
100
AcDbEntity
  8
Red 2
  6
ByLayer
 62
  256
370
   -1
100
AcDbLine
 10
281.8803258699683
 20
-43.51883450965425
 11
281.8803258699683
 21
-43.67183450965427
  0
LINE
  5
376
100
AcDbEntity
  8
Red 2
  6
ByLayer
 62
  256
370
   -1
100
AcDbLine
 10
281.8803258699683
 20
-43.67183450965427
 11
281.1683258699683
 21
-43.82383450965426
  0
LINE
  5
377
100
AcDbEntity
  8
Red 2
  6
ByLayer
 62
  256
370
   -1
100
AcDbLine
 10
282.5403258699683
 20
-44.17983450965426
 11
282.6163258699683
 21
-44.23083450965424
  0
LINE
  5
378
100
AcDbEntity
  8
Red 2
  6
ByLayer
 62
  256
370
   -1
100
AcDbLine
 10
282.6163258699683
 20
-44.23083450965424
 11
282.5403258699683
 21
-44.30683450965427
  0
LINE
  5
379
100
AcDbEntity
  8
Red 2
  6
ByLayer
 62
  256
370
   -1
100
AcDbLine
 10
282.5403258699683
 20
-44.30683450965427
 11
282.4643258699683
 21
-44.23083450965424
  0
LINE
  5
37A
100
AcDbEntity
  8
Red 2
  6
ByLayer
 62
  256
370
   -1
100
AcDbLine
 10
282.4643258699683
 20
-44.23083450965424
 11
282.5403258699683
 21
-44.17983450965426
  0
LINE
  5
37B
100
AcDbEntity
  8
Red 2
  6
ByLayer
 62
  256
370
   -1
100
AcDbLine
 10
282.5403258699683
 20
-44.17983450965426
 11
282.5403258699683
 21
-44.30683450965427
  0
LINE
  5
37C
100
AcDbEntity
  8
Red 2
  6
ByLayer
 62
  256
370
   -1
100
AcDbLine
 10
282.5403258699683
 20
-43.39183450965425
 11
282.6163258699683
 21
-43.44283450965423
  0
LINE
  5
37D
100
AcDbEntity
  8
Red 2
  6
ByLayer
 62
  256
370
   -1
100
AcDbLine
 10
282.6163258699683
 20
-43.44283450965423
 11
282.5403258699683
 21
-43.51883450965425
  0
LINE
  5
37E
100
AcDbEntity
  8
Red 2
  6
ByLayer
 62
  256
370
   -1
100
AcDbLine
 10
282.5403258699683
 20
-43.51883450965425
 11
282.4643258699683
 21
-43.44283450965423
  0
LINE
  5
37F
100
AcDbEntity
  8
Red 2
  6
ByLayer
 62
  256
370
   -1
100
AcDbLine
 10
282.4643258699683
 20
-43.44283450965423
 11
282.5403258699683
 21
-43.39183450965425
  0
LINE
  5
380
100
AcDbEntity
  8
Red 2
  6
ByLayer
 62
  256
370
   -1
100
AcDbLine
 10
282.5403258699683
 20
-43.39183450965425
 11
282.5403258699683
 21
-43.51883450965425
  0
LINE
  5
381
100
AcDbEntity
  8
Red 2
  6
ByLayer
 62
  256
370
   -1
100
AcDbLine
 10
277.1043258699683
 20
-39.45483450965423
 11
385.1053258699683
 21
-39.45483450965423
  0
LINE
  5
382
100
AcDbEntity
  8
Red 2
  6
ByLayer
 62
  256
370
   -1
100
AcDbLine
 10
278.3743258699683
 20
-41.53783450965426
 11
278.6033258699683
 21
-41.61383450965423
  0
LINE
  5
383
100
AcDbEntity
  8
Red 2
  6
ByLayer
 62
  256
370
   -1
100
AcDbLine
 10
278.6033258699683
 20
-41.61383450965423
 11
278.9593258699683
 21
-41.61383450965423
  0
LINE
  5
384
100
AcDbEntity
  8
Red 2
  6
ByLayer
 62
  256
370
   -1
100
AcDbLine
 10
278.9593258699683
 20
-41.61383450965423
 11
279.0863258699683
 21
-41.53783450965426
  0
LINE
  5
385
100
AcDbEntity
  8
Red 2
  6
ByLayer
 62
  256
370
   -1
100
AcDbLine
 10
279.0863258699683
 20
-41.53783450965426
 11
279.1623258699683
 21
-41.48683450965427
  0
LINE
  5
386
100
AcDbEntity
  8
Red 2
  6
ByLayer
 62
  256
370
   -1
100
AcDbLine
 10
279.1623258699683
 20
-41.48683450965427
 11
279.2383258699683
 21
-41.33483450965423
  0
LINE
  5
387
100
AcDbEntity
  8
Red 2
  6
ByLayer
 62
  256
370
   -1
100
AcDbLine
 10
279.2383258699683
 20
-41.33483450965423
 11
279.2383258699683
 21
-41.18283450965424
  0
LINE
  5
388
100
AcDbEntity
  8
Red 2
  6
ByLayer
 62
  256
370
   -1
100
AcDbLine
 10
279.2383258699683
 20
-41.18283450965424
 11
279.1623258699683
 21
-41.05583450965423
  0
LINE
  5
389
100
AcDbEntity
  8
Red 2
  6
ByLayer
 62
  256
370
   -1
100
AcDbLine
 10
279.1623258699683
 20
-41.05583450965423
 11
279.0863258699683
 21
-40.97883450965423
  0
LINE
  5
38A
100
AcDbEntity
  8
Red 2
  6
ByLayer
 62
  256
370
   -1
100
AcDbLine
 10
279.0863258699683
 20
-40.97883450965423
 11
278.9593258699683
 21
-40.90283450965427
  0
LINE
  5
38B
100
AcDbEntity
  8
Red 2
  6
ByLayer
 62
  256
370
   -1
100
AcDbLine
 10
278.9593258699683
 20
-40.90283450965427
 11
278.6543258699683
 21
-40.82683450965425
  0
LINE
  5
38C
100
AcDbEntity
  8
Red 2
  6
ByLayer
 62
  256
370
   -1
100
AcDbLine
 10
278.6543258699683
 20
-40.82683450965425
 11
278.5273258699683
 21
-40.75083450965423
  0
LINE
  5
38D
100
AcDbEntity
  8
Red 2
  6
ByLayer
 62
  256
370
   -1
100
AcDbLine
 10
278.5273258699683
 20
-40.75083450965423
 11
278.4513258699683
 21
-40.69983450965424
  0
LINE
  5
38E
100
AcDbEntity
  8
Red 2
  6
ByLayer
 62
  256
370
   -1
100
AcDbLine
 10
278.4513258699683
 20
-40.69983450965424
 11
278.3743258699683
 21
-40.54783450965425
  0
LINE
  5
38F
100
AcDbEntity
  8
Red 2
  6
ByLayer
 62
  256
370
   -1
100
AcDbLine
 10
278.3743258699683
 20
-40.54783450965425
 11
278.3743258699683
 21
-40.39483450965423
  0
LINE
  5
390
100
AcDbEntity
  8
Red 2
  6
ByLayer
 62
  256
370
   -1
100
AcDbLine
 10
278.3743258699683
 20
-40.39483450965423
 11
278.4513258699683
 21
-40.26783450965422
  0
LINE
  5
391
100
AcDbEntity
  8
Red 2
  6
ByLayer
 62
  256
370
   -1
100
AcDbLine
 10
278.4513258699683
 20
-40.26783450965422
 11
278.5273258699683
 21
-40.19183450965426
  0
LINE
  5
392
100
AcDbEntity
  8
Red 2
  6
ByLayer
 62
  256
370
   -1
100
AcDbLine
 10
278.5273258699683
 20
-40.19183450965426
 11
278.6543258699683
 21
-40.11583450965423
  0
LINE
  5
393
100
AcDbEntity
  8
Red 2
  6
ByLayer
 62
  256
370
   -1
100
AcDbLine
 10
278.6543258699683
 20
-40.11583450965423
 11
279.0353258699683
 21
-40.11583450965423
  0
LINE
  5
394
100
AcDbEntity
  8
Red 2
  6
ByLayer
 62
  256
370
   -1
100
AcDbLine
 10
279.0353258699683
 20
-40.11583450965423
 11
279.2383258699683
 21
-40.19183450965426
  0
LINE
  5
395
100
AcDbEntity
  8
Red 2
  6
ByLayer
 62
  256
370
   -1
100
AcDbLine
 10
279.8733258699683
 20
-41.61383450965423
 11
279.8733258699683
 21
-40.11583450965423
  0
LINE
  5
396
100
AcDbEntity
  8
Red 2
  6
ByLayer
 62
  256
370
   -1
100
AcDbLine
 10
280.5083258699683
 20
-41.61383450965423
 11
280.5083258699683
 21
-40.82683450965425
  0
LINE
  5
397
100
AcDbEntity
  8
Red 2
  6
ByLayer
 62
  256
370
   -1
100
AcDbLine
 10
280.5083258699683
 20
-40.82683450965425
 11
280.4573258699683
 21
-40.69983450965424
  0
LINE
  5
398
100
AcDbEntity
  8
Red 2
  6
ByLayer
 62
  256
370
   -1
100
AcDbLine
 10
280.4573258699683
 20
-40.69983450965424
 11
280.3053258699683
 21
-40.62383450965427
  0
LINE
  5
399
100
AcDbEntity
  8
Red 2
  6
ByLayer
 62
  256
370
   -1
100
AcDbLine
 10
280.3053258699683
 20
-40.62383450965427
 11
280.0763258699683
 21
-40.62383450965427
  0
LINE
  5
39A
100
AcDbEntity
  8
Red 2
  6
ByLayer
 62
  256
370
   -1
100
AcDbLine
 10
280.0763258699683
 20
-40.62383450965427
 11
279.9493258699683
 21
-40.69983450965424
  0
LINE
  5
39B
100
AcDbEntity
  8
Red 2
  6
ByLayer
 62
  256
370
   -1
100
AcDbLine
 10
279.9493258699683
 20
-40.69983450965424
 11
279.8733258699683
 21
-40.75083450965423
  0
LINE
  5
39C
100
AcDbEntity
  8
Red 2
  6
ByLayer
 62
  256
370
   -1
100
AcDbLine
 10
281.8033258699683
 20
-41.53783450965426
 11
281.6513258699683
 21
-41.61383450965423
  0
LINE
  5
39D
100
AcDbEntity
  8
Red 2
  6
ByLayer
 62
  256
370
   -1
100
AcDbLine
 10
281.6513258699683
 20
-41.61383450965423
 11
281.3723258699683
 21
-41.61383450965423
  0
LINE
  5
39E
100
AcDbEntity
  8
Red 2
  6
ByLayer
 62
  256
370
   -1
100
AcDbLine
 10
281.3723258699683
 20
-41.61383450965423
 11
281.2193258699683
 21
-41.53783450965426
  0
LINE
  5
39F
100
AcDbEntity
  8
Red 2
  6
ByLayer
 62
  256
370
   -1
100
AcDbLine
 10
281.2193258699683
 20
-41.53783450965426
 11
281.1433258699683
 21
-41.41083450965425
  0
LINE
  5
3A0
100
AcDbEntity
  8
Red 2
  6
ByLayer
 62
  256
370
   -1
100
AcDbLine
 10
281.1433258699683
 20
-41.41083450965425
 11
281.1433258699683
 21
-40.82683450965425
  0
LINE
  5
3A1
100
AcDbEntity
  8
Red 2
  6
ByLayer
 62
  256
370
   -1
100
AcDbLine
 10
281.1433258699683
 20
-40.82683450965425
 11
281.2193258699683
 21
-40.69983450965424
  0
LINE
  5
3A2
100
AcDbEntity
  8
Red 2
  6
ByLayer
 62
  256
370
   -1
100
AcDbLine
 10
281.2193258699683
 20
-40.69983450965424
 11
281.3723258699683
 21
-40.62383450965427
  0
LINE
  5
3A3
100
AcDbEntity
  8
Red 2
  6
ByLayer
 62
  256
370
   -1
100
AcDbLine
 10
281.3723258699683
 20
-40.62383450965427
 11
281.6513258699683
 21
-40.62383450965427
  0
LINE
  5
3A4
100
AcDbEntity
  8
Red 2
  6
ByLayer
 62
  256
370
   -1
100
AcDbLine
 10
281.6513258699683
 20
-40.62383450965427
 11
281.8033258699683
 21
-40.69983450965424
  0
LINE
  5
3A5
100
AcDbEntity
  8
Red 2
  6
ByLayer
 62
  256
370
   -1
100
AcDbLine
 10
281.8033258699683
 20
-40.69983450965424
 11
281.8543258699683
 21
-40.82683450965425
  0
LINE
  5
3A6
100
AcDbEntity
  8
Red 2
  6
ByLayer
 62
  256
370
   -1
100
AcDbLine
 10
281.8543258699683
 20
-40.82683450965425
 11
281.8543258699683
 21
-40.97883450965423
  0
LINE
  5
3A7
100
AcDbEntity
  8
Red 2
  6
ByLayer
 62
  256
370
   -1
100
AcDbLine
 10
281.8543258699683
 20
-40.97883450965423
 11
281.1433258699683
 21
-41.13183450965425
  0
LINE
  5
3A8
100
AcDbEntity
  8
Red 2
  6
ByLayer
 62
  256
370
   -1
100
AcDbLine
 10
283.0993258699683
 20
-41.53783450965426
 11
282.9463258699683
 21
-41.61383450965423
  0
LINE
  5
3A9
100
AcDbEntity
  8
Red 2
  6
ByLayer
 62
  256
370
   -1
100
AcDbLine
 10
282.9463258699683
 20
-41.61383450965423
 11
282.6673258699683
 21
-41.61383450965423
  0
LINE
  5
3AA
100
AcDbEntity
  8
Red 2
  6
ByLayer
 62
  256
370
   -1
100
AcDbLine
 10
282.6673258699683
 20
-41.61383450965423
 11
282.5153258699683
 21
-41.53783450965426
  0
LINE
  5
3AB
100
AcDbEntity
  8
Red 2
  6
ByLayer
 62
  256
370
   -1
100
AcDbLine
 10
282.5153258699683
 20
-41.53783450965426
 11
282.4383258699683
 21
-41.41083450965425
  0
LINE
  5
3AC
100
AcDbEntity
  8
Red 2
  6
ByLayer
 62
  256
370
   -1
100
AcDbLine
 10
282.4383258699683
 20
-41.41083450965425
 11
282.4383258699683
 21
-40.82683450965425
  0
LINE
  5
3AD
100
AcDbEntity
  8
Red 2
  6
ByLayer
 62
  256
370
   -1
100
AcDbLine
 10
282.4383258699683
 20
-40.82683450965425
 11
282.5153258699683
 21
-40.69983450965424
  0
LINE
  5
3AE
100
AcDbEntity
  8
Red 2
  6
ByLayer
 62
  256
370
   -1
100
AcDbLine
 10
282.5153258699683
 20
-40.69983450965424
 11
282.6673258699683
 21
-40.62383450965427
  0
LINE
  5
3AF
100
AcDbEntity
  8
Red 2
  6
ByLayer
 62
  256
370
   -1
100
AcDbLine
 10
282.6673258699683
 20
-40.62383450965427
 11
282.9463258699683
 21
-40.62383450965427
  0
LINE
  5
3B0
100
AcDbEntity
  8
Red 2
  6
ByLayer
 62
  256
370
   -1
100
AcDbLine
 10
282.9463258699683
 20
-40.62383450965427
 11
283.0993258699683
 21
-40.69983450965424
  0
LINE
  5
3B1
100
AcDbEntity
  8
Red 2
  6
ByLayer
 62
  256
370
   -1
100
AcDbLine
 10
283.0993258699683
 20
-40.69983450965424
 11
283.1503258699683
 21
-40.82683450965425
  0
LINE
  5
3B2
100
AcDbEntity
  8
Red 2
  6
ByLayer
 62
  256
370
   -1
100
AcDbLine
 10
283.1503258699683
 20
-40.82683450965425
 11
283.1503258699683
 21
-40.97883450965423
  0
LINE
  5
3B3
100
AcDbEntity
  8
Red 2
  6
ByLayer
 62
  256
370
   -1
100
AcDbLine
 10
283.1503258699683
 20
-40.97883450965423
 11
282.4383258699683
 21
-41.13183450965425
  0
LINE
  5
3B4
100
AcDbEntity
  8
Red 2
  6
ByLayer
 62
  256
370
   -1
100
AcDbLine
 10
283.6073258699683
 20
-40.62383450965427
 11
284.1663258699683
 21
-40.62383450965427
  0
LINE
  5
3B5
100
AcDbEntity
  8
Red 2
  6
ByLayer
 62
  256
370
   -1
100
AcDbLine
 10
283.8103258699683
 20
-40.11583450965423
 11
283.8103258699683
 21
-41.41083450965425
  0
LINE
  5
3B6
100
AcDbEntity
  8
Red 2
  6
ByLayer
 62
  256
370
   -1
100
AcDbLine
 10
283.8103258699683
 20
-41.41083450965425
 11
283.8863258699683
 21
-41.53783450965426
  0
LINE
  5
3B7
100
AcDbEntity
  8
Red 2
  6
ByLayer
 62
  256
370
   -1
100
AcDbLine
 10
283.8863258699683
 20
-41.53783450965426
 11
284.0133258699683
 21
-41.61383450965423
  0
LINE
  5
3B8
100
AcDbEntity
  8
Red 2
  6
ByLayer
 62
  256
370
   -1
100
AcDbLine
 10
284.0133258699683
 20
-41.61383450965423
 11
284.1663258699683
 21
-41.61383450965423
  0
LINE
  5
3B9
100
AcDbEntity
  8
Red 2
  6
ByLayer
 62
  256
370
   -1
100
AcDbLine
 10
284.6743258699683
 20
-41.48683450965427
 11
284.7503258699683
 21
-41.53783450965426
  0
LINE
  5
3BA
100
AcDbEntity
  8
Red 2
  6
ByLayer
 62
  256
370
   -1
100
AcDbLine
 10
284.7503258699683
 20
-41.53783450965426
 11
284.6743258699683
 21
-41.61383450965423
  0
LINE
  5
3BB
100
AcDbEntity
  8
Red 2
  6
ByLayer
 62
  256
370
   -1
100
AcDbLine
 10
284.6743258699683
 20
-41.61383450965423
 11
284.5973258699683
 21
-41.53783450965426
  0
LINE
  5
3BC
100
AcDbEntity
  8
Red 2
  6
ByLayer
 62
  256
370
   -1
100
AcDbLine
 10
284.5973258699683
 20
-41.53783450965426
 11
284.6743258699683
 21
-41.48683450965427
  0
LINE
  5
3BD
100
AcDbEntity
  8
Red 2
  6
ByLayer
 62
  256
370
   -1
100
AcDbLine
 10
284.6743258699683
 20
-41.48683450965427
 11
284.6743258699683
 21
-41.61383450965423
  0
LINE
  5
3BE
100
AcDbEntity
  8
Red 2
  6
ByLayer
 62
  256
370
   -1
100
AcDbLine
 10
284.6743258699683
 20
-40.69983450965424
 11
284.7503258699683
 21
-40.75083450965423
  0
LINE
  5
3BF
100
AcDbEntity
  8
Red 2
  6
ByLayer
 62
  256
370
   -1
100
AcDbLine
 10
284.7503258699683
 20
-40.75083450965423
 11
284.6743258699683
 21
-40.82683450965425
  0
LINE
  5
3C0
100
AcDbEntity
  8
Red 2
  6
ByLayer
 62
  256
370
   -1
100
AcDbLine
 10
284.6743258699683
 20
-40.82683450965425
 11
284.5973258699683
 21
-40.75083450965423
  0
LINE
  5
3C1
100
AcDbEntity
  8
Red 2
  6
ByLayer
 62
  256
370
   -1
100
AcDbLine
 10
284.5973258699683
 20
-40.75083450965423
 11
284.6743258699683
 21
-40.69983450965424
  0
LINE
  5
3C2
100
AcDbEntity
  8
Red 2
  6
ByLayer
 62
  256
370
   -1
100
AcDbLine
 10
284.6743258699683
 20
-40.69983450965424
 11
284.6743258699683
 21
-40.82683450965425
  0
LINE
  5
3C3
100
AcDbEntity
  8
Red 2
  6
ByLayer
 62
  256
370
   -1
100
AcDbLine
 10
287.5953258699683
 20
-40.03983450965427
 11
286.3253258699683
 21
-41.96983450965422
  0
LINE
  5
3C4
100
AcDbEntity
  8
Red 2
  6
ByLayer
 62
  256
370
   -1
100
AcDbLine
 10
297.0943258699683
 20
-49.46283450965427
 11
297.0943258699683
 21
-52.45983450965423
  0
LINE
  5
3C5
100
AcDbEntity
  8
Red 2
  6
ByLayer
 62
  256
370
   -1
100
AcDbLine
 10
361.1023258699683
 20
-49.46283450965427
 11
361.1023258699683
 21
-55.96483450965422
  0
CIRCLE
  5
3C6
100
AcDbEntity
  8
Red 2
  6
CONTINUOUS
 62
  256
370
   50
100
AcDbCircle
 10
20
 20
20
 40
5
  0
CIRCLE
  5
3C7
100
AcDbEntity
  8
Red 2
  6
CONTINUOUS
 62
  256
370
   50
100
AcDbCircle
 10
270
 20
20
 40
5
  0
CIRCLE
  5
3C8
100
AcDbEntity
  8
Red 2
  6
CONTINUOUS
 62
  256
370
   50
100
AcDbCircle
 10
20
 20
188
 40
5
  0
CIRCLE
  5
3C9
100
AcDbEntity
  8
Red 2
  6
CONTINUOUS
 62
  256
370
   50
100
AcDbCircle
 10
270
 20
188
 40
5
  0
CIRCLE
  5
3CA
100
AcDbEntity
  8
Red 2
  6
CONTINUOUS
 62
  256
370
   50
100
AcDbCircle
 10
40
 20
15
 40
1.75
  0
CIRCLE
  5
3CB
100
AcDbEntity
  8
Red 2
  6
CONTINUOUS
 62
  256
370
   50
100
AcDbCircle
 10
192
 20
15
 40
1.75
  0
CIRCLE
  5
3CC
100
AcDbEntity
  8
Red 2
  6
CONTINUOUS
 62
  256
370
   50
100
AcDbCircle
 10
40
 20
68
 40
1.75
  0
CIRCLE
  5
3CD
100
AcDbEntity
  8
Red 2
  6
CONTINUOUS
 62
  256
370
   50
100
AcDbCircle
 10
192
 20
68
 40
1.75
  0
CIRCLE
  5
3CE
100
AcDbEntity
  8
Red 2
  6
CONTINUOUS
 62
  256
370
   50
100
AcDbCircle
 10
7
 20
75
 40
1.75
  0
CIRCLE
  5
3CF
100
AcDbEntity
  8
Red 2
  6
CONTINUOUS
 62
  256
370
   50
100
AcDbCircle
 10
7
 20
138
 40
1.75
  0
CIRCLE
  5
3D0
100
AcDbEntity
  8
Red 2
  6
CONTINUOUS
 62
  256
370
   50
100
AcDbCircle
 10
283
 20
138
 40
1.75
  0
CIRCLE
  5
3D1
100
AcDbEntity
  8
Red 2
  6
CONTINUOUS
 62
  256
370
   50
100
AcDbCircle
 10
283
 20
75
 40
1.75
  0
CIRCLE
  5
3D2
100
AcDbEntity
  8
Red 2
  6
CONTINUOUS
 62
  256
370
   50
100
AcDbCircle
 10
178
 20
7
 40
1.75
  0
CIRCLE
  5
3D3
100
AcDbEntity
  8
Red 2
  6
CONTINUOUS
 62
  256
370
   50
100
AcDbCircle
 10
115
 20
203
 40
1.75
  0
DIMENSION
  5
3D4
100
AcDbEntity
  8
0
  6
CONTINUOUS
 62
  256
370
   25
100
AcDbDimension
  2
*D1
 10
-0.05355677684647124
 20
40.2393011828171
 30
0
 11
9.931547899876573
 21
44.9268011828171
 31
0
 70
   32
 71
    5
  3
Standard
 53
0
210
0
220
0
230
1
100
AcDbAlignedDimension
 13
19.91665257659962
 23
19.91665257659962
 33
0
 14
-0.05355677684647248
 24
19.97667776373424
 34
0
100
AcDbRotatedDimension
  0
DIMENSION
  5
3D5
100
AcDbEntity
  8
0
  6
CONTINUOUS
 62
  256
370
   25
100
AcDbDimension
  2
*D2
 10
29.0042483988833
 20
-1.1092198023648e-15
 30
0
 11
24.3167483988833
 21
10.00219191784052
 31
0
 70
   32
 71
    5
  3
Standard
 53
0
210
0
220
0
230
1
100
AcDbAlignedDimension
 13
19.95480667623698
 23
20.00438383568104
 33
0
 14
19.9467813550215
 24
0
 34
0
 50
90
100
AcDbRotatedDimension
  0
LINE
  5
3D6
100
AcDbEntity
  8
0
  6
CONTINUOUS
 62
  256
370
   25
100
AcDbLine
 10
19.92481671597002
 20
21.52633862694634
 11
19.92481671597002
 21
9.938856565176536
  0
LINE
  5
3D7
100
AcDbEntity
  8
0
  6
CONTINUOUS
 62
  256
370
   25
100
AcDbLine
 10
21.57344221256329
 20
20.01902388720393
 11
10.08016732202739
 21
19.97192030158697
  0
DIMENSION
  5
3D8
100
AcDbEntity
  8
0
  6
CONTINUOUS
 62
  256
370
   25
100
AcDbDimension
  2
*D3
 10
24.98105727970202
 20
173.2931386417804
 30
0
 11
19.98898861933039
 21
177.9806386417804
 31
0
 70
   32
 71
    5
  3
Standard
 53
0
210
0
220
0
230
1
100
AcDbAlignedDimension
 13
14.99691995895876
 23
188.0414908666127
 33
0
 14
24.98105727970202
 24
188.1243467779882
 34
0
100
AcDbRotatedDimension
  0
DIMENSION
  5
3D9
100
AcDbEntity
  8
0
  6
CONTINUOUS
 62
  256
370
   25
100
AcDbDimension
  2
*D4
 10
15.0371514172798
 20
-20.22867194371488
 30
0
 11
7.518575708639901
 21
-15.54117194371488
 31
0
 70
   32
 71
    5
  3
Standard
 53
0
210
0
220
0
230
1
100
AcDbAlignedDimension
 13
0
 23
15.30567197830266
 33
0
 14
15.0371514172798
 24
0
 34
0
100
AcDbRotatedDimension
  0
DIMENSION
  5
3DA
100
AcDbEntity
  8
0
  6
CONTINUOUS
 62
  256
370
   25
100
AcDbDimension
  2
*D5
 10
290.1109838148013
 20
-19.99775637246747
 30
0
 11
282.5966908936858
 21
-15.31025637246747
 31
0
 70
   32
 71
    5
  3
Standard
 53
0
210
0
220
0
230
1
100
AcDbAlignedDimension
 13
275.0823979725703
 23
0
 33
0
 14
290.1109838148013
 24
15.16735456865822
 34
0
100
AcDbRotatedDimension
  0
DIMENSION
  5
3DB
100
AcDbEntity
  8
0
  6
CONTINUOUS
 62
  256
370
   25
100
AcDbDimension
  2
*D6
 10
310.0967879599071
 20
15.02432936380736
 30
0
 11
305.4092879599071
 21
7.51216468190368
 31
0
 70
   32
 71
    5
  3
Standard
 53
0
210
0
220
0
230
1
100
AcDbAlignedDimension
 13
274.869067162743
 23
0
 33
0
 14
290.0318696082444
 24
15.02432936380736
 34
0
 50
90
100
AcDbRotatedDimension
  0
DIMENSION
  5
3DC
100
AcDbEntity
  8
0
  6
CONTINUOUS
 62
  256
370
   25
100
AcDbDimension
  2
*D7
 10
310.1412479814005
 20
208.0139279390403
 30
0
 11
305.4537479814005
 21
200.4953522304003
 31
0
 70
   32
 71
    5
  3
Standard
 53
0
210
0
220
0
230
1
100
AcDbAlignedDimension
 13
289.9126990510119
 23
192.9767765217603
 33
0
 14
274.7860407800576
 24
208.0139279390403
 34
0
 50
90
100
AcDbRotatedDimension
  0
DIMENSION
  5
3DD
100
AcDbEntity
  8
0
  6
ByLayer
 62
  256
370
   25
100
AcDbDimension
  2
*D8
 10
310.0857490088216
 20
14.95716991918662
 30
0
 11
305.3982490088216
 21
44.97143139994382
 31
0
 70
   32
 71
    5
 72
    0
  3
Standard
 53
0
210
0
220
0
230
1
100
AcDbAlignedDimension
 13
282.9999400410131
 23
74.98569288070102
 33
0
 14
290.0903744852774
 24
14.95716991918662
 34
0
 50
90
100
AcDbRotatedDimension
  0
DIMENSION
  5
3DE
100
AcDbEntity
  8
0
  6
ByLayer
 62
  256
370
   25
100
AcDbDimension
  2
*D9
 10
310.1104664539056
 20
137.9884259081567
 30
0
 11
305.4229664539056
 21
106.4870593944291
 31
0
 70
   32
 71
    5
 72
    0
  3
Standard
 53
0
210
0
220
0
230
1
100
AcDbAlignedDimension
 13
310.0720342151453
 23
74.98569288070141
 33
0
 14
283.1082155235589
 24
137.9884259081567
 34
0
 50
90
100
AcDbRotatedDimension
  0
DIMENSION
  5
3DF
100
AcDbEntity
  8
0
  6
ByLayer
 62
  256
370
   25
100
AcDbDimension
  2
*D10
 10
310.0967879599274
 20
193.0046618316561
 30
0
 11
305.4092879599274
 21
165.5077468195115
 31
0
 70
   32
 71
    5
 72
    0
  3
Standard
 53
0
210
0
220
0
230
1
100
AcDbAlignedDimension
 13
310.0967879599274
 23
138.0108318073669
 33
0
 14
309.7020953999445
 24
193.0046618316561
 34
0
 50
90
100
AcDbRotatedDimension
  0
LINE
  5
3E0
100
AcDbEntity
  8
0
  6
ByLayer
 62
  256
370
   25
100
AcDbLine
 10
284.7488774842973
 20
137.983877035577
 11
276.9879675797349
 21
137.9474408388419
  0
LINE
  5
3E1
100
AcDbEntity
  8
0
  6
ByLayer
 62
  256
370
   25
100
AcDbLine
 10
282.9999400410157
 20
132.1540855579714
 11
283.0363762377507
 21
144.1051580870628
  0
DIMENSION
  5
3E2
100
AcDbEntity
  8
0
  6
ByLayer
 62
  256
370
   25
100
AcDbDimension
  2
*D11
 10
289.9956898141424
 20
143.8501047099176
 30
0
 11
286.497814927579
 21
148.5376047099176
 31
0
 70
   32
 71
    5
 72
    0
  3
Standard
 53
0
210
0
220
0
230
1
100
AcDbAlignedDimension
 13
282.9999400410157
 23
138.020313232312
 33
0
 14
289.9956898141424
 24
137.983877035577
 34
0
100
AcDbRotatedDimension
  0
LINE
  5
3E3
100
AcDbEntity
  8
0
  6
ByLayer
 62
  256
370
   25
100
AcDbLine
 10
283.0017206604485
 20
132.2422142554351
 11
283.0454459722816
 21
68.95964934322188
  0
LINE
  5
3E4
100
AcDbEntity
  8
0
  6
ByLayer
 62
  256
370
   25
100
AcDbLine
 10
284.741175054492
 20
74.9889083021921
 11
276.9690834276944
 21
74.94180471657515
  0
LINE
  5
3E5
100
AcDbEntity
  8
0
  6
ByLayer
 62
  256
370
   25
100
AcDbLine
 10
194.9811675658804
 20
68.03766095750728
 11
33.92590501505193
 21
67.99028311179795
  0
LINE
  5
3E6
100
AcDbEntity
  8
0
  6
ByLayer
 62
  256
370
   25
100
AcDbLine
 10
40.03355625108834
 20
70.2012577728063
 11
39.9909441887951
 21
8.94968126722152
  0
LINE
  5
3E7
100
AcDbEntity
  8
0
  6
ByLayer
 62
  256
370
   25
100
AcDbLine
 10
34.1972031579096
 20
14.97894022619181
 11
194.2023172158233
 21
15.05221356777461
  0
LINE
  5
3E8
100
AcDbEntity
  8
0
  6
ByLayer
 62
  256
370
   25
100
AcDbLine
 10
191.9989562803294
 20
9.012320180618062
 11
191.9823205969051
 21
74.0383517655933
  0
MTEXT
  5
3E9
100
AcDbEntity
  8
0
  6
ByLayer
 62
  256
370
   25
100
AcDbMText
 10
99.38494914045513
 20
44.83125423183574
 30
0
 40
6
 41
37.33333333333333
 71
    1
 72
    1
  1
10 x %%C3,5
  7
unicode
210
0
220
0
230
1
 50
0
 73
    2
 44
1.2
  0
DIMENSION
  5
3EA
100
AcDbEntity
  8
0
  6
ByLayer
 62
  256
370
   25
100
AcDbDimension
  2
*D12
 10
-0.1017692926276714
 20
89.96405468286277
 30
0
 11
19.89589670871003
 21
94.65155468286277
 31
0
 70
   32
 71
    5
 72
    0
  3
Standard
 53
0
210
0
220
0
230
1
100
AcDbAlignedDimension
 13
39.89356271004774
 23
67.98188747528543
 33
0
 14
-0.1017692926276728
 24
67.57481030477474
 34
0
100
AcDbRotatedDimension
  0
DIMENSION
  5
3EB
100
AcDbEntity
  8
0
  6
ByLayer
 62
  256
370
   25
100
AcDbDimension
  2
*D13
 10
191.9026942776874
 20
89.9296394019599
 30
0
 11
115.8981284938676
 21
94.6171394019599
 31
0
 70
   32
 71
    5
 72
    0
  3
Standard
 53
0
210
0
220
0
230
1
100
AcDbAlignedDimension
 13
39.89356271004774
 23
68.08365676791311
 33
0
 14
191.9026942776874
 24
67.84619508511523
 34
0
100
AcDbRotatedDimension
  0
DIMENSION
  5
3EC
100
AcDbEntity
  8
0
  6
ByLayer
 62
  256
370
   25
100
AcDbDimension
  2
*D14
 10
209.82093475329
 20
15.08390130023652
 30
0
 11
205.13343475329
 21
41.57742025065194
 31
0
 70
   32
 71
    5
 72
    0
  3
Standard
 53
0
210
0
220
0
230
1
100
AcDbAlignedDimension
 13
192.2230499030141
 23
68.07093920106736
 33
0
 14
191.836283203008
 24
15.08390130023652
 34
0
 50
90
100
AcDbRotatedDimension
  0
DIMENSION
  5
3ED
100
AcDbEntity
  8
0
  6
ByLayer
 62
  256
370
   25
100
AcDbDimension
  2
*D15
 10
209.8040650125469
 20
-2.181324208894113e-15
 30
0
 11
205.1165650125469
 21
7.518575708640761
 31
0
 70
   32
 71
    5
 72
    0
  3
Standard
 53
0
210
0
220
0
230
1
100
AcDbAlignedDimension
 13
191.9922011313623
 23
15.03715141728152
 33
0
 14
191.9922011313623
 24
0
 34
0
 50
90
100
AcDbRotatedDimension
  0
DIMENSION
  5
3EE
100
AcDbEntity
  8
0
  6
ByLayer
 62
  256
370
   25
100
AcDbDimension
  2
*D16
 10
178.0690439852732
 20
-20.00000000000571
 30
0
 11
96.54754389854114
 21
-15.31250000000571
 31
0
 70
   32
 71
    5
 72
    0
  3
Standard
 53
0
210
0
220
0
230
1
100
AcDbAlignedDimension
 13
15.02604381180905
 23
-20.20743822967424
 33
0
 14
178.0690439852732
 24
7.084975224878245
 34
0
100
AcDbRotatedDimension
  0
DIMENSION
  5
3EF
100
AcDbEntity
  8
0
  6
ByLayer
 62
  256
370
   25
100
AcDbDimension
  2
*D17
 10
274.965054487435
 20
-19.96002836936784
 30
0
 11
226.452339795967
 21
-15.27252836936784
 31
0
 70
   32
 71
    5
 72
    0
  3
Standard
 53
0
210
0
220
0
230
1
100
AcDbAlignedDimension
 13
177.939625104499
 23
-20.04953522304213
 33
0
 14
274.965054487435
 24
-19.87052151569354
 34
0
100
AcDbRotatedDimension
  0
DIMENSION
  5
3F0
100
AcDbEntity
  8
0
  6
ByLayer
 62
  256
370
   25
100
AcDbDimension
  2
*D18
 10
170.6307093101761
 20
5.443819547969214e-16
 30
0
 11
165.9432093101761
 21
3.516092984931027
 31
0
 70
   32
 71
    5
 72
    0
  3
Standard
 53
0
210
0
220
0
230
1
100
AcDbAlignedDimension
 13
175.1123615085856
 23
7.032185969862053
 33
0
 14
175.0759253118506
 24
0
 34
0
 50
90
100
AcDbRotatedDimension
  0
LINE
  5
3F1
100
AcDbEntity
  8
0
  6
ByLayer
 62
  256
370
   25
100
AcDbLine
 10
173.4982563130772
 20
7.041962401247038
 11
184.0284973031772
 21
7.041962401247038
  0
LINE
  5
3F2
100
AcDbEntity
  8
0
  6
ByLayer
 62
  256
370
   25
100
AcDbLine
 10
178.0766219609468
 20
5.515840518623841
 11
178.0703984795129
 21
12.88036912078781
  0
DIMENSION
  5
3F3
100
AcDbEntity
  8
0
  6
ByLayer
 62
  256
370
   25
100
AcDbDimension
  2
*D19
 10
-1.869617482300904e-15
 20
159.8771759040043
 30
0
 11
57.50094717347239
 21
164.5646759040043
 31
0
 70
   32
 71
    5
 72
    0
  3
Standard
 53
0
210
0
220
0
230
1
100
AcDbAlignedDimension
 13
115.0018943469448
 23
202.9323012226942
 33
0
 14
0
 24
190.4103465063789
 34
0
100
AcDbRotatedDimension
  0
LINE
  5
3F4
100
AcDbEntity
  8
0
  6
ByLayer
 62
  256
370
   25
100
AcDbLine
 10
114.9981729981772
 20
200.871570403474
 11
115.0127617256357
 21
206.9204242024045
  0
LINE
  5
3F5
100
AcDbEntity
  8
0
  6
ByLayer
 62
  256
370
   25
100
AcDbLine
 10
108.9651024192977
 20
202.9742103888878
 11
121.1304739979227
 21
203.0178138712484
  0
MTEXT
  5
3F6
100
AcDbEntity
  8
0
  6
ByLayer
 62
  256
370
   13
100
AcDbMText
 10
278.2768080733922
 20
-24.70389161410622
 30
0
 40
1.5
 41
40.54366801585606
 71
    1
 72
    1
  1
\P\PM 1:1\PDrilling draw for top of box\PPozsar Zsolt - http://www.pozsarzs.hu
  7
unicode
210
0
220
0
230
1
 50
0
 73
    2
 44
1.2
  0
MTEXT
  5
3F7
100
AcDbEntity
  8
0
  6
ByLayer
 62
  256
370
   13
100
AcDbMText
 10
284.9898220989645
 20
-42.6947692026401
 30
0
 40
1.5
 41
17.33333333333333
 71
    1
 72
    1
  1
mountingplate.dxf
  7
unicode
210
0
220
0
230
1
 50
0
 73
    2
 44
1.2
  0
MTEXT
  5
3F8
100
AcDbEntity
  8
0
  6
ByLayer
 62
  256
370
   13
100
AcDbMText
 10
286.6009454651019
 20
-46.27504334961202
 30
0
 40
1.8
 41
40.40060040475682
 71
    1
 72
    1
  1
MM6D Grow house control device
  7
unicode
210
0
220
0
230
1
 50
0
 73
    2
 44
1.2
  0
MTEXT
  5
3F9
100
AcDbEntity
  8
0
  6
ByLayer
 62
  256
370
   13
100
AcDbMText
 10
307.366535517539
 20
-50.30285176495543
 30
0
 40
1.5
 41
12.25
 71
    1
 72
    1
  1
2020. 06. 12.
  7
unicode
210
0
220
0
230
1
 50
0
 73
    2
 44
1.2
  0
MTEXT
  5
3FA
100
AcDbEntity
  8
0
  6
ByLayer
 62
  256
370
   13
100
AcDbMText
 10
369.1262645528046
 20
-50.21334491128113
 30
0
 40
1.5
 41
6.166666666666667
 71
    1
 72
    1
  1
231006
  7
unicode
210
0
220
0
230
1
 50
0
 73
    2
 44
1.2
  0
ENDSEC
  0
SECTION
  2
OBJECTS
  0
DICTIONARY
  5
C
330
0
100
AcDbDictionary
281
    1
  3
ACAD_GROUP
350
D
  0
DICTIONARY
  5
D
330
C
100
AcDbDictionary
281
    1
  0
ENDSEC
  0
EOF
