%FSLAX45Y45*%
G04 Gerber Fmt 4.5, Leading zero omitted, Abs format (unit mm)*
G04 Created by KiCad (PCBNEW 5.1.5+dfsg1-2build2) date 2024-04-23 22:36:58*
%MOMM*%
%LPD*%
G04 APERTURE LIST*
%TA.AperFunction,Profile*%
%ADD10C,0.100000*%
%TD*%
%ADD11C,0.200000*%
%ADD12C,0.300000*%
G04 APERTURE END LIST*
D10*
X14528800Y-13081000D02*
X18770600Y-13081000D01*
X18669000Y-6781800D02*
X14020800Y-6781800D01*
X7480300Y-6781800D02*
X14033500Y-6781800D01*
X7480300Y-13081000D02*
X7480300Y-6781800D01*
X14541500Y-13081000D02*
X7480300Y-13081000D01*
X23533100Y-13081000D02*
X18757900Y-13081000D01*
X23533100Y-6781800D02*
X23533100Y-13081000D01*
X18656300Y-6781800D02*
X23533100Y-6781800D01*
D11*
X14661200Y-7244400D02*
X14701200Y-7284400D01*
X14701200Y-7244400D02*
X14661200Y-7284400D01*
X21073900Y-9410700D02*
G75*
G03X21073900Y-9410700I-30000J0D01*
G01*
X21200900Y-9410700D02*
G75*
G03X21200900Y-9410700I-30000J0D01*
G01*
X21327900Y-9410700D02*
G75*
G03X21327900Y-9410700I-30000J0D01*
G01*
X20026150Y-9410700D02*
G75*
G03X20026150Y-9410700I-30000J0D01*
G01*
X20153150Y-9410700D02*
G75*
G03X20153150Y-9410700I-30000J0D01*
G01*
X20280150Y-9410700D02*
G75*
G03X20280150Y-9410700I-30000J0D01*
G01*
X21073900Y-10394950D02*
G75*
G03X21073900Y-10394950I-30000J0D01*
G01*
X21200900Y-10394950D02*
G75*
G03X21200900Y-10394950I-30000J0D01*
G01*
X21327900Y-10394950D02*
G75*
G03X21327900Y-10394950I-30000J0D01*
G01*
X20019800Y-10394950D02*
G75*
G03X20019800Y-10394950I-30000J0D01*
G01*
X20146800Y-10394950D02*
G75*
G03X20146800Y-10394950I-30000J0D01*
G01*
X20273800Y-10394950D02*
G75*
G03X20273800Y-10394950I-30000J0D01*
G01*
X13919200Y-11288400D02*
X13919200Y-11368400D01*
X13879200Y-11328400D02*
X13959200Y-11328400D01*
X13919200Y-12050400D02*
X13919200Y-12130400D01*
X13879200Y-12090400D02*
X13959200Y-12090400D01*
X16522700Y-8240400D02*
X16522700Y-8320400D01*
X16482700Y-8280400D02*
X16562700Y-8280400D01*
X16522700Y-9002400D02*
X16522700Y-9082400D01*
X16482700Y-9042400D02*
X16562700Y-9042400D01*
X18491200Y-11034400D02*
X18491200Y-11114400D01*
X18451200Y-11074400D02*
X18531200Y-11074400D01*
X19253200Y-11034400D02*
X19253200Y-11114400D01*
X19213200Y-11074400D02*
X19293200Y-11074400D01*
X14236700Y-11288400D02*
X14236700Y-11368400D01*
X14196700Y-11328400D02*
X14276700Y-11328400D01*
X14236700Y-12050400D02*
X14236700Y-12130400D01*
X14196700Y-12090400D02*
X14276700Y-12090400D01*
X13220700Y-11288400D02*
X13220700Y-11368400D01*
X13180700Y-11328400D02*
X13260700Y-11328400D01*
X13220700Y-12050400D02*
X13220700Y-12130400D01*
X13180700Y-12090400D02*
X13260700Y-12090400D01*
X16205200Y-8240400D02*
X16205200Y-8320400D01*
X16165200Y-8280400D02*
X16245200Y-8280400D01*
X16205200Y-9002400D02*
X16205200Y-9082400D01*
X16165200Y-9042400D02*
X16245200Y-9042400D01*
X18364200Y-11859900D02*
X18364200Y-11939900D01*
X18324200Y-11899900D02*
X18404200Y-11899900D01*
X18864200Y-11859900D02*
X18864200Y-11939900D01*
X18824200Y-11899900D02*
X18904200Y-11899900D01*
X16903700Y-8240400D02*
X16903700Y-8320400D01*
X16863700Y-8280400D02*
X16943700Y-8280400D01*
X16903700Y-9002400D02*
X16903700Y-9082400D01*
X16863700Y-9042400D02*
X16943700Y-9042400D01*
X18491200Y-10526400D02*
X18491200Y-10606400D01*
X18451200Y-10566400D02*
X18531200Y-10566400D01*
X19253200Y-10526400D02*
X19253200Y-10606400D01*
X19213200Y-10566400D02*
X19293200Y-10566400D01*
X18491200Y-11288400D02*
X18491200Y-11368400D01*
X18451200Y-11328400D02*
X18531200Y-11328400D01*
X19253200Y-11288400D02*
X19253200Y-11368400D01*
X19213200Y-11328400D02*
X19293200Y-11328400D01*
X13728700Y-8684900D02*
X13728700Y-8764900D01*
X13688700Y-8724900D02*
X13768700Y-8724900D01*
X13728700Y-9446900D02*
X13728700Y-9526900D01*
X13688700Y-9486900D02*
X13768700Y-9486900D01*
X13982700Y-8684900D02*
X13982700Y-8764900D01*
X13942700Y-8724900D02*
X14022700Y-8724900D01*
X13982700Y-9446900D02*
X13982700Y-9526900D01*
X13942700Y-9486900D02*
X14022700Y-9486900D01*
X14236700Y-8684900D02*
X14236700Y-8764900D01*
X14196700Y-8724900D02*
X14276700Y-8724900D01*
X14236700Y-9446900D02*
X14236700Y-9526900D01*
X14196700Y-9486900D02*
X14276700Y-9486900D01*
X12522200Y-8684900D02*
X12522200Y-8764900D01*
X12482200Y-8724900D02*
X12562200Y-8724900D01*
X12522200Y-9446900D02*
X12522200Y-9526900D01*
X12482200Y-9486900D02*
X12562200Y-9486900D01*
X12776200Y-8684900D02*
X12776200Y-8764900D01*
X12736200Y-8724900D02*
X12816200Y-8724900D01*
X12776200Y-9446900D02*
X12776200Y-9526900D01*
X12736200Y-9486900D02*
X12816200Y-9486900D01*
X13030200Y-8684900D02*
X13030200Y-8764900D01*
X12990200Y-8724900D02*
X13070200Y-8724900D01*
X13030200Y-9446900D02*
X13030200Y-9526900D01*
X12990200Y-9486900D02*
X13070200Y-9486900D01*
X10807700Y-10551800D02*
X10807700Y-10631800D01*
X10767700Y-10591800D02*
X10847700Y-10591800D01*
X11157700Y-10551800D02*
X11157700Y-10631800D01*
X11117700Y-10591800D02*
X11197700Y-10591800D01*
X17221200Y-8240400D02*
X17221200Y-8320400D01*
X17181200Y-8280400D02*
X17261200Y-8280400D01*
X17221200Y-9002400D02*
X17221200Y-9082400D01*
X17181200Y-9042400D02*
X17261200Y-9042400D01*
X12522200Y-7351400D02*
X12522200Y-7431400D01*
X12482200Y-7391400D02*
X12562200Y-7391400D01*
X12522200Y-8113400D02*
X12522200Y-8193400D01*
X12482200Y-8153400D02*
X12562200Y-8153400D01*
X12776200Y-7351400D02*
X12776200Y-7431400D01*
X12736200Y-7391400D02*
X12816200Y-7391400D01*
X12776200Y-8113400D02*
X12776200Y-8193400D01*
X12736200Y-8153400D02*
X12816200Y-8153400D01*
X13030200Y-7351400D02*
X13030200Y-7431400D01*
X12990200Y-7391400D02*
X13070200Y-7391400D01*
X13030200Y-8113400D02*
X13030200Y-8193400D01*
X12990200Y-8153400D02*
X13070200Y-8153400D01*
X10807700Y-11948800D02*
X10807700Y-12028800D01*
X10767700Y-11988800D02*
X10847700Y-11988800D01*
X11157700Y-11948800D02*
X11157700Y-12028800D01*
X11117700Y-11988800D02*
X11197700Y-11988800D01*
X11760200Y-9256400D02*
X11760200Y-9336400D01*
X11720200Y-9296400D02*
X11800200Y-9296400D01*
X11760200Y-9756400D02*
X11760200Y-9836400D01*
X11720200Y-9796400D02*
X11800200Y-9796400D01*
X13728700Y-7351400D02*
X13728700Y-7431400D01*
X13688700Y-7391400D02*
X13768700Y-7391400D01*
X13728700Y-8113400D02*
X13728700Y-8193400D01*
X13688700Y-8153400D02*
X13768700Y-8153400D01*
X13982700Y-7351400D02*
X13982700Y-7431400D01*
X13942700Y-7391400D02*
X14022700Y-7391400D01*
X13982700Y-8113400D02*
X13982700Y-8193400D01*
X13942700Y-8153400D02*
X14022700Y-8153400D01*
X14236700Y-7351400D02*
X14236700Y-7431400D01*
X14196700Y-7391400D02*
X14276700Y-7391400D01*
X14236700Y-8113400D02*
X14236700Y-8193400D01*
X14196700Y-8153400D02*
X14276700Y-8153400D01*
X18491200Y-10780400D02*
X18491200Y-10860400D01*
X18451200Y-10820400D02*
X18531200Y-10820400D01*
X19253200Y-10780400D02*
X19253200Y-10860400D01*
X19213200Y-10820400D02*
X19293200Y-10820400D01*
X16205200Y-9319900D02*
X16205200Y-9399900D01*
X16165200Y-9359900D02*
X16245200Y-9359900D01*
X16205200Y-10081900D02*
X16205200Y-10161900D01*
X16165200Y-10121900D02*
X16245200Y-10121900D01*
X13538200Y-11288400D02*
X13538200Y-11368400D01*
X13498200Y-11328400D02*
X13578200Y-11328400D01*
X13538200Y-12050400D02*
X13538200Y-12130400D01*
X13498200Y-12090400D02*
X13578200Y-12090400D01*
X18491200Y-9764400D02*
X18491200Y-9844400D01*
X18451200Y-9804400D02*
X18531200Y-9804400D01*
X19253200Y-9764400D02*
X19253200Y-9844400D01*
X19213200Y-9804400D02*
X19293200Y-9804400D01*
X8531683Y-11846128D02*
X8531683Y-11775363D01*
X8460918Y-11775363D01*
X8460918Y-11846128D01*
X8531683Y-11846128D01*
X9547683Y-11846128D02*
X9547683Y-11775363D01*
X9476918Y-11775363D01*
X9476918Y-11846128D01*
X9547683Y-11846128D01*
X13256082Y-12633782D02*
X13256082Y-12563017D01*
X13185317Y-12563017D01*
X13185317Y-12633782D01*
X13256082Y-12633782D01*
X13510082Y-12633782D02*
X13510082Y-12563017D01*
X13439317Y-12563017D01*
X13439317Y-12633782D01*
X13510082Y-12633782D01*
X13764082Y-12633782D02*
X13764082Y-12563017D01*
X13693317Y-12563017D01*
X13693317Y-12633782D01*
X13764082Y-12633782D01*
X14018082Y-12633782D02*
X14018082Y-12563017D01*
X13947317Y-12563017D01*
X13947317Y-12633782D01*
X14018082Y-12633782D01*
X14272082Y-12633782D02*
X14272082Y-12563017D01*
X14201317Y-12563017D01*
X14201317Y-12633782D01*
X14272082Y-12633782D01*
X22031529Y-10208083D02*
X22031529Y-10137318D01*
X21960764Y-10137318D01*
X21960764Y-10208083D01*
X22031529Y-10208083D01*
X22031529Y-11224082D02*
X22031529Y-11153318D01*
X21960764Y-11153318D01*
X21960764Y-11224082D01*
X22031529Y-11224082D01*
X16494582Y-12633782D02*
X16494582Y-12563017D01*
X16423817Y-12563017D01*
X16423817Y-12633782D01*
X16494582Y-12633782D01*
X16748582Y-12633782D02*
X16748582Y-12563017D01*
X16677817Y-12563017D01*
X16677817Y-12633782D01*
X16748582Y-12633782D01*
X17002583Y-12633782D02*
X17002583Y-12563017D01*
X16931818Y-12563017D01*
X16931818Y-12633782D01*
X17002583Y-12633782D01*
X8531683Y-10830129D02*
X8531683Y-10759364D01*
X8460918Y-10759364D01*
X8460918Y-10830129D01*
X8531683Y-10830129D01*
X9547683Y-10830129D02*
X9547683Y-10759364D01*
X9476918Y-10759364D01*
X9476918Y-10830129D01*
X9547683Y-10830129D01*
X8531683Y-11338636D02*
X8531683Y-11267871D01*
X8460918Y-11267871D01*
X8460918Y-11338636D01*
X8531683Y-11338636D01*
X9547683Y-11338636D02*
X9547683Y-11267871D01*
X9476918Y-11267871D01*
X9476918Y-11338636D01*
X9547683Y-11338636D01*
X8531683Y-8544129D02*
X8531683Y-8473364D01*
X8460918Y-8473364D01*
X8460918Y-8544129D01*
X8531683Y-8544129D01*
X9547683Y-8544129D02*
X9547683Y-8473364D01*
X9476918Y-8473364D01*
X9476918Y-8544129D01*
X9547683Y-8544129D01*
X12811836Y-9966783D02*
X12811836Y-9896018D01*
X12741071Y-9896018D01*
X12741071Y-9966783D01*
X12811836Y-9966783D01*
X12811836Y-10982783D02*
X12811836Y-10912018D01*
X12741071Y-10912018D01*
X12741071Y-10982783D01*
X12811836Y-10982783D01*
X8531683Y-10322637D02*
X8531683Y-10251872D01*
X8460918Y-10251872D01*
X8460918Y-10322637D01*
X8531683Y-10322637D01*
X9547683Y-10322637D02*
X9547683Y-10251872D01*
X9476918Y-10251872D01*
X9476918Y-10322637D01*
X9547683Y-10322637D01*
X16621582Y-7299782D02*
X16621582Y-7229017D01*
X16550817Y-7229017D01*
X16550817Y-7299782D01*
X16621582Y-7299782D01*
X16875583Y-7299782D02*
X16875583Y-7229017D01*
X16804818Y-7229017D01*
X16804818Y-7299782D01*
X16875583Y-7299782D01*
X22413036Y-8938083D02*
X22413036Y-8867318D01*
X22342272Y-8867318D01*
X22342272Y-8938083D01*
X22413036Y-8938083D01*
X22413036Y-9954083D02*
X22413036Y-9883318D01*
X22342272Y-9883318D01*
X22342272Y-9954083D01*
X22413036Y-9954083D01*
X22032037Y-8684083D02*
X22032037Y-8613318D01*
X21961272Y-8613318D01*
X21961272Y-8684083D01*
X22032037Y-8684083D01*
X22032037Y-9700083D02*
X22032037Y-9629318D01*
X21961272Y-9629318D01*
X21961272Y-9700083D01*
X22032037Y-9700083D01*
X12811328Y-11363782D02*
X12811328Y-11293017D01*
X12740563Y-11293017D01*
X12740563Y-11363782D01*
X12811328Y-11363782D01*
X12811328Y-12379782D02*
X12811328Y-12309017D01*
X12740563Y-12309017D01*
X12740563Y-12379782D01*
X12811328Y-12379782D01*
X9547683Y-12608382D02*
X9547683Y-12537617D01*
X9476918Y-12537617D01*
X9476918Y-12608382D01*
X9547683Y-12608382D01*
X9801683Y-12608382D02*
X9801683Y-12537617D01*
X9730918Y-12537617D01*
X9730918Y-12608382D01*
X9801683Y-12608382D01*
X19098083Y-12633782D02*
X19098083Y-12563017D01*
X19027318Y-12563017D01*
X19027318Y-12633782D01*
X19098083Y-12633782D01*
X19352083Y-12633782D02*
X19352083Y-12563017D01*
X19281318Y-12563017D01*
X19281318Y-12633782D01*
X19352083Y-12633782D01*
X22476028Y-10462083D02*
X22476028Y-10391318D01*
X22405263Y-10391318D01*
X22405263Y-10462083D01*
X22476028Y-10462083D01*
X22476028Y-11478082D02*
X22476028Y-11407317D01*
X22405263Y-11407317D01*
X22405263Y-11478082D01*
X22476028Y-11478082D01*
X12303836Y-9966783D02*
X12303836Y-9896018D01*
X12233071Y-9896018D01*
X12233071Y-9966783D01*
X12303836Y-9966783D01*
X12303836Y-10982783D02*
X12303836Y-10912018D01*
X12233071Y-10912018D01*
X12233071Y-10982783D01*
X12303836Y-10982783D01*
X8531683Y-8036636D02*
X8531683Y-7965871D01*
X8460918Y-7965871D01*
X8460918Y-8036636D01*
X8531683Y-8036636D01*
X9547683Y-8036636D02*
X9547683Y-7965871D01*
X9476918Y-7965871D01*
X9476918Y-8036636D01*
X9547683Y-8036636D01*
X17764583Y-9077783D02*
X17764583Y-9007018D01*
X17693818Y-9007018D01*
X17693818Y-9077783D01*
X17764583Y-9077783D01*
X17764583Y-9331783D02*
X17764583Y-9261018D01*
X17693818Y-9261018D01*
X17693818Y-9331783D01*
X17764583Y-9331783D01*
X17764583Y-9585783D02*
X17764583Y-9515018D01*
X17693818Y-9515018D01*
X17693818Y-9585783D01*
X17764583Y-9585783D01*
X17764583Y-9839783D02*
X17764583Y-9769018D01*
X17693818Y-9769018D01*
X17693818Y-9839783D01*
X17764583Y-9839783D01*
X17764583Y-10093783D02*
X17764583Y-10023018D01*
X17693818Y-10023018D01*
X17693818Y-10093783D01*
X17764583Y-10093783D01*
X17764583Y-10347783D02*
X17764583Y-10277018D01*
X17693818Y-10277018D01*
X17693818Y-10347783D01*
X17764583Y-10347783D01*
X17764583Y-10601783D02*
X17764583Y-10531018D01*
X17693818Y-10531018D01*
X17693818Y-10601783D01*
X17764583Y-10601783D01*
X17764583Y-10855783D02*
X17764583Y-10785018D01*
X17693818Y-10785018D01*
X17693818Y-10855783D01*
X17764583Y-10855783D01*
X17764583Y-11109783D02*
X17764583Y-11039018D01*
X17693818Y-11039018D01*
X17693818Y-11109783D01*
X17764583Y-11109783D01*
X17764583Y-11363782D02*
X17764583Y-11293017D01*
X17693818Y-11293017D01*
X17693818Y-11363782D01*
X17764583Y-11363782D01*
X17764583Y-11617782D02*
X17764583Y-11547017D01*
X17693818Y-11547017D01*
X17693818Y-11617782D01*
X17764583Y-11617782D01*
X17764583Y-11871782D02*
X17764583Y-11801017D01*
X17693818Y-11801017D01*
X17693818Y-11871782D01*
X17764583Y-11871782D01*
X8531683Y-9052637D02*
X8531683Y-8981872D01*
X8460918Y-8981872D01*
X8460918Y-9052637D01*
X8531683Y-9052637D01*
X9547683Y-9052637D02*
X9547683Y-8981872D01*
X9476918Y-8981872D01*
X9476918Y-9052637D01*
X9547683Y-9052637D01*
X23111282Y-9446083D02*
X23111282Y-9375318D01*
X23040517Y-9375318D01*
X23040517Y-9446083D01*
X23111282Y-9446083D01*
X23111282Y-9700083D02*
X23111282Y-9629318D01*
X23040517Y-9629318D01*
X23040517Y-9700083D01*
X23111282Y-9700083D01*
X23111282Y-9954083D02*
X23111282Y-9883318D01*
X23040517Y-9883318D01*
X23040517Y-9954083D01*
X23111282Y-9954083D01*
X23111282Y-10208083D02*
X23111282Y-10137318D01*
X23040517Y-10137318D01*
X23040517Y-10208083D01*
X23111282Y-10208083D01*
X23111282Y-10462083D02*
X23111282Y-10391318D01*
X23040517Y-10391318D01*
X23040517Y-10462083D01*
X23111282Y-10462083D01*
X8023682Y-8645983D02*
X8023682Y-8575218D01*
X7952917Y-8575218D01*
X7952917Y-8645983D01*
X8023682Y-8645983D01*
X8023682Y-8899983D02*
X8023682Y-8829218D01*
X7952917Y-8829218D01*
X7952917Y-8899983D01*
X8023682Y-8899983D01*
X15732582Y-8061782D02*
X15732582Y-7991017D01*
X15661817Y-7991017D01*
X15661817Y-8061782D01*
X15732582Y-8061782D01*
X15732582Y-8315782D02*
X15732582Y-8245017D01*
X15661817Y-8245017D01*
X15661817Y-8315782D01*
X15732582Y-8315782D01*
X15732582Y-8569783D02*
X15732582Y-8499018D01*
X15661817Y-8499018D01*
X15661817Y-8569783D01*
X15732582Y-8569783D01*
X15732582Y-8823783D02*
X15732582Y-8753018D01*
X15661817Y-8753018D01*
X15661817Y-8823783D01*
X15732582Y-8823783D01*
X15732582Y-9077783D02*
X15732582Y-9007018D01*
X15661817Y-9007018D01*
X15661817Y-9077783D01*
X15732582Y-9077783D01*
X15732582Y-9331783D02*
X15732582Y-9261018D01*
X15661817Y-9261018D01*
X15661817Y-9331783D01*
X15732582Y-9331783D01*
X15732582Y-9585783D02*
X15732582Y-9515018D01*
X15661817Y-9515018D01*
X15661817Y-9585783D01*
X15732582Y-9585783D01*
X15732582Y-9839783D02*
X15732582Y-9769018D01*
X15661817Y-9769018D01*
X15661817Y-9839783D01*
X15732582Y-9839783D01*
X15732582Y-10093783D02*
X15732582Y-10023018D01*
X15661817Y-10023018D01*
X15661817Y-10093783D01*
X15732582Y-10093783D01*
X15732582Y-10347783D02*
X15732582Y-10277018D01*
X15661817Y-10277018D01*
X15661817Y-10347783D01*
X15732582Y-10347783D01*
X15732582Y-10601783D02*
X15732582Y-10531018D01*
X15661817Y-10531018D01*
X15661817Y-10601783D01*
X15732582Y-10601783D01*
X15732582Y-10855783D02*
X15732582Y-10785018D01*
X15661817Y-10785018D01*
X15661817Y-10855783D01*
X15732582Y-10855783D01*
X15732582Y-11109783D02*
X15732582Y-11039018D01*
X15661817Y-11039018D01*
X15661817Y-11109783D01*
X15732582Y-11109783D01*
X15732582Y-11363782D02*
X15732582Y-11293017D01*
X15661817Y-11293017D01*
X15661817Y-11363782D01*
X15732582Y-11363782D01*
X15732582Y-11617782D02*
X15732582Y-11547017D01*
X15661817Y-11547017D01*
X15661817Y-11617782D01*
X15732582Y-11617782D01*
X15732582Y-11871782D02*
X15732582Y-11801017D01*
X15661817Y-11801017D01*
X15661817Y-11871782D01*
X15732582Y-11871782D01*
X18386883Y-12633782D02*
X18386883Y-12563017D01*
X18316118Y-12563017D01*
X18316118Y-12633782D01*
X18386883Y-12633782D01*
X18640883Y-12633782D02*
X18640883Y-12563017D01*
X18570118Y-12563017D01*
X18570118Y-12633782D01*
X18640883Y-12633782D01*
X8531683Y-9560129D02*
X8531683Y-9489364D01*
X8460918Y-9489364D01*
X8460918Y-9560129D01*
X8531683Y-9560129D01*
X9547683Y-9560129D02*
X9547683Y-9489364D01*
X9476918Y-9489364D01*
X9476918Y-9560129D01*
X9547683Y-9560129D01*
X12303328Y-11363782D02*
X12303328Y-11293017D01*
X12232563Y-11293017D01*
X12232563Y-11363782D01*
X12303328Y-11363782D01*
X12303328Y-12379782D02*
X12303328Y-12309017D01*
X12232563Y-12309017D01*
X12232563Y-12379782D01*
X12303328Y-12379782D01*
X8023682Y-10982783D02*
X8023682Y-10912018D01*
X7952917Y-10912018D01*
X7952917Y-10982783D01*
X8023682Y-10982783D01*
X8023682Y-11236782D02*
X8023682Y-11166018D01*
X7952917Y-11166018D01*
X7952917Y-11236782D01*
X8023682Y-11236782D01*
X20954492Y-9000744D02*
X21014436Y-8940800D01*
X20954492Y-8880856D01*
X20894548Y-8940800D01*
X20954492Y-9000744D01*
X21183600Y-9000744D02*
X21243544Y-8940800D01*
X21183600Y-8880856D01*
X21123656Y-8940800D01*
X21183600Y-9000744D01*
X21412708Y-9000744D02*
X21472652Y-8940800D01*
X21412708Y-8880856D01*
X21352764Y-8940800D01*
X21412708Y-9000744D01*
X19894042Y-8994394D02*
X19953986Y-8934450D01*
X19894042Y-8874506D01*
X19834098Y-8934450D01*
X19894042Y-8994394D01*
X20123150Y-8994394D02*
X20183094Y-8934450D01*
X20123150Y-8874506D01*
X20063206Y-8934450D01*
X20123150Y-8994394D01*
X20352258Y-8994394D02*
X20412202Y-8934450D01*
X20352258Y-8874506D01*
X20292314Y-8934450D01*
X20352258Y-8994394D01*
X10706100Y-9381744D02*
X10766044Y-9321800D01*
X10706100Y-9261856D01*
X10646156Y-9321800D01*
X10706100Y-9381744D01*
X10960100Y-9381744D02*
X11020044Y-9321800D01*
X10960100Y-9261856D01*
X10900156Y-9321800D01*
X10960100Y-9381744D01*
X11214100Y-9381744D02*
X11274044Y-9321800D01*
X11214100Y-9261856D01*
X11154156Y-9321800D01*
X11214100Y-9381744D01*
X19887692Y-10931144D02*
X19947636Y-10871200D01*
X19887692Y-10811256D01*
X19827748Y-10871200D01*
X19887692Y-10931144D01*
X20116800Y-10931144D02*
X20176744Y-10871200D01*
X20116800Y-10811256D01*
X20056856Y-10871200D01*
X20116800Y-10931144D01*
X20345908Y-10931144D02*
X20405852Y-10871200D01*
X20345908Y-10811256D01*
X20285964Y-10871200D01*
X20345908Y-10931144D01*
X20941792Y-10931144D02*
X21001736Y-10871200D01*
X20941792Y-10811256D01*
X20881848Y-10871200D01*
X20941792Y-10931144D01*
X21170900Y-10931144D02*
X21230844Y-10871200D01*
X21170900Y-10811256D01*
X21110956Y-10871200D01*
X21170900Y-10931144D01*
X21400008Y-10931144D02*
X21459952Y-10871200D01*
X21400008Y-10811256D01*
X21340064Y-10871200D01*
X21400008Y-10931144D01*
X22865156Y-7129856D02*
X23185044Y-7449744D01*
X23185044Y-7129856D02*
X22865156Y-7449744D01*
X23185044Y-7289800D02*
G75*
G03X23185044Y-7289800I-159944J0D01*
G01*
X7828356Y-7129856D02*
X8148244Y-7449744D01*
X8148244Y-7129856D02*
X7828356Y-7449744D01*
X8148244Y-7289800D02*
G75*
G03X8148244Y-7289800I-159944J0D01*
G01*
X7828356Y-12413056D02*
X8148244Y-12732944D01*
X8148244Y-12413056D02*
X7828356Y-12732944D01*
X8148244Y-12573000D02*
G75*
G03X8148244Y-12573000I-159944J0D01*
G01*
X22865156Y-12413056D02*
X23185044Y-12732944D01*
X23185044Y-12413056D02*
X22865156Y-12732944D01*
X23185044Y-12573000D02*
G75*
G03X23185044Y-12573000I-159944J0D01*
G01*
D12*
X7761728Y-13551714D02*
X7761728Y-13251714D01*
X7833157Y-13251714D01*
X7876014Y-13266000D01*
X7904586Y-13294571D01*
X7918871Y-13323143D01*
X7933157Y-13380286D01*
X7933157Y-13423143D01*
X7918871Y-13480286D01*
X7904586Y-13508857D01*
X7876014Y-13537429D01*
X7833157Y-13551714D01*
X7761728Y-13551714D01*
X8061728Y-13551714D02*
X8061728Y-13351714D01*
X8061728Y-13408857D02*
X8076014Y-13380286D01*
X8090300Y-13366000D01*
X8118871Y-13351714D01*
X8147443Y-13351714D01*
X8247443Y-13551714D02*
X8247443Y-13351714D01*
X8247443Y-13251714D02*
X8233157Y-13266000D01*
X8247443Y-13280286D01*
X8261728Y-13266000D01*
X8247443Y-13251714D01*
X8247443Y-13280286D01*
X8433157Y-13551714D02*
X8404586Y-13537429D01*
X8390300Y-13508857D01*
X8390300Y-13251714D01*
X8590300Y-13551714D02*
X8561728Y-13537429D01*
X8547443Y-13508857D01*
X8547443Y-13251714D01*
X8933157Y-13551714D02*
X8933157Y-13251714D01*
X9033157Y-13466000D01*
X9133157Y-13251714D01*
X9133157Y-13551714D01*
X9404586Y-13551714D02*
X9404586Y-13394571D01*
X9390300Y-13366000D01*
X9361728Y-13351714D01*
X9304586Y-13351714D01*
X9276014Y-13366000D01*
X9404586Y-13537429D02*
X9376014Y-13551714D01*
X9304586Y-13551714D01*
X9276014Y-13537429D01*
X9261728Y-13508857D01*
X9261728Y-13480286D01*
X9276014Y-13451714D01*
X9304586Y-13437429D01*
X9376014Y-13437429D01*
X9404586Y-13423143D01*
X9547443Y-13351714D02*
X9547443Y-13651714D01*
X9547443Y-13366000D02*
X9576014Y-13351714D01*
X9633157Y-13351714D01*
X9661728Y-13366000D01*
X9676014Y-13380286D01*
X9690300Y-13408857D01*
X9690300Y-13494571D01*
X9676014Y-13523143D01*
X9661728Y-13537429D01*
X9633157Y-13551714D01*
X9576014Y-13551714D01*
X9547443Y-13537429D01*
X9818871Y-13523143D02*
X9833157Y-13537429D01*
X9818871Y-13551714D01*
X9804586Y-13537429D01*
X9818871Y-13523143D01*
X9818871Y-13551714D01*
X9818871Y-13366000D02*
X9833157Y-13380286D01*
X9818871Y-13394571D01*
X9804586Y-13380286D01*
X9818871Y-13366000D01*
X9818871Y-13394571D01*
X7435300Y-14026000D02*
X7475300Y-14066000D01*
X7475300Y-14026000D02*
X7435300Y-14066000D01*
X7818871Y-13881714D02*
X7847443Y-13881714D01*
X7876014Y-13896000D01*
X7890300Y-13910286D01*
X7904586Y-13938857D01*
X7918871Y-13996000D01*
X7918871Y-14067429D01*
X7904586Y-14124571D01*
X7890300Y-14153143D01*
X7876014Y-14167429D01*
X7847443Y-14181714D01*
X7818871Y-14181714D01*
X7790300Y-14167429D01*
X7776014Y-14153143D01*
X7761728Y-14124571D01*
X7747443Y-14067429D01*
X7747443Y-13996000D01*
X7761728Y-13938857D01*
X7776014Y-13910286D01*
X7790300Y-13896000D01*
X7818871Y-13881714D01*
X8047443Y-14153143D02*
X8061728Y-14167429D01*
X8047443Y-14181714D01*
X8033157Y-14167429D01*
X8047443Y-14153143D01*
X8047443Y-14181714D01*
X8318871Y-13981714D02*
X8318871Y-14181714D01*
X8247443Y-13867429D02*
X8176014Y-14081714D01*
X8361728Y-14081714D01*
X8533157Y-13881714D02*
X8561728Y-13881714D01*
X8590300Y-13896000D01*
X8604586Y-13910286D01*
X8618871Y-13938857D01*
X8633157Y-13996000D01*
X8633157Y-14067429D01*
X8618871Y-14124571D01*
X8604586Y-14153143D01*
X8590300Y-14167429D01*
X8561728Y-14181714D01*
X8533157Y-14181714D01*
X8504586Y-14167429D01*
X8490300Y-14153143D01*
X8476014Y-14124571D01*
X8461728Y-14067429D01*
X8461728Y-13996000D01*
X8476014Y-13938857D01*
X8490300Y-13910286D01*
X8504586Y-13896000D01*
X8533157Y-13881714D01*
X8761728Y-14181714D02*
X8761728Y-13981714D01*
X8761728Y-14010286D02*
X8776014Y-13996000D01*
X8804586Y-13981714D01*
X8847443Y-13981714D01*
X8876014Y-13996000D01*
X8890300Y-14024571D01*
X8890300Y-14181714D01*
X8890300Y-14024571D02*
X8904586Y-13996000D01*
X8933157Y-13981714D01*
X8976014Y-13981714D01*
X9004586Y-13996000D01*
X9018871Y-14024571D01*
X9018871Y-14181714D01*
X9161728Y-14181714D02*
X9161728Y-13981714D01*
X9161728Y-14010286D02*
X9176014Y-13996000D01*
X9204586Y-13981714D01*
X9247443Y-13981714D01*
X9276014Y-13996000D01*
X9290300Y-14024571D01*
X9290300Y-14181714D01*
X9290300Y-14024571D02*
X9304586Y-13996000D01*
X9333157Y-13981714D01*
X9376014Y-13981714D01*
X9404586Y-13996000D01*
X9418871Y-14024571D01*
X9418871Y-14181714D01*
X10004586Y-13867429D02*
X9747443Y-14253143D01*
X10390300Y-13881714D02*
X10418871Y-13881714D01*
X10447443Y-13896000D01*
X10461728Y-13910286D01*
X10476014Y-13938857D01*
X10490300Y-13996000D01*
X10490300Y-14067429D01*
X10476014Y-14124571D01*
X10461728Y-14153143D01*
X10447443Y-14167429D01*
X10418871Y-14181714D01*
X10390300Y-14181714D01*
X10361728Y-14167429D01*
X10347443Y-14153143D01*
X10333157Y-14124571D01*
X10318871Y-14067429D01*
X10318871Y-13996000D01*
X10333157Y-13938857D01*
X10347443Y-13910286D01*
X10361728Y-13896000D01*
X10390300Y-13881714D01*
X10618871Y-14153143D02*
X10633157Y-14167429D01*
X10618871Y-14181714D01*
X10604586Y-14167429D01*
X10618871Y-14153143D01*
X10618871Y-14181714D01*
X10818871Y-13881714D02*
X10847443Y-13881714D01*
X10876014Y-13896000D01*
X10890300Y-13910286D01*
X10904586Y-13938857D01*
X10918871Y-13996000D01*
X10918871Y-14067429D01*
X10904586Y-14124571D01*
X10890300Y-14153143D01*
X10876014Y-14167429D01*
X10847443Y-14181714D01*
X10818871Y-14181714D01*
X10790300Y-14167429D01*
X10776014Y-14153143D01*
X10761728Y-14124571D01*
X10747443Y-14067429D01*
X10747443Y-13996000D01*
X10761728Y-13938857D01*
X10776014Y-13910286D01*
X10790300Y-13896000D01*
X10818871Y-13881714D01*
X11204586Y-14181714D02*
X11033157Y-14181714D01*
X11118871Y-14181714D02*
X11118871Y-13881714D01*
X11090300Y-13924571D01*
X11061728Y-13953143D01*
X11033157Y-13967429D01*
X11461728Y-13881714D02*
X11404586Y-13881714D01*
X11376014Y-13896000D01*
X11361728Y-13910286D01*
X11333157Y-13953143D01*
X11318871Y-14010286D01*
X11318871Y-14124571D01*
X11333157Y-14153143D01*
X11347443Y-14167429D01*
X11376014Y-14181714D01*
X11433157Y-14181714D01*
X11461728Y-14167429D01*
X11476014Y-14153143D01*
X11490300Y-14124571D01*
X11490300Y-14053143D01*
X11476014Y-14024571D01*
X11461728Y-14010286D01*
X11433157Y-13996000D01*
X11376014Y-13996000D01*
X11347443Y-14010286D01*
X11333157Y-14024571D01*
X11318871Y-14053143D01*
X11604586Y-13881714D02*
X11604586Y-13938857D01*
X11718871Y-13881714D02*
X11718871Y-13938857D01*
X12161728Y-14296000D02*
X12147443Y-14281714D01*
X12118871Y-14238857D01*
X12104586Y-14210286D01*
X12090300Y-14167429D01*
X12076014Y-14096000D01*
X12076014Y-14038857D01*
X12090300Y-13967429D01*
X12104586Y-13924571D01*
X12118871Y-13896000D01*
X12147443Y-13853143D01*
X12161728Y-13838857D01*
X12433157Y-14181714D02*
X12261728Y-14181714D01*
X12347443Y-14181714D02*
X12347443Y-13881714D01*
X12318871Y-13924571D01*
X12290300Y-13953143D01*
X12261728Y-13967429D01*
X12790300Y-14181714D02*
X12790300Y-13881714D01*
X12918871Y-14181714D02*
X12918871Y-14024571D01*
X12904586Y-13996000D01*
X12876014Y-13981714D01*
X12833157Y-13981714D01*
X12804586Y-13996000D01*
X12790300Y-14010286D01*
X13104586Y-14181714D02*
X13076014Y-14167429D01*
X13061728Y-14153143D01*
X13047443Y-14124571D01*
X13047443Y-14038857D01*
X13061728Y-14010286D01*
X13076014Y-13996000D01*
X13104586Y-13981714D01*
X13147443Y-13981714D01*
X13176014Y-13996000D01*
X13190300Y-14010286D01*
X13204586Y-14038857D01*
X13204586Y-14124571D01*
X13190300Y-14153143D01*
X13176014Y-14167429D01*
X13147443Y-14181714D01*
X13104586Y-14181714D01*
X13376014Y-14181714D02*
X13347443Y-14167429D01*
X13333157Y-14138857D01*
X13333157Y-13881714D01*
X13604586Y-14167429D02*
X13576014Y-14181714D01*
X13518871Y-14181714D01*
X13490300Y-14167429D01*
X13476014Y-14138857D01*
X13476014Y-14024571D01*
X13490300Y-13996000D01*
X13518871Y-13981714D01*
X13576014Y-13981714D01*
X13604586Y-13996000D01*
X13618871Y-14024571D01*
X13618871Y-14053143D01*
X13476014Y-14081714D01*
X13718871Y-14296000D02*
X13733157Y-14281714D01*
X13761728Y-14238857D01*
X13776014Y-14210286D01*
X13790300Y-14167429D01*
X13804586Y-14096000D01*
X13804586Y-14038857D01*
X13790300Y-13967429D01*
X13776014Y-13924571D01*
X13761728Y-13896000D01*
X13733157Y-13853143D01*
X13718871Y-13838857D01*
X7475300Y-14442000D02*
G75*
G03X7475300Y-14442000I-30000J0D01*
G01*
X7818871Y-14277714D02*
X7847443Y-14277714D01*
X7876014Y-14292000D01*
X7890300Y-14306286D01*
X7904586Y-14334857D01*
X7918871Y-14392000D01*
X7918871Y-14463429D01*
X7904586Y-14520571D01*
X7890300Y-14549143D01*
X7876014Y-14563429D01*
X7847443Y-14577714D01*
X7818871Y-14577714D01*
X7790300Y-14563429D01*
X7776014Y-14549143D01*
X7761728Y-14520571D01*
X7747443Y-14463429D01*
X7747443Y-14392000D01*
X7761728Y-14334857D01*
X7776014Y-14306286D01*
X7790300Y-14292000D01*
X7818871Y-14277714D01*
X8047443Y-14549143D02*
X8061728Y-14563429D01*
X8047443Y-14577714D01*
X8033157Y-14563429D01*
X8047443Y-14549143D01*
X8047443Y-14577714D01*
X8318871Y-14277714D02*
X8261728Y-14277714D01*
X8233157Y-14292000D01*
X8218871Y-14306286D01*
X8190300Y-14349143D01*
X8176014Y-14406286D01*
X8176014Y-14520571D01*
X8190300Y-14549143D01*
X8204586Y-14563429D01*
X8233157Y-14577714D01*
X8290300Y-14577714D01*
X8318871Y-14563429D01*
X8333157Y-14549143D01*
X8347443Y-14520571D01*
X8347443Y-14449143D01*
X8333157Y-14420571D01*
X8318871Y-14406286D01*
X8290300Y-14392000D01*
X8233157Y-14392000D01*
X8204586Y-14406286D01*
X8190300Y-14420571D01*
X8176014Y-14449143D01*
X8533157Y-14277714D02*
X8561728Y-14277714D01*
X8590300Y-14292000D01*
X8604586Y-14306286D01*
X8618871Y-14334857D01*
X8633157Y-14392000D01*
X8633157Y-14463429D01*
X8618871Y-14520571D01*
X8604586Y-14549143D01*
X8590300Y-14563429D01*
X8561728Y-14577714D01*
X8533157Y-14577714D01*
X8504586Y-14563429D01*
X8490300Y-14549143D01*
X8476014Y-14520571D01*
X8461728Y-14463429D01*
X8461728Y-14392000D01*
X8476014Y-14334857D01*
X8490300Y-14306286D01*
X8504586Y-14292000D01*
X8533157Y-14277714D01*
X8761728Y-14577714D02*
X8761728Y-14377714D01*
X8761728Y-14406286D02*
X8776014Y-14392000D01*
X8804586Y-14377714D01*
X8847443Y-14377714D01*
X8876014Y-14392000D01*
X8890300Y-14420571D01*
X8890300Y-14577714D01*
X8890300Y-14420571D02*
X8904586Y-14392000D01*
X8933157Y-14377714D01*
X8976014Y-14377714D01*
X9004586Y-14392000D01*
X9018871Y-14420571D01*
X9018871Y-14577714D01*
X9161728Y-14577714D02*
X9161728Y-14377714D01*
X9161728Y-14406286D02*
X9176014Y-14392000D01*
X9204586Y-14377714D01*
X9247443Y-14377714D01*
X9276014Y-14392000D01*
X9290300Y-14420571D01*
X9290300Y-14577714D01*
X9290300Y-14420571D02*
X9304586Y-14392000D01*
X9333157Y-14377714D01*
X9376014Y-14377714D01*
X9404586Y-14392000D01*
X9418871Y-14420571D01*
X9418871Y-14577714D01*
X10004586Y-14263429D02*
X9747443Y-14649143D01*
X10390300Y-14277714D02*
X10418871Y-14277714D01*
X10447443Y-14292000D01*
X10461728Y-14306286D01*
X10476014Y-14334857D01*
X10490300Y-14392000D01*
X10490300Y-14463429D01*
X10476014Y-14520571D01*
X10461728Y-14549143D01*
X10447443Y-14563429D01*
X10418871Y-14577714D01*
X10390300Y-14577714D01*
X10361728Y-14563429D01*
X10347443Y-14549143D01*
X10333157Y-14520571D01*
X10318871Y-14463429D01*
X10318871Y-14392000D01*
X10333157Y-14334857D01*
X10347443Y-14306286D01*
X10361728Y-14292000D01*
X10390300Y-14277714D01*
X10618871Y-14549143D02*
X10633157Y-14563429D01*
X10618871Y-14577714D01*
X10604586Y-14563429D01*
X10618871Y-14549143D01*
X10618871Y-14577714D01*
X10818871Y-14277714D02*
X10847443Y-14277714D01*
X10876014Y-14292000D01*
X10890300Y-14306286D01*
X10904586Y-14334857D01*
X10918871Y-14392000D01*
X10918871Y-14463429D01*
X10904586Y-14520571D01*
X10890300Y-14549143D01*
X10876014Y-14563429D01*
X10847443Y-14577714D01*
X10818871Y-14577714D01*
X10790300Y-14563429D01*
X10776014Y-14549143D01*
X10761728Y-14520571D01*
X10747443Y-14463429D01*
X10747443Y-14392000D01*
X10761728Y-14334857D01*
X10776014Y-14306286D01*
X10790300Y-14292000D01*
X10818871Y-14277714D01*
X11033157Y-14306286D02*
X11047443Y-14292000D01*
X11076014Y-14277714D01*
X11147443Y-14277714D01*
X11176014Y-14292000D01*
X11190300Y-14306286D01*
X11204586Y-14334857D01*
X11204586Y-14363429D01*
X11190300Y-14406286D01*
X11018871Y-14577714D01*
X11204586Y-14577714D01*
X11461728Y-14377714D02*
X11461728Y-14577714D01*
X11390300Y-14263429D02*
X11318871Y-14477714D01*
X11504586Y-14477714D01*
X11604586Y-14277714D02*
X11604586Y-14334857D01*
X11718871Y-14277714D02*
X11718871Y-14334857D01*
X12161728Y-14692000D02*
X12147443Y-14677714D01*
X12118871Y-14634857D01*
X12104586Y-14606286D01*
X12090300Y-14563429D01*
X12076014Y-14492000D01*
X12076014Y-14434857D01*
X12090300Y-14363429D01*
X12104586Y-14320571D01*
X12118871Y-14292000D01*
X12147443Y-14249143D01*
X12161728Y-14234857D01*
X12433157Y-14577714D02*
X12261728Y-14577714D01*
X12347443Y-14577714D02*
X12347443Y-14277714D01*
X12318871Y-14320571D01*
X12290300Y-14349143D01*
X12261728Y-14363429D01*
X12547443Y-14306286D02*
X12561728Y-14292000D01*
X12590300Y-14277714D01*
X12661728Y-14277714D01*
X12690300Y-14292000D01*
X12704586Y-14306286D01*
X12718871Y-14334857D01*
X12718871Y-14363429D01*
X12704586Y-14406286D01*
X12533157Y-14577714D01*
X12718871Y-14577714D01*
X13076014Y-14577714D02*
X13076014Y-14277714D01*
X13204586Y-14577714D02*
X13204586Y-14420571D01*
X13190300Y-14392000D01*
X13161728Y-14377714D01*
X13118871Y-14377714D01*
X13090300Y-14392000D01*
X13076014Y-14406286D01*
X13390300Y-14577714D02*
X13361728Y-14563429D01*
X13347443Y-14549143D01*
X13333157Y-14520571D01*
X13333157Y-14434857D01*
X13347443Y-14406286D01*
X13361728Y-14392000D01*
X13390300Y-14377714D01*
X13433157Y-14377714D01*
X13461728Y-14392000D01*
X13476014Y-14406286D01*
X13490300Y-14434857D01*
X13490300Y-14520571D01*
X13476014Y-14549143D01*
X13461728Y-14563429D01*
X13433157Y-14577714D01*
X13390300Y-14577714D01*
X13661728Y-14577714D02*
X13633157Y-14563429D01*
X13618871Y-14534857D01*
X13618871Y-14277714D01*
X13890300Y-14563429D02*
X13861728Y-14577714D01*
X13804586Y-14577714D01*
X13776014Y-14563429D01*
X13761728Y-14534857D01*
X13761728Y-14420571D01*
X13776014Y-14392000D01*
X13804586Y-14377714D01*
X13861728Y-14377714D01*
X13890300Y-14392000D01*
X13904586Y-14420571D01*
X13904586Y-14449143D01*
X13761728Y-14477714D01*
X14018871Y-14563429D02*
X14047443Y-14577714D01*
X14104586Y-14577714D01*
X14133157Y-14563429D01*
X14147443Y-14534857D01*
X14147443Y-14520571D01*
X14133157Y-14492000D01*
X14104586Y-14477714D01*
X14061728Y-14477714D01*
X14033157Y-14463429D01*
X14018871Y-14434857D01*
X14018871Y-14420571D01*
X14033157Y-14392000D01*
X14061728Y-14377714D01*
X14104586Y-14377714D01*
X14133157Y-14392000D01*
X14247443Y-14692000D02*
X14261728Y-14677714D01*
X14290300Y-14634857D01*
X14304586Y-14606286D01*
X14318871Y-14563429D01*
X14333157Y-14492000D01*
X14333157Y-14434857D01*
X14318871Y-14363429D01*
X14304586Y-14320571D01*
X14290300Y-14292000D01*
X14261728Y-14249143D01*
X14247443Y-14234857D01*
X7435300Y-14798000D02*
X7435300Y-14878000D01*
X7395300Y-14838000D02*
X7475300Y-14838000D01*
X7818871Y-14673714D02*
X7847443Y-14673714D01*
X7876014Y-14688000D01*
X7890300Y-14702286D01*
X7904586Y-14730857D01*
X7918871Y-14788000D01*
X7918871Y-14859429D01*
X7904586Y-14916571D01*
X7890300Y-14945143D01*
X7876014Y-14959429D01*
X7847443Y-14973714D01*
X7818871Y-14973714D01*
X7790300Y-14959429D01*
X7776014Y-14945143D01*
X7761728Y-14916571D01*
X7747443Y-14859429D01*
X7747443Y-14788000D01*
X7761728Y-14730857D01*
X7776014Y-14702286D01*
X7790300Y-14688000D01*
X7818871Y-14673714D01*
X8047443Y-14945143D02*
X8061728Y-14959429D01*
X8047443Y-14973714D01*
X8033157Y-14959429D01*
X8047443Y-14945143D01*
X8047443Y-14973714D01*
X8233157Y-14802286D02*
X8204586Y-14788000D01*
X8190300Y-14773714D01*
X8176014Y-14745143D01*
X8176014Y-14730857D01*
X8190300Y-14702286D01*
X8204586Y-14688000D01*
X8233157Y-14673714D01*
X8290300Y-14673714D01*
X8318871Y-14688000D01*
X8333157Y-14702286D01*
X8347443Y-14730857D01*
X8347443Y-14745143D01*
X8333157Y-14773714D01*
X8318871Y-14788000D01*
X8290300Y-14802286D01*
X8233157Y-14802286D01*
X8204586Y-14816571D01*
X8190300Y-14830857D01*
X8176014Y-14859429D01*
X8176014Y-14916571D01*
X8190300Y-14945143D01*
X8204586Y-14959429D01*
X8233157Y-14973714D01*
X8290300Y-14973714D01*
X8318871Y-14959429D01*
X8333157Y-14945143D01*
X8347443Y-14916571D01*
X8347443Y-14859429D01*
X8333157Y-14830857D01*
X8318871Y-14816571D01*
X8290300Y-14802286D01*
X8533157Y-14673714D02*
X8561728Y-14673714D01*
X8590300Y-14688000D01*
X8604586Y-14702286D01*
X8618871Y-14730857D01*
X8633157Y-14788000D01*
X8633157Y-14859429D01*
X8618871Y-14916571D01*
X8604586Y-14945143D01*
X8590300Y-14959429D01*
X8561728Y-14973714D01*
X8533157Y-14973714D01*
X8504586Y-14959429D01*
X8490300Y-14945143D01*
X8476014Y-14916571D01*
X8461728Y-14859429D01*
X8461728Y-14788000D01*
X8476014Y-14730857D01*
X8490300Y-14702286D01*
X8504586Y-14688000D01*
X8533157Y-14673714D01*
X8761728Y-14973714D02*
X8761728Y-14773714D01*
X8761728Y-14802286D02*
X8776014Y-14788000D01*
X8804586Y-14773714D01*
X8847443Y-14773714D01*
X8876014Y-14788000D01*
X8890300Y-14816571D01*
X8890300Y-14973714D01*
X8890300Y-14816571D02*
X8904586Y-14788000D01*
X8933157Y-14773714D01*
X8976014Y-14773714D01*
X9004586Y-14788000D01*
X9018871Y-14816571D01*
X9018871Y-14973714D01*
X9161728Y-14973714D02*
X9161728Y-14773714D01*
X9161728Y-14802286D02*
X9176014Y-14788000D01*
X9204586Y-14773714D01*
X9247443Y-14773714D01*
X9276014Y-14788000D01*
X9290300Y-14816571D01*
X9290300Y-14973714D01*
X9290300Y-14816571D02*
X9304586Y-14788000D01*
X9333157Y-14773714D01*
X9376014Y-14773714D01*
X9404586Y-14788000D01*
X9418871Y-14816571D01*
X9418871Y-14973714D01*
X10004586Y-14659429D02*
X9747443Y-15045143D01*
X10390300Y-14673714D02*
X10418871Y-14673714D01*
X10447443Y-14688000D01*
X10461728Y-14702286D01*
X10476014Y-14730857D01*
X10490300Y-14788000D01*
X10490300Y-14859429D01*
X10476014Y-14916571D01*
X10461728Y-14945143D01*
X10447443Y-14959429D01*
X10418871Y-14973714D01*
X10390300Y-14973714D01*
X10361728Y-14959429D01*
X10347443Y-14945143D01*
X10333157Y-14916571D01*
X10318871Y-14859429D01*
X10318871Y-14788000D01*
X10333157Y-14730857D01*
X10347443Y-14702286D01*
X10361728Y-14688000D01*
X10390300Y-14673714D01*
X10618871Y-14945143D02*
X10633157Y-14959429D01*
X10618871Y-14973714D01*
X10604586Y-14959429D01*
X10618871Y-14945143D01*
X10618871Y-14973714D01*
X10818871Y-14673714D02*
X10847443Y-14673714D01*
X10876014Y-14688000D01*
X10890300Y-14702286D01*
X10904586Y-14730857D01*
X10918871Y-14788000D01*
X10918871Y-14859429D01*
X10904586Y-14916571D01*
X10890300Y-14945143D01*
X10876014Y-14959429D01*
X10847443Y-14973714D01*
X10818871Y-14973714D01*
X10790300Y-14959429D01*
X10776014Y-14945143D01*
X10761728Y-14916571D01*
X10747443Y-14859429D01*
X10747443Y-14788000D01*
X10761728Y-14730857D01*
X10776014Y-14702286D01*
X10790300Y-14688000D01*
X10818871Y-14673714D01*
X11018871Y-14673714D02*
X11204586Y-14673714D01*
X11104586Y-14788000D01*
X11147443Y-14788000D01*
X11176014Y-14802286D01*
X11190300Y-14816571D01*
X11204586Y-14845143D01*
X11204586Y-14916571D01*
X11190300Y-14945143D01*
X11176014Y-14959429D01*
X11147443Y-14973714D01*
X11061728Y-14973714D01*
X11033157Y-14959429D01*
X11018871Y-14945143D01*
X11490300Y-14973714D02*
X11318871Y-14973714D01*
X11404586Y-14973714D02*
X11404586Y-14673714D01*
X11376014Y-14716571D01*
X11347443Y-14745143D01*
X11318871Y-14759429D01*
X11604586Y-14673714D02*
X11604586Y-14730857D01*
X11718871Y-14673714D02*
X11718871Y-14730857D01*
X12161728Y-15088000D02*
X12147443Y-15073714D01*
X12118871Y-15030857D01*
X12104586Y-15002286D01*
X12090300Y-14959429D01*
X12076014Y-14888000D01*
X12076014Y-14830857D01*
X12090300Y-14759429D01*
X12104586Y-14716571D01*
X12118871Y-14688000D01*
X12147443Y-14645143D01*
X12161728Y-14630857D01*
X12404586Y-14673714D02*
X12347443Y-14673714D01*
X12318871Y-14688000D01*
X12304586Y-14702286D01*
X12276014Y-14745143D01*
X12261728Y-14802286D01*
X12261728Y-14916571D01*
X12276014Y-14945143D01*
X12290300Y-14959429D01*
X12318871Y-14973714D01*
X12376014Y-14973714D01*
X12404586Y-14959429D01*
X12418871Y-14945143D01*
X12433157Y-14916571D01*
X12433157Y-14845143D01*
X12418871Y-14816571D01*
X12404586Y-14802286D01*
X12376014Y-14788000D01*
X12318871Y-14788000D01*
X12290300Y-14802286D01*
X12276014Y-14816571D01*
X12261728Y-14845143D01*
X12618871Y-14673714D02*
X12647443Y-14673714D01*
X12676014Y-14688000D01*
X12690300Y-14702286D01*
X12704586Y-14730857D01*
X12718871Y-14788000D01*
X12718871Y-14859429D01*
X12704586Y-14916571D01*
X12690300Y-14945143D01*
X12676014Y-14959429D01*
X12647443Y-14973714D01*
X12618871Y-14973714D01*
X12590300Y-14959429D01*
X12576014Y-14945143D01*
X12561728Y-14916571D01*
X12547443Y-14859429D01*
X12547443Y-14788000D01*
X12561728Y-14730857D01*
X12576014Y-14702286D01*
X12590300Y-14688000D01*
X12618871Y-14673714D01*
X13076014Y-14973714D02*
X13076014Y-14673714D01*
X13204586Y-14973714D02*
X13204586Y-14816571D01*
X13190300Y-14788000D01*
X13161728Y-14773714D01*
X13118871Y-14773714D01*
X13090300Y-14788000D01*
X13076014Y-14802286D01*
X13390300Y-14973714D02*
X13361728Y-14959429D01*
X13347443Y-14945143D01*
X13333157Y-14916571D01*
X13333157Y-14830857D01*
X13347443Y-14802286D01*
X13361728Y-14788000D01*
X13390300Y-14773714D01*
X13433157Y-14773714D01*
X13461728Y-14788000D01*
X13476014Y-14802286D01*
X13490300Y-14830857D01*
X13490300Y-14916571D01*
X13476014Y-14945143D01*
X13461728Y-14959429D01*
X13433157Y-14973714D01*
X13390300Y-14973714D01*
X13661728Y-14973714D02*
X13633157Y-14959429D01*
X13618871Y-14930857D01*
X13618871Y-14673714D01*
X13890300Y-14959429D02*
X13861728Y-14973714D01*
X13804586Y-14973714D01*
X13776014Y-14959429D01*
X13761728Y-14930857D01*
X13761728Y-14816571D01*
X13776014Y-14788000D01*
X13804586Y-14773714D01*
X13861728Y-14773714D01*
X13890300Y-14788000D01*
X13904586Y-14816571D01*
X13904586Y-14845143D01*
X13761728Y-14873714D01*
X14018871Y-14959429D02*
X14047443Y-14973714D01*
X14104586Y-14973714D01*
X14133157Y-14959429D01*
X14147443Y-14930857D01*
X14147443Y-14916571D01*
X14133157Y-14888000D01*
X14104586Y-14873714D01*
X14061728Y-14873714D01*
X14033157Y-14859429D01*
X14018871Y-14830857D01*
X14018871Y-14816571D01*
X14033157Y-14788000D01*
X14061728Y-14773714D01*
X14104586Y-14773714D01*
X14133157Y-14788000D01*
X14247443Y-15088000D02*
X14261728Y-15073714D01*
X14290300Y-15030857D01*
X14304586Y-15002286D01*
X14318871Y-14959429D01*
X14333157Y-14888000D01*
X14333157Y-14830857D01*
X14318871Y-14759429D01*
X14304586Y-14716571D01*
X14290300Y-14688000D01*
X14261728Y-14645143D01*
X14247443Y-14630857D01*
X7460644Y-15269383D02*
X7460644Y-15198618D01*
X7389879Y-15198618D01*
X7389879Y-15269383D01*
X7460644Y-15269383D01*
X7918871Y-15369714D02*
X7747443Y-15369714D01*
X7833157Y-15369714D02*
X7833157Y-15069714D01*
X7804586Y-15112571D01*
X7776014Y-15141143D01*
X7747443Y-15155429D01*
X8047443Y-15341143D02*
X8061728Y-15355429D01*
X8047443Y-15369714D01*
X8033157Y-15355429D01*
X8047443Y-15341143D01*
X8047443Y-15369714D01*
X8247443Y-15069714D02*
X8276014Y-15069714D01*
X8304586Y-15084000D01*
X8318871Y-15098286D01*
X8333157Y-15126857D01*
X8347443Y-15184000D01*
X8347443Y-15255429D01*
X8333157Y-15312571D01*
X8318871Y-15341143D01*
X8304586Y-15355429D01*
X8276014Y-15369714D01*
X8247443Y-15369714D01*
X8218871Y-15355429D01*
X8204586Y-15341143D01*
X8190300Y-15312571D01*
X8176014Y-15255429D01*
X8176014Y-15184000D01*
X8190300Y-15126857D01*
X8204586Y-15098286D01*
X8218871Y-15084000D01*
X8247443Y-15069714D01*
X8533157Y-15069714D02*
X8561728Y-15069714D01*
X8590300Y-15084000D01*
X8604586Y-15098286D01*
X8618871Y-15126857D01*
X8633157Y-15184000D01*
X8633157Y-15255429D01*
X8618871Y-15312571D01*
X8604586Y-15341143D01*
X8590300Y-15355429D01*
X8561728Y-15369714D01*
X8533157Y-15369714D01*
X8504586Y-15355429D01*
X8490300Y-15341143D01*
X8476014Y-15312571D01*
X8461728Y-15255429D01*
X8461728Y-15184000D01*
X8476014Y-15126857D01*
X8490300Y-15098286D01*
X8504586Y-15084000D01*
X8533157Y-15069714D01*
X8761728Y-15369714D02*
X8761728Y-15169714D01*
X8761728Y-15198286D02*
X8776014Y-15184000D01*
X8804586Y-15169714D01*
X8847443Y-15169714D01*
X8876014Y-15184000D01*
X8890300Y-15212571D01*
X8890300Y-15369714D01*
X8890300Y-15212571D02*
X8904586Y-15184000D01*
X8933157Y-15169714D01*
X8976014Y-15169714D01*
X9004586Y-15184000D01*
X9018871Y-15212571D01*
X9018871Y-15369714D01*
X9161728Y-15369714D02*
X9161728Y-15169714D01*
X9161728Y-15198286D02*
X9176014Y-15184000D01*
X9204586Y-15169714D01*
X9247443Y-15169714D01*
X9276014Y-15184000D01*
X9290300Y-15212571D01*
X9290300Y-15369714D01*
X9290300Y-15212571D02*
X9304586Y-15184000D01*
X9333157Y-15169714D01*
X9376014Y-15169714D01*
X9404586Y-15184000D01*
X9418871Y-15212571D01*
X9418871Y-15369714D01*
X10004586Y-15055429D02*
X9747443Y-15441143D01*
X10390300Y-15069714D02*
X10418871Y-15069714D01*
X10447443Y-15084000D01*
X10461728Y-15098286D01*
X10476014Y-15126857D01*
X10490300Y-15184000D01*
X10490300Y-15255429D01*
X10476014Y-15312571D01*
X10461728Y-15341143D01*
X10447443Y-15355429D01*
X10418871Y-15369714D01*
X10390300Y-15369714D01*
X10361728Y-15355429D01*
X10347443Y-15341143D01*
X10333157Y-15312571D01*
X10318871Y-15255429D01*
X10318871Y-15184000D01*
X10333157Y-15126857D01*
X10347443Y-15098286D01*
X10361728Y-15084000D01*
X10390300Y-15069714D01*
X10618871Y-15341143D02*
X10633157Y-15355429D01*
X10618871Y-15369714D01*
X10604586Y-15355429D01*
X10618871Y-15341143D01*
X10618871Y-15369714D01*
X10818871Y-15069714D02*
X10847443Y-15069714D01*
X10876014Y-15084000D01*
X10890300Y-15098286D01*
X10904586Y-15126857D01*
X10918871Y-15184000D01*
X10918871Y-15255429D01*
X10904586Y-15312571D01*
X10890300Y-15341143D01*
X10876014Y-15355429D01*
X10847443Y-15369714D01*
X10818871Y-15369714D01*
X10790300Y-15355429D01*
X10776014Y-15341143D01*
X10761728Y-15312571D01*
X10747443Y-15255429D01*
X10747443Y-15184000D01*
X10761728Y-15126857D01*
X10776014Y-15098286D01*
X10790300Y-15084000D01*
X10818871Y-15069714D01*
X11018871Y-15069714D02*
X11204586Y-15069714D01*
X11104586Y-15184000D01*
X11147443Y-15184000D01*
X11176014Y-15198286D01*
X11190300Y-15212571D01*
X11204586Y-15241143D01*
X11204586Y-15312571D01*
X11190300Y-15341143D01*
X11176014Y-15355429D01*
X11147443Y-15369714D01*
X11061728Y-15369714D01*
X11033157Y-15355429D01*
X11018871Y-15341143D01*
X11347443Y-15369714D02*
X11404586Y-15369714D01*
X11433157Y-15355429D01*
X11447443Y-15341143D01*
X11476014Y-15298286D01*
X11490300Y-15241143D01*
X11490300Y-15126857D01*
X11476014Y-15098286D01*
X11461728Y-15084000D01*
X11433157Y-15069714D01*
X11376014Y-15069714D01*
X11347443Y-15084000D01*
X11333157Y-15098286D01*
X11318871Y-15126857D01*
X11318871Y-15198286D01*
X11333157Y-15226857D01*
X11347443Y-15241143D01*
X11376014Y-15255429D01*
X11433157Y-15255429D01*
X11461728Y-15241143D01*
X11476014Y-15226857D01*
X11490300Y-15198286D01*
X11604586Y-15069714D02*
X11604586Y-15126857D01*
X11718871Y-15069714D02*
X11718871Y-15126857D01*
X12161728Y-15484000D02*
X12147443Y-15469714D01*
X12118871Y-15426857D01*
X12104586Y-15398286D01*
X12090300Y-15355429D01*
X12076014Y-15284000D01*
X12076014Y-15226857D01*
X12090300Y-15155429D01*
X12104586Y-15112571D01*
X12118871Y-15084000D01*
X12147443Y-15041143D01*
X12161728Y-15026857D01*
X12318871Y-15198286D02*
X12290300Y-15184000D01*
X12276014Y-15169714D01*
X12261728Y-15141143D01*
X12261728Y-15126857D01*
X12276014Y-15098286D01*
X12290300Y-15084000D01*
X12318871Y-15069714D01*
X12376014Y-15069714D01*
X12404586Y-15084000D01*
X12418871Y-15098286D01*
X12433157Y-15126857D01*
X12433157Y-15141143D01*
X12418871Y-15169714D01*
X12404586Y-15184000D01*
X12376014Y-15198286D01*
X12318871Y-15198286D01*
X12290300Y-15212571D01*
X12276014Y-15226857D01*
X12261728Y-15255429D01*
X12261728Y-15312571D01*
X12276014Y-15341143D01*
X12290300Y-15355429D01*
X12318871Y-15369714D01*
X12376014Y-15369714D01*
X12404586Y-15355429D01*
X12418871Y-15341143D01*
X12433157Y-15312571D01*
X12433157Y-15255429D01*
X12418871Y-15226857D01*
X12404586Y-15212571D01*
X12376014Y-15198286D01*
X12704586Y-15069714D02*
X12561728Y-15069714D01*
X12547443Y-15212571D01*
X12561728Y-15198286D01*
X12590300Y-15184000D01*
X12661728Y-15184000D01*
X12690300Y-15198286D01*
X12704586Y-15212571D01*
X12718871Y-15241143D01*
X12718871Y-15312571D01*
X12704586Y-15341143D01*
X12690300Y-15355429D01*
X12661728Y-15369714D01*
X12590300Y-15369714D01*
X12561728Y-15355429D01*
X12547443Y-15341143D01*
X13076014Y-15369714D02*
X13076014Y-15069714D01*
X13204586Y-15369714D02*
X13204586Y-15212571D01*
X13190300Y-15184000D01*
X13161728Y-15169714D01*
X13118871Y-15169714D01*
X13090300Y-15184000D01*
X13076014Y-15198286D01*
X13390300Y-15369714D02*
X13361728Y-15355429D01*
X13347443Y-15341143D01*
X13333157Y-15312571D01*
X13333157Y-15226857D01*
X13347443Y-15198286D01*
X13361728Y-15184000D01*
X13390300Y-15169714D01*
X13433157Y-15169714D01*
X13461728Y-15184000D01*
X13476014Y-15198286D01*
X13490300Y-15226857D01*
X13490300Y-15312571D01*
X13476014Y-15341143D01*
X13461728Y-15355429D01*
X13433157Y-15369714D01*
X13390300Y-15369714D01*
X13661728Y-15369714D02*
X13633157Y-15355429D01*
X13618871Y-15326857D01*
X13618871Y-15069714D01*
X13890300Y-15355429D02*
X13861728Y-15369714D01*
X13804586Y-15369714D01*
X13776014Y-15355429D01*
X13761728Y-15326857D01*
X13761728Y-15212571D01*
X13776014Y-15184000D01*
X13804586Y-15169714D01*
X13861728Y-15169714D01*
X13890300Y-15184000D01*
X13904586Y-15212571D01*
X13904586Y-15241143D01*
X13761728Y-15269714D01*
X14018871Y-15355429D02*
X14047443Y-15369714D01*
X14104586Y-15369714D01*
X14133157Y-15355429D01*
X14147443Y-15326857D01*
X14147443Y-15312571D01*
X14133157Y-15284000D01*
X14104586Y-15269714D01*
X14061728Y-15269714D01*
X14033157Y-15255429D01*
X14018871Y-15226857D01*
X14018871Y-15212571D01*
X14033157Y-15184000D01*
X14061728Y-15169714D01*
X14104586Y-15169714D01*
X14133157Y-15184000D01*
X14247443Y-15484000D02*
X14261728Y-15469714D01*
X14290300Y-15426857D01*
X14304586Y-15398286D01*
X14318871Y-15355429D01*
X14333157Y-15284000D01*
X14333157Y-15226857D01*
X14318871Y-15155429D01*
X14304586Y-15112571D01*
X14290300Y-15084000D01*
X14261728Y-15041143D01*
X14247443Y-15026857D01*
X7415356Y-15689944D02*
X7475300Y-15630000D01*
X7415356Y-15570056D01*
X7355412Y-15630000D01*
X7415356Y-15689944D01*
X7918871Y-15765714D02*
X7747443Y-15765714D01*
X7833157Y-15765714D02*
X7833157Y-15465714D01*
X7804586Y-15508571D01*
X7776014Y-15537143D01*
X7747443Y-15551429D01*
X8047443Y-15737143D02*
X8061728Y-15751429D01*
X8047443Y-15765714D01*
X8033157Y-15751429D01*
X8047443Y-15737143D01*
X8047443Y-15765714D01*
X8176014Y-15494286D02*
X8190300Y-15480000D01*
X8218871Y-15465714D01*
X8290300Y-15465714D01*
X8318871Y-15480000D01*
X8333157Y-15494286D01*
X8347443Y-15522857D01*
X8347443Y-15551429D01*
X8333157Y-15594286D01*
X8161728Y-15765714D01*
X8347443Y-15765714D01*
X8533157Y-15465714D02*
X8561728Y-15465714D01*
X8590300Y-15480000D01*
X8604586Y-15494286D01*
X8618871Y-15522857D01*
X8633157Y-15580000D01*
X8633157Y-15651429D01*
X8618871Y-15708571D01*
X8604586Y-15737143D01*
X8590300Y-15751429D01*
X8561728Y-15765714D01*
X8533157Y-15765714D01*
X8504586Y-15751429D01*
X8490300Y-15737143D01*
X8476014Y-15708571D01*
X8461728Y-15651429D01*
X8461728Y-15580000D01*
X8476014Y-15522857D01*
X8490300Y-15494286D01*
X8504586Y-15480000D01*
X8533157Y-15465714D01*
X8761728Y-15765714D02*
X8761728Y-15565714D01*
X8761728Y-15594286D02*
X8776014Y-15580000D01*
X8804586Y-15565714D01*
X8847443Y-15565714D01*
X8876014Y-15580000D01*
X8890300Y-15608571D01*
X8890300Y-15765714D01*
X8890300Y-15608571D02*
X8904586Y-15580000D01*
X8933157Y-15565714D01*
X8976014Y-15565714D01*
X9004586Y-15580000D01*
X9018871Y-15608571D01*
X9018871Y-15765714D01*
X9161728Y-15765714D02*
X9161728Y-15565714D01*
X9161728Y-15594286D02*
X9176014Y-15580000D01*
X9204586Y-15565714D01*
X9247443Y-15565714D01*
X9276014Y-15580000D01*
X9290300Y-15608571D01*
X9290300Y-15765714D01*
X9290300Y-15608571D02*
X9304586Y-15580000D01*
X9333157Y-15565714D01*
X9376014Y-15565714D01*
X9404586Y-15580000D01*
X9418871Y-15608571D01*
X9418871Y-15765714D01*
X10004586Y-15451429D02*
X9747443Y-15837143D01*
X10390300Y-15465714D02*
X10418871Y-15465714D01*
X10447443Y-15480000D01*
X10461728Y-15494286D01*
X10476014Y-15522857D01*
X10490300Y-15580000D01*
X10490300Y-15651429D01*
X10476014Y-15708571D01*
X10461728Y-15737143D01*
X10447443Y-15751429D01*
X10418871Y-15765714D01*
X10390300Y-15765714D01*
X10361728Y-15751429D01*
X10347443Y-15737143D01*
X10333157Y-15708571D01*
X10318871Y-15651429D01*
X10318871Y-15580000D01*
X10333157Y-15522857D01*
X10347443Y-15494286D01*
X10361728Y-15480000D01*
X10390300Y-15465714D01*
X10618871Y-15737143D02*
X10633157Y-15751429D01*
X10618871Y-15765714D01*
X10604586Y-15751429D01*
X10618871Y-15737143D01*
X10618871Y-15765714D01*
X10818871Y-15465714D02*
X10847443Y-15465714D01*
X10876014Y-15480000D01*
X10890300Y-15494286D01*
X10904586Y-15522857D01*
X10918871Y-15580000D01*
X10918871Y-15651429D01*
X10904586Y-15708571D01*
X10890300Y-15737143D01*
X10876014Y-15751429D01*
X10847443Y-15765714D01*
X10818871Y-15765714D01*
X10790300Y-15751429D01*
X10776014Y-15737143D01*
X10761728Y-15708571D01*
X10747443Y-15651429D01*
X10747443Y-15580000D01*
X10761728Y-15522857D01*
X10776014Y-15494286D01*
X10790300Y-15480000D01*
X10818871Y-15465714D01*
X11176014Y-15565714D02*
X11176014Y-15765714D01*
X11104586Y-15451429D02*
X11033157Y-15665714D01*
X11218871Y-15665714D01*
X11304586Y-15465714D02*
X11504586Y-15465714D01*
X11376014Y-15765714D01*
X11604586Y-15465714D02*
X11604586Y-15522857D01*
X11718871Y-15465714D02*
X11718871Y-15522857D01*
X12161728Y-15880000D02*
X12147443Y-15865714D01*
X12118871Y-15822857D01*
X12104586Y-15794286D01*
X12090300Y-15751429D01*
X12076014Y-15680000D01*
X12076014Y-15622857D01*
X12090300Y-15551429D01*
X12104586Y-15508571D01*
X12118871Y-15480000D01*
X12147443Y-15437143D01*
X12161728Y-15422857D01*
X12433157Y-15765714D02*
X12261728Y-15765714D01*
X12347443Y-15765714D02*
X12347443Y-15465714D01*
X12318871Y-15508571D01*
X12290300Y-15537143D01*
X12261728Y-15551429D01*
X12704586Y-15465714D02*
X12561728Y-15465714D01*
X12547443Y-15608571D01*
X12561728Y-15594286D01*
X12590300Y-15580000D01*
X12661728Y-15580000D01*
X12690300Y-15594286D01*
X12704586Y-15608571D01*
X12718871Y-15637143D01*
X12718871Y-15708571D01*
X12704586Y-15737143D01*
X12690300Y-15751429D01*
X12661728Y-15765714D01*
X12590300Y-15765714D01*
X12561728Y-15751429D01*
X12547443Y-15737143D01*
X13076014Y-15765714D02*
X13076014Y-15465714D01*
X13204586Y-15765714D02*
X13204586Y-15608571D01*
X13190300Y-15580000D01*
X13161728Y-15565714D01*
X13118871Y-15565714D01*
X13090300Y-15580000D01*
X13076014Y-15594286D01*
X13390300Y-15765714D02*
X13361728Y-15751429D01*
X13347443Y-15737143D01*
X13333157Y-15708571D01*
X13333157Y-15622857D01*
X13347443Y-15594286D01*
X13361728Y-15580000D01*
X13390300Y-15565714D01*
X13433157Y-15565714D01*
X13461728Y-15580000D01*
X13476014Y-15594286D01*
X13490300Y-15622857D01*
X13490300Y-15708571D01*
X13476014Y-15737143D01*
X13461728Y-15751429D01*
X13433157Y-15765714D01*
X13390300Y-15765714D01*
X13661728Y-15765714D02*
X13633157Y-15751429D01*
X13618871Y-15722857D01*
X13618871Y-15465714D01*
X13890300Y-15751429D02*
X13861728Y-15765714D01*
X13804586Y-15765714D01*
X13776014Y-15751429D01*
X13761728Y-15722857D01*
X13761728Y-15608571D01*
X13776014Y-15580000D01*
X13804586Y-15565714D01*
X13861728Y-15565714D01*
X13890300Y-15580000D01*
X13904586Y-15608571D01*
X13904586Y-15637143D01*
X13761728Y-15665714D01*
X14018871Y-15751429D02*
X14047443Y-15765714D01*
X14104586Y-15765714D01*
X14133157Y-15751429D01*
X14147443Y-15722857D01*
X14147443Y-15708571D01*
X14133157Y-15680000D01*
X14104586Y-15665714D01*
X14061728Y-15665714D01*
X14033157Y-15651429D01*
X14018871Y-15622857D01*
X14018871Y-15608571D01*
X14033157Y-15580000D01*
X14061728Y-15565714D01*
X14104586Y-15565714D01*
X14133157Y-15580000D01*
X14247443Y-15880000D02*
X14261728Y-15865714D01*
X14290300Y-15822857D01*
X14304586Y-15794286D01*
X14318871Y-15751429D01*
X14333157Y-15680000D01*
X14333157Y-15622857D01*
X14318871Y-15551429D01*
X14304586Y-15508571D01*
X14290300Y-15480000D01*
X14261728Y-15437143D01*
X14247443Y-15422857D01*
X7155412Y-15866056D02*
X7475300Y-16185944D01*
X7475300Y-15866056D02*
X7155412Y-16185944D01*
X7475300Y-16026000D02*
G75*
G03X7475300Y-16026000I-159944J0D01*
G01*
X7733157Y-15861714D02*
X7918871Y-15861714D01*
X7818871Y-15976000D01*
X7861728Y-15976000D01*
X7890300Y-15990286D01*
X7904586Y-16004571D01*
X7918871Y-16033143D01*
X7918871Y-16104571D01*
X7904586Y-16133143D01*
X7890300Y-16147429D01*
X7861728Y-16161714D01*
X7776014Y-16161714D01*
X7747443Y-16147429D01*
X7733157Y-16133143D01*
X8047443Y-16133143D02*
X8061728Y-16147429D01*
X8047443Y-16161714D01*
X8033157Y-16147429D01*
X8047443Y-16133143D01*
X8047443Y-16161714D01*
X8176014Y-15890286D02*
X8190300Y-15876000D01*
X8218871Y-15861714D01*
X8290300Y-15861714D01*
X8318871Y-15876000D01*
X8333157Y-15890286D01*
X8347443Y-15918857D01*
X8347443Y-15947429D01*
X8333157Y-15990286D01*
X8161728Y-16161714D01*
X8347443Y-16161714D01*
X8533157Y-15861714D02*
X8561728Y-15861714D01*
X8590300Y-15876000D01*
X8604586Y-15890286D01*
X8618871Y-15918857D01*
X8633157Y-15976000D01*
X8633157Y-16047429D01*
X8618871Y-16104571D01*
X8604586Y-16133143D01*
X8590300Y-16147429D01*
X8561728Y-16161714D01*
X8533157Y-16161714D01*
X8504586Y-16147429D01*
X8490300Y-16133143D01*
X8476014Y-16104571D01*
X8461728Y-16047429D01*
X8461728Y-15976000D01*
X8476014Y-15918857D01*
X8490300Y-15890286D01*
X8504586Y-15876000D01*
X8533157Y-15861714D01*
X8761728Y-16161714D02*
X8761728Y-15961714D01*
X8761728Y-15990286D02*
X8776014Y-15976000D01*
X8804586Y-15961714D01*
X8847443Y-15961714D01*
X8876014Y-15976000D01*
X8890300Y-16004571D01*
X8890300Y-16161714D01*
X8890300Y-16004571D02*
X8904586Y-15976000D01*
X8933157Y-15961714D01*
X8976014Y-15961714D01*
X9004586Y-15976000D01*
X9018871Y-16004571D01*
X9018871Y-16161714D01*
X9161728Y-16161714D02*
X9161728Y-15961714D01*
X9161728Y-15990286D02*
X9176014Y-15976000D01*
X9204586Y-15961714D01*
X9247443Y-15961714D01*
X9276014Y-15976000D01*
X9290300Y-16004571D01*
X9290300Y-16161714D01*
X9290300Y-16004571D02*
X9304586Y-15976000D01*
X9333157Y-15961714D01*
X9376014Y-15961714D01*
X9404586Y-15976000D01*
X9418871Y-16004571D01*
X9418871Y-16161714D01*
X10004586Y-15847429D02*
X9747443Y-16233143D01*
X10390300Y-15861714D02*
X10418871Y-15861714D01*
X10447443Y-15876000D01*
X10461728Y-15890286D01*
X10476014Y-15918857D01*
X10490300Y-15976000D01*
X10490300Y-16047429D01*
X10476014Y-16104571D01*
X10461728Y-16133143D01*
X10447443Y-16147429D01*
X10418871Y-16161714D01*
X10390300Y-16161714D01*
X10361728Y-16147429D01*
X10347443Y-16133143D01*
X10333157Y-16104571D01*
X10318871Y-16047429D01*
X10318871Y-15976000D01*
X10333157Y-15918857D01*
X10347443Y-15890286D01*
X10361728Y-15876000D01*
X10390300Y-15861714D01*
X10618871Y-16133143D02*
X10633157Y-16147429D01*
X10618871Y-16161714D01*
X10604586Y-16147429D01*
X10618871Y-16133143D01*
X10618871Y-16161714D01*
X10918871Y-16161714D02*
X10747443Y-16161714D01*
X10833157Y-16161714D02*
X10833157Y-15861714D01*
X10804586Y-15904571D01*
X10776014Y-15933143D01*
X10747443Y-15947429D01*
X11033157Y-15890286D02*
X11047443Y-15876000D01*
X11076014Y-15861714D01*
X11147443Y-15861714D01*
X11176014Y-15876000D01*
X11190300Y-15890286D01*
X11204586Y-15918857D01*
X11204586Y-15947429D01*
X11190300Y-15990286D01*
X11018871Y-16161714D01*
X11204586Y-16161714D01*
X11461728Y-15861714D02*
X11404586Y-15861714D01*
X11376014Y-15876000D01*
X11361728Y-15890286D01*
X11333157Y-15933143D01*
X11318871Y-15990286D01*
X11318871Y-16104571D01*
X11333157Y-16133143D01*
X11347443Y-16147429D01*
X11376014Y-16161714D01*
X11433157Y-16161714D01*
X11461728Y-16147429D01*
X11476014Y-16133143D01*
X11490300Y-16104571D01*
X11490300Y-16033143D01*
X11476014Y-16004571D01*
X11461728Y-15990286D01*
X11433157Y-15976000D01*
X11376014Y-15976000D01*
X11347443Y-15990286D01*
X11333157Y-16004571D01*
X11318871Y-16033143D01*
X11604586Y-15861714D02*
X11604586Y-15918857D01*
X11718871Y-15861714D02*
X11718871Y-15918857D01*
X12161728Y-16276000D02*
X12147443Y-16261714D01*
X12118871Y-16218857D01*
X12104586Y-16190286D01*
X12090300Y-16147429D01*
X12076014Y-16076000D01*
X12076014Y-16018857D01*
X12090300Y-15947429D01*
X12104586Y-15904571D01*
X12118871Y-15876000D01*
X12147443Y-15833143D01*
X12161728Y-15818857D01*
X12404586Y-15961714D02*
X12404586Y-16161714D01*
X12333157Y-15847429D02*
X12261728Y-16061714D01*
X12447443Y-16061714D01*
X12790300Y-16161714D02*
X12790300Y-15861714D01*
X12918871Y-16161714D02*
X12918871Y-16004571D01*
X12904586Y-15976000D01*
X12876014Y-15961714D01*
X12833157Y-15961714D01*
X12804586Y-15976000D01*
X12790300Y-15990286D01*
X13104586Y-16161714D02*
X13076014Y-16147429D01*
X13061728Y-16133143D01*
X13047443Y-16104571D01*
X13047443Y-16018857D01*
X13061728Y-15990286D01*
X13076014Y-15976000D01*
X13104586Y-15961714D01*
X13147443Y-15961714D01*
X13176014Y-15976000D01*
X13190300Y-15990286D01*
X13204586Y-16018857D01*
X13204586Y-16104571D01*
X13190300Y-16133143D01*
X13176014Y-16147429D01*
X13147443Y-16161714D01*
X13104586Y-16161714D01*
X13376014Y-16161714D02*
X13347443Y-16147429D01*
X13333157Y-16118857D01*
X13333157Y-15861714D01*
X13604586Y-16147429D02*
X13576014Y-16161714D01*
X13518871Y-16161714D01*
X13490300Y-16147429D01*
X13476014Y-16118857D01*
X13476014Y-16004571D01*
X13490300Y-15976000D01*
X13518871Y-15961714D01*
X13576014Y-15961714D01*
X13604586Y-15976000D01*
X13618871Y-16004571D01*
X13618871Y-16033143D01*
X13476014Y-16061714D01*
X13733157Y-16147429D02*
X13761728Y-16161714D01*
X13818871Y-16161714D01*
X13847443Y-16147429D01*
X13861728Y-16118857D01*
X13861728Y-16104571D01*
X13847443Y-16076000D01*
X13818871Y-16061714D01*
X13776014Y-16061714D01*
X13747443Y-16047429D01*
X13733157Y-16018857D01*
X13733157Y-16004571D01*
X13747443Y-15976000D01*
X13776014Y-15961714D01*
X13818871Y-15961714D01*
X13847443Y-15976000D01*
X13961728Y-16276000D02*
X13976014Y-16261714D01*
X14004586Y-16218857D01*
X14018871Y-16190286D01*
X14033157Y-16147429D01*
X14047443Y-16076000D01*
X14047443Y-16018857D01*
X14033157Y-15947429D01*
X14018871Y-15904571D01*
X14004586Y-15876000D01*
X13976014Y-15833143D01*
X13961728Y-15818857D01*
M02*
