%FSLAX45Y45*%
G04 Gerber Fmt 4.5, Leading zero omitted, Abs format (unit mm)*
G04 Created by KiCad (PCBNEW 4.0.5+dfsg1-4+deb9u1) date Tue Sep 27 17:28:28 2022*
%MOMM*%
%LPD*%
G01*
G04 APERTURE LIST*
%ADD10C,0.127000*%
%ADD11C,0.100000*%
%ADD12C,0.200000*%
%ADD13C,0.300000*%
G04 APERTURE END LIST*
D10*
D11*
X14528800Y-13081000D02*
X18770600Y-13081000D01*
X18669000Y-6781800D02*
X14020800Y-6781800D01*
X7480300Y-6781800D02*
X14033500Y-6781800D01*
X7480300Y-13081000D02*
X7480300Y-6781800D01*
X14541500Y-13081000D02*
X7480300Y-13081000D01*
X23533100Y-13081000D02*
X18757900Y-13081000D01*
X23533100Y-6781800D02*
X23533100Y-13081000D01*
X18656300Y-6781800D02*
X23533100Y-6781800D01*
D12*
X14661200Y-7244400D02*
X14701200Y-7284400D01*
X14701200Y-7244400D02*
X14661200Y-7284400D01*
X20019800Y-10394950D02*
G75*
G03X20019800Y-10394950I-30000J0D01*
G01*
X20026150Y-9410700D02*
G75*
G03X20026150Y-9410700I-30000J0D01*
G01*
X20146800Y-10394950D02*
G75*
G03X20146800Y-10394950I-30000J0D01*
G01*
X20153150Y-9410700D02*
G75*
G03X20153150Y-9410700I-30000J0D01*
G01*
X20273800Y-10394950D02*
G75*
G03X20273800Y-10394950I-30000J0D01*
G01*
X20280150Y-9410700D02*
G75*
G03X20280150Y-9410700I-30000J0D01*
G01*
X21073900Y-9410700D02*
G75*
G03X21073900Y-9410700I-30000J0D01*
G01*
X21073900Y-10394950D02*
G75*
G03X21073900Y-10394950I-30000J0D01*
G01*
X21200900Y-9410700D02*
G75*
G03X21200900Y-9410700I-30000J0D01*
G01*
X21200900Y-10394950D02*
G75*
G03X21200900Y-10394950I-30000J0D01*
G01*
X21327900Y-9410700D02*
G75*
G03X21327900Y-9410700I-30000J0D01*
G01*
X21327900Y-10394950D02*
G75*
G03X21327900Y-10394950I-30000J0D01*
G01*
X10807700Y-10551800D02*
X10807700Y-10631800D01*
X10767700Y-10591800D02*
X10847700Y-10591800D01*
X10807700Y-11948800D02*
X10807700Y-12028800D01*
X10767700Y-11988800D02*
X10847700Y-11988800D01*
X11157700Y-10551800D02*
X11157700Y-10631800D01*
X11117700Y-10591800D02*
X11197700Y-10591800D01*
X11157700Y-11948800D02*
X11157700Y-12028800D01*
X11117700Y-11988800D02*
X11197700Y-11988800D01*
X11760200Y-9256400D02*
X11760200Y-9336400D01*
X11720200Y-9296400D02*
X11800200Y-9296400D01*
X11760200Y-9756400D02*
X11760200Y-9836400D01*
X11720200Y-9796400D02*
X11800200Y-9796400D01*
X12522200Y-7351400D02*
X12522200Y-7431400D01*
X12482200Y-7391400D02*
X12562200Y-7391400D01*
X12522200Y-8113400D02*
X12522200Y-8193400D01*
X12482200Y-8153400D02*
X12562200Y-8153400D01*
X12522200Y-8684900D02*
X12522200Y-8764900D01*
X12482200Y-8724900D02*
X12562200Y-8724900D01*
X12522200Y-9446900D02*
X12522200Y-9526900D01*
X12482200Y-9486900D02*
X12562200Y-9486900D01*
X12776200Y-7351400D02*
X12776200Y-7431400D01*
X12736200Y-7391400D02*
X12816200Y-7391400D01*
X12776200Y-8113400D02*
X12776200Y-8193400D01*
X12736200Y-8153400D02*
X12816200Y-8153400D01*
X12776200Y-8684900D02*
X12776200Y-8764900D01*
X12736200Y-8724900D02*
X12816200Y-8724900D01*
X12776200Y-9446900D02*
X12776200Y-9526900D01*
X12736200Y-9486900D02*
X12816200Y-9486900D01*
X13030200Y-7351400D02*
X13030200Y-7431400D01*
X12990200Y-7391400D02*
X13070200Y-7391400D01*
X13030200Y-8113400D02*
X13030200Y-8193400D01*
X12990200Y-8153400D02*
X13070200Y-8153400D01*
X13030200Y-8684900D02*
X13030200Y-8764900D01*
X12990200Y-8724900D02*
X13070200Y-8724900D01*
X13030200Y-9446900D02*
X13030200Y-9526900D01*
X12990200Y-9486900D02*
X13070200Y-9486900D01*
X13220700Y-11288400D02*
X13220700Y-11368400D01*
X13180700Y-11328400D02*
X13260700Y-11328400D01*
X13220700Y-12050400D02*
X13220700Y-12130400D01*
X13180700Y-12090400D02*
X13260700Y-12090400D01*
X13538200Y-11288400D02*
X13538200Y-11368400D01*
X13498200Y-11328400D02*
X13578200Y-11328400D01*
X13538200Y-12050400D02*
X13538200Y-12130400D01*
X13498200Y-12090400D02*
X13578200Y-12090400D01*
X13728700Y-7351400D02*
X13728700Y-7431400D01*
X13688700Y-7391400D02*
X13768700Y-7391400D01*
X13728700Y-8113400D02*
X13728700Y-8193400D01*
X13688700Y-8153400D02*
X13768700Y-8153400D01*
X13728700Y-8684900D02*
X13728700Y-8764900D01*
X13688700Y-8724900D02*
X13768700Y-8724900D01*
X13728700Y-9446900D02*
X13728700Y-9526900D01*
X13688700Y-9486900D02*
X13768700Y-9486900D01*
X13919200Y-11288400D02*
X13919200Y-11368400D01*
X13879200Y-11328400D02*
X13959200Y-11328400D01*
X13919200Y-12050400D02*
X13919200Y-12130400D01*
X13879200Y-12090400D02*
X13959200Y-12090400D01*
X13982700Y-7351400D02*
X13982700Y-7431400D01*
X13942700Y-7391400D02*
X14022700Y-7391400D01*
X13982700Y-8113400D02*
X13982700Y-8193400D01*
X13942700Y-8153400D02*
X14022700Y-8153400D01*
X13982700Y-8684900D02*
X13982700Y-8764900D01*
X13942700Y-8724900D02*
X14022700Y-8724900D01*
X13982700Y-9446900D02*
X13982700Y-9526900D01*
X13942700Y-9486900D02*
X14022700Y-9486900D01*
X14236700Y-7351400D02*
X14236700Y-7431400D01*
X14196700Y-7391400D02*
X14276700Y-7391400D01*
X14236700Y-8113400D02*
X14236700Y-8193400D01*
X14196700Y-8153400D02*
X14276700Y-8153400D01*
X14236700Y-8684900D02*
X14236700Y-8764900D01*
X14196700Y-8724900D02*
X14276700Y-8724900D01*
X14236700Y-9446900D02*
X14236700Y-9526900D01*
X14196700Y-9486900D02*
X14276700Y-9486900D01*
X14236700Y-11288400D02*
X14236700Y-11368400D01*
X14196700Y-11328400D02*
X14276700Y-11328400D01*
X14236700Y-12050400D02*
X14236700Y-12130400D01*
X14196700Y-12090400D02*
X14276700Y-12090400D01*
X16205200Y-8240400D02*
X16205200Y-8320400D01*
X16165200Y-8280400D02*
X16245200Y-8280400D01*
X16205200Y-9002400D02*
X16205200Y-9082400D01*
X16165200Y-9042400D02*
X16245200Y-9042400D01*
X16205200Y-9319900D02*
X16205200Y-9399900D01*
X16165200Y-9359900D02*
X16245200Y-9359900D01*
X16205200Y-10081900D02*
X16205200Y-10161900D01*
X16165200Y-10121900D02*
X16245200Y-10121900D01*
X16522700Y-8240400D02*
X16522700Y-8320400D01*
X16482700Y-8280400D02*
X16562700Y-8280400D01*
X16522700Y-9002400D02*
X16522700Y-9082400D01*
X16482700Y-9042400D02*
X16562700Y-9042400D01*
X16903700Y-8240400D02*
X16903700Y-8320400D01*
X16863700Y-8280400D02*
X16943700Y-8280400D01*
X16903700Y-9002400D02*
X16903700Y-9082400D01*
X16863700Y-9042400D02*
X16943700Y-9042400D01*
X17221200Y-8240400D02*
X17221200Y-8320400D01*
X17181200Y-8280400D02*
X17261200Y-8280400D01*
X17221200Y-9002400D02*
X17221200Y-9082400D01*
X17181200Y-9042400D02*
X17261200Y-9042400D01*
X18364200Y-11859900D02*
X18364200Y-11939900D01*
X18324200Y-11899900D02*
X18404200Y-11899900D01*
X18491200Y-9764400D02*
X18491200Y-9844400D01*
X18451200Y-9804400D02*
X18531200Y-9804400D01*
X18491200Y-10526400D02*
X18491200Y-10606400D01*
X18451200Y-10566400D02*
X18531200Y-10566400D01*
X18491200Y-10780400D02*
X18491200Y-10860400D01*
X18451200Y-10820400D02*
X18531200Y-10820400D01*
X18491200Y-11034400D02*
X18491200Y-11114400D01*
X18451200Y-11074400D02*
X18531200Y-11074400D01*
X18491200Y-11288400D02*
X18491200Y-11368400D01*
X18451200Y-11328400D02*
X18531200Y-11328400D01*
X18864200Y-11859900D02*
X18864200Y-11939900D01*
X18824200Y-11899900D02*
X18904200Y-11899900D01*
X19253200Y-9764400D02*
X19253200Y-9844400D01*
X19213200Y-9804400D02*
X19293200Y-9804400D01*
X19253200Y-10526400D02*
X19253200Y-10606400D01*
X19213200Y-10566400D02*
X19293200Y-10566400D01*
X19253200Y-10780400D02*
X19253200Y-10860400D01*
X19213200Y-10820400D02*
X19293200Y-10820400D01*
X19253200Y-11034400D02*
X19253200Y-11114400D01*
X19213200Y-11074400D02*
X19293200Y-11074400D01*
X19253200Y-11288400D02*
X19253200Y-11368400D01*
X19213200Y-11328400D02*
X19293200Y-11328400D01*
X8023682Y-8645983D02*
X8023682Y-8575218D01*
X7952917Y-8575218D01*
X7952917Y-8645983D01*
X8023682Y-8645983D01*
X8023682Y-8899983D02*
X8023682Y-8829218D01*
X7952917Y-8829218D01*
X7952917Y-8899983D01*
X8023682Y-8899983D01*
X8023682Y-10982783D02*
X8023682Y-10912018D01*
X7952917Y-10912018D01*
X7952917Y-10982783D01*
X8023682Y-10982783D01*
X8023682Y-11236782D02*
X8023682Y-11166018D01*
X7952917Y-11166018D01*
X7952917Y-11236782D01*
X8023682Y-11236782D01*
X8531683Y-8036636D02*
X8531683Y-7965871D01*
X8460918Y-7965871D01*
X8460918Y-8036636D01*
X8531683Y-8036636D01*
X8531683Y-8544129D02*
X8531683Y-8473364D01*
X8460918Y-8473364D01*
X8460918Y-8544129D01*
X8531683Y-8544129D01*
X8531683Y-9052637D02*
X8531683Y-8981872D01*
X8460918Y-8981872D01*
X8460918Y-9052637D01*
X8531683Y-9052637D01*
X8531683Y-9560129D02*
X8531683Y-9489364D01*
X8460918Y-9489364D01*
X8460918Y-9560129D01*
X8531683Y-9560129D01*
X8531683Y-10322637D02*
X8531683Y-10251872D01*
X8460918Y-10251872D01*
X8460918Y-10322637D01*
X8531683Y-10322637D01*
X8531683Y-10830129D02*
X8531683Y-10759364D01*
X8460918Y-10759364D01*
X8460918Y-10830129D01*
X8531683Y-10830129D01*
X8531683Y-11338636D02*
X8531683Y-11267871D01*
X8460918Y-11267871D01*
X8460918Y-11338636D01*
X8531683Y-11338636D01*
X8531683Y-11846128D02*
X8531683Y-11775363D01*
X8460918Y-11775363D01*
X8460918Y-11846128D01*
X8531683Y-11846128D01*
X9547683Y-8036636D02*
X9547683Y-7965871D01*
X9476918Y-7965871D01*
X9476918Y-8036636D01*
X9547683Y-8036636D01*
X9547683Y-8544129D02*
X9547683Y-8473364D01*
X9476918Y-8473364D01*
X9476918Y-8544129D01*
X9547683Y-8544129D01*
X9547683Y-9052637D02*
X9547683Y-8981872D01*
X9476918Y-8981872D01*
X9476918Y-9052637D01*
X9547683Y-9052637D01*
X9547683Y-9560129D02*
X9547683Y-9489364D01*
X9476918Y-9489364D01*
X9476918Y-9560129D01*
X9547683Y-9560129D01*
X9547683Y-10322637D02*
X9547683Y-10251872D01*
X9476918Y-10251872D01*
X9476918Y-10322637D01*
X9547683Y-10322637D01*
X9547683Y-10830129D02*
X9547683Y-10759364D01*
X9476918Y-10759364D01*
X9476918Y-10830129D01*
X9547683Y-10830129D01*
X9547683Y-11338636D02*
X9547683Y-11267871D01*
X9476918Y-11267871D01*
X9476918Y-11338636D01*
X9547683Y-11338636D01*
X9547683Y-11846128D02*
X9547683Y-11775363D01*
X9476918Y-11775363D01*
X9476918Y-11846128D01*
X9547683Y-11846128D01*
X9547683Y-12608382D02*
X9547683Y-12537617D01*
X9476918Y-12537617D01*
X9476918Y-12608382D01*
X9547683Y-12608382D01*
X9801683Y-12608382D02*
X9801683Y-12537617D01*
X9730918Y-12537617D01*
X9730918Y-12608382D01*
X9801683Y-12608382D01*
X12303328Y-11363782D02*
X12303328Y-11293017D01*
X12232563Y-11293017D01*
X12232563Y-11363782D01*
X12303328Y-11363782D01*
X12303328Y-12379782D02*
X12303328Y-12309017D01*
X12232563Y-12309017D01*
X12232563Y-12379782D01*
X12303328Y-12379782D01*
X12303836Y-9966783D02*
X12303836Y-9896018D01*
X12233071Y-9896018D01*
X12233071Y-9966783D01*
X12303836Y-9966783D01*
X12303836Y-10982783D02*
X12303836Y-10912018D01*
X12233071Y-10912018D01*
X12233071Y-10982783D01*
X12303836Y-10982783D01*
X12811328Y-11363782D02*
X12811328Y-11293017D01*
X12740563Y-11293017D01*
X12740563Y-11363782D01*
X12811328Y-11363782D01*
X12811328Y-12379782D02*
X12811328Y-12309017D01*
X12740563Y-12309017D01*
X12740563Y-12379782D01*
X12811328Y-12379782D01*
X12811836Y-9966783D02*
X12811836Y-9896018D01*
X12741071Y-9896018D01*
X12741071Y-9966783D01*
X12811836Y-9966783D01*
X12811836Y-10982783D02*
X12811836Y-10912018D01*
X12741071Y-10912018D01*
X12741071Y-10982783D01*
X12811836Y-10982783D01*
X13256082Y-12633782D02*
X13256082Y-12563017D01*
X13185317Y-12563017D01*
X13185317Y-12633782D01*
X13256082Y-12633782D01*
X13510082Y-12633782D02*
X13510082Y-12563017D01*
X13439317Y-12563017D01*
X13439317Y-12633782D01*
X13510082Y-12633782D01*
X13764082Y-12633782D02*
X13764082Y-12563017D01*
X13693317Y-12563017D01*
X13693317Y-12633782D01*
X13764082Y-12633782D01*
X14018082Y-12633782D02*
X14018082Y-12563017D01*
X13947317Y-12563017D01*
X13947317Y-12633782D01*
X14018082Y-12633782D01*
X14272082Y-12633782D02*
X14272082Y-12563017D01*
X14201317Y-12563017D01*
X14201317Y-12633782D01*
X14272082Y-12633782D01*
X15732582Y-8061782D02*
X15732582Y-7991017D01*
X15661817Y-7991017D01*
X15661817Y-8061782D01*
X15732582Y-8061782D01*
X15732582Y-8315782D02*
X15732582Y-8245017D01*
X15661817Y-8245017D01*
X15661817Y-8315782D01*
X15732582Y-8315782D01*
X15732582Y-8569783D02*
X15732582Y-8499018D01*
X15661817Y-8499018D01*
X15661817Y-8569783D01*
X15732582Y-8569783D01*
X15732582Y-8823783D02*
X15732582Y-8753018D01*
X15661817Y-8753018D01*
X15661817Y-8823783D01*
X15732582Y-8823783D01*
X15732582Y-9077783D02*
X15732582Y-9007018D01*
X15661817Y-9007018D01*
X15661817Y-9077783D01*
X15732582Y-9077783D01*
X15732582Y-9331783D02*
X15732582Y-9261018D01*
X15661817Y-9261018D01*
X15661817Y-9331783D01*
X15732582Y-9331783D01*
X15732582Y-9585783D02*
X15732582Y-9515018D01*
X15661817Y-9515018D01*
X15661817Y-9585783D01*
X15732582Y-9585783D01*
X15732582Y-9839783D02*
X15732582Y-9769018D01*
X15661817Y-9769018D01*
X15661817Y-9839783D01*
X15732582Y-9839783D01*
X15732582Y-10093783D02*
X15732582Y-10023018D01*
X15661817Y-10023018D01*
X15661817Y-10093783D01*
X15732582Y-10093783D01*
X15732582Y-10347783D02*
X15732582Y-10277018D01*
X15661817Y-10277018D01*
X15661817Y-10347783D01*
X15732582Y-10347783D01*
X15732582Y-10601783D02*
X15732582Y-10531018D01*
X15661817Y-10531018D01*
X15661817Y-10601783D01*
X15732582Y-10601783D01*
X15732582Y-10855783D02*
X15732582Y-10785018D01*
X15661817Y-10785018D01*
X15661817Y-10855783D01*
X15732582Y-10855783D01*
X15732582Y-11109783D02*
X15732582Y-11039018D01*
X15661817Y-11039018D01*
X15661817Y-11109783D01*
X15732582Y-11109783D01*
X15732582Y-11363782D02*
X15732582Y-11293017D01*
X15661817Y-11293017D01*
X15661817Y-11363782D01*
X15732582Y-11363782D01*
X15732582Y-11617782D02*
X15732582Y-11547017D01*
X15661817Y-11547017D01*
X15661817Y-11617782D01*
X15732582Y-11617782D01*
X15732582Y-11871782D02*
X15732582Y-11801017D01*
X15661817Y-11801017D01*
X15661817Y-11871782D01*
X15732582Y-11871782D01*
X16494582Y-12633782D02*
X16494582Y-12563017D01*
X16423817Y-12563017D01*
X16423817Y-12633782D01*
X16494582Y-12633782D01*
X16621582Y-7299782D02*
X16621582Y-7229017D01*
X16550817Y-7229017D01*
X16550817Y-7299782D01*
X16621582Y-7299782D01*
X16748582Y-12633782D02*
X16748582Y-12563017D01*
X16677817Y-12563017D01*
X16677817Y-12633782D01*
X16748582Y-12633782D01*
X16875583Y-7299782D02*
X16875583Y-7229017D01*
X16804818Y-7229017D01*
X16804818Y-7299782D01*
X16875583Y-7299782D01*
X17002583Y-12633782D02*
X17002583Y-12563017D01*
X16931818Y-12563017D01*
X16931818Y-12633782D01*
X17002583Y-12633782D01*
X17764583Y-9077783D02*
X17764583Y-9007018D01*
X17693818Y-9007018D01*
X17693818Y-9077783D01*
X17764583Y-9077783D01*
X17764583Y-9331783D02*
X17764583Y-9261018D01*
X17693818Y-9261018D01*
X17693818Y-9331783D01*
X17764583Y-9331783D01*
X17764583Y-9585783D02*
X17764583Y-9515018D01*
X17693818Y-9515018D01*
X17693818Y-9585783D01*
X17764583Y-9585783D01*
X17764583Y-9839783D02*
X17764583Y-9769018D01*
X17693818Y-9769018D01*
X17693818Y-9839783D01*
X17764583Y-9839783D01*
X17764583Y-10093783D02*
X17764583Y-10023018D01*
X17693818Y-10023018D01*
X17693818Y-10093783D01*
X17764583Y-10093783D01*
X17764583Y-10347783D02*
X17764583Y-10277018D01*
X17693818Y-10277018D01*
X17693818Y-10347783D01*
X17764583Y-10347783D01*
X17764583Y-10601783D02*
X17764583Y-10531018D01*
X17693818Y-10531018D01*
X17693818Y-10601783D01*
X17764583Y-10601783D01*
X17764583Y-10855783D02*
X17764583Y-10785018D01*
X17693818Y-10785018D01*
X17693818Y-10855783D01*
X17764583Y-10855783D01*
X17764583Y-11109783D02*
X17764583Y-11039018D01*
X17693818Y-11039018D01*
X17693818Y-11109783D01*
X17764583Y-11109783D01*
X17764583Y-11363782D02*
X17764583Y-11293017D01*
X17693818Y-11293017D01*
X17693818Y-11363782D01*
X17764583Y-11363782D01*
X17764583Y-11617782D02*
X17764583Y-11547017D01*
X17693818Y-11547017D01*
X17693818Y-11617782D01*
X17764583Y-11617782D01*
X17764583Y-11871782D02*
X17764583Y-11801017D01*
X17693818Y-11801017D01*
X17693818Y-11871782D01*
X17764583Y-11871782D01*
X18386883Y-12633782D02*
X18386883Y-12563017D01*
X18316118Y-12563017D01*
X18316118Y-12633782D01*
X18386883Y-12633782D01*
X18640883Y-12633782D02*
X18640883Y-12563017D01*
X18570118Y-12563017D01*
X18570118Y-12633782D01*
X18640883Y-12633782D01*
X19098083Y-12633782D02*
X19098083Y-12563017D01*
X19027318Y-12563017D01*
X19027318Y-12633782D01*
X19098083Y-12633782D01*
X19352083Y-12633782D02*
X19352083Y-12563017D01*
X19281318Y-12563017D01*
X19281318Y-12633782D01*
X19352083Y-12633782D01*
X22031529Y-10208083D02*
X22031529Y-10137318D01*
X21960764Y-10137318D01*
X21960764Y-10208083D01*
X22031529Y-10208083D01*
X22031529Y-11224082D02*
X22031529Y-11153318D01*
X21960764Y-11153318D01*
X21960764Y-11224082D01*
X22031529Y-11224082D01*
X22032037Y-8684083D02*
X22032037Y-8613318D01*
X21961272Y-8613318D01*
X21961272Y-8684083D01*
X22032037Y-8684083D01*
X22032037Y-9700083D02*
X22032037Y-9629318D01*
X21961272Y-9629318D01*
X21961272Y-9700083D01*
X22032037Y-9700083D01*
X22413036Y-8938083D02*
X22413036Y-8867318D01*
X22342272Y-8867318D01*
X22342272Y-8938083D01*
X22413036Y-8938083D01*
X22413036Y-9954083D02*
X22413036Y-9883318D01*
X22342272Y-9883318D01*
X22342272Y-9954083D01*
X22413036Y-9954083D01*
X22476028Y-10462083D02*
X22476028Y-10391318D01*
X22405263Y-10391318D01*
X22405263Y-10462083D01*
X22476028Y-10462083D01*
X22476028Y-11478082D02*
X22476028Y-11407317D01*
X22405263Y-11407317D01*
X22405263Y-11478082D01*
X22476028Y-11478082D01*
X23111282Y-9446083D02*
X23111282Y-9375318D01*
X23040517Y-9375318D01*
X23040517Y-9446083D01*
X23111282Y-9446083D01*
X23111282Y-9700083D02*
X23111282Y-9629318D01*
X23040517Y-9629318D01*
X23040517Y-9700083D01*
X23111282Y-9700083D01*
X23111282Y-9954083D02*
X23111282Y-9883318D01*
X23040517Y-9883318D01*
X23040517Y-9954083D01*
X23111282Y-9954083D01*
X23111282Y-10208083D02*
X23111282Y-10137318D01*
X23040517Y-10137318D01*
X23040517Y-10208083D01*
X23111282Y-10208083D01*
X23111282Y-10462083D02*
X23111282Y-10391318D01*
X23040517Y-10391318D01*
X23040517Y-10462083D01*
X23111282Y-10462083D01*
X10706100Y-9381744D02*
X10766044Y-9321800D01*
X10706100Y-9261856D01*
X10646156Y-9321800D01*
X10706100Y-9381744D01*
X10960100Y-9381744D02*
X11020044Y-9321800D01*
X10960100Y-9261856D01*
X10900156Y-9321800D01*
X10960100Y-9381744D01*
X11214100Y-9381744D02*
X11274044Y-9321800D01*
X11214100Y-9261856D01*
X11154156Y-9321800D01*
X11214100Y-9381744D01*
X19887692Y-10931144D02*
X19947636Y-10871200D01*
X19887692Y-10811256D01*
X19827748Y-10871200D01*
X19887692Y-10931144D01*
X19894042Y-8994394D02*
X19953986Y-8934450D01*
X19894042Y-8874506D01*
X19834098Y-8934450D01*
X19894042Y-8994394D01*
X20116800Y-10931144D02*
X20176744Y-10871200D01*
X20116800Y-10811256D01*
X20056856Y-10871200D01*
X20116800Y-10931144D01*
X20123150Y-8994394D02*
X20183094Y-8934450D01*
X20123150Y-8874506D01*
X20063206Y-8934450D01*
X20123150Y-8994394D01*
X20345908Y-10931144D02*
X20405852Y-10871200D01*
X20345908Y-10811256D01*
X20285964Y-10871200D01*
X20345908Y-10931144D01*
X20352258Y-8994394D02*
X20412202Y-8934450D01*
X20352258Y-8874506D01*
X20292314Y-8934450D01*
X20352258Y-8994394D01*
X20941792Y-10931144D02*
X21001736Y-10871200D01*
X20941792Y-10811256D01*
X20881848Y-10871200D01*
X20941792Y-10931144D01*
X20954492Y-9000744D02*
X21014436Y-8940800D01*
X20954492Y-8880856D01*
X20894548Y-8940800D01*
X20954492Y-9000744D01*
X21170900Y-10931144D02*
X21230844Y-10871200D01*
X21170900Y-10811256D01*
X21110956Y-10871200D01*
X21170900Y-10931144D01*
X21183600Y-9000744D02*
X21243544Y-8940800D01*
X21183600Y-8880856D01*
X21123656Y-8940800D01*
X21183600Y-9000744D01*
X21400008Y-10931144D02*
X21459952Y-10871200D01*
X21400008Y-10811256D01*
X21340064Y-10871200D01*
X21400008Y-10931144D01*
X21412708Y-9000744D02*
X21472652Y-8940800D01*
X21412708Y-8880856D01*
X21352764Y-8940800D01*
X21412708Y-9000744D01*
X7828356Y-7129856D02*
X8148244Y-7449744D01*
X8148244Y-7129856D02*
X7828356Y-7449744D01*
X8148244Y-7289800D02*
G75*
G03X8148244Y-7289800I-159944J0D01*
G01*
X7828356Y-12413056D02*
X8148244Y-12732944D01*
X8148244Y-12413056D02*
X7828356Y-12732944D01*
X8148244Y-12573000D02*
G75*
G03X8148244Y-12573000I-159944J0D01*
G01*
X22865156Y-7129856D02*
X23185044Y-7449744D01*
X23185044Y-7129856D02*
X22865156Y-7449744D01*
X23185044Y-7289800D02*
G75*
G03X23185044Y-7289800I-159944J0D01*
G01*
X22865156Y-12413056D02*
X23185044Y-12732944D01*
X23185044Y-12413056D02*
X22865156Y-12732944D01*
X23185044Y-12573000D02*
G75*
G03X23185044Y-12573000I-159944J0D01*
G01*
D13*
X7746728Y-13551714D02*
X7746728Y-13251714D01*
X7818157Y-13251714D01*
X7861014Y-13266000D01*
X7889586Y-13294571D01*
X7903871Y-13323143D01*
X7918157Y-13380286D01*
X7918157Y-13423143D01*
X7903871Y-13480286D01*
X7889586Y-13508857D01*
X7861014Y-13537429D01*
X7818157Y-13551714D01*
X7746728Y-13551714D01*
X8046728Y-13551714D02*
X8046728Y-13351714D01*
X8046728Y-13408857D02*
X8061014Y-13380286D01*
X8075300Y-13366000D01*
X8103871Y-13351714D01*
X8132443Y-13351714D01*
X8232443Y-13551714D02*
X8232443Y-13351714D01*
X8232443Y-13251714D02*
X8218157Y-13266000D01*
X8232443Y-13280286D01*
X8246728Y-13266000D01*
X8232443Y-13251714D01*
X8232443Y-13280286D01*
X8418157Y-13551714D02*
X8389586Y-13537429D01*
X8375300Y-13508857D01*
X8375300Y-13251714D01*
X8575300Y-13551714D02*
X8546729Y-13537429D01*
X8532443Y-13508857D01*
X8532443Y-13251714D01*
X8918157Y-13551714D02*
X8918157Y-13251714D01*
X9018157Y-13466000D01*
X9118157Y-13251714D01*
X9118157Y-13551714D01*
X9389586Y-13551714D02*
X9389586Y-13394571D01*
X9375300Y-13366000D01*
X9346729Y-13351714D01*
X9289586Y-13351714D01*
X9261014Y-13366000D01*
X9389586Y-13537429D02*
X9361014Y-13551714D01*
X9289586Y-13551714D01*
X9261014Y-13537429D01*
X9246729Y-13508857D01*
X9246729Y-13480286D01*
X9261014Y-13451714D01*
X9289586Y-13437429D01*
X9361014Y-13437429D01*
X9389586Y-13423143D01*
X9532443Y-13351714D02*
X9532443Y-13651714D01*
X9532443Y-13366000D02*
X9561014Y-13351714D01*
X9618157Y-13351714D01*
X9646729Y-13366000D01*
X9661014Y-13380286D01*
X9675300Y-13408857D01*
X9675300Y-13494571D01*
X9661014Y-13523143D01*
X9646729Y-13537429D01*
X9618157Y-13551714D01*
X9561014Y-13551714D01*
X9532443Y-13537429D01*
X9803871Y-13523143D02*
X9818157Y-13537429D01*
X9803871Y-13551714D01*
X9789586Y-13537429D01*
X9803871Y-13523143D01*
X9803871Y-13551714D01*
X9803871Y-13366000D02*
X9818157Y-13380286D01*
X9803871Y-13394571D01*
X9789586Y-13380286D01*
X9803871Y-13366000D01*
X9803871Y-13394571D01*
X7435300Y-14026000D02*
X7475300Y-14066000D01*
X7475300Y-14026000D02*
X7435300Y-14066000D01*
X7803871Y-13881714D02*
X7832443Y-13881714D01*
X7861014Y-13896000D01*
X7875300Y-13910286D01*
X7889586Y-13938857D01*
X7903871Y-13996000D01*
X7903871Y-14067429D01*
X7889586Y-14124571D01*
X7875300Y-14153143D01*
X7861014Y-14167429D01*
X7832443Y-14181714D01*
X7803871Y-14181714D01*
X7775300Y-14167429D01*
X7761014Y-14153143D01*
X7746728Y-14124571D01*
X7732443Y-14067429D01*
X7732443Y-13996000D01*
X7746728Y-13938857D01*
X7761014Y-13910286D01*
X7775300Y-13896000D01*
X7803871Y-13881714D01*
X8032443Y-14153143D02*
X8046728Y-14167429D01*
X8032443Y-14181714D01*
X8018157Y-14167429D01*
X8032443Y-14153143D01*
X8032443Y-14181714D01*
X8303871Y-13981714D02*
X8303871Y-14181714D01*
X8232443Y-13867429D02*
X8161014Y-14081714D01*
X8346728Y-14081714D01*
X8518157Y-13881714D02*
X8546729Y-13881714D01*
X8575300Y-13896000D01*
X8589586Y-13910286D01*
X8603871Y-13938857D01*
X8618157Y-13996000D01*
X8618157Y-14067429D01*
X8603871Y-14124571D01*
X8589586Y-14153143D01*
X8575300Y-14167429D01*
X8546729Y-14181714D01*
X8518157Y-14181714D01*
X8489586Y-14167429D01*
X8475300Y-14153143D01*
X8461014Y-14124571D01*
X8446729Y-14067429D01*
X8446729Y-13996000D01*
X8461014Y-13938857D01*
X8475300Y-13910286D01*
X8489586Y-13896000D01*
X8518157Y-13881714D01*
X8746729Y-14181714D02*
X8746729Y-13981714D01*
X8746729Y-14010286D02*
X8761014Y-13996000D01*
X8789586Y-13981714D01*
X8832443Y-13981714D01*
X8861014Y-13996000D01*
X8875300Y-14024571D01*
X8875300Y-14181714D01*
X8875300Y-14024571D02*
X8889586Y-13996000D01*
X8918157Y-13981714D01*
X8961014Y-13981714D01*
X8989586Y-13996000D01*
X9003871Y-14024571D01*
X9003871Y-14181714D01*
X9146729Y-14181714D02*
X9146729Y-13981714D01*
X9146729Y-14010286D02*
X9161014Y-13996000D01*
X9189586Y-13981714D01*
X9232443Y-13981714D01*
X9261014Y-13996000D01*
X9275300Y-14024571D01*
X9275300Y-14181714D01*
X9275300Y-14024571D02*
X9289586Y-13996000D01*
X9318157Y-13981714D01*
X9361014Y-13981714D01*
X9389586Y-13996000D01*
X9403871Y-14024571D01*
X9403871Y-14181714D01*
X9989586Y-13867429D02*
X9732443Y-14253143D01*
X10375300Y-13881714D02*
X10403871Y-13881714D01*
X10432443Y-13896000D01*
X10446728Y-13910286D01*
X10461014Y-13938857D01*
X10475300Y-13996000D01*
X10475300Y-14067429D01*
X10461014Y-14124571D01*
X10446728Y-14153143D01*
X10432443Y-14167429D01*
X10403871Y-14181714D01*
X10375300Y-14181714D01*
X10346728Y-14167429D01*
X10332443Y-14153143D01*
X10318157Y-14124571D01*
X10303871Y-14067429D01*
X10303871Y-13996000D01*
X10318157Y-13938857D01*
X10332443Y-13910286D01*
X10346728Y-13896000D01*
X10375300Y-13881714D01*
X10603871Y-14153143D02*
X10618157Y-14167429D01*
X10603871Y-14181714D01*
X10589586Y-14167429D01*
X10603871Y-14153143D01*
X10603871Y-14181714D01*
X10803871Y-13881714D02*
X10832443Y-13881714D01*
X10861014Y-13896000D01*
X10875300Y-13910286D01*
X10889586Y-13938857D01*
X10903871Y-13996000D01*
X10903871Y-14067429D01*
X10889586Y-14124571D01*
X10875300Y-14153143D01*
X10861014Y-14167429D01*
X10832443Y-14181714D01*
X10803871Y-14181714D01*
X10775300Y-14167429D01*
X10761014Y-14153143D01*
X10746728Y-14124571D01*
X10732443Y-14067429D01*
X10732443Y-13996000D01*
X10746728Y-13938857D01*
X10761014Y-13910286D01*
X10775300Y-13896000D01*
X10803871Y-13881714D01*
X11189586Y-14181714D02*
X11018157Y-14181714D01*
X11103871Y-14181714D02*
X11103871Y-13881714D01*
X11075300Y-13924571D01*
X11046728Y-13953143D01*
X11018157Y-13967429D01*
X11446728Y-13881714D02*
X11389585Y-13881714D01*
X11361014Y-13896000D01*
X11346728Y-13910286D01*
X11318157Y-13953143D01*
X11303871Y-14010286D01*
X11303871Y-14124571D01*
X11318157Y-14153143D01*
X11332443Y-14167429D01*
X11361014Y-14181714D01*
X11418157Y-14181714D01*
X11446728Y-14167429D01*
X11461014Y-14153143D01*
X11475300Y-14124571D01*
X11475300Y-14053143D01*
X11461014Y-14024571D01*
X11446728Y-14010286D01*
X11418157Y-13996000D01*
X11361014Y-13996000D01*
X11332443Y-14010286D01*
X11318157Y-14024571D01*
X11303871Y-14053143D01*
X11589586Y-13881714D02*
X11589586Y-13938857D01*
X11703871Y-13881714D02*
X11703871Y-13938857D01*
X12146728Y-14296000D02*
X12132443Y-14281714D01*
X12103871Y-14238857D01*
X12089585Y-14210286D01*
X12075300Y-14167429D01*
X12061014Y-14096000D01*
X12061014Y-14038857D01*
X12075300Y-13967429D01*
X12089585Y-13924571D01*
X12103871Y-13896000D01*
X12132443Y-13853143D01*
X12146728Y-13838857D01*
X12418157Y-14181714D02*
X12246728Y-14181714D01*
X12332443Y-14181714D02*
X12332443Y-13881714D01*
X12303871Y-13924571D01*
X12275300Y-13953143D01*
X12246728Y-13967429D01*
X12775300Y-14181714D02*
X12775300Y-13881714D01*
X12903871Y-14181714D02*
X12903871Y-14024571D01*
X12889585Y-13996000D01*
X12861014Y-13981714D01*
X12818157Y-13981714D01*
X12789585Y-13996000D01*
X12775300Y-14010286D01*
X13089585Y-14181714D02*
X13061014Y-14167429D01*
X13046728Y-14153143D01*
X13032443Y-14124571D01*
X13032443Y-14038857D01*
X13046728Y-14010286D01*
X13061014Y-13996000D01*
X13089585Y-13981714D01*
X13132443Y-13981714D01*
X13161014Y-13996000D01*
X13175300Y-14010286D01*
X13189585Y-14038857D01*
X13189585Y-14124571D01*
X13175300Y-14153143D01*
X13161014Y-14167429D01*
X13132443Y-14181714D01*
X13089585Y-14181714D01*
X13361014Y-14181714D02*
X13332443Y-14167429D01*
X13318157Y-14138857D01*
X13318157Y-13881714D01*
X13589586Y-14167429D02*
X13561014Y-14181714D01*
X13503871Y-14181714D01*
X13475300Y-14167429D01*
X13461014Y-14138857D01*
X13461014Y-14024571D01*
X13475300Y-13996000D01*
X13503871Y-13981714D01*
X13561014Y-13981714D01*
X13589586Y-13996000D01*
X13603871Y-14024571D01*
X13603871Y-14053143D01*
X13461014Y-14081714D01*
X13703871Y-14296000D02*
X13718157Y-14281714D01*
X13746728Y-14238857D01*
X13761014Y-14210286D01*
X13775300Y-14167429D01*
X13789586Y-14096000D01*
X13789586Y-14038857D01*
X13775300Y-13967429D01*
X13761014Y-13924571D01*
X13746728Y-13896000D01*
X13718157Y-13853143D01*
X13703871Y-13838857D01*
X7475300Y-14442000D02*
G75*
G03X7475300Y-14442000I-30000J0D01*
G01*
X7803871Y-14277714D02*
X7832443Y-14277714D01*
X7861014Y-14292000D01*
X7875300Y-14306286D01*
X7889586Y-14334857D01*
X7903871Y-14392000D01*
X7903871Y-14463429D01*
X7889586Y-14520571D01*
X7875300Y-14549143D01*
X7861014Y-14563429D01*
X7832443Y-14577714D01*
X7803871Y-14577714D01*
X7775300Y-14563429D01*
X7761014Y-14549143D01*
X7746728Y-14520571D01*
X7732443Y-14463429D01*
X7732443Y-14392000D01*
X7746728Y-14334857D01*
X7761014Y-14306286D01*
X7775300Y-14292000D01*
X7803871Y-14277714D01*
X8032443Y-14549143D02*
X8046728Y-14563429D01*
X8032443Y-14577714D01*
X8018157Y-14563429D01*
X8032443Y-14549143D01*
X8032443Y-14577714D01*
X8303871Y-14277714D02*
X8246728Y-14277714D01*
X8218157Y-14292000D01*
X8203871Y-14306286D01*
X8175300Y-14349143D01*
X8161014Y-14406286D01*
X8161014Y-14520571D01*
X8175300Y-14549143D01*
X8189586Y-14563429D01*
X8218157Y-14577714D01*
X8275300Y-14577714D01*
X8303871Y-14563429D01*
X8318157Y-14549143D01*
X8332443Y-14520571D01*
X8332443Y-14449143D01*
X8318157Y-14420571D01*
X8303871Y-14406286D01*
X8275300Y-14392000D01*
X8218157Y-14392000D01*
X8189586Y-14406286D01*
X8175300Y-14420571D01*
X8161014Y-14449143D01*
X8518157Y-14277714D02*
X8546729Y-14277714D01*
X8575300Y-14292000D01*
X8589586Y-14306286D01*
X8603871Y-14334857D01*
X8618157Y-14392000D01*
X8618157Y-14463429D01*
X8603871Y-14520571D01*
X8589586Y-14549143D01*
X8575300Y-14563429D01*
X8546729Y-14577714D01*
X8518157Y-14577714D01*
X8489586Y-14563429D01*
X8475300Y-14549143D01*
X8461014Y-14520571D01*
X8446729Y-14463429D01*
X8446729Y-14392000D01*
X8461014Y-14334857D01*
X8475300Y-14306286D01*
X8489586Y-14292000D01*
X8518157Y-14277714D01*
X8746729Y-14577714D02*
X8746729Y-14377714D01*
X8746729Y-14406286D02*
X8761014Y-14392000D01*
X8789586Y-14377714D01*
X8832443Y-14377714D01*
X8861014Y-14392000D01*
X8875300Y-14420571D01*
X8875300Y-14577714D01*
X8875300Y-14420571D02*
X8889586Y-14392000D01*
X8918157Y-14377714D01*
X8961014Y-14377714D01*
X8989586Y-14392000D01*
X9003871Y-14420571D01*
X9003871Y-14577714D01*
X9146729Y-14577714D02*
X9146729Y-14377714D01*
X9146729Y-14406286D02*
X9161014Y-14392000D01*
X9189586Y-14377714D01*
X9232443Y-14377714D01*
X9261014Y-14392000D01*
X9275300Y-14420571D01*
X9275300Y-14577714D01*
X9275300Y-14420571D02*
X9289586Y-14392000D01*
X9318157Y-14377714D01*
X9361014Y-14377714D01*
X9389586Y-14392000D01*
X9403871Y-14420571D01*
X9403871Y-14577714D01*
X9989586Y-14263429D02*
X9732443Y-14649143D01*
X10375300Y-14277714D02*
X10403871Y-14277714D01*
X10432443Y-14292000D01*
X10446728Y-14306286D01*
X10461014Y-14334857D01*
X10475300Y-14392000D01*
X10475300Y-14463429D01*
X10461014Y-14520571D01*
X10446728Y-14549143D01*
X10432443Y-14563429D01*
X10403871Y-14577714D01*
X10375300Y-14577714D01*
X10346728Y-14563429D01*
X10332443Y-14549143D01*
X10318157Y-14520571D01*
X10303871Y-14463429D01*
X10303871Y-14392000D01*
X10318157Y-14334857D01*
X10332443Y-14306286D01*
X10346728Y-14292000D01*
X10375300Y-14277714D01*
X10603871Y-14549143D02*
X10618157Y-14563429D01*
X10603871Y-14577714D01*
X10589586Y-14563429D01*
X10603871Y-14549143D01*
X10603871Y-14577714D01*
X10803871Y-14277714D02*
X10832443Y-14277714D01*
X10861014Y-14292000D01*
X10875300Y-14306286D01*
X10889586Y-14334857D01*
X10903871Y-14392000D01*
X10903871Y-14463429D01*
X10889586Y-14520571D01*
X10875300Y-14549143D01*
X10861014Y-14563429D01*
X10832443Y-14577714D01*
X10803871Y-14577714D01*
X10775300Y-14563429D01*
X10761014Y-14549143D01*
X10746728Y-14520571D01*
X10732443Y-14463429D01*
X10732443Y-14392000D01*
X10746728Y-14334857D01*
X10761014Y-14306286D01*
X10775300Y-14292000D01*
X10803871Y-14277714D01*
X11018157Y-14306286D02*
X11032443Y-14292000D01*
X11061014Y-14277714D01*
X11132443Y-14277714D01*
X11161014Y-14292000D01*
X11175300Y-14306286D01*
X11189586Y-14334857D01*
X11189586Y-14363429D01*
X11175300Y-14406286D01*
X11003871Y-14577714D01*
X11189586Y-14577714D01*
X11446728Y-14377714D02*
X11446728Y-14577714D01*
X11375300Y-14263429D02*
X11303871Y-14477714D01*
X11489585Y-14477714D01*
X11589586Y-14277714D02*
X11589586Y-14334857D01*
X11703871Y-14277714D02*
X11703871Y-14334857D01*
X12146728Y-14692000D02*
X12132443Y-14677714D01*
X12103871Y-14634857D01*
X12089585Y-14606286D01*
X12075300Y-14563429D01*
X12061014Y-14492000D01*
X12061014Y-14434857D01*
X12075300Y-14363429D01*
X12089585Y-14320571D01*
X12103871Y-14292000D01*
X12132443Y-14249143D01*
X12146728Y-14234857D01*
X12418157Y-14577714D02*
X12246728Y-14577714D01*
X12332443Y-14577714D02*
X12332443Y-14277714D01*
X12303871Y-14320571D01*
X12275300Y-14349143D01*
X12246728Y-14363429D01*
X12532443Y-14306286D02*
X12546728Y-14292000D01*
X12575300Y-14277714D01*
X12646728Y-14277714D01*
X12675300Y-14292000D01*
X12689585Y-14306286D01*
X12703871Y-14334857D01*
X12703871Y-14363429D01*
X12689585Y-14406286D01*
X12518157Y-14577714D01*
X12703871Y-14577714D01*
X13061014Y-14577714D02*
X13061014Y-14277714D01*
X13189585Y-14577714D02*
X13189585Y-14420571D01*
X13175300Y-14392000D01*
X13146728Y-14377714D01*
X13103871Y-14377714D01*
X13075300Y-14392000D01*
X13061014Y-14406286D01*
X13375300Y-14577714D02*
X13346728Y-14563429D01*
X13332443Y-14549143D01*
X13318157Y-14520571D01*
X13318157Y-14434857D01*
X13332443Y-14406286D01*
X13346728Y-14392000D01*
X13375300Y-14377714D01*
X13418157Y-14377714D01*
X13446728Y-14392000D01*
X13461014Y-14406286D01*
X13475300Y-14434857D01*
X13475300Y-14520571D01*
X13461014Y-14549143D01*
X13446728Y-14563429D01*
X13418157Y-14577714D01*
X13375300Y-14577714D01*
X13646728Y-14577714D02*
X13618157Y-14563429D01*
X13603871Y-14534857D01*
X13603871Y-14277714D01*
X13875300Y-14563429D02*
X13846728Y-14577714D01*
X13789586Y-14577714D01*
X13761014Y-14563429D01*
X13746728Y-14534857D01*
X13746728Y-14420571D01*
X13761014Y-14392000D01*
X13789586Y-14377714D01*
X13846728Y-14377714D01*
X13875300Y-14392000D01*
X13889586Y-14420571D01*
X13889586Y-14449143D01*
X13746728Y-14477714D01*
X14003871Y-14563429D02*
X14032443Y-14577714D01*
X14089586Y-14577714D01*
X14118157Y-14563429D01*
X14132443Y-14534857D01*
X14132443Y-14520571D01*
X14118157Y-14492000D01*
X14089586Y-14477714D01*
X14046728Y-14477714D01*
X14018157Y-14463429D01*
X14003871Y-14434857D01*
X14003871Y-14420571D01*
X14018157Y-14392000D01*
X14046728Y-14377714D01*
X14089586Y-14377714D01*
X14118157Y-14392000D01*
X14232443Y-14692000D02*
X14246728Y-14677714D01*
X14275300Y-14634857D01*
X14289586Y-14606286D01*
X14303871Y-14563429D01*
X14318157Y-14492000D01*
X14318157Y-14434857D01*
X14303871Y-14363429D01*
X14289586Y-14320571D01*
X14275300Y-14292000D01*
X14246728Y-14249143D01*
X14232443Y-14234857D01*
X7435300Y-14798000D02*
X7435300Y-14878000D01*
X7395300Y-14838000D02*
X7475300Y-14838000D01*
X7803871Y-14673714D02*
X7832443Y-14673714D01*
X7861014Y-14688000D01*
X7875300Y-14702286D01*
X7889586Y-14730857D01*
X7903871Y-14788000D01*
X7903871Y-14859429D01*
X7889586Y-14916571D01*
X7875300Y-14945143D01*
X7861014Y-14959429D01*
X7832443Y-14973714D01*
X7803871Y-14973714D01*
X7775300Y-14959429D01*
X7761014Y-14945143D01*
X7746728Y-14916571D01*
X7732443Y-14859429D01*
X7732443Y-14788000D01*
X7746728Y-14730857D01*
X7761014Y-14702286D01*
X7775300Y-14688000D01*
X7803871Y-14673714D01*
X8032443Y-14945143D02*
X8046728Y-14959429D01*
X8032443Y-14973714D01*
X8018157Y-14959429D01*
X8032443Y-14945143D01*
X8032443Y-14973714D01*
X8218157Y-14802286D02*
X8189586Y-14788000D01*
X8175300Y-14773714D01*
X8161014Y-14745143D01*
X8161014Y-14730857D01*
X8175300Y-14702286D01*
X8189586Y-14688000D01*
X8218157Y-14673714D01*
X8275300Y-14673714D01*
X8303871Y-14688000D01*
X8318157Y-14702286D01*
X8332443Y-14730857D01*
X8332443Y-14745143D01*
X8318157Y-14773714D01*
X8303871Y-14788000D01*
X8275300Y-14802286D01*
X8218157Y-14802286D01*
X8189586Y-14816571D01*
X8175300Y-14830857D01*
X8161014Y-14859429D01*
X8161014Y-14916571D01*
X8175300Y-14945143D01*
X8189586Y-14959429D01*
X8218157Y-14973714D01*
X8275300Y-14973714D01*
X8303871Y-14959429D01*
X8318157Y-14945143D01*
X8332443Y-14916571D01*
X8332443Y-14859429D01*
X8318157Y-14830857D01*
X8303871Y-14816571D01*
X8275300Y-14802286D01*
X8518157Y-14673714D02*
X8546729Y-14673714D01*
X8575300Y-14688000D01*
X8589586Y-14702286D01*
X8603871Y-14730857D01*
X8618157Y-14788000D01*
X8618157Y-14859429D01*
X8603871Y-14916571D01*
X8589586Y-14945143D01*
X8575300Y-14959429D01*
X8546729Y-14973714D01*
X8518157Y-14973714D01*
X8489586Y-14959429D01*
X8475300Y-14945143D01*
X8461014Y-14916571D01*
X8446729Y-14859429D01*
X8446729Y-14788000D01*
X8461014Y-14730857D01*
X8475300Y-14702286D01*
X8489586Y-14688000D01*
X8518157Y-14673714D01*
X8746729Y-14973714D02*
X8746729Y-14773714D01*
X8746729Y-14802286D02*
X8761014Y-14788000D01*
X8789586Y-14773714D01*
X8832443Y-14773714D01*
X8861014Y-14788000D01*
X8875300Y-14816571D01*
X8875300Y-14973714D01*
X8875300Y-14816571D02*
X8889586Y-14788000D01*
X8918157Y-14773714D01*
X8961014Y-14773714D01*
X8989586Y-14788000D01*
X9003871Y-14816571D01*
X9003871Y-14973714D01*
X9146729Y-14973714D02*
X9146729Y-14773714D01*
X9146729Y-14802286D02*
X9161014Y-14788000D01*
X9189586Y-14773714D01*
X9232443Y-14773714D01*
X9261014Y-14788000D01*
X9275300Y-14816571D01*
X9275300Y-14973714D01*
X9275300Y-14816571D02*
X9289586Y-14788000D01*
X9318157Y-14773714D01*
X9361014Y-14773714D01*
X9389586Y-14788000D01*
X9403871Y-14816571D01*
X9403871Y-14973714D01*
X9989586Y-14659429D02*
X9732443Y-15045143D01*
X10375300Y-14673714D02*
X10403871Y-14673714D01*
X10432443Y-14688000D01*
X10446728Y-14702286D01*
X10461014Y-14730857D01*
X10475300Y-14788000D01*
X10475300Y-14859429D01*
X10461014Y-14916571D01*
X10446728Y-14945143D01*
X10432443Y-14959429D01*
X10403871Y-14973714D01*
X10375300Y-14973714D01*
X10346728Y-14959429D01*
X10332443Y-14945143D01*
X10318157Y-14916571D01*
X10303871Y-14859429D01*
X10303871Y-14788000D01*
X10318157Y-14730857D01*
X10332443Y-14702286D01*
X10346728Y-14688000D01*
X10375300Y-14673714D01*
X10603871Y-14945143D02*
X10618157Y-14959429D01*
X10603871Y-14973714D01*
X10589586Y-14959429D01*
X10603871Y-14945143D01*
X10603871Y-14973714D01*
X10803871Y-14673714D02*
X10832443Y-14673714D01*
X10861014Y-14688000D01*
X10875300Y-14702286D01*
X10889586Y-14730857D01*
X10903871Y-14788000D01*
X10903871Y-14859429D01*
X10889586Y-14916571D01*
X10875300Y-14945143D01*
X10861014Y-14959429D01*
X10832443Y-14973714D01*
X10803871Y-14973714D01*
X10775300Y-14959429D01*
X10761014Y-14945143D01*
X10746728Y-14916571D01*
X10732443Y-14859429D01*
X10732443Y-14788000D01*
X10746728Y-14730857D01*
X10761014Y-14702286D01*
X10775300Y-14688000D01*
X10803871Y-14673714D01*
X11003871Y-14673714D02*
X11189586Y-14673714D01*
X11089586Y-14788000D01*
X11132443Y-14788000D01*
X11161014Y-14802286D01*
X11175300Y-14816571D01*
X11189586Y-14845143D01*
X11189586Y-14916571D01*
X11175300Y-14945143D01*
X11161014Y-14959429D01*
X11132443Y-14973714D01*
X11046728Y-14973714D01*
X11018157Y-14959429D01*
X11003871Y-14945143D01*
X11475300Y-14973714D02*
X11303871Y-14973714D01*
X11389585Y-14973714D02*
X11389585Y-14673714D01*
X11361014Y-14716571D01*
X11332443Y-14745143D01*
X11303871Y-14759429D01*
X11589586Y-14673714D02*
X11589586Y-14730857D01*
X11703871Y-14673714D02*
X11703871Y-14730857D01*
X12146728Y-15088000D02*
X12132443Y-15073714D01*
X12103871Y-15030857D01*
X12089585Y-15002286D01*
X12075300Y-14959429D01*
X12061014Y-14888000D01*
X12061014Y-14830857D01*
X12075300Y-14759429D01*
X12089585Y-14716571D01*
X12103871Y-14688000D01*
X12132443Y-14645143D01*
X12146728Y-14630857D01*
X12389585Y-14673714D02*
X12332443Y-14673714D01*
X12303871Y-14688000D01*
X12289585Y-14702286D01*
X12261014Y-14745143D01*
X12246728Y-14802286D01*
X12246728Y-14916571D01*
X12261014Y-14945143D01*
X12275300Y-14959429D01*
X12303871Y-14973714D01*
X12361014Y-14973714D01*
X12389585Y-14959429D01*
X12403871Y-14945143D01*
X12418157Y-14916571D01*
X12418157Y-14845143D01*
X12403871Y-14816571D01*
X12389585Y-14802286D01*
X12361014Y-14788000D01*
X12303871Y-14788000D01*
X12275300Y-14802286D01*
X12261014Y-14816571D01*
X12246728Y-14845143D01*
X12603871Y-14673714D02*
X12632443Y-14673714D01*
X12661014Y-14688000D01*
X12675300Y-14702286D01*
X12689585Y-14730857D01*
X12703871Y-14788000D01*
X12703871Y-14859429D01*
X12689585Y-14916571D01*
X12675300Y-14945143D01*
X12661014Y-14959429D01*
X12632443Y-14973714D01*
X12603871Y-14973714D01*
X12575300Y-14959429D01*
X12561014Y-14945143D01*
X12546728Y-14916571D01*
X12532443Y-14859429D01*
X12532443Y-14788000D01*
X12546728Y-14730857D01*
X12561014Y-14702286D01*
X12575300Y-14688000D01*
X12603871Y-14673714D01*
X13061014Y-14973714D02*
X13061014Y-14673714D01*
X13189585Y-14973714D02*
X13189585Y-14816571D01*
X13175300Y-14788000D01*
X13146728Y-14773714D01*
X13103871Y-14773714D01*
X13075300Y-14788000D01*
X13061014Y-14802286D01*
X13375300Y-14973714D02*
X13346728Y-14959429D01*
X13332443Y-14945143D01*
X13318157Y-14916571D01*
X13318157Y-14830857D01*
X13332443Y-14802286D01*
X13346728Y-14788000D01*
X13375300Y-14773714D01*
X13418157Y-14773714D01*
X13446728Y-14788000D01*
X13461014Y-14802286D01*
X13475300Y-14830857D01*
X13475300Y-14916571D01*
X13461014Y-14945143D01*
X13446728Y-14959429D01*
X13418157Y-14973714D01*
X13375300Y-14973714D01*
X13646728Y-14973714D02*
X13618157Y-14959429D01*
X13603871Y-14930857D01*
X13603871Y-14673714D01*
X13875300Y-14959429D02*
X13846728Y-14973714D01*
X13789586Y-14973714D01*
X13761014Y-14959429D01*
X13746728Y-14930857D01*
X13746728Y-14816571D01*
X13761014Y-14788000D01*
X13789586Y-14773714D01*
X13846728Y-14773714D01*
X13875300Y-14788000D01*
X13889586Y-14816571D01*
X13889586Y-14845143D01*
X13746728Y-14873714D01*
X14003871Y-14959429D02*
X14032443Y-14973714D01*
X14089586Y-14973714D01*
X14118157Y-14959429D01*
X14132443Y-14930857D01*
X14132443Y-14916571D01*
X14118157Y-14888000D01*
X14089586Y-14873714D01*
X14046728Y-14873714D01*
X14018157Y-14859429D01*
X14003871Y-14830857D01*
X14003871Y-14816571D01*
X14018157Y-14788000D01*
X14046728Y-14773714D01*
X14089586Y-14773714D01*
X14118157Y-14788000D01*
X14232443Y-15088000D02*
X14246728Y-15073714D01*
X14275300Y-15030857D01*
X14289586Y-15002286D01*
X14303871Y-14959429D01*
X14318157Y-14888000D01*
X14318157Y-14830857D01*
X14303871Y-14759429D01*
X14289586Y-14716571D01*
X14275300Y-14688000D01*
X14246728Y-14645143D01*
X14232443Y-14630857D01*
X7460644Y-15269383D02*
X7460644Y-15198618D01*
X7389879Y-15198618D01*
X7389879Y-15269383D01*
X7460644Y-15269383D01*
X7903871Y-15369714D02*
X7732443Y-15369714D01*
X7818157Y-15369714D02*
X7818157Y-15069714D01*
X7789586Y-15112571D01*
X7761014Y-15141143D01*
X7732443Y-15155429D01*
X8032443Y-15341143D02*
X8046728Y-15355429D01*
X8032443Y-15369714D01*
X8018157Y-15355429D01*
X8032443Y-15341143D01*
X8032443Y-15369714D01*
X8232443Y-15069714D02*
X8261014Y-15069714D01*
X8289586Y-15084000D01*
X8303871Y-15098286D01*
X8318157Y-15126857D01*
X8332443Y-15184000D01*
X8332443Y-15255429D01*
X8318157Y-15312571D01*
X8303871Y-15341143D01*
X8289586Y-15355429D01*
X8261014Y-15369714D01*
X8232443Y-15369714D01*
X8203871Y-15355429D01*
X8189586Y-15341143D01*
X8175300Y-15312571D01*
X8161014Y-15255429D01*
X8161014Y-15184000D01*
X8175300Y-15126857D01*
X8189586Y-15098286D01*
X8203871Y-15084000D01*
X8232443Y-15069714D01*
X8518157Y-15069714D02*
X8546729Y-15069714D01*
X8575300Y-15084000D01*
X8589586Y-15098286D01*
X8603871Y-15126857D01*
X8618157Y-15184000D01*
X8618157Y-15255429D01*
X8603871Y-15312571D01*
X8589586Y-15341143D01*
X8575300Y-15355429D01*
X8546729Y-15369714D01*
X8518157Y-15369714D01*
X8489586Y-15355429D01*
X8475300Y-15341143D01*
X8461014Y-15312571D01*
X8446729Y-15255429D01*
X8446729Y-15184000D01*
X8461014Y-15126857D01*
X8475300Y-15098286D01*
X8489586Y-15084000D01*
X8518157Y-15069714D01*
X8746729Y-15369714D02*
X8746729Y-15169714D01*
X8746729Y-15198286D02*
X8761014Y-15184000D01*
X8789586Y-15169714D01*
X8832443Y-15169714D01*
X8861014Y-15184000D01*
X8875300Y-15212571D01*
X8875300Y-15369714D01*
X8875300Y-15212571D02*
X8889586Y-15184000D01*
X8918157Y-15169714D01*
X8961014Y-15169714D01*
X8989586Y-15184000D01*
X9003871Y-15212571D01*
X9003871Y-15369714D01*
X9146729Y-15369714D02*
X9146729Y-15169714D01*
X9146729Y-15198286D02*
X9161014Y-15184000D01*
X9189586Y-15169714D01*
X9232443Y-15169714D01*
X9261014Y-15184000D01*
X9275300Y-15212571D01*
X9275300Y-15369714D01*
X9275300Y-15212571D02*
X9289586Y-15184000D01*
X9318157Y-15169714D01*
X9361014Y-15169714D01*
X9389586Y-15184000D01*
X9403871Y-15212571D01*
X9403871Y-15369714D01*
X9989586Y-15055429D02*
X9732443Y-15441143D01*
X10375300Y-15069714D02*
X10403871Y-15069714D01*
X10432443Y-15084000D01*
X10446728Y-15098286D01*
X10461014Y-15126857D01*
X10475300Y-15184000D01*
X10475300Y-15255429D01*
X10461014Y-15312571D01*
X10446728Y-15341143D01*
X10432443Y-15355429D01*
X10403871Y-15369714D01*
X10375300Y-15369714D01*
X10346728Y-15355429D01*
X10332443Y-15341143D01*
X10318157Y-15312571D01*
X10303871Y-15255429D01*
X10303871Y-15184000D01*
X10318157Y-15126857D01*
X10332443Y-15098286D01*
X10346728Y-15084000D01*
X10375300Y-15069714D01*
X10603871Y-15341143D02*
X10618157Y-15355429D01*
X10603871Y-15369714D01*
X10589586Y-15355429D01*
X10603871Y-15341143D01*
X10603871Y-15369714D01*
X10803871Y-15069714D02*
X10832443Y-15069714D01*
X10861014Y-15084000D01*
X10875300Y-15098286D01*
X10889586Y-15126857D01*
X10903871Y-15184000D01*
X10903871Y-15255429D01*
X10889586Y-15312571D01*
X10875300Y-15341143D01*
X10861014Y-15355429D01*
X10832443Y-15369714D01*
X10803871Y-15369714D01*
X10775300Y-15355429D01*
X10761014Y-15341143D01*
X10746728Y-15312571D01*
X10732443Y-15255429D01*
X10732443Y-15184000D01*
X10746728Y-15126857D01*
X10761014Y-15098286D01*
X10775300Y-15084000D01*
X10803871Y-15069714D01*
X11003871Y-15069714D02*
X11189586Y-15069714D01*
X11089586Y-15184000D01*
X11132443Y-15184000D01*
X11161014Y-15198286D01*
X11175300Y-15212571D01*
X11189586Y-15241143D01*
X11189586Y-15312571D01*
X11175300Y-15341143D01*
X11161014Y-15355429D01*
X11132443Y-15369714D01*
X11046728Y-15369714D01*
X11018157Y-15355429D01*
X11003871Y-15341143D01*
X11332443Y-15369714D02*
X11389585Y-15369714D01*
X11418157Y-15355429D01*
X11432443Y-15341143D01*
X11461014Y-15298286D01*
X11475300Y-15241143D01*
X11475300Y-15126857D01*
X11461014Y-15098286D01*
X11446728Y-15084000D01*
X11418157Y-15069714D01*
X11361014Y-15069714D01*
X11332443Y-15084000D01*
X11318157Y-15098286D01*
X11303871Y-15126857D01*
X11303871Y-15198286D01*
X11318157Y-15226857D01*
X11332443Y-15241143D01*
X11361014Y-15255429D01*
X11418157Y-15255429D01*
X11446728Y-15241143D01*
X11461014Y-15226857D01*
X11475300Y-15198286D01*
X11589586Y-15069714D02*
X11589586Y-15126857D01*
X11703871Y-15069714D02*
X11703871Y-15126857D01*
X12146728Y-15484000D02*
X12132443Y-15469714D01*
X12103871Y-15426857D01*
X12089585Y-15398286D01*
X12075300Y-15355429D01*
X12061014Y-15284000D01*
X12061014Y-15226857D01*
X12075300Y-15155429D01*
X12089585Y-15112571D01*
X12103871Y-15084000D01*
X12132443Y-15041143D01*
X12146728Y-15026857D01*
X12303871Y-15198286D02*
X12275300Y-15184000D01*
X12261014Y-15169714D01*
X12246728Y-15141143D01*
X12246728Y-15126857D01*
X12261014Y-15098286D01*
X12275300Y-15084000D01*
X12303871Y-15069714D01*
X12361014Y-15069714D01*
X12389585Y-15084000D01*
X12403871Y-15098286D01*
X12418157Y-15126857D01*
X12418157Y-15141143D01*
X12403871Y-15169714D01*
X12389585Y-15184000D01*
X12361014Y-15198286D01*
X12303871Y-15198286D01*
X12275300Y-15212571D01*
X12261014Y-15226857D01*
X12246728Y-15255429D01*
X12246728Y-15312571D01*
X12261014Y-15341143D01*
X12275300Y-15355429D01*
X12303871Y-15369714D01*
X12361014Y-15369714D01*
X12389585Y-15355429D01*
X12403871Y-15341143D01*
X12418157Y-15312571D01*
X12418157Y-15255429D01*
X12403871Y-15226857D01*
X12389585Y-15212571D01*
X12361014Y-15198286D01*
X12689585Y-15069714D02*
X12546728Y-15069714D01*
X12532443Y-15212571D01*
X12546728Y-15198286D01*
X12575300Y-15184000D01*
X12646728Y-15184000D01*
X12675300Y-15198286D01*
X12689585Y-15212571D01*
X12703871Y-15241143D01*
X12703871Y-15312571D01*
X12689585Y-15341143D01*
X12675300Y-15355429D01*
X12646728Y-15369714D01*
X12575300Y-15369714D01*
X12546728Y-15355429D01*
X12532443Y-15341143D01*
X13061014Y-15369714D02*
X13061014Y-15069714D01*
X13189585Y-15369714D02*
X13189585Y-15212571D01*
X13175300Y-15184000D01*
X13146728Y-15169714D01*
X13103871Y-15169714D01*
X13075300Y-15184000D01*
X13061014Y-15198286D01*
X13375300Y-15369714D02*
X13346728Y-15355429D01*
X13332443Y-15341143D01*
X13318157Y-15312571D01*
X13318157Y-15226857D01*
X13332443Y-15198286D01*
X13346728Y-15184000D01*
X13375300Y-15169714D01*
X13418157Y-15169714D01*
X13446728Y-15184000D01*
X13461014Y-15198286D01*
X13475300Y-15226857D01*
X13475300Y-15312571D01*
X13461014Y-15341143D01*
X13446728Y-15355429D01*
X13418157Y-15369714D01*
X13375300Y-15369714D01*
X13646728Y-15369714D02*
X13618157Y-15355429D01*
X13603871Y-15326857D01*
X13603871Y-15069714D01*
X13875300Y-15355429D02*
X13846728Y-15369714D01*
X13789586Y-15369714D01*
X13761014Y-15355429D01*
X13746728Y-15326857D01*
X13746728Y-15212571D01*
X13761014Y-15184000D01*
X13789586Y-15169714D01*
X13846728Y-15169714D01*
X13875300Y-15184000D01*
X13889586Y-15212571D01*
X13889586Y-15241143D01*
X13746728Y-15269714D01*
X14003871Y-15355429D02*
X14032443Y-15369714D01*
X14089586Y-15369714D01*
X14118157Y-15355429D01*
X14132443Y-15326857D01*
X14132443Y-15312571D01*
X14118157Y-15284000D01*
X14089586Y-15269714D01*
X14046728Y-15269714D01*
X14018157Y-15255429D01*
X14003871Y-15226857D01*
X14003871Y-15212571D01*
X14018157Y-15184000D01*
X14046728Y-15169714D01*
X14089586Y-15169714D01*
X14118157Y-15184000D01*
X14232443Y-15484000D02*
X14246728Y-15469714D01*
X14275300Y-15426857D01*
X14289586Y-15398286D01*
X14303871Y-15355429D01*
X14318157Y-15284000D01*
X14318157Y-15226857D01*
X14303871Y-15155429D01*
X14289586Y-15112571D01*
X14275300Y-15084000D01*
X14246728Y-15041143D01*
X14232443Y-15026857D01*
X7415356Y-15689944D02*
X7475300Y-15630000D01*
X7415356Y-15570056D01*
X7355412Y-15630000D01*
X7415356Y-15689944D01*
X7903871Y-15765714D02*
X7732443Y-15765714D01*
X7818157Y-15765714D02*
X7818157Y-15465714D01*
X7789586Y-15508571D01*
X7761014Y-15537143D01*
X7732443Y-15551429D01*
X8032443Y-15737143D02*
X8046728Y-15751429D01*
X8032443Y-15765714D01*
X8018157Y-15751429D01*
X8032443Y-15737143D01*
X8032443Y-15765714D01*
X8161014Y-15494286D02*
X8175300Y-15480000D01*
X8203871Y-15465714D01*
X8275300Y-15465714D01*
X8303871Y-15480000D01*
X8318157Y-15494286D01*
X8332443Y-15522857D01*
X8332443Y-15551429D01*
X8318157Y-15594286D01*
X8146728Y-15765714D01*
X8332443Y-15765714D01*
X8518157Y-15465714D02*
X8546729Y-15465714D01*
X8575300Y-15480000D01*
X8589586Y-15494286D01*
X8603871Y-15522857D01*
X8618157Y-15580000D01*
X8618157Y-15651429D01*
X8603871Y-15708571D01*
X8589586Y-15737143D01*
X8575300Y-15751429D01*
X8546729Y-15765714D01*
X8518157Y-15765714D01*
X8489586Y-15751429D01*
X8475300Y-15737143D01*
X8461014Y-15708571D01*
X8446729Y-15651429D01*
X8446729Y-15580000D01*
X8461014Y-15522857D01*
X8475300Y-15494286D01*
X8489586Y-15480000D01*
X8518157Y-15465714D01*
X8746729Y-15765714D02*
X8746729Y-15565714D01*
X8746729Y-15594286D02*
X8761014Y-15580000D01*
X8789586Y-15565714D01*
X8832443Y-15565714D01*
X8861014Y-15580000D01*
X8875300Y-15608571D01*
X8875300Y-15765714D01*
X8875300Y-15608571D02*
X8889586Y-15580000D01*
X8918157Y-15565714D01*
X8961014Y-15565714D01*
X8989586Y-15580000D01*
X9003871Y-15608571D01*
X9003871Y-15765714D01*
X9146729Y-15765714D02*
X9146729Y-15565714D01*
X9146729Y-15594286D02*
X9161014Y-15580000D01*
X9189586Y-15565714D01*
X9232443Y-15565714D01*
X9261014Y-15580000D01*
X9275300Y-15608571D01*
X9275300Y-15765714D01*
X9275300Y-15608571D02*
X9289586Y-15580000D01*
X9318157Y-15565714D01*
X9361014Y-15565714D01*
X9389586Y-15580000D01*
X9403871Y-15608571D01*
X9403871Y-15765714D01*
X9989586Y-15451429D02*
X9732443Y-15837143D01*
X10375300Y-15465714D02*
X10403871Y-15465714D01*
X10432443Y-15480000D01*
X10446728Y-15494286D01*
X10461014Y-15522857D01*
X10475300Y-15580000D01*
X10475300Y-15651429D01*
X10461014Y-15708571D01*
X10446728Y-15737143D01*
X10432443Y-15751429D01*
X10403871Y-15765714D01*
X10375300Y-15765714D01*
X10346728Y-15751429D01*
X10332443Y-15737143D01*
X10318157Y-15708571D01*
X10303871Y-15651429D01*
X10303871Y-15580000D01*
X10318157Y-15522857D01*
X10332443Y-15494286D01*
X10346728Y-15480000D01*
X10375300Y-15465714D01*
X10603871Y-15737143D02*
X10618157Y-15751429D01*
X10603871Y-15765714D01*
X10589586Y-15751429D01*
X10603871Y-15737143D01*
X10603871Y-15765714D01*
X10803871Y-15465714D02*
X10832443Y-15465714D01*
X10861014Y-15480000D01*
X10875300Y-15494286D01*
X10889586Y-15522857D01*
X10903871Y-15580000D01*
X10903871Y-15651429D01*
X10889586Y-15708571D01*
X10875300Y-15737143D01*
X10861014Y-15751429D01*
X10832443Y-15765714D01*
X10803871Y-15765714D01*
X10775300Y-15751429D01*
X10761014Y-15737143D01*
X10746728Y-15708571D01*
X10732443Y-15651429D01*
X10732443Y-15580000D01*
X10746728Y-15522857D01*
X10761014Y-15494286D01*
X10775300Y-15480000D01*
X10803871Y-15465714D01*
X11161014Y-15565714D02*
X11161014Y-15765714D01*
X11089586Y-15451429D02*
X11018157Y-15665714D01*
X11203871Y-15665714D01*
X11289585Y-15465714D02*
X11489585Y-15465714D01*
X11361014Y-15765714D01*
X11589586Y-15465714D02*
X11589586Y-15522857D01*
X11703871Y-15465714D02*
X11703871Y-15522857D01*
X12146728Y-15880000D02*
X12132443Y-15865714D01*
X12103871Y-15822857D01*
X12089585Y-15794286D01*
X12075300Y-15751429D01*
X12061014Y-15680000D01*
X12061014Y-15622857D01*
X12075300Y-15551429D01*
X12089585Y-15508571D01*
X12103871Y-15480000D01*
X12132443Y-15437143D01*
X12146728Y-15422857D01*
X12418157Y-15765714D02*
X12246728Y-15765714D01*
X12332443Y-15765714D02*
X12332443Y-15465714D01*
X12303871Y-15508571D01*
X12275300Y-15537143D01*
X12246728Y-15551429D01*
X12689585Y-15465714D02*
X12546728Y-15465714D01*
X12532443Y-15608571D01*
X12546728Y-15594286D01*
X12575300Y-15580000D01*
X12646728Y-15580000D01*
X12675300Y-15594286D01*
X12689585Y-15608571D01*
X12703871Y-15637143D01*
X12703871Y-15708571D01*
X12689585Y-15737143D01*
X12675300Y-15751429D01*
X12646728Y-15765714D01*
X12575300Y-15765714D01*
X12546728Y-15751429D01*
X12532443Y-15737143D01*
X13061014Y-15765714D02*
X13061014Y-15465714D01*
X13189585Y-15765714D02*
X13189585Y-15608571D01*
X13175300Y-15580000D01*
X13146728Y-15565714D01*
X13103871Y-15565714D01*
X13075300Y-15580000D01*
X13061014Y-15594286D01*
X13375300Y-15765714D02*
X13346728Y-15751429D01*
X13332443Y-15737143D01*
X13318157Y-15708571D01*
X13318157Y-15622857D01*
X13332443Y-15594286D01*
X13346728Y-15580000D01*
X13375300Y-15565714D01*
X13418157Y-15565714D01*
X13446728Y-15580000D01*
X13461014Y-15594286D01*
X13475300Y-15622857D01*
X13475300Y-15708571D01*
X13461014Y-15737143D01*
X13446728Y-15751429D01*
X13418157Y-15765714D01*
X13375300Y-15765714D01*
X13646728Y-15765714D02*
X13618157Y-15751429D01*
X13603871Y-15722857D01*
X13603871Y-15465714D01*
X13875300Y-15751429D02*
X13846728Y-15765714D01*
X13789586Y-15765714D01*
X13761014Y-15751429D01*
X13746728Y-15722857D01*
X13746728Y-15608571D01*
X13761014Y-15580000D01*
X13789586Y-15565714D01*
X13846728Y-15565714D01*
X13875300Y-15580000D01*
X13889586Y-15608571D01*
X13889586Y-15637143D01*
X13746728Y-15665714D01*
X14003871Y-15751429D02*
X14032443Y-15765714D01*
X14089586Y-15765714D01*
X14118157Y-15751429D01*
X14132443Y-15722857D01*
X14132443Y-15708571D01*
X14118157Y-15680000D01*
X14089586Y-15665714D01*
X14046728Y-15665714D01*
X14018157Y-15651429D01*
X14003871Y-15622857D01*
X14003871Y-15608571D01*
X14018157Y-15580000D01*
X14046728Y-15565714D01*
X14089586Y-15565714D01*
X14118157Y-15580000D01*
X14232443Y-15880000D02*
X14246728Y-15865714D01*
X14275300Y-15822857D01*
X14289586Y-15794286D01*
X14303871Y-15751429D01*
X14318157Y-15680000D01*
X14318157Y-15622857D01*
X14303871Y-15551429D01*
X14289586Y-15508571D01*
X14275300Y-15480000D01*
X14246728Y-15437143D01*
X14232443Y-15422857D01*
X7155412Y-15866056D02*
X7475300Y-16185944D01*
X7475300Y-15866056D02*
X7155412Y-16185944D01*
X7475300Y-16026000D02*
G75*
G03X7475300Y-16026000I-159944J0D01*
G01*
X7718157Y-15861714D02*
X7903871Y-15861714D01*
X7803871Y-15976000D01*
X7846728Y-15976000D01*
X7875300Y-15990286D01*
X7889586Y-16004571D01*
X7903871Y-16033143D01*
X7903871Y-16104571D01*
X7889586Y-16133143D01*
X7875300Y-16147429D01*
X7846728Y-16161714D01*
X7761014Y-16161714D01*
X7732443Y-16147429D01*
X7718157Y-16133143D01*
X8032443Y-16133143D02*
X8046728Y-16147429D01*
X8032443Y-16161714D01*
X8018157Y-16147429D01*
X8032443Y-16133143D01*
X8032443Y-16161714D01*
X8161014Y-15890286D02*
X8175300Y-15876000D01*
X8203871Y-15861714D01*
X8275300Y-15861714D01*
X8303871Y-15876000D01*
X8318157Y-15890286D01*
X8332443Y-15918857D01*
X8332443Y-15947429D01*
X8318157Y-15990286D01*
X8146728Y-16161714D01*
X8332443Y-16161714D01*
X8518157Y-15861714D02*
X8546729Y-15861714D01*
X8575300Y-15876000D01*
X8589586Y-15890286D01*
X8603871Y-15918857D01*
X8618157Y-15976000D01*
X8618157Y-16047429D01*
X8603871Y-16104571D01*
X8589586Y-16133143D01*
X8575300Y-16147429D01*
X8546729Y-16161714D01*
X8518157Y-16161714D01*
X8489586Y-16147429D01*
X8475300Y-16133143D01*
X8461014Y-16104571D01*
X8446729Y-16047429D01*
X8446729Y-15976000D01*
X8461014Y-15918857D01*
X8475300Y-15890286D01*
X8489586Y-15876000D01*
X8518157Y-15861714D01*
X8746729Y-16161714D02*
X8746729Y-15961714D01*
X8746729Y-15990286D02*
X8761014Y-15976000D01*
X8789586Y-15961714D01*
X8832443Y-15961714D01*
X8861014Y-15976000D01*
X8875300Y-16004571D01*
X8875300Y-16161714D01*
X8875300Y-16004571D02*
X8889586Y-15976000D01*
X8918157Y-15961714D01*
X8961014Y-15961714D01*
X8989586Y-15976000D01*
X9003871Y-16004571D01*
X9003871Y-16161714D01*
X9146729Y-16161714D02*
X9146729Y-15961714D01*
X9146729Y-15990286D02*
X9161014Y-15976000D01*
X9189586Y-15961714D01*
X9232443Y-15961714D01*
X9261014Y-15976000D01*
X9275300Y-16004571D01*
X9275300Y-16161714D01*
X9275300Y-16004571D02*
X9289586Y-15976000D01*
X9318157Y-15961714D01*
X9361014Y-15961714D01*
X9389586Y-15976000D01*
X9403871Y-16004571D01*
X9403871Y-16161714D01*
X9989586Y-15847429D02*
X9732443Y-16233143D01*
X10375300Y-15861714D02*
X10403871Y-15861714D01*
X10432443Y-15876000D01*
X10446728Y-15890286D01*
X10461014Y-15918857D01*
X10475300Y-15976000D01*
X10475300Y-16047429D01*
X10461014Y-16104571D01*
X10446728Y-16133143D01*
X10432443Y-16147429D01*
X10403871Y-16161714D01*
X10375300Y-16161714D01*
X10346728Y-16147429D01*
X10332443Y-16133143D01*
X10318157Y-16104571D01*
X10303871Y-16047429D01*
X10303871Y-15976000D01*
X10318157Y-15918857D01*
X10332443Y-15890286D01*
X10346728Y-15876000D01*
X10375300Y-15861714D01*
X10603871Y-16133143D02*
X10618157Y-16147429D01*
X10603871Y-16161714D01*
X10589586Y-16147429D01*
X10603871Y-16133143D01*
X10603871Y-16161714D01*
X10903871Y-16161714D02*
X10732443Y-16161714D01*
X10818157Y-16161714D02*
X10818157Y-15861714D01*
X10789586Y-15904571D01*
X10761014Y-15933143D01*
X10732443Y-15947429D01*
X11018157Y-15890286D02*
X11032443Y-15876000D01*
X11061014Y-15861714D01*
X11132443Y-15861714D01*
X11161014Y-15876000D01*
X11175300Y-15890286D01*
X11189586Y-15918857D01*
X11189586Y-15947429D01*
X11175300Y-15990286D01*
X11003871Y-16161714D01*
X11189586Y-16161714D01*
X11446728Y-15861714D02*
X11389585Y-15861714D01*
X11361014Y-15876000D01*
X11346728Y-15890286D01*
X11318157Y-15933143D01*
X11303871Y-15990286D01*
X11303871Y-16104571D01*
X11318157Y-16133143D01*
X11332443Y-16147429D01*
X11361014Y-16161714D01*
X11418157Y-16161714D01*
X11446728Y-16147429D01*
X11461014Y-16133143D01*
X11475300Y-16104571D01*
X11475300Y-16033143D01*
X11461014Y-16004571D01*
X11446728Y-15990286D01*
X11418157Y-15976000D01*
X11361014Y-15976000D01*
X11332443Y-15990286D01*
X11318157Y-16004571D01*
X11303871Y-16033143D01*
X11589586Y-15861714D02*
X11589586Y-15918857D01*
X11703871Y-15861714D02*
X11703871Y-15918857D01*
X12146728Y-16276000D02*
X12132443Y-16261714D01*
X12103871Y-16218857D01*
X12089585Y-16190286D01*
X12075300Y-16147429D01*
X12061014Y-16076000D01*
X12061014Y-16018857D01*
X12075300Y-15947429D01*
X12089585Y-15904571D01*
X12103871Y-15876000D01*
X12132443Y-15833143D01*
X12146728Y-15818857D01*
X12389585Y-15961714D02*
X12389585Y-16161714D01*
X12318157Y-15847429D02*
X12246728Y-16061714D01*
X12432443Y-16061714D01*
X12775300Y-16161714D02*
X12775300Y-15861714D01*
X12903871Y-16161714D02*
X12903871Y-16004571D01*
X12889585Y-15976000D01*
X12861014Y-15961714D01*
X12818157Y-15961714D01*
X12789585Y-15976000D01*
X12775300Y-15990286D01*
X13089585Y-16161714D02*
X13061014Y-16147429D01*
X13046728Y-16133143D01*
X13032443Y-16104571D01*
X13032443Y-16018857D01*
X13046728Y-15990286D01*
X13061014Y-15976000D01*
X13089585Y-15961714D01*
X13132443Y-15961714D01*
X13161014Y-15976000D01*
X13175300Y-15990286D01*
X13189585Y-16018857D01*
X13189585Y-16104571D01*
X13175300Y-16133143D01*
X13161014Y-16147429D01*
X13132443Y-16161714D01*
X13089585Y-16161714D01*
X13361014Y-16161714D02*
X13332443Y-16147429D01*
X13318157Y-16118857D01*
X13318157Y-15861714D01*
X13589586Y-16147429D02*
X13561014Y-16161714D01*
X13503871Y-16161714D01*
X13475300Y-16147429D01*
X13461014Y-16118857D01*
X13461014Y-16004571D01*
X13475300Y-15976000D01*
X13503871Y-15961714D01*
X13561014Y-15961714D01*
X13589586Y-15976000D01*
X13603871Y-16004571D01*
X13603871Y-16033143D01*
X13461014Y-16061714D01*
X13718157Y-16147429D02*
X13746728Y-16161714D01*
X13803871Y-16161714D01*
X13832443Y-16147429D01*
X13846728Y-16118857D01*
X13846728Y-16104571D01*
X13832443Y-16076000D01*
X13803871Y-16061714D01*
X13761014Y-16061714D01*
X13732443Y-16047429D01*
X13718157Y-16018857D01*
X13718157Y-16004571D01*
X13732443Y-15976000D01*
X13761014Y-15961714D01*
X13803871Y-15961714D01*
X13832443Y-15976000D01*
X13946728Y-16276000D02*
X13961014Y-16261714D01*
X13989586Y-16218857D01*
X14003871Y-16190286D01*
X14018157Y-16147429D01*
X14032443Y-16076000D01*
X14032443Y-16018857D01*
X14018157Y-15947429D01*
X14003871Y-15904571D01*
X13989586Y-15876000D01*
X13961014Y-15833143D01*
X13946728Y-15818857D01*
M02*
