M48
;DRILL file {KiCad 4.0.5+dfsg1-4} date Sun Nov  1 08:46:39 2020
;FORMAT={-:-/ absolute / metric / decimal}
FMAT,2
METRIC,TZ
T1C0.400
T2C0.600
T3C0.800
T4C1.001
T5C1.199
T6C3.199
T7C3.200
%
G90
G05
M71
T1
X146.812Y-72.644
T2
X199.898Y-103.95
X199.962Y-94.107
X201.168Y-103.95
X201.231Y-94.107
X202.438Y-103.95
X202.501Y-94.107
X210.439Y-94.107
X210.439Y-103.95
X211.709Y-94.107
X211.709Y-103.95
X212.979Y-94.107
X212.979Y-103.95
T3
X108.077Y-105.918
X108.077Y-119.888
X111.577Y-105.918
X111.577Y-119.888
X117.602Y-92.964
X117.602Y-97.964
X125.222Y-73.914
X125.222Y-81.534
X125.222Y-87.249
X125.222Y-94.869
X127.762Y-73.914
X127.762Y-81.534
X127.762Y-87.249
X127.762Y-94.869
X130.302Y-73.914
X130.302Y-81.534
X130.302Y-87.249
X130.302Y-94.869
X132.207Y-113.284
X132.207Y-120.904
X135.382Y-113.284
X135.382Y-120.904
X137.287Y-73.914
X137.287Y-81.534
X137.287Y-87.249
X137.287Y-94.869
X139.192Y-113.284
X139.192Y-120.904
X139.827Y-73.914
X139.827Y-81.534
X139.827Y-87.249
X139.827Y-94.869
X142.367Y-73.914
X142.367Y-81.534
X142.367Y-87.249
X142.367Y-94.869
X142.367Y-113.284
X142.367Y-120.904
X162.052Y-82.804
X162.052Y-90.424
X162.052Y-93.599
X162.052Y-101.219
X165.227Y-82.804
X165.227Y-90.424
X169.037Y-82.804
X169.037Y-90.424
X172.212Y-82.804
X172.212Y-90.424
X183.642Y-118.999
X184.912Y-98.044
X184.912Y-105.664
X184.912Y-108.204
X184.912Y-110.744
X184.912Y-113.284
X188.642Y-118.999
X192.532Y-98.044
X192.532Y-105.664
X192.532Y-108.204
X192.532Y-110.744
X192.532Y-113.284
T4
X79.883Y-86.106
X79.883Y-88.646
X79.883Y-109.474
X79.883Y-112.014
X84.963Y-80.013
X84.963Y-85.087
X84.963Y-90.173
X84.963Y-95.247
X84.963Y-102.873
X84.963Y-107.947
X84.963Y-113.033
X84.963Y-118.107
X95.123Y-80.013
X95.123Y-85.087
X95.123Y-90.173
X95.123Y-95.247
X95.123Y-102.873
X95.123Y-107.947
X95.123Y-113.033
X95.123Y-118.107
X95.123Y-125.73
X97.663Y-125.73
X122.679Y-113.284
X122.679Y-123.444
X122.685Y-99.314
X122.685Y-109.474
X127.759Y-113.284
X127.759Y-123.444
X127.765Y-99.314
X127.765Y-109.474
X132.207Y-125.984
X134.747Y-125.984
X137.287Y-125.984
X139.827Y-125.984
X142.367Y-125.984
X156.972Y-80.264
X156.972Y-82.804
X156.972Y-85.344
X156.972Y-87.884
X156.972Y-90.424
X156.972Y-92.964
X156.972Y-95.504
X156.972Y-98.044
X156.972Y-100.584
X156.972Y-103.124
X156.972Y-105.664
X156.972Y-108.204
X156.972Y-110.744
X156.972Y-113.284
X156.972Y-115.824
X156.972Y-118.364
X164.592Y-125.984
X165.862Y-72.644
X167.132Y-125.984
X168.402Y-72.644
X169.672Y-125.984
X177.292Y-90.424
X177.292Y-92.964
X177.292Y-95.504
X177.292Y-98.044
X177.292Y-100.584
X177.292Y-103.124
X177.292Y-105.664
X177.292Y-108.204
X177.292Y-110.744
X177.292Y-113.284
X177.292Y-115.824
X177.292Y-118.364
X183.515Y-125.984
X186.055Y-125.984
X190.627Y-125.984
X193.167Y-125.984
X219.961Y-101.727
X219.961Y-111.887
X219.967Y-86.487
X219.967Y-96.647
X223.777Y-89.027
X223.777Y-99.187
X224.406Y-104.267
X224.406Y-114.427
X230.759Y-94.107
X230.759Y-96.647
X230.759Y-99.187
X230.759Y-101.727
X230.759Y-104.267
T5
X107.061Y-93.218
X109.601Y-93.218
X112.141Y-93.218
X198.877Y-108.712
X198.94Y-89.344
X201.168Y-108.712
X201.231Y-89.344
X203.459Y-108.712
X203.523Y-89.344
X209.418Y-108.712
X209.545Y-89.408
X211.709Y-108.712
X211.836Y-89.408
X214.Y-108.712
X214.127Y-89.408
T6
X79.883Y-72.898
X79.883Y-125.73
X230.251Y-72.898
X230.251Y-125.73
T7
X109.601Y-76.454
X201.168Y-121.511
X201.231Y-76.545
X211.709Y-121.511
X211.836Y-76.609
T0
M30
