G04 #@! TF.GenerationSoftware,KiCad,Pcbnew,5.1.5+dfsg1-2build2*
G04 #@! TF.CreationDate,2024-04-23T22:36:46+02:00*
G04 #@! TF.ProjectId,mainboard,6d61696e-626f-4617-9264-2e6b69636164,231006*
G04 #@! TF.SameCoordinates,Original*
G04 #@! TF.FileFunction,Legend,Top*
G04 #@! TF.FilePolarity,Positive*
%FSLAX46Y46*%
G04 Gerber Fmt 4.6, Leading zero omitted, Abs format (unit mm)*
G04 Created by KiCad (PCBNEW 5.1.5+dfsg1-2build2) date 2024-04-23 22:36:46*
%MOMM*%
%LPD*%
G04 APERTURE LIST*
%ADD10C,0.150000*%
%ADD11C,0.200000*%
%ADD12C,0.100000*%
G04 APERTURE END LIST*
D10*
X154495714Y-76160380D02*
X154495714Y-76969904D01*
X154543333Y-77065142D01*
X154590952Y-77112761D01*
X154686190Y-77160380D01*
X154876666Y-77160380D01*
X154971904Y-77112761D01*
X155019523Y-77065142D01*
X155067142Y-76969904D01*
X155067142Y-76160380D01*
X156067142Y-77160380D02*
X155495714Y-77160380D01*
X155781428Y-77160380D02*
X155781428Y-76160380D01*
X155686190Y-76303238D01*
X155590952Y-76398476D01*
X155495714Y-76446095D01*
X156686190Y-76160380D02*
X156781428Y-76160380D01*
X156876666Y-76208000D01*
X156924285Y-76255619D01*
X156971904Y-76350857D01*
X157019523Y-76541333D01*
X157019523Y-76779428D01*
X156971904Y-76969904D01*
X156924285Y-77065142D01*
X156876666Y-77112761D01*
X156781428Y-77160380D01*
X156686190Y-77160380D01*
X156590952Y-77112761D01*
X156543333Y-77065142D01*
X156495714Y-76969904D01*
X156448095Y-76779428D01*
X156448095Y-76541333D01*
X156495714Y-76350857D01*
X156543333Y-76255619D01*
X156590952Y-76208000D01*
X156686190Y-76160380D01*
X157876666Y-76160380D02*
X157686190Y-76160380D01*
X157590952Y-76208000D01*
X157543333Y-76255619D01*
X157448095Y-76398476D01*
X157400476Y-76588952D01*
X157400476Y-76969904D01*
X157448095Y-77065142D01*
X157495714Y-77112761D01*
X157590952Y-77160380D01*
X157781428Y-77160380D01*
X157876666Y-77112761D01*
X157924285Y-77065142D01*
X157971904Y-76969904D01*
X157971904Y-76731809D01*
X157924285Y-76636571D01*
X157876666Y-76588952D01*
X157781428Y-76541333D01*
X157590952Y-76541333D01*
X157495714Y-76588952D01*
X157448095Y-76636571D01*
X157400476Y-76731809D01*
D11*
X154432000Y-120904000D02*
X154432000Y-77724000D01*
X179832000Y-120904000D02*
X154432000Y-120904000D01*
X179832000Y-77724000D02*
X179832000Y-120904000D01*
X154432000Y-77724000D02*
X179832000Y-77724000D01*
D12*
X145288000Y-130810000D02*
X187706000Y-130810000D01*
X186690000Y-67818000D02*
X140208000Y-67818000D01*
X74803000Y-67818000D02*
X140335000Y-67818000D01*
X74803000Y-130810000D02*
X74803000Y-67818000D01*
X145415000Y-130810000D02*
X74803000Y-130810000D01*
X235331000Y-130810000D02*
X187579000Y-130810000D01*
X235331000Y-67818000D02*
X235331000Y-130810000D01*
X186563000Y-67818000D02*
X235331000Y-67818000D01*
D10*
X182642000Y-116749000D02*
X189642000Y-116749000D01*
X189642000Y-116749000D02*
X189642000Y-121249000D01*
X189642000Y-121249000D02*
X182642000Y-121249000D01*
X182642000Y-121249000D02*
X182642000Y-116749000D01*
X181965000Y-127534000D02*
X183515000Y-127534000D01*
X187325000Y-127254000D02*
X184785000Y-127254000D01*
X184785000Y-127254000D02*
X184785000Y-124714000D01*
X183515000Y-124434000D02*
X181965000Y-124434000D01*
X181965000Y-124434000D02*
X181965000Y-127534000D01*
X184785000Y-124714000D02*
X187325000Y-124714000D01*
X187325000Y-124714000D02*
X187325000Y-127254000D01*
X164312000Y-74194000D02*
X165862000Y-74194000D01*
X169672000Y-73914000D02*
X167132000Y-73914000D01*
X167132000Y-73914000D02*
X167132000Y-71374000D01*
X165862000Y-71094000D02*
X164312000Y-71094000D01*
X164312000Y-71094000D02*
X164312000Y-74194000D01*
X167132000Y-71374000D02*
X169672000Y-71374000D01*
X169672000Y-71374000D02*
X169672000Y-73914000D01*
X189077000Y-127534000D02*
X190627000Y-127534000D01*
X194437000Y-127254000D02*
X191897000Y-127254000D01*
X191897000Y-127254000D02*
X191897000Y-124714000D01*
X190627000Y-124434000D02*
X189077000Y-124434000D01*
X189077000Y-124434000D02*
X189077000Y-127534000D01*
X191897000Y-124714000D02*
X194437000Y-124714000D01*
X194437000Y-124714000D02*
X194437000Y-127254000D01*
X184912000Y-113284000D02*
X185420000Y-113284000D01*
X192532000Y-113284000D02*
X192024000Y-113284000D01*
X192024000Y-113284000D02*
X192024000Y-112268000D01*
X192024000Y-112268000D02*
X185420000Y-112268000D01*
X185420000Y-112268000D02*
X185420000Y-114300000D01*
X185420000Y-114300000D02*
X192024000Y-114300000D01*
X192024000Y-114300000D02*
X192024000Y-113284000D01*
X185420000Y-112776000D02*
X185928000Y-112268000D01*
X164592000Y-124434000D02*
X163042000Y-124434000D01*
X163042000Y-124434000D02*
X163042000Y-127534000D01*
X163042000Y-127534000D02*
X164592000Y-127534000D01*
X165862000Y-124714000D02*
X170942000Y-124714000D01*
X170942000Y-124714000D02*
X170942000Y-127254000D01*
X170942000Y-127254000D02*
X165862000Y-127254000D01*
X165862000Y-127254000D02*
X165862000Y-124714000D01*
X165227000Y-90424000D02*
X165227000Y-89916000D01*
X165227000Y-82804000D02*
X165227000Y-83312000D01*
X165227000Y-83312000D02*
X164211000Y-83312000D01*
X164211000Y-83312000D02*
X164211000Y-89916000D01*
X164211000Y-89916000D02*
X166243000Y-89916000D01*
X166243000Y-89916000D02*
X166243000Y-83312000D01*
X166243000Y-83312000D02*
X165227000Y-83312000D01*
X164719000Y-89916000D02*
X164211000Y-89408000D01*
X172212000Y-90424000D02*
X172212000Y-89916000D01*
X172212000Y-82804000D02*
X172212000Y-83312000D01*
X172212000Y-83312000D02*
X171196000Y-83312000D01*
X171196000Y-83312000D02*
X171196000Y-89916000D01*
X171196000Y-89916000D02*
X173228000Y-89916000D01*
X173228000Y-89916000D02*
X173228000Y-83312000D01*
X173228000Y-83312000D02*
X172212000Y-83312000D01*
X171704000Y-89916000D02*
X171196000Y-89408000D01*
X169037000Y-90424000D02*
X169037000Y-89916000D01*
X169037000Y-82804000D02*
X169037000Y-83312000D01*
X169037000Y-83312000D02*
X168021000Y-83312000D01*
X168021000Y-83312000D02*
X168021000Y-89916000D01*
X168021000Y-89916000D02*
X170053000Y-89916000D01*
X170053000Y-89916000D02*
X170053000Y-83312000D01*
X170053000Y-83312000D02*
X169037000Y-83312000D01*
X168529000Y-89916000D02*
X168021000Y-89408000D01*
X162052000Y-90424000D02*
X162052000Y-89916000D01*
X162052000Y-82804000D02*
X162052000Y-83312000D01*
X162052000Y-83312000D02*
X161036000Y-83312000D01*
X161036000Y-83312000D02*
X161036000Y-89916000D01*
X161036000Y-89916000D02*
X163068000Y-89916000D01*
X163068000Y-89916000D02*
X163068000Y-83312000D01*
X163068000Y-83312000D02*
X162052000Y-83312000D01*
X161544000Y-89916000D02*
X161036000Y-89408000D01*
X162052000Y-101219000D02*
X162052000Y-100711000D01*
X162052000Y-93599000D02*
X162052000Y-94107000D01*
X162052000Y-94107000D02*
X161036000Y-94107000D01*
X161036000Y-94107000D02*
X161036000Y-100711000D01*
X161036000Y-100711000D02*
X163068000Y-100711000D01*
X163068000Y-100711000D02*
X163068000Y-94107000D01*
X163068000Y-94107000D02*
X162052000Y-94107000D01*
X161544000Y-100711000D02*
X161036000Y-100203000D01*
X155702000Y-117094000D02*
X155702000Y-78994000D01*
X155702000Y-78994000D02*
X158242000Y-78994000D01*
X158242000Y-78994000D02*
X158242000Y-117094000D01*
X158522000Y-119914000D02*
X158522000Y-118364000D01*
X158242000Y-117094000D02*
X155702000Y-117094000D01*
X155422000Y-118364000D02*
X155422000Y-119914000D01*
X155422000Y-119914000D02*
X158522000Y-119914000D01*
X176022000Y-91694000D02*
X176022000Y-119634000D01*
X176022000Y-119634000D02*
X178562000Y-119634000D01*
X178562000Y-119634000D02*
X178562000Y-91694000D01*
X175742000Y-88874000D02*
X175742000Y-90424000D01*
X176022000Y-91694000D02*
X178562000Y-91694000D01*
X178842000Y-90424000D02*
X178842000Y-88874000D01*
X178842000Y-88874000D02*
X175742000Y-88874000D01*
X109902000Y-115889000D02*
X109902000Y-123887000D01*
X110042000Y-115894000D02*
X110042000Y-123882000D01*
X110182000Y-115904000D02*
X110182000Y-123872000D01*
X110322000Y-115919000D02*
X110322000Y-123857000D01*
X110462000Y-115939000D02*
X110462000Y-123837000D01*
X110602000Y-115964000D02*
X110602000Y-119666000D01*
X110602000Y-120110000D02*
X110602000Y-123812000D01*
X110742000Y-115994000D02*
X110742000Y-119338000D01*
X110742000Y-120438000D02*
X110742000Y-123782000D01*
X110882000Y-116030000D02*
X110882000Y-119169000D01*
X110882000Y-120607000D02*
X110882000Y-123746000D01*
X111022000Y-116071000D02*
X111022000Y-119056000D01*
X111022000Y-120720000D02*
X111022000Y-123705000D01*
X111162000Y-116117000D02*
X111162000Y-118978000D01*
X111162000Y-120798000D02*
X111162000Y-123659000D01*
X111302000Y-116170000D02*
X111302000Y-118927000D01*
X111302000Y-120849000D02*
X111302000Y-123606000D01*
X111442000Y-116229000D02*
X111442000Y-118897000D01*
X111442000Y-120879000D02*
X111442000Y-123547000D01*
X111582000Y-116294000D02*
X111582000Y-118888000D01*
X111582000Y-120888000D02*
X111582000Y-123482000D01*
X111722000Y-116365000D02*
X111722000Y-118899000D01*
X111722000Y-120877000D02*
X111722000Y-123411000D01*
X111862000Y-116444000D02*
X111862000Y-118929000D01*
X111862000Y-120847000D02*
X111862000Y-123332000D01*
X112002000Y-116531000D02*
X112002000Y-118983000D01*
X112002000Y-120793000D02*
X112002000Y-123245000D01*
X112142000Y-116626000D02*
X112142000Y-119063000D01*
X112142000Y-120713000D02*
X112142000Y-123150000D01*
X112282000Y-116730000D02*
X112282000Y-119179000D01*
X112282000Y-120597000D02*
X112282000Y-123046000D01*
X112422000Y-116844000D02*
X112422000Y-119353000D01*
X112422000Y-120423000D02*
X112422000Y-122932000D01*
X112562000Y-116969000D02*
X112562000Y-119715000D01*
X112562000Y-120061000D02*
X112562000Y-122807000D01*
X112702000Y-117107000D02*
X112702000Y-122669000D01*
X112842000Y-117259000D02*
X112842000Y-122517000D01*
X112982000Y-117429000D02*
X112982000Y-122347000D01*
X113122000Y-117620000D02*
X113122000Y-122156000D01*
X113262000Y-117838000D02*
X113262000Y-121938000D01*
X113402000Y-118094000D02*
X113402000Y-121682000D01*
X113542000Y-118405000D02*
X113542000Y-121371000D01*
X113682000Y-118821000D02*
X113682000Y-120955000D01*
X113822000Y-119688000D02*
X113822000Y-120088000D01*
X112577000Y-119888000D02*
G75*
G03X112577000Y-119888000I-1000000J0D01*
G01*
X113864500Y-119888000D02*
G75*
G03X113864500Y-119888000I-4037500J0D01*
G01*
X109902000Y-101919000D02*
X109902000Y-109917000D01*
X110042000Y-101924000D02*
X110042000Y-109912000D01*
X110182000Y-101934000D02*
X110182000Y-109902000D01*
X110322000Y-101949000D02*
X110322000Y-109887000D01*
X110462000Y-101969000D02*
X110462000Y-109867000D01*
X110602000Y-101994000D02*
X110602000Y-105696000D01*
X110602000Y-106140000D02*
X110602000Y-109842000D01*
X110742000Y-102024000D02*
X110742000Y-105368000D01*
X110742000Y-106468000D02*
X110742000Y-109812000D01*
X110882000Y-102060000D02*
X110882000Y-105199000D01*
X110882000Y-106637000D02*
X110882000Y-109776000D01*
X111022000Y-102101000D02*
X111022000Y-105086000D01*
X111022000Y-106750000D02*
X111022000Y-109735000D01*
X111162000Y-102147000D02*
X111162000Y-105008000D01*
X111162000Y-106828000D02*
X111162000Y-109689000D01*
X111302000Y-102200000D02*
X111302000Y-104957000D01*
X111302000Y-106879000D02*
X111302000Y-109636000D01*
X111442000Y-102259000D02*
X111442000Y-104927000D01*
X111442000Y-106909000D02*
X111442000Y-109577000D01*
X111582000Y-102324000D02*
X111582000Y-104918000D01*
X111582000Y-106918000D02*
X111582000Y-109512000D01*
X111722000Y-102395000D02*
X111722000Y-104929000D01*
X111722000Y-106907000D02*
X111722000Y-109441000D01*
X111862000Y-102474000D02*
X111862000Y-104959000D01*
X111862000Y-106877000D02*
X111862000Y-109362000D01*
X112002000Y-102561000D02*
X112002000Y-105013000D01*
X112002000Y-106823000D02*
X112002000Y-109275000D01*
X112142000Y-102656000D02*
X112142000Y-105093000D01*
X112142000Y-106743000D02*
X112142000Y-109180000D01*
X112282000Y-102760000D02*
X112282000Y-105209000D01*
X112282000Y-106627000D02*
X112282000Y-109076000D01*
X112422000Y-102874000D02*
X112422000Y-105383000D01*
X112422000Y-106453000D02*
X112422000Y-108962000D01*
X112562000Y-102999000D02*
X112562000Y-105745000D01*
X112562000Y-106091000D02*
X112562000Y-108837000D01*
X112702000Y-103137000D02*
X112702000Y-108699000D01*
X112842000Y-103289000D02*
X112842000Y-108547000D01*
X112982000Y-103459000D02*
X112982000Y-108377000D01*
X113122000Y-103650000D02*
X113122000Y-108186000D01*
X113262000Y-103868000D02*
X113262000Y-107968000D01*
X113402000Y-104124000D02*
X113402000Y-107712000D01*
X113542000Y-104435000D02*
X113542000Y-107401000D01*
X113682000Y-104851000D02*
X113682000Y-106985000D01*
X113822000Y-105718000D02*
X113822000Y-106118000D01*
X112577000Y-105918000D02*
G75*
G03X112577000Y-105918000I-1000000J0D01*
G01*
X113864500Y-105918000D02*
G75*
G03X113864500Y-105918000I-4037500J0D01*
G01*
X119852000Y-91964000D02*
X119852000Y-98964000D01*
X119852000Y-98964000D02*
X115352000Y-98964000D01*
X115352000Y-98964000D02*
X115352000Y-91964000D01*
X115352000Y-91964000D02*
X119852000Y-91964000D01*
X87503000Y-102872540D02*
X86487000Y-102872540D01*
X92329000Y-102872540D02*
X93599000Y-102872540D01*
X92075000Y-104142540D02*
X92075000Y-101602540D01*
X91821000Y-104142540D02*
X91821000Y-101602540D01*
X91567000Y-104142540D02*
X91567000Y-101602540D01*
X92329000Y-104142540D02*
X92329000Y-101602540D01*
X91313000Y-104142540D02*
X92583000Y-101602540D01*
X92583000Y-104142540D02*
X91313000Y-101602540D01*
X91313000Y-104142540D02*
X91313000Y-101602540D01*
X91948000Y-104142540D02*
X91948000Y-101602540D01*
X92583000Y-101602540D02*
X92583000Y-104142540D01*
X92583000Y-104142540D02*
X87503000Y-104142540D01*
X87503000Y-104142540D02*
X87503000Y-101602540D01*
X87503000Y-101602540D02*
X92583000Y-101602540D01*
X92583000Y-107947460D02*
X93599000Y-107947460D01*
X87757000Y-107947460D02*
X86487000Y-107947460D01*
X88011000Y-106677460D02*
X88011000Y-109217460D01*
X88265000Y-106677460D02*
X88265000Y-109217460D01*
X88519000Y-106677460D02*
X88519000Y-109217460D01*
X87757000Y-106677460D02*
X87757000Y-109217460D01*
X88773000Y-106677460D02*
X87503000Y-109217460D01*
X87503000Y-106677460D02*
X88773000Y-109217460D01*
X88773000Y-106677460D02*
X88773000Y-109217460D01*
X88138000Y-106677460D02*
X88138000Y-109217460D01*
X87503000Y-109217460D02*
X87503000Y-106677460D01*
X87503000Y-106677460D02*
X92583000Y-106677460D01*
X92583000Y-106677460D02*
X92583000Y-109217460D01*
X92583000Y-109217460D02*
X87503000Y-109217460D01*
X87503000Y-113032540D02*
X86487000Y-113032540D01*
X92329000Y-113032540D02*
X93599000Y-113032540D01*
X92075000Y-114302540D02*
X92075000Y-111762540D01*
X91821000Y-114302540D02*
X91821000Y-111762540D01*
X91567000Y-114302540D02*
X91567000Y-111762540D01*
X92329000Y-114302540D02*
X92329000Y-111762540D01*
X91313000Y-114302540D02*
X92583000Y-111762540D01*
X92583000Y-114302540D02*
X91313000Y-111762540D01*
X91313000Y-114302540D02*
X91313000Y-111762540D01*
X91948000Y-114302540D02*
X91948000Y-111762540D01*
X92583000Y-111762540D02*
X92583000Y-114302540D01*
X92583000Y-114302540D02*
X87503000Y-114302540D01*
X87503000Y-114302540D02*
X87503000Y-111762540D01*
X87503000Y-111762540D02*
X92583000Y-111762540D01*
X92583000Y-118107460D02*
X93599000Y-118107460D01*
X87757000Y-118107460D02*
X86487000Y-118107460D01*
X88011000Y-116837460D02*
X88011000Y-119377460D01*
X88265000Y-116837460D02*
X88265000Y-119377460D01*
X88519000Y-116837460D02*
X88519000Y-119377460D01*
X87757000Y-116837460D02*
X87757000Y-119377460D01*
X88773000Y-116837460D02*
X87503000Y-119377460D01*
X87503000Y-116837460D02*
X88773000Y-119377460D01*
X88773000Y-116837460D02*
X88773000Y-119377460D01*
X88138000Y-116837460D02*
X88138000Y-119377460D01*
X87503000Y-119377460D02*
X87503000Y-116837460D01*
X87503000Y-116837460D02*
X92583000Y-116837460D01*
X92583000Y-116837460D02*
X92583000Y-119377460D01*
X92583000Y-119377460D02*
X87503000Y-119377460D01*
X87503000Y-80012540D02*
X86487000Y-80012540D01*
X92329000Y-80012540D02*
X93599000Y-80012540D01*
X92075000Y-81282540D02*
X92075000Y-78742540D01*
X91821000Y-81282540D02*
X91821000Y-78742540D01*
X91567000Y-81282540D02*
X91567000Y-78742540D01*
X92329000Y-81282540D02*
X92329000Y-78742540D01*
X91313000Y-81282540D02*
X92583000Y-78742540D01*
X92583000Y-81282540D02*
X91313000Y-78742540D01*
X91313000Y-81282540D02*
X91313000Y-78742540D01*
X91948000Y-81282540D02*
X91948000Y-78742540D01*
X92583000Y-78742540D02*
X92583000Y-81282540D01*
X92583000Y-81282540D02*
X87503000Y-81282540D01*
X87503000Y-81282540D02*
X87503000Y-78742540D01*
X87503000Y-78742540D02*
X92583000Y-78742540D01*
X92583000Y-85087460D02*
X93599000Y-85087460D01*
X87757000Y-85087460D02*
X86487000Y-85087460D01*
X88011000Y-83817460D02*
X88011000Y-86357460D01*
X88265000Y-83817460D02*
X88265000Y-86357460D01*
X88519000Y-83817460D02*
X88519000Y-86357460D01*
X87757000Y-83817460D02*
X87757000Y-86357460D01*
X88773000Y-83817460D02*
X87503000Y-86357460D01*
X87503000Y-83817460D02*
X88773000Y-86357460D01*
X88773000Y-83817460D02*
X88773000Y-86357460D01*
X88138000Y-83817460D02*
X88138000Y-86357460D01*
X87503000Y-86357460D02*
X87503000Y-83817460D01*
X87503000Y-83817460D02*
X92583000Y-83817460D01*
X92583000Y-83817460D02*
X92583000Y-86357460D01*
X92583000Y-86357460D02*
X87503000Y-86357460D01*
X87503000Y-90172540D02*
X86487000Y-90172540D01*
X92329000Y-90172540D02*
X93599000Y-90172540D01*
X92075000Y-91442540D02*
X92075000Y-88902540D01*
X91821000Y-91442540D02*
X91821000Y-88902540D01*
X91567000Y-91442540D02*
X91567000Y-88902540D01*
X92329000Y-91442540D02*
X92329000Y-88902540D01*
X91313000Y-91442540D02*
X92583000Y-88902540D01*
X92583000Y-91442540D02*
X91313000Y-88902540D01*
X91313000Y-91442540D02*
X91313000Y-88902540D01*
X91948000Y-91442540D02*
X91948000Y-88902540D01*
X92583000Y-88902540D02*
X92583000Y-91442540D01*
X92583000Y-91442540D02*
X87503000Y-91442540D01*
X87503000Y-91442540D02*
X87503000Y-88902540D01*
X87503000Y-88902540D02*
X92583000Y-88902540D01*
X92583000Y-95247460D02*
X93599000Y-95247460D01*
X87757000Y-95247460D02*
X86487000Y-95247460D01*
X88011000Y-93977460D02*
X88011000Y-96517460D01*
X88265000Y-93977460D02*
X88265000Y-96517460D01*
X88519000Y-93977460D02*
X88519000Y-96517460D01*
X87757000Y-93977460D02*
X87757000Y-96517460D01*
X88773000Y-93977460D02*
X87503000Y-96517460D01*
X87503000Y-93977460D02*
X88773000Y-96517460D01*
X88773000Y-93977460D02*
X88773000Y-96517460D01*
X88138000Y-93977460D02*
X88138000Y-96517460D01*
X87503000Y-96517460D02*
X87503000Y-93977460D01*
X87503000Y-93977460D02*
X92583000Y-93977460D01*
X92583000Y-93977460D02*
X92583000Y-96517460D01*
X92583000Y-96517460D02*
X87503000Y-96517460D01*
X93573000Y-127280000D02*
X95123000Y-127280000D01*
X98933000Y-127000000D02*
X96393000Y-127000000D01*
X96393000Y-127000000D02*
X96393000Y-124460000D01*
X95123000Y-124180000D02*
X93573000Y-124180000D01*
X93573000Y-124180000D02*
X93573000Y-127280000D01*
X96393000Y-124460000D02*
X98933000Y-124460000D01*
X98933000Y-124460000D02*
X98933000Y-127000000D01*
X78333000Y-107924000D02*
X78333000Y-109474000D01*
X78613000Y-113284000D02*
X78613000Y-110744000D01*
X78613000Y-110744000D02*
X81153000Y-110744000D01*
X81433000Y-109474000D02*
X81433000Y-107924000D01*
X81433000Y-107924000D02*
X78333000Y-107924000D01*
X81153000Y-110744000D02*
X81153000Y-113284000D01*
X81153000Y-113284000D02*
X78613000Y-113284000D01*
X78333000Y-84556000D02*
X78333000Y-86106000D01*
X78613000Y-89916000D02*
X78613000Y-87376000D01*
X78613000Y-87376000D02*
X81153000Y-87376000D01*
X81433000Y-86106000D02*
X81433000Y-84556000D01*
X81433000Y-84556000D02*
X78333000Y-84556000D01*
X81153000Y-87376000D02*
X81153000Y-89916000D01*
X81153000Y-89916000D02*
X78613000Y-89916000D01*
X107061000Y-89535000D02*
X107061000Y-90932000D01*
X109601000Y-89535000D02*
X109601000Y-90932000D01*
X112141000Y-89535000D02*
X112141000Y-90932000D01*
X112115472Y-76454000D02*
G75*
G03X112115472Y-76454000I-2514472J0D01*
G01*
X114935000Y-81026000D02*
X114935000Y-73025000D01*
X114935000Y-73025000D02*
X104267000Y-73025000D01*
X104267000Y-73025000D02*
X104267000Y-81026000D01*
X114935000Y-89535000D02*
X114935000Y-81026000D01*
X114935000Y-81026000D02*
X104267000Y-81026000D01*
X104267000Y-81026000D02*
X104267000Y-89535000D01*
X109601000Y-89535000D02*
X104267000Y-89535000D01*
X109601000Y-89535000D02*
X114935000Y-89535000D01*
X122679460Y-115824000D02*
X122679460Y-114808000D01*
X122679460Y-120650000D02*
X122679460Y-121920000D01*
X121409460Y-120396000D02*
X123949460Y-120396000D01*
X121409460Y-120142000D02*
X123949460Y-120142000D01*
X121409460Y-119888000D02*
X123949460Y-119888000D01*
X121409460Y-120650000D02*
X123949460Y-120650000D01*
X121409460Y-119634000D02*
X123949460Y-120904000D01*
X121409460Y-120904000D02*
X123949460Y-119634000D01*
X121409460Y-119634000D02*
X123949460Y-119634000D01*
X121409460Y-120269000D02*
X123949460Y-120269000D01*
X123949460Y-120904000D02*
X121409460Y-120904000D01*
X121409460Y-120904000D02*
X121409460Y-115824000D01*
X121409460Y-115824000D02*
X123949460Y-115824000D01*
X123949460Y-115824000D02*
X123949460Y-120904000D01*
X127759460Y-115824000D02*
X127759460Y-114808000D01*
X127759460Y-120650000D02*
X127759460Y-121920000D01*
X126489460Y-120396000D02*
X129029460Y-120396000D01*
X126489460Y-120142000D02*
X129029460Y-120142000D01*
X126489460Y-119888000D02*
X129029460Y-119888000D01*
X126489460Y-120650000D02*
X129029460Y-120650000D01*
X126489460Y-119634000D02*
X129029460Y-120904000D01*
X126489460Y-120904000D02*
X129029460Y-119634000D01*
X126489460Y-119634000D02*
X129029460Y-119634000D01*
X126489460Y-120269000D02*
X129029460Y-120269000D01*
X129029460Y-120904000D02*
X126489460Y-120904000D01*
X126489460Y-120904000D02*
X126489460Y-115824000D01*
X126489460Y-115824000D02*
X129029460Y-115824000D01*
X129029460Y-115824000D02*
X129029460Y-120904000D01*
X122684540Y-106934000D02*
X122684540Y-107950000D01*
X122684540Y-102108000D02*
X122684540Y-100838000D01*
X123954540Y-102362000D02*
X121414540Y-102362000D01*
X123954540Y-102616000D02*
X121414540Y-102616000D01*
X123954540Y-102870000D02*
X121414540Y-102870000D01*
X123954540Y-102108000D02*
X121414540Y-102108000D01*
X123954540Y-103124000D02*
X121414540Y-101854000D01*
X123954540Y-101854000D02*
X121414540Y-103124000D01*
X123954540Y-103124000D02*
X121414540Y-103124000D01*
X123954540Y-102489000D02*
X121414540Y-102489000D01*
X121414540Y-101854000D02*
X123954540Y-101854000D01*
X123954540Y-101854000D02*
X123954540Y-106934000D01*
X123954540Y-106934000D02*
X121414540Y-106934000D01*
X121414540Y-106934000D02*
X121414540Y-101854000D01*
X127764540Y-106934000D02*
X127764540Y-107950000D01*
X127764540Y-102108000D02*
X127764540Y-100838000D01*
X129034540Y-102362000D02*
X126494540Y-102362000D01*
X129034540Y-102616000D02*
X126494540Y-102616000D01*
X129034540Y-102870000D02*
X126494540Y-102870000D01*
X129034540Y-102108000D02*
X126494540Y-102108000D01*
X129034540Y-103124000D02*
X126494540Y-101854000D01*
X129034540Y-101854000D02*
X126494540Y-103124000D01*
X129034540Y-103124000D02*
X126494540Y-103124000D01*
X129034540Y-102489000D02*
X126494540Y-102489000D01*
X126494540Y-101854000D02*
X129034540Y-101854000D01*
X129034540Y-101854000D02*
X129034540Y-106934000D01*
X129034540Y-106934000D02*
X126494540Y-106934000D01*
X126494540Y-106934000D02*
X126494540Y-101854000D01*
X133477000Y-127254000D02*
X143637000Y-127254000D01*
X143637000Y-127254000D02*
X143637000Y-124714000D01*
X143637000Y-124714000D02*
X133477000Y-124714000D01*
X130657000Y-127534000D02*
X132207000Y-127534000D01*
X133477000Y-127254000D02*
X133477000Y-124714000D01*
X132207000Y-124434000D02*
X130657000Y-124434000D01*
X130657000Y-124434000D02*
X130657000Y-127534000D01*
X132207000Y-113284000D02*
X132207000Y-113792000D01*
X132207000Y-120904000D02*
X132207000Y-120396000D01*
X132207000Y-120396000D02*
X133223000Y-120396000D01*
X133223000Y-120396000D02*
X133223000Y-113792000D01*
X133223000Y-113792000D02*
X131191000Y-113792000D01*
X131191000Y-113792000D02*
X131191000Y-120396000D01*
X131191000Y-120396000D02*
X132207000Y-120396000D01*
X132715000Y-113792000D02*
X133223000Y-114300000D01*
X135382000Y-113284000D02*
X135382000Y-113792000D01*
X135382000Y-120904000D02*
X135382000Y-120396000D01*
X135382000Y-120396000D02*
X136398000Y-120396000D01*
X136398000Y-120396000D02*
X136398000Y-113792000D01*
X136398000Y-113792000D02*
X134366000Y-113792000D01*
X134366000Y-113792000D02*
X134366000Y-120396000D01*
X134366000Y-120396000D02*
X135382000Y-120396000D01*
X135890000Y-113792000D02*
X136398000Y-114300000D01*
X139192000Y-113284000D02*
X139192000Y-113792000D01*
X139192000Y-120904000D02*
X139192000Y-120396000D01*
X139192000Y-120396000D02*
X140208000Y-120396000D01*
X140208000Y-120396000D02*
X140208000Y-113792000D01*
X140208000Y-113792000D02*
X138176000Y-113792000D01*
X138176000Y-113792000D02*
X138176000Y-120396000D01*
X138176000Y-120396000D02*
X139192000Y-120396000D01*
X139700000Y-113792000D02*
X140208000Y-114300000D01*
X142367000Y-113284000D02*
X142367000Y-113792000D01*
X142367000Y-120904000D02*
X142367000Y-120396000D01*
X142367000Y-120396000D02*
X143383000Y-120396000D01*
X143383000Y-120396000D02*
X143383000Y-113792000D01*
X143383000Y-113792000D02*
X141351000Y-113792000D01*
X141351000Y-113792000D02*
X141351000Y-120396000D01*
X141351000Y-120396000D02*
X142367000Y-120396000D01*
X142875000Y-113792000D02*
X143383000Y-114300000D01*
X122927000Y-94734000D02*
X124197000Y-94734000D01*
X122927000Y-87384000D02*
X124197000Y-87384000D01*
X132597000Y-87384000D02*
X131327000Y-87384000D01*
X132597000Y-94734000D02*
X131327000Y-94734000D01*
X122927000Y-94734000D02*
X122927000Y-87384000D01*
X132597000Y-94734000D02*
X132597000Y-87384000D01*
X124197000Y-94734000D02*
X124197000Y-96019000D01*
X134992000Y-94734000D02*
X136262000Y-94734000D01*
X134992000Y-87384000D02*
X136262000Y-87384000D01*
X144662000Y-87384000D02*
X143392000Y-87384000D01*
X144662000Y-94734000D02*
X143392000Y-94734000D01*
X134992000Y-94734000D02*
X134992000Y-87384000D01*
X144662000Y-94734000D02*
X144662000Y-87384000D01*
X136262000Y-94734000D02*
X136262000Y-96019000D01*
X122927000Y-81399000D02*
X124197000Y-81399000D01*
X122927000Y-74049000D02*
X124197000Y-74049000D01*
X132597000Y-74049000D02*
X131327000Y-74049000D01*
X132597000Y-81399000D02*
X131327000Y-81399000D01*
X122927000Y-81399000D02*
X122927000Y-74049000D01*
X132597000Y-81399000D02*
X132597000Y-74049000D01*
X124197000Y-81399000D02*
X124197000Y-82684000D01*
X134992000Y-81399000D02*
X136262000Y-81399000D01*
X134992000Y-74049000D02*
X136262000Y-74049000D01*
X144662000Y-74049000D02*
X143392000Y-74049000D01*
X144662000Y-81399000D02*
X143392000Y-81399000D01*
X134992000Y-81399000D02*
X134992000Y-74049000D01*
X144662000Y-81399000D02*
X144662000Y-74049000D01*
X136262000Y-81399000D02*
X136262000Y-82684000D01*
X219966540Y-94107000D02*
X219966540Y-95123000D01*
X219966540Y-89281000D02*
X219966540Y-88011000D01*
X221236540Y-89535000D02*
X218696540Y-89535000D01*
X221236540Y-89789000D02*
X218696540Y-89789000D01*
X221236540Y-90043000D02*
X218696540Y-90043000D01*
X221236540Y-89281000D02*
X218696540Y-89281000D01*
X221236540Y-90297000D02*
X218696540Y-89027000D01*
X221236540Y-89027000D02*
X218696540Y-90297000D01*
X221236540Y-90297000D02*
X218696540Y-90297000D01*
X221236540Y-89662000D02*
X218696540Y-89662000D01*
X218696540Y-89027000D02*
X221236540Y-89027000D01*
X221236540Y-89027000D02*
X221236540Y-94107000D01*
X221236540Y-94107000D02*
X218696540Y-94107000D01*
X218696540Y-94107000D02*
X218696540Y-89027000D01*
X223776540Y-96647000D02*
X223776540Y-97663000D01*
X223776540Y-91821000D02*
X223776540Y-90551000D01*
X225046540Y-92075000D02*
X222506540Y-92075000D01*
X225046540Y-92329000D02*
X222506540Y-92329000D01*
X225046540Y-92583000D02*
X222506540Y-92583000D01*
X225046540Y-91821000D02*
X222506540Y-91821000D01*
X225046540Y-92837000D02*
X222506540Y-91567000D01*
X225046540Y-91567000D02*
X222506540Y-92837000D01*
X225046540Y-92837000D02*
X222506540Y-92837000D01*
X225046540Y-92202000D02*
X222506540Y-92202000D01*
X222506540Y-91567000D02*
X225046540Y-91567000D01*
X225046540Y-91567000D02*
X225046540Y-96647000D01*
X225046540Y-96647000D02*
X222506540Y-96647000D01*
X222506540Y-96647000D02*
X222506540Y-91567000D01*
X219961460Y-104267000D02*
X219961460Y-103251000D01*
X219961460Y-109093000D02*
X219961460Y-110363000D01*
X218691460Y-108839000D02*
X221231460Y-108839000D01*
X218691460Y-108585000D02*
X221231460Y-108585000D01*
X218691460Y-108331000D02*
X221231460Y-108331000D01*
X218691460Y-109093000D02*
X221231460Y-109093000D01*
X218691460Y-108077000D02*
X221231460Y-109347000D01*
X218691460Y-109347000D02*
X221231460Y-108077000D01*
X218691460Y-108077000D02*
X221231460Y-108077000D01*
X218691460Y-108712000D02*
X221231460Y-108712000D01*
X221231460Y-109347000D02*
X218691460Y-109347000D01*
X218691460Y-109347000D02*
X218691460Y-104267000D01*
X218691460Y-104267000D02*
X221231460Y-104267000D01*
X221231460Y-104267000D02*
X221231460Y-109347000D01*
X224406460Y-106807000D02*
X224406460Y-105791000D01*
X224406460Y-111633000D02*
X224406460Y-112903000D01*
X223136460Y-111379000D02*
X225676460Y-111379000D01*
X223136460Y-111125000D02*
X225676460Y-111125000D01*
X223136460Y-110871000D02*
X225676460Y-110871000D01*
X223136460Y-111633000D02*
X225676460Y-111633000D01*
X223136460Y-110617000D02*
X225676460Y-111887000D01*
X223136460Y-111887000D02*
X225676460Y-110617000D01*
X223136460Y-110617000D02*
X225676460Y-110617000D01*
X223136460Y-111252000D02*
X225676460Y-111252000D01*
X225676460Y-111887000D02*
X223136460Y-111887000D01*
X223136460Y-111887000D02*
X223136460Y-106807000D01*
X223136460Y-106807000D02*
X225676460Y-106807000D01*
X225676460Y-106807000D02*
X225676460Y-111887000D01*
X229489000Y-95377000D02*
X229489000Y-105537000D01*
X229489000Y-105537000D02*
X232029000Y-105537000D01*
X232029000Y-105537000D02*
X232029000Y-95377000D01*
X229209000Y-92557000D02*
X229209000Y-94107000D01*
X229489000Y-95377000D02*
X232029000Y-95377000D01*
X232309000Y-94107000D02*
X232309000Y-92557000D01*
X232309000Y-92557000D02*
X229209000Y-92557000D01*
X210009000Y-95807000D02*
X213409000Y-95807000D01*
X210011944Y-95804056D02*
G75*
G02X211709000Y-91707000I1697056J1697056D01*
G01*
X213406056Y-95804056D02*
G75*
G03X211709000Y-91707000I-1697056J1697056D01*
G01*
X199531500Y-95807000D02*
X202931500Y-95807000D01*
X199534444Y-95804056D02*
G75*
G02X201231500Y-91707000I1697056J1697056D01*
G01*
X202928556Y-95804056D02*
G75*
G03X201231500Y-91707000I-1697056J1697056D01*
G01*
X202868000Y-102249500D02*
X199468000Y-102249500D01*
X202865056Y-102252444D02*
G75*
G02X201168000Y-106349500I-1697056J-1697056D01*
G01*
X199470944Y-102252444D02*
G75*
G03X201168000Y-106349500I1697056J-1697056D01*
G01*
X213409000Y-102249500D02*
X210009000Y-102249500D01*
X213406056Y-102252444D02*
G75*
G02X211709000Y-106349500I-1697056J-1697056D01*
G01*
X210011944Y-102252444D02*
G75*
G03X211709000Y-106349500I1697056J-1697056D01*
G01*
X208386680Y-84757260D02*
X208737200Y-84457540D01*
X208737200Y-84457540D02*
X208737200Y-85206840D01*
X209534760Y-83908900D02*
X209534760Y-87807800D01*
X214137240Y-83908900D02*
X214137240Y-87807800D01*
X211836000Y-83908900D02*
X211836000Y-87757000D01*
X215884760Y-83908900D02*
X215884760Y-72758300D01*
X215884760Y-72758300D02*
X207787240Y-72758300D01*
X207787240Y-72758300D02*
X207787240Y-83908900D01*
X215884760Y-83908900D02*
X207787240Y-83908900D01*
X197782180Y-84693760D02*
X198132700Y-84394040D01*
X198132700Y-84394040D02*
X198132700Y-85143340D01*
X198930260Y-83845400D02*
X198930260Y-87744300D01*
X203532740Y-83845400D02*
X203532740Y-87744300D01*
X201231500Y-83845400D02*
X201231500Y-87693500D01*
X205280260Y-83845400D02*
X205280260Y-72694800D01*
X205280260Y-72694800D02*
X197182740Y-72694800D01*
X197182740Y-72694800D02*
X197182740Y-83845400D01*
X205280260Y-83845400D02*
X197182740Y-83845400D01*
X204617320Y-113362740D02*
X204266800Y-113662460D01*
X204266800Y-113662460D02*
X204266800Y-112913160D01*
X203469240Y-114211100D02*
X203469240Y-110312200D01*
X198866760Y-114211100D02*
X198866760Y-110312200D01*
X201168000Y-114211100D02*
X201168000Y-110363000D01*
X197119240Y-114211100D02*
X197119240Y-125361700D01*
X197119240Y-125361700D02*
X205216760Y-125361700D01*
X205216760Y-125361700D02*
X205216760Y-114211100D01*
X197119240Y-114211100D02*
X205216760Y-114211100D01*
X215158320Y-113362740D02*
X214807800Y-113662460D01*
X214807800Y-113662460D02*
X214807800Y-112913160D01*
X214010240Y-114211100D02*
X214010240Y-110312200D01*
X209407760Y-114211100D02*
X209407760Y-110312200D01*
X211709000Y-114211100D02*
X211709000Y-110363000D01*
X207660240Y-114211100D02*
X207660240Y-125361700D01*
X207660240Y-125361700D02*
X215757760Y-125361700D01*
X215757760Y-125361700D02*
X215757760Y-114211100D01*
X207660240Y-114211100D02*
X215757760Y-114211100D01*
X184912000Y-98044000D02*
X185420000Y-98044000D01*
X192532000Y-98044000D02*
X192024000Y-98044000D01*
X192024000Y-98044000D02*
X192024000Y-97028000D01*
X192024000Y-97028000D02*
X185420000Y-97028000D01*
X185420000Y-97028000D02*
X185420000Y-99060000D01*
X185420000Y-99060000D02*
X192024000Y-99060000D01*
X192024000Y-99060000D02*
X192024000Y-98044000D01*
X185420000Y-97536000D02*
X185928000Y-97028000D01*
X184912000Y-105664000D02*
X185420000Y-105664000D01*
X192532000Y-105664000D02*
X192024000Y-105664000D01*
X192024000Y-105664000D02*
X192024000Y-104648000D01*
X192024000Y-104648000D02*
X185420000Y-104648000D01*
X185420000Y-104648000D02*
X185420000Y-106680000D01*
X185420000Y-106680000D02*
X192024000Y-106680000D01*
X192024000Y-106680000D02*
X192024000Y-105664000D01*
X185420000Y-105156000D02*
X185928000Y-104648000D01*
X184912000Y-110744000D02*
X185420000Y-110744000D01*
X192532000Y-110744000D02*
X192024000Y-110744000D01*
X192024000Y-110744000D02*
X192024000Y-109728000D01*
X192024000Y-109728000D02*
X185420000Y-109728000D01*
X185420000Y-109728000D02*
X185420000Y-111760000D01*
X185420000Y-111760000D02*
X192024000Y-111760000D01*
X192024000Y-111760000D02*
X192024000Y-110744000D01*
X185420000Y-110236000D02*
X185928000Y-109728000D01*
X184912000Y-108204000D02*
X185420000Y-108204000D01*
X192532000Y-108204000D02*
X192024000Y-108204000D01*
X192024000Y-108204000D02*
X192024000Y-107188000D01*
X192024000Y-107188000D02*
X185420000Y-107188000D01*
X185420000Y-107188000D02*
X185420000Y-109220000D01*
X185420000Y-109220000D02*
X192024000Y-109220000D01*
X192024000Y-109220000D02*
X192024000Y-108204000D01*
X185420000Y-107696000D02*
X185928000Y-107188000D01*
X191158952Y-117451142D02*
X191111333Y-117498761D01*
X190968476Y-117546380D01*
X190873238Y-117546380D01*
X190730380Y-117498761D01*
X190635142Y-117403523D01*
X190587523Y-117308285D01*
X190539904Y-117117809D01*
X190539904Y-116974952D01*
X190587523Y-116784476D01*
X190635142Y-116689238D01*
X190730380Y-116594000D01*
X190873238Y-116546380D01*
X190968476Y-116546380D01*
X191111333Y-116594000D01*
X191158952Y-116641619D01*
X192111333Y-117546380D02*
X191539904Y-117546380D01*
X191825619Y-117546380D02*
X191825619Y-116546380D01*
X191730380Y-116689238D01*
X191635142Y-116784476D01*
X191539904Y-116832095D01*
X192730380Y-116546380D02*
X192825619Y-116546380D01*
X192920857Y-116594000D01*
X192968476Y-116641619D01*
X193016095Y-116736857D01*
X193063714Y-116927333D01*
X193063714Y-117165428D01*
X193016095Y-117355904D01*
X192968476Y-117451142D01*
X192920857Y-117498761D01*
X192825619Y-117546380D01*
X192730380Y-117546380D01*
X192635142Y-117498761D01*
X192587523Y-117451142D01*
X192539904Y-117355904D01*
X192492285Y-117165428D01*
X192492285Y-116927333D01*
X192539904Y-116736857D01*
X192587523Y-116641619D01*
X192635142Y-116594000D01*
X192730380Y-116546380D01*
X193920857Y-116879714D02*
X193920857Y-117546380D01*
X193682761Y-116498761D02*
X193444666Y-117213047D01*
X194063714Y-117213047D01*
X183348523Y-129230380D02*
X183348523Y-128230380D01*
X183729476Y-128230380D01*
X183824714Y-128278000D01*
X183872333Y-128325619D01*
X183919952Y-128420857D01*
X183919952Y-128563714D01*
X183872333Y-128658952D01*
X183824714Y-128706571D01*
X183729476Y-128754190D01*
X183348523Y-128754190D01*
X184872333Y-129230380D02*
X184300904Y-129230380D01*
X184586619Y-129230380D02*
X184586619Y-128230380D01*
X184491380Y-128373238D01*
X184396142Y-128468476D01*
X184300904Y-128516095D01*
X185491380Y-128230380D02*
X185586619Y-128230380D01*
X185681857Y-128278000D01*
X185729476Y-128325619D01*
X185777095Y-128420857D01*
X185824714Y-128611333D01*
X185824714Y-128849428D01*
X185777095Y-129039904D01*
X185729476Y-129135142D01*
X185681857Y-129182761D01*
X185586619Y-129230380D01*
X185491380Y-129230380D01*
X185396142Y-129182761D01*
X185348523Y-129135142D01*
X185300904Y-129039904D01*
X185253285Y-128849428D01*
X185253285Y-128611333D01*
X185300904Y-128420857D01*
X185348523Y-128325619D01*
X185396142Y-128278000D01*
X185491380Y-128230380D01*
X186681857Y-128230380D02*
X186491380Y-128230380D01*
X186396142Y-128278000D01*
X186348523Y-128325619D01*
X186253285Y-128468476D01*
X186205666Y-128658952D01*
X186205666Y-129039904D01*
X186253285Y-129135142D01*
X186300904Y-129182761D01*
X186396142Y-129230380D01*
X186586619Y-129230380D01*
X186681857Y-129182761D01*
X186729476Y-129135142D01*
X186777095Y-129039904D01*
X186777095Y-128801809D01*
X186729476Y-128706571D01*
X186681857Y-128658952D01*
X186586619Y-128611333D01*
X186396142Y-128611333D01*
X186300904Y-128658952D01*
X186253285Y-128706571D01*
X186205666Y-128801809D01*
X165441523Y-70556380D02*
X165441523Y-69556380D01*
X165822476Y-69556380D01*
X165917714Y-69604000D01*
X165965333Y-69651619D01*
X166012952Y-69746857D01*
X166012952Y-69889714D01*
X165965333Y-69984952D01*
X165917714Y-70032571D01*
X165822476Y-70080190D01*
X165441523Y-70080190D01*
X166965333Y-70556380D02*
X166393904Y-70556380D01*
X166679619Y-70556380D02*
X166679619Y-69556380D01*
X166584380Y-69699238D01*
X166489142Y-69794476D01*
X166393904Y-69842095D01*
X167584380Y-69556380D02*
X167679619Y-69556380D01*
X167774857Y-69604000D01*
X167822476Y-69651619D01*
X167870095Y-69746857D01*
X167917714Y-69937333D01*
X167917714Y-70175428D01*
X167870095Y-70365904D01*
X167822476Y-70461142D01*
X167774857Y-70508761D01*
X167679619Y-70556380D01*
X167584380Y-70556380D01*
X167489142Y-70508761D01*
X167441523Y-70461142D01*
X167393904Y-70365904D01*
X167346285Y-70175428D01*
X167346285Y-69937333D01*
X167393904Y-69746857D01*
X167441523Y-69651619D01*
X167489142Y-69604000D01*
X167584380Y-69556380D01*
X168251047Y-69556380D02*
X168917714Y-69556380D01*
X168489142Y-70556380D01*
X190460523Y-123642380D02*
X190460523Y-122642380D01*
X190841476Y-122642380D01*
X190936714Y-122690000D01*
X190984333Y-122737619D01*
X191031952Y-122832857D01*
X191031952Y-122975714D01*
X190984333Y-123070952D01*
X190936714Y-123118571D01*
X190841476Y-123166190D01*
X190460523Y-123166190D01*
X191984333Y-123642380D02*
X191412904Y-123642380D01*
X191698619Y-123642380D02*
X191698619Y-122642380D01*
X191603380Y-122785238D01*
X191508142Y-122880476D01*
X191412904Y-122928095D01*
X192603380Y-122642380D02*
X192698619Y-122642380D01*
X192793857Y-122690000D01*
X192841476Y-122737619D01*
X192889095Y-122832857D01*
X192936714Y-123023333D01*
X192936714Y-123261428D01*
X192889095Y-123451904D01*
X192841476Y-123547142D01*
X192793857Y-123594761D01*
X192698619Y-123642380D01*
X192603380Y-123642380D01*
X192508142Y-123594761D01*
X192460523Y-123547142D01*
X192412904Y-123451904D01*
X192365285Y-123261428D01*
X192365285Y-123023333D01*
X192412904Y-122832857D01*
X192460523Y-122737619D01*
X192508142Y-122690000D01*
X192603380Y-122642380D01*
X193508142Y-123070952D02*
X193412904Y-123023333D01*
X193365285Y-122975714D01*
X193317666Y-122880476D01*
X193317666Y-122832857D01*
X193365285Y-122737619D01*
X193412904Y-122690000D01*
X193508142Y-122642380D01*
X193698619Y-122642380D01*
X193793857Y-122690000D01*
X193841476Y-122737619D01*
X193889095Y-122832857D01*
X193889095Y-122880476D01*
X193841476Y-122975714D01*
X193793857Y-123023333D01*
X193698619Y-123070952D01*
X193508142Y-123070952D01*
X193412904Y-123118571D01*
X193365285Y-123166190D01*
X193317666Y-123261428D01*
X193317666Y-123451904D01*
X193365285Y-123547142D01*
X193412904Y-123594761D01*
X193508142Y-123642380D01*
X193698619Y-123642380D01*
X193793857Y-123594761D01*
X193841476Y-123547142D01*
X193889095Y-123451904D01*
X193889095Y-123261428D01*
X193841476Y-123166190D01*
X193793857Y-123118571D01*
X193698619Y-123070952D01*
X187602952Y-113863380D02*
X187269619Y-113387190D01*
X187031523Y-113863380D02*
X187031523Y-112863380D01*
X187412476Y-112863380D01*
X187507714Y-112911000D01*
X187555333Y-112958619D01*
X187602952Y-113053857D01*
X187602952Y-113196714D01*
X187555333Y-113291952D01*
X187507714Y-113339571D01*
X187412476Y-113387190D01*
X187031523Y-113387190D01*
X188555333Y-113863380D02*
X187983904Y-113863380D01*
X188269619Y-113863380D02*
X188269619Y-112863380D01*
X188174380Y-113006238D01*
X188079142Y-113101476D01*
X187983904Y-113149095D01*
X189507714Y-113863380D02*
X188936285Y-113863380D01*
X189222000Y-113863380D02*
X189222000Y-112863380D01*
X189126761Y-113006238D01*
X189031523Y-113101476D01*
X188936285Y-113149095D01*
X190126761Y-112863380D02*
X190222000Y-112863380D01*
X190317238Y-112911000D01*
X190364857Y-112958619D01*
X190412476Y-113053857D01*
X190460095Y-113244333D01*
X190460095Y-113482428D01*
X190412476Y-113672904D01*
X190364857Y-113768142D01*
X190317238Y-113815761D01*
X190222000Y-113863380D01*
X190126761Y-113863380D01*
X190031523Y-113815761D01*
X189983904Y-113768142D01*
X189936285Y-113672904D01*
X189888666Y-113482428D01*
X189888666Y-113244333D01*
X189936285Y-113053857D01*
X189983904Y-112958619D01*
X190031523Y-112911000D01*
X190126761Y-112863380D01*
X165441523Y-129230380D02*
X165441523Y-128230380D01*
X165822476Y-128230380D01*
X165917714Y-128278000D01*
X165965333Y-128325619D01*
X166012952Y-128420857D01*
X166012952Y-128563714D01*
X165965333Y-128658952D01*
X165917714Y-128706571D01*
X165822476Y-128754190D01*
X165441523Y-128754190D01*
X166965333Y-129230380D02*
X166393904Y-129230380D01*
X166679619Y-129230380D02*
X166679619Y-128230380D01*
X166584380Y-128373238D01*
X166489142Y-128468476D01*
X166393904Y-128516095D01*
X167584380Y-128230380D02*
X167679619Y-128230380D01*
X167774857Y-128278000D01*
X167822476Y-128325619D01*
X167870095Y-128420857D01*
X167917714Y-128611333D01*
X167917714Y-128849428D01*
X167870095Y-129039904D01*
X167822476Y-129135142D01*
X167774857Y-129182761D01*
X167679619Y-129230380D01*
X167584380Y-129230380D01*
X167489142Y-129182761D01*
X167441523Y-129135142D01*
X167393904Y-129039904D01*
X167346285Y-128849428D01*
X167346285Y-128611333D01*
X167393904Y-128420857D01*
X167441523Y-128325619D01*
X167489142Y-128278000D01*
X167584380Y-128230380D01*
X168822476Y-128230380D02*
X168346285Y-128230380D01*
X168298666Y-128706571D01*
X168346285Y-128658952D01*
X168441523Y-128611333D01*
X168679619Y-128611333D01*
X168774857Y-128658952D01*
X168822476Y-128706571D01*
X168870095Y-128801809D01*
X168870095Y-129039904D01*
X168822476Y-129135142D01*
X168774857Y-129182761D01*
X168679619Y-129230380D01*
X168441523Y-129230380D01*
X168346285Y-129182761D01*
X168298666Y-129135142D01*
X165806380Y-87733047D02*
X165330190Y-88066380D01*
X165806380Y-88304476D02*
X164806380Y-88304476D01*
X164806380Y-87923523D01*
X164854000Y-87828285D01*
X164901619Y-87780666D01*
X164996857Y-87733047D01*
X165139714Y-87733047D01*
X165234952Y-87780666D01*
X165282571Y-87828285D01*
X165330190Y-87923523D01*
X165330190Y-88304476D01*
X165806380Y-86780666D02*
X165806380Y-87352095D01*
X165806380Y-87066380D02*
X164806380Y-87066380D01*
X164949238Y-87161619D01*
X165044476Y-87256857D01*
X165092095Y-87352095D01*
X164806380Y-86161619D02*
X164806380Y-86066380D01*
X164854000Y-85971142D01*
X164901619Y-85923523D01*
X164996857Y-85875904D01*
X165187333Y-85828285D01*
X165425428Y-85828285D01*
X165615904Y-85875904D01*
X165711142Y-85923523D01*
X165758761Y-85971142D01*
X165806380Y-86066380D01*
X165806380Y-86161619D01*
X165758761Y-86256857D01*
X165711142Y-86304476D01*
X165615904Y-86352095D01*
X165425428Y-86399714D01*
X165187333Y-86399714D01*
X164996857Y-86352095D01*
X164901619Y-86304476D01*
X164854000Y-86256857D01*
X164806380Y-86161619D01*
X164806380Y-84923523D02*
X164806380Y-85399714D01*
X165282571Y-85447333D01*
X165234952Y-85399714D01*
X165187333Y-85304476D01*
X165187333Y-85066380D01*
X165234952Y-84971142D01*
X165282571Y-84923523D01*
X165377809Y-84875904D01*
X165615904Y-84875904D01*
X165711142Y-84923523D01*
X165758761Y-84971142D01*
X165806380Y-85066380D01*
X165806380Y-85304476D01*
X165758761Y-85399714D01*
X165711142Y-85447333D01*
X172791380Y-87733047D02*
X172315190Y-88066380D01*
X172791380Y-88304476D02*
X171791380Y-88304476D01*
X171791380Y-87923523D01*
X171839000Y-87828285D01*
X171886619Y-87780666D01*
X171981857Y-87733047D01*
X172124714Y-87733047D01*
X172219952Y-87780666D01*
X172267571Y-87828285D01*
X172315190Y-87923523D01*
X172315190Y-88304476D01*
X172791380Y-86780666D02*
X172791380Y-87352095D01*
X172791380Y-87066380D02*
X171791380Y-87066380D01*
X171934238Y-87161619D01*
X172029476Y-87256857D01*
X172077095Y-87352095D01*
X171791380Y-86161619D02*
X171791380Y-86066380D01*
X171839000Y-85971142D01*
X171886619Y-85923523D01*
X171981857Y-85875904D01*
X172172333Y-85828285D01*
X172410428Y-85828285D01*
X172600904Y-85875904D01*
X172696142Y-85923523D01*
X172743761Y-85971142D01*
X172791380Y-86066380D01*
X172791380Y-86161619D01*
X172743761Y-86256857D01*
X172696142Y-86304476D01*
X172600904Y-86352095D01*
X172410428Y-86399714D01*
X172172333Y-86399714D01*
X171981857Y-86352095D01*
X171886619Y-86304476D01*
X171839000Y-86256857D01*
X171791380Y-86161619D01*
X171791380Y-84971142D02*
X171791380Y-85161619D01*
X171839000Y-85256857D01*
X171886619Y-85304476D01*
X172029476Y-85399714D01*
X172219952Y-85447333D01*
X172600904Y-85447333D01*
X172696142Y-85399714D01*
X172743761Y-85352095D01*
X172791380Y-85256857D01*
X172791380Y-85066380D01*
X172743761Y-84971142D01*
X172696142Y-84923523D01*
X172600904Y-84875904D01*
X172362809Y-84875904D01*
X172267571Y-84923523D01*
X172219952Y-84971142D01*
X172172333Y-85066380D01*
X172172333Y-85256857D01*
X172219952Y-85352095D01*
X172267571Y-85399714D01*
X172362809Y-85447333D01*
X169616380Y-87733047D02*
X169140190Y-88066380D01*
X169616380Y-88304476D02*
X168616380Y-88304476D01*
X168616380Y-87923523D01*
X168664000Y-87828285D01*
X168711619Y-87780666D01*
X168806857Y-87733047D01*
X168949714Y-87733047D01*
X169044952Y-87780666D01*
X169092571Y-87828285D01*
X169140190Y-87923523D01*
X169140190Y-88304476D01*
X169616380Y-86780666D02*
X169616380Y-87352095D01*
X169616380Y-87066380D02*
X168616380Y-87066380D01*
X168759238Y-87161619D01*
X168854476Y-87256857D01*
X168902095Y-87352095D01*
X168616380Y-86161619D02*
X168616380Y-86066380D01*
X168664000Y-85971142D01*
X168711619Y-85923523D01*
X168806857Y-85875904D01*
X168997333Y-85828285D01*
X169235428Y-85828285D01*
X169425904Y-85875904D01*
X169521142Y-85923523D01*
X169568761Y-85971142D01*
X169616380Y-86066380D01*
X169616380Y-86161619D01*
X169568761Y-86256857D01*
X169521142Y-86304476D01*
X169425904Y-86352095D01*
X169235428Y-86399714D01*
X168997333Y-86399714D01*
X168806857Y-86352095D01*
X168711619Y-86304476D01*
X168664000Y-86256857D01*
X168616380Y-86161619D01*
X168616380Y-85494952D02*
X168616380Y-84828285D01*
X169616380Y-85256857D01*
X162631380Y-87733047D02*
X162155190Y-88066380D01*
X162631380Y-88304476D02*
X161631380Y-88304476D01*
X161631380Y-87923523D01*
X161679000Y-87828285D01*
X161726619Y-87780666D01*
X161821857Y-87733047D01*
X161964714Y-87733047D01*
X162059952Y-87780666D01*
X162107571Y-87828285D01*
X162155190Y-87923523D01*
X162155190Y-88304476D01*
X162631380Y-86780666D02*
X162631380Y-87352095D01*
X162631380Y-87066380D02*
X161631380Y-87066380D01*
X161774238Y-87161619D01*
X161869476Y-87256857D01*
X161917095Y-87352095D01*
X161631380Y-86161619D02*
X161631380Y-86066380D01*
X161679000Y-85971142D01*
X161726619Y-85923523D01*
X161821857Y-85875904D01*
X162012333Y-85828285D01*
X162250428Y-85828285D01*
X162440904Y-85875904D01*
X162536142Y-85923523D01*
X162583761Y-85971142D01*
X162631380Y-86066380D01*
X162631380Y-86161619D01*
X162583761Y-86256857D01*
X162536142Y-86304476D01*
X162440904Y-86352095D01*
X162250428Y-86399714D01*
X162012333Y-86399714D01*
X161821857Y-86352095D01*
X161726619Y-86304476D01*
X161679000Y-86256857D01*
X161631380Y-86161619D01*
X162059952Y-85256857D02*
X162012333Y-85352095D01*
X161964714Y-85399714D01*
X161869476Y-85447333D01*
X161821857Y-85447333D01*
X161726619Y-85399714D01*
X161679000Y-85352095D01*
X161631380Y-85256857D01*
X161631380Y-85066380D01*
X161679000Y-84971142D01*
X161726619Y-84923523D01*
X161821857Y-84875904D01*
X161869476Y-84875904D01*
X161964714Y-84923523D01*
X162012333Y-84971142D01*
X162059952Y-85066380D01*
X162059952Y-85256857D01*
X162107571Y-85352095D01*
X162155190Y-85399714D01*
X162250428Y-85447333D01*
X162440904Y-85447333D01*
X162536142Y-85399714D01*
X162583761Y-85352095D01*
X162631380Y-85256857D01*
X162631380Y-85066380D01*
X162583761Y-84971142D01*
X162536142Y-84923523D01*
X162440904Y-84875904D01*
X162250428Y-84875904D01*
X162155190Y-84923523D01*
X162107571Y-84971142D01*
X162059952Y-85066380D01*
X162631380Y-98528047D02*
X162155190Y-98861380D01*
X162631380Y-99099476D02*
X161631380Y-99099476D01*
X161631380Y-98718523D01*
X161679000Y-98623285D01*
X161726619Y-98575666D01*
X161821857Y-98528047D01*
X161964714Y-98528047D01*
X162059952Y-98575666D01*
X162107571Y-98623285D01*
X162155190Y-98718523D01*
X162155190Y-99099476D01*
X162631380Y-97575666D02*
X162631380Y-98147095D01*
X162631380Y-97861380D02*
X161631380Y-97861380D01*
X161774238Y-97956619D01*
X161869476Y-98051857D01*
X161917095Y-98147095D01*
X161631380Y-96956619D02*
X161631380Y-96861380D01*
X161679000Y-96766142D01*
X161726619Y-96718523D01*
X161821857Y-96670904D01*
X162012333Y-96623285D01*
X162250428Y-96623285D01*
X162440904Y-96670904D01*
X162536142Y-96718523D01*
X162583761Y-96766142D01*
X162631380Y-96861380D01*
X162631380Y-96956619D01*
X162583761Y-97051857D01*
X162536142Y-97099476D01*
X162440904Y-97147095D01*
X162250428Y-97194714D01*
X162012333Y-97194714D01*
X161821857Y-97147095D01*
X161726619Y-97099476D01*
X161679000Y-97051857D01*
X161631380Y-96956619D01*
X162631380Y-96147095D02*
X162631380Y-95956619D01*
X162583761Y-95861380D01*
X162536142Y-95813761D01*
X162393285Y-95718523D01*
X162202809Y-95670904D01*
X161821857Y-95670904D01*
X161726619Y-95718523D01*
X161679000Y-95766142D01*
X161631380Y-95861380D01*
X161631380Y-96051857D01*
X161679000Y-96147095D01*
X161726619Y-96194714D01*
X161821857Y-96242333D01*
X162059952Y-96242333D01*
X162155190Y-96194714D01*
X162202809Y-96147095D01*
X162250428Y-96051857D01*
X162250428Y-95861380D01*
X162202809Y-95766142D01*
X162155190Y-95718523D01*
X162059952Y-95670904D01*
X152614380Y-103321857D02*
X153423904Y-103321857D01*
X153519142Y-103274238D01*
X153566761Y-103226619D01*
X153614380Y-103131380D01*
X153614380Y-102940904D01*
X153566761Y-102845666D01*
X153519142Y-102798047D01*
X153423904Y-102750428D01*
X152614380Y-102750428D01*
X153614380Y-101750428D02*
X153614380Y-102321857D01*
X153614380Y-102036142D02*
X152614380Y-102036142D01*
X152757238Y-102131380D01*
X152852476Y-102226619D01*
X152900095Y-102321857D01*
X152614380Y-101131380D02*
X152614380Y-101036142D01*
X152662000Y-100940904D01*
X152709619Y-100893285D01*
X152804857Y-100845666D01*
X152995333Y-100798047D01*
X153233428Y-100798047D01*
X153423904Y-100845666D01*
X153519142Y-100893285D01*
X153566761Y-100940904D01*
X153614380Y-101036142D01*
X153614380Y-101131380D01*
X153566761Y-101226619D01*
X153519142Y-101274238D01*
X153423904Y-101321857D01*
X153233428Y-101369476D01*
X152995333Y-101369476D01*
X152804857Y-101321857D01*
X152709619Y-101274238D01*
X152662000Y-101226619D01*
X152614380Y-101131380D01*
X152614380Y-99940904D02*
X152614380Y-100131380D01*
X152662000Y-100226619D01*
X152709619Y-100274238D01*
X152852476Y-100369476D01*
X153042952Y-100417095D01*
X153423904Y-100417095D01*
X153519142Y-100369476D01*
X153566761Y-100321857D01*
X153614380Y-100226619D01*
X153614380Y-100036142D01*
X153566761Y-99940904D01*
X153519142Y-99893285D01*
X153423904Y-99845666D01*
X153185809Y-99845666D01*
X153090571Y-99893285D01*
X153042952Y-99940904D01*
X152995333Y-100036142D01*
X152995333Y-100226619D01*
X153042952Y-100321857D01*
X153090571Y-100369476D01*
X153185809Y-100417095D01*
X153233428Y-99417095D02*
X153233428Y-98655190D01*
X152614380Y-97893285D02*
X153328666Y-97893285D01*
X153471523Y-97940904D01*
X153566761Y-98036142D01*
X153614380Y-98179000D01*
X153614380Y-98274238D01*
X153614380Y-97417095D02*
X152614380Y-97417095D01*
X152614380Y-97036142D01*
X152662000Y-96940904D01*
X152709619Y-96893285D01*
X152804857Y-96845666D01*
X152947714Y-96845666D01*
X153042952Y-96893285D01*
X153090571Y-96940904D01*
X153138190Y-97036142D01*
X153138190Y-97417095D01*
X153614380Y-95893285D02*
X153614380Y-96464714D01*
X153614380Y-96179000D02*
X152614380Y-96179000D01*
X152757238Y-96274238D01*
X152852476Y-96369476D01*
X152900095Y-96464714D01*
X152614380Y-95274238D02*
X152614380Y-95179000D01*
X152662000Y-95083761D01*
X152709619Y-95036142D01*
X152804857Y-94988523D01*
X152995333Y-94940904D01*
X153233428Y-94940904D01*
X153423904Y-94988523D01*
X153519142Y-95036142D01*
X153566761Y-95083761D01*
X153614380Y-95179000D01*
X153614380Y-95274238D01*
X153566761Y-95369476D01*
X153519142Y-95417095D01*
X153423904Y-95464714D01*
X153233428Y-95512333D01*
X152995333Y-95512333D01*
X152804857Y-95464714D01*
X152709619Y-95417095D01*
X152662000Y-95369476D01*
X152614380Y-95274238D01*
X153614380Y-93988523D02*
X153614380Y-94559952D01*
X153614380Y-94274238D02*
X152614380Y-94274238D01*
X152757238Y-94369476D01*
X152852476Y-94464714D01*
X152900095Y-94559952D01*
X180554380Y-103575857D02*
X181363904Y-103575857D01*
X181459142Y-103528238D01*
X181506761Y-103480619D01*
X181554380Y-103385380D01*
X181554380Y-103194904D01*
X181506761Y-103099666D01*
X181459142Y-103052047D01*
X181363904Y-103004428D01*
X180554380Y-103004428D01*
X181554380Y-102004428D02*
X181554380Y-102575857D01*
X181554380Y-102290142D02*
X180554380Y-102290142D01*
X180697238Y-102385380D01*
X180792476Y-102480619D01*
X180840095Y-102575857D01*
X180554380Y-101385380D02*
X180554380Y-101290142D01*
X180602000Y-101194904D01*
X180649619Y-101147285D01*
X180744857Y-101099666D01*
X180935333Y-101052047D01*
X181173428Y-101052047D01*
X181363904Y-101099666D01*
X181459142Y-101147285D01*
X181506761Y-101194904D01*
X181554380Y-101290142D01*
X181554380Y-101385380D01*
X181506761Y-101480619D01*
X181459142Y-101528238D01*
X181363904Y-101575857D01*
X181173428Y-101623476D01*
X180935333Y-101623476D01*
X180744857Y-101575857D01*
X180649619Y-101528238D01*
X180602000Y-101480619D01*
X180554380Y-101385380D01*
X180554380Y-100194904D02*
X180554380Y-100385380D01*
X180602000Y-100480619D01*
X180649619Y-100528238D01*
X180792476Y-100623476D01*
X180982952Y-100671095D01*
X181363904Y-100671095D01*
X181459142Y-100623476D01*
X181506761Y-100575857D01*
X181554380Y-100480619D01*
X181554380Y-100290142D01*
X181506761Y-100194904D01*
X181459142Y-100147285D01*
X181363904Y-100099666D01*
X181125809Y-100099666D01*
X181030571Y-100147285D01*
X180982952Y-100194904D01*
X180935333Y-100290142D01*
X180935333Y-100480619D01*
X180982952Y-100575857D01*
X181030571Y-100623476D01*
X181125809Y-100671095D01*
X181173428Y-99671095D02*
X181173428Y-98909190D01*
X180554380Y-98147285D02*
X181268666Y-98147285D01*
X181411523Y-98194904D01*
X181506761Y-98290142D01*
X181554380Y-98433000D01*
X181554380Y-98528238D01*
X181554380Y-97671095D02*
X180554380Y-97671095D01*
X180554380Y-97290142D01*
X180602000Y-97194904D01*
X180649619Y-97147285D01*
X180744857Y-97099666D01*
X180887714Y-97099666D01*
X180982952Y-97147285D01*
X181030571Y-97194904D01*
X181078190Y-97290142D01*
X181078190Y-97671095D01*
X181554380Y-96147285D02*
X181554380Y-96718714D01*
X181554380Y-96433000D02*
X180554380Y-96433000D01*
X180697238Y-96528238D01*
X180792476Y-96623476D01*
X180840095Y-96718714D01*
X180554380Y-95528238D02*
X180554380Y-95433000D01*
X180602000Y-95337761D01*
X180649619Y-95290142D01*
X180744857Y-95242523D01*
X180935333Y-95194904D01*
X181173428Y-95194904D01*
X181363904Y-95242523D01*
X181459142Y-95290142D01*
X181506761Y-95337761D01*
X181554380Y-95433000D01*
X181554380Y-95528238D01*
X181506761Y-95623476D01*
X181459142Y-95671095D01*
X181363904Y-95718714D01*
X181173428Y-95766333D01*
X180935333Y-95766333D01*
X180744857Y-95718714D01*
X180649619Y-95671095D01*
X180602000Y-95623476D01*
X180554380Y-95528238D01*
X180649619Y-94813952D02*
X180602000Y-94766333D01*
X180554380Y-94671095D01*
X180554380Y-94433000D01*
X180602000Y-94337761D01*
X180649619Y-94290142D01*
X180744857Y-94242523D01*
X180840095Y-94242523D01*
X180982952Y-94290142D01*
X181554380Y-94861571D01*
X181554380Y-94242523D01*
X108707952Y-114945142D02*
X108660333Y-114992761D01*
X108517476Y-115040380D01*
X108422238Y-115040380D01*
X108279380Y-114992761D01*
X108184142Y-114897523D01*
X108136523Y-114802285D01*
X108088904Y-114611809D01*
X108088904Y-114468952D01*
X108136523Y-114278476D01*
X108184142Y-114183238D01*
X108279380Y-114088000D01*
X108422238Y-114040380D01*
X108517476Y-114040380D01*
X108660333Y-114088000D01*
X108707952Y-114135619D01*
X109660333Y-115040380D02*
X109088904Y-115040380D01*
X109374619Y-115040380D02*
X109374619Y-114040380D01*
X109279380Y-114183238D01*
X109184142Y-114278476D01*
X109088904Y-114326095D01*
X110279380Y-114040380D02*
X110374619Y-114040380D01*
X110469857Y-114088000D01*
X110517476Y-114135619D01*
X110565095Y-114230857D01*
X110612714Y-114421333D01*
X110612714Y-114659428D01*
X110565095Y-114849904D01*
X110517476Y-114945142D01*
X110469857Y-114992761D01*
X110374619Y-115040380D01*
X110279380Y-115040380D01*
X110184142Y-114992761D01*
X110136523Y-114945142D01*
X110088904Y-114849904D01*
X110041285Y-114659428D01*
X110041285Y-114421333D01*
X110088904Y-114230857D01*
X110136523Y-114135619D01*
X110184142Y-114088000D01*
X110279380Y-114040380D01*
X111565095Y-115040380D02*
X110993666Y-115040380D01*
X111279380Y-115040380D02*
X111279380Y-114040380D01*
X111184142Y-114183238D01*
X111088904Y-114278476D01*
X110993666Y-114326095D01*
X108707952Y-100975142D02*
X108660333Y-101022761D01*
X108517476Y-101070380D01*
X108422238Y-101070380D01*
X108279380Y-101022761D01*
X108184142Y-100927523D01*
X108136523Y-100832285D01*
X108088904Y-100641809D01*
X108088904Y-100498952D01*
X108136523Y-100308476D01*
X108184142Y-100213238D01*
X108279380Y-100118000D01*
X108422238Y-100070380D01*
X108517476Y-100070380D01*
X108660333Y-100118000D01*
X108707952Y-100165619D01*
X109660333Y-101070380D02*
X109088904Y-101070380D01*
X109374619Y-101070380D02*
X109374619Y-100070380D01*
X109279380Y-100213238D01*
X109184142Y-100308476D01*
X109088904Y-100356095D01*
X110279380Y-100070380D02*
X110374619Y-100070380D01*
X110469857Y-100118000D01*
X110517476Y-100165619D01*
X110565095Y-100260857D01*
X110612714Y-100451333D01*
X110612714Y-100689428D01*
X110565095Y-100879904D01*
X110517476Y-100975142D01*
X110469857Y-101022761D01*
X110374619Y-101070380D01*
X110279380Y-101070380D01*
X110184142Y-101022761D01*
X110136523Y-100975142D01*
X110088904Y-100879904D01*
X110041285Y-100689428D01*
X110041285Y-100451333D01*
X110088904Y-100260857D01*
X110136523Y-100165619D01*
X110184142Y-100118000D01*
X110279380Y-100070380D01*
X110993666Y-100165619D02*
X111041285Y-100118000D01*
X111136523Y-100070380D01*
X111374619Y-100070380D01*
X111469857Y-100118000D01*
X111517476Y-100165619D01*
X111565095Y-100260857D01*
X111565095Y-100356095D01*
X111517476Y-100498952D01*
X110946047Y-101070380D01*
X111565095Y-101070380D01*
X116228952Y-100687142D02*
X116181333Y-100734761D01*
X116038476Y-100782380D01*
X115943238Y-100782380D01*
X115800380Y-100734761D01*
X115705142Y-100639523D01*
X115657523Y-100544285D01*
X115609904Y-100353809D01*
X115609904Y-100210952D01*
X115657523Y-100020476D01*
X115705142Y-99925238D01*
X115800380Y-99830000D01*
X115943238Y-99782380D01*
X116038476Y-99782380D01*
X116181333Y-99830000D01*
X116228952Y-99877619D01*
X117181333Y-100782380D02*
X116609904Y-100782380D01*
X116895619Y-100782380D02*
X116895619Y-99782380D01*
X116800380Y-99925238D01*
X116705142Y-100020476D01*
X116609904Y-100068095D01*
X117800380Y-99782380D02*
X117895619Y-99782380D01*
X117990857Y-99830000D01*
X118038476Y-99877619D01*
X118086095Y-99972857D01*
X118133714Y-100163333D01*
X118133714Y-100401428D01*
X118086095Y-100591904D01*
X118038476Y-100687142D01*
X117990857Y-100734761D01*
X117895619Y-100782380D01*
X117800380Y-100782380D01*
X117705142Y-100734761D01*
X117657523Y-100687142D01*
X117609904Y-100591904D01*
X117562285Y-100401428D01*
X117562285Y-100163333D01*
X117609904Y-99972857D01*
X117657523Y-99877619D01*
X117705142Y-99830000D01*
X117800380Y-99782380D01*
X118467047Y-99782380D02*
X119086095Y-99782380D01*
X118752761Y-100163333D01*
X118895619Y-100163333D01*
X118990857Y-100210952D01*
X119038476Y-100258571D01*
X119086095Y-100353809D01*
X119086095Y-100591904D01*
X119038476Y-100687142D01*
X118990857Y-100734761D01*
X118895619Y-100782380D01*
X118609904Y-100782380D01*
X118514666Y-100734761D01*
X118467047Y-100687142D01*
X88098523Y-101036380D02*
X88098523Y-100036380D01*
X88336619Y-100036380D01*
X88479476Y-100084000D01*
X88574714Y-100179238D01*
X88622333Y-100274476D01*
X88669952Y-100464952D01*
X88669952Y-100607809D01*
X88622333Y-100798285D01*
X88574714Y-100893523D01*
X88479476Y-100988761D01*
X88336619Y-101036380D01*
X88098523Y-101036380D01*
X89622333Y-101036380D02*
X89050904Y-101036380D01*
X89336619Y-101036380D02*
X89336619Y-100036380D01*
X89241380Y-100179238D01*
X89146142Y-100274476D01*
X89050904Y-100322095D01*
X90241380Y-100036380D02*
X90336619Y-100036380D01*
X90431857Y-100084000D01*
X90479476Y-100131619D01*
X90527095Y-100226857D01*
X90574714Y-100417333D01*
X90574714Y-100655428D01*
X90527095Y-100845904D01*
X90479476Y-100941142D01*
X90431857Y-100988761D01*
X90336619Y-101036380D01*
X90241380Y-101036380D01*
X90146142Y-100988761D01*
X90098523Y-100941142D01*
X90050904Y-100845904D01*
X90003285Y-100655428D01*
X90003285Y-100417333D01*
X90050904Y-100226857D01*
X90098523Y-100131619D01*
X90146142Y-100084000D01*
X90241380Y-100036380D01*
X91527095Y-101036380D02*
X90955666Y-101036380D01*
X91241380Y-101036380D02*
X91241380Y-100036380D01*
X91146142Y-100179238D01*
X91050904Y-100274476D01*
X90955666Y-100322095D01*
X88098523Y-106116380D02*
X88098523Y-105116380D01*
X88336619Y-105116380D01*
X88479476Y-105164000D01*
X88574714Y-105259238D01*
X88622333Y-105354476D01*
X88669952Y-105544952D01*
X88669952Y-105687809D01*
X88622333Y-105878285D01*
X88574714Y-105973523D01*
X88479476Y-106068761D01*
X88336619Y-106116380D01*
X88098523Y-106116380D01*
X89622333Y-106116380D02*
X89050904Y-106116380D01*
X89336619Y-106116380D02*
X89336619Y-105116380D01*
X89241380Y-105259238D01*
X89146142Y-105354476D01*
X89050904Y-105402095D01*
X90241380Y-105116380D02*
X90336619Y-105116380D01*
X90431857Y-105164000D01*
X90479476Y-105211619D01*
X90527095Y-105306857D01*
X90574714Y-105497333D01*
X90574714Y-105735428D01*
X90527095Y-105925904D01*
X90479476Y-106021142D01*
X90431857Y-106068761D01*
X90336619Y-106116380D01*
X90241380Y-106116380D01*
X90146142Y-106068761D01*
X90098523Y-106021142D01*
X90050904Y-105925904D01*
X90003285Y-105735428D01*
X90003285Y-105497333D01*
X90050904Y-105306857D01*
X90098523Y-105211619D01*
X90146142Y-105164000D01*
X90241380Y-105116380D01*
X90955666Y-105211619D02*
X91003285Y-105164000D01*
X91098523Y-105116380D01*
X91336619Y-105116380D01*
X91431857Y-105164000D01*
X91479476Y-105211619D01*
X91527095Y-105306857D01*
X91527095Y-105402095D01*
X91479476Y-105544952D01*
X90908047Y-106116380D01*
X91527095Y-106116380D01*
X88098523Y-111196380D02*
X88098523Y-110196380D01*
X88336619Y-110196380D01*
X88479476Y-110244000D01*
X88574714Y-110339238D01*
X88622333Y-110434476D01*
X88669952Y-110624952D01*
X88669952Y-110767809D01*
X88622333Y-110958285D01*
X88574714Y-111053523D01*
X88479476Y-111148761D01*
X88336619Y-111196380D01*
X88098523Y-111196380D01*
X89622333Y-111196380D02*
X89050904Y-111196380D01*
X89336619Y-111196380D02*
X89336619Y-110196380D01*
X89241380Y-110339238D01*
X89146142Y-110434476D01*
X89050904Y-110482095D01*
X90241380Y-110196380D02*
X90336619Y-110196380D01*
X90431857Y-110244000D01*
X90479476Y-110291619D01*
X90527095Y-110386857D01*
X90574714Y-110577333D01*
X90574714Y-110815428D01*
X90527095Y-111005904D01*
X90479476Y-111101142D01*
X90431857Y-111148761D01*
X90336619Y-111196380D01*
X90241380Y-111196380D01*
X90146142Y-111148761D01*
X90098523Y-111101142D01*
X90050904Y-111005904D01*
X90003285Y-110815428D01*
X90003285Y-110577333D01*
X90050904Y-110386857D01*
X90098523Y-110291619D01*
X90146142Y-110244000D01*
X90241380Y-110196380D01*
X90908047Y-110196380D02*
X91527095Y-110196380D01*
X91193761Y-110577333D01*
X91336619Y-110577333D01*
X91431857Y-110624952D01*
X91479476Y-110672571D01*
X91527095Y-110767809D01*
X91527095Y-111005904D01*
X91479476Y-111101142D01*
X91431857Y-111148761D01*
X91336619Y-111196380D01*
X91050904Y-111196380D01*
X90955666Y-111148761D01*
X90908047Y-111101142D01*
X88098523Y-116276380D02*
X88098523Y-115276380D01*
X88336619Y-115276380D01*
X88479476Y-115324000D01*
X88574714Y-115419238D01*
X88622333Y-115514476D01*
X88669952Y-115704952D01*
X88669952Y-115847809D01*
X88622333Y-116038285D01*
X88574714Y-116133523D01*
X88479476Y-116228761D01*
X88336619Y-116276380D01*
X88098523Y-116276380D01*
X89622333Y-116276380D02*
X89050904Y-116276380D01*
X89336619Y-116276380D02*
X89336619Y-115276380D01*
X89241380Y-115419238D01*
X89146142Y-115514476D01*
X89050904Y-115562095D01*
X90241380Y-115276380D02*
X90336619Y-115276380D01*
X90431857Y-115324000D01*
X90479476Y-115371619D01*
X90527095Y-115466857D01*
X90574714Y-115657333D01*
X90574714Y-115895428D01*
X90527095Y-116085904D01*
X90479476Y-116181142D01*
X90431857Y-116228761D01*
X90336619Y-116276380D01*
X90241380Y-116276380D01*
X90146142Y-116228761D01*
X90098523Y-116181142D01*
X90050904Y-116085904D01*
X90003285Y-115895428D01*
X90003285Y-115657333D01*
X90050904Y-115466857D01*
X90098523Y-115371619D01*
X90146142Y-115324000D01*
X90241380Y-115276380D01*
X91431857Y-115609714D02*
X91431857Y-116276380D01*
X91193761Y-115228761D02*
X90955666Y-115943047D01*
X91574714Y-115943047D01*
X88098523Y-78176380D02*
X88098523Y-77176380D01*
X88336619Y-77176380D01*
X88479476Y-77224000D01*
X88574714Y-77319238D01*
X88622333Y-77414476D01*
X88669952Y-77604952D01*
X88669952Y-77747809D01*
X88622333Y-77938285D01*
X88574714Y-78033523D01*
X88479476Y-78128761D01*
X88336619Y-78176380D01*
X88098523Y-78176380D01*
X89622333Y-78176380D02*
X89050904Y-78176380D01*
X89336619Y-78176380D02*
X89336619Y-77176380D01*
X89241380Y-77319238D01*
X89146142Y-77414476D01*
X89050904Y-77462095D01*
X90241380Y-77176380D02*
X90336619Y-77176380D01*
X90431857Y-77224000D01*
X90479476Y-77271619D01*
X90527095Y-77366857D01*
X90574714Y-77557333D01*
X90574714Y-77795428D01*
X90527095Y-77985904D01*
X90479476Y-78081142D01*
X90431857Y-78128761D01*
X90336619Y-78176380D01*
X90241380Y-78176380D01*
X90146142Y-78128761D01*
X90098523Y-78081142D01*
X90050904Y-77985904D01*
X90003285Y-77795428D01*
X90003285Y-77557333D01*
X90050904Y-77366857D01*
X90098523Y-77271619D01*
X90146142Y-77224000D01*
X90241380Y-77176380D01*
X91479476Y-77176380D02*
X91003285Y-77176380D01*
X90955666Y-77652571D01*
X91003285Y-77604952D01*
X91098523Y-77557333D01*
X91336619Y-77557333D01*
X91431857Y-77604952D01*
X91479476Y-77652571D01*
X91527095Y-77747809D01*
X91527095Y-77985904D01*
X91479476Y-78081142D01*
X91431857Y-78128761D01*
X91336619Y-78176380D01*
X91098523Y-78176380D01*
X91003285Y-78128761D01*
X90955666Y-78081142D01*
X88098523Y-83256380D02*
X88098523Y-82256380D01*
X88336619Y-82256380D01*
X88479476Y-82304000D01*
X88574714Y-82399238D01*
X88622333Y-82494476D01*
X88669952Y-82684952D01*
X88669952Y-82827809D01*
X88622333Y-83018285D01*
X88574714Y-83113523D01*
X88479476Y-83208761D01*
X88336619Y-83256380D01*
X88098523Y-83256380D01*
X89622333Y-83256380D02*
X89050904Y-83256380D01*
X89336619Y-83256380D02*
X89336619Y-82256380D01*
X89241380Y-82399238D01*
X89146142Y-82494476D01*
X89050904Y-82542095D01*
X90241380Y-82256380D02*
X90336619Y-82256380D01*
X90431857Y-82304000D01*
X90479476Y-82351619D01*
X90527095Y-82446857D01*
X90574714Y-82637333D01*
X90574714Y-82875428D01*
X90527095Y-83065904D01*
X90479476Y-83161142D01*
X90431857Y-83208761D01*
X90336619Y-83256380D01*
X90241380Y-83256380D01*
X90146142Y-83208761D01*
X90098523Y-83161142D01*
X90050904Y-83065904D01*
X90003285Y-82875428D01*
X90003285Y-82637333D01*
X90050904Y-82446857D01*
X90098523Y-82351619D01*
X90146142Y-82304000D01*
X90241380Y-82256380D01*
X91431857Y-82256380D02*
X91241380Y-82256380D01*
X91146142Y-82304000D01*
X91098523Y-82351619D01*
X91003285Y-82494476D01*
X90955666Y-82684952D01*
X90955666Y-83065904D01*
X91003285Y-83161142D01*
X91050904Y-83208761D01*
X91146142Y-83256380D01*
X91336619Y-83256380D01*
X91431857Y-83208761D01*
X91479476Y-83161142D01*
X91527095Y-83065904D01*
X91527095Y-82827809D01*
X91479476Y-82732571D01*
X91431857Y-82684952D01*
X91336619Y-82637333D01*
X91146142Y-82637333D01*
X91050904Y-82684952D01*
X91003285Y-82732571D01*
X90955666Y-82827809D01*
X88098523Y-88336380D02*
X88098523Y-87336380D01*
X88336619Y-87336380D01*
X88479476Y-87384000D01*
X88574714Y-87479238D01*
X88622333Y-87574476D01*
X88669952Y-87764952D01*
X88669952Y-87907809D01*
X88622333Y-88098285D01*
X88574714Y-88193523D01*
X88479476Y-88288761D01*
X88336619Y-88336380D01*
X88098523Y-88336380D01*
X89622333Y-88336380D02*
X89050904Y-88336380D01*
X89336619Y-88336380D02*
X89336619Y-87336380D01*
X89241380Y-87479238D01*
X89146142Y-87574476D01*
X89050904Y-87622095D01*
X90241380Y-87336380D02*
X90336619Y-87336380D01*
X90431857Y-87384000D01*
X90479476Y-87431619D01*
X90527095Y-87526857D01*
X90574714Y-87717333D01*
X90574714Y-87955428D01*
X90527095Y-88145904D01*
X90479476Y-88241142D01*
X90431857Y-88288761D01*
X90336619Y-88336380D01*
X90241380Y-88336380D01*
X90146142Y-88288761D01*
X90098523Y-88241142D01*
X90050904Y-88145904D01*
X90003285Y-87955428D01*
X90003285Y-87717333D01*
X90050904Y-87526857D01*
X90098523Y-87431619D01*
X90146142Y-87384000D01*
X90241380Y-87336380D01*
X90908047Y-87336380D02*
X91574714Y-87336380D01*
X91146142Y-88336380D01*
X88098523Y-93416380D02*
X88098523Y-92416380D01*
X88336619Y-92416380D01*
X88479476Y-92464000D01*
X88574714Y-92559238D01*
X88622333Y-92654476D01*
X88669952Y-92844952D01*
X88669952Y-92987809D01*
X88622333Y-93178285D01*
X88574714Y-93273523D01*
X88479476Y-93368761D01*
X88336619Y-93416380D01*
X88098523Y-93416380D01*
X89622333Y-93416380D02*
X89050904Y-93416380D01*
X89336619Y-93416380D02*
X89336619Y-92416380D01*
X89241380Y-92559238D01*
X89146142Y-92654476D01*
X89050904Y-92702095D01*
X90241380Y-92416380D02*
X90336619Y-92416380D01*
X90431857Y-92464000D01*
X90479476Y-92511619D01*
X90527095Y-92606857D01*
X90574714Y-92797333D01*
X90574714Y-93035428D01*
X90527095Y-93225904D01*
X90479476Y-93321142D01*
X90431857Y-93368761D01*
X90336619Y-93416380D01*
X90241380Y-93416380D01*
X90146142Y-93368761D01*
X90098523Y-93321142D01*
X90050904Y-93225904D01*
X90003285Y-93035428D01*
X90003285Y-92797333D01*
X90050904Y-92606857D01*
X90098523Y-92511619D01*
X90146142Y-92464000D01*
X90241380Y-92416380D01*
X91146142Y-92844952D02*
X91050904Y-92797333D01*
X91003285Y-92749714D01*
X90955666Y-92654476D01*
X90955666Y-92606857D01*
X91003285Y-92511619D01*
X91050904Y-92464000D01*
X91146142Y-92416380D01*
X91336619Y-92416380D01*
X91431857Y-92464000D01*
X91479476Y-92511619D01*
X91527095Y-92606857D01*
X91527095Y-92654476D01*
X91479476Y-92749714D01*
X91431857Y-92797333D01*
X91336619Y-92844952D01*
X91146142Y-92844952D01*
X91050904Y-92892571D01*
X91003285Y-92940190D01*
X90955666Y-93035428D01*
X90955666Y-93225904D01*
X91003285Y-93321142D01*
X91050904Y-93368761D01*
X91146142Y-93416380D01*
X91336619Y-93416380D01*
X91431857Y-93368761D01*
X91479476Y-93321142D01*
X91527095Y-93225904D01*
X91527095Y-93035428D01*
X91479476Y-92940190D01*
X91431857Y-92892571D01*
X91336619Y-92844952D01*
X94702523Y-129230380D02*
X94702523Y-128230380D01*
X95083476Y-128230380D01*
X95178714Y-128278000D01*
X95226333Y-128325619D01*
X95273952Y-128420857D01*
X95273952Y-128563714D01*
X95226333Y-128658952D01*
X95178714Y-128706571D01*
X95083476Y-128754190D01*
X94702523Y-128754190D01*
X96226333Y-129230380D02*
X95654904Y-129230380D01*
X95940619Y-129230380D02*
X95940619Y-128230380D01*
X95845380Y-128373238D01*
X95750142Y-128468476D01*
X95654904Y-128516095D01*
X96845380Y-128230380D02*
X96940619Y-128230380D01*
X97035857Y-128278000D01*
X97083476Y-128325619D01*
X97131095Y-128420857D01*
X97178714Y-128611333D01*
X97178714Y-128849428D01*
X97131095Y-129039904D01*
X97083476Y-129135142D01*
X97035857Y-129182761D01*
X96940619Y-129230380D01*
X96845380Y-129230380D01*
X96750142Y-129182761D01*
X96702523Y-129135142D01*
X96654904Y-129039904D01*
X96607285Y-128849428D01*
X96607285Y-128611333D01*
X96654904Y-128420857D01*
X96702523Y-128325619D01*
X96750142Y-128278000D01*
X96845380Y-128230380D01*
X97559666Y-128325619D02*
X97607285Y-128278000D01*
X97702523Y-128230380D01*
X97940619Y-128230380D01*
X98035857Y-128278000D01*
X98083476Y-128325619D01*
X98131095Y-128420857D01*
X98131095Y-128516095D01*
X98083476Y-128658952D01*
X97512047Y-129230380D01*
X98131095Y-129230380D01*
X77541380Y-112688476D02*
X76541380Y-112688476D01*
X76541380Y-112307523D01*
X76589000Y-112212285D01*
X76636619Y-112164666D01*
X76731857Y-112117047D01*
X76874714Y-112117047D01*
X76969952Y-112164666D01*
X77017571Y-112212285D01*
X77065190Y-112307523D01*
X77065190Y-112688476D01*
X77541380Y-111164666D02*
X77541380Y-111736095D01*
X77541380Y-111450380D02*
X76541380Y-111450380D01*
X76684238Y-111545619D01*
X76779476Y-111640857D01*
X76827095Y-111736095D01*
X76541380Y-110545619D02*
X76541380Y-110450380D01*
X76589000Y-110355142D01*
X76636619Y-110307523D01*
X76731857Y-110259904D01*
X76922333Y-110212285D01*
X77160428Y-110212285D01*
X77350904Y-110259904D01*
X77446142Y-110307523D01*
X77493761Y-110355142D01*
X77541380Y-110450380D01*
X77541380Y-110545619D01*
X77493761Y-110640857D01*
X77446142Y-110688476D01*
X77350904Y-110736095D01*
X77160428Y-110783714D01*
X76922333Y-110783714D01*
X76731857Y-110736095D01*
X76636619Y-110688476D01*
X76589000Y-110640857D01*
X76541380Y-110545619D01*
X76541380Y-109878952D02*
X76541380Y-109259904D01*
X76922333Y-109593238D01*
X76922333Y-109450380D01*
X76969952Y-109355142D01*
X77017571Y-109307523D01*
X77112809Y-109259904D01*
X77350904Y-109259904D01*
X77446142Y-109307523D01*
X77493761Y-109355142D01*
X77541380Y-109450380D01*
X77541380Y-109736095D01*
X77493761Y-109831333D01*
X77446142Y-109878952D01*
X77541380Y-89320476D02*
X76541380Y-89320476D01*
X76541380Y-88939523D01*
X76589000Y-88844285D01*
X76636619Y-88796666D01*
X76731857Y-88749047D01*
X76874714Y-88749047D01*
X76969952Y-88796666D01*
X77017571Y-88844285D01*
X77065190Y-88939523D01*
X77065190Y-89320476D01*
X77541380Y-87796666D02*
X77541380Y-88368095D01*
X77541380Y-88082380D02*
X76541380Y-88082380D01*
X76684238Y-88177619D01*
X76779476Y-88272857D01*
X76827095Y-88368095D01*
X76541380Y-87177619D02*
X76541380Y-87082380D01*
X76589000Y-86987142D01*
X76636619Y-86939523D01*
X76731857Y-86891904D01*
X76922333Y-86844285D01*
X77160428Y-86844285D01*
X77350904Y-86891904D01*
X77446142Y-86939523D01*
X77493761Y-86987142D01*
X77541380Y-87082380D01*
X77541380Y-87177619D01*
X77493761Y-87272857D01*
X77446142Y-87320476D01*
X77350904Y-87368095D01*
X77160428Y-87415714D01*
X76922333Y-87415714D01*
X76731857Y-87368095D01*
X76636619Y-87320476D01*
X76589000Y-87272857D01*
X76541380Y-87177619D01*
X76874714Y-85987142D02*
X77541380Y-85987142D01*
X76493761Y-86225238D02*
X77208047Y-86463333D01*
X77208047Y-85844285D01*
X108140714Y-96480380D02*
X108140714Y-97289904D01*
X108188333Y-97385142D01*
X108235952Y-97432761D01*
X108331190Y-97480380D01*
X108521666Y-97480380D01*
X108616904Y-97432761D01*
X108664523Y-97385142D01*
X108712142Y-97289904D01*
X108712142Y-96480380D01*
X109712142Y-97480380D02*
X109140714Y-97480380D01*
X109426428Y-97480380D02*
X109426428Y-96480380D01*
X109331190Y-96623238D01*
X109235952Y-96718476D01*
X109140714Y-96766095D01*
X110331190Y-96480380D02*
X110426428Y-96480380D01*
X110521666Y-96528000D01*
X110569285Y-96575619D01*
X110616904Y-96670857D01*
X110664523Y-96861333D01*
X110664523Y-97099428D01*
X110616904Y-97289904D01*
X110569285Y-97385142D01*
X110521666Y-97432761D01*
X110426428Y-97480380D01*
X110331190Y-97480380D01*
X110235952Y-97432761D01*
X110188333Y-97385142D01*
X110140714Y-97289904D01*
X110093095Y-97099428D01*
X110093095Y-96861333D01*
X110140714Y-96670857D01*
X110188333Y-96575619D01*
X110235952Y-96528000D01*
X110331190Y-96480380D01*
X111616904Y-97480380D02*
X111045476Y-97480380D01*
X111331190Y-97480380D02*
X111331190Y-96480380D01*
X111235952Y-96623238D01*
X111140714Y-96718476D01*
X111045476Y-96766095D01*
X120848380Y-119800476D02*
X119848380Y-119800476D01*
X119848380Y-119562380D01*
X119896000Y-119419523D01*
X119991238Y-119324285D01*
X120086476Y-119276666D01*
X120276952Y-119229047D01*
X120419809Y-119229047D01*
X120610285Y-119276666D01*
X120705523Y-119324285D01*
X120800761Y-119419523D01*
X120848380Y-119562380D01*
X120848380Y-119800476D01*
X120848380Y-118276666D02*
X120848380Y-118848095D01*
X120848380Y-118562380D02*
X119848380Y-118562380D01*
X119991238Y-118657619D01*
X120086476Y-118752857D01*
X120134095Y-118848095D01*
X119848380Y-117657619D02*
X119848380Y-117562380D01*
X119896000Y-117467142D01*
X119943619Y-117419523D01*
X120038857Y-117371904D01*
X120229333Y-117324285D01*
X120467428Y-117324285D01*
X120657904Y-117371904D01*
X120753142Y-117419523D01*
X120800761Y-117467142D01*
X120848380Y-117562380D01*
X120848380Y-117657619D01*
X120800761Y-117752857D01*
X120753142Y-117800476D01*
X120657904Y-117848095D01*
X120467428Y-117895714D01*
X120229333Y-117895714D01*
X120038857Y-117848095D01*
X119943619Y-117800476D01*
X119896000Y-117752857D01*
X119848380Y-117657619D01*
X120848380Y-116848095D02*
X120848380Y-116657619D01*
X120800761Y-116562380D01*
X120753142Y-116514761D01*
X120610285Y-116419523D01*
X120419809Y-116371904D01*
X120038857Y-116371904D01*
X119943619Y-116419523D01*
X119896000Y-116467142D01*
X119848380Y-116562380D01*
X119848380Y-116752857D01*
X119896000Y-116848095D01*
X119943619Y-116895714D01*
X120038857Y-116943333D01*
X120276952Y-116943333D01*
X120372190Y-116895714D01*
X120419809Y-116848095D01*
X120467428Y-116752857D01*
X120467428Y-116562380D01*
X120419809Y-116467142D01*
X120372190Y-116419523D01*
X120276952Y-116371904D01*
X125928380Y-119800476D02*
X124928380Y-119800476D01*
X124928380Y-119562380D01*
X124976000Y-119419523D01*
X125071238Y-119324285D01*
X125166476Y-119276666D01*
X125356952Y-119229047D01*
X125499809Y-119229047D01*
X125690285Y-119276666D01*
X125785523Y-119324285D01*
X125880761Y-119419523D01*
X125928380Y-119562380D01*
X125928380Y-119800476D01*
X125928380Y-118276666D02*
X125928380Y-118848095D01*
X125928380Y-118562380D02*
X124928380Y-118562380D01*
X125071238Y-118657619D01*
X125166476Y-118752857D01*
X125214095Y-118848095D01*
X125928380Y-117324285D02*
X125928380Y-117895714D01*
X125928380Y-117610000D02*
X124928380Y-117610000D01*
X125071238Y-117705238D01*
X125166476Y-117800476D01*
X125214095Y-117895714D01*
X124928380Y-116705238D02*
X124928380Y-116610000D01*
X124976000Y-116514761D01*
X125023619Y-116467142D01*
X125118857Y-116419523D01*
X125309333Y-116371904D01*
X125547428Y-116371904D01*
X125737904Y-116419523D01*
X125833142Y-116467142D01*
X125880761Y-116514761D01*
X125928380Y-116610000D01*
X125928380Y-116705238D01*
X125880761Y-116800476D01*
X125833142Y-116848095D01*
X125737904Y-116895714D01*
X125547428Y-116943333D01*
X125309333Y-116943333D01*
X125118857Y-116895714D01*
X125023619Y-116848095D01*
X124976000Y-116800476D01*
X124928380Y-116705238D01*
X120848380Y-106338476D02*
X119848380Y-106338476D01*
X119848380Y-106100380D01*
X119896000Y-105957523D01*
X119991238Y-105862285D01*
X120086476Y-105814666D01*
X120276952Y-105767047D01*
X120419809Y-105767047D01*
X120610285Y-105814666D01*
X120705523Y-105862285D01*
X120800761Y-105957523D01*
X120848380Y-106100380D01*
X120848380Y-106338476D01*
X120848380Y-104814666D02*
X120848380Y-105386095D01*
X120848380Y-105100380D02*
X119848380Y-105100380D01*
X119991238Y-105195619D01*
X120086476Y-105290857D01*
X120134095Y-105386095D01*
X120848380Y-103862285D02*
X120848380Y-104433714D01*
X120848380Y-104148000D02*
X119848380Y-104148000D01*
X119991238Y-104243238D01*
X120086476Y-104338476D01*
X120134095Y-104433714D01*
X120848380Y-102909904D02*
X120848380Y-103481333D01*
X120848380Y-103195619D02*
X119848380Y-103195619D01*
X119991238Y-103290857D01*
X120086476Y-103386095D01*
X120134095Y-103481333D01*
X125928380Y-106338476D02*
X124928380Y-106338476D01*
X124928380Y-106100380D01*
X124976000Y-105957523D01*
X125071238Y-105862285D01*
X125166476Y-105814666D01*
X125356952Y-105767047D01*
X125499809Y-105767047D01*
X125690285Y-105814666D01*
X125785523Y-105862285D01*
X125880761Y-105957523D01*
X125928380Y-106100380D01*
X125928380Y-106338476D01*
X125928380Y-104814666D02*
X125928380Y-105386095D01*
X125928380Y-105100380D02*
X124928380Y-105100380D01*
X125071238Y-105195619D01*
X125166476Y-105290857D01*
X125214095Y-105386095D01*
X125928380Y-103862285D02*
X125928380Y-104433714D01*
X125928380Y-104148000D02*
X124928380Y-104148000D01*
X125071238Y-104243238D01*
X125166476Y-104338476D01*
X125214095Y-104433714D01*
X125023619Y-103481333D02*
X124976000Y-103433714D01*
X124928380Y-103338476D01*
X124928380Y-103100380D01*
X124976000Y-103005142D01*
X125023619Y-102957523D01*
X125118857Y-102909904D01*
X125214095Y-102909904D01*
X125356952Y-102957523D01*
X125928380Y-103528952D01*
X125928380Y-102909904D01*
X135977523Y-129230380D02*
X135977523Y-128230380D01*
X136358476Y-128230380D01*
X136453714Y-128278000D01*
X136501333Y-128325619D01*
X136548952Y-128420857D01*
X136548952Y-128563714D01*
X136501333Y-128658952D01*
X136453714Y-128706571D01*
X136358476Y-128754190D01*
X135977523Y-128754190D01*
X137501333Y-129230380D02*
X136929904Y-129230380D01*
X137215619Y-129230380D02*
X137215619Y-128230380D01*
X137120380Y-128373238D01*
X137025142Y-128468476D01*
X136929904Y-128516095D01*
X138120380Y-128230380D02*
X138215619Y-128230380D01*
X138310857Y-128278000D01*
X138358476Y-128325619D01*
X138406095Y-128420857D01*
X138453714Y-128611333D01*
X138453714Y-128849428D01*
X138406095Y-129039904D01*
X138358476Y-129135142D01*
X138310857Y-129182761D01*
X138215619Y-129230380D01*
X138120380Y-129230380D01*
X138025142Y-129182761D01*
X137977523Y-129135142D01*
X137929904Y-129039904D01*
X137882285Y-128849428D01*
X137882285Y-128611333D01*
X137929904Y-128420857D01*
X137977523Y-128325619D01*
X138025142Y-128278000D01*
X138120380Y-128230380D01*
X139406095Y-129230380D02*
X138834666Y-129230380D01*
X139120380Y-129230380D02*
X139120380Y-128230380D01*
X139025142Y-128373238D01*
X138929904Y-128468476D01*
X138834666Y-128516095D01*
X132659380Y-118213047D02*
X132183190Y-118546380D01*
X132659380Y-118784476D02*
X131659380Y-118784476D01*
X131659380Y-118403523D01*
X131707000Y-118308285D01*
X131754619Y-118260666D01*
X131849857Y-118213047D01*
X131992714Y-118213047D01*
X132087952Y-118260666D01*
X132135571Y-118308285D01*
X132183190Y-118403523D01*
X132183190Y-118784476D01*
X132659380Y-117260666D02*
X132659380Y-117832095D01*
X132659380Y-117546380D02*
X131659380Y-117546380D01*
X131802238Y-117641619D01*
X131897476Y-117736857D01*
X131945095Y-117832095D01*
X131659380Y-116641619D02*
X131659380Y-116546380D01*
X131707000Y-116451142D01*
X131754619Y-116403523D01*
X131849857Y-116355904D01*
X132040333Y-116308285D01*
X132278428Y-116308285D01*
X132468904Y-116355904D01*
X132564142Y-116403523D01*
X132611761Y-116451142D01*
X132659380Y-116546380D01*
X132659380Y-116641619D01*
X132611761Y-116736857D01*
X132564142Y-116784476D01*
X132468904Y-116832095D01*
X132278428Y-116879714D01*
X132040333Y-116879714D01*
X131849857Y-116832095D01*
X131754619Y-116784476D01*
X131707000Y-116736857D01*
X131659380Y-116641619D01*
X132659380Y-115355904D02*
X132659380Y-115927333D01*
X132659380Y-115641619D02*
X131659380Y-115641619D01*
X131802238Y-115736857D01*
X131897476Y-115832095D01*
X131945095Y-115927333D01*
X135707380Y-118213047D02*
X135231190Y-118546380D01*
X135707380Y-118784476D02*
X134707380Y-118784476D01*
X134707380Y-118403523D01*
X134755000Y-118308285D01*
X134802619Y-118260666D01*
X134897857Y-118213047D01*
X135040714Y-118213047D01*
X135135952Y-118260666D01*
X135183571Y-118308285D01*
X135231190Y-118403523D01*
X135231190Y-118784476D01*
X135707380Y-117260666D02*
X135707380Y-117832095D01*
X135707380Y-117546380D02*
X134707380Y-117546380D01*
X134850238Y-117641619D01*
X134945476Y-117736857D01*
X134993095Y-117832095D01*
X134707380Y-116641619D02*
X134707380Y-116546380D01*
X134755000Y-116451142D01*
X134802619Y-116403523D01*
X134897857Y-116355904D01*
X135088333Y-116308285D01*
X135326428Y-116308285D01*
X135516904Y-116355904D01*
X135612142Y-116403523D01*
X135659761Y-116451142D01*
X135707380Y-116546380D01*
X135707380Y-116641619D01*
X135659761Y-116736857D01*
X135612142Y-116784476D01*
X135516904Y-116832095D01*
X135326428Y-116879714D01*
X135088333Y-116879714D01*
X134897857Y-116832095D01*
X134802619Y-116784476D01*
X134755000Y-116736857D01*
X134707380Y-116641619D01*
X134802619Y-115927333D02*
X134755000Y-115879714D01*
X134707380Y-115784476D01*
X134707380Y-115546380D01*
X134755000Y-115451142D01*
X134802619Y-115403523D01*
X134897857Y-115355904D01*
X134993095Y-115355904D01*
X135135952Y-115403523D01*
X135707380Y-115974952D01*
X135707380Y-115355904D01*
X139644380Y-118213047D02*
X139168190Y-118546380D01*
X139644380Y-118784476D02*
X138644380Y-118784476D01*
X138644380Y-118403523D01*
X138692000Y-118308285D01*
X138739619Y-118260666D01*
X138834857Y-118213047D01*
X138977714Y-118213047D01*
X139072952Y-118260666D01*
X139120571Y-118308285D01*
X139168190Y-118403523D01*
X139168190Y-118784476D01*
X139644380Y-117260666D02*
X139644380Y-117832095D01*
X139644380Y-117546380D02*
X138644380Y-117546380D01*
X138787238Y-117641619D01*
X138882476Y-117736857D01*
X138930095Y-117832095D01*
X138644380Y-116641619D02*
X138644380Y-116546380D01*
X138692000Y-116451142D01*
X138739619Y-116403523D01*
X138834857Y-116355904D01*
X139025333Y-116308285D01*
X139263428Y-116308285D01*
X139453904Y-116355904D01*
X139549142Y-116403523D01*
X139596761Y-116451142D01*
X139644380Y-116546380D01*
X139644380Y-116641619D01*
X139596761Y-116736857D01*
X139549142Y-116784476D01*
X139453904Y-116832095D01*
X139263428Y-116879714D01*
X139025333Y-116879714D01*
X138834857Y-116832095D01*
X138739619Y-116784476D01*
X138692000Y-116736857D01*
X138644380Y-116641619D01*
X138644380Y-115974952D02*
X138644380Y-115355904D01*
X139025333Y-115689238D01*
X139025333Y-115546380D01*
X139072952Y-115451142D01*
X139120571Y-115403523D01*
X139215809Y-115355904D01*
X139453904Y-115355904D01*
X139549142Y-115403523D01*
X139596761Y-115451142D01*
X139644380Y-115546380D01*
X139644380Y-115832095D01*
X139596761Y-115927333D01*
X139549142Y-115974952D01*
X142692380Y-118213047D02*
X142216190Y-118546380D01*
X142692380Y-118784476D02*
X141692380Y-118784476D01*
X141692380Y-118403523D01*
X141740000Y-118308285D01*
X141787619Y-118260666D01*
X141882857Y-118213047D01*
X142025714Y-118213047D01*
X142120952Y-118260666D01*
X142168571Y-118308285D01*
X142216190Y-118403523D01*
X142216190Y-118784476D01*
X142692380Y-117260666D02*
X142692380Y-117832095D01*
X142692380Y-117546380D02*
X141692380Y-117546380D01*
X141835238Y-117641619D01*
X141930476Y-117736857D01*
X141978095Y-117832095D01*
X141692380Y-116641619D02*
X141692380Y-116546380D01*
X141740000Y-116451142D01*
X141787619Y-116403523D01*
X141882857Y-116355904D01*
X142073333Y-116308285D01*
X142311428Y-116308285D01*
X142501904Y-116355904D01*
X142597142Y-116403523D01*
X142644761Y-116451142D01*
X142692380Y-116546380D01*
X142692380Y-116641619D01*
X142644761Y-116736857D01*
X142597142Y-116784476D01*
X142501904Y-116832095D01*
X142311428Y-116879714D01*
X142073333Y-116879714D01*
X141882857Y-116832095D01*
X141787619Y-116784476D01*
X141740000Y-116736857D01*
X141692380Y-116641619D01*
X142025714Y-115451142D02*
X142692380Y-115451142D01*
X141644761Y-115689238D02*
X142359047Y-115927333D01*
X142359047Y-115308285D01*
X121118380Y-92646285D02*
X121927904Y-92646285D01*
X122023142Y-92598666D01*
X122070761Y-92551047D01*
X122118380Y-92455809D01*
X122118380Y-92265333D01*
X122070761Y-92170095D01*
X122023142Y-92122476D01*
X121927904Y-92074857D01*
X121118380Y-92074857D01*
X122118380Y-91074857D02*
X122118380Y-91646285D01*
X122118380Y-91360571D02*
X121118380Y-91360571D01*
X121261238Y-91455809D01*
X121356476Y-91551047D01*
X121404095Y-91646285D01*
X121118380Y-90455809D02*
X121118380Y-90360571D01*
X121166000Y-90265333D01*
X121213619Y-90217714D01*
X121308857Y-90170095D01*
X121499333Y-90122476D01*
X121737428Y-90122476D01*
X121927904Y-90170095D01*
X122023142Y-90217714D01*
X122070761Y-90265333D01*
X122118380Y-90360571D01*
X122118380Y-90455809D01*
X122070761Y-90551047D01*
X122023142Y-90598666D01*
X121927904Y-90646285D01*
X121737428Y-90693904D01*
X121499333Y-90693904D01*
X121308857Y-90646285D01*
X121213619Y-90598666D01*
X121166000Y-90551047D01*
X121118380Y-90455809D01*
X121213619Y-89741523D02*
X121166000Y-89693904D01*
X121118380Y-89598666D01*
X121118380Y-89360571D01*
X121166000Y-89265333D01*
X121213619Y-89217714D01*
X121308857Y-89170095D01*
X121404095Y-89170095D01*
X121546952Y-89217714D01*
X122118380Y-89789142D01*
X122118380Y-89170095D01*
X133310380Y-92900285D02*
X134119904Y-92900285D01*
X134215142Y-92852666D01*
X134262761Y-92805047D01*
X134310380Y-92709809D01*
X134310380Y-92519333D01*
X134262761Y-92424095D01*
X134215142Y-92376476D01*
X134119904Y-92328857D01*
X133310380Y-92328857D01*
X134310380Y-91328857D02*
X134310380Y-91900285D01*
X134310380Y-91614571D02*
X133310380Y-91614571D01*
X133453238Y-91709809D01*
X133548476Y-91805047D01*
X133596095Y-91900285D01*
X133310380Y-90709809D02*
X133310380Y-90614571D01*
X133358000Y-90519333D01*
X133405619Y-90471714D01*
X133500857Y-90424095D01*
X133691333Y-90376476D01*
X133929428Y-90376476D01*
X134119904Y-90424095D01*
X134215142Y-90471714D01*
X134262761Y-90519333D01*
X134310380Y-90614571D01*
X134310380Y-90709809D01*
X134262761Y-90805047D01*
X134215142Y-90852666D01*
X134119904Y-90900285D01*
X133929428Y-90947904D01*
X133691333Y-90947904D01*
X133500857Y-90900285D01*
X133405619Y-90852666D01*
X133358000Y-90805047D01*
X133310380Y-90709809D01*
X133310380Y-90043142D02*
X133310380Y-89424095D01*
X133691333Y-89757428D01*
X133691333Y-89614571D01*
X133738952Y-89519333D01*
X133786571Y-89471714D01*
X133881809Y-89424095D01*
X134119904Y-89424095D01*
X134215142Y-89471714D01*
X134262761Y-89519333D01*
X134310380Y-89614571D01*
X134310380Y-89900285D01*
X134262761Y-89995523D01*
X134215142Y-90043142D01*
X121118380Y-79438285D02*
X121927904Y-79438285D01*
X122023142Y-79390666D01*
X122070761Y-79343047D01*
X122118380Y-79247809D01*
X122118380Y-79057333D01*
X122070761Y-78962095D01*
X122023142Y-78914476D01*
X121927904Y-78866857D01*
X121118380Y-78866857D01*
X122118380Y-77866857D02*
X122118380Y-78438285D01*
X122118380Y-78152571D02*
X121118380Y-78152571D01*
X121261238Y-78247809D01*
X121356476Y-78343047D01*
X121404095Y-78438285D01*
X121118380Y-77247809D02*
X121118380Y-77152571D01*
X121166000Y-77057333D01*
X121213619Y-77009714D01*
X121308857Y-76962095D01*
X121499333Y-76914476D01*
X121737428Y-76914476D01*
X121927904Y-76962095D01*
X122023142Y-77009714D01*
X122070761Y-77057333D01*
X122118380Y-77152571D01*
X122118380Y-77247809D01*
X122070761Y-77343047D01*
X122023142Y-77390666D01*
X121927904Y-77438285D01*
X121737428Y-77485904D01*
X121499333Y-77485904D01*
X121308857Y-77438285D01*
X121213619Y-77390666D01*
X121166000Y-77343047D01*
X121118380Y-77247809D01*
X121451714Y-76057333D02*
X122118380Y-76057333D01*
X121070761Y-76295428D02*
X121785047Y-76533523D01*
X121785047Y-75914476D01*
X133310380Y-79438285D02*
X134119904Y-79438285D01*
X134215142Y-79390666D01*
X134262761Y-79343047D01*
X134310380Y-79247809D01*
X134310380Y-79057333D01*
X134262761Y-78962095D01*
X134215142Y-78914476D01*
X134119904Y-78866857D01*
X133310380Y-78866857D01*
X134310380Y-77866857D02*
X134310380Y-78438285D01*
X134310380Y-78152571D02*
X133310380Y-78152571D01*
X133453238Y-78247809D01*
X133548476Y-78343047D01*
X133596095Y-78438285D01*
X133310380Y-77247809D02*
X133310380Y-77152571D01*
X133358000Y-77057333D01*
X133405619Y-77009714D01*
X133500857Y-76962095D01*
X133691333Y-76914476D01*
X133929428Y-76914476D01*
X134119904Y-76962095D01*
X134215142Y-77009714D01*
X134262761Y-77057333D01*
X134310380Y-77152571D01*
X134310380Y-77247809D01*
X134262761Y-77343047D01*
X134215142Y-77390666D01*
X134119904Y-77438285D01*
X133929428Y-77485904D01*
X133691333Y-77485904D01*
X133500857Y-77438285D01*
X133405619Y-77390666D01*
X133358000Y-77343047D01*
X133310380Y-77247809D01*
X133310380Y-76009714D02*
X133310380Y-76485904D01*
X133786571Y-76533523D01*
X133738952Y-76485904D01*
X133691333Y-76390666D01*
X133691333Y-76152571D01*
X133738952Y-76057333D01*
X133786571Y-76009714D01*
X133881809Y-75962095D01*
X134119904Y-75962095D01*
X134215142Y-76009714D01*
X134262761Y-76057333D01*
X134310380Y-76152571D01*
X134310380Y-76390666D01*
X134262761Y-76485904D01*
X134215142Y-76533523D01*
X217876380Y-93257476D02*
X216876380Y-93257476D01*
X216876380Y-93019380D01*
X216924000Y-92876523D01*
X217019238Y-92781285D01*
X217114476Y-92733666D01*
X217304952Y-92686047D01*
X217447809Y-92686047D01*
X217638285Y-92733666D01*
X217733523Y-92781285D01*
X217828761Y-92876523D01*
X217876380Y-93019380D01*
X217876380Y-93257476D01*
X217876380Y-91733666D02*
X217876380Y-92305095D01*
X217876380Y-92019380D02*
X216876380Y-92019380D01*
X217019238Y-92114619D01*
X217114476Y-92209857D01*
X217162095Y-92305095D01*
X217876380Y-90781285D02*
X217876380Y-91352714D01*
X217876380Y-91067000D02*
X216876380Y-91067000D01*
X217019238Y-91162238D01*
X217114476Y-91257476D01*
X217162095Y-91352714D01*
X216876380Y-90447952D02*
X216876380Y-89828904D01*
X217257333Y-90162238D01*
X217257333Y-90019380D01*
X217304952Y-89924142D01*
X217352571Y-89876523D01*
X217447809Y-89828904D01*
X217685904Y-89828904D01*
X217781142Y-89876523D01*
X217828761Y-89924142D01*
X217876380Y-90019380D01*
X217876380Y-90305095D01*
X217828761Y-90400333D01*
X217781142Y-90447952D01*
X226766380Y-95797476D02*
X225766380Y-95797476D01*
X225766380Y-95559380D01*
X225814000Y-95416523D01*
X225909238Y-95321285D01*
X226004476Y-95273666D01*
X226194952Y-95226047D01*
X226337809Y-95226047D01*
X226528285Y-95273666D01*
X226623523Y-95321285D01*
X226718761Y-95416523D01*
X226766380Y-95559380D01*
X226766380Y-95797476D01*
X226766380Y-94273666D02*
X226766380Y-94845095D01*
X226766380Y-94559380D02*
X225766380Y-94559380D01*
X225909238Y-94654619D01*
X226004476Y-94749857D01*
X226052095Y-94845095D01*
X226766380Y-93321285D02*
X226766380Y-93892714D01*
X226766380Y-93607000D02*
X225766380Y-93607000D01*
X225909238Y-93702238D01*
X226004476Y-93797476D01*
X226052095Y-93892714D01*
X226099714Y-92464142D02*
X226766380Y-92464142D01*
X225718761Y-92702238D02*
X226433047Y-92940333D01*
X226433047Y-92321285D01*
X217876380Y-108497476D02*
X216876380Y-108497476D01*
X216876380Y-108259380D01*
X216924000Y-108116523D01*
X217019238Y-108021285D01*
X217114476Y-107973666D01*
X217304952Y-107926047D01*
X217447809Y-107926047D01*
X217638285Y-107973666D01*
X217733523Y-108021285D01*
X217828761Y-108116523D01*
X217876380Y-108259380D01*
X217876380Y-108497476D01*
X217876380Y-106973666D02*
X217876380Y-107545095D01*
X217876380Y-107259380D02*
X216876380Y-107259380D01*
X217019238Y-107354619D01*
X217114476Y-107449857D01*
X217162095Y-107545095D01*
X217876380Y-106021285D02*
X217876380Y-106592714D01*
X217876380Y-106307000D02*
X216876380Y-106307000D01*
X217019238Y-106402238D01*
X217114476Y-106497476D01*
X217162095Y-106592714D01*
X216876380Y-105116523D02*
X216876380Y-105592714D01*
X217352571Y-105640333D01*
X217304952Y-105592714D01*
X217257333Y-105497476D01*
X217257333Y-105259380D01*
X217304952Y-105164142D01*
X217352571Y-105116523D01*
X217447809Y-105068904D01*
X217685904Y-105068904D01*
X217781142Y-105116523D01*
X217828761Y-105164142D01*
X217876380Y-105259380D01*
X217876380Y-105497476D01*
X217828761Y-105592714D01*
X217781142Y-105640333D01*
X227398840Y-110730136D02*
X226398840Y-110730136D01*
X226398840Y-110492040D01*
X226446460Y-110349183D01*
X226541698Y-110253945D01*
X226636936Y-110206326D01*
X226827412Y-110158707D01*
X226970269Y-110158707D01*
X227160745Y-110206326D01*
X227255983Y-110253945D01*
X227351221Y-110349183D01*
X227398840Y-110492040D01*
X227398840Y-110730136D01*
X227398840Y-109206326D02*
X227398840Y-109777755D01*
X227398840Y-109492040D02*
X226398840Y-109492040D01*
X226541698Y-109587279D01*
X226636936Y-109682517D01*
X226684555Y-109777755D01*
X227398840Y-108253945D02*
X227398840Y-108825374D01*
X227398840Y-108539660D02*
X226398840Y-108539660D01*
X226541698Y-108634898D01*
X226636936Y-108730136D01*
X226684555Y-108825374D01*
X226398840Y-107396802D02*
X226398840Y-107587279D01*
X226446460Y-107682517D01*
X226494079Y-107730136D01*
X226636936Y-107825374D01*
X226827412Y-107872993D01*
X227208364Y-107872993D01*
X227303602Y-107825374D01*
X227351221Y-107777755D01*
X227398840Y-107682517D01*
X227398840Y-107492040D01*
X227351221Y-107396802D01*
X227303602Y-107349183D01*
X227208364Y-107301564D01*
X226970269Y-107301564D01*
X226875031Y-107349183D01*
X226827412Y-107396802D01*
X226779793Y-107492040D01*
X226779793Y-107682517D01*
X226827412Y-107777755D01*
X226875031Y-107825374D01*
X226970269Y-107872993D01*
X233751380Y-100877476D02*
X232751380Y-100877476D01*
X232751380Y-100496523D01*
X232799000Y-100401285D01*
X232846619Y-100353666D01*
X232941857Y-100306047D01*
X233084714Y-100306047D01*
X233179952Y-100353666D01*
X233227571Y-100401285D01*
X233275190Y-100496523D01*
X233275190Y-100877476D01*
X233751380Y-99353666D02*
X233751380Y-99925095D01*
X233751380Y-99639380D02*
X232751380Y-99639380D01*
X232894238Y-99734619D01*
X232989476Y-99829857D01*
X233037095Y-99925095D01*
X232751380Y-98734619D02*
X232751380Y-98639380D01*
X232799000Y-98544142D01*
X232846619Y-98496523D01*
X232941857Y-98448904D01*
X233132333Y-98401285D01*
X233370428Y-98401285D01*
X233560904Y-98448904D01*
X233656142Y-98496523D01*
X233703761Y-98544142D01*
X233751380Y-98639380D01*
X233751380Y-98734619D01*
X233703761Y-98829857D01*
X233656142Y-98877476D01*
X233560904Y-98925095D01*
X233370428Y-98972714D01*
X233132333Y-98972714D01*
X232941857Y-98925095D01*
X232846619Y-98877476D01*
X232799000Y-98829857D01*
X232751380Y-98734619D01*
X233751380Y-97925095D02*
X233751380Y-97734619D01*
X233703761Y-97639380D01*
X233656142Y-97591761D01*
X233513285Y-97496523D01*
X233322809Y-97448904D01*
X232941857Y-97448904D01*
X232846619Y-97496523D01*
X232799000Y-97544142D01*
X232751380Y-97639380D01*
X232751380Y-97829857D01*
X232799000Y-97925095D01*
X232846619Y-97972714D01*
X232941857Y-98020333D01*
X233179952Y-98020333D01*
X233275190Y-97972714D01*
X233322809Y-97925095D01*
X233370428Y-97829857D01*
X233370428Y-97639380D01*
X233322809Y-97544142D01*
X233275190Y-97496523D01*
X233179952Y-97448904D01*
X210724880Y-97448619D02*
X210629642Y-97401000D01*
X210534404Y-97305761D01*
X210391547Y-97162904D01*
X210296309Y-97115285D01*
X210201071Y-97115285D01*
X210248690Y-97353380D02*
X210153452Y-97305761D01*
X210058214Y-97210523D01*
X210010595Y-97020047D01*
X210010595Y-96686714D01*
X210058214Y-96496238D01*
X210153452Y-96401000D01*
X210248690Y-96353380D01*
X210439166Y-96353380D01*
X210534404Y-96401000D01*
X210629642Y-96496238D01*
X210677261Y-96686714D01*
X210677261Y-97020047D01*
X210629642Y-97210523D01*
X210534404Y-97305761D01*
X210439166Y-97353380D01*
X210248690Y-97353380D01*
X211629642Y-97353380D02*
X211058214Y-97353380D01*
X211343928Y-97353380D02*
X211343928Y-96353380D01*
X211248690Y-96496238D01*
X211153452Y-96591476D01*
X211058214Y-96639095D01*
X212248690Y-96353380D02*
X212343928Y-96353380D01*
X212439166Y-96401000D01*
X212486785Y-96448619D01*
X212534404Y-96543857D01*
X212582023Y-96734333D01*
X212582023Y-96972428D01*
X212534404Y-97162904D01*
X212486785Y-97258142D01*
X212439166Y-97305761D01*
X212343928Y-97353380D01*
X212248690Y-97353380D01*
X212153452Y-97305761D01*
X212105833Y-97258142D01*
X212058214Y-97162904D01*
X212010595Y-96972428D01*
X212010595Y-96734333D01*
X212058214Y-96543857D01*
X212105833Y-96448619D01*
X212153452Y-96401000D01*
X212248690Y-96353380D01*
X213534404Y-97353380D02*
X212962976Y-97353380D01*
X213248690Y-97353380D02*
X213248690Y-96353380D01*
X213153452Y-96496238D01*
X213058214Y-96591476D01*
X212962976Y-96639095D01*
X200183880Y-97448619D02*
X200088642Y-97401000D01*
X199993404Y-97305761D01*
X199850547Y-97162904D01*
X199755309Y-97115285D01*
X199660071Y-97115285D01*
X199707690Y-97353380D02*
X199612452Y-97305761D01*
X199517214Y-97210523D01*
X199469595Y-97020047D01*
X199469595Y-96686714D01*
X199517214Y-96496238D01*
X199612452Y-96401000D01*
X199707690Y-96353380D01*
X199898166Y-96353380D01*
X199993404Y-96401000D01*
X200088642Y-96496238D01*
X200136261Y-96686714D01*
X200136261Y-97020047D01*
X200088642Y-97210523D01*
X199993404Y-97305761D01*
X199898166Y-97353380D01*
X199707690Y-97353380D01*
X201088642Y-97353380D02*
X200517214Y-97353380D01*
X200802928Y-97353380D02*
X200802928Y-96353380D01*
X200707690Y-96496238D01*
X200612452Y-96591476D01*
X200517214Y-96639095D01*
X201707690Y-96353380D02*
X201802928Y-96353380D01*
X201898166Y-96401000D01*
X201945785Y-96448619D01*
X201993404Y-96543857D01*
X202041023Y-96734333D01*
X202041023Y-96972428D01*
X201993404Y-97162904D01*
X201945785Y-97258142D01*
X201898166Y-97305761D01*
X201802928Y-97353380D01*
X201707690Y-97353380D01*
X201612452Y-97305761D01*
X201564833Y-97258142D01*
X201517214Y-97162904D01*
X201469595Y-96972428D01*
X201469595Y-96734333D01*
X201517214Y-96543857D01*
X201564833Y-96448619D01*
X201612452Y-96401000D01*
X201707690Y-96353380D01*
X202421976Y-96448619D02*
X202469595Y-96401000D01*
X202564833Y-96353380D01*
X202802928Y-96353380D01*
X202898166Y-96401000D01*
X202945785Y-96448619D01*
X202993404Y-96543857D01*
X202993404Y-96639095D01*
X202945785Y-96781952D01*
X202374357Y-97353380D01*
X202993404Y-97353380D01*
X200183880Y-101830119D02*
X200088642Y-101782500D01*
X199993404Y-101687261D01*
X199850547Y-101544404D01*
X199755309Y-101496785D01*
X199660071Y-101496785D01*
X199707690Y-101734880D02*
X199612452Y-101687261D01*
X199517214Y-101592023D01*
X199469595Y-101401547D01*
X199469595Y-101068214D01*
X199517214Y-100877738D01*
X199612452Y-100782500D01*
X199707690Y-100734880D01*
X199898166Y-100734880D01*
X199993404Y-100782500D01*
X200088642Y-100877738D01*
X200136261Y-101068214D01*
X200136261Y-101401547D01*
X200088642Y-101592023D01*
X199993404Y-101687261D01*
X199898166Y-101734880D01*
X199707690Y-101734880D01*
X201088642Y-101734880D02*
X200517214Y-101734880D01*
X200802928Y-101734880D02*
X200802928Y-100734880D01*
X200707690Y-100877738D01*
X200612452Y-100972976D01*
X200517214Y-101020595D01*
X201707690Y-100734880D02*
X201802928Y-100734880D01*
X201898166Y-100782500D01*
X201945785Y-100830119D01*
X201993404Y-100925357D01*
X202041023Y-101115833D01*
X202041023Y-101353928D01*
X201993404Y-101544404D01*
X201945785Y-101639642D01*
X201898166Y-101687261D01*
X201802928Y-101734880D01*
X201707690Y-101734880D01*
X201612452Y-101687261D01*
X201564833Y-101639642D01*
X201517214Y-101544404D01*
X201469595Y-101353928D01*
X201469595Y-101115833D01*
X201517214Y-100925357D01*
X201564833Y-100830119D01*
X201612452Y-100782500D01*
X201707690Y-100734880D01*
X202374357Y-100734880D02*
X202993404Y-100734880D01*
X202660071Y-101115833D01*
X202802928Y-101115833D01*
X202898166Y-101163452D01*
X202945785Y-101211071D01*
X202993404Y-101306309D01*
X202993404Y-101544404D01*
X202945785Y-101639642D01*
X202898166Y-101687261D01*
X202802928Y-101734880D01*
X202517214Y-101734880D01*
X202421976Y-101687261D01*
X202374357Y-101639642D01*
X210534380Y-101830119D02*
X210439142Y-101782500D01*
X210343904Y-101687261D01*
X210201047Y-101544404D01*
X210105809Y-101496785D01*
X210010571Y-101496785D01*
X210058190Y-101734880D02*
X209962952Y-101687261D01*
X209867714Y-101592023D01*
X209820095Y-101401547D01*
X209820095Y-101068214D01*
X209867714Y-100877738D01*
X209962952Y-100782500D01*
X210058190Y-100734880D01*
X210248666Y-100734880D01*
X210343904Y-100782500D01*
X210439142Y-100877738D01*
X210486761Y-101068214D01*
X210486761Y-101401547D01*
X210439142Y-101592023D01*
X210343904Y-101687261D01*
X210248666Y-101734880D01*
X210058190Y-101734880D01*
X211439142Y-101734880D02*
X210867714Y-101734880D01*
X211153428Y-101734880D02*
X211153428Y-100734880D01*
X211058190Y-100877738D01*
X210962952Y-100972976D01*
X210867714Y-101020595D01*
X212058190Y-100734880D02*
X212153428Y-100734880D01*
X212248666Y-100782500D01*
X212296285Y-100830119D01*
X212343904Y-100925357D01*
X212391523Y-101115833D01*
X212391523Y-101353928D01*
X212343904Y-101544404D01*
X212296285Y-101639642D01*
X212248666Y-101687261D01*
X212153428Y-101734880D01*
X212058190Y-101734880D01*
X211962952Y-101687261D01*
X211915333Y-101639642D01*
X211867714Y-101544404D01*
X211820095Y-101353928D01*
X211820095Y-101115833D01*
X211867714Y-100925357D01*
X211915333Y-100830119D01*
X211962952Y-100782500D01*
X212058190Y-100734880D01*
X213248666Y-101068214D02*
X213248666Y-101734880D01*
X213010571Y-100687261D02*
X212772476Y-101401547D01*
X213391523Y-101401547D01*
X210938240Y-72056239D02*
X210843002Y-72008620D01*
X210747764Y-71913381D01*
X210604907Y-71770524D01*
X210509669Y-71722905D01*
X210414431Y-71722905D01*
X210462050Y-71961000D02*
X210366812Y-71913381D01*
X210271574Y-71818143D01*
X210223955Y-71627667D01*
X210223955Y-71294334D01*
X210271574Y-71103858D01*
X210366812Y-71008620D01*
X210462050Y-70961000D01*
X210652526Y-70961000D01*
X210747764Y-71008620D01*
X210843002Y-71103858D01*
X210890621Y-71294334D01*
X210890621Y-71627667D01*
X210843002Y-71818143D01*
X210747764Y-71913381D01*
X210652526Y-71961000D01*
X210462050Y-71961000D01*
X211843002Y-71961000D02*
X211271574Y-71961000D01*
X211557288Y-71961000D02*
X211557288Y-70961000D01*
X211462050Y-71103858D01*
X211366812Y-71199096D01*
X211271574Y-71246715D01*
X212462050Y-70961000D02*
X212557288Y-70961000D01*
X212652526Y-71008620D01*
X212700145Y-71056239D01*
X212747764Y-71151477D01*
X212795383Y-71341953D01*
X212795383Y-71580048D01*
X212747764Y-71770524D01*
X212700145Y-71865762D01*
X212652526Y-71913381D01*
X212557288Y-71961000D01*
X212462050Y-71961000D01*
X212366812Y-71913381D01*
X212319193Y-71865762D01*
X212271574Y-71770524D01*
X212223955Y-71580048D01*
X212223955Y-71341953D01*
X212271574Y-71151477D01*
X212319193Y-71056239D01*
X212366812Y-71008620D01*
X212462050Y-70961000D01*
X213700145Y-70961000D02*
X213223955Y-70961000D01*
X213176336Y-71437191D01*
X213223955Y-71389572D01*
X213319193Y-71341953D01*
X213557288Y-71341953D01*
X213652526Y-71389572D01*
X213700145Y-71437191D01*
X213747764Y-71532429D01*
X213747764Y-71770524D01*
X213700145Y-71865762D01*
X213652526Y-71913381D01*
X213557288Y-71961000D01*
X213319193Y-71961000D01*
X213223955Y-71913381D01*
X213176336Y-71865762D01*
X200333740Y-71992739D02*
X200238502Y-71945120D01*
X200143264Y-71849881D01*
X200000407Y-71707024D01*
X199905169Y-71659405D01*
X199809931Y-71659405D01*
X199857550Y-71897500D02*
X199762312Y-71849881D01*
X199667074Y-71754643D01*
X199619455Y-71564167D01*
X199619455Y-71230834D01*
X199667074Y-71040358D01*
X199762312Y-70945120D01*
X199857550Y-70897500D01*
X200048026Y-70897500D01*
X200143264Y-70945120D01*
X200238502Y-71040358D01*
X200286121Y-71230834D01*
X200286121Y-71564167D01*
X200238502Y-71754643D01*
X200143264Y-71849881D01*
X200048026Y-71897500D01*
X199857550Y-71897500D01*
X201238502Y-71897500D02*
X200667074Y-71897500D01*
X200952788Y-71897500D02*
X200952788Y-70897500D01*
X200857550Y-71040358D01*
X200762312Y-71135596D01*
X200667074Y-71183215D01*
X201857550Y-70897500D02*
X201952788Y-70897500D01*
X202048026Y-70945120D01*
X202095645Y-70992739D01*
X202143264Y-71087977D01*
X202190883Y-71278453D01*
X202190883Y-71516548D01*
X202143264Y-71707024D01*
X202095645Y-71802262D01*
X202048026Y-71849881D01*
X201952788Y-71897500D01*
X201857550Y-71897500D01*
X201762312Y-71849881D01*
X201714693Y-71802262D01*
X201667074Y-71707024D01*
X201619455Y-71516548D01*
X201619455Y-71278453D01*
X201667074Y-71087977D01*
X201714693Y-70992739D01*
X201762312Y-70945120D01*
X201857550Y-70897500D01*
X203048026Y-70897500D02*
X202857550Y-70897500D01*
X202762312Y-70945120D01*
X202714693Y-70992739D01*
X202619455Y-71135596D01*
X202571836Y-71326072D01*
X202571836Y-71707024D01*
X202619455Y-71802262D01*
X202667074Y-71849881D01*
X202762312Y-71897500D01*
X202952788Y-71897500D01*
X203048026Y-71849881D01*
X203095645Y-71802262D01*
X203143264Y-71707024D01*
X203143264Y-71468929D01*
X203095645Y-71373691D01*
X203048026Y-71326072D01*
X202952788Y-71278453D01*
X202762312Y-71278453D01*
X202667074Y-71326072D01*
X202619455Y-71373691D01*
X202571836Y-71468929D01*
X199970520Y-127158999D02*
X199875282Y-127111380D01*
X199780044Y-127016141D01*
X199637187Y-126873284D01*
X199541949Y-126825665D01*
X199446711Y-126825665D01*
X199494330Y-127063760D02*
X199399092Y-127016141D01*
X199303854Y-126920903D01*
X199256235Y-126730427D01*
X199256235Y-126397094D01*
X199303854Y-126206618D01*
X199399092Y-126111380D01*
X199494330Y-126063760D01*
X199684806Y-126063760D01*
X199780044Y-126111380D01*
X199875282Y-126206618D01*
X199922901Y-126397094D01*
X199922901Y-126730427D01*
X199875282Y-126920903D01*
X199780044Y-127016141D01*
X199684806Y-127063760D01*
X199494330Y-127063760D01*
X200875282Y-127063760D02*
X200303854Y-127063760D01*
X200589568Y-127063760D02*
X200589568Y-126063760D01*
X200494330Y-126206618D01*
X200399092Y-126301856D01*
X200303854Y-126349475D01*
X201494330Y-126063760D02*
X201589568Y-126063760D01*
X201684806Y-126111380D01*
X201732425Y-126158999D01*
X201780044Y-126254237D01*
X201827663Y-126444713D01*
X201827663Y-126682808D01*
X201780044Y-126873284D01*
X201732425Y-126968522D01*
X201684806Y-127016141D01*
X201589568Y-127063760D01*
X201494330Y-127063760D01*
X201399092Y-127016141D01*
X201351473Y-126968522D01*
X201303854Y-126873284D01*
X201256235Y-126682808D01*
X201256235Y-126444713D01*
X201303854Y-126254237D01*
X201351473Y-126158999D01*
X201399092Y-126111380D01*
X201494330Y-126063760D01*
X202160997Y-126063760D02*
X202827663Y-126063760D01*
X202399092Y-127063760D01*
X210511520Y-127158999D02*
X210416282Y-127111380D01*
X210321044Y-127016141D01*
X210178187Y-126873284D01*
X210082949Y-126825665D01*
X209987711Y-126825665D01*
X210035330Y-127063760D02*
X209940092Y-127016141D01*
X209844854Y-126920903D01*
X209797235Y-126730427D01*
X209797235Y-126397094D01*
X209844854Y-126206618D01*
X209940092Y-126111380D01*
X210035330Y-126063760D01*
X210225806Y-126063760D01*
X210321044Y-126111380D01*
X210416282Y-126206618D01*
X210463901Y-126397094D01*
X210463901Y-126730427D01*
X210416282Y-126920903D01*
X210321044Y-127016141D01*
X210225806Y-127063760D01*
X210035330Y-127063760D01*
X211416282Y-127063760D02*
X210844854Y-127063760D01*
X211130568Y-127063760D02*
X211130568Y-126063760D01*
X211035330Y-126206618D01*
X210940092Y-126301856D01*
X210844854Y-126349475D01*
X212035330Y-126063760D02*
X212130568Y-126063760D01*
X212225806Y-126111380D01*
X212273425Y-126158999D01*
X212321044Y-126254237D01*
X212368663Y-126444713D01*
X212368663Y-126682808D01*
X212321044Y-126873284D01*
X212273425Y-126968522D01*
X212225806Y-127016141D01*
X212130568Y-127063760D01*
X212035330Y-127063760D01*
X211940092Y-127016141D01*
X211892473Y-126968522D01*
X211844854Y-126873284D01*
X211797235Y-126682808D01*
X211797235Y-126444713D01*
X211844854Y-126254237D01*
X211892473Y-126158999D01*
X211940092Y-126111380D01*
X212035330Y-126063760D01*
X212940092Y-126492332D02*
X212844854Y-126444713D01*
X212797235Y-126397094D01*
X212749616Y-126301856D01*
X212749616Y-126254237D01*
X212797235Y-126158999D01*
X212844854Y-126111380D01*
X212940092Y-126063760D01*
X213130568Y-126063760D01*
X213225806Y-126111380D01*
X213273425Y-126158999D01*
X213321044Y-126254237D01*
X213321044Y-126301856D01*
X213273425Y-126397094D01*
X213225806Y-126444713D01*
X213130568Y-126492332D01*
X212940092Y-126492332D01*
X212844854Y-126539951D01*
X212797235Y-126587570D01*
X212749616Y-126682808D01*
X212749616Y-126873284D01*
X212797235Y-126968522D01*
X212844854Y-127016141D01*
X212940092Y-127063760D01*
X213130568Y-127063760D01*
X213225806Y-127016141D01*
X213273425Y-126968522D01*
X213321044Y-126873284D01*
X213321044Y-126682808D01*
X213273425Y-126587570D01*
X213225806Y-126539951D01*
X213130568Y-126492332D01*
X187602952Y-98623380D02*
X187269619Y-98147190D01*
X187031523Y-98623380D02*
X187031523Y-97623380D01*
X187412476Y-97623380D01*
X187507714Y-97671000D01*
X187555333Y-97718619D01*
X187602952Y-97813857D01*
X187602952Y-97956714D01*
X187555333Y-98051952D01*
X187507714Y-98099571D01*
X187412476Y-98147190D01*
X187031523Y-98147190D01*
X188555333Y-98623380D02*
X187983904Y-98623380D01*
X188269619Y-98623380D02*
X188269619Y-97623380D01*
X188174380Y-97766238D01*
X188079142Y-97861476D01*
X187983904Y-97909095D01*
X189507714Y-98623380D02*
X188936285Y-98623380D01*
X189222000Y-98623380D02*
X189222000Y-97623380D01*
X189126761Y-97766238D01*
X189031523Y-97861476D01*
X188936285Y-97909095D01*
X190460095Y-98623380D02*
X189888666Y-98623380D01*
X190174380Y-98623380D02*
X190174380Y-97623380D01*
X190079142Y-97766238D01*
X189983904Y-97861476D01*
X189888666Y-97909095D01*
X187602952Y-106116380D02*
X187269619Y-105640190D01*
X187031523Y-106116380D02*
X187031523Y-105116380D01*
X187412476Y-105116380D01*
X187507714Y-105164000D01*
X187555333Y-105211619D01*
X187602952Y-105306857D01*
X187602952Y-105449714D01*
X187555333Y-105544952D01*
X187507714Y-105592571D01*
X187412476Y-105640190D01*
X187031523Y-105640190D01*
X188555333Y-106116380D02*
X187983904Y-106116380D01*
X188269619Y-106116380D02*
X188269619Y-105116380D01*
X188174380Y-105259238D01*
X188079142Y-105354476D01*
X187983904Y-105402095D01*
X189507714Y-106116380D02*
X188936285Y-106116380D01*
X189222000Y-106116380D02*
X189222000Y-105116380D01*
X189126761Y-105259238D01*
X189031523Y-105354476D01*
X188936285Y-105402095D01*
X189888666Y-105211619D02*
X189936285Y-105164000D01*
X190031523Y-105116380D01*
X190269619Y-105116380D01*
X190364857Y-105164000D01*
X190412476Y-105211619D01*
X190460095Y-105306857D01*
X190460095Y-105402095D01*
X190412476Y-105544952D01*
X189841047Y-106116380D01*
X190460095Y-106116380D01*
X187602952Y-111196380D02*
X187269619Y-110720190D01*
X187031523Y-111196380D02*
X187031523Y-110196380D01*
X187412476Y-110196380D01*
X187507714Y-110244000D01*
X187555333Y-110291619D01*
X187602952Y-110386857D01*
X187602952Y-110529714D01*
X187555333Y-110624952D01*
X187507714Y-110672571D01*
X187412476Y-110720190D01*
X187031523Y-110720190D01*
X188555333Y-111196380D02*
X187983904Y-111196380D01*
X188269619Y-111196380D02*
X188269619Y-110196380D01*
X188174380Y-110339238D01*
X188079142Y-110434476D01*
X187983904Y-110482095D01*
X189507714Y-111196380D02*
X188936285Y-111196380D01*
X189222000Y-111196380D02*
X189222000Y-110196380D01*
X189126761Y-110339238D01*
X189031523Y-110434476D01*
X188936285Y-110482095D01*
X189841047Y-110196380D02*
X190460095Y-110196380D01*
X190126761Y-110577333D01*
X190269619Y-110577333D01*
X190364857Y-110624952D01*
X190412476Y-110672571D01*
X190460095Y-110767809D01*
X190460095Y-111005904D01*
X190412476Y-111101142D01*
X190364857Y-111148761D01*
X190269619Y-111196380D01*
X189983904Y-111196380D01*
X189888666Y-111148761D01*
X189841047Y-111101142D01*
X187602952Y-108656380D02*
X187269619Y-108180190D01*
X187031523Y-108656380D02*
X187031523Y-107656380D01*
X187412476Y-107656380D01*
X187507714Y-107704000D01*
X187555333Y-107751619D01*
X187602952Y-107846857D01*
X187602952Y-107989714D01*
X187555333Y-108084952D01*
X187507714Y-108132571D01*
X187412476Y-108180190D01*
X187031523Y-108180190D01*
X188555333Y-108656380D02*
X187983904Y-108656380D01*
X188269619Y-108656380D02*
X188269619Y-107656380D01*
X188174380Y-107799238D01*
X188079142Y-107894476D01*
X187983904Y-107942095D01*
X189507714Y-108656380D02*
X188936285Y-108656380D01*
X189222000Y-108656380D02*
X189222000Y-107656380D01*
X189126761Y-107799238D01*
X189031523Y-107894476D01*
X188936285Y-107942095D01*
X190364857Y-107989714D02*
X190364857Y-108656380D01*
X190126761Y-107608761D02*
X189888666Y-108323047D01*
X190507714Y-108323047D01*
M02*
