G04 #@! TF.FileFunction,Legend,Top*
%FSLAX46Y46*%
G04 Gerber Fmt 4.6, Leading zero omitted, Abs format (unit mm)*
G04 Created by KiCad (PCBNEW 4.0.5+dfsg1-4) date Sun Nov  1 08:47:06 2020*
%MOMM*%
%LPD*%
G01*
G04 APERTURE LIST*
%ADD10C,0.100000*%
%ADD11C,0.150000*%
%ADD12C,0.300000*%
%ADD13C,0.200000*%
G04 APERTURE END LIST*
D10*
D11*
X154495714Y-76160381D02*
X154495714Y-76969905D01*
X154543333Y-77065143D01*
X154590952Y-77112762D01*
X154686190Y-77160381D01*
X154876667Y-77160381D01*
X154971905Y-77112762D01*
X155019524Y-77065143D01*
X155067143Y-76969905D01*
X155067143Y-76160381D01*
X156067143Y-77160381D02*
X155495714Y-77160381D01*
X155781428Y-77160381D02*
X155781428Y-76160381D01*
X155686190Y-76303238D01*
X155590952Y-76398476D01*
X155495714Y-76446095D01*
X156686190Y-76160381D02*
X156781429Y-76160381D01*
X156876667Y-76208000D01*
X156924286Y-76255619D01*
X156971905Y-76350857D01*
X157019524Y-76541333D01*
X157019524Y-76779429D01*
X156971905Y-76969905D01*
X156924286Y-77065143D01*
X156876667Y-77112762D01*
X156781429Y-77160381D01*
X156686190Y-77160381D01*
X156590952Y-77112762D01*
X156543333Y-77065143D01*
X156495714Y-76969905D01*
X156448095Y-76779429D01*
X156448095Y-76541333D01*
X156495714Y-76350857D01*
X156543333Y-76255619D01*
X156590952Y-76208000D01*
X156686190Y-76160381D01*
X157876667Y-76160381D02*
X157686190Y-76160381D01*
X157590952Y-76208000D01*
X157543333Y-76255619D01*
X157448095Y-76398476D01*
X157400476Y-76588952D01*
X157400476Y-76969905D01*
X157448095Y-77065143D01*
X157495714Y-77112762D01*
X157590952Y-77160381D01*
X157781429Y-77160381D01*
X157876667Y-77112762D01*
X157924286Y-77065143D01*
X157971905Y-76969905D01*
X157971905Y-76731810D01*
X157924286Y-76636571D01*
X157876667Y-76588952D01*
X157781429Y-76541333D01*
X157590952Y-76541333D01*
X157495714Y-76588952D01*
X157448095Y-76636571D01*
X157400476Y-76731810D01*
D12*
X176796858Y-73068571D02*
X176796858Y-71568571D01*
X177154001Y-71568571D01*
X177368286Y-71640000D01*
X177511144Y-71782857D01*
X177582572Y-71925714D01*
X177654001Y-72211429D01*
X177654001Y-72425714D01*
X177582572Y-72711429D01*
X177511144Y-72854286D01*
X177368286Y-72997143D01*
X177154001Y-73068571D01*
X176796858Y-73068571D01*
X178296858Y-73068571D02*
X178296858Y-71568571D01*
X179154001Y-73068571D01*
X179154001Y-71568571D01*
X179868287Y-72925714D02*
X179939715Y-72997143D01*
X179868287Y-73068571D01*
X179796858Y-72997143D01*
X179868287Y-72925714D01*
X179868287Y-73068571D01*
X180582573Y-72925714D02*
X180654001Y-72997143D01*
X180582573Y-73068571D01*
X180511144Y-72997143D01*
X180582573Y-72925714D01*
X180582573Y-73068571D01*
X180582573Y-72140000D02*
X180654001Y-72211429D01*
X180582573Y-72282857D01*
X180511144Y-72211429D01*
X180582573Y-72140000D01*
X180582573Y-72282857D01*
X183154002Y-71568571D02*
X182439716Y-71568571D01*
X182368287Y-72282857D01*
X182439716Y-72211429D01*
X182582573Y-72140000D01*
X182939716Y-72140000D01*
X183082573Y-72211429D01*
X183154002Y-72282857D01*
X183225430Y-72425714D01*
X183225430Y-72782857D01*
X183154002Y-72925714D01*
X183082573Y-72997143D01*
X182939716Y-73068571D01*
X182582573Y-73068571D01*
X182439716Y-72997143D01*
X182368287Y-72925714D01*
X183939715Y-73068571D02*
X184225430Y-73068571D01*
X184368287Y-72997143D01*
X184439715Y-72925714D01*
X184582573Y-72711429D01*
X184654001Y-72425714D01*
X184654001Y-71854286D01*
X184582573Y-71711429D01*
X184511144Y-71640000D01*
X184368287Y-71568571D01*
X184082573Y-71568571D01*
X183939715Y-71640000D01*
X183868287Y-71711429D01*
X183796858Y-71854286D01*
X183796858Y-72211429D01*
X183868287Y-72354286D01*
X183939715Y-72425714D01*
X184082573Y-72497143D01*
X184368287Y-72497143D01*
X184511144Y-72425714D01*
X184582573Y-72354286D01*
X184654001Y-72211429D01*
X186368286Y-71497143D02*
X185082572Y-73425714D01*
X187654001Y-73068571D02*
X186796858Y-73068571D01*
X187225430Y-73068571D02*
X187225430Y-71568571D01*
X187082573Y-71782857D01*
X186939715Y-71925714D01*
X186796858Y-71997143D01*
X189082572Y-73068571D02*
X188225429Y-73068571D01*
X188654001Y-73068571D02*
X188654001Y-71568571D01*
X188511144Y-71782857D01*
X188368286Y-71925714D01*
X188225429Y-71997143D01*
X190796857Y-71497143D02*
X189511143Y-73425714D01*
X191154001Y-71568571D02*
X192082572Y-71568571D01*
X191582572Y-72140000D01*
X191796858Y-72140000D01*
X191939715Y-72211429D01*
X192011144Y-72282857D01*
X192082572Y-72425714D01*
X192082572Y-72782857D01*
X192011144Y-72925714D01*
X191939715Y-72997143D01*
X191796858Y-73068571D01*
X191368286Y-73068571D01*
X191225429Y-72997143D01*
X191154001Y-72925714D01*
D13*
X154432000Y-120904000D02*
X154432000Y-77724000D01*
X179832000Y-120904000D02*
X154432000Y-120904000D01*
X179832000Y-77724000D02*
X179832000Y-120904000D01*
X154432000Y-77724000D02*
X179832000Y-77724000D01*
D10*
X145288000Y-130810000D02*
X187706000Y-130810000D01*
X186690000Y-67818000D02*
X140208000Y-67818000D01*
X74803000Y-67818000D02*
X140335000Y-67818000D01*
X74803000Y-130810000D02*
X74803000Y-67818000D01*
X145415000Y-130810000D02*
X74803000Y-130810000D01*
X235331000Y-130810000D02*
X187579000Y-130810000D01*
X235331000Y-67818000D02*
X235331000Y-130810000D01*
X186563000Y-67818000D02*
X235331000Y-67818000D01*
D11*
X182642000Y-116749000D02*
X189642000Y-116749000D01*
X189642000Y-116749000D02*
X189642000Y-121249000D01*
X189642000Y-121249000D02*
X182642000Y-121249000D01*
X182642000Y-121249000D02*
X182642000Y-116749000D01*
X181965000Y-127534000D02*
X183515000Y-127534000D01*
X187325000Y-127254000D02*
X184785000Y-127254000D01*
X184785000Y-127254000D02*
X184785000Y-124714000D01*
X183515000Y-124434000D02*
X181965000Y-124434000D01*
X181965000Y-124434000D02*
X181965000Y-127534000D01*
X184785000Y-124714000D02*
X187325000Y-124714000D01*
X187325000Y-124714000D02*
X187325000Y-127254000D01*
X164312000Y-74194000D02*
X165862000Y-74194000D01*
X169672000Y-73914000D02*
X167132000Y-73914000D01*
X167132000Y-73914000D02*
X167132000Y-71374000D01*
X165862000Y-71094000D02*
X164312000Y-71094000D01*
X164312000Y-71094000D02*
X164312000Y-74194000D01*
X167132000Y-71374000D02*
X169672000Y-71374000D01*
X169672000Y-71374000D02*
X169672000Y-73914000D01*
X189077000Y-127534000D02*
X190627000Y-127534000D01*
X194437000Y-127254000D02*
X191897000Y-127254000D01*
X191897000Y-127254000D02*
X191897000Y-124714000D01*
X190627000Y-124434000D02*
X189077000Y-124434000D01*
X189077000Y-124434000D02*
X189077000Y-127534000D01*
X191897000Y-124714000D02*
X194437000Y-124714000D01*
X194437000Y-124714000D02*
X194437000Y-127254000D01*
X184912000Y-113284000D02*
X185420000Y-113284000D01*
X192532000Y-113284000D02*
X192024000Y-113284000D01*
X192024000Y-113284000D02*
X192024000Y-112268000D01*
X192024000Y-112268000D02*
X185420000Y-112268000D01*
X185420000Y-112268000D02*
X185420000Y-114300000D01*
X185420000Y-114300000D02*
X192024000Y-114300000D01*
X192024000Y-114300000D02*
X192024000Y-113284000D01*
X185420000Y-112776000D02*
X185928000Y-112268000D01*
X164592000Y-124434000D02*
X163042000Y-124434000D01*
X163042000Y-124434000D02*
X163042000Y-127534000D01*
X163042000Y-127534000D02*
X164592000Y-127534000D01*
X165862000Y-124714000D02*
X170942000Y-124714000D01*
X170942000Y-124714000D02*
X170942000Y-127254000D01*
X170942000Y-127254000D02*
X165862000Y-127254000D01*
X165862000Y-127254000D02*
X165862000Y-124714000D01*
X165227000Y-90424000D02*
X165227000Y-89916000D01*
X165227000Y-82804000D02*
X165227000Y-83312000D01*
X165227000Y-83312000D02*
X164211000Y-83312000D01*
X164211000Y-83312000D02*
X164211000Y-89916000D01*
X164211000Y-89916000D02*
X166243000Y-89916000D01*
X166243000Y-89916000D02*
X166243000Y-83312000D01*
X166243000Y-83312000D02*
X165227000Y-83312000D01*
X164719000Y-89916000D02*
X164211000Y-89408000D01*
X172212000Y-90424000D02*
X172212000Y-89916000D01*
X172212000Y-82804000D02*
X172212000Y-83312000D01*
X172212000Y-83312000D02*
X171196000Y-83312000D01*
X171196000Y-83312000D02*
X171196000Y-89916000D01*
X171196000Y-89916000D02*
X173228000Y-89916000D01*
X173228000Y-89916000D02*
X173228000Y-83312000D01*
X173228000Y-83312000D02*
X172212000Y-83312000D01*
X171704000Y-89916000D02*
X171196000Y-89408000D01*
X169037000Y-90424000D02*
X169037000Y-89916000D01*
X169037000Y-82804000D02*
X169037000Y-83312000D01*
X169037000Y-83312000D02*
X168021000Y-83312000D01*
X168021000Y-83312000D02*
X168021000Y-89916000D01*
X168021000Y-89916000D02*
X170053000Y-89916000D01*
X170053000Y-89916000D02*
X170053000Y-83312000D01*
X170053000Y-83312000D02*
X169037000Y-83312000D01*
X168529000Y-89916000D02*
X168021000Y-89408000D01*
X162052000Y-90424000D02*
X162052000Y-89916000D01*
X162052000Y-82804000D02*
X162052000Y-83312000D01*
X162052000Y-83312000D02*
X161036000Y-83312000D01*
X161036000Y-83312000D02*
X161036000Y-89916000D01*
X161036000Y-89916000D02*
X163068000Y-89916000D01*
X163068000Y-89916000D02*
X163068000Y-83312000D01*
X163068000Y-83312000D02*
X162052000Y-83312000D01*
X161544000Y-89916000D02*
X161036000Y-89408000D01*
X162052000Y-101219000D02*
X162052000Y-100711000D01*
X162052000Y-93599000D02*
X162052000Y-94107000D01*
X162052000Y-94107000D02*
X161036000Y-94107000D01*
X161036000Y-94107000D02*
X161036000Y-100711000D01*
X161036000Y-100711000D02*
X163068000Y-100711000D01*
X163068000Y-100711000D02*
X163068000Y-94107000D01*
X163068000Y-94107000D02*
X162052000Y-94107000D01*
X161544000Y-100711000D02*
X161036000Y-100203000D01*
X155702000Y-117094000D02*
X155702000Y-78994000D01*
X155702000Y-78994000D02*
X158242000Y-78994000D01*
X158242000Y-78994000D02*
X158242000Y-117094000D01*
X158522000Y-119914000D02*
X158522000Y-118364000D01*
X158242000Y-117094000D02*
X155702000Y-117094000D01*
X155422000Y-118364000D02*
X155422000Y-119914000D01*
X155422000Y-119914000D02*
X158522000Y-119914000D01*
X176022000Y-91694000D02*
X176022000Y-119634000D01*
X176022000Y-119634000D02*
X178562000Y-119634000D01*
X178562000Y-119634000D02*
X178562000Y-91694000D01*
X175742000Y-88874000D02*
X175742000Y-90424000D01*
X176022000Y-91694000D02*
X178562000Y-91694000D01*
X178842000Y-90424000D02*
X178842000Y-88874000D01*
X178842000Y-88874000D02*
X175742000Y-88874000D01*
X109902000Y-115889000D02*
X109902000Y-123887000D01*
X110042000Y-115894000D02*
X110042000Y-123882000D01*
X110182000Y-115904000D02*
X110182000Y-123872000D01*
X110322000Y-115919000D02*
X110322000Y-123857000D01*
X110462000Y-115939000D02*
X110462000Y-123837000D01*
X110602000Y-115964000D02*
X110602000Y-119666000D01*
X110602000Y-120110000D02*
X110602000Y-123812000D01*
X110742000Y-115994000D02*
X110742000Y-119338000D01*
X110742000Y-120438000D02*
X110742000Y-123782000D01*
X110882000Y-116030000D02*
X110882000Y-119169000D01*
X110882000Y-120607000D02*
X110882000Y-123746000D01*
X111022000Y-116071000D02*
X111022000Y-119056000D01*
X111022000Y-120720000D02*
X111022000Y-123705000D01*
X111162000Y-116117000D02*
X111162000Y-118978000D01*
X111162000Y-120798000D02*
X111162000Y-123659000D01*
X111302000Y-116170000D02*
X111302000Y-118927000D01*
X111302000Y-120849000D02*
X111302000Y-123606000D01*
X111442000Y-116229000D02*
X111442000Y-118897000D01*
X111442000Y-120879000D02*
X111442000Y-123547000D01*
X111582000Y-116294000D02*
X111582000Y-118888000D01*
X111582000Y-120888000D02*
X111582000Y-123482000D01*
X111722000Y-116365000D02*
X111722000Y-118899000D01*
X111722000Y-120877000D02*
X111722000Y-123411000D01*
X111862000Y-116444000D02*
X111862000Y-118929000D01*
X111862000Y-120847000D02*
X111862000Y-123332000D01*
X112002000Y-116531000D02*
X112002000Y-118983000D01*
X112002000Y-120793000D02*
X112002000Y-123245000D01*
X112142000Y-116626000D02*
X112142000Y-119063000D01*
X112142000Y-120713000D02*
X112142000Y-123150000D01*
X112282000Y-116730000D02*
X112282000Y-119179000D01*
X112282000Y-120597000D02*
X112282000Y-123046000D01*
X112422000Y-116844000D02*
X112422000Y-119353000D01*
X112422000Y-120423000D02*
X112422000Y-122932000D01*
X112562000Y-116969000D02*
X112562000Y-119715000D01*
X112562000Y-120061000D02*
X112562000Y-122807000D01*
X112702000Y-117107000D02*
X112702000Y-122669000D01*
X112842000Y-117259000D02*
X112842000Y-122517000D01*
X112982000Y-117429000D02*
X112982000Y-122347000D01*
X113122000Y-117620000D02*
X113122000Y-122156000D01*
X113262000Y-117838000D02*
X113262000Y-121938000D01*
X113402000Y-118094000D02*
X113402000Y-121682000D01*
X113542000Y-118405000D02*
X113542000Y-121371000D01*
X113682000Y-118821000D02*
X113682000Y-120955000D01*
X113822000Y-119688000D02*
X113822000Y-120088000D01*
X112577000Y-119888000D02*
G75*
G03X112577000Y-119888000I-1000000J0D01*
G01*
X113864500Y-119888000D02*
G75*
G03X113864500Y-119888000I-4037500J0D01*
G01*
X109902000Y-101919000D02*
X109902000Y-109917000D01*
X110042000Y-101924000D02*
X110042000Y-109912000D01*
X110182000Y-101934000D02*
X110182000Y-109902000D01*
X110322000Y-101949000D02*
X110322000Y-109887000D01*
X110462000Y-101969000D02*
X110462000Y-109867000D01*
X110602000Y-101994000D02*
X110602000Y-105696000D01*
X110602000Y-106140000D02*
X110602000Y-109842000D01*
X110742000Y-102024000D02*
X110742000Y-105368000D01*
X110742000Y-106468000D02*
X110742000Y-109812000D01*
X110882000Y-102060000D02*
X110882000Y-105199000D01*
X110882000Y-106637000D02*
X110882000Y-109776000D01*
X111022000Y-102101000D02*
X111022000Y-105086000D01*
X111022000Y-106750000D02*
X111022000Y-109735000D01*
X111162000Y-102147000D02*
X111162000Y-105008000D01*
X111162000Y-106828000D02*
X111162000Y-109689000D01*
X111302000Y-102200000D02*
X111302000Y-104957000D01*
X111302000Y-106879000D02*
X111302000Y-109636000D01*
X111442000Y-102259000D02*
X111442000Y-104927000D01*
X111442000Y-106909000D02*
X111442000Y-109577000D01*
X111582000Y-102324000D02*
X111582000Y-104918000D01*
X111582000Y-106918000D02*
X111582000Y-109512000D01*
X111722000Y-102395000D02*
X111722000Y-104929000D01*
X111722000Y-106907000D02*
X111722000Y-109441000D01*
X111862000Y-102474000D02*
X111862000Y-104959000D01*
X111862000Y-106877000D02*
X111862000Y-109362000D01*
X112002000Y-102561000D02*
X112002000Y-105013000D01*
X112002000Y-106823000D02*
X112002000Y-109275000D01*
X112142000Y-102656000D02*
X112142000Y-105093000D01*
X112142000Y-106743000D02*
X112142000Y-109180000D01*
X112282000Y-102760000D02*
X112282000Y-105209000D01*
X112282000Y-106627000D02*
X112282000Y-109076000D01*
X112422000Y-102874000D02*
X112422000Y-105383000D01*
X112422000Y-106453000D02*
X112422000Y-108962000D01*
X112562000Y-102999000D02*
X112562000Y-105745000D01*
X112562000Y-106091000D02*
X112562000Y-108837000D01*
X112702000Y-103137000D02*
X112702000Y-108699000D01*
X112842000Y-103289000D02*
X112842000Y-108547000D01*
X112982000Y-103459000D02*
X112982000Y-108377000D01*
X113122000Y-103650000D02*
X113122000Y-108186000D01*
X113262000Y-103868000D02*
X113262000Y-107968000D01*
X113402000Y-104124000D02*
X113402000Y-107712000D01*
X113542000Y-104435000D02*
X113542000Y-107401000D01*
X113682000Y-104851000D02*
X113682000Y-106985000D01*
X113822000Y-105718000D02*
X113822000Y-106118000D01*
X112577000Y-105918000D02*
G75*
G03X112577000Y-105918000I-1000000J0D01*
G01*
X113864500Y-105918000D02*
G75*
G03X113864500Y-105918000I-4037500J0D01*
G01*
X119852000Y-91964000D02*
X119852000Y-98964000D01*
X119852000Y-98964000D02*
X115352000Y-98964000D01*
X115352000Y-98964000D02*
X115352000Y-91964000D01*
X115352000Y-91964000D02*
X119852000Y-91964000D01*
X87503000Y-102872540D02*
X86487000Y-102872540D01*
X92329000Y-102872540D02*
X93599000Y-102872540D01*
X92075000Y-104142540D02*
X92075000Y-101602540D01*
X91821000Y-104142540D02*
X91821000Y-101602540D01*
X91567000Y-104142540D02*
X91567000Y-101602540D01*
X92329000Y-104142540D02*
X92329000Y-101602540D01*
X91313000Y-104142540D02*
X92583000Y-101602540D01*
X92583000Y-104142540D02*
X91313000Y-101602540D01*
X91313000Y-104142540D02*
X91313000Y-101602540D01*
X91948000Y-104142540D02*
X91948000Y-101602540D01*
X92583000Y-101602540D02*
X92583000Y-104142540D01*
X92583000Y-104142540D02*
X87503000Y-104142540D01*
X87503000Y-104142540D02*
X87503000Y-101602540D01*
X87503000Y-101602540D02*
X92583000Y-101602540D01*
X92583000Y-107947460D02*
X93599000Y-107947460D01*
X87757000Y-107947460D02*
X86487000Y-107947460D01*
X88011000Y-106677460D02*
X88011000Y-109217460D01*
X88265000Y-106677460D02*
X88265000Y-109217460D01*
X88519000Y-106677460D02*
X88519000Y-109217460D01*
X87757000Y-106677460D02*
X87757000Y-109217460D01*
X88773000Y-106677460D02*
X87503000Y-109217460D01*
X87503000Y-106677460D02*
X88773000Y-109217460D01*
X88773000Y-106677460D02*
X88773000Y-109217460D01*
X88138000Y-106677460D02*
X88138000Y-109217460D01*
X87503000Y-109217460D02*
X87503000Y-106677460D01*
X87503000Y-106677460D02*
X92583000Y-106677460D01*
X92583000Y-106677460D02*
X92583000Y-109217460D01*
X92583000Y-109217460D02*
X87503000Y-109217460D01*
X87503000Y-113032540D02*
X86487000Y-113032540D01*
X92329000Y-113032540D02*
X93599000Y-113032540D01*
X92075000Y-114302540D02*
X92075000Y-111762540D01*
X91821000Y-114302540D02*
X91821000Y-111762540D01*
X91567000Y-114302540D02*
X91567000Y-111762540D01*
X92329000Y-114302540D02*
X92329000Y-111762540D01*
X91313000Y-114302540D02*
X92583000Y-111762540D01*
X92583000Y-114302540D02*
X91313000Y-111762540D01*
X91313000Y-114302540D02*
X91313000Y-111762540D01*
X91948000Y-114302540D02*
X91948000Y-111762540D01*
X92583000Y-111762540D02*
X92583000Y-114302540D01*
X92583000Y-114302540D02*
X87503000Y-114302540D01*
X87503000Y-114302540D02*
X87503000Y-111762540D01*
X87503000Y-111762540D02*
X92583000Y-111762540D01*
X92583000Y-118107460D02*
X93599000Y-118107460D01*
X87757000Y-118107460D02*
X86487000Y-118107460D01*
X88011000Y-116837460D02*
X88011000Y-119377460D01*
X88265000Y-116837460D02*
X88265000Y-119377460D01*
X88519000Y-116837460D02*
X88519000Y-119377460D01*
X87757000Y-116837460D02*
X87757000Y-119377460D01*
X88773000Y-116837460D02*
X87503000Y-119377460D01*
X87503000Y-116837460D02*
X88773000Y-119377460D01*
X88773000Y-116837460D02*
X88773000Y-119377460D01*
X88138000Y-116837460D02*
X88138000Y-119377460D01*
X87503000Y-119377460D02*
X87503000Y-116837460D01*
X87503000Y-116837460D02*
X92583000Y-116837460D01*
X92583000Y-116837460D02*
X92583000Y-119377460D01*
X92583000Y-119377460D02*
X87503000Y-119377460D01*
X87503000Y-80012540D02*
X86487000Y-80012540D01*
X92329000Y-80012540D02*
X93599000Y-80012540D01*
X92075000Y-81282540D02*
X92075000Y-78742540D01*
X91821000Y-81282540D02*
X91821000Y-78742540D01*
X91567000Y-81282540D02*
X91567000Y-78742540D01*
X92329000Y-81282540D02*
X92329000Y-78742540D01*
X91313000Y-81282540D02*
X92583000Y-78742540D01*
X92583000Y-81282540D02*
X91313000Y-78742540D01*
X91313000Y-81282540D02*
X91313000Y-78742540D01*
X91948000Y-81282540D02*
X91948000Y-78742540D01*
X92583000Y-78742540D02*
X92583000Y-81282540D01*
X92583000Y-81282540D02*
X87503000Y-81282540D01*
X87503000Y-81282540D02*
X87503000Y-78742540D01*
X87503000Y-78742540D02*
X92583000Y-78742540D01*
X92583000Y-85087460D02*
X93599000Y-85087460D01*
X87757000Y-85087460D02*
X86487000Y-85087460D01*
X88011000Y-83817460D02*
X88011000Y-86357460D01*
X88265000Y-83817460D02*
X88265000Y-86357460D01*
X88519000Y-83817460D02*
X88519000Y-86357460D01*
X87757000Y-83817460D02*
X87757000Y-86357460D01*
X88773000Y-83817460D02*
X87503000Y-86357460D01*
X87503000Y-83817460D02*
X88773000Y-86357460D01*
X88773000Y-83817460D02*
X88773000Y-86357460D01*
X88138000Y-83817460D02*
X88138000Y-86357460D01*
X87503000Y-86357460D02*
X87503000Y-83817460D01*
X87503000Y-83817460D02*
X92583000Y-83817460D01*
X92583000Y-83817460D02*
X92583000Y-86357460D01*
X92583000Y-86357460D02*
X87503000Y-86357460D01*
X87503000Y-90172540D02*
X86487000Y-90172540D01*
X92329000Y-90172540D02*
X93599000Y-90172540D01*
X92075000Y-91442540D02*
X92075000Y-88902540D01*
X91821000Y-91442540D02*
X91821000Y-88902540D01*
X91567000Y-91442540D02*
X91567000Y-88902540D01*
X92329000Y-91442540D02*
X92329000Y-88902540D01*
X91313000Y-91442540D02*
X92583000Y-88902540D01*
X92583000Y-91442540D02*
X91313000Y-88902540D01*
X91313000Y-91442540D02*
X91313000Y-88902540D01*
X91948000Y-91442540D02*
X91948000Y-88902540D01*
X92583000Y-88902540D02*
X92583000Y-91442540D01*
X92583000Y-91442540D02*
X87503000Y-91442540D01*
X87503000Y-91442540D02*
X87503000Y-88902540D01*
X87503000Y-88902540D02*
X92583000Y-88902540D01*
X92583000Y-95247460D02*
X93599000Y-95247460D01*
X87757000Y-95247460D02*
X86487000Y-95247460D01*
X88011000Y-93977460D02*
X88011000Y-96517460D01*
X88265000Y-93977460D02*
X88265000Y-96517460D01*
X88519000Y-93977460D02*
X88519000Y-96517460D01*
X87757000Y-93977460D02*
X87757000Y-96517460D01*
X88773000Y-93977460D02*
X87503000Y-96517460D01*
X87503000Y-93977460D02*
X88773000Y-96517460D01*
X88773000Y-93977460D02*
X88773000Y-96517460D01*
X88138000Y-93977460D02*
X88138000Y-96517460D01*
X87503000Y-96517460D02*
X87503000Y-93977460D01*
X87503000Y-93977460D02*
X92583000Y-93977460D01*
X92583000Y-93977460D02*
X92583000Y-96517460D01*
X92583000Y-96517460D02*
X87503000Y-96517460D01*
X93573000Y-127280000D02*
X95123000Y-127280000D01*
X98933000Y-127000000D02*
X96393000Y-127000000D01*
X96393000Y-127000000D02*
X96393000Y-124460000D01*
X95123000Y-124180000D02*
X93573000Y-124180000D01*
X93573000Y-124180000D02*
X93573000Y-127280000D01*
X96393000Y-124460000D02*
X98933000Y-124460000D01*
X98933000Y-124460000D02*
X98933000Y-127000000D01*
X78333000Y-107924000D02*
X78333000Y-109474000D01*
X78613000Y-113284000D02*
X78613000Y-110744000D01*
X78613000Y-110744000D02*
X81153000Y-110744000D01*
X81433000Y-109474000D02*
X81433000Y-107924000D01*
X81433000Y-107924000D02*
X78333000Y-107924000D01*
X81153000Y-110744000D02*
X81153000Y-113284000D01*
X81153000Y-113284000D02*
X78613000Y-113284000D01*
X78333000Y-84556000D02*
X78333000Y-86106000D01*
X78613000Y-89916000D02*
X78613000Y-87376000D01*
X78613000Y-87376000D02*
X81153000Y-87376000D01*
X81433000Y-86106000D02*
X81433000Y-84556000D01*
X81433000Y-84556000D02*
X78333000Y-84556000D01*
X81153000Y-87376000D02*
X81153000Y-89916000D01*
X81153000Y-89916000D02*
X78613000Y-89916000D01*
X107061000Y-89535000D02*
X107061000Y-90932000D01*
X109601000Y-89535000D02*
X109601000Y-90932000D01*
X112141000Y-89535000D02*
X112141000Y-90932000D01*
X112115472Y-76454000D02*
G75*
G03X112115472Y-76454000I-2514472J0D01*
G01*
X114935000Y-81026000D02*
X114935000Y-73025000D01*
X114935000Y-73025000D02*
X104267000Y-73025000D01*
X104267000Y-73025000D02*
X104267000Y-81026000D01*
X114935000Y-89535000D02*
X114935000Y-81026000D01*
X114935000Y-81026000D02*
X104267000Y-81026000D01*
X104267000Y-81026000D02*
X104267000Y-89535000D01*
X109601000Y-89535000D02*
X104267000Y-89535000D01*
X109601000Y-89535000D02*
X114935000Y-89535000D01*
X122679460Y-115824000D02*
X122679460Y-114808000D01*
X122679460Y-120650000D02*
X122679460Y-121920000D01*
X121409460Y-120396000D02*
X123949460Y-120396000D01*
X121409460Y-120142000D02*
X123949460Y-120142000D01*
X121409460Y-119888000D02*
X123949460Y-119888000D01*
X121409460Y-120650000D02*
X123949460Y-120650000D01*
X121409460Y-119634000D02*
X123949460Y-120904000D01*
X121409460Y-120904000D02*
X123949460Y-119634000D01*
X121409460Y-119634000D02*
X123949460Y-119634000D01*
X121409460Y-120269000D02*
X123949460Y-120269000D01*
X123949460Y-120904000D02*
X121409460Y-120904000D01*
X121409460Y-120904000D02*
X121409460Y-115824000D01*
X121409460Y-115824000D02*
X123949460Y-115824000D01*
X123949460Y-115824000D02*
X123949460Y-120904000D01*
X127759460Y-115824000D02*
X127759460Y-114808000D01*
X127759460Y-120650000D02*
X127759460Y-121920000D01*
X126489460Y-120396000D02*
X129029460Y-120396000D01*
X126489460Y-120142000D02*
X129029460Y-120142000D01*
X126489460Y-119888000D02*
X129029460Y-119888000D01*
X126489460Y-120650000D02*
X129029460Y-120650000D01*
X126489460Y-119634000D02*
X129029460Y-120904000D01*
X126489460Y-120904000D02*
X129029460Y-119634000D01*
X126489460Y-119634000D02*
X129029460Y-119634000D01*
X126489460Y-120269000D02*
X129029460Y-120269000D01*
X129029460Y-120904000D02*
X126489460Y-120904000D01*
X126489460Y-120904000D02*
X126489460Y-115824000D01*
X126489460Y-115824000D02*
X129029460Y-115824000D01*
X129029460Y-115824000D02*
X129029460Y-120904000D01*
X122684540Y-106934000D02*
X122684540Y-107950000D01*
X122684540Y-102108000D02*
X122684540Y-100838000D01*
X123954540Y-102362000D02*
X121414540Y-102362000D01*
X123954540Y-102616000D02*
X121414540Y-102616000D01*
X123954540Y-102870000D02*
X121414540Y-102870000D01*
X123954540Y-102108000D02*
X121414540Y-102108000D01*
X123954540Y-103124000D02*
X121414540Y-101854000D01*
X123954540Y-101854000D02*
X121414540Y-103124000D01*
X123954540Y-103124000D02*
X121414540Y-103124000D01*
X123954540Y-102489000D02*
X121414540Y-102489000D01*
X121414540Y-101854000D02*
X123954540Y-101854000D01*
X123954540Y-101854000D02*
X123954540Y-106934000D01*
X123954540Y-106934000D02*
X121414540Y-106934000D01*
X121414540Y-106934000D02*
X121414540Y-101854000D01*
X127764540Y-106934000D02*
X127764540Y-107950000D01*
X127764540Y-102108000D02*
X127764540Y-100838000D01*
X129034540Y-102362000D02*
X126494540Y-102362000D01*
X129034540Y-102616000D02*
X126494540Y-102616000D01*
X129034540Y-102870000D02*
X126494540Y-102870000D01*
X129034540Y-102108000D02*
X126494540Y-102108000D01*
X129034540Y-103124000D02*
X126494540Y-101854000D01*
X129034540Y-101854000D02*
X126494540Y-103124000D01*
X129034540Y-103124000D02*
X126494540Y-103124000D01*
X129034540Y-102489000D02*
X126494540Y-102489000D01*
X126494540Y-101854000D02*
X129034540Y-101854000D01*
X129034540Y-101854000D02*
X129034540Y-106934000D01*
X129034540Y-106934000D02*
X126494540Y-106934000D01*
X126494540Y-106934000D02*
X126494540Y-101854000D01*
X133477000Y-127254000D02*
X143637000Y-127254000D01*
X143637000Y-127254000D02*
X143637000Y-124714000D01*
X143637000Y-124714000D02*
X133477000Y-124714000D01*
X130657000Y-127534000D02*
X132207000Y-127534000D01*
X133477000Y-127254000D02*
X133477000Y-124714000D01*
X132207000Y-124434000D02*
X130657000Y-124434000D01*
X130657000Y-124434000D02*
X130657000Y-127534000D01*
X132207000Y-113284000D02*
X132207000Y-113792000D01*
X132207000Y-120904000D02*
X132207000Y-120396000D01*
X132207000Y-120396000D02*
X133223000Y-120396000D01*
X133223000Y-120396000D02*
X133223000Y-113792000D01*
X133223000Y-113792000D02*
X131191000Y-113792000D01*
X131191000Y-113792000D02*
X131191000Y-120396000D01*
X131191000Y-120396000D02*
X132207000Y-120396000D01*
X132715000Y-113792000D02*
X133223000Y-114300000D01*
X135382000Y-113284000D02*
X135382000Y-113792000D01*
X135382000Y-120904000D02*
X135382000Y-120396000D01*
X135382000Y-120396000D02*
X136398000Y-120396000D01*
X136398000Y-120396000D02*
X136398000Y-113792000D01*
X136398000Y-113792000D02*
X134366000Y-113792000D01*
X134366000Y-113792000D02*
X134366000Y-120396000D01*
X134366000Y-120396000D02*
X135382000Y-120396000D01*
X135890000Y-113792000D02*
X136398000Y-114300000D01*
X139192000Y-113284000D02*
X139192000Y-113792000D01*
X139192000Y-120904000D02*
X139192000Y-120396000D01*
X139192000Y-120396000D02*
X140208000Y-120396000D01*
X140208000Y-120396000D02*
X140208000Y-113792000D01*
X140208000Y-113792000D02*
X138176000Y-113792000D01*
X138176000Y-113792000D02*
X138176000Y-120396000D01*
X138176000Y-120396000D02*
X139192000Y-120396000D01*
X139700000Y-113792000D02*
X140208000Y-114300000D01*
X142367000Y-113284000D02*
X142367000Y-113792000D01*
X142367000Y-120904000D02*
X142367000Y-120396000D01*
X142367000Y-120396000D02*
X143383000Y-120396000D01*
X143383000Y-120396000D02*
X143383000Y-113792000D01*
X143383000Y-113792000D02*
X141351000Y-113792000D01*
X141351000Y-113792000D02*
X141351000Y-120396000D01*
X141351000Y-120396000D02*
X142367000Y-120396000D01*
X142875000Y-113792000D02*
X143383000Y-114300000D01*
X122927000Y-94734000D02*
X124197000Y-94734000D01*
X122927000Y-87384000D02*
X124197000Y-87384000D01*
X132597000Y-87384000D02*
X131327000Y-87384000D01*
X132597000Y-94734000D02*
X131327000Y-94734000D01*
X122927000Y-94734000D02*
X122927000Y-87384000D01*
X132597000Y-94734000D02*
X132597000Y-87384000D01*
X124197000Y-94734000D02*
X124197000Y-96019000D01*
X134992000Y-94734000D02*
X136262000Y-94734000D01*
X134992000Y-87384000D02*
X136262000Y-87384000D01*
X144662000Y-87384000D02*
X143392000Y-87384000D01*
X144662000Y-94734000D02*
X143392000Y-94734000D01*
X134992000Y-94734000D02*
X134992000Y-87384000D01*
X144662000Y-94734000D02*
X144662000Y-87384000D01*
X136262000Y-94734000D02*
X136262000Y-96019000D01*
X122927000Y-81399000D02*
X124197000Y-81399000D01*
X122927000Y-74049000D02*
X124197000Y-74049000D01*
X132597000Y-74049000D02*
X131327000Y-74049000D01*
X132597000Y-81399000D02*
X131327000Y-81399000D01*
X122927000Y-81399000D02*
X122927000Y-74049000D01*
X132597000Y-81399000D02*
X132597000Y-74049000D01*
X124197000Y-81399000D02*
X124197000Y-82684000D01*
X134992000Y-81399000D02*
X136262000Y-81399000D01*
X134992000Y-74049000D02*
X136262000Y-74049000D01*
X144662000Y-74049000D02*
X143392000Y-74049000D01*
X144662000Y-81399000D02*
X143392000Y-81399000D01*
X134992000Y-81399000D02*
X134992000Y-74049000D01*
X144662000Y-81399000D02*
X144662000Y-74049000D01*
X136262000Y-81399000D02*
X136262000Y-82684000D01*
X219966540Y-94107000D02*
X219966540Y-95123000D01*
X219966540Y-89281000D02*
X219966540Y-88011000D01*
X221236540Y-89535000D02*
X218696540Y-89535000D01*
X221236540Y-89789000D02*
X218696540Y-89789000D01*
X221236540Y-90043000D02*
X218696540Y-90043000D01*
X221236540Y-89281000D02*
X218696540Y-89281000D01*
X221236540Y-90297000D02*
X218696540Y-89027000D01*
X221236540Y-89027000D02*
X218696540Y-90297000D01*
X221236540Y-90297000D02*
X218696540Y-90297000D01*
X221236540Y-89662000D02*
X218696540Y-89662000D01*
X218696540Y-89027000D02*
X221236540Y-89027000D01*
X221236540Y-89027000D02*
X221236540Y-94107000D01*
X221236540Y-94107000D02*
X218696540Y-94107000D01*
X218696540Y-94107000D02*
X218696540Y-89027000D01*
X223776540Y-96647000D02*
X223776540Y-97663000D01*
X223776540Y-91821000D02*
X223776540Y-90551000D01*
X225046540Y-92075000D02*
X222506540Y-92075000D01*
X225046540Y-92329000D02*
X222506540Y-92329000D01*
X225046540Y-92583000D02*
X222506540Y-92583000D01*
X225046540Y-91821000D02*
X222506540Y-91821000D01*
X225046540Y-92837000D02*
X222506540Y-91567000D01*
X225046540Y-91567000D02*
X222506540Y-92837000D01*
X225046540Y-92837000D02*
X222506540Y-92837000D01*
X225046540Y-92202000D02*
X222506540Y-92202000D01*
X222506540Y-91567000D02*
X225046540Y-91567000D01*
X225046540Y-91567000D02*
X225046540Y-96647000D01*
X225046540Y-96647000D02*
X222506540Y-96647000D01*
X222506540Y-96647000D02*
X222506540Y-91567000D01*
X219961460Y-104267000D02*
X219961460Y-103251000D01*
X219961460Y-109093000D02*
X219961460Y-110363000D01*
X218691460Y-108839000D02*
X221231460Y-108839000D01*
X218691460Y-108585000D02*
X221231460Y-108585000D01*
X218691460Y-108331000D02*
X221231460Y-108331000D01*
X218691460Y-109093000D02*
X221231460Y-109093000D01*
X218691460Y-108077000D02*
X221231460Y-109347000D01*
X218691460Y-109347000D02*
X221231460Y-108077000D01*
X218691460Y-108077000D02*
X221231460Y-108077000D01*
X218691460Y-108712000D02*
X221231460Y-108712000D01*
X221231460Y-109347000D02*
X218691460Y-109347000D01*
X218691460Y-109347000D02*
X218691460Y-104267000D01*
X218691460Y-104267000D02*
X221231460Y-104267000D01*
X221231460Y-104267000D02*
X221231460Y-109347000D01*
X224406460Y-106807000D02*
X224406460Y-105791000D01*
X224406460Y-111633000D02*
X224406460Y-112903000D01*
X223136460Y-111379000D02*
X225676460Y-111379000D01*
X223136460Y-111125000D02*
X225676460Y-111125000D01*
X223136460Y-110871000D02*
X225676460Y-110871000D01*
X223136460Y-111633000D02*
X225676460Y-111633000D01*
X223136460Y-110617000D02*
X225676460Y-111887000D01*
X223136460Y-111887000D02*
X225676460Y-110617000D01*
X223136460Y-110617000D02*
X225676460Y-110617000D01*
X223136460Y-111252000D02*
X225676460Y-111252000D01*
X225676460Y-111887000D02*
X223136460Y-111887000D01*
X223136460Y-111887000D02*
X223136460Y-106807000D01*
X223136460Y-106807000D02*
X225676460Y-106807000D01*
X225676460Y-106807000D02*
X225676460Y-111887000D01*
X229489000Y-95377000D02*
X229489000Y-105537000D01*
X229489000Y-105537000D02*
X232029000Y-105537000D01*
X232029000Y-105537000D02*
X232029000Y-95377000D01*
X229209000Y-92557000D02*
X229209000Y-94107000D01*
X229489000Y-95377000D02*
X232029000Y-95377000D01*
X232309000Y-94107000D02*
X232309000Y-92557000D01*
X232309000Y-92557000D02*
X229209000Y-92557000D01*
X210009000Y-95807000D02*
X213409000Y-95807000D01*
X210011944Y-95804056D02*
G75*
G02X211709000Y-91707000I1697056J1697056D01*
G01*
X213406056Y-95804056D02*
G75*
G03X211709000Y-91707000I-1697056J1697056D01*
G01*
X199531500Y-95807000D02*
X202931500Y-95807000D01*
X199534444Y-95804056D02*
G75*
G02X201231500Y-91707000I1697056J1697056D01*
G01*
X202928556Y-95804056D02*
G75*
G03X201231500Y-91707000I-1697056J1697056D01*
G01*
X202868000Y-102249500D02*
X199468000Y-102249500D01*
X202865056Y-102252444D02*
G75*
G02X201168000Y-106349500I-1697056J-1697056D01*
G01*
X199470944Y-102252444D02*
G75*
G03X201168000Y-106349500I1697056J-1697056D01*
G01*
X213409000Y-102249500D02*
X210009000Y-102249500D01*
X213406056Y-102252444D02*
G75*
G02X211709000Y-106349500I-1697056J-1697056D01*
G01*
X210011944Y-102252444D02*
G75*
G03X211709000Y-106349500I1697056J-1697056D01*
G01*
X208386680Y-84757260D02*
X208737200Y-84457540D01*
X208737200Y-84457540D02*
X208737200Y-85206840D01*
X209534760Y-83908900D02*
X209534760Y-87807800D01*
X214137240Y-83908900D02*
X214137240Y-87807800D01*
X211836000Y-83908900D02*
X211836000Y-87757000D01*
X215884760Y-83908900D02*
X215884760Y-72758300D01*
X215884760Y-72758300D02*
X207787240Y-72758300D01*
X207787240Y-72758300D02*
X207787240Y-83908900D01*
X215884760Y-83908900D02*
X207787240Y-83908900D01*
X197782180Y-84693760D02*
X198132700Y-84394040D01*
X198132700Y-84394040D02*
X198132700Y-85143340D01*
X198930260Y-83845400D02*
X198930260Y-87744300D01*
X203532740Y-83845400D02*
X203532740Y-87744300D01*
X201231500Y-83845400D02*
X201231500Y-87693500D01*
X205280260Y-83845400D02*
X205280260Y-72694800D01*
X205280260Y-72694800D02*
X197182740Y-72694800D01*
X197182740Y-72694800D02*
X197182740Y-83845400D01*
X205280260Y-83845400D02*
X197182740Y-83845400D01*
X204617320Y-113362740D02*
X204266800Y-113662460D01*
X204266800Y-113662460D02*
X204266800Y-112913160D01*
X203469240Y-114211100D02*
X203469240Y-110312200D01*
X198866760Y-114211100D02*
X198866760Y-110312200D01*
X201168000Y-114211100D02*
X201168000Y-110363000D01*
X197119240Y-114211100D02*
X197119240Y-125361700D01*
X197119240Y-125361700D02*
X205216760Y-125361700D01*
X205216760Y-125361700D02*
X205216760Y-114211100D01*
X197119240Y-114211100D02*
X205216760Y-114211100D01*
X215158320Y-113362740D02*
X214807800Y-113662460D01*
X214807800Y-113662460D02*
X214807800Y-112913160D01*
X214010240Y-114211100D02*
X214010240Y-110312200D01*
X209407760Y-114211100D02*
X209407760Y-110312200D01*
X211709000Y-114211100D02*
X211709000Y-110363000D01*
X207660240Y-114211100D02*
X207660240Y-125361700D01*
X207660240Y-125361700D02*
X215757760Y-125361700D01*
X215757760Y-125361700D02*
X215757760Y-114211100D01*
X207660240Y-114211100D02*
X215757760Y-114211100D01*
X184912000Y-98044000D02*
X185420000Y-98044000D01*
X192532000Y-98044000D02*
X192024000Y-98044000D01*
X192024000Y-98044000D02*
X192024000Y-97028000D01*
X192024000Y-97028000D02*
X185420000Y-97028000D01*
X185420000Y-97028000D02*
X185420000Y-99060000D01*
X185420000Y-99060000D02*
X192024000Y-99060000D01*
X192024000Y-99060000D02*
X192024000Y-98044000D01*
X185420000Y-97536000D02*
X185928000Y-97028000D01*
X184912000Y-105664000D02*
X185420000Y-105664000D01*
X192532000Y-105664000D02*
X192024000Y-105664000D01*
X192024000Y-105664000D02*
X192024000Y-104648000D01*
X192024000Y-104648000D02*
X185420000Y-104648000D01*
X185420000Y-104648000D02*
X185420000Y-106680000D01*
X185420000Y-106680000D02*
X192024000Y-106680000D01*
X192024000Y-106680000D02*
X192024000Y-105664000D01*
X185420000Y-105156000D02*
X185928000Y-104648000D01*
X184912000Y-110744000D02*
X185420000Y-110744000D01*
X192532000Y-110744000D02*
X192024000Y-110744000D01*
X192024000Y-110744000D02*
X192024000Y-109728000D01*
X192024000Y-109728000D02*
X185420000Y-109728000D01*
X185420000Y-109728000D02*
X185420000Y-111760000D01*
X185420000Y-111760000D02*
X192024000Y-111760000D01*
X192024000Y-111760000D02*
X192024000Y-110744000D01*
X185420000Y-110236000D02*
X185928000Y-109728000D01*
X184912000Y-108204000D02*
X185420000Y-108204000D01*
X192532000Y-108204000D02*
X192024000Y-108204000D01*
X192024000Y-108204000D02*
X192024000Y-107188000D01*
X192024000Y-107188000D02*
X185420000Y-107188000D01*
X185420000Y-107188000D02*
X185420000Y-109220000D01*
X185420000Y-109220000D02*
X192024000Y-109220000D01*
X192024000Y-109220000D02*
X192024000Y-108204000D01*
X185420000Y-107696000D02*
X185928000Y-107188000D01*
X191158953Y-117451143D02*
X191111334Y-117498762D01*
X190968477Y-117546381D01*
X190873239Y-117546381D01*
X190730381Y-117498762D01*
X190635143Y-117403524D01*
X190587524Y-117308286D01*
X190539905Y-117117810D01*
X190539905Y-116974952D01*
X190587524Y-116784476D01*
X190635143Y-116689238D01*
X190730381Y-116594000D01*
X190873239Y-116546381D01*
X190968477Y-116546381D01*
X191111334Y-116594000D01*
X191158953Y-116641619D01*
X192111334Y-117546381D02*
X191539905Y-117546381D01*
X191825619Y-117546381D02*
X191825619Y-116546381D01*
X191730381Y-116689238D01*
X191635143Y-116784476D01*
X191539905Y-116832095D01*
X192730381Y-116546381D02*
X192825620Y-116546381D01*
X192920858Y-116594000D01*
X192968477Y-116641619D01*
X193016096Y-116736857D01*
X193063715Y-116927333D01*
X193063715Y-117165429D01*
X193016096Y-117355905D01*
X192968477Y-117451143D01*
X192920858Y-117498762D01*
X192825620Y-117546381D01*
X192730381Y-117546381D01*
X192635143Y-117498762D01*
X192587524Y-117451143D01*
X192539905Y-117355905D01*
X192492286Y-117165429D01*
X192492286Y-116927333D01*
X192539905Y-116736857D01*
X192587524Y-116641619D01*
X192635143Y-116594000D01*
X192730381Y-116546381D01*
X193920858Y-116879714D02*
X193920858Y-117546381D01*
X193682762Y-116498762D02*
X193444667Y-117213048D01*
X194063715Y-117213048D01*
X183348524Y-129230381D02*
X183348524Y-128230381D01*
X183729477Y-128230381D01*
X183824715Y-128278000D01*
X183872334Y-128325619D01*
X183919953Y-128420857D01*
X183919953Y-128563714D01*
X183872334Y-128658952D01*
X183824715Y-128706571D01*
X183729477Y-128754190D01*
X183348524Y-128754190D01*
X184872334Y-129230381D02*
X184300905Y-129230381D01*
X184586619Y-129230381D02*
X184586619Y-128230381D01*
X184491381Y-128373238D01*
X184396143Y-128468476D01*
X184300905Y-128516095D01*
X185491381Y-128230381D02*
X185586620Y-128230381D01*
X185681858Y-128278000D01*
X185729477Y-128325619D01*
X185777096Y-128420857D01*
X185824715Y-128611333D01*
X185824715Y-128849429D01*
X185777096Y-129039905D01*
X185729477Y-129135143D01*
X185681858Y-129182762D01*
X185586620Y-129230381D01*
X185491381Y-129230381D01*
X185396143Y-129182762D01*
X185348524Y-129135143D01*
X185300905Y-129039905D01*
X185253286Y-128849429D01*
X185253286Y-128611333D01*
X185300905Y-128420857D01*
X185348524Y-128325619D01*
X185396143Y-128278000D01*
X185491381Y-128230381D01*
X186681858Y-128230381D02*
X186491381Y-128230381D01*
X186396143Y-128278000D01*
X186348524Y-128325619D01*
X186253286Y-128468476D01*
X186205667Y-128658952D01*
X186205667Y-129039905D01*
X186253286Y-129135143D01*
X186300905Y-129182762D01*
X186396143Y-129230381D01*
X186586620Y-129230381D01*
X186681858Y-129182762D01*
X186729477Y-129135143D01*
X186777096Y-129039905D01*
X186777096Y-128801810D01*
X186729477Y-128706571D01*
X186681858Y-128658952D01*
X186586620Y-128611333D01*
X186396143Y-128611333D01*
X186300905Y-128658952D01*
X186253286Y-128706571D01*
X186205667Y-128801810D01*
X165441524Y-70556381D02*
X165441524Y-69556381D01*
X165822477Y-69556381D01*
X165917715Y-69604000D01*
X165965334Y-69651619D01*
X166012953Y-69746857D01*
X166012953Y-69889714D01*
X165965334Y-69984952D01*
X165917715Y-70032571D01*
X165822477Y-70080190D01*
X165441524Y-70080190D01*
X166965334Y-70556381D02*
X166393905Y-70556381D01*
X166679619Y-70556381D02*
X166679619Y-69556381D01*
X166584381Y-69699238D01*
X166489143Y-69794476D01*
X166393905Y-69842095D01*
X167584381Y-69556381D02*
X167679620Y-69556381D01*
X167774858Y-69604000D01*
X167822477Y-69651619D01*
X167870096Y-69746857D01*
X167917715Y-69937333D01*
X167917715Y-70175429D01*
X167870096Y-70365905D01*
X167822477Y-70461143D01*
X167774858Y-70508762D01*
X167679620Y-70556381D01*
X167584381Y-70556381D01*
X167489143Y-70508762D01*
X167441524Y-70461143D01*
X167393905Y-70365905D01*
X167346286Y-70175429D01*
X167346286Y-69937333D01*
X167393905Y-69746857D01*
X167441524Y-69651619D01*
X167489143Y-69604000D01*
X167584381Y-69556381D01*
X168251048Y-69556381D02*
X168917715Y-69556381D01*
X168489143Y-70556381D01*
X190460524Y-123642381D02*
X190460524Y-122642381D01*
X190841477Y-122642381D01*
X190936715Y-122690000D01*
X190984334Y-122737619D01*
X191031953Y-122832857D01*
X191031953Y-122975714D01*
X190984334Y-123070952D01*
X190936715Y-123118571D01*
X190841477Y-123166190D01*
X190460524Y-123166190D01*
X191984334Y-123642381D02*
X191412905Y-123642381D01*
X191698619Y-123642381D02*
X191698619Y-122642381D01*
X191603381Y-122785238D01*
X191508143Y-122880476D01*
X191412905Y-122928095D01*
X192603381Y-122642381D02*
X192698620Y-122642381D01*
X192793858Y-122690000D01*
X192841477Y-122737619D01*
X192889096Y-122832857D01*
X192936715Y-123023333D01*
X192936715Y-123261429D01*
X192889096Y-123451905D01*
X192841477Y-123547143D01*
X192793858Y-123594762D01*
X192698620Y-123642381D01*
X192603381Y-123642381D01*
X192508143Y-123594762D01*
X192460524Y-123547143D01*
X192412905Y-123451905D01*
X192365286Y-123261429D01*
X192365286Y-123023333D01*
X192412905Y-122832857D01*
X192460524Y-122737619D01*
X192508143Y-122690000D01*
X192603381Y-122642381D01*
X193508143Y-123070952D02*
X193412905Y-123023333D01*
X193365286Y-122975714D01*
X193317667Y-122880476D01*
X193317667Y-122832857D01*
X193365286Y-122737619D01*
X193412905Y-122690000D01*
X193508143Y-122642381D01*
X193698620Y-122642381D01*
X193793858Y-122690000D01*
X193841477Y-122737619D01*
X193889096Y-122832857D01*
X193889096Y-122880476D01*
X193841477Y-122975714D01*
X193793858Y-123023333D01*
X193698620Y-123070952D01*
X193508143Y-123070952D01*
X193412905Y-123118571D01*
X193365286Y-123166190D01*
X193317667Y-123261429D01*
X193317667Y-123451905D01*
X193365286Y-123547143D01*
X193412905Y-123594762D01*
X193508143Y-123642381D01*
X193698620Y-123642381D01*
X193793858Y-123594762D01*
X193841477Y-123547143D01*
X193889096Y-123451905D01*
X193889096Y-123261429D01*
X193841477Y-123166190D01*
X193793858Y-123118571D01*
X193698620Y-123070952D01*
X187602953Y-113863381D02*
X187269619Y-113387190D01*
X187031524Y-113863381D02*
X187031524Y-112863381D01*
X187412477Y-112863381D01*
X187507715Y-112911000D01*
X187555334Y-112958619D01*
X187602953Y-113053857D01*
X187602953Y-113196714D01*
X187555334Y-113291952D01*
X187507715Y-113339571D01*
X187412477Y-113387190D01*
X187031524Y-113387190D01*
X188555334Y-113863381D02*
X187983905Y-113863381D01*
X188269619Y-113863381D02*
X188269619Y-112863381D01*
X188174381Y-113006238D01*
X188079143Y-113101476D01*
X187983905Y-113149095D01*
X189507715Y-113863381D02*
X188936286Y-113863381D01*
X189222000Y-113863381D02*
X189222000Y-112863381D01*
X189126762Y-113006238D01*
X189031524Y-113101476D01*
X188936286Y-113149095D01*
X190126762Y-112863381D02*
X190222001Y-112863381D01*
X190317239Y-112911000D01*
X190364858Y-112958619D01*
X190412477Y-113053857D01*
X190460096Y-113244333D01*
X190460096Y-113482429D01*
X190412477Y-113672905D01*
X190364858Y-113768143D01*
X190317239Y-113815762D01*
X190222001Y-113863381D01*
X190126762Y-113863381D01*
X190031524Y-113815762D01*
X189983905Y-113768143D01*
X189936286Y-113672905D01*
X189888667Y-113482429D01*
X189888667Y-113244333D01*
X189936286Y-113053857D01*
X189983905Y-112958619D01*
X190031524Y-112911000D01*
X190126762Y-112863381D01*
X165441524Y-129230381D02*
X165441524Y-128230381D01*
X165822477Y-128230381D01*
X165917715Y-128278000D01*
X165965334Y-128325619D01*
X166012953Y-128420857D01*
X166012953Y-128563714D01*
X165965334Y-128658952D01*
X165917715Y-128706571D01*
X165822477Y-128754190D01*
X165441524Y-128754190D01*
X166965334Y-129230381D02*
X166393905Y-129230381D01*
X166679619Y-129230381D02*
X166679619Y-128230381D01*
X166584381Y-128373238D01*
X166489143Y-128468476D01*
X166393905Y-128516095D01*
X167584381Y-128230381D02*
X167679620Y-128230381D01*
X167774858Y-128278000D01*
X167822477Y-128325619D01*
X167870096Y-128420857D01*
X167917715Y-128611333D01*
X167917715Y-128849429D01*
X167870096Y-129039905D01*
X167822477Y-129135143D01*
X167774858Y-129182762D01*
X167679620Y-129230381D01*
X167584381Y-129230381D01*
X167489143Y-129182762D01*
X167441524Y-129135143D01*
X167393905Y-129039905D01*
X167346286Y-128849429D01*
X167346286Y-128611333D01*
X167393905Y-128420857D01*
X167441524Y-128325619D01*
X167489143Y-128278000D01*
X167584381Y-128230381D01*
X168822477Y-128230381D02*
X168346286Y-128230381D01*
X168298667Y-128706571D01*
X168346286Y-128658952D01*
X168441524Y-128611333D01*
X168679620Y-128611333D01*
X168774858Y-128658952D01*
X168822477Y-128706571D01*
X168870096Y-128801810D01*
X168870096Y-129039905D01*
X168822477Y-129135143D01*
X168774858Y-129182762D01*
X168679620Y-129230381D01*
X168441524Y-129230381D01*
X168346286Y-129182762D01*
X168298667Y-129135143D01*
X165806381Y-87733047D02*
X165330190Y-88066381D01*
X165806381Y-88304476D02*
X164806381Y-88304476D01*
X164806381Y-87923523D01*
X164854000Y-87828285D01*
X164901619Y-87780666D01*
X164996857Y-87733047D01*
X165139714Y-87733047D01*
X165234952Y-87780666D01*
X165282571Y-87828285D01*
X165330190Y-87923523D01*
X165330190Y-88304476D01*
X165806381Y-86780666D02*
X165806381Y-87352095D01*
X165806381Y-87066381D02*
X164806381Y-87066381D01*
X164949238Y-87161619D01*
X165044476Y-87256857D01*
X165092095Y-87352095D01*
X164806381Y-86161619D02*
X164806381Y-86066380D01*
X164854000Y-85971142D01*
X164901619Y-85923523D01*
X164996857Y-85875904D01*
X165187333Y-85828285D01*
X165425429Y-85828285D01*
X165615905Y-85875904D01*
X165711143Y-85923523D01*
X165758762Y-85971142D01*
X165806381Y-86066380D01*
X165806381Y-86161619D01*
X165758762Y-86256857D01*
X165711143Y-86304476D01*
X165615905Y-86352095D01*
X165425429Y-86399714D01*
X165187333Y-86399714D01*
X164996857Y-86352095D01*
X164901619Y-86304476D01*
X164854000Y-86256857D01*
X164806381Y-86161619D01*
X164806381Y-84923523D02*
X164806381Y-85399714D01*
X165282571Y-85447333D01*
X165234952Y-85399714D01*
X165187333Y-85304476D01*
X165187333Y-85066380D01*
X165234952Y-84971142D01*
X165282571Y-84923523D01*
X165377810Y-84875904D01*
X165615905Y-84875904D01*
X165711143Y-84923523D01*
X165758762Y-84971142D01*
X165806381Y-85066380D01*
X165806381Y-85304476D01*
X165758762Y-85399714D01*
X165711143Y-85447333D01*
X172791381Y-87733047D02*
X172315190Y-88066381D01*
X172791381Y-88304476D02*
X171791381Y-88304476D01*
X171791381Y-87923523D01*
X171839000Y-87828285D01*
X171886619Y-87780666D01*
X171981857Y-87733047D01*
X172124714Y-87733047D01*
X172219952Y-87780666D01*
X172267571Y-87828285D01*
X172315190Y-87923523D01*
X172315190Y-88304476D01*
X172791381Y-86780666D02*
X172791381Y-87352095D01*
X172791381Y-87066381D02*
X171791381Y-87066381D01*
X171934238Y-87161619D01*
X172029476Y-87256857D01*
X172077095Y-87352095D01*
X171791381Y-86161619D02*
X171791381Y-86066380D01*
X171839000Y-85971142D01*
X171886619Y-85923523D01*
X171981857Y-85875904D01*
X172172333Y-85828285D01*
X172410429Y-85828285D01*
X172600905Y-85875904D01*
X172696143Y-85923523D01*
X172743762Y-85971142D01*
X172791381Y-86066380D01*
X172791381Y-86161619D01*
X172743762Y-86256857D01*
X172696143Y-86304476D01*
X172600905Y-86352095D01*
X172410429Y-86399714D01*
X172172333Y-86399714D01*
X171981857Y-86352095D01*
X171886619Y-86304476D01*
X171839000Y-86256857D01*
X171791381Y-86161619D01*
X171791381Y-84971142D02*
X171791381Y-85161619D01*
X171839000Y-85256857D01*
X171886619Y-85304476D01*
X172029476Y-85399714D01*
X172219952Y-85447333D01*
X172600905Y-85447333D01*
X172696143Y-85399714D01*
X172743762Y-85352095D01*
X172791381Y-85256857D01*
X172791381Y-85066380D01*
X172743762Y-84971142D01*
X172696143Y-84923523D01*
X172600905Y-84875904D01*
X172362810Y-84875904D01*
X172267571Y-84923523D01*
X172219952Y-84971142D01*
X172172333Y-85066380D01*
X172172333Y-85256857D01*
X172219952Y-85352095D01*
X172267571Y-85399714D01*
X172362810Y-85447333D01*
X169616381Y-87733047D02*
X169140190Y-88066381D01*
X169616381Y-88304476D02*
X168616381Y-88304476D01*
X168616381Y-87923523D01*
X168664000Y-87828285D01*
X168711619Y-87780666D01*
X168806857Y-87733047D01*
X168949714Y-87733047D01*
X169044952Y-87780666D01*
X169092571Y-87828285D01*
X169140190Y-87923523D01*
X169140190Y-88304476D01*
X169616381Y-86780666D02*
X169616381Y-87352095D01*
X169616381Y-87066381D02*
X168616381Y-87066381D01*
X168759238Y-87161619D01*
X168854476Y-87256857D01*
X168902095Y-87352095D01*
X168616381Y-86161619D02*
X168616381Y-86066380D01*
X168664000Y-85971142D01*
X168711619Y-85923523D01*
X168806857Y-85875904D01*
X168997333Y-85828285D01*
X169235429Y-85828285D01*
X169425905Y-85875904D01*
X169521143Y-85923523D01*
X169568762Y-85971142D01*
X169616381Y-86066380D01*
X169616381Y-86161619D01*
X169568762Y-86256857D01*
X169521143Y-86304476D01*
X169425905Y-86352095D01*
X169235429Y-86399714D01*
X168997333Y-86399714D01*
X168806857Y-86352095D01*
X168711619Y-86304476D01*
X168664000Y-86256857D01*
X168616381Y-86161619D01*
X168616381Y-85494952D02*
X168616381Y-84828285D01*
X169616381Y-85256857D01*
X162631381Y-87733047D02*
X162155190Y-88066381D01*
X162631381Y-88304476D02*
X161631381Y-88304476D01*
X161631381Y-87923523D01*
X161679000Y-87828285D01*
X161726619Y-87780666D01*
X161821857Y-87733047D01*
X161964714Y-87733047D01*
X162059952Y-87780666D01*
X162107571Y-87828285D01*
X162155190Y-87923523D01*
X162155190Y-88304476D01*
X162631381Y-86780666D02*
X162631381Y-87352095D01*
X162631381Y-87066381D02*
X161631381Y-87066381D01*
X161774238Y-87161619D01*
X161869476Y-87256857D01*
X161917095Y-87352095D01*
X161631381Y-86161619D02*
X161631381Y-86066380D01*
X161679000Y-85971142D01*
X161726619Y-85923523D01*
X161821857Y-85875904D01*
X162012333Y-85828285D01*
X162250429Y-85828285D01*
X162440905Y-85875904D01*
X162536143Y-85923523D01*
X162583762Y-85971142D01*
X162631381Y-86066380D01*
X162631381Y-86161619D01*
X162583762Y-86256857D01*
X162536143Y-86304476D01*
X162440905Y-86352095D01*
X162250429Y-86399714D01*
X162012333Y-86399714D01*
X161821857Y-86352095D01*
X161726619Y-86304476D01*
X161679000Y-86256857D01*
X161631381Y-86161619D01*
X162059952Y-85256857D02*
X162012333Y-85352095D01*
X161964714Y-85399714D01*
X161869476Y-85447333D01*
X161821857Y-85447333D01*
X161726619Y-85399714D01*
X161679000Y-85352095D01*
X161631381Y-85256857D01*
X161631381Y-85066380D01*
X161679000Y-84971142D01*
X161726619Y-84923523D01*
X161821857Y-84875904D01*
X161869476Y-84875904D01*
X161964714Y-84923523D01*
X162012333Y-84971142D01*
X162059952Y-85066380D01*
X162059952Y-85256857D01*
X162107571Y-85352095D01*
X162155190Y-85399714D01*
X162250429Y-85447333D01*
X162440905Y-85447333D01*
X162536143Y-85399714D01*
X162583762Y-85352095D01*
X162631381Y-85256857D01*
X162631381Y-85066380D01*
X162583762Y-84971142D01*
X162536143Y-84923523D01*
X162440905Y-84875904D01*
X162250429Y-84875904D01*
X162155190Y-84923523D01*
X162107571Y-84971142D01*
X162059952Y-85066380D01*
X162631381Y-98528047D02*
X162155190Y-98861381D01*
X162631381Y-99099476D02*
X161631381Y-99099476D01*
X161631381Y-98718523D01*
X161679000Y-98623285D01*
X161726619Y-98575666D01*
X161821857Y-98528047D01*
X161964714Y-98528047D01*
X162059952Y-98575666D01*
X162107571Y-98623285D01*
X162155190Y-98718523D01*
X162155190Y-99099476D01*
X162631381Y-97575666D02*
X162631381Y-98147095D01*
X162631381Y-97861381D02*
X161631381Y-97861381D01*
X161774238Y-97956619D01*
X161869476Y-98051857D01*
X161917095Y-98147095D01*
X161631381Y-96956619D02*
X161631381Y-96861380D01*
X161679000Y-96766142D01*
X161726619Y-96718523D01*
X161821857Y-96670904D01*
X162012333Y-96623285D01*
X162250429Y-96623285D01*
X162440905Y-96670904D01*
X162536143Y-96718523D01*
X162583762Y-96766142D01*
X162631381Y-96861380D01*
X162631381Y-96956619D01*
X162583762Y-97051857D01*
X162536143Y-97099476D01*
X162440905Y-97147095D01*
X162250429Y-97194714D01*
X162012333Y-97194714D01*
X161821857Y-97147095D01*
X161726619Y-97099476D01*
X161679000Y-97051857D01*
X161631381Y-96956619D01*
X162631381Y-96147095D02*
X162631381Y-95956619D01*
X162583762Y-95861380D01*
X162536143Y-95813761D01*
X162393286Y-95718523D01*
X162202810Y-95670904D01*
X161821857Y-95670904D01*
X161726619Y-95718523D01*
X161679000Y-95766142D01*
X161631381Y-95861380D01*
X161631381Y-96051857D01*
X161679000Y-96147095D01*
X161726619Y-96194714D01*
X161821857Y-96242333D01*
X162059952Y-96242333D01*
X162155190Y-96194714D01*
X162202810Y-96147095D01*
X162250429Y-96051857D01*
X162250429Y-95861380D01*
X162202810Y-95766142D01*
X162155190Y-95718523D01*
X162059952Y-95670904D01*
X152614381Y-103321857D02*
X153423905Y-103321857D01*
X153519143Y-103274238D01*
X153566762Y-103226619D01*
X153614381Y-103131381D01*
X153614381Y-102940904D01*
X153566762Y-102845666D01*
X153519143Y-102798047D01*
X153423905Y-102750428D01*
X152614381Y-102750428D01*
X153614381Y-101750428D02*
X153614381Y-102321857D01*
X153614381Y-102036143D02*
X152614381Y-102036143D01*
X152757238Y-102131381D01*
X152852476Y-102226619D01*
X152900095Y-102321857D01*
X152614381Y-101131381D02*
X152614381Y-101036142D01*
X152662000Y-100940904D01*
X152709619Y-100893285D01*
X152804857Y-100845666D01*
X152995333Y-100798047D01*
X153233429Y-100798047D01*
X153423905Y-100845666D01*
X153519143Y-100893285D01*
X153566762Y-100940904D01*
X153614381Y-101036142D01*
X153614381Y-101131381D01*
X153566762Y-101226619D01*
X153519143Y-101274238D01*
X153423905Y-101321857D01*
X153233429Y-101369476D01*
X152995333Y-101369476D01*
X152804857Y-101321857D01*
X152709619Y-101274238D01*
X152662000Y-101226619D01*
X152614381Y-101131381D01*
X152614381Y-99940904D02*
X152614381Y-100131381D01*
X152662000Y-100226619D01*
X152709619Y-100274238D01*
X152852476Y-100369476D01*
X153042952Y-100417095D01*
X153423905Y-100417095D01*
X153519143Y-100369476D01*
X153566762Y-100321857D01*
X153614381Y-100226619D01*
X153614381Y-100036142D01*
X153566762Y-99940904D01*
X153519143Y-99893285D01*
X153423905Y-99845666D01*
X153185810Y-99845666D01*
X153090571Y-99893285D01*
X153042952Y-99940904D01*
X152995333Y-100036142D01*
X152995333Y-100226619D01*
X153042952Y-100321857D01*
X153090571Y-100369476D01*
X153185810Y-100417095D01*
X153233429Y-99417095D02*
X153233429Y-98655190D01*
X152614381Y-97893285D02*
X153328667Y-97893285D01*
X153471524Y-97940905D01*
X153566762Y-98036143D01*
X153614381Y-98179000D01*
X153614381Y-98274238D01*
X153614381Y-97417095D02*
X152614381Y-97417095D01*
X152614381Y-97036142D01*
X152662000Y-96940904D01*
X152709619Y-96893285D01*
X152804857Y-96845666D01*
X152947714Y-96845666D01*
X153042952Y-96893285D01*
X153090571Y-96940904D01*
X153138190Y-97036142D01*
X153138190Y-97417095D01*
X153614381Y-95893285D02*
X153614381Y-96464714D01*
X153614381Y-96179000D02*
X152614381Y-96179000D01*
X152757238Y-96274238D01*
X152852476Y-96369476D01*
X152900095Y-96464714D01*
X152614381Y-95274238D02*
X152614381Y-95178999D01*
X152662000Y-95083761D01*
X152709619Y-95036142D01*
X152804857Y-94988523D01*
X152995333Y-94940904D01*
X153233429Y-94940904D01*
X153423905Y-94988523D01*
X153519143Y-95036142D01*
X153566762Y-95083761D01*
X153614381Y-95178999D01*
X153614381Y-95274238D01*
X153566762Y-95369476D01*
X153519143Y-95417095D01*
X153423905Y-95464714D01*
X153233429Y-95512333D01*
X152995333Y-95512333D01*
X152804857Y-95464714D01*
X152709619Y-95417095D01*
X152662000Y-95369476D01*
X152614381Y-95274238D01*
X153614381Y-93988523D02*
X153614381Y-94559952D01*
X153614381Y-94274238D02*
X152614381Y-94274238D01*
X152757238Y-94369476D01*
X152852476Y-94464714D01*
X152900095Y-94559952D01*
X180554381Y-103575857D02*
X181363905Y-103575857D01*
X181459143Y-103528238D01*
X181506762Y-103480619D01*
X181554381Y-103385381D01*
X181554381Y-103194904D01*
X181506762Y-103099666D01*
X181459143Y-103052047D01*
X181363905Y-103004428D01*
X180554381Y-103004428D01*
X181554381Y-102004428D02*
X181554381Y-102575857D01*
X181554381Y-102290143D02*
X180554381Y-102290143D01*
X180697238Y-102385381D01*
X180792476Y-102480619D01*
X180840095Y-102575857D01*
X180554381Y-101385381D02*
X180554381Y-101290142D01*
X180602000Y-101194904D01*
X180649619Y-101147285D01*
X180744857Y-101099666D01*
X180935333Y-101052047D01*
X181173429Y-101052047D01*
X181363905Y-101099666D01*
X181459143Y-101147285D01*
X181506762Y-101194904D01*
X181554381Y-101290142D01*
X181554381Y-101385381D01*
X181506762Y-101480619D01*
X181459143Y-101528238D01*
X181363905Y-101575857D01*
X181173429Y-101623476D01*
X180935333Y-101623476D01*
X180744857Y-101575857D01*
X180649619Y-101528238D01*
X180602000Y-101480619D01*
X180554381Y-101385381D01*
X180554381Y-100194904D02*
X180554381Y-100385381D01*
X180602000Y-100480619D01*
X180649619Y-100528238D01*
X180792476Y-100623476D01*
X180982952Y-100671095D01*
X181363905Y-100671095D01*
X181459143Y-100623476D01*
X181506762Y-100575857D01*
X181554381Y-100480619D01*
X181554381Y-100290142D01*
X181506762Y-100194904D01*
X181459143Y-100147285D01*
X181363905Y-100099666D01*
X181125810Y-100099666D01*
X181030571Y-100147285D01*
X180982952Y-100194904D01*
X180935333Y-100290142D01*
X180935333Y-100480619D01*
X180982952Y-100575857D01*
X181030571Y-100623476D01*
X181125810Y-100671095D01*
X181173429Y-99671095D02*
X181173429Y-98909190D01*
X180554381Y-98147285D02*
X181268667Y-98147285D01*
X181411524Y-98194905D01*
X181506762Y-98290143D01*
X181554381Y-98433000D01*
X181554381Y-98528238D01*
X181554381Y-97671095D02*
X180554381Y-97671095D01*
X180554381Y-97290142D01*
X180602000Y-97194904D01*
X180649619Y-97147285D01*
X180744857Y-97099666D01*
X180887714Y-97099666D01*
X180982952Y-97147285D01*
X181030571Y-97194904D01*
X181078190Y-97290142D01*
X181078190Y-97671095D01*
X181554381Y-96147285D02*
X181554381Y-96718714D01*
X181554381Y-96433000D02*
X180554381Y-96433000D01*
X180697238Y-96528238D01*
X180792476Y-96623476D01*
X180840095Y-96718714D01*
X180554381Y-95528238D02*
X180554381Y-95432999D01*
X180602000Y-95337761D01*
X180649619Y-95290142D01*
X180744857Y-95242523D01*
X180935333Y-95194904D01*
X181173429Y-95194904D01*
X181363905Y-95242523D01*
X181459143Y-95290142D01*
X181506762Y-95337761D01*
X181554381Y-95432999D01*
X181554381Y-95528238D01*
X181506762Y-95623476D01*
X181459143Y-95671095D01*
X181363905Y-95718714D01*
X181173429Y-95766333D01*
X180935333Y-95766333D01*
X180744857Y-95718714D01*
X180649619Y-95671095D01*
X180602000Y-95623476D01*
X180554381Y-95528238D01*
X180649619Y-94813952D02*
X180602000Y-94766333D01*
X180554381Y-94671095D01*
X180554381Y-94432999D01*
X180602000Y-94337761D01*
X180649619Y-94290142D01*
X180744857Y-94242523D01*
X180840095Y-94242523D01*
X180982952Y-94290142D01*
X181554381Y-94861571D01*
X181554381Y-94242523D01*
X108707953Y-114945143D02*
X108660334Y-114992762D01*
X108517477Y-115040381D01*
X108422239Y-115040381D01*
X108279381Y-114992762D01*
X108184143Y-114897524D01*
X108136524Y-114802286D01*
X108088905Y-114611810D01*
X108088905Y-114468952D01*
X108136524Y-114278476D01*
X108184143Y-114183238D01*
X108279381Y-114088000D01*
X108422239Y-114040381D01*
X108517477Y-114040381D01*
X108660334Y-114088000D01*
X108707953Y-114135619D01*
X109660334Y-115040381D02*
X109088905Y-115040381D01*
X109374619Y-115040381D02*
X109374619Y-114040381D01*
X109279381Y-114183238D01*
X109184143Y-114278476D01*
X109088905Y-114326095D01*
X110279381Y-114040381D02*
X110374620Y-114040381D01*
X110469858Y-114088000D01*
X110517477Y-114135619D01*
X110565096Y-114230857D01*
X110612715Y-114421333D01*
X110612715Y-114659429D01*
X110565096Y-114849905D01*
X110517477Y-114945143D01*
X110469858Y-114992762D01*
X110374620Y-115040381D01*
X110279381Y-115040381D01*
X110184143Y-114992762D01*
X110136524Y-114945143D01*
X110088905Y-114849905D01*
X110041286Y-114659429D01*
X110041286Y-114421333D01*
X110088905Y-114230857D01*
X110136524Y-114135619D01*
X110184143Y-114088000D01*
X110279381Y-114040381D01*
X111565096Y-115040381D02*
X110993667Y-115040381D01*
X111279381Y-115040381D02*
X111279381Y-114040381D01*
X111184143Y-114183238D01*
X111088905Y-114278476D01*
X110993667Y-114326095D01*
X108707953Y-100975143D02*
X108660334Y-101022762D01*
X108517477Y-101070381D01*
X108422239Y-101070381D01*
X108279381Y-101022762D01*
X108184143Y-100927524D01*
X108136524Y-100832286D01*
X108088905Y-100641810D01*
X108088905Y-100498952D01*
X108136524Y-100308476D01*
X108184143Y-100213238D01*
X108279381Y-100118000D01*
X108422239Y-100070381D01*
X108517477Y-100070381D01*
X108660334Y-100118000D01*
X108707953Y-100165619D01*
X109660334Y-101070381D02*
X109088905Y-101070381D01*
X109374619Y-101070381D02*
X109374619Y-100070381D01*
X109279381Y-100213238D01*
X109184143Y-100308476D01*
X109088905Y-100356095D01*
X110279381Y-100070381D02*
X110374620Y-100070381D01*
X110469858Y-100118000D01*
X110517477Y-100165619D01*
X110565096Y-100260857D01*
X110612715Y-100451333D01*
X110612715Y-100689429D01*
X110565096Y-100879905D01*
X110517477Y-100975143D01*
X110469858Y-101022762D01*
X110374620Y-101070381D01*
X110279381Y-101070381D01*
X110184143Y-101022762D01*
X110136524Y-100975143D01*
X110088905Y-100879905D01*
X110041286Y-100689429D01*
X110041286Y-100451333D01*
X110088905Y-100260857D01*
X110136524Y-100165619D01*
X110184143Y-100118000D01*
X110279381Y-100070381D01*
X110993667Y-100165619D02*
X111041286Y-100118000D01*
X111136524Y-100070381D01*
X111374620Y-100070381D01*
X111469858Y-100118000D01*
X111517477Y-100165619D01*
X111565096Y-100260857D01*
X111565096Y-100356095D01*
X111517477Y-100498952D01*
X110946048Y-101070381D01*
X111565096Y-101070381D01*
X116228953Y-100687143D02*
X116181334Y-100734762D01*
X116038477Y-100782381D01*
X115943239Y-100782381D01*
X115800381Y-100734762D01*
X115705143Y-100639524D01*
X115657524Y-100544286D01*
X115609905Y-100353810D01*
X115609905Y-100210952D01*
X115657524Y-100020476D01*
X115705143Y-99925238D01*
X115800381Y-99830000D01*
X115943239Y-99782381D01*
X116038477Y-99782381D01*
X116181334Y-99830000D01*
X116228953Y-99877619D01*
X117181334Y-100782381D02*
X116609905Y-100782381D01*
X116895619Y-100782381D02*
X116895619Y-99782381D01*
X116800381Y-99925238D01*
X116705143Y-100020476D01*
X116609905Y-100068095D01*
X117800381Y-99782381D02*
X117895620Y-99782381D01*
X117990858Y-99830000D01*
X118038477Y-99877619D01*
X118086096Y-99972857D01*
X118133715Y-100163333D01*
X118133715Y-100401429D01*
X118086096Y-100591905D01*
X118038477Y-100687143D01*
X117990858Y-100734762D01*
X117895620Y-100782381D01*
X117800381Y-100782381D01*
X117705143Y-100734762D01*
X117657524Y-100687143D01*
X117609905Y-100591905D01*
X117562286Y-100401429D01*
X117562286Y-100163333D01*
X117609905Y-99972857D01*
X117657524Y-99877619D01*
X117705143Y-99830000D01*
X117800381Y-99782381D01*
X118467048Y-99782381D02*
X119086096Y-99782381D01*
X118752762Y-100163333D01*
X118895620Y-100163333D01*
X118990858Y-100210952D01*
X119038477Y-100258571D01*
X119086096Y-100353810D01*
X119086096Y-100591905D01*
X119038477Y-100687143D01*
X118990858Y-100734762D01*
X118895620Y-100782381D01*
X118609905Y-100782381D01*
X118514667Y-100734762D01*
X118467048Y-100687143D01*
X88098524Y-101036381D02*
X88098524Y-100036381D01*
X88336619Y-100036381D01*
X88479477Y-100084000D01*
X88574715Y-100179238D01*
X88622334Y-100274476D01*
X88669953Y-100464952D01*
X88669953Y-100607810D01*
X88622334Y-100798286D01*
X88574715Y-100893524D01*
X88479477Y-100988762D01*
X88336619Y-101036381D01*
X88098524Y-101036381D01*
X89622334Y-101036381D02*
X89050905Y-101036381D01*
X89336619Y-101036381D02*
X89336619Y-100036381D01*
X89241381Y-100179238D01*
X89146143Y-100274476D01*
X89050905Y-100322095D01*
X90241381Y-100036381D02*
X90336620Y-100036381D01*
X90431858Y-100084000D01*
X90479477Y-100131619D01*
X90527096Y-100226857D01*
X90574715Y-100417333D01*
X90574715Y-100655429D01*
X90527096Y-100845905D01*
X90479477Y-100941143D01*
X90431858Y-100988762D01*
X90336620Y-101036381D01*
X90241381Y-101036381D01*
X90146143Y-100988762D01*
X90098524Y-100941143D01*
X90050905Y-100845905D01*
X90003286Y-100655429D01*
X90003286Y-100417333D01*
X90050905Y-100226857D01*
X90098524Y-100131619D01*
X90146143Y-100084000D01*
X90241381Y-100036381D01*
X91527096Y-101036381D02*
X90955667Y-101036381D01*
X91241381Y-101036381D02*
X91241381Y-100036381D01*
X91146143Y-100179238D01*
X91050905Y-100274476D01*
X90955667Y-100322095D01*
X88098524Y-106116381D02*
X88098524Y-105116381D01*
X88336619Y-105116381D01*
X88479477Y-105164000D01*
X88574715Y-105259238D01*
X88622334Y-105354476D01*
X88669953Y-105544952D01*
X88669953Y-105687810D01*
X88622334Y-105878286D01*
X88574715Y-105973524D01*
X88479477Y-106068762D01*
X88336619Y-106116381D01*
X88098524Y-106116381D01*
X89622334Y-106116381D02*
X89050905Y-106116381D01*
X89336619Y-106116381D02*
X89336619Y-105116381D01*
X89241381Y-105259238D01*
X89146143Y-105354476D01*
X89050905Y-105402095D01*
X90241381Y-105116381D02*
X90336620Y-105116381D01*
X90431858Y-105164000D01*
X90479477Y-105211619D01*
X90527096Y-105306857D01*
X90574715Y-105497333D01*
X90574715Y-105735429D01*
X90527096Y-105925905D01*
X90479477Y-106021143D01*
X90431858Y-106068762D01*
X90336620Y-106116381D01*
X90241381Y-106116381D01*
X90146143Y-106068762D01*
X90098524Y-106021143D01*
X90050905Y-105925905D01*
X90003286Y-105735429D01*
X90003286Y-105497333D01*
X90050905Y-105306857D01*
X90098524Y-105211619D01*
X90146143Y-105164000D01*
X90241381Y-105116381D01*
X90955667Y-105211619D02*
X91003286Y-105164000D01*
X91098524Y-105116381D01*
X91336620Y-105116381D01*
X91431858Y-105164000D01*
X91479477Y-105211619D01*
X91527096Y-105306857D01*
X91527096Y-105402095D01*
X91479477Y-105544952D01*
X90908048Y-106116381D01*
X91527096Y-106116381D01*
X88098524Y-111196381D02*
X88098524Y-110196381D01*
X88336619Y-110196381D01*
X88479477Y-110244000D01*
X88574715Y-110339238D01*
X88622334Y-110434476D01*
X88669953Y-110624952D01*
X88669953Y-110767810D01*
X88622334Y-110958286D01*
X88574715Y-111053524D01*
X88479477Y-111148762D01*
X88336619Y-111196381D01*
X88098524Y-111196381D01*
X89622334Y-111196381D02*
X89050905Y-111196381D01*
X89336619Y-111196381D02*
X89336619Y-110196381D01*
X89241381Y-110339238D01*
X89146143Y-110434476D01*
X89050905Y-110482095D01*
X90241381Y-110196381D02*
X90336620Y-110196381D01*
X90431858Y-110244000D01*
X90479477Y-110291619D01*
X90527096Y-110386857D01*
X90574715Y-110577333D01*
X90574715Y-110815429D01*
X90527096Y-111005905D01*
X90479477Y-111101143D01*
X90431858Y-111148762D01*
X90336620Y-111196381D01*
X90241381Y-111196381D01*
X90146143Y-111148762D01*
X90098524Y-111101143D01*
X90050905Y-111005905D01*
X90003286Y-110815429D01*
X90003286Y-110577333D01*
X90050905Y-110386857D01*
X90098524Y-110291619D01*
X90146143Y-110244000D01*
X90241381Y-110196381D01*
X90908048Y-110196381D02*
X91527096Y-110196381D01*
X91193762Y-110577333D01*
X91336620Y-110577333D01*
X91431858Y-110624952D01*
X91479477Y-110672571D01*
X91527096Y-110767810D01*
X91527096Y-111005905D01*
X91479477Y-111101143D01*
X91431858Y-111148762D01*
X91336620Y-111196381D01*
X91050905Y-111196381D01*
X90955667Y-111148762D01*
X90908048Y-111101143D01*
X88098524Y-116276381D02*
X88098524Y-115276381D01*
X88336619Y-115276381D01*
X88479477Y-115324000D01*
X88574715Y-115419238D01*
X88622334Y-115514476D01*
X88669953Y-115704952D01*
X88669953Y-115847810D01*
X88622334Y-116038286D01*
X88574715Y-116133524D01*
X88479477Y-116228762D01*
X88336619Y-116276381D01*
X88098524Y-116276381D01*
X89622334Y-116276381D02*
X89050905Y-116276381D01*
X89336619Y-116276381D02*
X89336619Y-115276381D01*
X89241381Y-115419238D01*
X89146143Y-115514476D01*
X89050905Y-115562095D01*
X90241381Y-115276381D02*
X90336620Y-115276381D01*
X90431858Y-115324000D01*
X90479477Y-115371619D01*
X90527096Y-115466857D01*
X90574715Y-115657333D01*
X90574715Y-115895429D01*
X90527096Y-116085905D01*
X90479477Y-116181143D01*
X90431858Y-116228762D01*
X90336620Y-116276381D01*
X90241381Y-116276381D01*
X90146143Y-116228762D01*
X90098524Y-116181143D01*
X90050905Y-116085905D01*
X90003286Y-115895429D01*
X90003286Y-115657333D01*
X90050905Y-115466857D01*
X90098524Y-115371619D01*
X90146143Y-115324000D01*
X90241381Y-115276381D01*
X91431858Y-115609714D02*
X91431858Y-116276381D01*
X91193762Y-115228762D02*
X90955667Y-115943048D01*
X91574715Y-115943048D01*
X88098524Y-78176381D02*
X88098524Y-77176381D01*
X88336619Y-77176381D01*
X88479477Y-77224000D01*
X88574715Y-77319238D01*
X88622334Y-77414476D01*
X88669953Y-77604952D01*
X88669953Y-77747810D01*
X88622334Y-77938286D01*
X88574715Y-78033524D01*
X88479477Y-78128762D01*
X88336619Y-78176381D01*
X88098524Y-78176381D01*
X89622334Y-78176381D02*
X89050905Y-78176381D01*
X89336619Y-78176381D02*
X89336619Y-77176381D01*
X89241381Y-77319238D01*
X89146143Y-77414476D01*
X89050905Y-77462095D01*
X90241381Y-77176381D02*
X90336620Y-77176381D01*
X90431858Y-77224000D01*
X90479477Y-77271619D01*
X90527096Y-77366857D01*
X90574715Y-77557333D01*
X90574715Y-77795429D01*
X90527096Y-77985905D01*
X90479477Y-78081143D01*
X90431858Y-78128762D01*
X90336620Y-78176381D01*
X90241381Y-78176381D01*
X90146143Y-78128762D01*
X90098524Y-78081143D01*
X90050905Y-77985905D01*
X90003286Y-77795429D01*
X90003286Y-77557333D01*
X90050905Y-77366857D01*
X90098524Y-77271619D01*
X90146143Y-77224000D01*
X90241381Y-77176381D01*
X91479477Y-77176381D02*
X91003286Y-77176381D01*
X90955667Y-77652571D01*
X91003286Y-77604952D01*
X91098524Y-77557333D01*
X91336620Y-77557333D01*
X91431858Y-77604952D01*
X91479477Y-77652571D01*
X91527096Y-77747810D01*
X91527096Y-77985905D01*
X91479477Y-78081143D01*
X91431858Y-78128762D01*
X91336620Y-78176381D01*
X91098524Y-78176381D01*
X91003286Y-78128762D01*
X90955667Y-78081143D01*
X88098524Y-83256381D02*
X88098524Y-82256381D01*
X88336619Y-82256381D01*
X88479477Y-82304000D01*
X88574715Y-82399238D01*
X88622334Y-82494476D01*
X88669953Y-82684952D01*
X88669953Y-82827810D01*
X88622334Y-83018286D01*
X88574715Y-83113524D01*
X88479477Y-83208762D01*
X88336619Y-83256381D01*
X88098524Y-83256381D01*
X89622334Y-83256381D02*
X89050905Y-83256381D01*
X89336619Y-83256381D02*
X89336619Y-82256381D01*
X89241381Y-82399238D01*
X89146143Y-82494476D01*
X89050905Y-82542095D01*
X90241381Y-82256381D02*
X90336620Y-82256381D01*
X90431858Y-82304000D01*
X90479477Y-82351619D01*
X90527096Y-82446857D01*
X90574715Y-82637333D01*
X90574715Y-82875429D01*
X90527096Y-83065905D01*
X90479477Y-83161143D01*
X90431858Y-83208762D01*
X90336620Y-83256381D01*
X90241381Y-83256381D01*
X90146143Y-83208762D01*
X90098524Y-83161143D01*
X90050905Y-83065905D01*
X90003286Y-82875429D01*
X90003286Y-82637333D01*
X90050905Y-82446857D01*
X90098524Y-82351619D01*
X90146143Y-82304000D01*
X90241381Y-82256381D01*
X91431858Y-82256381D02*
X91241381Y-82256381D01*
X91146143Y-82304000D01*
X91098524Y-82351619D01*
X91003286Y-82494476D01*
X90955667Y-82684952D01*
X90955667Y-83065905D01*
X91003286Y-83161143D01*
X91050905Y-83208762D01*
X91146143Y-83256381D01*
X91336620Y-83256381D01*
X91431858Y-83208762D01*
X91479477Y-83161143D01*
X91527096Y-83065905D01*
X91527096Y-82827810D01*
X91479477Y-82732571D01*
X91431858Y-82684952D01*
X91336620Y-82637333D01*
X91146143Y-82637333D01*
X91050905Y-82684952D01*
X91003286Y-82732571D01*
X90955667Y-82827810D01*
X88098524Y-88336381D02*
X88098524Y-87336381D01*
X88336619Y-87336381D01*
X88479477Y-87384000D01*
X88574715Y-87479238D01*
X88622334Y-87574476D01*
X88669953Y-87764952D01*
X88669953Y-87907810D01*
X88622334Y-88098286D01*
X88574715Y-88193524D01*
X88479477Y-88288762D01*
X88336619Y-88336381D01*
X88098524Y-88336381D01*
X89622334Y-88336381D02*
X89050905Y-88336381D01*
X89336619Y-88336381D02*
X89336619Y-87336381D01*
X89241381Y-87479238D01*
X89146143Y-87574476D01*
X89050905Y-87622095D01*
X90241381Y-87336381D02*
X90336620Y-87336381D01*
X90431858Y-87384000D01*
X90479477Y-87431619D01*
X90527096Y-87526857D01*
X90574715Y-87717333D01*
X90574715Y-87955429D01*
X90527096Y-88145905D01*
X90479477Y-88241143D01*
X90431858Y-88288762D01*
X90336620Y-88336381D01*
X90241381Y-88336381D01*
X90146143Y-88288762D01*
X90098524Y-88241143D01*
X90050905Y-88145905D01*
X90003286Y-87955429D01*
X90003286Y-87717333D01*
X90050905Y-87526857D01*
X90098524Y-87431619D01*
X90146143Y-87384000D01*
X90241381Y-87336381D01*
X90908048Y-87336381D02*
X91574715Y-87336381D01*
X91146143Y-88336381D01*
X88098524Y-93416381D02*
X88098524Y-92416381D01*
X88336619Y-92416381D01*
X88479477Y-92464000D01*
X88574715Y-92559238D01*
X88622334Y-92654476D01*
X88669953Y-92844952D01*
X88669953Y-92987810D01*
X88622334Y-93178286D01*
X88574715Y-93273524D01*
X88479477Y-93368762D01*
X88336619Y-93416381D01*
X88098524Y-93416381D01*
X89622334Y-93416381D02*
X89050905Y-93416381D01*
X89336619Y-93416381D02*
X89336619Y-92416381D01*
X89241381Y-92559238D01*
X89146143Y-92654476D01*
X89050905Y-92702095D01*
X90241381Y-92416381D02*
X90336620Y-92416381D01*
X90431858Y-92464000D01*
X90479477Y-92511619D01*
X90527096Y-92606857D01*
X90574715Y-92797333D01*
X90574715Y-93035429D01*
X90527096Y-93225905D01*
X90479477Y-93321143D01*
X90431858Y-93368762D01*
X90336620Y-93416381D01*
X90241381Y-93416381D01*
X90146143Y-93368762D01*
X90098524Y-93321143D01*
X90050905Y-93225905D01*
X90003286Y-93035429D01*
X90003286Y-92797333D01*
X90050905Y-92606857D01*
X90098524Y-92511619D01*
X90146143Y-92464000D01*
X90241381Y-92416381D01*
X91146143Y-92844952D02*
X91050905Y-92797333D01*
X91003286Y-92749714D01*
X90955667Y-92654476D01*
X90955667Y-92606857D01*
X91003286Y-92511619D01*
X91050905Y-92464000D01*
X91146143Y-92416381D01*
X91336620Y-92416381D01*
X91431858Y-92464000D01*
X91479477Y-92511619D01*
X91527096Y-92606857D01*
X91527096Y-92654476D01*
X91479477Y-92749714D01*
X91431858Y-92797333D01*
X91336620Y-92844952D01*
X91146143Y-92844952D01*
X91050905Y-92892571D01*
X91003286Y-92940190D01*
X90955667Y-93035429D01*
X90955667Y-93225905D01*
X91003286Y-93321143D01*
X91050905Y-93368762D01*
X91146143Y-93416381D01*
X91336620Y-93416381D01*
X91431858Y-93368762D01*
X91479477Y-93321143D01*
X91527096Y-93225905D01*
X91527096Y-93035429D01*
X91479477Y-92940190D01*
X91431858Y-92892571D01*
X91336620Y-92844952D01*
X94702524Y-129230381D02*
X94702524Y-128230381D01*
X95083477Y-128230381D01*
X95178715Y-128278000D01*
X95226334Y-128325619D01*
X95273953Y-128420857D01*
X95273953Y-128563714D01*
X95226334Y-128658952D01*
X95178715Y-128706571D01*
X95083477Y-128754190D01*
X94702524Y-128754190D01*
X96226334Y-129230381D02*
X95654905Y-129230381D01*
X95940619Y-129230381D02*
X95940619Y-128230381D01*
X95845381Y-128373238D01*
X95750143Y-128468476D01*
X95654905Y-128516095D01*
X96845381Y-128230381D02*
X96940620Y-128230381D01*
X97035858Y-128278000D01*
X97083477Y-128325619D01*
X97131096Y-128420857D01*
X97178715Y-128611333D01*
X97178715Y-128849429D01*
X97131096Y-129039905D01*
X97083477Y-129135143D01*
X97035858Y-129182762D01*
X96940620Y-129230381D01*
X96845381Y-129230381D01*
X96750143Y-129182762D01*
X96702524Y-129135143D01*
X96654905Y-129039905D01*
X96607286Y-128849429D01*
X96607286Y-128611333D01*
X96654905Y-128420857D01*
X96702524Y-128325619D01*
X96750143Y-128278000D01*
X96845381Y-128230381D01*
X97559667Y-128325619D02*
X97607286Y-128278000D01*
X97702524Y-128230381D01*
X97940620Y-128230381D01*
X98035858Y-128278000D01*
X98083477Y-128325619D01*
X98131096Y-128420857D01*
X98131096Y-128516095D01*
X98083477Y-128658952D01*
X97512048Y-129230381D01*
X98131096Y-129230381D01*
X77541381Y-112688476D02*
X76541381Y-112688476D01*
X76541381Y-112307523D01*
X76589000Y-112212285D01*
X76636619Y-112164666D01*
X76731857Y-112117047D01*
X76874714Y-112117047D01*
X76969952Y-112164666D01*
X77017571Y-112212285D01*
X77065190Y-112307523D01*
X77065190Y-112688476D01*
X77541381Y-111164666D02*
X77541381Y-111736095D01*
X77541381Y-111450381D02*
X76541381Y-111450381D01*
X76684238Y-111545619D01*
X76779476Y-111640857D01*
X76827095Y-111736095D01*
X76541381Y-110545619D02*
X76541381Y-110450380D01*
X76589000Y-110355142D01*
X76636619Y-110307523D01*
X76731857Y-110259904D01*
X76922333Y-110212285D01*
X77160429Y-110212285D01*
X77350905Y-110259904D01*
X77446143Y-110307523D01*
X77493762Y-110355142D01*
X77541381Y-110450380D01*
X77541381Y-110545619D01*
X77493762Y-110640857D01*
X77446143Y-110688476D01*
X77350905Y-110736095D01*
X77160429Y-110783714D01*
X76922333Y-110783714D01*
X76731857Y-110736095D01*
X76636619Y-110688476D01*
X76589000Y-110640857D01*
X76541381Y-110545619D01*
X76541381Y-109878952D02*
X76541381Y-109259904D01*
X76922333Y-109593238D01*
X76922333Y-109450380D01*
X76969952Y-109355142D01*
X77017571Y-109307523D01*
X77112810Y-109259904D01*
X77350905Y-109259904D01*
X77446143Y-109307523D01*
X77493762Y-109355142D01*
X77541381Y-109450380D01*
X77541381Y-109736095D01*
X77493762Y-109831333D01*
X77446143Y-109878952D01*
X77541381Y-89320476D02*
X76541381Y-89320476D01*
X76541381Y-88939523D01*
X76589000Y-88844285D01*
X76636619Y-88796666D01*
X76731857Y-88749047D01*
X76874714Y-88749047D01*
X76969952Y-88796666D01*
X77017571Y-88844285D01*
X77065190Y-88939523D01*
X77065190Y-89320476D01*
X77541381Y-87796666D02*
X77541381Y-88368095D01*
X77541381Y-88082381D02*
X76541381Y-88082381D01*
X76684238Y-88177619D01*
X76779476Y-88272857D01*
X76827095Y-88368095D01*
X76541381Y-87177619D02*
X76541381Y-87082380D01*
X76589000Y-86987142D01*
X76636619Y-86939523D01*
X76731857Y-86891904D01*
X76922333Y-86844285D01*
X77160429Y-86844285D01*
X77350905Y-86891904D01*
X77446143Y-86939523D01*
X77493762Y-86987142D01*
X77541381Y-87082380D01*
X77541381Y-87177619D01*
X77493762Y-87272857D01*
X77446143Y-87320476D01*
X77350905Y-87368095D01*
X77160429Y-87415714D01*
X76922333Y-87415714D01*
X76731857Y-87368095D01*
X76636619Y-87320476D01*
X76589000Y-87272857D01*
X76541381Y-87177619D01*
X76874714Y-85987142D02*
X77541381Y-85987142D01*
X76493762Y-86225238D02*
X77208048Y-86463333D01*
X77208048Y-85844285D01*
X108140714Y-96480381D02*
X108140714Y-97289905D01*
X108188333Y-97385143D01*
X108235952Y-97432762D01*
X108331190Y-97480381D01*
X108521667Y-97480381D01*
X108616905Y-97432762D01*
X108664524Y-97385143D01*
X108712143Y-97289905D01*
X108712143Y-96480381D01*
X109712143Y-97480381D02*
X109140714Y-97480381D01*
X109426428Y-97480381D02*
X109426428Y-96480381D01*
X109331190Y-96623238D01*
X109235952Y-96718476D01*
X109140714Y-96766095D01*
X110331190Y-96480381D02*
X110426429Y-96480381D01*
X110521667Y-96528000D01*
X110569286Y-96575619D01*
X110616905Y-96670857D01*
X110664524Y-96861333D01*
X110664524Y-97099429D01*
X110616905Y-97289905D01*
X110569286Y-97385143D01*
X110521667Y-97432762D01*
X110426429Y-97480381D01*
X110331190Y-97480381D01*
X110235952Y-97432762D01*
X110188333Y-97385143D01*
X110140714Y-97289905D01*
X110093095Y-97099429D01*
X110093095Y-96861333D01*
X110140714Y-96670857D01*
X110188333Y-96575619D01*
X110235952Y-96528000D01*
X110331190Y-96480381D01*
X111616905Y-97480381D02*
X111045476Y-97480381D01*
X111331190Y-97480381D02*
X111331190Y-96480381D01*
X111235952Y-96623238D01*
X111140714Y-96718476D01*
X111045476Y-96766095D01*
X120848381Y-119800476D02*
X119848381Y-119800476D01*
X119848381Y-119562381D01*
X119896000Y-119419523D01*
X119991238Y-119324285D01*
X120086476Y-119276666D01*
X120276952Y-119229047D01*
X120419810Y-119229047D01*
X120610286Y-119276666D01*
X120705524Y-119324285D01*
X120800762Y-119419523D01*
X120848381Y-119562381D01*
X120848381Y-119800476D01*
X120848381Y-118276666D02*
X120848381Y-118848095D01*
X120848381Y-118562381D02*
X119848381Y-118562381D01*
X119991238Y-118657619D01*
X120086476Y-118752857D01*
X120134095Y-118848095D01*
X119848381Y-117657619D02*
X119848381Y-117562380D01*
X119896000Y-117467142D01*
X119943619Y-117419523D01*
X120038857Y-117371904D01*
X120229333Y-117324285D01*
X120467429Y-117324285D01*
X120657905Y-117371904D01*
X120753143Y-117419523D01*
X120800762Y-117467142D01*
X120848381Y-117562380D01*
X120848381Y-117657619D01*
X120800762Y-117752857D01*
X120753143Y-117800476D01*
X120657905Y-117848095D01*
X120467429Y-117895714D01*
X120229333Y-117895714D01*
X120038857Y-117848095D01*
X119943619Y-117800476D01*
X119896000Y-117752857D01*
X119848381Y-117657619D01*
X120848381Y-116848095D02*
X120848381Y-116657619D01*
X120800762Y-116562380D01*
X120753143Y-116514761D01*
X120610286Y-116419523D01*
X120419810Y-116371904D01*
X120038857Y-116371904D01*
X119943619Y-116419523D01*
X119896000Y-116467142D01*
X119848381Y-116562380D01*
X119848381Y-116752857D01*
X119896000Y-116848095D01*
X119943619Y-116895714D01*
X120038857Y-116943333D01*
X120276952Y-116943333D01*
X120372190Y-116895714D01*
X120419810Y-116848095D01*
X120467429Y-116752857D01*
X120467429Y-116562380D01*
X120419810Y-116467142D01*
X120372190Y-116419523D01*
X120276952Y-116371904D01*
X125928381Y-119800476D02*
X124928381Y-119800476D01*
X124928381Y-119562381D01*
X124976000Y-119419523D01*
X125071238Y-119324285D01*
X125166476Y-119276666D01*
X125356952Y-119229047D01*
X125499810Y-119229047D01*
X125690286Y-119276666D01*
X125785524Y-119324285D01*
X125880762Y-119419523D01*
X125928381Y-119562381D01*
X125928381Y-119800476D01*
X125928381Y-118276666D02*
X125928381Y-118848095D01*
X125928381Y-118562381D02*
X124928381Y-118562381D01*
X125071238Y-118657619D01*
X125166476Y-118752857D01*
X125214095Y-118848095D01*
X125928381Y-117324285D02*
X125928381Y-117895714D01*
X125928381Y-117610000D02*
X124928381Y-117610000D01*
X125071238Y-117705238D01*
X125166476Y-117800476D01*
X125214095Y-117895714D01*
X124928381Y-116705238D02*
X124928381Y-116609999D01*
X124976000Y-116514761D01*
X125023619Y-116467142D01*
X125118857Y-116419523D01*
X125309333Y-116371904D01*
X125547429Y-116371904D01*
X125737905Y-116419523D01*
X125833143Y-116467142D01*
X125880762Y-116514761D01*
X125928381Y-116609999D01*
X125928381Y-116705238D01*
X125880762Y-116800476D01*
X125833143Y-116848095D01*
X125737905Y-116895714D01*
X125547429Y-116943333D01*
X125309333Y-116943333D01*
X125118857Y-116895714D01*
X125023619Y-116848095D01*
X124976000Y-116800476D01*
X124928381Y-116705238D01*
X120848381Y-106338476D02*
X119848381Y-106338476D01*
X119848381Y-106100381D01*
X119896000Y-105957523D01*
X119991238Y-105862285D01*
X120086476Y-105814666D01*
X120276952Y-105767047D01*
X120419810Y-105767047D01*
X120610286Y-105814666D01*
X120705524Y-105862285D01*
X120800762Y-105957523D01*
X120848381Y-106100381D01*
X120848381Y-106338476D01*
X120848381Y-104814666D02*
X120848381Y-105386095D01*
X120848381Y-105100381D02*
X119848381Y-105100381D01*
X119991238Y-105195619D01*
X120086476Y-105290857D01*
X120134095Y-105386095D01*
X120848381Y-103862285D02*
X120848381Y-104433714D01*
X120848381Y-104148000D02*
X119848381Y-104148000D01*
X119991238Y-104243238D01*
X120086476Y-104338476D01*
X120134095Y-104433714D01*
X120848381Y-102909904D02*
X120848381Y-103481333D01*
X120848381Y-103195619D02*
X119848381Y-103195619D01*
X119991238Y-103290857D01*
X120086476Y-103386095D01*
X120134095Y-103481333D01*
X125928381Y-106338476D02*
X124928381Y-106338476D01*
X124928381Y-106100381D01*
X124976000Y-105957523D01*
X125071238Y-105862285D01*
X125166476Y-105814666D01*
X125356952Y-105767047D01*
X125499810Y-105767047D01*
X125690286Y-105814666D01*
X125785524Y-105862285D01*
X125880762Y-105957523D01*
X125928381Y-106100381D01*
X125928381Y-106338476D01*
X125928381Y-104814666D02*
X125928381Y-105386095D01*
X125928381Y-105100381D02*
X124928381Y-105100381D01*
X125071238Y-105195619D01*
X125166476Y-105290857D01*
X125214095Y-105386095D01*
X125928381Y-103862285D02*
X125928381Y-104433714D01*
X125928381Y-104148000D02*
X124928381Y-104148000D01*
X125071238Y-104243238D01*
X125166476Y-104338476D01*
X125214095Y-104433714D01*
X125023619Y-103481333D02*
X124976000Y-103433714D01*
X124928381Y-103338476D01*
X124928381Y-103100380D01*
X124976000Y-103005142D01*
X125023619Y-102957523D01*
X125118857Y-102909904D01*
X125214095Y-102909904D01*
X125356952Y-102957523D01*
X125928381Y-103528952D01*
X125928381Y-102909904D01*
X135977524Y-129230381D02*
X135977524Y-128230381D01*
X136358477Y-128230381D01*
X136453715Y-128278000D01*
X136501334Y-128325619D01*
X136548953Y-128420857D01*
X136548953Y-128563714D01*
X136501334Y-128658952D01*
X136453715Y-128706571D01*
X136358477Y-128754190D01*
X135977524Y-128754190D01*
X137501334Y-129230381D02*
X136929905Y-129230381D01*
X137215619Y-129230381D02*
X137215619Y-128230381D01*
X137120381Y-128373238D01*
X137025143Y-128468476D01*
X136929905Y-128516095D01*
X138120381Y-128230381D02*
X138215620Y-128230381D01*
X138310858Y-128278000D01*
X138358477Y-128325619D01*
X138406096Y-128420857D01*
X138453715Y-128611333D01*
X138453715Y-128849429D01*
X138406096Y-129039905D01*
X138358477Y-129135143D01*
X138310858Y-129182762D01*
X138215620Y-129230381D01*
X138120381Y-129230381D01*
X138025143Y-129182762D01*
X137977524Y-129135143D01*
X137929905Y-129039905D01*
X137882286Y-128849429D01*
X137882286Y-128611333D01*
X137929905Y-128420857D01*
X137977524Y-128325619D01*
X138025143Y-128278000D01*
X138120381Y-128230381D01*
X139406096Y-129230381D02*
X138834667Y-129230381D01*
X139120381Y-129230381D02*
X139120381Y-128230381D01*
X139025143Y-128373238D01*
X138929905Y-128468476D01*
X138834667Y-128516095D01*
X132659381Y-118213047D02*
X132183190Y-118546381D01*
X132659381Y-118784476D02*
X131659381Y-118784476D01*
X131659381Y-118403523D01*
X131707000Y-118308285D01*
X131754619Y-118260666D01*
X131849857Y-118213047D01*
X131992714Y-118213047D01*
X132087952Y-118260666D01*
X132135571Y-118308285D01*
X132183190Y-118403523D01*
X132183190Y-118784476D01*
X132659381Y-117260666D02*
X132659381Y-117832095D01*
X132659381Y-117546381D02*
X131659381Y-117546381D01*
X131802238Y-117641619D01*
X131897476Y-117736857D01*
X131945095Y-117832095D01*
X131659381Y-116641619D02*
X131659381Y-116546380D01*
X131707000Y-116451142D01*
X131754619Y-116403523D01*
X131849857Y-116355904D01*
X132040333Y-116308285D01*
X132278429Y-116308285D01*
X132468905Y-116355904D01*
X132564143Y-116403523D01*
X132611762Y-116451142D01*
X132659381Y-116546380D01*
X132659381Y-116641619D01*
X132611762Y-116736857D01*
X132564143Y-116784476D01*
X132468905Y-116832095D01*
X132278429Y-116879714D01*
X132040333Y-116879714D01*
X131849857Y-116832095D01*
X131754619Y-116784476D01*
X131707000Y-116736857D01*
X131659381Y-116641619D01*
X132659381Y-115355904D02*
X132659381Y-115927333D01*
X132659381Y-115641619D02*
X131659381Y-115641619D01*
X131802238Y-115736857D01*
X131897476Y-115832095D01*
X131945095Y-115927333D01*
X135707381Y-118213047D02*
X135231190Y-118546381D01*
X135707381Y-118784476D02*
X134707381Y-118784476D01*
X134707381Y-118403523D01*
X134755000Y-118308285D01*
X134802619Y-118260666D01*
X134897857Y-118213047D01*
X135040714Y-118213047D01*
X135135952Y-118260666D01*
X135183571Y-118308285D01*
X135231190Y-118403523D01*
X135231190Y-118784476D01*
X135707381Y-117260666D02*
X135707381Y-117832095D01*
X135707381Y-117546381D02*
X134707381Y-117546381D01*
X134850238Y-117641619D01*
X134945476Y-117736857D01*
X134993095Y-117832095D01*
X134707381Y-116641619D02*
X134707381Y-116546380D01*
X134755000Y-116451142D01*
X134802619Y-116403523D01*
X134897857Y-116355904D01*
X135088333Y-116308285D01*
X135326429Y-116308285D01*
X135516905Y-116355904D01*
X135612143Y-116403523D01*
X135659762Y-116451142D01*
X135707381Y-116546380D01*
X135707381Y-116641619D01*
X135659762Y-116736857D01*
X135612143Y-116784476D01*
X135516905Y-116832095D01*
X135326429Y-116879714D01*
X135088333Y-116879714D01*
X134897857Y-116832095D01*
X134802619Y-116784476D01*
X134755000Y-116736857D01*
X134707381Y-116641619D01*
X134802619Y-115927333D02*
X134755000Y-115879714D01*
X134707381Y-115784476D01*
X134707381Y-115546380D01*
X134755000Y-115451142D01*
X134802619Y-115403523D01*
X134897857Y-115355904D01*
X134993095Y-115355904D01*
X135135952Y-115403523D01*
X135707381Y-115974952D01*
X135707381Y-115355904D01*
X139644381Y-118213047D02*
X139168190Y-118546381D01*
X139644381Y-118784476D02*
X138644381Y-118784476D01*
X138644381Y-118403523D01*
X138692000Y-118308285D01*
X138739619Y-118260666D01*
X138834857Y-118213047D01*
X138977714Y-118213047D01*
X139072952Y-118260666D01*
X139120571Y-118308285D01*
X139168190Y-118403523D01*
X139168190Y-118784476D01*
X139644381Y-117260666D02*
X139644381Y-117832095D01*
X139644381Y-117546381D02*
X138644381Y-117546381D01*
X138787238Y-117641619D01*
X138882476Y-117736857D01*
X138930095Y-117832095D01*
X138644381Y-116641619D02*
X138644381Y-116546380D01*
X138692000Y-116451142D01*
X138739619Y-116403523D01*
X138834857Y-116355904D01*
X139025333Y-116308285D01*
X139263429Y-116308285D01*
X139453905Y-116355904D01*
X139549143Y-116403523D01*
X139596762Y-116451142D01*
X139644381Y-116546380D01*
X139644381Y-116641619D01*
X139596762Y-116736857D01*
X139549143Y-116784476D01*
X139453905Y-116832095D01*
X139263429Y-116879714D01*
X139025333Y-116879714D01*
X138834857Y-116832095D01*
X138739619Y-116784476D01*
X138692000Y-116736857D01*
X138644381Y-116641619D01*
X138644381Y-115974952D02*
X138644381Y-115355904D01*
X139025333Y-115689238D01*
X139025333Y-115546380D01*
X139072952Y-115451142D01*
X139120571Y-115403523D01*
X139215810Y-115355904D01*
X139453905Y-115355904D01*
X139549143Y-115403523D01*
X139596762Y-115451142D01*
X139644381Y-115546380D01*
X139644381Y-115832095D01*
X139596762Y-115927333D01*
X139549143Y-115974952D01*
X142692381Y-118213047D02*
X142216190Y-118546381D01*
X142692381Y-118784476D02*
X141692381Y-118784476D01*
X141692381Y-118403523D01*
X141740000Y-118308285D01*
X141787619Y-118260666D01*
X141882857Y-118213047D01*
X142025714Y-118213047D01*
X142120952Y-118260666D01*
X142168571Y-118308285D01*
X142216190Y-118403523D01*
X142216190Y-118784476D01*
X142692381Y-117260666D02*
X142692381Y-117832095D01*
X142692381Y-117546381D02*
X141692381Y-117546381D01*
X141835238Y-117641619D01*
X141930476Y-117736857D01*
X141978095Y-117832095D01*
X141692381Y-116641619D02*
X141692381Y-116546380D01*
X141740000Y-116451142D01*
X141787619Y-116403523D01*
X141882857Y-116355904D01*
X142073333Y-116308285D01*
X142311429Y-116308285D01*
X142501905Y-116355904D01*
X142597143Y-116403523D01*
X142644762Y-116451142D01*
X142692381Y-116546380D01*
X142692381Y-116641619D01*
X142644762Y-116736857D01*
X142597143Y-116784476D01*
X142501905Y-116832095D01*
X142311429Y-116879714D01*
X142073333Y-116879714D01*
X141882857Y-116832095D01*
X141787619Y-116784476D01*
X141740000Y-116736857D01*
X141692381Y-116641619D01*
X142025714Y-115451142D02*
X142692381Y-115451142D01*
X141644762Y-115689238D02*
X142359048Y-115927333D01*
X142359048Y-115308285D01*
X121118381Y-92646286D02*
X121927905Y-92646286D01*
X122023143Y-92598667D01*
X122070762Y-92551048D01*
X122118381Y-92455810D01*
X122118381Y-92265333D01*
X122070762Y-92170095D01*
X122023143Y-92122476D01*
X121927905Y-92074857D01*
X121118381Y-92074857D01*
X122118381Y-91074857D02*
X122118381Y-91646286D01*
X122118381Y-91360572D02*
X121118381Y-91360572D01*
X121261238Y-91455810D01*
X121356476Y-91551048D01*
X121404095Y-91646286D01*
X121118381Y-90455810D02*
X121118381Y-90360571D01*
X121166000Y-90265333D01*
X121213619Y-90217714D01*
X121308857Y-90170095D01*
X121499333Y-90122476D01*
X121737429Y-90122476D01*
X121927905Y-90170095D01*
X122023143Y-90217714D01*
X122070762Y-90265333D01*
X122118381Y-90360571D01*
X122118381Y-90455810D01*
X122070762Y-90551048D01*
X122023143Y-90598667D01*
X121927905Y-90646286D01*
X121737429Y-90693905D01*
X121499333Y-90693905D01*
X121308857Y-90646286D01*
X121213619Y-90598667D01*
X121166000Y-90551048D01*
X121118381Y-90455810D01*
X121213619Y-89741524D02*
X121166000Y-89693905D01*
X121118381Y-89598667D01*
X121118381Y-89360571D01*
X121166000Y-89265333D01*
X121213619Y-89217714D01*
X121308857Y-89170095D01*
X121404095Y-89170095D01*
X121546952Y-89217714D01*
X122118381Y-89789143D01*
X122118381Y-89170095D01*
X133310381Y-92900286D02*
X134119905Y-92900286D01*
X134215143Y-92852667D01*
X134262762Y-92805048D01*
X134310381Y-92709810D01*
X134310381Y-92519333D01*
X134262762Y-92424095D01*
X134215143Y-92376476D01*
X134119905Y-92328857D01*
X133310381Y-92328857D01*
X134310381Y-91328857D02*
X134310381Y-91900286D01*
X134310381Y-91614572D02*
X133310381Y-91614572D01*
X133453238Y-91709810D01*
X133548476Y-91805048D01*
X133596095Y-91900286D01*
X133310381Y-90709810D02*
X133310381Y-90614571D01*
X133358000Y-90519333D01*
X133405619Y-90471714D01*
X133500857Y-90424095D01*
X133691333Y-90376476D01*
X133929429Y-90376476D01*
X134119905Y-90424095D01*
X134215143Y-90471714D01*
X134262762Y-90519333D01*
X134310381Y-90614571D01*
X134310381Y-90709810D01*
X134262762Y-90805048D01*
X134215143Y-90852667D01*
X134119905Y-90900286D01*
X133929429Y-90947905D01*
X133691333Y-90947905D01*
X133500857Y-90900286D01*
X133405619Y-90852667D01*
X133358000Y-90805048D01*
X133310381Y-90709810D01*
X133310381Y-90043143D02*
X133310381Y-89424095D01*
X133691333Y-89757429D01*
X133691333Y-89614571D01*
X133738952Y-89519333D01*
X133786571Y-89471714D01*
X133881810Y-89424095D01*
X134119905Y-89424095D01*
X134215143Y-89471714D01*
X134262762Y-89519333D01*
X134310381Y-89614571D01*
X134310381Y-89900286D01*
X134262762Y-89995524D01*
X134215143Y-90043143D01*
X121118381Y-79438286D02*
X121927905Y-79438286D01*
X122023143Y-79390667D01*
X122070762Y-79343048D01*
X122118381Y-79247810D01*
X122118381Y-79057333D01*
X122070762Y-78962095D01*
X122023143Y-78914476D01*
X121927905Y-78866857D01*
X121118381Y-78866857D01*
X122118381Y-77866857D02*
X122118381Y-78438286D01*
X122118381Y-78152572D02*
X121118381Y-78152572D01*
X121261238Y-78247810D01*
X121356476Y-78343048D01*
X121404095Y-78438286D01*
X121118381Y-77247810D02*
X121118381Y-77152571D01*
X121166000Y-77057333D01*
X121213619Y-77009714D01*
X121308857Y-76962095D01*
X121499333Y-76914476D01*
X121737429Y-76914476D01*
X121927905Y-76962095D01*
X122023143Y-77009714D01*
X122070762Y-77057333D01*
X122118381Y-77152571D01*
X122118381Y-77247810D01*
X122070762Y-77343048D01*
X122023143Y-77390667D01*
X121927905Y-77438286D01*
X121737429Y-77485905D01*
X121499333Y-77485905D01*
X121308857Y-77438286D01*
X121213619Y-77390667D01*
X121166000Y-77343048D01*
X121118381Y-77247810D01*
X121451714Y-76057333D02*
X122118381Y-76057333D01*
X121070762Y-76295429D02*
X121785048Y-76533524D01*
X121785048Y-75914476D01*
X133310381Y-79438286D02*
X134119905Y-79438286D01*
X134215143Y-79390667D01*
X134262762Y-79343048D01*
X134310381Y-79247810D01*
X134310381Y-79057333D01*
X134262762Y-78962095D01*
X134215143Y-78914476D01*
X134119905Y-78866857D01*
X133310381Y-78866857D01*
X134310381Y-77866857D02*
X134310381Y-78438286D01*
X134310381Y-78152572D02*
X133310381Y-78152572D01*
X133453238Y-78247810D01*
X133548476Y-78343048D01*
X133596095Y-78438286D01*
X133310381Y-77247810D02*
X133310381Y-77152571D01*
X133358000Y-77057333D01*
X133405619Y-77009714D01*
X133500857Y-76962095D01*
X133691333Y-76914476D01*
X133929429Y-76914476D01*
X134119905Y-76962095D01*
X134215143Y-77009714D01*
X134262762Y-77057333D01*
X134310381Y-77152571D01*
X134310381Y-77247810D01*
X134262762Y-77343048D01*
X134215143Y-77390667D01*
X134119905Y-77438286D01*
X133929429Y-77485905D01*
X133691333Y-77485905D01*
X133500857Y-77438286D01*
X133405619Y-77390667D01*
X133358000Y-77343048D01*
X133310381Y-77247810D01*
X133310381Y-76009714D02*
X133310381Y-76485905D01*
X133786571Y-76533524D01*
X133738952Y-76485905D01*
X133691333Y-76390667D01*
X133691333Y-76152571D01*
X133738952Y-76057333D01*
X133786571Y-76009714D01*
X133881810Y-75962095D01*
X134119905Y-75962095D01*
X134215143Y-76009714D01*
X134262762Y-76057333D01*
X134310381Y-76152571D01*
X134310381Y-76390667D01*
X134262762Y-76485905D01*
X134215143Y-76533524D01*
X217876381Y-93257476D02*
X216876381Y-93257476D01*
X216876381Y-93019381D01*
X216924000Y-92876523D01*
X217019238Y-92781285D01*
X217114476Y-92733666D01*
X217304952Y-92686047D01*
X217447810Y-92686047D01*
X217638286Y-92733666D01*
X217733524Y-92781285D01*
X217828762Y-92876523D01*
X217876381Y-93019381D01*
X217876381Y-93257476D01*
X217876381Y-91733666D02*
X217876381Y-92305095D01*
X217876381Y-92019381D02*
X216876381Y-92019381D01*
X217019238Y-92114619D01*
X217114476Y-92209857D01*
X217162095Y-92305095D01*
X217876381Y-90781285D02*
X217876381Y-91352714D01*
X217876381Y-91067000D02*
X216876381Y-91067000D01*
X217019238Y-91162238D01*
X217114476Y-91257476D01*
X217162095Y-91352714D01*
X216876381Y-90447952D02*
X216876381Y-89828904D01*
X217257333Y-90162238D01*
X217257333Y-90019380D01*
X217304952Y-89924142D01*
X217352571Y-89876523D01*
X217447810Y-89828904D01*
X217685905Y-89828904D01*
X217781143Y-89876523D01*
X217828762Y-89924142D01*
X217876381Y-90019380D01*
X217876381Y-90305095D01*
X217828762Y-90400333D01*
X217781143Y-90447952D01*
X226766381Y-95797476D02*
X225766381Y-95797476D01*
X225766381Y-95559381D01*
X225814000Y-95416523D01*
X225909238Y-95321285D01*
X226004476Y-95273666D01*
X226194952Y-95226047D01*
X226337810Y-95226047D01*
X226528286Y-95273666D01*
X226623524Y-95321285D01*
X226718762Y-95416523D01*
X226766381Y-95559381D01*
X226766381Y-95797476D01*
X226766381Y-94273666D02*
X226766381Y-94845095D01*
X226766381Y-94559381D02*
X225766381Y-94559381D01*
X225909238Y-94654619D01*
X226004476Y-94749857D01*
X226052095Y-94845095D01*
X226766381Y-93321285D02*
X226766381Y-93892714D01*
X226766381Y-93607000D02*
X225766381Y-93607000D01*
X225909238Y-93702238D01*
X226004476Y-93797476D01*
X226052095Y-93892714D01*
X226099714Y-92464142D02*
X226766381Y-92464142D01*
X225718762Y-92702238D02*
X226433048Y-92940333D01*
X226433048Y-92321285D01*
X217876381Y-108497476D02*
X216876381Y-108497476D01*
X216876381Y-108259381D01*
X216924000Y-108116523D01*
X217019238Y-108021285D01*
X217114476Y-107973666D01*
X217304952Y-107926047D01*
X217447810Y-107926047D01*
X217638286Y-107973666D01*
X217733524Y-108021285D01*
X217828762Y-108116523D01*
X217876381Y-108259381D01*
X217876381Y-108497476D01*
X217876381Y-106973666D02*
X217876381Y-107545095D01*
X217876381Y-107259381D02*
X216876381Y-107259381D01*
X217019238Y-107354619D01*
X217114476Y-107449857D01*
X217162095Y-107545095D01*
X217876381Y-106021285D02*
X217876381Y-106592714D01*
X217876381Y-106307000D02*
X216876381Y-106307000D01*
X217019238Y-106402238D01*
X217114476Y-106497476D01*
X217162095Y-106592714D01*
X216876381Y-105116523D02*
X216876381Y-105592714D01*
X217352571Y-105640333D01*
X217304952Y-105592714D01*
X217257333Y-105497476D01*
X217257333Y-105259380D01*
X217304952Y-105164142D01*
X217352571Y-105116523D01*
X217447810Y-105068904D01*
X217685905Y-105068904D01*
X217781143Y-105116523D01*
X217828762Y-105164142D01*
X217876381Y-105259380D01*
X217876381Y-105497476D01*
X217828762Y-105592714D01*
X217781143Y-105640333D01*
X227398841Y-110730136D02*
X226398841Y-110730136D01*
X226398841Y-110492041D01*
X226446460Y-110349183D01*
X226541698Y-110253945D01*
X226636936Y-110206326D01*
X226827412Y-110158707D01*
X226970270Y-110158707D01*
X227160746Y-110206326D01*
X227255984Y-110253945D01*
X227351222Y-110349183D01*
X227398841Y-110492041D01*
X227398841Y-110730136D01*
X227398841Y-109206326D02*
X227398841Y-109777755D01*
X227398841Y-109492041D02*
X226398841Y-109492041D01*
X226541698Y-109587279D01*
X226636936Y-109682517D01*
X226684555Y-109777755D01*
X227398841Y-108253945D02*
X227398841Y-108825374D01*
X227398841Y-108539660D02*
X226398841Y-108539660D01*
X226541698Y-108634898D01*
X226636936Y-108730136D01*
X226684555Y-108825374D01*
X226398841Y-107396802D02*
X226398841Y-107587279D01*
X226446460Y-107682517D01*
X226494079Y-107730136D01*
X226636936Y-107825374D01*
X226827412Y-107872993D01*
X227208365Y-107872993D01*
X227303603Y-107825374D01*
X227351222Y-107777755D01*
X227398841Y-107682517D01*
X227398841Y-107492040D01*
X227351222Y-107396802D01*
X227303603Y-107349183D01*
X227208365Y-107301564D01*
X226970270Y-107301564D01*
X226875031Y-107349183D01*
X226827412Y-107396802D01*
X226779793Y-107492040D01*
X226779793Y-107682517D01*
X226827412Y-107777755D01*
X226875031Y-107825374D01*
X226970270Y-107872993D01*
X233751381Y-100877476D02*
X232751381Y-100877476D01*
X232751381Y-100496523D01*
X232799000Y-100401285D01*
X232846619Y-100353666D01*
X232941857Y-100306047D01*
X233084714Y-100306047D01*
X233179952Y-100353666D01*
X233227571Y-100401285D01*
X233275190Y-100496523D01*
X233275190Y-100877476D01*
X233751381Y-99353666D02*
X233751381Y-99925095D01*
X233751381Y-99639381D02*
X232751381Y-99639381D01*
X232894238Y-99734619D01*
X232989476Y-99829857D01*
X233037095Y-99925095D01*
X232751381Y-98734619D02*
X232751381Y-98639380D01*
X232799000Y-98544142D01*
X232846619Y-98496523D01*
X232941857Y-98448904D01*
X233132333Y-98401285D01*
X233370429Y-98401285D01*
X233560905Y-98448904D01*
X233656143Y-98496523D01*
X233703762Y-98544142D01*
X233751381Y-98639380D01*
X233751381Y-98734619D01*
X233703762Y-98829857D01*
X233656143Y-98877476D01*
X233560905Y-98925095D01*
X233370429Y-98972714D01*
X233132333Y-98972714D01*
X232941857Y-98925095D01*
X232846619Y-98877476D01*
X232799000Y-98829857D01*
X232751381Y-98734619D01*
X233751381Y-97925095D02*
X233751381Y-97734619D01*
X233703762Y-97639380D01*
X233656143Y-97591761D01*
X233513286Y-97496523D01*
X233322810Y-97448904D01*
X232941857Y-97448904D01*
X232846619Y-97496523D01*
X232799000Y-97544142D01*
X232751381Y-97639380D01*
X232751381Y-97829857D01*
X232799000Y-97925095D01*
X232846619Y-97972714D01*
X232941857Y-98020333D01*
X233179952Y-98020333D01*
X233275190Y-97972714D01*
X233322810Y-97925095D01*
X233370429Y-97829857D01*
X233370429Y-97639380D01*
X233322810Y-97544142D01*
X233275190Y-97496523D01*
X233179952Y-97448904D01*
X210724881Y-97448619D02*
X210629643Y-97401000D01*
X210534405Y-97305762D01*
X210391548Y-97162905D01*
X210296309Y-97115286D01*
X210201071Y-97115286D01*
X210248690Y-97353381D02*
X210153452Y-97305762D01*
X210058214Y-97210524D01*
X210010595Y-97020048D01*
X210010595Y-96686714D01*
X210058214Y-96496238D01*
X210153452Y-96401000D01*
X210248690Y-96353381D01*
X210439167Y-96353381D01*
X210534405Y-96401000D01*
X210629643Y-96496238D01*
X210677262Y-96686714D01*
X210677262Y-97020048D01*
X210629643Y-97210524D01*
X210534405Y-97305762D01*
X210439167Y-97353381D01*
X210248690Y-97353381D01*
X211629643Y-97353381D02*
X211058214Y-97353381D01*
X211343928Y-97353381D02*
X211343928Y-96353381D01*
X211248690Y-96496238D01*
X211153452Y-96591476D01*
X211058214Y-96639095D01*
X212248690Y-96353381D02*
X212343929Y-96353381D01*
X212439167Y-96401000D01*
X212486786Y-96448619D01*
X212534405Y-96543857D01*
X212582024Y-96734333D01*
X212582024Y-96972429D01*
X212534405Y-97162905D01*
X212486786Y-97258143D01*
X212439167Y-97305762D01*
X212343929Y-97353381D01*
X212248690Y-97353381D01*
X212153452Y-97305762D01*
X212105833Y-97258143D01*
X212058214Y-97162905D01*
X212010595Y-96972429D01*
X212010595Y-96734333D01*
X212058214Y-96543857D01*
X212105833Y-96448619D01*
X212153452Y-96401000D01*
X212248690Y-96353381D01*
X213534405Y-97353381D02*
X212962976Y-97353381D01*
X213248690Y-97353381D02*
X213248690Y-96353381D01*
X213153452Y-96496238D01*
X213058214Y-96591476D01*
X212962976Y-96639095D01*
X200183881Y-97448619D02*
X200088643Y-97401000D01*
X199993405Y-97305762D01*
X199850548Y-97162905D01*
X199755309Y-97115286D01*
X199660071Y-97115286D01*
X199707690Y-97353381D02*
X199612452Y-97305762D01*
X199517214Y-97210524D01*
X199469595Y-97020048D01*
X199469595Y-96686714D01*
X199517214Y-96496238D01*
X199612452Y-96401000D01*
X199707690Y-96353381D01*
X199898167Y-96353381D01*
X199993405Y-96401000D01*
X200088643Y-96496238D01*
X200136262Y-96686714D01*
X200136262Y-97020048D01*
X200088643Y-97210524D01*
X199993405Y-97305762D01*
X199898167Y-97353381D01*
X199707690Y-97353381D01*
X201088643Y-97353381D02*
X200517214Y-97353381D01*
X200802928Y-97353381D02*
X200802928Y-96353381D01*
X200707690Y-96496238D01*
X200612452Y-96591476D01*
X200517214Y-96639095D01*
X201707690Y-96353381D02*
X201802929Y-96353381D01*
X201898167Y-96401000D01*
X201945786Y-96448619D01*
X201993405Y-96543857D01*
X202041024Y-96734333D01*
X202041024Y-96972429D01*
X201993405Y-97162905D01*
X201945786Y-97258143D01*
X201898167Y-97305762D01*
X201802929Y-97353381D01*
X201707690Y-97353381D01*
X201612452Y-97305762D01*
X201564833Y-97258143D01*
X201517214Y-97162905D01*
X201469595Y-96972429D01*
X201469595Y-96734333D01*
X201517214Y-96543857D01*
X201564833Y-96448619D01*
X201612452Y-96401000D01*
X201707690Y-96353381D01*
X202421976Y-96448619D02*
X202469595Y-96401000D01*
X202564833Y-96353381D01*
X202802929Y-96353381D01*
X202898167Y-96401000D01*
X202945786Y-96448619D01*
X202993405Y-96543857D01*
X202993405Y-96639095D01*
X202945786Y-96781952D01*
X202374357Y-97353381D01*
X202993405Y-97353381D01*
X200183881Y-101830119D02*
X200088643Y-101782500D01*
X199993405Y-101687262D01*
X199850548Y-101544405D01*
X199755309Y-101496786D01*
X199660071Y-101496786D01*
X199707690Y-101734881D02*
X199612452Y-101687262D01*
X199517214Y-101592024D01*
X199469595Y-101401548D01*
X199469595Y-101068214D01*
X199517214Y-100877738D01*
X199612452Y-100782500D01*
X199707690Y-100734881D01*
X199898167Y-100734881D01*
X199993405Y-100782500D01*
X200088643Y-100877738D01*
X200136262Y-101068214D01*
X200136262Y-101401548D01*
X200088643Y-101592024D01*
X199993405Y-101687262D01*
X199898167Y-101734881D01*
X199707690Y-101734881D01*
X201088643Y-101734881D02*
X200517214Y-101734881D01*
X200802928Y-101734881D02*
X200802928Y-100734881D01*
X200707690Y-100877738D01*
X200612452Y-100972976D01*
X200517214Y-101020595D01*
X201707690Y-100734881D02*
X201802929Y-100734881D01*
X201898167Y-100782500D01*
X201945786Y-100830119D01*
X201993405Y-100925357D01*
X202041024Y-101115833D01*
X202041024Y-101353929D01*
X201993405Y-101544405D01*
X201945786Y-101639643D01*
X201898167Y-101687262D01*
X201802929Y-101734881D01*
X201707690Y-101734881D01*
X201612452Y-101687262D01*
X201564833Y-101639643D01*
X201517214Y-101544405D01*
X201469595Y-101353929D01*
X201469595Y-101115833D01*
X201517214Y-100925357D01*
X201564833Y-100830119D01*
X201612452Y-100782500D01*
X201707690Y-100734881D01*
X202374357Y-100734881D02*
X202993405Y-100734881D01*
X202660071Y-101115833D01*
X202802929Y-101115833D01*
X202898167Y-101163452D01*
X202945786Y-101211071D01*
X202993405Y-101306310D01*
X202993405Y-101544405D01*
X202945786Y-101639643D01*
X202898167Y-101687262D01*
X202802929Y-101734881D01*
X202517214Y-101734881D01*
X202421976Y-101687262D01*
X202374357Y-101639643D01*
X210534381Y-101830119D02*
X210439143Y-101782500D01*
X210343905Y-101687262D01*
X210201048Y-101544405D01*
X210105809Y-101496786D01*
X210010571Y-101496786D01*
X210058190Y-101734881D02*
X209962952Y-101687262D01*
X209867714Y-101592024D01*
X209820095Y-101401548D01*
X209820095Y-101068214D01*
X209867714Y-100877738D01*
X209962952Y-100782500D01*
X210058190Y-100734881D01*
X210248667Y-100734881D01*
X210343905Y-100782500D01*
X210439143Y-100877738D01*
X210486762Y-101068214D01*
X210486762Y-101401548D01*
X210439143Y-101592024D01*
X210343905Y-101687262D01*
X210248667Y-101734881D01*
X210058190Y-101734881D01*
X211439143Y-101734881D02*
X210867714Y-101734881D01*
X211153428Y-101734881D02*
X211153428Y-100734881D01*
X211058190Y-100877738D01*
X210962952Y-100972976D01*
X210867714Y-101020595D01*
X212058190Y-100734881D02*
X212153429Y-100734881D01*
X212248667Y-100782500D01*
X212296286Y-100830119D01*
X212343905Y-100925357D01*
X212391524Y-101115833D01*
X212391524Y-101353929D01*
X212343905Y-101544405D01*
X212296286Y-101639643D01*
X212248667Y-101687262D01*
X212153429Y-101734881D01*
X212058190Y-101734881D01*
X211962952Y-101687262D01*
X211915333Y-101639643D01*
X211867714Y-101544405D01*
X211820095Y-101353929D01*
X211820095Y-101115833D01*
X211867714Y-100925357D01*
X211915333Y-100830119D01*
X211962952Y-100782500D01*
X212058190Y-100734881D01*
X213248667Y-101068214D02*
X213248667Y-101734881D01*
X213010571Y-100687262D02*
X212772476Y-101401548D01*
X213391524Y-101401548D01*
X210938241Y-72056239D02*
X210843003Y-72008620D01*
X210747765Y-71913382D01*
X210604908Y-71770525D01*
X210509669Y-71722906D01*
X210414431Y-71722906D01*
X210462050Y-71961001D02*
X210366812Y-71913382D01*
X210271574Y-71818144D01*
X210223955Y-71627668D01*
X210223955Y-71294334D01*
X210271574Y-71103858D01*
X210366812Y-71008620D01*
X210462050Y-70961001D01*
X210652527Y-70961001D01*
X210747765Y-71008620D01*
X210843003Y-71103858D01*
X210890622Y-71294334D01*
X210890622Y-71627668D01*
X210843003Y-71818144D01*
X210747765Y-71913382D01*
X210652527Y-71961001D01*
X210462050Y-71961001D01*
X211843003Y-71961001D02*
X211271574Y-71961001D01*
X211557288Y-71961001D02*
X211557288Y-70961001D01*
X211462050Y-71103858D01*
X211366812Y-71199096D01*
X211271574Y-71246715D01*
X212462050Y-70961001D02*
X212557289Y-70961001D01*
X212652527Y-71008620D01*
X212700146Y-71056239D01*
X212747765Y-71151477D01*
X212795384Y-71341953D01*
X212795384Y-71580049D01*
X212747765Y-71770525D01*
X212700146Y-71865763D01*
X212652527Y-71913382D01*
X212557289Y-71961001D01*
X212462050Y-71961001D01*
X212366812Y-71913382D01*
X212319193Y-71865763D01*
X212271574Y-71770525D01*
X212223955Y-71580049D01*
X212223955Y-71341953D01*
X212271574Y-71151477D01*
X212319193Y-71056239D01*
X212366812Y-71008620D01*
X212462050Y-70961001D01*
X213700146Y-70961001D02*
X213223955Y-70961001D01*
X213176336Y-71437191D01*
X213223955Y-71389572D01*
X213319193Y-71341953D01*
X213557289Y-71341953D01*
X213652527Y-71389572D01*
X213700146Y-71437191D01*
X213747765Y-71532430D01*
X213747765Y-71770525D01*
X213700146Y-71865763D01*
X213652527Y-71913382D01*
X213557289Y-71961001D01*
X213319193Y-71961001D01*
X213223955Y-71913382D01*
X213176336Y-71865763D01*
X200333741Y-71992739D02*
X200238503Y-71945120D01*
X200143265Y-71849882D01*
X200000408Y-71707025D01*
X199905169Y-71659406D01*
X199809931Y-71659406D01*
X199857550Y-71897501D02*
X199762312Y-71849882D01*
X199667074Y-71754644D01*
X199619455Y-71564168D01*
X199619455Y-71230834D01*
X199667074Y-71040358D01*
X199762312Y-70945120D01*
X199857550Y-70897501D01*
X200048027Y-70897501D01*
X200143265Y-70945120D01*
X200238503Y-71040358D01*
X200286122Y-71230834D01*
X200286122Y-71564168D01*
X200238503Y-71754644D01*
X200143265Y-71849882D01*
X200048027Y-71897501D01*
X199857550Y-71897501D01*
X201238503Y-71897501D02*
X200667074Y-71897501D01*
X200952788Y-71897501D02*
X200952788Y-70897501D01*
X200857550Y-71040358D01*
X200762312Y-71135596D01*
X200667074Y-71183215D01*
X201857550Y-70897501D02*
X201952789Y-70897501D01*
X202048027Y-70945120D01*
X202095646Y-70992739D01*
X202143265Y-71087977D01*
X202190884Y-71278453D01*
X202190884Y-71516549D01*
X202143265Y-71707025D01*
X202095646Y-71802263D01*
X202048027Y-71849882D01*
X201952789Y-71897501D01*
X201857550Y-71897501D01*
X201762312Y-71849882D01*
X201714693Y-71802263D01*
X201667074Y-71707025D01*
X201619455Y-71516549D01*
X201619455Y-71278453D01*
X201667074Y-71087977D01*
X201714693Y-70992739D01*
X201762312Y-70945120D01*
X201857550Y-70897501D01*
X203048027Y-70897501D02*
X202857550Y-70897501D01*
X202762312Y-70945120D01*
X202714693Y-70992739D01*
X202619455Y-71135596D01*
X202571836Y-71326072D01*
X202571836Y-71707025D01*
X202619455Y-71802263D01*
X202667074Y-71849882D01*
X202762312Y-71897501D01*
X202952789Y-71897501D01*
X203048027Y-71849882D01*
X203095646Y-71802263D01*
X203143265Y-71707025D01*
X203143265Y-71468930D01*
X203095646Y-71373691D01*
X203048027Y-71326072D01*
X202952789Y-71278453D01*
X202762312Y-71278453D01*
X202667074Y-71326072D01*
X202619455Y-71373691D01*
X202571836Y-71468930D01*
X199970521Y-127158999D02*
X199875283Y-127111380D01*
X199780045Y-127016142D01*
X199637188Y-126873285D01*
X199541949Y-126825666D01*
X199446711Y-126825666D01*
X199494330Y-127063761D02*
X199399092Y-127016142D01*
X199303854Y-126920904D01*
X199256235Y-126730428D01*
X199256235Y-126397094D01*
X199303854Y-126206618D01*
X199399092Y-126111380D01*
X199494330Y-126063761D01*
X199684807Y-126063761D01*
X199780045Y-126111380D01*
X199875283Y-126206618D01*
X199922902Y-126397094D01*
X199922902Y-126730428D01*
X199875283Y-126920904D01*
X199780045Y-127016142D01*
X199684807Y-127063761D01*
X199494330Y-127063761D01*
X200875283Y-127063761D02*
X200303854Y-127063761D01*
X200589568Y-127063761D02*
X200589568Y-126063761D01*
X200494330Y-126206618D01*
X200399092Y-126301856D01*
X200303854Y-126349475D01*
X201494330Y-126063761D02*
X201589569Y-126063761D01*
X201684807Y-126111380D01*
X201732426Y-126158999D01*
X201780045Y-126254237D01*
X201827664Y-126444713D01*
X201827664Y-126682809D01*
X201780045Y-126873285D01*
X201732426Y-126968523D01*
X201684807Y-127016142D01*
X201589569Y-127063761D01*
X201494330Y-127063761D01*
X201399092Y-127016142D01*
X201351473Y-126968523D01*
X201303854Y-126873285D01*
X201256235Y-126682809D01*
X201256235Y-126444713D01*
X201303854Y-126254237D01*
X201351473Y-126158999D01*
X201399092Y-126111380D01*
X201494330Y-126063761D01*
X202160997Y-126063761D02*
X202827664Y-126063761D01*
X202399092Y-127063761D01*
X210511521Y-127158999D02*
X210416283Y-127111380D01*
X210321045Y-127016142D01*
X210178188Y-126873285D01*
X210082949Y-126825666D01*
X209987711Y-126825666D01*
X210035330Y-127063761D02*
X209940092Y-127016142D01*
X209844854Y-126920904D01*
X209797235Y-126730428D01*
X209797235Y-126397094D01*
X209844854Y-126206618D01*
X209940092Y-126111380D01*
X210035330Y-126063761D01*
X210225807Y-126063761D01*
X210321045Y-126111380D01*
X210416283Y-126206618D01*
X210463902Y-126397094D01*
X210463902Y-126730428D01*
X210416283Y-126920904D01*
X210321045Y-127016142D01*
X210225807Y-127063761D01*
X210035330Y-127063761D01*
X211416283Y-127063761D02*
X210844854Y-127063761D01*
X211130568Y-127063761D02*
X211130568Y-126063761D01*
X211035330Y-126206618D01*
X210940092Y-126301856D01*
X210844854Y-126349475D01*
X212035330Y-126063761D02*
X212130569Y-126063761D01*
X212225807Y-126111380D01*
X212273426Y-126158999D01*
X212321045Y-126254237D01*
X212368664Y-126444713D01*
X212368664Y-126682809D01*
X212321045Y-126873285D01*
X212273426Y-126968523D01*
X212225807Y-127016142D01*
X212130569Y-127063761D01*
X212035330Y-127063761D01*
X211940092Y-127016142D01*
X211892473Y-126968523D01*
X211844854Y-126873285D01*
X211797235Y-126682809D01*
X211797235Y-126444713D01*
X211844854Y-126254237D01*
X211892473Y-126158999D01*
X211940092Y-126111380D01*
X212035330Y-126063761D01*
X212940092Y-126492332D02*
X212844854Y-126444713D01*
X212797235Y-126397094D01*
X212749616Y-126301856D01*
X212749616Y-126254237D01*
X212797235Y-126158999D01*
X212844854Y-126111380D01*
X212940092Y-126063761D01*
X213130569Y-126063761D01*
X213225807Y-126111380D01*
X213273426Y-126158999D01*
X213321045Y-126254237D01*
X213321045Y-126301856D01*
X213273426Y-126397094D01*
X213225807Y-126444713D01*
X213130569Y-126492332D01*
X212940092Y-126492332D01*
X212844854Y-126539951D01*
X212797235Y-126587570D01*
X212749616Y-126682809D01*
X212749616Y-126873285D01*
X212797235Y-126968523D01*
X212844854Y-127016142D01*
X212940092Y-127063761D01*
X213130569Y-127063761D01*
X213225807Y-127016142D01*
X213273426Y-126968523D01*
X213321045Y-126873285D01*
X213321045Y-126682809D01*
X213273426Y-126587570D01*
X213225807Y-126539951D01*
X213130569Y-126492332D01*
X187602953Y-98623381D02*
X187269619Y-98147190D01*
X187031524Y-98623381D02*
X187031524Y-97623381D01*
X187412477Y-97623381D01*
X187507715Y-97671000D01*
X187555334Y-97718619D01*
X187602953Y-97813857D01*
X187602953Y-97956714D01*
X187555334Y-98051952D01*
X187507715Y-98099571D01*
X187412477Y-98147190D01*
X187031524Y-98147190D01*
X188555334Y-98623381D02*
X187983905Y-98623381D01*
X188269619Y-98623381D02*
X188269619Y-97623381D01*
X188174381Y-97766238D01*
X188079143Y-97861476D01*
X187983905Y-97909095D01*
X189507715Y-98623381D02*
X188936286Y-98623381D01*
X189222000Y-98623381D02*
X189222000Y-97623381D01*
X189126762Y-97766238D01*
X189031524Y-97861476D01*
X188936286Y-97909095D01*
X190460096Y-98623381D02*
X189888667Y-98623381D01*
X190174381Y-98623381D02*
X190174381Y-97623381D01*
X190079143Y-97766238D01*
X189983905Y-97861476D01*
X189888667Y-97909095D01*
X187602953Y-106116381D02*
X187269619Y-105640190D01*
X187031524Y-106116381D02*
X187031524Y-105116381D01*
X187412477Y-105116381D01*
X187507715Y-105164000D01*
X187555334Y-105211619D01*
X187602953Y-105306857D01*
X187602953Y-105449714D01*
X187555334Y-105544952D01*
X187507715Y-105592571D01*
X187412477Y-105640190D01*
X187031524Y-105640190D01*
X188555334Y-106116381D02*
X187983905Y-106116381D01*
X188269619Y-106116381D02*
X188269619Y-105116381D01*
X188174381Y-105259238D01*
X188079143Y-105354476D01*
X187983905Y-105402095D01*
X189507715Y-106116381D02*
X188936286Y-106116381D01*
X189222000Y-106116381D02*
X189222000Y-105116381D01*
X189126762Y-105259238D01*
X189031524Y-105354476D01*
X188936286Y-105402095D01*
X189888667Y-105211619D02*
X189936286Y-105164000D01*
X190031524Y-105116381D01*
X190269620Y-105116381D01*
X190364858Y-105164000D01*
X190412477Y-105211619D01*
X190460096Y-105306857D01*
X190460096Y-105402095D01*
X190412477Y-105544952D01*
X189841048Y-106116381D01*
X190460096Y-106116381D01*
X187602953Y-111196381D02*
X187269619Y-110720190D01*
X187031524Y-111196381D02*
X187031524Y-110196381D01*
X187412477Y-110196381D01*
X187507715Y-110244000D01*
X187555334Y-110291619D01*
X187602953Y-110386857D01*
X187602953Y-110529714D01*
X187555334Y-110624952D01*
X187507715Y-110672571D01*
X187412477Y-110720190D01*
X187031524Y-110720190D01*
X188555334Y-111196381D02*
X187983905Y-111196381D01*
X188269619Y-111196381D02*
X188269619Y-110196381D01*
X188174381Y-110339238D01*
X188079143Y-110434476D01*
X187983905Y-110482095D01*
X189507715Y-111196381D02*
X188936286Y-111196381D01*
X189222000Y-111196381D02*
X189222000Y-110196381D01*
X189126762Y-110339238D01*
X189031524Y-110434476D01*
X188936286Y-110482095D01*
X189841048Y-110196381D02*
X190460096Y-110196381D01*
X190126762Y-110577333D01*
X190269620Y-110577333D01*
X190364858Y-110624952D01*
X190412477Y-110672571D01*
X190460096Y-110767810D01*
X190460096Y-111005905D01*
X190412477Y-111101143D01*
X190364858Y-111148762D01*
X190269620Y-111196381D01*
X189983905Y-111196381D01*
X189888667Y-111148762D01*
X189841048Y-111101143D01*
X187602953Y-108656381D02*
X187269619Y-108180190D01*
X187031524Y-108656381D02*
X187031524Y-107656381D01*
X187412477Y-107656381D01*
X187507715Y-107704000D01*
X187555334Y-107751619D01*
X187602953Y-107846857D01*
X187602953Y-107989714D01*
X187555334Y-108084952D01*
X187507715Y-108132571D01*
X187412477Y-108180190D01*
X187031524Y-108180190D01*
X188555334Y-108656381D02*
X187983905Y-108656381D01*
X188269619Y-108656381D02*
X188269619Y-107656381D01*
X188174381Y-107799238D01*
X188079143Y-107894476D01*
X187983905Y-107942095D01*
X189507715Y-108656381D02*
X188936286Y-108656381D01*
X189222000Y-108656381D02*
X189222000Y-107656381D01*
X189126762Y-107799238D01*
X189031524Y-107894476D01*
X188936286Y-107942095D01*
X190364858Y-107989714D02*
X190364858Y-108656381D01*
X190126762Y-107608762D02*
X189888667Y-108323048D01*
X190507715Y-108323048D01*
M02*
