G04 #@! TF.GenerationSoftware,KiCad,Pcbnew,5.1.5+dfsg1-2build2*
G04 #@! TF.CreationDate,2024-04-23T22:36:46+02:00*
G04 #@! TF.ProjectId,mainboard,6d61696e-626f-4617-9264-2e6b69636164,231006*
G04 #@! TF.SameCoordinates,Original*
G04 #@! TF.FileFunction,Soldermask,Top*
G04 #@! TF.FilePolarity,Negative*
%FSLAX46Y46*%
G04 Gerber Fmt 4.6, Leading zero omitted, Abs format (unit mm)*
G04 Created by KiCad (PCBNEW 5.1.5+dfsg1-2build2) date 2024-04-23 22:36:46*
%MOMM*%
%LPD*%
G04 APERTURE LIST*
%ADD10C,0.100000*%
%ADD11R,1.300000X1.300000*%
%ADD12C,1.300000*%
%ADD13R,2.032000X2.032000*%
%ADD14O,2.032000X2.032000*%
%ADD15C,1.397000*%
%ADD16R,1.727200X2.032000*%
%ADD17O,1.727200X2.032000*%
%ADD18R,2.032000X1.727200*%
%ADD19O,2.032000X1.727200*%
%ADD20C,1.998980*%
%ADD21R,1.998980X1.998980*%
%ADD22O,1.699260X3.500120*%
%ADD23C,3.200400*%
%ADD24O,1.600000X2.300000*%
%ADD25O,0.899160X1.501140*%
%ADD26C,1.699260*%
%ADD27C,6.400000*%
G04 APERTURE END LIST*
D10*
X145288000Y-130810000D02*
X187706000Y-130810000D01*
X186690000Y-67818000D02*
X140208000Y-67818000D01*
X74803000Y-67818000D02*
X140335000Y-67818000D01*
X74803000Y-130810000D02*
X74803000Y-67818000D01*
X145415000Y-130810000D02*
X74803000Y-130810000D01*
X235331000Y-130810000D02*
X187579000Y-130810000D01*
X235331000Y-67818000D02*
X235331000Y-130810000D01*
X186563000Y-67818000D02*
X235331000Y-67818000D01*
D11*
X183642000Y-118999000D03*
D12*
X188642000Y-118999000D03*
D13*
X183515000Y-125984000D03*
D14*
X186055000Y-125984000D03*
D13*
X165862000Y-72644000D03*
D14*
X168402000Y-72644000D03*
D13*
X190627000Y-125984000D03*
D14*
X193167000Y-125984000D03*
D15*
X184912000Y-113284000D03*
X192532000Y-113284000D03*
D16*
X164592000Y-125984000D03*
D17*
X167132000Y-125984000D03*
X169672000Y-125984000D03*
D15*
X165227000Y-90424000D03*
X165227000Y-82804000D03*
X172212000Y-90424000D03*
X172212000Y-82804000D03*
X169037000Y-90424000D03*
X169037000Y-82804000D03*
X162052000Y-90424000D03*
X162052000Y-82804000D03*
X162052000Y-101219000D03*
X162052000Y-93599000D03*
D18*
X156972000Y-118364000D03*
D19*
X156972000Y-115824000D03*
X156972000Y-113284000D03*
X156972000Y-110744000D03*
X156972000Y-108204000D03*
X156972000Y-105664000D03*
X156972000Y-103124000D03*
X156972000Y-100584000D03*
X156972000Y-98044000D03*
X156972000Y-95504000D03*
X156972000Y-92964000D03*
X156972000Y-90424000D03*
X156972000Y-87884000D03*
X156972000Y-85344000D03*
X156972000Y-82804000D03*
X156972000Y-80264000D03*
D18*
X177292000Y-90424000D03*
D19*
X177292000Y-92964000D03*
X177292000Y-95504000D03*
X177292000Y-98044000D03*
X177292000Y-100584000D03*
X177292000Y-103124000D03*
X177292000Y-105664000D03*
X177292000Y-108204000D03*
X177292000Y-110744000D03*
X177292000Y-113284000D03*
X177292000Y-115824000D03*
X177292000Y-118364000D03*
D12*
X111577000Y-119888000D03*
D11*
X108077000Y-119888000D03*
D12*
X111577000Y-105918000D03*
D11*
X108077000Y-105918000D03*
X117602000Y-92964000D03*
D12*
X117602000Y-97964000D03*
D20*
X84963000Y-102872540D03*
D21*
X95123000Y-102872540D03*
D20*
X95123000Y-107947460D03*
D21*
X84963000Y-107947460D03*
D20*
X84963000Y-113032540D03*
D21*
X95123000Y-113032540D03*
D20*
X95123000Y-118107460D03*
D21*
X84963000Y-118107460D03*
D20*
X84963000Y-80012540D03*
D21*
X95123000Y-80012540D03*
D20*
X95123000Y-85087460D03*
D21*
X84963000Y-85087460D03*
D20*
X84963000Y-90172540D03*
D21*
X95123000Y-90172540D03*
D20*
X95123000Y-95247460D03*
D21*
X84963000Y-95247460D03*
D13*
X95123000Y-125730000D03*
D14*
X97663000Y-125730000D03*
D13*
X79883000Y-109474000D03*
D14*
X79883000Y-112014000D03*
D13*
X79883000Y-86106000D03*
D14*
X79883000Y-88646000D03*
D22*
X109601000Y-93218000D03*
X107061000Y-93218000D03*
X112141000Y-93218000D03*
D23*
X109601000Y-76454000D03*
D20*
X122679460Y-113284000D03*
D21*
X122679460Y-123444000D03*
D20*
X127759460Y-113284000D03*
D21*
X127759460Y-123444000D03*
D20*
X122684540Y-109474000D03*
D21*
X122684540Y-99314000D03*
D20*
X127764540Y-109474000D03*
D21*
X127764540Y-99314000D03*
D16*
X132207000Y-125984000D03*
D17*
X134747000Y-125984000D03*
X137287000Y-125984000D03*
X139827000Y-125984000D03*
X142367000Y-125984000D03*
D15*
X132207000Y-113284000D03*
X132207000Y-120904000D03*
X135382000Y-113284000D03*
X135382000Y-120904000D03*
X139192000Y-113284000D03*
X139192000Y-120904000D03*
X142367000Y-113284000D03*
X142367000Y-120904000D03*
D24*
X125222000Y-94869000D03*
X127762000Y-94869000D03*
X130302000Y-94869000D03*
X130302000Y-87249000D03*
X127762000Y-87249000D03*
X125222000Y-87249000D03*
X137287000Y-94869000D03*
X139827000Y-94869000D03*
X142367000Y-94869000D03*
X142367000Y-87249000D03*
X139827000Y-87249000D03*
X137287000Y-87249000D03*
X125222000Y-81534000D03*
X127762000Y-81534000D03*
X130302000Y-81534000D03*
X130302000Y-73914000D03*
X127762000Y-73914000D03*
X125222000Y-73914000D03*
X137287000Y-81534000D03*
X139827000Y-81534000D03*
X142367000Y-81534000D03*
X142367000Y-73914000D03*
X139827000Y-73914000D03*
X137287000Y-73914000D03*
D20*
X219966540Y-96647000D03*
D21*
X219966540Y-86487000D03*
D20*
X223776540Y-99187000D03*
D21*
X223776540Y-89027000D03*
D20*
X219961460Y-101727000D03*
D21*
X219961460Y-111887000D03*
D20*
X224406460Y-104267000D03*
D21*
X224406460Y-114427000D03*
D18*
X230759000Y-94107000D03*
D19*
X230759000Y-96647000D03*
X230759000Y-99187000D03*
X230759000Y-101727000D03*
X230759000Y-104267000D03*
D25*
X211709000Y-94107000D03*
X212979000Y-94107000D03*
X210439000Y-94107000D03*
X201231500Y-94107000D03*
X202501500Y-94107000D03*
X199961500Y-94107000D03*
X201168000Y-103949500D03*
X199898000Y-103949500D03*
X202438000Y-103949500D03*
X211709000Y-103949500D03*
X210439000Y-103949500D03*
X212979000Y-103949500D03*
D26*
X211836000Y-89408000D03*
X209544920Y-89408000D03*
X214127080Y-89408000D03*
D23*
X211836000Y-76608940D03*
D26*
X201231500Y-89344500D03*
X198940420Y-89344500D03*
X203522580Y-89344500D03*
D23*
X201231500Y-76545440D03*
D26*
X201168000Y-108712000D03*
X203459080Y-108712000D03*
X198876920Y-108712000D03*
D23*
X201168000Y-121511060D03*
D26*
X211709000Y-108712000D03*
X214000080Y-108712000D03*
X209417920Y-108712000D03*
D23*
X211709000Y-121511060D03*
D15*
X184912000Y-98044000D03*
X192532000Y-98044000D03*
X184912000Y-105664000D03*
X192532000Y-105664000D03*
X184912000Y-110744000D03*
X192532000Y-110744000D03*
X184912000Y-108204000D03*
X192532000Y-108204000D03*
D27*
X230251000Y-72898000D03*
X230251000Y-125730000D03*
X79883000Y-72898000D03*
X79883000Y-125730000D03*
M02*
