M48
;DRILL file {KiCad 4.0.5+dfsg1-4} date Sat Oct 31 20:23:53 2020
;FORMAT={-:-/ absolute / inch / decimal}
FMAT,2
INCH,TZ
T1C0.016
T2C0.024
T3C0.031
T4C0.032
T5C0.039
T6C0.040
T7C0.047
T8C0.050
T9C0.126
%
G90
G05
M72
T1
X5.78Y-2.86
T2
X7.87Y-4.08
X7.875Y-3.7
X7.92Y-4.08
X7.925Y-3.7
X7.97Y-4.08
X7.975Y-3.7
X8.285Y-3.7
X8.285Y-4.08
X8.335Y-3.7
X8.335Y-4.08
X8.385Y-3.7
X8.385Y-4.08
T3
X4.255Y-4.17
X4.255Y-4.72
X4.3928Y-4.17
X4.3928Y-4.72
X4.63Y-3.66
X4.63Y-3.8569
X4.93Y-2.91
X4.93Y-3.21
X4.93Y-3.435
X4.93Y-3.735
X5.03Y-2.91
X5.03Y-3.21
X5.03Y-3.435
X5.03Y-3.735
X5.13Y-2.91
X5.13Y-3.21
X5.13Y-3.435
X5.13Y-3.735
X5.405Y-2.91
X5.405Y-3.21
X5.405Y-3.435
X5.405Y-3.735
X5.505Y-2.91
X5.505Y-3.21
X5.505Y-3.435
X5.505Y-3.735
X5.605Y-2.91
X5.605Y-3.21
X5.605Y-3.435
X5.605Y-3.735
X7.23Y-4.685
X7.4269Y-4.685
T4
X5.205Y-4.46
X5.205Y-4.76
X5.33Y-4.46
X5.33Y-4.76
X5.48Y-4.46
X5.48Y-4.76
X5.605Y-4.46
X5.605Y-4.76
X6.38Y-3.26
X6.38Y-3.56
X6.38Y-3.685
X6.38Y-3.985
X6.505Y-3.26
X6.505Y-3.56
X6.655Y-3.26
X6.655Y-3.56
X6.78Y-3.26
X6.78Y-3.56
X7.28Y-3.86
X7.28Y-4.16
X7.28Y-4.26
X7.28Y-4.36
X7.28Y-4.46
X7.58Y-3.86
X7.58Y-4.16
X7.58Y-4.26
X7.58Y-4.36
X7.58Y-4.46
T5
X3.345Y-3.3499
X3.345Y-3.7499
X3.345Y-4.2499
X3.345Y-4.6499
X3.745Y-3.1501
X3.745Y-3.5501
X3.745Y-4.0501
X3.745Y-4.4501
X4.215Y-3.67
X4.315Y-3.67
X4.415Y-3.67
X4.8299Y-4.86
X4.8301Y-3.91
X5.0299Y-4.86
X5.0301Y-3.91
X8.6599Y-4.005
X8.6599Y-4.405
X8.6601Y-3.405
X8.6601Y-3.805
X8.8101Y-3.505
X8.8101Y-3.905
X8.8349Y-4.105
X8.8349Y-4.505
T6
X3.145Y-3.39
X3.145Y-3.49
X3.145Y-4.31
X3.145Y-4.41
X3.745Y-4.95
X3.845Y-4.95
X5.205Y-4.96
X5.305Y-4.96
X5.405Y-4.96
X5.505Y-4.96
X5.605Y-4.96
X6.18Y-3.16
X6.18Y-3.26
X6.18Y-3.36
X6.18Y-3.46
X6.18Y-3.56
X6.18Y-3.66
X6.18Y-3.76
X6.18Y-3.86
X6.18Y-3.96
X6.18Y-4.06
X6.18Y-4.16
X6.18Y-4.26
X6.18Y-4.36
X6.18Y-4.46
X6.18Y-4.56
X6.18Y-4.66
X6.48Y-4.96
X6.53Y-2.86
X6.58Y-4.96
X6.63Y-2.86
X6.68Y-4.96
X6.98Y-3.56
X6.98Y-3.66
X6.98Y-3.76
X6.98Y-3.86
X6.98Y-3.96
X6.98Y-4.06
X6.98Y-4.16
X6.98Y-4.26
X6.98Y-4.36
X6.98Y-4.46
X6.98Y-4.56
X6.98Y-4.66
X7.225Y-4.96
X7.325Y-4.96
X7.505Y-4.96
X7.605Y-4.96
X9.085Y-3.705
X9.085Y-3.805
X9.085Y-3.905
X9.085Y-4.005
X9.085Y-4.105
T7
X7.8298Y-4.28
X7.8323Y-3.5175
X7.92Y-4.28
X7.9225Y-3.5175
X8.0102Y-4.28
X8.0127Y-3.5175
X8.2448Y-4.28
X8.2498Y-3.52
X8.335Y-4.28
X8.34Y-3.52
X8.4252Y-4.28
X8.4302Y-3.52
T8
X3.345Y-3.1501
X3.345Y-3.5501
X3.345Y-4.0501
X3.345Y-4.4501
X3.745Y-3.3499
X3.745Y-3.7499
X3.745Y-4.2499
X3.745Y-4.6499
X4.8299Y-4.46
X4.8301Y-4.31
X5.0299Y-4.46
X5.0301Y-4.31
T9
X3.145Y-2.87
X3.145Y-4.95
X9.065Y-2.87
X9.065Y-4.95
T0
M30
