%FSLAX45Y45*%
G04 Gerber Fmt 4.5, Leading zero omitted, Abs format (unit mm)*
G04 Created by KiCad (PCBNEW 5.1.5+dfsg1-2build2) date 2024-04-23 22:36:58*
%MOMM*%
%LPD*%
G04 APERTURE LIST*
%TA.AperFunction,Profile*%
%ADD10C,0.100000*%
%TD*%
%ADD11C,0.200000*%
%ADD12C,0.300000*%
G04 APERTURE END LIST*
D10*
X14528800Y-13081000D02*
X18770600Y-13081000D01*
X18669000Y-6781800D02*
X14020800Y-6781800D01*
X7480300Y-6781800D02*
X14033500Y-6781800D01*
X7480300Y-13081000D02*
X7480300Y-6781800D01*
X14541500Y-13081000D02*
X7480300Y-13081000D01*
X23533100Y-13081000D02*
X18757900Y-13081000D01*
X23533100Y-6781800D02*
X23533100Y-13081000D01*
X18656300Y-6781800D02*
X23533100Y-6781800D01*
D11*
X19963130Y-7494524D02*
X20283170Y-7814564D01*
X20283170Y-7494524D02*
X19963130Y-7814564D01*
X10800080Y-7485380D02*
X11120120Y-7805420D01*
X11120120Y-7485380D02*
X10800080Y-7805420D01*
X19956780Y-11991086D02*
X20276820Y-12311126D01*
X20276820Y-11991086D02*
X19956780Y-12311126D01*
X21010880Y-11991086D02*
X21330920Y-12311126D01*
X21330920Y-11991086D02*
X21010880Y-12311126D01*
X21023580Y-7500874D02*
X21343620Y-7820914D01*
X21343620Y-7500874D02*
X21023580Y-7820914D01*
D12*
X7761728Y-13551714D02*
X7761728Y-13251714D01*
X7833157Y-13251714D01*
X7876014Y-13266000D01*
X7904586Y-13294571D01*
X7918871Y-13323143D01*
X7933157Y-13380286D01*
X7933157Y-13423143D01*
X7918871Y-13480286D01*
X7904586Y-13508857D01*
X7876014Y-13537429D01*
X7833157Y-13551714D01*
X7761728Y-13551714D01*
X8061728Y-13551714D02*
X8061728Y-13351714D01*
X8061728Y-13408857D02*
X8076014Y-13380286D01*
X8090300Y-13366000D01*
X8118871Y-13351714D01*
X8147443Y-13351714D01*
X8247443Y-13551714D02*
X8247443Y-13351714D01*
X8247443Y-13251714D02*
X8233157Y-13266000D01*
X8247443Y-13280286D01*
X8261728Y-13266000D01*
X8247443Y-13251714D01*
X8247443Y-13280286D01*
X8433157Y-13551714D02*
X8404586Y-13537429D01*
X8390300Y-13508857D01*
X8390300Y-13251714D01*
X8590300Y-13551714D02*
X8561728Y-13537429D01*
X8547443Y-13508857D01*
X8547443Y-13251714D01*
X8933157Y-13551714D02*
X8933157Y-13251714D01*
X9033157Y-13466000D01*
X9133157Y-13251714D01*
X9133157Y-13551714D01*
X9404586Y-13551714D02*
X9404586Y-13394571D01*
X9390300Y-13366000D01*
X9361728Y-13351714D01*
X9304586Y-13351714D01*
X9276014Y-13366000D01*
X9404586Y-13537429D02*
X9376014Y-13551714D01*
X9304586Y-13551714D01*
X9276014Y-13537429D01*
X9261728Y-13508857D01*
X9261728Y-13480286D01*
X9276014Y-13451714D01*
X9304586Y-13437429D01*
X9376014Y-13437429D01*
X9404586Y-13423143D01*
X9547443Y-13351714D02*
X9547443Y-13651714D01*
X9547443Y-13366000D02*
X9576014Y-13351714D01*
X9633157Y-13351714D01*
X9661728Y-13366000D01*
X9676014Y-13380286D01*
X9690300Y-13408857D01*
X9690300Y-13494571D01*
X9676014Y-13523143D01*
X9661728Y-13537429D01*
X9633157Y-13551714D01*
X9576014Y-13551714D01*
X9547443Y-13537429D01*
X9818871Y-13523143D02*
X9833157Y-13537429D01*
X9818871Y-13551714D01*
X9804586Y-13537429D01*
X9818871Y-13523143D01*
X9818871Y-13551714D01*
X9818871Y-13366000D02*
X9833157Y-13380286D01*
X9818871Y-13394571D01*
X9804586Y-13380286D01*
X9818871Y-13366000D01*
X9818871Y-13394571D01*
X7155260Y-13885980D02*
X7475300Y-14206020D01*
X7475300Y-13885980D02*
X7155260Y-14206020D01*
X7733157Y-13881714D02*
X7918871Y-13881714D01*
X7818871Y-13996000D01*
X7861728Y-13996000D01*
X7890300Y-14010286D01*
X7904586Y-14024571D01*
X7918871Y-14053143D01*
X7918871Y-14124571D01*
X7904586Y-14153143D01*
X7890300Y-14167429D01*
X7861728Y-14181714D01*
X7776014Y-14181714D01*
X7747443Y-14167429D01*
X7733157Y-14153143D01*
X8047443Y-14153143D02*
X8061728Y-14167429D01*
X8047443Y-14181714D01*
X8033157Y-14167429D01*
X8047443Y-14153143D01*
X8047443Y-14181714D01*
X8176014Y-13910286D02*
X8190300Y-13896000D01*
X8218871Y-13881714D01*
X8290300Y-13881714D01*
X8318871Y-13896000D01*
X8333157Y-13910286D01*
X8347443Y-13938857D01*
X8347443Y-13967429D01*
X8333157Y-14010286D01*
X8161728Y-14181714D01*
X8347443Y-14181714D01*
X8533157Y-13881714D02*
X8561728Y-13881714D01*
X8590300Y-13896000D01*
X8604586Y-13910286D01*
X8618871Y-13938857D01*
X8633157Y-13996000D01*
X8633157Y-14067429D01*
X8618871Y-14124571D01*
X8604586Y-14153143D01*
X8590300Y-14167429D01*
X8561728Y-14181714D01*
X8533157Y-14181714D01*
X8504586Y-14167429D01*
X8490300Y-14153143D01*
X8476014Y-14124571D01*
X8461728Y-14067429D01*
X8461728Y-13996000D01*
X8476014Y-13938857D01*
X8490300Y-13910286D01*
X8504586Y-13896000D01*
X8533157Y-13881714D01*
X8761728Y-14181714D02*
X8761728Y-13981714D01*
X8761728Y-14010286D02*
X8776014Y-13996000D01*
X8804586Y-13981714D01*
X8847443Y-13981714D01*
X8876014Y-13996000D01*
X8890300Y-14024571D01*
X8890300Y-14181714D01*
X8890300Y-14024571D02*
X8904586Y-13996000D01*
X8933157Y-13981714D01*
X8976014Y-13981714D01*
X9004586Y-13996000D01*
X9018871Y-14024571D01*
X9018871Y-14181714D01*
X9161728Y-14181714D02*
X9161728Y-13981714D01*
X9161728Y-14010286D02*
X9176014Y-13996000D01*
X9204586Y-13981714D01*
X9247443Y-13981714D01*
X9276014Y-13996000D01*
X9290300Y-14024571D01*
X9290300Y-14181714D01*
X9290300Y-14024571D02*
X9304586Y-13996000D01*
X9333157Y-13981714D01*
X9376014Y-13981714D01*
X9404586Y-13996000D01*
X9418871Y-14024571D01*
X9418871Y-14181714D01*
X10004586Y-13867429D02*
X9747443Y-14253143D01*
X10390300Y-13881714D02*
X10418871Y-13881714D01*
X10447443Y-13896000D01*
X10461728Y-13910286D01*
X10476014Y-13938857D01*
X10490300Y-13996000D01*
X10490300Y-14067429D01*
X10476014Y-14124571D01*
X10461728Y-14153143D01*
X10447443Y-14167429D01*
X10418871Y-14181714D01*
X10390300Y-14181714D01*
X10361728Y-14167429D01*
X10347443Y-14153143D01*
X10333157Y-14124571D01*
X10318871Y-14067429D01*
X10318871Y-13996000D01*
X10333157Y-13938857D01*
X10347443Y-13910286D01*
X10361728Y-13896000D01*
X10390300Y-13881714D01*
X10618871Y-14153143D02*
X10633157Y-14167429D01*
X10618871Y-14181714D01*
X10604586Y-14167429D01*
X10618871Y-14153143D01*
X10618871Y-14181714D01*
X10918871Y-14181714D02*
X10747443Y-14181714D01*
X10833157Y-14181714D02*
X10833157Y-13881714D01*
X10804586Y-13924571D01*
X10776014Y-13953143D01*
X10747443Y-13967429D01*
X11033157Y-13910286D02*
X11047443Y-13896000D01*
X11076014Y-13881714D01*
X11147443Y-13881714D01*
X11176014Y-13896000D01*
X11190300Y-13910286D01*
X11204586Y-13938857D01*
X11204586Y-13967429D01*
X11190300Y-14010286D01*
X11018871Y-14181714D01*
X11204586Y-14181714D01*
X11461728Y-13881714D02*
X11404586Y-13881714D01*
X11376014Y-13896000D01*
X11361728Y-13910286D01*
X11333157Y-13953143D01*
X11318871Y-14010286D01*
X11318871Y-14124571D01*
X11333157Y-14153143D01*
X11347443Y-14167429D01*
X11376014Y-14181714D01*
X11433157Y-14181714D01*
X11461728Y-14167429D01*
X11476014Y-14153143D01*
X11490300Y-14124571D01*
X11490300Y-14053143D01*
X11476014Y-14024571D01*
X11461728Y-14010286D01*
X11433157Y-13996000D01*
X11376014Y-13996000D01*
X11347443Y-14010286D01*
X11333157Y-14024571D01*
X11318871Y-14053143D01*
X11604586Y-13881714D02*
X11604586Y-13938857D01*
X11718871Y-13881714D02*
X11718871Y-13938857D01*
X12161728Y-14296000D02*
X12147443Y-14281714D01*
X12118871Y-14238857D01*
X12104586Y-14210286D01*
X12090300Y-14167429D01*
X12076014Y-14096000D01*
X12076014Y-14038857D01*
X12090300Y-13967429D01*
X12104586Y-13924571D01*
X12118871Y-13896000D01*
X12147443Y-13853143D01*
X12161728Y-13838857D01*
X12418871Y-13881714D02*
X12276014Y-13881714D01*
X12261728Y-14024571D01*
X12276014Y-14010286D01*
X12304586Y-13996000D01*
X12376014Y-13996000D01*
X12404586Y-14010286D01*
X12418871Y-14024571D01*
X12433157Y-14053143D01*
X12433157Y-14124571D01*
X12418871Y-14153143D01*
X12404586Y-14167429D01*
X12376014Y-14181714D01*
X12304586Y-14181714D01*
X12276014Y-14167429D01*
X12261728Y-14153143D01*
X12790300Y-14181714D02*
X12790300Y-13881714D01*
X12918871Y-14181714D02*
X12918871Y-14024571D01*
X12904586Y-13996000D01*
X12876014Y-13981714D01*
X12833157Y-13981714D01*
X12804586Y-13996000D01*
X12790300Y-14010286D01*
X13104586Y-14181714D02*
X13076014Y-14167429D01*
X13061728Y-14153143D01*
X13047443Y-14124571D01*
X13047443Y-14038857D01*
X13061728Y-14010286D01*
X13076014Y-13996000D01*
X13104586Y-13981714D01*
X13147443Y-13981714D01*
X13176014Y-13996000D01*
X13190300Y-14010286D01*
X13204586Y-14038857D01*
X13204586Y-14124571D01*
X13190300Y-14153143D01*
X13176014Y-14167429D01*
X13147443Y-14181714D01*
X13104586Y-14181714D01*
X13376014Y-14181714D02*
X13347443Y-14167429D01*
X13333157Y-14138857D01*
X13333157Y-13881714D01*
X13604586Y-14167429D02*
X13576014Y-14181714D01*
X13518871Y-14181714D01*
X13490300Y-14167429D01*
X13476014Y-14138857D01*
X13476014Y-14024571D01*
X13490300Y-13996000D01*
X13518871Y-13981714D01*
X13576014Y-13981714D01*
X13604586Y-13996000D01*
X13618871Y-14024571D01*
X13618871Y-14053143D01*
X13476014Y-14081714D01*
X13733157Y-14167429D02*
X13761728Y-14181714D01*
X13818871Y-14181714D01*
X13847443Y-14167429D01*
X13861728Y-14138857D01*
X13861728Y-14124571D01*
X13847443Y-14096000D01*
X13818871Y-14081714D01*
X13776014Y-14081714D01*
X13747443Y-14067429D01*
X13733157Y-14038857D01*
X13733157Y-14024571D01*
X13747443Y-13996000D01*
X13776014Y-13981714D01*
X13818871Y-13981714D01*
X13847443Y-13996000D01*
X13961728Y-14296000D02*
X13976014Y-14281714D01*
X14004586Y-14238857D01*
X14018871Y-14210286D01*
X14033157Y-14167429D01*
X14047443Y-14096000D01*
X14047443Y-14038857D01*
X14033157Y-13967429D01*
X14018871Y-13924571D01*
X14004586Y-13896000D01*
X13976014Y-13853143D01*
X13961728Y-13838857D01*
X14504586Y-14296000D02*
X14490300Y-14281714D01*
X14461728Y-14238857D01*
X14447443Y-14210286D01*
X14433157Y-14167429D01*
X14418871Y-14096000D01*
X14418871Y-14038857D01*
X14433157Y-13967429D01*
X14447443Y-13924571D01*
X14461728Y-13896000D01*
X14490300Y-13853143D01*
X14504586Y-13838857D01*
X14618871Y-13981714D02*
X14618871Y-14181714D01*
X14618871Y-14010286D02*
X14633157Y-13996000D01*
X14661728Y-13981714D01*
X14704586Y-13981714D01*
X14733157Y-13996000D01*
X14747443Y-14024571D01*
X14747443Y-14181714D01*
X14933157Y-14181714D02*
X14904586Y-14167429D01*
X14890300Y-14153143D01*
X14876014Y-14124571D01*
X14876014Y-14038857D01*
X14890300Y-14010286D01*
X14904586Y-13996000D01*
X14933157Y-13981714D01*
X14976014Y-13981714D01*
X15004586Y-13996000D01*
X15018871Y-14010286D01*
X15033157Y-14038857D01*
X15033157Y-14124571D01*
X15018871Y-14153143D01*
X15004586Y-14167429D01*
X14976014Y-14181714D01*
X14933157Y-14181714D01*
X15118871Y-13981714D02*
X15233157Y-13981714D01*
X15161728Y-13881714D02*
X15161728Y-14138857D01*
X15176014Y-14167429D01*
X15204586Y-14181714D01*
X15233157Y-14181714D01*
X15561728Y-13981714D02*
X15561728Y-14281714D01*
X15561728Y-13996000D02*
X15590300Y-13981714D01*
X15647443Y-13981714D01*
X15676014Y-13996000D01*
X15690300Y-14010286D01*
X15704586Y-14038857D01*
X15704586Y-14124571D01*
X15690300Y-14153143D01*
X15676014Y-14167429D01*
X15647443Y-14181714D01*
X15590300Y-14181714D01*
X15561728Y-14167429D01*
X15876014Y-14181714D02*
X15847443Y-14167429D01*
X15833157Y-14138857D01*
X15833157Y-13881714D01*
X16118871Y-14181714D02*
X16118871Y-14024571D01*
X16104586Y-13996000D01*
X16076014Y-13981714D01*
X16018871Y-13981714D01*
X15990300Y-13996000D01*
X16118871Y-14167429D02*
X16090300Y-14181714D01*
X16018871Y-14181714D01*
X15990300Y-14167429D01*
X15976014Y-14138857D01*
X15976014Y-14110286D01*
X15990300Y-14081714D01*
X16018871Y-14067429D01*
X16090300Y-14067429D01*
X16118871Y-14053143D01*
X16218871Y-13981714D02*
X16333157Y-13981714D01*
X16261728Y-13881714D02*
X16261728Y-14138857D01*
X16276014Y-14167429D01*
X16304586Y-14181714D01*
X16333157Y-14181714D01*
X16547443Y-14167429D02*
X16518871Y-14181714D01*
X16461728Y-14181714D01*
X16433157Y-14167429D01*
X16418871Y-14138857D01*
X16418871Y-14024571D01*
X16433157Y-13996000D01*
X16461728Y-13981714D01*
X16518871Y-13981714D01*
X16547443Y-13996000D01*
X16561728Y-14024571D01*
X16561728Y-14053143D01*
X16418871Y-14081714D01*
X16818871Y-14181714D02*
X16818871Y-13881714D01*
X16818871Y-14167429D02*
X16790300Y-14181714D01*
X16733157Y-14181714D01*
X16704586Y-14167429D01*
X16690300Y-14153143D01*
X16676014Y-14124571D01*
X16676014Y-14038857D01*
X16690300Y-14010286D01*
X16704586Y-13996000D01*
X16733157Y-13981714D01*
X16790300Y-13981714D01*
X16818871Y-13996000D01*
X16933157Y-14296000D02*
X16947443Y-14281714D01*
X16976014Y-14238857D01*
X16990300Y-14210286D01*
X17004586Y-14167429D01*
X17018871Y-14096000D01*
X17018871Y-14038857D01*
X17004586Y-13967429D01*
X16990300Y-13924571D01*
X16976014Y-13896000D01*
X16947443Y-13853143D01*
X16933157Y-13838857D01*
M02*
